<svg width="638" height="379" viewBox="0 0 638 379" fill="none" xmlns="http://www.w3.org/2000/svg">
<g clip-path="url(#clip0_1112_6988)">
<path d="M638 0H0V379H638V0Z" fill="#5D9973"/>
<path d="M36.2666 269.962C36.2666 261.136 36.2666 254.591 36.2666 250.348C36.2666 246.095 36.2666 239.701 36.2666 231.145C34.9667 232.866 33.2469 234.317 31.1171 235.498C28.9873 236.679 26.6875 237.479 24.2277 237.899V231.145C26.5475 230.684 28.6573 229.824 30.5571 228.563C32.4569 227.312 33.9168 225.831 34.9367 224.14C35.9566 222.448 36.4666 220.647 36.4666 218.736H43.006V273.095H36.2566C36.2666 272.024 36.2666 270.983 36.2666 269.962Z" fill="black"/>
<path d="M54.8149 262.987C55.9048 260.476 57.3946 258.284 59.2644 256.403C61.1443 254.521 63.864 252.35 67.4437 249.888C68.5136 249.097 69.6235 248.287 70.7834 247.446C71.3433 247.076 71.8733 246.726 72.3832 246.406C74.193 245.155 75.7329 243.894 77.0128 242.643C78.2926 241.392 79.3525 239.971 80.2125 238.39C81.0724 236.809 81.5023 235.117 81.5023 233.306C81.5023 231.495 81.0624 229.854 80.1825 228.393C79.3026 226.932 78.0527 225.781 76.4228 224.94C74.793 224.11 72.8932 223.689 70.7134 223.689C68.1636 223.689 65.9338 224.27 64.034 225.431C62.1342 226.591 60.6543 228.223 59.6144 230.304C58.5745 232.396 58.0445 234.787 58.0445 237.479L51.8551 236.438C51.8551 232.816 52.6451 229.574 54.2249 226.721C55.8048 223.859 58.0446 221.638 60.9443 220.037C63.844 218.436 67.1537 217.635 70.8633 217.635C74.253 217.635 77.2727 218.285 79.9425 219.586C82.6122 220.887 84.702 222.739 86.2019 225.13C87.7118 227.522 88.4617 230.274 88.4617 233.386C88.4617 235.798 88.0017 238.02 87.0718 240.041C86.1419 242.062 84.912 243.864 83.3822 245.445C81.8523 247.026 80.0425 248.557 77.9527 250.048C76.7028 250.929 75.0529 252.07 73.0131 253.461C70.5534 255.042 68.6436 256.383 67.2737 257.503C65.9038 258.614 64.6539 259.935 63.514 261.436C62.3741 262.947 61.5742 264.719 61.1143 266.77C67.3737 266.77 72.0132 266.77 75.033 266.77C78.0527 266.77 82.5522 266.77 88.5317 266.77V273.115H52.765V272.484C53.045 268.661 53.725 265.499 54.8149 262.987Z" fill="black"/>
<path d="M96.221 272.184C95.321 271.253 94.8611 270.142 94.8611 268.841C94.8611 268.001 95.0711 267.24 95.491 266.54C95.911 265.839 96.4809 265.299 97.2009 264.899C97.9208 264.508 98.7207 264.308 99.6006 264.308C100.851 264.308 101.92 264.749 102.8 265.629C103.68 266.51 104.12 267.581 104.12 268.831C104.12 269.662 103.92 270.443 103.53 271.163C103.13 271.884 102.57 272.464 101.82 272.904C101.08 273.345 100.311 273.565 99.5206 273.565C98.2308 273.585 97.1309 273.115 96.221 272.184Z" fill="black"/>
<path d="M118.079 270.693C114.949 268.301 112.519 264.969 110.81 260.696C109.09 256.423 108.23 251.539 108.23 246.065C108.23 240.541 109.09 235.628 110.81 231.325C112.529 227.032 114.949 223.669 118.079 221.258C121.209 218.846 124.798 217.635 128.828 217.635C132.958 217.635 136.577 218.846 139.687 221.258C142.797 223.669 145.206 227.032 146.926 231.325C148.646 235.618 149.506 240.531 149.506 246.065C149.506 251.549 148.646 256.423 146.926 260.696C145.206 264.969 142.797 268.301 139.687 270.693C136.577 273.085 132.958 274.285 128.828 274.285C124.788 274.275 121.209 273.085 118.079 270.693ZM135.927 265.359C137.917 263.598 139.467 261.046 140.557 257.724C141.647 254.401 142.197 250.508 142.197 246.055C142.197 241.552 141.647 237.619 140.557 234.277C139.467 230.934 137.927 228.363 135.927 226.581C133.937 224.79 131.618 223.899 128.968 223.899C126.228 223.899 123.838 224.79 121.799 226.581C119.759 228.373 118.179 230.934 117.069 234.277C115.959 237.619 115.399 241.552 115.399 246.055C115.399 250.518 115.969 254.411 117.109 257.724C118.249 261.046 119.819 263.588 121.839 265.359C123.858 267.13 126.238 268.011 128.968 268.011C131.608 268.011 133.927 267.13 135.927 265.359Z" fill="black"/>
<path d="M163.065 256.443C164.875 250.308 167.434 244.304 170.754 238.43C174.074 232.556 177.813 227.712 181.993 223.899C175.873 223.899 171.314 223.899 168.314 223.899C165.324 223.899 160.835 223.899 154.845 223.899H151.296V218.045H189.712V224.18C185.263 228.223 181.313 233.146 177.883 238.95C174.454 244.754 171.844 250.649 170.054 256.613C168.264 262.587 167.374 268.081 167.374 273.095H160.345C160.355 268.121 161.255 262.567 163.065 256.443Z" fill="black"/>
<path d="M212.68 262.327C210.68 256.963 209.69 251.449 209.69 245.775C209.69 240.151 210.69 234.657 212.68 229.293C214.67 223.93 217.57 218.996 221.379 214.483H227.709C225.199 217.685 223.089 220.977 221.379 224.34C219.659 227.712 218.359 231.195 217.48 234.797C216.6 238.4 216.16 242.052 216.16 245.775C216.16 251.439 217.15 256.963 219.119 262.327C221.089 267.691 223.959 272.634 227.719 277.137H221.389C217.58 272.634 214.68 267.691 212.68 262.327Z" fill="black"/>
<path d="M233.528 262.987C234.618 260.476 236.108 258.284 237.978 256.403C239.857 254.521 242.577 252.35 246.157 249.888C247.227 249.097 248.337 248.287 249.497 247.446C250.056 247.076 250.586 246.726 251.096 246.406C252.906 245.155 254.446 243.894 255.726 242.643C257.006 241.392 258.066 239.971 258.926 238.39C259.786 236.809 260.216 235.117 260.216 233.306C260.216 231.495 259.776 229.854 258.896 228.393C258.016 226.932 256.766 225.781 255.136 224.94C253.506 224.11 251.606 223.689 249.427 223.689C246.877 223.689 244.647 224.27 242.747 225.431C240.847 226.591 239.367 228.223 238.328 230.304C237.288 232.396 236.758 234.787 236.758 237.479L230.568 236.438C230.568 232.816 231.358 229.574 232.938 226.721C234.518 223.859 236.758 221.638 239.657 220.037C242.557 218.436 245.867 217.635 249.577 217.635C252.966 217.635 255.986 218.285 258.656 219.586C261.325 220.887 263.415 222.739 264.915 225.13C266.425 227.522 267.175 230.274 267.175 233.386C267.175 235.798 266.715 238.02 265.785 240.041C264.855 242.062 263.625 243.864 262.095 245.445C260.565 247.026 258.756 248.557 256.666 250.048C255.416 250.929 253.766 252.07 251.726 253.461C249.267 255.042 247.357 256.383 245.987 257.503C244.617 258.624 243.367 259.935 242.227 261.436C241.087 262.947 240.287 264.719 239.827 266.77C246.087 266.77 250.726 266.77 253.746 266.77C256.766 266.77 261.265 266.77 267.245 266.77V273.115H231.478V272.484C231.748 268.661 232.438 265.499 233.528 262.987Z" fill="black"/>
<path d="M283.423 270.693C280.294 268.301 277.864 264.969 276.154 260.696C274.434 256.423 273.574 251.539 273.574 246.065C273.574 240.541 274.434 235.628 276.154 231.325C277.874 227.032 280.294 223.669 283.423 221.258C286.553 218.846 290.143 217.635 294.172 217.635C298.302 217.635 301.922 218.846 305.031 221.258C308.141 223.669 310.551 227.032 312.271 231.325C313.99 235.618 314.85 240.531 314.85 246.065C314.85 251.549 313.99 256.423 312.271 260.696C310.551 264.969 308.141 268.301 305.031 270.693C301.922 273.085 298.302 274.285 294.172 274.285C290.143 274.275 286.553 273.085 283.423 270.693ZM301.272 265.359C303.261 263.598 304.811 261.046 305.901 257.724C306.991 254.401 307.541 250.508 307.541 246.055C307.541 241.552 306.991 237.619 305.901 234.277C304.811 230.934 303.271 228.363 301.272 226.581C299.272 224.8 296.962 223.899 294.312 223.899C291.573 223.899 289.183 224.79 287.143 226.581C285.103 228.373 283.523 230.934 282.413 234.277C281.304 237.619 280.744 241.552 280.744 246.055C280.744 250.518 281.314 254.411 282.453 257.724C283.593 261.046 285.163 263.588 287.183 265.359C289.203 267.13 291.583 268.011 294.312 268.011C296.962 268.011 299.282 267.13 301.272 265.359Z" fill="black"/>
<path d="M323.51 262.987C324.599 260.476 326.089 258.284 327.959 256.403C329.839 254.521 332.559 252.35 336.138 249.888C337.208 249.097 338.318 248.287 339.478 247.446C340.038 247.076 340.568 246.726 341.078 246.406C342.888 245.155 344.428 243.894 345.707 242.643C346.987 241.392 348.047 239.971 348.907 238.39C349.767 236.809 350.197 235.117 350.197 233.306C350.197 231.495 349.757 229.854 348.877 228.393C347.997 226.932 346.747 225.781 345.118 224.94C343.488 224.11 341.588 223.689 339.408 223.689C336.858 223.689 334.629 224.27 332.729 225.431C330.829 226.591 329.349 228.223 328.309 230.304C327.269 232.396 326.739 234.787 326.739 237.479L320.55 236.438C320.55 232.816 321.34 229.574 322.92 226.721C324.499 223.859 326.739 221.638 329.639 220.037C332.539 218.436 335.848 217.635 339.558 217.635C342.948 217.635 345.967 218.285 348.637 219.586C351.307 220.887 353.397 222.739 354.897 225.13C356.406 227.522 357.156 230.274 357.156 233.386C357.156 235.798 356.696 238.02 355.767 240.041C354.837 242.062 353.607 243.864 352.077 245.445C350.547 247.026 348.737 248.557 346.647 250.048C345.398 250.929 343.748 252.07 341.708 253.461C339.248 255.042 337.338 256.383 335.968 257.503C334.599 258.624 333.349 259.935 332.209 261.436C331.069 262.947 330.269 264.719 329.809 266.77C336.068 266.77 340.708 266.77 343.728 266.77C346.747 266.77 351.247 266.77 357.226 266.77V273.115H321.46V272.484C321.73 268.661 322.42 265.499 323.51 262.987Z" fill="black"/>
<path d="M373.265 272.744C370.545 271.724 368.225 270.283 366.306 268.421C364.376 266.56 363.046 264.378 362.306 261.867L368.155 258.944C368.295 259.315 368.385 259.595 368.435 259.775C369.455 262.147 371.115 264.118 373.415 265.699C375.715 267.28 378.534 268.071 381.874 268.071C384.244 268.071 386.314 267.661 388.104 266.85C389.893 266.04 391.273 264.869 392.243 263.328C393.213 261.797 393.703 260.005 393.703 257.964C393.703 255.032 392.633 252.66 390.503 250.819C388.373 248.987 385.264 248.067 381.174 248.067H375.745V242.493H381.244C383.514 242.493 385.494 242.082 387.164 241.272C388.833 240.461 390.093 239.34 390.953 237.929C391.813 236.508 392.243 234.917 392.243 233.156C392.243 231.255 391.763 229.594 390.813 228.173C389.863 226.752 388.553 225.661 386.884 224.9C385.214 224.13 383.314 223.749 381.174 223.749C378.154 223.749 375.585 224.62 373.445 226.361C371.315 228.102 370.015 230.554 369.545 233.716L363.496 232.396C363.866 229.513 364.886 226.962 366.556 224.73C368.225 222.499 370.375 220.757 372.995 219.506C375.615 218.255 378.554 217.625 381.794 217.625C384.944 217.625 387.844 218.205 390.493 219.366C393.143 220.527 395.253 222.198 396.823 224.38C398.403 226.561 399.192 229.123 399.192 232.045C399.192 234.047 398.812 235.908 398.043 237.659C397.273 239.401 396.203 240.892 394.803 242.122C393.413 243.353 391.833 244.224 390.073 244.734V244.804C393.233 245.405 395.803 246.846 397.803 249.127C399.792 251.409 400.792 254.281 400.792 257.774C400.792 260.656 400.062 263.358 398.603 265.889C397.143 268.421 394.983 270.453 392.133 271.984C389.283 273.515 385.904 274.285 382.004 274.285C378.894 274.275 375.975 273.765 373.265 272.744Z" fill="black"/>
<path d="M411.401 262.327C413.371 256.963 414.361 251.449 414.361 245.775C414.361 240.201 413.391 234.787 411.441 229.534C409.491 224.28 406.612 219.266 402.812 214.483H409.141C412.941 218.986 415.841 223.93 417.841 229.293C419.831 234.657 420.83 240.151 420.83 245.775C420.83 251.439 419.831 256.963 417.841 262.327C415.851 267.691 412.941 272.634 409.141 277.137H402.812C406.562 272.634 409.431 267.691 411.401 262.327Z" fill="black"/>
<path d="M36.1666 344.535C33.0369 342.144 30.6071 338.811 28.8973 334.538C27.1775 330.265 26.3175 325.382 26.3175 319.908C26.3175 314.384 27.1775 309.47 28.8973 305.167C30.6171 300.874 33.0369 297.512 36.1666 295.1C39.2963 292.688 42.886 291.478 46.9156 291.478C51.0452 291.478 54.6649 292.688 57.7746 295.1C60.8843 297.512 63.2941 300.874 65.0139 305.167C66.7337 309.46 67.5937 314.374 67.5937 319.908C67.5937 325.392 66.7337 330.265 65.0139 334.538C63.2941 338.811 60.8843 342.144 57.7746 344.535C54.6649 346.927 51.0452 348.128 46.9156 348.128C42.886 348.128 39.2963 346.927 36.1666 344.535ZM54.0149 339.202C56.0047 337.44 57.5546 334.889 58.6445 331.566C59.7344 328.244 60.2843 324.351 60.2843 319.898C60.2843 315.395 59.7344 311.462 58.6445 308.119C57.5546 304.777 56.0147 302.205 54.0149 300.424C52.0151 298.643 49.7053 297.742 47.0556 297.742C44.3158 297.742 41.9261 298.633 39.8863 300.424C37.8465 302.215 36.2666 304.777 35.1567 308.119C34.0468 311.462 33.4869 315.395 33.4869 319.898C33.4869 324.361 34.0568 328.254 35.1967 331.566C36.3366 334.889 37.9064 337.43 39.9263 339.202C41.9461 340.973 44.3258 341.853 47.0556 341.853C49.7053 341.853 52.0251 340.973 54.0149 339.202Z" fill="black"/>
<path d="M76.2528 336.84C77.3427 334.328 78.8326 332.137 80.7024 330.255C82.5822 328.374 85.302 326.202 88.8817 323.741C89.9516 322.95 91.0615 322.139 92.2213 321.299C92.7813 320.929 93.3112 320.578 93.8212 320.258C95.631 319.007 97.1709 317.746 98.4508 316.495C99.7306 315.245 100.791 313.824 101.65 312.242C102.51 310.661 102.94 308.97 102.94 307.159C102.94 305.348 102.5 303.706 101.62 302.245C100.741 300.784 99.4907 299.633 97.8608 298.793C96.231 297.962 94.3311 297.542 92.1514 297.542C89.6016 297.542 87.3718 298.122 85.472 299.283C83.5722 300.444 82.0923 302.075 81.0524 304.157C80.0125 306.248 79.4825 308.64 79.4825 311.332L73.2931 310.291C73.2931 306.668 74.083 303.426 75.6629 300.574C77.2427 297.712 79.4825 295.49 82.3823 293.889C85.282 292.288 88.5917 291.488 92.3013 291.488C95.691 291.488 98.7107 292.138 101.38 293.439C104.05 294.74 106.14 296.591 107.64 298.983C109.15 301.375 109.9 304.127 109.9 307.239C109.9 309.651 109.44 311.872 108.51 313.894C107.58 315.915 106.35 317.716 104.82 319.297C103.29 320.879 101.48 322.41 99.3907 323.901C98.1408 324.781 96.4909 325.922 94.4511 327.313C91.9914 328.894 90.0815 330.235 88.7117 331.356C87.3418 332.467 86.0919 333.788 84.952 335.289C83.8121 336.8 83.0122 338.571 82.5522 340.623C88.8117 340.623 93.4512 340.623 96.4709 340.623C99.4907 340.623 103.99 340.623 109.97 340.623V346.967H74.193V346.337C74.473 342.504 75.1629 339.342 76.2528 336.84Z" fill="black"/>
<path d="M117.659 346.036C116.759 345.106 116.299 343.995 116.299 342.694C116.299 341.854 116.509 341.093 116.929 340.392C117.349 339.692 117.919 339.152 118.639 338.751C119.359 338.361 120.159 338.161 121.039 338.161C122.289 338.161 123.358 338.601 124.238 339.482C125.118 340.362 125.558 341.433 125.558 342.684C125.558 343.515 125.358 344.295 124.968 345.016C124.568 345.736 124.008 346.317 123.258 346.757C122.518 347.197 121.749 347.417 120.959 347.417C119.659 347.427 118.559 346.967 117.659 346.036Z" fill="black"/>
<path d="M137.457 343.805C137.457 334.979 137.457 328.434 137.457 324.191C137.457 319.938 137.457 313.543 137.457 304.987C136.157 306.708 134.437 308.159 132.308 309.34C130.178 310.521 127.878 311.322 125.418 311.742V304.987C127.738 304.527 129.848 303.666 131.748 302.405C133.647 301.155 135.107 299.673 136.127 297.982C137.147 296.291 137.657 294.49 137.657 292.578H144.196V346.937H137.447C137.457 345.876 137.457 344.826 137.457 343.805Z" fill="black"/>
<path d="M162.785 330.285C164.595 324.151 167.154 318.147 170.474 312.272C173.794 306.398 177.533 301.555 181.713 297.742C175.593 297.742 171.034 297.742 168.034 297.742C165.044 297.742 160.555 297.742 154.565 297.742H151.016V291.888H189.432V298.022C184.983 302.065 181.033 306.989 177.603 312.793C174.174 318.597 171.564 324.491 169.774 330.455C167.984 336.43 167.094 341.924 167.094 346.937H160.065C160.075 341.974 160.975 336.42 162.785 330.285Z" fill="black"/>
<path d="M219.709 343.805C219.709 334.979 219.709 328.434 219.709 324.191C219.709 319.938 219.709 313.543 219.709 304.987C218.409 306.708 216.69 308.159 214.56 309.34C212.43 310.521 210.13 311.322 207.67 311.742V304.987C209.99 304.527 212.1 303.666 214 302.405C215.9 301.155 217.36 299.673 218.379 297.982C219.399 296.291 219.909 294.49 219.909 292.578H226.449V346.937H219.699C219.709 345.876 219.709 344.826 219.709 343.805Z" fill="black"/>
<path d="M245.047 330.285C246.857 324.151 249.417 318.147 252.736 312.272C256.056 306.398 259.796 301.555 263.975 297.742C257.856 297.742 253.296 297.742 250.296 297.742C247.307 297.742 242.817 297.742 236.828 297.742H233.278V291.888H271.694V298.022C267.245 302.065 263.295 306.989 259.866 312.793C256.436 318.597 253.826 324.491 252.036 330.455C250.246 336.43 249.357 341.924 249.357 346.937H242.327C242.327 341.974 243.237 336.42 245.047 330.285Z" fill="black"/>
<path d="M277.714 308.22C276.814 307.319 276.354 306.188 276.354 304.837C276.354 304.047 276.564 303.306 276.984 302.606C277.404 301.905 277.974 301.355 278.694 300.934C279.414 300.514 280.214 300.304 281.094 300.304C282.343 300.304 283.413 300.744 284.293 301.625C285.173 302.505 285.613 303.576 285.613 304.827C285.613 305.708 285.413 306.508 285.023 307.229C284.623 307.949 284.063 308.52 283.313 308.94C282.573 309.36 281.804 309.571 281.014 309.571C279.724 309.581 278.624 309.12 277.714 308.22ZM277.714 338.841C276.814 337.911 276.354 336.77 276.354 335.429C276.354 334.638 276.564 333.898 276.984 333.197C277.404 332.497 277.974 331.946 278.694 331.526C279.414 331.106 280.214 330.896 281.094 330.896C282.343 330.896 283.413 331.336 284.293 332.217C285.173 333.097 285.613 334.168 285.613 335.419C285.613 336.3 285.413 337.1 285.023 337.821C284.623 338.541 284.063 339.122 283.313 339.562C282.573 340.002 281.804 340.222 281.014 340.222C279.724 340.242 278.624 339.772 277.714 338.841Z" fill="black"/>
<path d="M302.632 344.535C299.502 342.144 297.072 338.811 295.362 334.538C293.642 330.265 292.782 325.382 292.782 319.908C292.782 314.384 293.642 309.47 295.362 305.167C297.082 300.874 299.502 297.512 302.632 295.1C305.761 292.688 309.351 291.478 313.381 291.478C317.51 291.478 321.13 292.688 324.239 295.1C327.349 297.512 329.759 300.874 331.479 305.167C333.199 309.46 334.059 314.374 334.059 319.908C334.059 325.392 333.199 330.265 331.479 334.538C329.759 338.811 327.349 342.144 324.239 344.535C321.13 346.927 317.51 348.128 313.381 348.128C309.341 348.128 305.761 346.927 302.632 344.535ZM320.48 339.202C322.47 337.44 324.02 334.889 325.109 331.566C326.199 328.244 326.749 324.351 326.749 319.898C326.749 315.395 326.199 311.462 325.109 308.119C324.02 304.777 322.48 302.205 320.48 300.424C318.48 298.643 316.17 297.742 313.52 297.742C310.781 297.742 308.391 298.633 306.351 300.424C304.311 302.215 302.732 304.777 301.622 308.119C300.512 311.462 299.952 315.395 299.952 319.898C299.952 324.361 300.522 328.254 301.662 331.566C302.802 334.889 304.371 337.43 306.391 339.202C308.411 340.973 310.791 341.853 313.52 341.853C316.16 341.853 318.48 340.973 320.48 339.202Z" fill="black"/>
<path d="M350.297 344.535C347.167 342.144 344.738 338.811 343.028 334.538C341.308 330.265 340.448 325.382 340.448 319.908C340.448 314.384 341.308 309.47 343.028 305.167C344.748 300.874 347.167 297.512 350.297 295.1C353.427 292.688 357.016 291.478 361.046 291.478C365.176 291.478 368.795 292.688 371.905 295.1C375.015 297.512 377.425 300.874 379.144 305.167C380.864 309.46 381.724 314.374 381.724 319.908C381.724 325.392 380.864 330.265 379.144 334.538C377.425 338.811 375.015 342.144 371.905 344.535C368.795 346.927 365.176 348.128 361.046 348.128C357.016 348.128 353.427 346.927 350.297 344.535ZM368.145 339.202C370.135 337.44 371.685 334.889 372.775 331.566C373.865 328.244 374.415 324.351 374.415 319.898C374.415 315.395 373.865 311.462 372.775 308.119C371.685 304.777 370.145 302.205 368.145 300.424C366.146 298.643 363.836 297.742 361.186 297.742C358.446 297.742 356.057 298.633 354.017 300.424C351.977 302.215 350.397 304.777 349.287 308.119C348.177 311.462 347.617 315.395 347.617 319.898C347.617 324.361 348.187 328.254 349.327 331.566C350.467 334.889 352.037 337.43 354.057 339.202C356.077 340.973 358.456 341.853 361.186 341.853C363.836 341.853 366.156 340.973 368.145 339.202Z" fill="black"/>
<path d="M407.192 336.179C405.192 330.816 404.202 325.302 404.202 319.628C404.202 314.004 405.202 308.51 407.192 303.146C409.182 297.782 412.081 292.849 415.891 288.335H422.22C419.711 291.538 417.601 294.83 415.891 298.192C414.171 301.565 412.871 305.047 411.991 308.65C411.111 312.252 410.671 315.905 410.671 319.628C410.671 325.292 411.661 330.816 413.631 336.179C415.601 341.543 418.471 346.487 422.23 350.99H415.901C412.081 346.477 409.182 341.543 407.192 336.179Z" fill="black"/>
<path d="M428.03 336.84C429.12 334.328 430.609 332.137 432.479 330.255C434.359 328.374 437.079 326.202 440.659 323.741C441.728 322.95 442.838 322.139 443.998 321.299C444.558 320.929 445.088 320.578 445.598 320.258C447.408 319.007 448.948 317.746 450.228 316.495C451.508 315.245 452.567 313.824 453.427 312.242C454.287 310.661 454.717 308.97 454.717 307.159C454.717 305.348 454.277 303.706 453.397 302.245C452.517 300.784 451.268 299.633 449.638 298.793C448.008 297.962 446.108 297.542 443.928 297.542C441.378 297.542 439.149 298.122 437.249 299.283C435.349 300.444 433.869 302.075 432.829 304.157C431.789 306.248 431.259 308.64 431.259 311.332L425.07 310.291C425.07 306.668 425.86 303.426 427.44 300.574C429.02 297.712 431.259 295.49 434.159 293.889C437.059 292.288 440.369 291.488 444.078 291.488C447.468 291.488 450.488 292.138 453.157 293.439C455.827 294.74 457.917 296.591 459.417 298.983C460.927 301.375 461.677 304.127 461.677 307.239C461.677 309.651 461.217 311.872 460.287 313.894C459.357 315.915 458.127 317.716 456.597 319.297C455.067 320.879 453.257 322.41 451.168 323.901C449.918 324.781 448.268 325.922 446.228 327.313C443.768 328.894 441.858 330.235 440.489 331.356C439.119 332.467 437.869 333.788 436.729 335.289C435.589 336.8 434.789 338.571 434.329 340.623C440.589 340.623 445.228 340.623 448.248 340.623C451.268 340.623 455.767 340.623 461.747 340.623V346.967H425.98V346.337C426.26 342.504 426.94 339.342 428.03 336.84Z" fill="black"/>
<path d="M477.925 344.535C474.795 342.144 472.366 338.811 470.656 334.538C468.936 330.265 468.076 325.382 468.076 319.908C468.076 314.384 468.936 309.47 470.656 305.167C472.376 300.874 474.795 297.512 477.925 295.1C481.055 292.688 484.644 291.478 488.674 291.478C492.804 291.478 496.423 292.688 499.533 295.1C502.643 297.512 505.052 300.874 506.772 305.167C508.492 309.46 509.352 314.374 509.352 319.908C509.352 325.392 508.492 330.265 506.772 334.538C505.052 338.811 502.643 342.144 499.533 344.535C496.423 346.927 492.804 348.128 488.674 348.128C484.644 348.128 481.065 346.927 477.925 344.535ZM495.783 339.202C497.773 337.44 499.323 334.889 500.413 331.566C501.503 328.244 502.053 324.351 502.053 319.898C502.053 315.395 501.503 311.462 500.413 308.119C499.323 304.777 497.783 302.205 495.783 300.424C493.794 298.633 491.474 297.742 488.824 297.742C486.084 297.742 483.695 298.633 481.655 300.424C479.615 302.215 478.035 304.777 476.925 308.119C475.815 311.462 475.255 315.395 475.255 319.898C475.255 324.361 475.825 328.254 476.965 331.566C478.105 334.889 479.675 337.43 481.695 339.202C483.714 340.973 486.094 341.853 488.824 341.853C491.464 341.853 493.784 340.973 495.783 339.202Z" fill="black"/>
<path d="M518.011 336.84C519.101 334.328 520.591 332.137 522.461 330.255C524.341 328.374 527.06 326.202 530.64 323.741C531.71 322.95 532.82 322.139 533.98 321.299C534.54 320.929 535.07 320.578 535.58 320.258C537.389 319.007 538.929 317.746 540.209 316.495C541.489 315.245 542.549 313.824 543.409 312.242C544.269 310.661 544.699 308.97 544.699 307.159C544.699 305.348 544.259 303.706 543.379 302.245C542.499 300.784 541.249 299.633 539.619 298.793C537.989 297.962 536.09 297.542 533.91 297.542C531.36 297.542 529.13 298.122 527.23 299.283C525.331 300.444 523.851 302.075 522.811 304.157C521.771 306.248 521.241 308.64 521.241 311.332L515.052 310.291C515.052 306.668 515.841 303.426 517.421 300.574C519.001 297.712 521.241 295.49 524.141 293.889C527.04 292.288 530.35 291.488 534.06 291.488C537.449 291.488 540.469 292.138 543.139 293.439C545.809 294.74 547.898 296.591 549.398 298.983C550.908 301.375 551.658 304.127 551.658 307.239C551.658 309.651 551.198 311.872 550.268 313.894C549.338 315.915 548.108 317.716 546.579 319.297C545.049 320.879 543.239 322.41 541.149 323.901C539.899 324.781 538.249 325.922 536.21 327.313C533.75 328.894 531.84 330.235 530.47 331.356C529.1 332.467 527.85 333.788 526.71 335.289C525.571 336.8 524.771 338.571 524.311 340.623C530.57 340.623 535.21 340.623 538.229 340.623C541.249 340.623 545.749 340.623 551.728 340.623V346.967H515.961V346.337C516.241 342.504 516.921 339.342 518.011 336.84Z" fill="black"/>
<path d="M582.285 340.493C582.285 339.072 582.285 336.97 582.285 334.188C573.146 334.188 564.007 334.188 554.868 334.188V328.124L582.425 292.588H588.825C588.825 300.674 588.825 306.678 588.825 310.601C588.825 314.524 588.825 320.418 588.825 328.264C590.584 328.264 591.894 328.264 592.754 328.264C593.614 328.264 594.904 328.264 596.614 328.264V334.188C594.854 334.188 593.544 334.188 592.684 334.188C591.824 334.188 590.534 334.188 588.825 334.188C588.825 337.07 588.825 339.222 588.825 340.633C588.825 342.054 588.825 344.155 588.825 346.937H582.285C582.285 344.065 582.285 341.914 582.285 340.493ZM572.186 328.264C574.416 328.264 577.776 328.264 582.275 328.264C582.275 322.27 582.275 317.806 582.275 314.884C582.275 311.962 582.275 307.569 582.275 301.715C577.586 307.759 574.136 312.242 571.906 315.165C569.676 318.087 566.317 322.46 561.817 328.264C566.507 328.264 569.966 328.264 572.186 328.264Z" fill="black"/>
<path d="M605.773 336.179C607.743 330.816 608.733 325.302 608.733 319.628C608.733 314.054 607.763 308.64 605.813 303.386C603.863 298.132 600.983 293.119 597.184 288.335H603.513C607.313 292.839 610.213 297.782 612.212 303.146C614.212 308.51 615.202 314.004 615.202 319.628C615.202 325.292 614.202 330.816 612.212 336.179C610.223 341.543 607.313 346.487 603.513 350.99H597.184C600.933 346.477 603.793 341.543 605.773 336.179Z" fill="black"/>
<path d="M515.052 242.022C508.662 240.341 503.243 237.919 498.923 234.837C495.543 232.426 492.834 229.594 490.864 226.431C488.174 222.108 487.444 217.955 487.434 216.364V216.394L480.545 216.344C480.545 216.594 480.545 222.649 484.754 229.644C487.174 233.666 490.494 237.239 494.633 240.251C495.383 240.802 496.173 241.322 496.973 241.832H430.34V248.887H496.973C496.163 249.398 495.383 249.928 494.633 250.468C490.494 253.481 487.174 257.043 484.754 261.076C480.545 268.081 480.545 274.125 480.545 274.375L487.434 274.325V274.355C487.444 272.764 488.184 268.601 490.864 264.288C492.834 261.116 495.543 258.294 498.923 255.882C503.243 252.8 508.662 250.378 515.052 248.697V242.022Z" fill="black"/>
<path d="M81.6924 46.643C80.5525 46.5329 79.6525 46.4729 78.5126 46.4128C78.0527 55.8696 76.9828 61.0232 73.8531 68.2084C76.3529 72.0011 78.7426 74.6629 82.3723 77.545C80.8924 79.8667 80.6125 80.317 79.0226 83.7194C75.213 80.1569 72.8832 77.3749 70.7334 73.8724C68.0636 77.8953 65.5639 80.5571 61.1843 84.0096C60.1044 82.0882 59.7644 81.5779 57.7746 78.966C59.1345 78.0554 59.7644 77.555 60.3844 77.0947C57.7746 77.9453 53.905 78.8459 45.1558 80.4371C43.7959 80.7173 42.936 80.8874 42.0361 81.1175L41.2962 75.0632C41.5761 75.1233 41.7461 75.1233 41.8661 75.1233C43.286 75.1233 45.6157 74.8931 48.6255 74.4428V70.1397H44.5958C42.556 70.1397 41.5261 70.1998 40.2263 70.3699V64.7059C41.2462 64.876 42.446 64.936 44.1459 64.936H48.6355V61.6437C46.4157 61.8738 44.4859 61.9839 42.836 62.094C42.436 60.2227 42.0361 59.262 40.8462 57.1104C49.7654 56.8803 55.5548 56.1498 58.1746 54.7888L61.4743 59.6623C60.7343 59.7223 60.5643 59.7723 59.3145 60.0625C58.1246 60.3427 57.0947 60.5129 54.4849 60.9732V64.936H58.1246C60.3444 64.936 61.4743 64.876 62.7841 64.7059V70.3699C61.5942 70.1998 60.7943 70.1397 59.1445 70.1397H54.4849V73.4821C57.4946 72.9117 58.3446 72.7416 61.3043 72.0111V76.3742C63.804 74.2226 65.6239 72.0111 67.8337 68.4485C66.1838 65.0561 64.9339 60.633 63.854 54.7488C63.4041 55.4893 63.1741 55.8295 62.4342 56.7302C61.4143 54.8588 61.2443 54.6387 60.7343 53.8982H46.2457C44.2559 53.8982 43.236 53.9582 41.9261 54.1283V50.836C41.0162 52.247 39.9363 53.8381 38.8564 55.2491V77.7852C38.8564 80.9574 38.9164 82.5386 39.1364 84.2398H32.717C32.9469 82.3684 33.0569 80.6172 33.0569 77.615V66.1169C33.0569 64.3056 33.0569 63.0547 33.1669 61.3034C31.977 62.7144 31.0671 63.6851 29.5273 64.9861C28.8473 62.3242 28.2774 60.7931 27.1975 58.7616C32.257 55.029 36.4566 49.8753 38.5564 44.8317L43.9559 47.6637C43.7259 48.004 43.6159 48.114 43.446 48.4042C43.386 48.5143 43.386 48.5143 43.276 48.6344C44.2459 48.6944 44.7558 48.6945 45.8357 48.6945H62.0942C64.704 44.1112 67.2037 36.1255 67.2637 31.8224L73.4031 33.1234C73.1232 34.034 73.0032 34.3742 72.6632 35.8453C72.2132 37.7166 72.0933 38.277 71.2433 40.8288H76.9828C79.2026 40.8288 80.3325 40.7688 81.7024 40.5486V46.643H81.6924ZM42.616 38.267C42.616 37.5265 42.556 36.796 42.556 36.2256C39.3763 40.7588 35.2267 44.9418 30.7371 48.3942C29.7172 45.9025 29.2073 45.0018 27.7274 42.8503C32.617 39.618 36.4766 35.485 38.2364 31.5222L42.556 34.5744H47.4956C47.3856 35.425 47.3856 36.5558 47.3856 38.257V41.1491H50.0553V36.4457C50.0553 34.7445 49.9953 33.5537 49.8254 32.4229H55.2748C55.1648 33.6137 55.1049 34.7445 55.1049 36.4457V41.1491H57.7146V38.257C57.7146 36.6759 57.6546 35.7052 57.5446 34.5744H62.7141C62.6042 35.485 62.5442 36.6158 62.5442 38.3671V42.9504C62.5442 44.7016 62.5442 45.5022 62.7141 46.3428C61.6342 46.2827 60.4944 46.2827 58.9645 46.2827H45.5658C44.9958 46.2827 43.6959 46.3428 42.446 46.3928C42.556 45.4922 42.616 44.9218 42.616 43.841V38.267ZM69.2535 46.4128C68.6836 47.7138 68.4036 48.2842 67.9436 49.1848C68.5136 53.8281 69.3035 57.2806 70.7834 61.7538C71.6933 58.8117 72.3132 55.8696 72.7132 52.5872C72.9432 50.7159 72.9432 50.4957 73.1132 46.4128H69.2535Z" fill="black"/>
<path d="M91.5814 61.2536C91.5814 59.3323 91.6414 57.521 91.7514 55.0292C90.3315 57.581 89.0816 59.3323 86.9818 61.5939C86.0119 57.9113 85.562 56.5503 84.4221 54.6289C88.7417 49.8755 91.8114 44.8319 94.1912 38.5475C95.3311 35.4953 95.891 33.4538 96.241 31.1822L102.66 32.9935C102.38 33.8441 102.26 34.1243 101.75 35.5453C100.331 39.8484 99.8206 41.0893 97.7708 45.4524V77.5553C97.7708 80.1071 97.8808 81.9684 98.0508 84.1199H91.2314C91.5114 81.7983 91.5714 80.2172 91.5714 77.4952V61.2536H91.5814ZM116.579 38.2673C116.579 35.6654 116.469 34.1944 116.179 32.323H123.218C122.878 34.1944 122.818 35.5453 122.818 38.3273V43.541H129.918C132.818 43.541 134.457 43.4309 136.057 43.2008V49.6554C133.497 49.4252 131.798 49.3151 129.978 49.3151H122.818V59.9027H131.678C134.407 59.9027 136.227 59.7926 138.037 59.5624V66.0771C136.107 65.8469 134.117 65.7368 131.788 65.7368H122.808V77.5152C122.808 80.5674 122.868 81.9884 123.208 84.0299H116.169C116.449 81.9884 116.569 80.4073 116.569 77.5152V65.7268H106.85C104.24 65.7268 102.19 65.8369 100.491 66.0671V59.5524C102.14 59.7826 104.13 59.8927 106.85 59.8927H116.569V49.3051H108.73C107.31 52.6475 106.29 54.3988 104.13 57.571C102.54 55.8698 102.26 55.6496 99.0707 53.4981C101.68 49.9356 103.56 46.363 105.21 41.8298C106.18 39.0578 106.74 36.9063 106.97 34.6447L113.219 36.2258C112.819 37.5267 112.709 37.867 112.199 39.6182C111.63 41.3695 111.4 42.11 110.95 43.521H116.569V38.2673H116.579Z" fill="black"/>
<path d="M147.266 37.2465C147.266 35.2051 147.206 33.7941 146.986 32.4331H153.176C152.946 33.7941 152.896 35.2051 152.896 37.2465V38.2072H161.075V37.2465C161.075 35.035 161.015 33.684 160.795 32.4331H166.984C166.754 33.734 166.704 35.155 166.704 37.2465V38.2072C168.694 38.1472 169.604 38.0971 170.564 37.927V43.6411C169.594 43.471 168.744 43.4109 166.704 43.4109V65.2665C168.574 65.2065 169.094 65.2065 170.114 65.0363V70.7004C169.034 70.5903 167.674 70.5302 165.344 70.5302H146.706C144.376 70.5302 143.417 70.5903 142.337 70.7604V65.0463C143.477 65.2165 144.386 65.2765 146.536 65.2765H147.276V43.4209C144.886 43.4209 143.976 43.481 142.957 43.6511V37.927C143.926 38.1572 144.886 38.2072 147.276 38.2072V37.2465H147.266ZM155.445 73.9927C152.546 78.7461 151.016 80.5074 146.696 84.3001C145.446 82.5988 144.596 81.6982 142.327 79.8269C146.246 77.0549 148.236 74.9534 150.626 71.0506L155.445 73.9927ZM161.065 47.1536V43.4209H152.886V47.1536H161.065ZM161.065 55.9899V52.1371H152.886V55.9899H161.065ZM161.065 65.2665V60.9634H152.886V65.2665H161.065ZM162.435 71.1607C164.425 74.2229 164.535 74.333 167.714 77.215C165.954 78.576 164.645 79.8169 163.455 81.408C160.215 77.8455 160.215 77.8455 157.945 74.1028L162.435 71.1607ZM177.433 66.2872C176.583 75.2336 175.164 79.3665 171.184 84.4602C169.424 82.4788 168.344 81.5181 166.354 79.8769C169.134 76.7647 170.444 73.8726 171.244 69.3494C172.044 64.4759 172.384 56.1 172.384 41.5496C172.384 37.6969 172.324 36.1157 172.104 34.1844C173.924 34.3545 175.454 34.4145 178.413 34.4145H186.652C189.772 34.4145 191.082 34.3545 192.792 34.1844C192.622 35.5954 192.562 37.2966 192.562 40.4088V77.9555C192.562 80.7275 191.762 82.4888 190.172 83.1693C189.032 83.6796 187.052 83.9598 184.553 83.9598C183.873 83.9598 183.753 83.9598 180.973 83.7897C180.693 81.358 180.343 79.9369 179.493 77.5653C182.053 78.0156 183.183 78.1357 184.493 78.1357C186.252 78.1357 186.652 77.9055 186.652 76.8948V66.2872H177.433ZM178.113 52.9277C178.053 56.2701 178.003 58.3616 177.833 60.9134H186.642V52.9277H178.113ZM186.632 40.0185H178.163V47.4938H186.632V40.0185Z" fill="black"/>
<path d="M207.541 76.9348C207.541 80.3272 207.65 82.3687 207.88 83.8998H201.231C201.461 82.1986 201.571 80.3873 201.571 76.8748V39.9084C201.571 36.9663 201.511 35.3752 201.341 33.5639C202.931 33.734 204.411 33.7941 207.191 33.7941H217.25C220.199 33.7941 221.509 33.734 223.049 33.5639C222.939 35.3752 222.879 36.6161 222.879 38.8277V47.4938C222.879 50.0957 222.939 51.3966 223.049 52.6475C221.569 52.5374 219.809 52.4774 217.82 52.4774H207.541V76.9348ZM207.541 41.2094H217.31V38.3773H207.541V41.2094ZM207.541 48.1143H217.31V45.2322H207.541V48.1143ZM236.688 72.4616C236.688 74.6132 236.748 75.9141 236.858 77.3851C238.108 77.4952 240.157 77.6653 241.177 77.6653C242.767 77.6653 243.277 77.2651 243.277 76.1342V52.4774H232.078C230.088 52.4774 228.269 52.5374 226.849 52.6475C226.959 51.0063 227.019 49.9256 227.019 47.4938V38.8277C227.019 36.9063 226.959 35.3152 226.849 33.5639C228.379 33.734 229.748 33.7941 232.648 33.7941H243.557C246.397 33.7941 247.817 33.734 249.407 33.5639C249.237 35.6054 249.177 37.0164 249.177 39.8484V76.9348C249.177 80.3272 248.497 81.8083 246.447 82.6489C245.257 83.1592 243.547 83.3294 240.027 83.3294C239.238 83.3294 239.008 83.3294 236.108 83.1592C235.768 80.6074 235.478 79.5967 234.628 77.3251C232.978 77.265 231.898 77.265 231.448 77.265H219.399V80.4373H213.38C213.61 79.0763 213.78 76.8147 213.78 74.7733V60.9634C213.78 58.982 213.72 57.4009 213.61 55.8698C215.26 56.0399 216.56 56.1 218.889 56.1H231.558C233.948 56.1 235.198 56.0399 236.838 55.8698C236.728 57.3409 236.668 58.7619 236.668 60.9634V72.4616H236.688ZM219.409 64.2558H230.998V60.8634H219.409V64.2558ZM219.409 72.5217H230.998V68.839H219.409V72.5217ZM232.648 41.2094H243.267V38.3773H232.648V41.2094ZM232.648 48.1143H243.267V45.2322H232.648V48.1143Z" fill="black"/>
<path d="M271.754 33.8241H300.892V39.0278H296.342C292.023 39.0278 288.833 39.0278 286.763 39.0278C284.703 39.0278 281.604 39.0278 277.474 39.0278C277.474 40.7791 277.474 42.5603 277.474 44.3516C277.474 46.383 277.474 47.8941 277.474 48.9148C277.474 49.9256 277.474 51.4266 277.474 53.4181C282.493 53.4181 286.233 53.4181 288.683 53.4181C291.133 53.4181 294.812 53.4181 299.722 53.4181V58.8019C294.702 58.8019 290.953 58.8019 288.483 58.8019C286.013 58.8019 282.343 58.8019 277.474 58.8019C277.474 62.2744 277.474 64.8462 277.474 66.5174C277.474 68.1986 277.474 70.7304 277.474 74.1228C282.923 74.1228 286.973 74.1228 289.623 74.1228C292.273 74.1228 296.222 74.1228 301.472 74.1228V79.4466H271.754V33.8241Z" fill="black"/>
<path d="M308.131 47.0335H313.391C313.391 47.0735 313.391 47.1036 313.391 47.1236C313.391 47.1436 313.391 47.1736 313.391 47.2136C313.391 48.4645 313.391 49.3952 313.391 50.0156C313.391 50.6361 313.391 51.5567 313.391 52.7676H313.511C314.72 50.546 316.27 48.8748 318.18 47.764C320.09 46.6532 322.19 46.0928 324.489 46.0928C326.629 46.0928 328.579 46.5432 330.329 47.4338C332.079 48.3344 333.489 49.7454 334.559 51.6768C335.628 53.6082 336.168 56.0699 336.168 59.0721V79.4166H330.859V61.4037C330.859 59.0621 330.539 57.1507 329.899 55.6496C329.259 54.1486 328.339 53.0178 327.159 52.2572C325.969 51.4967 324.559 51.1164 322.93 51.1164C321.02 51.1164 319.37 51.5867 317.97 52.5174C316.57 53.4581 315.48 54.739 314.7 56.3802C313.921 58.0213 313.531 59.8326 313.531 61.814V79.4166H308.161V47.0335H308.131Z" fill="black"/>
<path d="M349.617 78.606C348.307 77.3951 347.507 76.0542 347.197 74.5731C346.887 73.0921 346.727 71.4109 346.727 69.5395C346.727 65.5267 346.727 62.5446 346.727 60.5932C346.727 58.6418 346.727 55.7197 346.727 51.8269C345.288 51.8269 344.208 51.8269 343.488 51.8269C342.768 51.8269 341.708 51.8269 340.308 51.8269V47.0335C341.748 47.0335 342.828 47.0335 343.548 47.0335C344.268 47.0335 345.328 47.0335 346.727 47.0335C346.727 45.0821 346.727 43.6311 346.727 42.6804C346.727 41.7297 346.727 40.3087 346.727 38.4374C346.727 38.1272 346.727 37.837 346.727 37.5568H352.097C352.097 37.9871 352.097 38.4174 352.097 38.8477C352.097 40.719 352.097 42.1 352.097 43.0006C352.097 43.9013 352.097 45.2422 352.097 47.0335C354.237 47.0335 355.837 47.0335 356.886 47.0335C357.936 47.0335 359.516 47.0335 361.616 47.0335V51.8269C359.476 51.8269 357.876 51.8269 356.826 51.8269C355.777 51.8269 354.197 51.8269 352.097 51.8269C352.097 53.9284 352.097 55.4995 352.097 56.5303C352.097 57.561 352.097 59.0921 352.097 61.1236C352.097 62.6446 352.097 63.7654 352.097 64.486C352.097 65.2065 352.097 66.3072 352.097 67.7883V67.9084C352.097 69.4695 352.177 70.7604 352.327 71.8012C352.477 72.8319 352.887 73.7325 353.557 74.4931C354.217 75.2536 355.247 75.6339 356.656 75.6339C358.136 75.6339 359.696 75.1636 361.326 74.2329L361.616 74.0628V78.9763C360.796 79.4466 359.876 79.8069 358.846 80.057C357.816 80.3072 356.756 80.4373 355.667 80.4373C352.937 80.4173 350.917 79.8169 349.617 78.606Z" fill="black"/>
<path d="M367.285 47.0335H372.545C372.545 47.4238 372.545 47.8141 372.545 48.2043C372.545 49.3351 372.545 50.1757 372.545 50.7161C372.545 51.2565 372.545 52.0771 372.545 53.1679H372.775C373.675 51.0664 375.005 49.3552 376.775 48.0542C378.544 46.7533 380.564 46.0928 382.814 46.0928C384.094 46.0928 385.284 46.303 386.374 46.7333V52.5775C385.834 52.3873 385.164 52.2172 384.384 52.0771C383.604 51.937 382.924 51.877 382.344 51.877C380.124 51.877 378.294 52.4774 376.855 53.6882C375.415 54.8991 374.365 56.4402 373.705 58.3115C373.045 60.1829 372.695 62.2243 372.655 64.4559V64.7461V79.4266H367.285V47.0335Z" fill="black"/>
<path d="M400.152 80.1871L387.194 47.0335H393.033C394.353 50.6161 396.343 55.7697 398.992 62.4745C399.812 64.6561 400.462 66.4373 400.952 67.8283C401.442 69.2093 402.092 71.0006 402.912 73.1821H403.032C403.852 70.8405 404.652 68.5588 405.452 66.3072C406.252 64.0656 407.062 61.8341 407.872 59.6125C409.392 55.7197 411.021 51.5267 412.781 47.0435H418.561L400.812 92.2958H395.443L400.152 80.1871Z" fill="black"/>
<path d="M255.696 89.1735H27.0575V92.566H255.696V89.1735Z" fill="black"/>
</g>
<defs>
<clipPath id="clip0_1112_6988">
<rect width="638" height="379" fill="white"/>
</clipPath>
</defs>
</svg>
