<svg width="640" height="379" viewBox="0 0 640 379" fill="none" xmlns="http://www.w3.org/2000/svg">
<path d="M640 0H0V379H640V0Z" fill="#A84129"/>
<path d="M264.116 379C259.244 378.87 254.371 378.87 249.499 378.87H7.95417C5.31281 378.87 2.67141 378.78 0.0300448 378.74V340.202C24.3826 343.144 48.7285 346.083 73.0677 349.019C144.324 357.551 215.585 366.077 286.848 374.597C295.202 375.598 303.577 376.538 311.941 377.509C311.8 377.216 311.589 376.961 311.328 376.768C311.066 376.574 310.762 376.447 310.44 376.398C238.61 358.385 166.786 340.372 94.969 322.36C63.2927 314.414 31.6363 306.438 0 298.433V252.33L56.0289 274.345L299.925 370.524L313.872 375.998L314.492 375.558L109.386 254.201L110.307 253.671L258.513 312.192C251.71 307.709 244.506 303.516 237.072 299.423C170.651 262.73 104.21 226.021 37.7494 189.295C25.273 182.42 12.5965 175.655 0.0200299 168.83V126.52C0.969363 126.968 1.89447 127.466 2.79148 128.011C16.8387 137.938 30.8659 147.869 44.8731 157.802L252.35 305.247C255.592 307.559 258.964 309.811 262.275 312.082C262.099 310.784 261.497 309.58 260.564 308.66C215.788 255.716 171.008 202.754 126.225 149.777C95.2291 113.084 64.2764 76.3911 33.3672 39.6983C22.3615 26.689 11.1758 13.0193 0.0500746 0H5.11262C81.3252 0 157.541 0 233.761 0C233.887 1.89205 234.115 3.77605 234.441 5.64404C238.393 22.9764 242.445 40.3087 246.447 57.6811C252.99 86.1947 259.531 114.702 266.067 143.202C272.417 170.762 278.787 198.325 285.177 225.891C290.27 247.907 295.412 269.922 300.465 291.938C305.598 314.284 310.63 336.64 315.743 358.986C316.943 364.229 318.274 369.473 319.745 375.407C320.545 374.407 320.885 374.207 320.956 373.936C323.207 364.34 325.468 354.743 327.669 345.146C334.286 316.212 340.889 287.281 347.479 258.354C354.076 229.667 360.716 200.956 367.4 172.223C373.763 144.663 380.119 117.103 386.469 89.5438C391.552 67.408 396.545 45.2623 401.657 23.1365C403.448 15.411 405.499 7.7155 407.42 0C483.459 0 559.158 0 635.177 0H639.98C635.238 5.50392 630.415 11.6183 625.743 17.1422L389.951 296.361C385.589 301.525 381.253 306.689 376.944 311.852C378.564 311.459 380.083 310.733 381.407 309.721C399.223 297.045 417.035 284.369 434.844 271.694C492.501 230.784 550.174 189.882 607.863 148.986C618.479 141.461 629.284 134.025 640 126.55V168.91C638.849 169.451 637.619 169.911 636.558 170.531C613.033 183.481 589.521 196.443 566.022 209.419C506.431 242.343 446.84 275.269 387.25 308.2C385.079 309.4 382.627 310.451 380.316 311.582L381.527 312.293L529.793 253.761C529.893 254.651 529.363 255.082 528.723 255.452C503.87 270.182 479.007 284.913 454.134 299.643C411.739 324.701 369.354 349.766 326.979 374.837C326.158 375.327 326.128 376.228 325.728 376.939L325.618 376.878C327.558 377.132 329.515 377.229 331.471 377.169C345.908 375.527 360.296 373.776 374.703 372.055C433.76 364.97 492.837 357.895 551.935 350.83C581.283 347.321 610.632 343.778 639.98 340.202V378.77C637.719 378.77 635.458 378.9 633.196 378.9H380.566" fill="#131915"/>
</svg>
