<svg width="639" height="306" viewBox="0 0 639 306" fill="none" xmlns="http://www.w3.org/2000/svg">
<g clip-path="url(#clip0_1113_6284)">
<path d="M638.06 0H0.100006V305.4H638.06V0Z" fill="#A84129"/>
<path d="M106.99 40.04C75.12 62.71 40.69 89.5 37.74 125.27C36.11 145.08 44.98 164.84 59.08 180.44C73.18 196.04 92.18 207.79 112.28 217.13C162.54 240.48 220.03 249.53 276.88 252.38C359.02 256.49 444.04 247.64 516.49 213.65C536.95 204.05 556.5 192.31 571.1 176.56C585.7 160.81 595.02 140.64 593.1 120.45C589.92 87 558.38 61.68 529.04 39.94C556.6 51.09 583.26 64.94 603.88 84.41C624.5 103.87 638.65 129.54 637.93 156.03C637.23 181.92 622.39 206.47 601.64 225.01C580.89 243.54 554.58 256.64 527.5 267.28C408.69 313.98 270.01 316.28 145.37 283.07C108.23 273.17 71.3 259.79 42.77 236.81C10.64 210.92 -9.65 170.02 4.67 132.38C17.99 97.37 46.98 67.11 83.94 49.22C91.33 45.64 99.04 42.56 106.99 40.04Z" fill="black"/>
<path d="M186.88 17.15C166.88 26.94 146.13 40.13 141.56 59.73C138.14 74.39 145 89.86 156.4 101.04C167.81 112.22 183.28 119.64 199.13 125.38C240.18 140.24 285.39 145.05 329.8 143.45C370.55 141.99 411.84 135 447.21 117.29C470.87 105.45 493.37 84.67 489.28 61.15C486.01 42.29 466.97 28.96 448.91 18.2C469.51 23.96 489.97 31.07 507.09 42.6C524.21 54.13 537.79 70.64 540.73 89.33C543.89 109.45 534.29 130.01 518.8 145.18C503.31 160.35 482.48 170.66 460.91 178.3C410.36 196.21 354.71 200.6 300.18 198.9C250.2 197.34 199.6 190.61 154.51 171.75C137.59 164.67 121.27 155.71 109.43 143.01C61.96 92.13 126.97 27.56 186.88 17.15Z" fill="black"/>
<path d="M314.73 99.32C372.736 99.32 419.76 77.0865 419.76 49.66C419.76 22.2335 372.736 0 314.73 0C256.724 0 209.7 22.2335 209.7 49.66C209.7 77.0865 256.724 99.32 314.73 99.32Z" fill="black"/>
</g>
<defs>
<clipPath id="clip0_1113_6284">
<rect width="638.06" height="305.52" fill="white"/>
</clipPath>
</defs>
</svg>
