<svg width="640" height="324" viewBox="0 0 640 324" fill="none" xmlns="http://www.w3.org/2000/svg">
<mask id="mask0_1094_198525" style="mask-type:luminance" maskUnits="userSpaceOnUse" x="0" y="0" width="640" height="324">
<path d="M639.9 0.49585H0V323.104H639.9V0.49585Z" fill="white"/>
</mask>
<g mask="url(#mask0_1094_198525)">
<path d="M567.845 -19.9782H142.616V528.957H567.845V-19.9782Z" fill="#F5ECD3"/>
<path d="M104.607 382.73C123.045 382.73 137.991 367.77 137.991 349.316C137.991 330.862 123.045 315.902 104.607 315.902C86.1693 315.902 71.2226 330.862 71.2226 349.316C71.2226 367.77 86.1693 382.73 104.607 382.73Z" fill="#2E5A87"/>
<path d="M32.8126 382.73C51.2502 382.73 66.1969 367.77 66.1969 349.316C66.1969 330.862 51.2502 315.902 32.8126 315.902C14.3749 315.902 -0.571777 330.862 -0.571777 349.316C-0.571777 367.77 14.3749 382.73 32.8126 382.73Z" fill="#2E5A87"/>
<path d="M176.401 382.73C194.839 382.73 209.786 367.77 209.786 349.316C209.786 330.862 194.839 315.902 176.401 315.902C157.964 315.902 143.017 330.862 143.017 349.316C143.017 367.77 157.964 382.73 176.401 382.73Z" fill="#2E5A87"/>
<path d="M248.196 382.73C266.633 382.73 281.58 367.77 281.58 349.316C281.58 330.862 266.633 315.902 248.196 315.902C229.758 315.902 214.811 330.862 214.811 349.316C214.811 367.77 229.758 382.73 248.196 382.73Z" fill="#2E5A87"/>
<path d="M319.99 382.73C338.428 382.73 353.374 367.77 353.374 349.316C353.374 330.862 338.428 315.902 319.99 315.902C301.552 315.902 286.606 330.862 286.606 349.316C286.606 367.77 301.552 382.73 319.99 382.73Z" fill="#2E5A87"/>
<path d="M391.775 382.73C410.212 382.73 425.159 367.77 425.159 349.316C425.159 330.862 410.212 315.902 391.775 315.902C373.337 315.902 358.39 330.862 358.39 349.316C358.39 367.77 373.337 382.73 391.775 382.73Z" fill="#2E5A87"/>
<path d="M463.569 382.73C482.007 382.73 496.953 367.77 496.953 349.316C496.953 330.862 482.007 315.902 463.569 315.902C445.131 315.902 430.185 330.862 430.185 349.316C430.185 367.77 445.131 382.73 463.569 382.73Z" fill="#2E5A87"/>
<path d="M535.363 382.73C553.801 382.73 568.748 367.77 568.748 349.316C568.748 330.862 553.801 315.902 535.363 315.902C516.926 315.902 501.979 330.862 501.979 349.316C501.979 367.77 516.926 382.73 535.363 382.73Z" fill="#2E5A87"/>
<path d="M607.158 382.73C625.595 382.73 640.542 367.77 640.542 349.316C640.542 330.862 625.595 315.902 607.158 315.902C588.72 315.902 573.773 330.862 573.773 349.316C573.773 367.77 588.72 382.73 607.158 382.73Z" fill="#2E5A87"/>
<path d="M140.88 352.004C159.318 352.004 174.265 337.044 174.265 318.59C174.265 300.136 159.318 285.176 140.88 285.176C122.443 285.176 107.496 300.136 107.496 318.59C107.496 337.044 122.443 352.004 140.88 352.004Z" fill="#F5ECD3"/>
<path d="M69.0458 352.004C87.4834 352.004 102.43 337.044 102.43 318.59C102.43 300.136 87.4834 285.176 69.0458 285.176C50.6081 285.176 35.6614 300.136 35.6614 318.59C35.6614 337.044 50.6081 352.004 69.0458 352.004Z" fill="#F5ECD3"/>
<path d="M-2.78872 352.004C15.6489 352.004 30.5956 337.044 30.5956 318.59C30.5956 300.136 15.6489 285.176 -2.78872 285.176C-21.2264 285.176 -36.1731 300.136 -36.1731 318.59C-36.1731 337.044 -21.2264 352.004 -2.78872 352.004Z" fill="#F5ECD3"/>
<path d="M212.715 352.004C231.153 352.004 246.099 337.044 246.099 318.59C246.099 300.136 231.153 285.176 212.715 285.176C194.277 285.176 179.331 300.136 179.331 318.59C179.331 337.044 194.277 352.004 212.715 352.004Z" fill="#F5ECD3"/>
<path d="M284.549 352.004C302.987 352.004 317.934 337.044 317.934 318.59C317.934 300.136 302.987 285.176 284.549 285.176C266.112 285.176 251.165 300.136 251.165 318.59C251.165 337.044 266.112 352.004 284.549 352.004Z" fill="#F5ECD3"/>
<path d="M356.394 352.004C374.832 352.004 389.778 337.044 389.778 318.59C389.778 300.136 374.832 285.176 356.394 285.176C337.956 285.176 323.01 300.136 323.01 318.59C323.01 337.044 337.956 352.004 356.394 352.004Z" fill="#F5ECD3"/>
<path d="M428.228 352.004C446.666 352.004 461.613 337.044 461.613 318.59C461.613 300.136 446.666 285.176 428.228 285.176C409.791 285.176 394.844 300.136 394.844 318.59C394.844 337.044 409.791 352.004 428.228 352.004Z" fill="#F5ECD3"/>
<path d="M500.063 352.004C518.501 352.004 533.447 337.044 533.447 318.59C533.447 300.136 518.501 285.176 500.063 285.176C481.625 285.176 466.679 300.136 466.679 318.59C466.679 337.044 481.625 352.004 500.063 352.004Z" fill="#F5ECD3"/>
<path d="M571.897 352.004C590.335 352.004 605.282 337.044 605.282 318.59C605.282 300.136 590.335 285.176 571.897 285.176C553.46 285.176 538.513 300.136 538.513 318.59C538.513 337.044 553.46 352.004 571.897 352.004Z" fill="#F5ECD3"/>
<path d="M643.732 352.004C662.17 352.004 677.116 337.044 677.116 318.59C677.116 300.136 662.17 285.176 643.732 285.176C625.294 285.176 610.348 300.136 610.348 318.59C610.348 337.044 625.294 352.004 643.732 352.004Z" fill="#F5ECD3"/>
<path d="M104.607 316.855C123.045 316.855 137.991 301.894 137.991 283.44C137.991 264.986 123.045 250.026 104.607 250.026C86.1693 250.026 71.2226 264.986 71.2226 283.44C71.2226 301.894 86.1693 316.855 104.607 316.855Z" fill="#2E5A87"/>
<path d="M32.8126 316.855C51.2502 316.855 66.1969 301.894 66.1969 283.44C66.1969 264.986 51.2502 250.026 32.8126 250.026C14.3749 250.026 -0.571777 264.986 -0.571777 283.44C-0.571777 301.894 14.3749 316.855 32.8126 316.855Z" fill="#2E5A87"/>
<path d="M176.401 316.855C194.839 316.855 209.786 301.894 209.786 283.44C209.786 264.986 194.839 250.026 176.401 250.026C157.964 250.026 143.017 264.986 143.017 283.44C143.017 301.894 157.964 316.855 176.401 316.855Z" fill="#2E5A87"/>
<path d="M248.196 316.855C266.633 316.855 281.58 301.894 281.58 283.44C281.58 264.986 266.633 250.026 248.196 250.026C229.758 250.026 214.811 264.986 214.811 283.44C214.811 301.894 229.758 316.855 248.196 316.855Z" fill="#2E5A87"/>
<path d="M319.99 316.855C338.428 316.855 353.374 301.894 353.374 283.44C353.374 264.986 338.428 250.026 319.99 250.026C301.552 250.026 286.606 264.986 286.606 283.44C286.606 301.894 301.552 316.855 319.99 316.855Z" fill="#2E5A87"/>
<path d="M391.775 316.855C410.212 316.855 425.159 301.894 425.159 283.44C425.159 264.986 410.212 250.026 391.775 250.026C373.337 250.026 358.39 264.986 358.39 283.44C358.39 301.894 373.337 316.855 391.775 316.855Z" fill="#2E5A87"/>
<path d="M463.569 316.855C482.007 316.855 496.953 301.894 496.953 283.44C496.953 264.986 482.007 250.026 463.569 250.026C445.131 250.026 430.185 264.986 430.185 283.44C430.185 301.894 445.131 316.855 463.569 316.855Z" fill="#2E5A87"/>
<path d="M535.363 316.855C553.801 316.855 568.748 301.894 568.748 283.44C568.748 264.986 553.801 250.026 535.363 250.026C516.926 250.026 501.979 264.986 501.979 283.44C501.979 301.894 516.926 316.855 535.363 316.855Z" fill="#2E5A87"/>
<path d="M607.158 316.855C625.595 316.855 640.542 301.894 640.542 283.44C640.542 264.986 625.595 250.026 607.158 250.026C588.72 250.026 573.773 264.986 573.773 283.44C573.773 301.894 588.72 316.855 607.158 316.855Z" fill="#2E5A87"/>
<path d="M140.88 286.119C159.318 286.119 174.265 271.158 174.265 252.704C174.265 234.25 159.318 219.29 140.88 219.29C122.443 219.29 107.496 234.25 107.496 252.704C107.496 271.158 122.443 286.119 140.88 286.119Z" fill="#F5ECD3"/>
<path d="M69.0458 286.119C87.4834 286.119 102.43 271.158 102.43 252.704C102.43 234.25 87.4834 219.29 69.0458 219.29C50.6081 219.29 35.6614 234.25 35.6614 252.704C35.6614 271.158 50.6081 286.119 69.0458 286.119Z" fill="#F5ECD3"/>
<path d="M-2.78872 286.119C15.6489 286.119 30.5956 271.158 30.5956 252.704C30.5956 234.25 15.6489 219.29 -2.78872 219.29C-21.2264 219.29 -36.1731 234.25 -36.1731 252.704C-36.1731 271.158 -21.2264 286.119 -2.78872 286.119Z" fill="#F5ECD3"/>
<path d="M212.715 286.119C231.153 286.119 246.099 271.158 246.099 252.704C246.099 234.25 231.153 219.29 212.715 219.29C194.277 219.29 179.331 234.25 179.331 252.704C179.331 271.158 194.277 286.119 212.715 286.119Z" fill="#F5ECD3"/>
<path d="M284.549 286.119C302.987 286.119 317.934 271.158 317.934 252.704C317.934 234.25 302.987 219.29 284.549 219.29C266.112 219.29 251.165 234.25 251.165 252.704C251.165 271.158 266.112 286.119 284.549 286.119Z" fill="#F5ECD3"/>
<path d="M356.394 286.119C374.832 286.119 389.778 271.158 389.778 252.704C389.778 234.25 374.832 219.29 356.394 219.29C337.956 219.29 323.01 234.25 323.01 252.704C323.01 271.158 337.956 286.119 356.394 286.119Z" fill="#F5ECD3"/>
<path d="M428.228 286.119C446.666 286.119 461.613 271.158 461.613 252.704C461.613 234.25 446.666 219.29 428.228 219.29C409.791 219.29 394.844 234.25 394.844 252.704C394.844 271.158 409.791 286.119 428.228 286.119Z" fill="#F5ECD3"/>
<path d="M500.063 286.119C518.501 286.119 533.447 271.158 533.447 252.704C533.447 234.25 518.501 219.29 500.063 219.29C481.625 219.29 466.679 234.25 466.679 252.704C466.679 271.158 481.625 286.119 500.063 286.119Z" fill="#F5ECD3"/>
<path d="M571.897 286.119C590.335 286.119 605.282 271.158 605.282 252.704C605.282 234.25 590.335 219.29 571.897 219.29C553.46 219.29 538.513 234.25 538.513 252.704C538.513 271.158 553.46 286.119 571.897 286.119Z" fill="#F5ECD3"/>
<path d="M643.732 286.119C662.17 286.119 677.116 271.158 677.116 252.704C677.116 234.25 662.17 219.29 643.732 219.29C625.294 219.29 610.348 234.25 610.348 252.704C610.348 271.158 625.294 286.119 643.732 286.119Z" fill="#F5ECD3"/>
<path d="M104.607 253.737C123.045 253.737 137.991 238.301 137.991 219.259C137.991 200.218 123.045 184.782 104.607 184.782C86.1693 184.782 71.2226 200.218 71.2226 219.259C71.2226 238.301 86.1693 253.737 104.607 253.737Z" fill="#2E5A87"/>
<path d="M32.8126 253.737C51.2502 253.737 66.1969 238.301 66.1969 219.259C66.1969 200.218 51.2502 184.782 32.8126 184.782C14.3749 184.782 -0.571777 200.218 -0.571777 219.259C-0.571777 238.301 14.3749 253.737 32.8126 253.737Z" fill="#2E5A87"/>
<path d="M176.401 253.737C194.839 253.737 209.786 238.301 209.786 219.259C209.786 200.218 194.839 184.782 176.401 184.782C157.964 184.782 143.017 200.218 143.017 219.259C143.017 238.301 157.964 253.737 176.401 253.737Z" fill="#2E5A87"/>
<path d="M248.196 253.737C266.633 253.737 281.58 238.301 281.58 219.259C281.58 200.218 266.633 184.782 248.196 184.782C229.758 184.782 214.811 200.218 214.811 219.259C214.811 238.301 229.758 253.737 248.196 253.737Z" fill="#2E5A87"/>
<path d="M319.99 253.737C338.428 253.737 353.374 238.301 353.374 219.259C353.374 200.218 338.428 184.782 319.99 184.782C301.552 184.782 286.606 200.218 286.606 219.259C286.606 238.301 301.552 253.737 319.99 253.737Z" fill="#2E5A87"/>
<path d="M391.775 253.737C410.212 253.737 425.159 238.301 425.159 219.259C425.159 200.218 410.212 184.782 391.775 184.782C373.337 184.782 358.39 200.218 358.39 219.259C358.39 238.301 373.337 253.737 391.775 253.737Z" fill="#2E5A87"/>
<path d="M463.569 253.737C482.007 253.737 496.953 238.301 496.953 219.259C496.953 200.218 482.007 184.782 463.569 184.782C445.131 184.782 430.185 200.218 430.185 219.259C430.185 238.301 445.131 253.737 463.569 253.737Z" fill="#2E5A87"/>
<path d="M535.363 253.737C553.801 253.737 568.748 238.301 568.748 219.259C568.748 200.218 553.801 184.782 535.363 184.782C516.926 184.782 501.979 200.218 501.979 219.259C501.979 238.301 516.926 253.737 535.363 253.737Z" fill="#2E5A87"/>
<path d="M607.158 253.737C625.595 253.737 640.542 238.301 640.542 219.259C640.542 200.218 625.595 184.782 607.158 184.782C588.72 184.782 573.773 200.218 573.773 219.259C573.773 238.301 588.72 253.737 607.158 253.737Z" fill="#2E5A87"/>
<path d="M140.88 219.912C159.318 219.912 174.265 204.951 174.265 186.497C174.265 168.043 159.318 153.083 140.88 153.083C122.443 153.083 107.496 168.043 107.496 186.497C107.496 204.951 122.443 219.912 140.88 219.912Z" fill="#F5ECD3"/>
<path d="M69.0458 219.912C87.4834 219.912 102.43 204.951 102.43 186.497C102.43 168.043 87.4834 153.083 69.0458 153.083C50.6081 153.083 35.6614 168.043 35.6614 186.497C35.6614 204.951 50.6081 219.912 69.0458 219.912Z" fill="#F5ECD3"/>
<path d="M-2.78872 219.912C15.6489 219.912 30.5956 204.951 30.5956 186.497C30.5956 168.043 15.6489 153.083 -2.78872 153.083C-21.2264 153.083 -36.1731 168.043 -36.1731 186.497C-36.1731 204.951 -21.2264 219.912 -2.78872 219.912Z" fill="#F5ECD3"/>
<path d="M212.715 219.912C231.153 219.912 246.099 204.951 246.099 186.497C246.099 168.043 231.153 153.083 212.715 153.083C194.277 153.083 179.331 168.043 179.331 186.497C179.331 204.951 194.277 219.912 212.715 219.912Z" fill="#F5ECD3"/>
<path d="M284.549 219.912C302.987 219.912 317.934 204.951 317.934 186.497C317.934 168.043 302.987 153.083 284.549 153.083C266.112 153.083 251.165 168.043 251.165 186.497C251.165 204.951 266.112 219.912 284.549 219.912Z" fill="#F5ECD3"/>
<path d="M356.394 219.912C374.832 219.912 389.778 204.951 389.778 186.497C389.778 168.043 374.832 153.083 356.394 153.083C337.956 153.083 323.01 168.043 323.01 186.497C323.01 204.951 337.956 219.912 356.394 219.912Z" fill="#F5ECD3"/>
<path d="M428.228 219.912C446.666 219.912 461.613 204.951 461.613 186.497C461.613 168.043 446.666 153.083 428.228 153.083C409.791 153.083 394.844 168.043 394.844 186.497C394.844 204.951 409.791 219.912 428.228 219.912Z" fill="#F5ECD3"/>
<path d="M500.063 219.912C518.501 219.912 533.447 204.951 533.447 186.497C533.447 168.043 518.501 153.083 500.063 153.083C481.625 153.083 466.679 168.043 466.679 186.497C466.679 204.951 481.625 219.912 500.063 219.912Z" fill="#F5ECD3"/>
<path d="M571.897 219.912C590.335 219.912 605.282 204.951 605.282 186.497C605.282 168.043 590.335 153.083 571.897 153.083C553.46 153.083 538.513 168.043 538.513 186.497C538.513 204.951 553.46 219.912 571.897 219.912Z" fill="#F5ECD3"/>
<path d="M643.732 219.912C662.17 219.912 677.116 204.951 677.116 186.497C677.116 168.043 662.17 153.083 643.732 153.083C625.294 153.083 610.348 168.043 610.348 186.497C610.348 204.951 625.294 219.912 643.732 219.912Z" fill="#F5ECD3"/>
<path d="M105.259 186.738C123.697 186.738 138.643 171.176 138.643 151.979C138.643 132.783 123.697 117.221 105.259 117.221C86.8213 117.221 71.8746 132.783 71.8746 151.979C71.8746 171.176 86.8213 186.738 105.259 186.738Z" fill="#2E5A87"/>
<path d="M33.6853 186.738C52.1229 186.738 67.0696 171.176 67.0696 151.979C67.0696 132.783 52.1229 117.221 33.6853 117.221C15.2476 117.221 0.300934 132.783 0.300934 151.979C0.300934 171.176 15.2476 186.738 33.6853 186.738Z" fill="#2E5A87"/>
<path d="M176.833 186.738C195.27 186.738 210.217 171.176 210.217 151.979C210.217 132.783 195.27 117.221 176.833 117.221C158.395 117.221 143.448 132.783 143.448 151.979C143.448 171.176 158.395 186.738 176.833 186.738Z" fill="#2E5A87"/>
<path d="M248.406 186.738C266.844 186.738 281.791 171.176 281.791 151.979C281.791 132.783 266.844 117.221 248.406 117.221C229.969 117.221 215.022 132.783 215.022 151.979C215.022 171.176 229.969 186.738 248.406 186.738Z" fill="#2E5A87"/>
<path d="M319.99 186.738C338.428 186.738 353.374 171.176 353.374 151.979C353.374 132.783 338.428 117.221 319.99 117.221C301.552 117.221 286.606 132.783 286.606 151.979C286.606 171.176 301.552 186.738 319.99 186.738Z" fill="#2E5A87"/>
<path d="M391.564 186.738C410.001 186.738 424.948 171.176 424.948 151.979C424.948 132.783 410.001 117.221 391.564 117.221C373.126 117.221 358.179 132.783 358.179 151.979C358.179 171.176 373.126 186.738 391.564 186.738Z" fill="#2E5A87"/>
<path d="M463.138 186.738C481.575 186.738 496.522 171.176 496.522 151.979C496.522 132.783 481.575 117.221 463.138 117.221C444.7 117.221 429.753 132.783 429.753 151.979C429.753 171.176 444.7 186.738 463.138 186.738Z" fill="#2E5A87"/>
<path d="M534.711 186.738C553.149 186.738 568.096 171.176 568.096 151.979C568.096 132.783 553.149 117.221 534.711 117.221C516.274 117.221 501.327 132.783 501.327 151.979C501.327 171.176 516.274 186.738 534.711 186.738Z" fill="#2E5A87"/>
<path d="M606.285 186.738C624.723 186.738 639.669 171.176 639.669 151.979C639.669 132.783 624.723 117.221 606.285 117.221C587.847 117.221 572.901 132.783 572.901 151.979C572.901 171.176 587.847 186.738 606.285 186.738Z" fill="#2E5A87"/>
<path d="M140.88 154.507C159.318 154.507 174.265 139.215 174.265 120.35C174.265 101.486 159.318 86.1936 140.88 86.1936C122.443 86.1936 107.496 101.486 107.496 120.35C107.496 139.215 122.443 154.507 140.88 154.507Z" fill="#F5ECD3"/>
<path d="M69.0458 154.507C87.4834 154.507 102.43 139.215 102.43 120.35C102.43 101.486 87.4834 86.1936 69.0458 86.1936C50.6081 86.1936 35.6614 101.486 35.6614 120.35C35.6614 139.215 50.6081 154.507 69.0458 154.507Z" fill="#F5ECD3"/>
<path d="M-2.78872 154.507C15.6489 154.507 30.5956 139.215 30.5956 120.35C30.5956 101.486 15.6489 86.1936 -2.78872 86.1936C-21.2264 86.1936 -36.1731 101.486 -36.1731 120.35C-36.1731 139.215 -21.2264 154.507 -2.78872 154.507Z" fill="#F5ECD3"/>
<path d="M212.715 154.507C231.153 154.507 246.099 139.215 246.099 120.35C246.099 101.486 231.153 86.1936 212.715 86.1936C194.277 86.1936 179.331 101.486 179.331 120.35C179.331 139.215 194.277 154.507 212.715 154.507Z" fill="#F5ECD3"/>
<path d="M284.549 154.507C302.987 154.507 317.934 139.215 317.934 120.35C317.934 101.486 302.987 86.1936 284.549 86.1936C266.112 86.1936 251.165 101.486 251.165 120.35C251.165 139.215 266.112 154.507 284.549 154.507Z" fill="#F5ECD3"/>
<path d="M356.394 154.507C374.832 154.507 389.778 139.215 389.778 120.35C389.778 101.486 374.832 86.1936 356.394 86.1936C337.956 86.1936 323.01 101.486 323.01 120.35C323.01 139.215 337.956 154.507 356.394 154.507Z" fill="#F5ECD3"/>
<path d="M428.228 154.507C446.666 154.507 461.613 139.215 461.613 120.35C461.613 101.486 446.666 86.1936 428.228 86.1936C409.791 86.1936 394.844 101.486 394.844 120.35C394.844 139.215 409.791 154.507 428.228 154.507Z" fill="#F5ECD3"/>
<path d="M500.063 154.507C518.501 154.507 533.447 139.215 533.447 120.35C533.447 101.486 518.501 86.1936 500.063 86.1936C481.625 86.1936 466.679 101.486 466.679 120.35C466.679 139.215 481.625 154.507 500.063 154.507Z" fill="#F5ECD3"/>
<path d="M571.897 154.507C590.335 154.507 605.282 139.215 605.282 120.35C605.282 101.486 590.335 86.1936 571.897 86.1936C553.46 86.1936 538.513 101.486 538.513 120.35C538.513 139.215 553.46 154.507 571.897 154.507Z" fill="#F5ECD3"/>
<path d="M643.732 154.507C662.17 154.507 677.116 139.215 677.116 120.35C677.116 101.486 662.17 86.1936 643.732 86.1936C625.294 86.1936 610.348 101.486 610.348 120.35C610.348 139.215 625.294 154.507 643.732 154.507Z" fill="#F5ECD3"/>
<path d="M103.584 118.765C122.021 118.765 136.968 103.392 136.968 84.4281C136.968 65.4641 122.021 50.0908 103.584 50.0908C85.1461 50.0908 70.1994 65.4641 70.1994 84.4281C70.1994 103.392 85.1461 118.765 103.584 118.765Z" fill="#2E5A87"/>
<path d="M31.4483 118.765C49.886 118.765 64.8326 103.392 64.8326 84.4281C64.8326 65.4641 49.886 50.0908 31.4483 50.0908C13.0106 50.0908 -1.93604 65.4641 -1.93604 84.4281C-1.93604 103.392 13.0106 118.765 31.4483 118.765Z" fill="#2E5A87"/>
<path d="M175.719 118.765C194.157 118.765 209.104 103.392 209.104 84.4281C209.104 65.4641 194.157 50.0908 175.719 50.0908C157.282 50.0908 142.335 65.4641 142.335 84.4281C142.335 103.392 157.282 118.765 175.719 118.765Z" fill="#2E5A87"/>
<path d="M247.855 118.765C266.292 118.765 281.239 103.392 281.239 84.4281C281.239 65.4641 266.292 50.0908 247.855 50.0908C229.417 50.0908 214.47 65.4641 214.47 84.4281C214.47 103.392 229.417 118.765 247.855 118.765Z" fill="#2E5A87"/>
<path d="M319.99 118.765C338.428 118.765 353.374 103.392 353.374 84.4281C353.374 65.4641 338.428 50.0908 319.99 50.0908C301.552 50.0908 286.606 65.4641 286.606 84.4281C286.606 103.392 301.552 118.765 319.99 118.765Z" fill="#2E5A87"/>
<path d="M392.116 118.765C410.553 118.765 425.5 103.392 425.5 84.4281C425.5 65.4641 410.553 50.0908 392.116 50.0908C373.678 50.0908 358.731 65.4641 358.731 84.4281C358.731 103.392 373.678 118.765 392.116 118.765Z" fill="#2E5A87"/>
<path d="M464.251 118.765C482.689 118.765 497.635 103.392 497.635 84.4281C497.635 65.4641 482.689 50.0908 464.251 50.0908C445.813 50.0908 430.867 65.4641 430.867 84.4281C430.867 103.392 445.813 118.765 464.251 118.765Z" fill="#2E5A87"/>
<path d="M536.386 118.765C554.824 118.765 569.771 103.392 569.771 84.4281C569.771 65.4641 554.824 50.0908 536.386 50.0908C517.949 50.0908 503.002 65.4641 503.002 84.4281C503.002 103.392 517.949 118.765 536.386 118.765Z" fill="#2E5A87"/>
<path d="M608.522 118.765C626.96 118.765 641.906 103.392 641.906 84.4281C641.906 65.4641 626.96 50.0908 608.522 50.0908C590.084 50.0908 575.138 65.4641 575.138 84.4281C575.138 103.392 590.084 118.765 608.522 118.765Z" fill="#2E5A87"/>
<path d="M140.88 86.1835C159.318 86.1835 174.265 71.2234 174.265 52.7692C174.265 34.3149 159.318 19.3547 140.88 19.3547C122.443 19.3547 107.496 34.3149 107.496 52.7692C107.496 71.2234 122.443 86.1835 140.88 86.1835Z" fill="#F5ECD3"/>
<path d="M69.0458 86.1835C87.4834 86.1835 102.43 71.2234 102.43 52.7692C102.43 34.3149 87.4834 19.3547 69.0458 19.3547C50.6081 19.3547 35.6614 34.3149 35.6614 52.7692C35.6614 71.2234 50.6081 86.1835 69.0458 86.1835Z" fill="#F5ECD3"/>
<path d="M-2.78872 86.1835C15.6489 86.1835 30.5956 71.2234 30.5956 52.7692C30.5956 34.3149 15.6489 19.3547 -2.78872 19.3547C-21.2264 19.3547 -36.1731 34.3149 -36.1731 52.7692C-36.1731 71.2234 -21.2264 86.1835 -2.78872 86.1835Z" fill="#F5ECD3"/>
<path d="M212.715 86.1835C231.153 86.1835 246.099 71.2234 246.099 52.7692C246.099 34.3149 231.153 19.3547 212.715 19.3547C194.277 19.3547 179.331 34.3149 179.331 52.7692C179.331 71.2234 194.277 86.1835 212.715 86.1835Z" fill="#F5ECD3"/>
<path d="M284.549 86.1835C302.987 86.1835 317.934 71.2234 317.934 52.7692C317.934 34.3149 302.987 19.3547 284.549 19.3547C266.112 19.3547 251.165 34.3149 251.165 52.7692C251.165 71.2234 266.112 86.1835 284.549 86.1835Z" fill="#F5ECD3"/>
<path d="M356.394 86.1835C374.832 86.1835 389.778 71.2234 389.778 52.7692C389.778 34.3149 374.832 19.3547 356.394 19.3547C337.956 19.3547 323.01 34.3149 323.01 52.7692C323.01 71.2234 337.956 86.1835 356.394 86.1835Z" fill="#F5ECD3"/>
<path d="M428.228 86.1835C446.666 86.1835 461.613 71.2234 461.613 52.7692C461.613 34.3149 446.666 19.3547 428.228 19.3547C409.791 19.3547 394.844 34.3149 394.844 52.7692C394.844 71.2234 409.791 86.1835 428.228 86.1835Z" fill="#F5ECD3"/>
<path d="M500.063 86.1835C518.501 86.1835 533.447 71.2234 533.447 52.7692C533.447 34.3149 518.501 19.3547 500.063 19.3547C481.625 19.3547 466.679 34.3149 466.679 52.7692C466.679 71.2234 481.625 86.1835 500.063 86.1835Z" fill="#F5ECD3"/>
<path d="M571.897 86.1835C590.335 86.1835 605.282 71.2234 605.282 52.7692C605.282 34.3149 590.335 19.3547 571.897 19.3547C553.46 19.3547 538.513 34.3149 538.513 52.7692C538.513 71.2234 553.46 86.1835 571.897 86.1835Z" fill="#F5ECD3"/>
<path d="M643.732 86.1835C662.17 86.1835 677.116 71.2234 677.116 52.7692C677.116 34.3149 662.17 19.3547 643.732 19.3547C625.294 19.3547 610.348 34.3149 610.348 52.7692C610.348 71.2234 625.294 86.1835 643.732 86.1835Z" fill="#F5ECD3"/>
<path d="M104.587 51.6857C123.025 51.6857 137.971 36.3663 137.971 17.4688C137.971 -1.42873 123.025 -16.7482 104.587 -16.7482C86.1492 -16.7482 71.2025 -1.42873 71.2025 17.4688C71.2025 36.3663 86.1492 51.6857 104.587 51.6857Z" fill="#2E5A87"/>
<path d="M32.7925 51.6857C51.2302 51.6857 66.1768 36.3663 66.1768 17.4688C66.1768 -1.42873 51.2302 -16.7482 32.7925 -16.7482C14.3548 -16.7482 -0.591858 -1.42873 -0.591858 17.4688C-0.591858 36.3663 14.3548 51.6857 32.7925 51.6857Z" fill="#2E5A87"/>
<path d="M176.391 51.6857C194.829 51.6857 209.776 36.3663 209.776 17.4688C209.776 -1.42873 194.829 -16.7482 176.391 -16.7482C157.954 -16.7482 143.007 -1.42873 143.007 17.4688C143.007 36.3663 157.954 51.6857 176.391 51.6857Z" fill="#2E5A87"/>
<path d="M248.186 51.6857C266.623 51.6857 281.57 36.3663 281.57 17.4688C281.57 -1.42873 266.623 -16.7482 248.186 -16.7482C229.748 -16.7482 214.801 -1.42873 214.801 17.4688C214.801 36.3663 229.748 51.6857 248.186 51.6857Z" fill="#2E5A87"/>
<path d="M319.99 51.6857C338.428 51.6857 353.374 36.3663 353.374 17.4688C353.374 -1.42873 338.428 -16.7482 319.99 -16.7482C301.552 -16.7482 286.606 -1.42873 286.606 17.4688C286.606 36.3663 301.552 51.6857 319.99 51.6857Z" fill="#2E5A87"/>
<path d="M391.785 51.6857C410.222 51.6857 425.169 36.3663 425.169 17.4688C425.169 -1.42873 410.222 -16.7482 391.785 -16.7482C373.347 -16.7482 358.4 -1.42873 358.4 17.4688C358.4 36.3663 373.347 51.6857 391.785 51.6857Z" fill="#2E5A87"/>
<path d="M463.579 51.6857C482.017 51.6857 496.963 36.3663 496.963 17.4688C496.963 -1.42873 482.017 -16.7482 463.579 -16.7482C445.141 -16.7482 430.195 -1.42873 430.195 17.4688C430.195 36.3663 445.141 51.6857 463.579 51.6857Z" fill="#2E5A87"/>
<path d="M535.383 51.6857C553.821 51.6857 568.768 36.3663 568.768 17.4688C568.768 -1.42873 553.821 -16.7482 535.383 -16.7482C516.946 -16.7482 501.999 -1.42873 501.999 17.4688C501.999 36.3663 516.946 51.6857 535.383 51.6857Z" fill="#2E5A87"/>
<path d="M607.178 51.6857C625.615 51.6857 640.562 36.3663 640.562 17.4688C640.562 -1.42873 625.615 -16.7482 607.178 -16.7482C588.74 -16.7482 573.793 -1.42873 573.793 17.4688C573.793 36.3663 588.74 51.6857 607.178 51.6857Z" fill="#2E5A87"/>
<path d="M102.079 -16.9186C102.079 3.7761 85.9285 20.5485 66.0163 20.5485C46.1041 20.5485 29.9034 3.7761 29.9034 -16.9186H102.079Z" fill="#F5ECD3"/>
<path d="M29.9637 -16.7482C29.9637 3.94651 13.8232 20.7089 -6.09906 20.7089C-26.0213 20.7089 -42.1618 3.94651 -42.1618 -16.7482H29.9637Z" fill="#F5ECD3"/>
<path d="M174.235 -16.7482C174.235 3.94651 158.084 20.7089 138.122 20.7089C118.159 20.7089 102.009 3.94651 102.009 -16.7482H174.235Z" fill="#F5ECD3"/>
<path d="M246.37 -16.7482C246.37 3.94651 230.22 20.7089 210.257 20.7089C190.295 20.7089 174.194 3.94651 174.194 -16.7482H246.37Z" fill="#F5ECD3"/>
<path d="M318.536 -16.7482C318.536 3.94651 302.385 20.7089 282.423 20.7089C262.46 20.7089 246.36 3.94651 246.36 -16.7482H318.536Z" fill="#F5ECD3"/>
<path d="M390.631 -16.7482C390.631 3.94651 374.49 20.7089 354.568 20.7089C334.646 20.7089 318.536 3.94651 318.536 -16.7482H390.631Z" fill="#F5ECD3"/>
<path d="M462.766 -16.7482C462.766 3.94651 446.616 20.7089 426.704 20.7089C406.791 20.7089 390.591 3.94651 390.591 -16.7482H462.766Z" fill="#F5ECD3"/>
<path d="M534.902 -16.7482C534.902 3.94651 518.751 20.7089 498.789 20.7089C478.827 20.7089 462.676 3.94651 462.676 -16.7482H534.902Z" fill="#F5ECD3"/>
<path d="M607.037 -16.7482C607.037 3.94651 590.887 20.7089 570.924 20.7089C550.962 20.7089 534.862 3.94651 534.862 -16.7482H607.037Z" fill="#F5ECD3"/>
<path d="M679.173 -16.7482C679.173 3.94651 663.022 20.7089 643.06 20.7089C623.097 20.7089 606.997 3.94651 606.997 -16.7482H679.173Z" fill="#F5ECD3"/>
</g>
</svg>
