<svg width="487" height="480" viewBox="0 0 487 480" fill="none" xmlns="http://www.w3.org/2000/svg">
<path d="M486.3 0H0V479.89H486.3V0Z" fill="#469B70"/>
<path d="M224.84 0L243.16 238.76L253.72 0H224.84Z" fill="#F5ECD3"/>
<path d="M142.61 20.5399L243.16 238.76L169.74 10.8599L142.61 20.5399Z" fill="#F5ECD3"/>
<path d="M72.5 67.39L243.16 238.76L94.62 49.21L72.5 67.39Z" fill="#F5ECD3"/>
<path d="M22.97 134.92L243.16 238.76L37.41 110.42L22.97 134.92Z" fill="#F5ECD3"/>
<path d="M0 214.97L243.16 238.76L5.02 187.11L0 214.97Z" fill="#F5ECD3"/>
<path d="M6.3601 297.89L243.16 238.76L1.3501 270.03L6.3601 297.89Z" fill="#F5ECD3"/>
<path d="M41.2801 373.68L243.16 238.76L26.8401 349.17L41.2801 373.68Z" fill="#F5ECD3"/>
<path d="M100.55 433.19L243.16 238.76L78.4302 415L100.55 433.19Z" fill="#F5ECD3"/>
<path d="M177.02 469.25L243.16 238.76L149.89 459.58L177.02 469.25Z" fill="#F5ECD3"/>
<path d="M261.47 477.52L243.16 238.76L232.59 477.52H261.47Z" fill="#F5ECD3"/>
<path d="M343.7 456.98L243.16 238.76L316.57 466.66L343.7 456.98Z" fill="#F5ECD3"/>
<path d="M413.81 410.13L243.16 238.76L391.69 428.31L413.81 410.13Z" fill="#F5ECD3"/>
<path d="M463.34 342.6L243.16 238.76L448.9 367.1L463.34 342.6Z" fill="#F5ECD3"/>
<path d="M486.31 262.55L243.16 238.76L481.29 290.41L486.31 262.55Z" fill="#F5ECD3"/>
<path d="M479.95 179.63L243.16 238.76L484.96 207.49L479.95 179.63Z" fill="#F5ECD3"/>
<path d="M445.03 103.84L243.16 238.76L459.47 128.34L445.03 103.84Z" fill="#F5ECD3"/>
<path d="M385.76 44.3298L243.16 238.76L407.88 62.5099L385.76 44.3298Z" fill="#F5ECD3"/>
<path d="M309.29 8.25977L243.16 238.76L336.42 17.9397L309.29 8.25977Z" fill="#F5ECD3"/>
</svg>
