<svg width="1121" height="138" viewBox="0 0 1121 138" fill="none" xmlns="http://www.w3.org/2000/svg">
<path d="M1121 0H0V138H1121V0Z" fill="#F5ECD3"/>
<path d="M89.46 102.39C82.9332 102.39 76.553 100.455 71.1262 96.8286C65.6993 93.2025 61.4697 88.0486 58.972 82.0186C56.4743 75.9887 55.8207 69.3535 57.0941 62.9521C58.3674 56.5507 61.5103 50.6708 66.1254 46.0556C70.7406 41.4405 76.6206 38.2976 83.022 37.0243C89.4233 35.7509 96.0586 36.4044 102.089 38.9021C108.119 41.3998 113.272 45.6295 116.898 51.0564C120.525 56.4832 122.46 62.8633 122.46 69.3901C122.439 78.1358 118.955 86.5171 112.771 92.7013C106.587 98.8854 98.2056 102.369 89.46 102.39ZM89.46 37.3901C83.1488 37.3901 76.9793 39.2616 71.7317 42.7679C66.4842 46.2742 62.3942 51.2579 59.979 57.0887C57.5638 62.9195 56.9319 69.3355 58.1631 75.5255C59.3944 81.7154 62.4335 87.4012 66.8962 91.8639C71.3589 96.3265 77.0447 99.3658 83.2346 100.597C89.4245 101.828 95.8406 101.196 101.671 98.7811C107.502 96.3659 112.486 92.276 115.992 87.0284C119.499 81.7808 121.37 75.6113 121.37 69.3001C121.346 60.849 117.975 52.7516 111.994 46.7804C106.014 40.8092 97.9111 37.4507 89.46 37.4402V37.3901Z" fill="#A84129"/>
<path d="M89.4599 39.0903C83.4751 39.0903 77.6246 40.8651 72.6484 44.1901C67.6722 47.5151 63.7936 52.241 61.5033 57.7703C59.213 63.2996 58.6138 69.3838 59.7814 75.2537C60.949 81.1235 63.831 86.5154 68.0629 90.7473C72.2948 94.9793 77.6866 97.8612 83.5565 99.0288C89.4264 100.196 95.5107 99.5972 101.04 97.3069C106.569 95.0166 111.295 91.1381 114.62 86.1619C117.945 81.1856 119.72 75.3351 119.72 69.3502C119.72 61.3248 116.532 53.6281 110.857 47.9532C105.182 42.2784 97.4854 39.0903 89.4599 39.0903ZM97.29 77.1803H81.63V61.5203H97.29V77.1803Z" fill="#A84129"/>
<path d="M243.72 102.39C237.193 102.39 230.813 100.455 225.386 96.8286C219.959 93.2025 215.73 88.0486 213.232 82.0186C210.734 75.9887 210.081 69.3535 211.354 62.9521C212.627 56.5507 215.77 50.6708 220.385 46.0556C225.001 41.4405 230.881 38.2976 237.282 37.0243C243.683 35.7509 250.319 36.4044 256.349 38.9021C262.378 41.3998 267.532 45.6295 271.158 51.0564C274.785 56.4832 276.72 62.8633 276.72 69.3901C276.699 78.1358 273.215 86.5171 267.031 92.7013C260.847 98.8854 252.466 102.369 243.72 102.39ZM243.72 37.3901C237.409 37.3901 231.239 39.2616 225.992 42.7679C220.744 46.2742 216.654 51.2579 214.239 57.0887C211.824 62.9195 211.192 69.3355 212.423 75.5255C213.654 81.7154 216.694 87.4012 221.156 91.8639C225.619 96.3265 231.305 99.3658 237.495 100.597C243.685 101.828 250.101 101.196 255.931 98.7811C261.762 96.3659 266.746 92.276 270.252 87.0284C273.759 81.7808 275.63 75.6113 275.63 69.3001C275.609 60.8482 272.239 52.7492 266.257 46.7774C260.276 40.8057 252.172 37.4481 243.72 37.4402V37.3901Z" fill="#A84129"/>
<path d="M243.72 39.0903C237.735 39.0903 231.885 40.8651 226.908 44.1901C221.932 47.5151 218.054 52.241 215.763 57.7703C213.473 63.2996 212.874 69.3838 214.041 75.2537C215.209 81.1235 218.091 86.5154 222.323 90.7473C226.555 94.9793 231.947 97.8612 237.817 99.0288C243.686 100.196 249.771 99.5972 255.3 97.3069C260.829 95.0166 265.555 91.1381 268.88 86.1619C272.205 81.1856 273.98 75.3351 273.98 69.3502C273.98 61.3248 270.792 53.6281 265.117 47.9532C259.442 42.2784 251.745 39.0903 243.72 39.0903ZM251.55 77.1803H235.89V61.5203H251.55V77.1803Z" fill="#A84129"/>
<path d="M397.98 102.39C391.453 102.39 385.073 100.455 379.646 96.8286C374.219 93.2025 369.99 88.0486 367.492 82.0186C364.994 75.9887 364.341 69.3535 365.614 62.9521C366.887 56.5507 370.03 50.6708 374.645 46.0556C379.261 41.4405 385.141 38.2976 391.542 37.0243C397.943 35.7509 404.579 36.4044 410.609 38.9021C416.638 41.3998 421.792 45.6295 425.418 51.0564C429.045 56.4832 430.98 62.8633 430.98 69.3901C430.959 78.1358 427.475 86.5171 421.291 92.7013C415.107 98.8854 406.726 102.369 397.98 102.39ZM397.98 37.3901C391.669 37.3901 385.499 39.2616 380.252 42.7679C375.004 46.2742 370.914 51.2579 368.499 57.0887C366.084 62.9195 365.452 69.3355 366.683 75.5255C367.914 81.7154 370.954 87.4012 375.416 91.8639C379.879 96.3265 385.565 99.3658 391.755 100.597C397.945 101.828 404.361 101.196 410.191 98.7811C416.022 96.3659 421.006 92.276 424.512 87.0284C428.018 81.7808 429.89 75.6113 429.89 69.3001C429.869 60.8482 426.498 52.7492 420.517 46.7774C414.536 40.8057 406.432 37.4481 397.98 37.4402V37.3901Z" fill="#A84129"/>
<path d="M397.98 39.0903C391.995 39.0884 386.143 40.8614 381.166 44.1852C376.188 47.509 372.308 52.2342 370.016 57.7633C367.724 63.2924 367.124 69.377 368.29 75.2476C369.457 81.1181 372.338 86.5108 376.569 90.7438C380.801 94.9767 386.193 97.8597 392.063 99.0281C397.933 100.196 404.018 99.5979 409.548 97.3079C415.078 95.0178 419.804 91.1393 423.13 86.1628C426.455 81.1864 428.23 75.3355 428.23 69.3502C428.23 61.3265 425.043 53.6314 419.371 47.9568C413.698 42.2822 406.004 39.093 397.98 39.0903ZM405.81 77.1803H390.15V61.5203H405.81V77.1803Z" fill="#A84129"/>
<path d="M552.23 102.39C545.703 102.39 539.323 100.455 533.896 96.8286C528.469 93.2025 524.24 88.0486 521.742 82.0186C519.244 75.9887 518.591 69.3535 519.864 62.9521C521.137 56.5507 524.28 50.6708 528.895 46.0556C533.511 41.4405 539.391 38.2976 545.792 37.0243C552.193 35.7509 558.829 36.4044 564.859 38.9021C570.888 41.3998 576.042 45.6295 579.668 51.0564C583.295 56.4832 585.23 62.8633 585.23 69.3901C585.209 78.1358 581.725 86.5171 575.541 92.7013C569.357 98.8854 560.976 102.369 552.23 102.39ZM552.23 37.3901C545.918 37.3881 539.748 39.2579 534.499 42.763C529.25 46.2681 525.159 51.2511 522.742 57.0818C520.325 62.9124 519.692 69.3288 520.922 75.5194C522.152 81.71 525.19 87.3966 529.653 91.8603C534.115 96.324 539.801 99.3642 545.991 100.596C552.181 101.828 558.598 101.197 564.429 98.7821C570.26 96.3672 575.245 92.2772 578.751 87.0294C582.258 81.7816 584.13 75.6118 584.13 69.3001C584.109 60.8499 580.74 52.7524 574.761 46.781C568.782 40.8095 560.68 37.4507 552.23 37.4402V37.3901Z" fill="#A84129"/>
<path d="M552.23 39.0903C546.245 39.0903 540.395 40.8651 535.418 44.1901C530.442 47.5151 526.564 52.241 524.273 57.7703C521.983 63.2996 521.384 69.3838 522.551 75.2537C523.719 81.1235 526.601 86.5154 530.833 90.7473C535.065 94.9793 540.457 97.8612 546.327 99.0288C552.196 100.196 558.281 99.5972 563.81 97.3069C569.339 95.0166 574.065 91.1381 577.39 86.1619C580.715 81.1856 582.49 75.3351 582.49 69.3502C582.49 61.3248 579.302 53.6281 573.627 47.9532C567.952 42.2784 560.255 39.0903 552.23 39.0903ZM560.06 77.1803H544.39V61.5203H560.06V77.1803Z" fill="#A84129"/>
<path d="M706.5 102.39C699.973 102.39 693.593 100.455 688.166 96.8286C682.739 93.2025 678.51 88.0486 676.012 82.0186C673.514 75.9887 672.861 69.3535 674.134 62.9521C675.407 56.5507 678.55 50.6708 683.165 46.0556C687.781 41.4405 693.661 38.2976 700.062 37.0243C706.463 35.7509 713.099 36.4044 719.129 38.9021C725.159 41.3998 730.312 45.6295 733.939 51.0564C737.565 56.4832 739.5 62.8633 739.5 69.3901C739.479 78.1358 735.995 86.5171 729.811 92.7013C723.627 98.8854 715.246 102.369 706.5 102.39ZM706.5 37.3901C700.188 37.3881 694.018 39.2579 688.769 42.763C683.52 46.2681 679.429 51.2511 677.012 57.0818C674.595 62.9124 673.962 69.3288 675.192 75.5194C676.422 81.71 679.46 87.3966 683.923 91.8603C688.385 96.324 694.071 99.3642 700.261 100.596C706.451 101.828 712.868 101.197 718.699 98.7821C724.531 96.3672 729.515 92.2772 733.022 87.0294C736.528 81.7816 738.4 75.6118 738.4 69.3001C738.379 60.8499 735.01 52.7524 729.031 46.781C723.052 40.8095 714.95 37.4507 706.5 37.4402V37.3901Z" fill="#A84129"/>
<path d="M706.5 39.0903C700.515 39.0903 694.665 40.8651 689.689 44.1901C684.712 47.5151 680.834 52.241 678.543 57.7703C676.253 63.2996 675.654 69.3838 676.821 75.2537C677.989 81.1235 680.871 86.5154 685.103 90.7473C689.335 94.9793 694.727 97.8612 700.597 99.0288C706.466 100.196 712.551 99.5972 718.08 97.3069C723.609 95.0166 728.335 91.1381 731.66 86.1619C734.985 81.1856 736.76 75.3351 736.76 69.3502C736.76 61.3248 733.572 53.6281 727.897 47.9532C722.222 42.2784 714.525 39.0903 706.5 39.0903ZM714.33 77.1803H698.66V61.5203H714.33V77.1803Z" fill="#A84129"/>
<path d="M860.75 102.39C854.223 102.39 847.843 100.455 842.416 96.8286C836.989 93.2025 832.76 88.0486 830.262 82.0186C827.764 75.9887 827.111 69.3535 828.384 62.9521C829.657 56.5507 832.8 50.6708 837.415 46.0556C842.031 41.4405 847.911 38.2976 854.312 37.0243C860.713 35.7509 867.349 36.4044 873.379 38.9021C879.409 41.3998 884.562 45.6295 888.189 51.0564C891.815 56.4832 893.75 62.8633 893.75 69.3901C893.732 78.1366 890.249 86.5195 884.064 92.7042C877.879 98.8889 869.497 102.372 860.75 102.39ZM860.75 37.3901C854.439 37.3901 848.269 39.2616 843.022 42.7679C837.774 46.2742 833.684 51.2579 831.269 57.0887C828.854 62.9195 828.222 69.3355 829.453 75.5255C830.684 81.7154 833.724 87.4012 838.186 91.8639C842.649 96.3265 848.335 99.3658 854.525 100.597C860.715 101.828 867.131 101.196 872.961 98.7811C878.792 96.3659 883.776 92.276 887.282 87.0284C890.789 81.7808 892.66 75.6113 892.66 69.3001C892.639 60.8482 889.269 52.7492 883.287 46.7774C877.306 40.8057 869.202 37.4481 860.75 37.4402V37.3901Z" fill="#A84129"/>
<path d="M860.75 39.0903C854.766 39.0923 848.916 40.8686 843.941 44.1948C838.966 47.521 835.089 52.2478 832.801 57.7772C830.512 63.3067 829.914 69.3907 831.083 75.2599C832.251 81.1291 835.134 86.5199 839.366 90.7509C843.599 94.9818 848.991 97.8628 854.86 99.0295C860.73 100.196 866.814 99.5965 872.342 97.3059C877.871 95.0153 882.596 91.1368 885.921 86.1608C889.245 81.1848 891.02 75.3347 891.02 69.3502C891.02 65.3756 890.237 61.4399 888.716 57.7679C887.194 54.096 884.964 50.7597 882.153 47.9497C879.343 45.1397 876.006 42.911 872.333 41.3909C868.661 39.8708 864.725 39.089 860.75 39.0903ZM868.59 77.1803H852.92V61.5203H868.59V77.1803Z" fill="#A84129"/>
<path d="M1015.01 102.39C1008.48 102.39 1002.1 100.455 996.676 96.8286C991.249 93.2025 987.02 88.0486 984.522 82.0186C982.024 75.9887 981.371 69.3535 982.644 62.9521C983.917 56.5507 987.06 50.6708 991.675 46.0556C996.291 41.4405 1002.17 38.2976 1008.57 37.0243C1014.97 35.7509 1021.61 36.4044 1027.64 38.9021C1033.67 41.3998 1038.82 45.6295 1042.45 51.0564C1046.07 56.4832 1048.01 62.8633 1048.01 69.3901C1047.99 78.1366 1044.51 86.5195 1038.32 92.7042C1032.14 98.8889 1023.76 102.372 1015.01 102.39ZM1015.01 37.3901C1008.7 37.3901 1002.53 39.2616 997.282 42.7679C992.034 46.2742 987.944 51.2579 985.529 57.0887C983.114 62.9195 982.482 69.3355 983.713 75.5255C984.944 81.7154 987.984 87.4012 992.446 91.8639C996.909 96.3265 1002.59 99.3658 1008.78 100.597C1014.97 101.828 1021.39 101.196 1027.22 98.7811C1033.05 96.3659 1038.04 92.276 1041.54 87.0284C1045.05 81.7808 1046.92 75.6113 1046.92 69.3001C1046.9 60.8482 1043.53 52.7492 1037.55 46.7774C1031.57 40.8057 1023.46 37.4481 1015.01 37.4402V37.3901Z" fill="#A84129"/>
<path d="M1015.01 39.0903C1009.03 39.0923 1003.18 40.8686 998.201 44.1948C993.226 47.521 989.349 52.2478 987.061 57.7772C984.772 63.3067 984.174 69.3907 985.343 75.2599C986.511 81.1291 989.394 86.5199 993.626 90.7509C997.859 94.9818 1003.25 97.8628 1009.12 99.0295C1014.99 100.196 1021.07 99.5965 1026.6 97.3059C1032.13 95.0153 1036.86 91.1368 1040.18 86.1608C1043.51 81.1848 1045.28 75.3347 1045.28 69.3502C1045.28 65.3756 1044.5 61.4399 1042.98 57.7679C1041.45 54.096 1039.22 50.7597 1036.41 47.9497C1033.6 45.1397 1030.27 42.911 1026.59 41.3909C1022.92 39.8708 1018.98 39.089 1015.01 39.0903ZM1022.85 77.1803H1007.23V61.5203H1022.9L1022.85 77.1803Z" fill="#A84129"/>
</svg>
