<svg width="313" height="479" viewBox="0 0 313 479" fill="none" xmlns="http://www.w3.org/2000/svg">
<path d="M313.54 0H0V478.67H313.54V0Z" fill="#469B70"/>
<path d="M300.12 0H286.46V3.20996H300.12V0Z" fill="#261C19"/>
<path d="M299.73 31.6099H286.07V38.9198H299.73V31.6099Z" fill="#261C19"/>
<path d="M299.73 68.7H286.07V77.12H299.73V68.7Z" fill="#261C19"/>
<path d="M299.73 105.79H286.07V115.32H299.73V105.79Z" fill="#261C19"/>
<path d="M299.73 142.88H286.07V153.52H299.73V142.88Z" fill="#261C19"/>
<path d="M299.73 179.97H286.07V191.72H299.73V179.97Z" fill="#261C19"/>
<path d="M299.73 217.06H286.07V229.92H299.73V217.06Z" fill="#261C19"/>
<path d="M299.73 254.15H286.07V268.13H299.73V254.15Z" fill="#261C19"/>
<path d="M299.73 291.25H286.07V306.34H299.73V291.25Z" fill="#261C19"/>
<path d="M299.73 328.34H286.07V344.54H299.73V328.34Z" fill="#261C19"/>
<path d="M299.73 365.43H286.07V382.74H299.73V365.43Z" fill="#261C19"/>
<path d="M299.73 402.52H286.07V420.94H299.73V402.52Z" fill="#261C19"/>
<path d="M299.73 439.61H286.07V459.14H299.73V439.61Z" fill="#261C19"/>
<path d="M286.29 12.99H272.63V20.2999H286.29V12.99Z" fill="#261C19"/>
<path d="M286.29 50.0801H272.63V58.5001H286.29V50.0801Z" fill="#261C19"/>
<path d="M286.29 87.1699H272.63V96.7H286.29V87.1699Z" fill="#261C19"/>
<path d="M286.29 124.26H272.63V134.9H286.29V124.26Z" fill="#261C19"/>
<path d="M286.29 161.35H272.63V173.1H286.29V161.35Z" fill="#261C19"/>
<path d="M286.29 198.44H272.63V211.3H286.29V198.44Z" fill="#261C19"/>
<path d="M286.29 235.53H272.63V249.51H286.29V235.53Z" fill="#261C19"/>
<path d="M286.29 272.62H272.63V287.71H286.29V272.62Z" fill="#261C19"/>
<path d="M286.29 309.71H272.63V325.91H286.29V309.71Z" fill="#261C19"/>
<path d="M286.29 346.8H272.63V364.11H286.29V346.8Z" fill="#261C19"/>
<path d="M286.29 383.9H272.63V402.32H286.29V383.9Z" fill="#261C19"/>
<path d="M286.29 420.99H272.63V440.52H286.29V420.99Z" fill="#261C19"/>
<path d="M286.29 459.14H272.63V478.67H286.29V459.14Z" fill="#261C19"/>
<path d="M272.85 0H259.19V3.20996H272.85V0Z" fill="#261C19"/>
<path d="M272.47 31.6099H258.81V38.9198H272.47V31.6099Z" fill="#261C19"/>
<path d="M272.47 68.7H258.81V77.12H272.47V68.7Z" fill="#261C19"/>
<path d="M272.47 105.79H258.81V115.32H272.47V105.79Z" fill="#261C19"/>
<path d="M272.47 142.88H258.81V153.52H272.47V142.88Z" fill="#261C19"/>
<path d="M272.47 179.97H258.81V191.72H272.47V179.97Z" fill="#261C19"/>
<path d="M272.47 217.06H258.81V229.92H272.47V217.06Z" fill="#261C19"/>
<path d="M272.47 254.15H258.81V268.13H272.47V254.15Z" fill="#261C19"/>
<path d="M272.47 291.25H258.81V306.34H272.47V291.25Z" fill="#261C19"/>
<path d="M272.47 328.34H258.81V344.54H272.47V328.34Z" fill="#261C19"/>
<path d="M272.47 365.43H258.81V382.74H272.47V365.43Z" fill="#261C19"/>
<path d="M272.47 402.52H258.81V420.94H272.47V402.52Z" fill="#261C19"/>
<path d="M272.47 439.61H258.81V459.14H272.47V439.61Z" fill="#261C19"/>
<path d="M259.03 12.99H245.37V20.2999H259.03V12.99Z" fill="#261C19"/>
<path d="M259.03 50.0801H245.37V58.5001H259.03V50.0801Z" fill="#261C19"/>
<path d="M259.03 87.1699H245.37V96.7H259.03V87.1699Z" fill="#261C19"/>
<path d="M259.03 124.26H245.37V134.9H259.03V124.26Z" fill="#261C19"/>
<path d="M259.03 161.35H245.37V173.1H259.03V161.35Z" fill="#261C19"/>
<path d="M259.03 198.44H245.37V211.3H259.03V198.44Z" fill="#261C19"/>
<path d="M259.03 235.53H245.37V249.51H259.03V235.53Z" fill="#261C19"/>
<path d="M259.03 272.62H245.37V287.71H259.03V272.62Z" fill="#261C19"/>
<path d="M259.03 309.71H245.37V325.91H259.03V309.71Z" fill="#261C19"/>
<path d="M259.03 346.8H245.37V364.11H259.03V346.8Z" fill="#261C19"/>
<path d="M259.03 383.9H245.37V402.32H259.03V383.9Z" fill="#261C19"/>
<path d="M259.03 420.99H245.37V440.52H259.03V420.99Z" fill="#261C19"/>
<path d="M259.03 459.14H245.37V478.67H259.03V459.14Z" fill="#261C19"/>
<path d="M245.59 0H231.93V3.20996H245.59V0Z" fill="#261C19"/>
<path d="M245.2 31.6099H231.54V38.9198H245.2V31.6099Z" fill="#261C19"/>
<path d="M245.2 68.7H231.54V77.12H245.2V68.7Z" fill="#261C19"/>
<path d="M245.2 105.79H231.54V115.32H245.2V105.79Z" fill="#261C19"/>
<path d="M245.2 142.88H231.54V153.52H245.2V142.88Z" fill="#261C19"/>
<path d="M245.2 179.97H231.54V191.72H245.2V179.97Z" fill="#261C19"/>
<path d="M245.2 217.06H231.54V229.92H245.2V217.06Z" fill="#261C19"/>
<path d="M245.2 254.15H231.54V268.13H245.2V254.15Z" fill="#261C19"/>
<path d="M245.2 291.25H231.54V306.34H245.2V291.25Z" fill="#261C19"/>
<path d="M245.2 328.34H231.54V344.54H245.2V328.34Z" fill="#261C19"/>
<path d="M245.2 365.43H231.54V382.74H245.2V365.43Z" fill="#261C19"/>
<path d="M245.2 402.52H231.54V420.94H245.2V402.52Z" fill="#261C19"/>
<path d="M245.2 439.61H231.54V459.14H245.2V439.61Z" fill="#261C19"/>
<path d="M231.77 12.99H218.11V20.2999H231.77V12.99Z" fill="#261C19"/>
<path d="M231.77 50.0801H218.11V58.5001H231.77V50.0801Z" fill="#261C19"/>
<path d="M231.77 87.1699H218.11V96.7H231.77V87.1699Z" fill="#261C19"/>
<path d="M231.77 124.26H218.11V134.9H231.77V124.26Z" fill="#261C19"/>
<path d="M231.77 161.35H218.11V173.1H231.77V161.35Z" fill="#261C19"/>
<path d="M231.77 198.44H218.11V211.3H231.77V198.44Z" fill="#261C19"/>
<path d="M231.77 235.53H218.11V249.51H231.77V235.53Z" fill="#261C19"/>
<path d="M231.77 272.62H218.11V287.71H231.77V272.62Z" fill="#261C19"/>
<path d="M231.77 309.71H218.11V325.91H231.77V309.71Z" fill="#261C19"/>
<path d="M231.77 346.8H218.11V364.11H231.77V346.8Z" fill="#261C19"/>
<path d="M231.77 383.9H218.11V402.32H231.77V383.9Z" fill="#261C19"/>
<path d="M231.77 420.99H218.11V440.52H231.77V420.99Z" fill="#261C19"/>
<path d="M231.77 459.14H218.11V478.67H231.77V459.14Z" fill="#261C19"/>
<path d="M218.33 0H204.67V3.20996H218.33V0Z" fill="#261C19"/>
<path d="M217.94 31.6099H204.28V38.9198H217.94V31.6099Z" fill="#261C19"/>
<path d="M217.94 68.7H204.28V77.12H217.94V68.7Z" fill="#261C19"/>
<path d="M217.94 105.79H204.28V115.32H217.94V105.79Z" fill="#261C19"/>
<path d="M217.94 142.88H204.28V153.52H217.94V142.88Z" fill="#261C19"/>
<path d="M217.94 179.97H204.28V191.72H217.94V179.97Z" fill="#261C19"/>
<path d="M217.94 217.06H204.28V229.92H217.94V217.06Z" fill="#261C19"/>
<path d="M217.94 254.15H204.28V268.13H217.94V254.15Z" fill="#261C19"/>
<path d="M217.94 291.25H204.28V306.34H217.94V291.25Z" fill="#261C19"/>
<path d="M217.94 328.34H204.28V344.54H217.94V328.34Z" fill="#261C19"/>
<path d="M217.94 365.43H204.28V382.74H217.94V365.43Z" fill="#261C19"/>
<path d="M217.94 402.52H204.28V420.94H217.94V402.52Z" fill="#261C19"/>
<path d="M217.94 439.61H204.28V459.14H217.94V439.61Z" fill="#261C19"/>
<path d="M204.5 12.99H190.84V20.2999H204.5V12.99Z" fill="#261C19"/>
<path d="M204.5 50.0801H190.84V58.5001H204.5V50.0801Z" fill="#261C19"/>
<path d="M204.5 87.1699H190.84V96.7H204.5V87.1699Z" fill="#261C19"/>
<path d="M204.5 124.26H190.84V134.9H204.5V124.26Z" fill="#261C19"/>
<path d="M204.5 161.35H190.84V173.1H204.5V161.35Z" fill="#261C19"/>
<path d="M204.5 198.44H190.84V211.3H204.5V198.44Z" fill="#261C19"/>
<path d="M204.5 235.53H190.84V249.51H204.5V235.53Z" fill="#261C19"/>
<path d="M204.5 272.62H190.84V287.71H204.5V272.62Z" fill="#261C19"/>
<path d="M204.5 309.71H190.84V325.91H204.5V309.71Z" fill="#261C19"/>
<path d="M204.5 346.8H190.84V364.11H204.5V346.8Z" fill="#261C19"/>
<path d="M204.5 383.9H190.84V402.32H204.5V383.9Z" fill="#261C19"/>
<path d="M204.5 420.99H190.84V440.52H204.5V420.99Z" fill="#261C19"/>
<path d="M204.5 459.14H190.84V478.67H204.5V459.14Z" fill="#261C19"/>
<path d="M191.07 0H177.41V3.20996H191.07V0Z" fill="#261C19"/>
<path d="M190.68 31.6099H177.02V38.9198H190.68V31.6099Z" fill="#261C19"/>
<path d="M190.68 68.7H177.02V77.12H190.68V68.7Z" fill="#261C19"/>
<path d="M190.68 105.79H177.02V115.32H190.68V105.79Z" fill="#261C19"/>
<path d="M190.68 142.88H177.02V153.52H190.68V142.88Z" fill="#261C19"/>
<path d="M190.68 179.97H177.02V191.72H190.68V179.97Z" fill="#261C19"/>
<path d="M190.68 217.06H177.02V229.92H190.68V217.06Z" fill="#261C19"/>
<path d="M190.68 254.15H177.02V268.13H190.68V254.15Z" fill="#261C19"/>
<path d="M190.68 291.25H177.02V306.34H190.68V291.25Z" fill="#261C19"/>
<path d="M190.68 328.34H177.02V344.54H190.68V328.34Z" fill="#261C19"/>
<path d="M190.68 365.43H177.02V382.74H190.68V365.43Z" fill="#261C19"/>
<path d="M190.68 402.52H177.02V420.94H190.68V402.52Z" fill="#261C19"/>
<path d="M190.68 439.61H177.02V459.14H190.68V439.61Z" fill="#261C19"/>
<path d="M177.24 12.99H163.58V20.2999H177.24V12.99Z" fill="#261C19"/>
<path d="M177.24 50.0801H163.58V58.5001H177.24V50.0801Z" fill="#261C19"/>
<path d="M177.24 87.1699H163.58V96.7H177.24V87.1699Z" fill="#261C19"/>
<path d="M177.24 124.26H163.58V134.9H177.24V124.26Z" fill="#261C19"/>
<path d="M177.24 161.35H163.58V173.1H177.24V161.35Z" fill="#261C19"/>
<path d="M177.24 198.44H163.58V211.3H177.24V198.44Z" fill="#261C19"/>
<path d="M177.24 235.53H163.58V249.51H177.24V235.53Z" fill="#261C19"/>
<path d="M177.24 272.62H163.58V287.71H177.24V272.62Z" fill="#261C19"/>
<path d="M177.24 309.71H163.58V325.91H177.24V309.71Z" fill="#261C19"/>
<path d="M177.24 346.8H163.58V364.11H177.24V346.8Z" fill="#261C19"/>
<path d="M177.24 383.9H163.58V402.32H177.24V383.9Z" fill="#261C19"/>
<path d="M177.24 420.99H163.58V440.52H177.24V420.99Z" fill="#261C19"/>
<path d="M177.24 459.14H163.58V478.67H177.24V459.14Z" fill="#261C19"/>
<path d="M163.8 0H150.14V3.20996H163.8V0Z" fill="#261C19"/>
<path d="M163.41 31.6099H149.75V38.9198H163.41V31.6099Z" fill="#261C19"/>
<path d="M163.41 68.7H149.75V77.12H163.41V68.7Z" fill="#261C19"/>
<path d="M163.41 105.79H149.75V115.32H163.41V105.79Z" fill="#261C19"/>
<path d="M163.41 142.88H149.75V153.52H163.41V142.88Z" fill="#261C19"/>
<path d="M163.41 179.97H149.75V191.72H163.41V179.97Z" fill="#261C19"/>
<path d="M163.41 217.06H149.75V229.92H163.41V217.06Z" fill="#261C19"/>
<path d="M163.41 254.15H149.75V268.13H163.41V254.15Z" fill="#261C19"/>
<path d="M163.41 291.25H149.75V306.34H163.41V291.25Z" fill="#261C19"/>
<path d="M163.41 328.34H149.75V344.54H163.41V328.34Z" fill="#261C19"/>
<path d="M163.41 365.43H149.75V382.74H163.41V365.43Z" fill="#261C19"/>
<path d="M163.41 402.52H149.75V420.94H163.41V402.52Z" fill="#261C19"/>
<path d="M163.41 439.61H149.75V459.14H163.41V439.61Z" fill="#261C19"/>
<path d="M149.98 12.99H136.32V20.2999H149.98V12.99Z" fill="#261C19"/>
<path d="M149.98 50.0801H136.32V58.5001H149.98V50.0801Z" fill="#261C19"/>
<path d="M149.98 87.1699H136.32V96.7H149.98V87.1699Z" fill="#261C19"/>
<path d="M149.98 124.26H136.32V134.9H149.98V124.26Z" fill="#261C19"/>
<path d="M149.98 161.35H136.32V173.1H149.98V161.35Z" fill="#261C19"/>
<path d="M149.98 198.44H136.32V211.3H149.98V198.44Z" fill="#261C19"/>
<path d="M149.98 235.53H136.32V249.51H149.98V235.53Z" fill="#261C19"/>
<path d="M149.98 272.62H136.32V287.71H149.98V272.62Z" fill="#261C19"/>
<path d="M149.98 309.71H136.32V325.91H149.98V309.71Z" fill="#261C19"/>
<path d="M149.98 346.8H136.32V364.11H149.98V346.8Z" fill="#261C19"/>
<path d="M149.98 383.9H136.32V402.32H149.98V383.9Z" fill="#261C19"/>
<path d="M149.98 420.99H136.32V440.52H149.98V420.99Z" fill="#261C19"/>
<path d="M149.98 459.14H136.32V478.67H149.98V459.14Z" fill="#261C19"/>
<path d="M136.54 0H122.88V3.20996H136.54V0Z" fill="#261C19"/>
<path d="M136.15 31.6099H122.49V38.9198H136.15V31.6099Z" fill="#261C19"/>
<path d="M136.15 68.7H122.49V77.12H136.15V68.7Z" fill="#261C19"/>
<path d="M136.15 105.79H122.49V115.32H136.15V105.79Z" fill="#261C19"/>
<path d="M136.15 142.88H122.49V153.52H136.15V142.88Z" fill="#261C19"/>
<path d="M136.15 179.97H122.49V191.72H136.15V179.97Z" fill="#261C19"/>
<path d="M136.15 217.06H122.49V229.92H136.15V217.06Z" fill="#261C19"/>
<path d="M136.15 254.15H122.49V268.13H136.15V254.15Z" fill="#261C19"/>
<path d="M136.15 291.25H122.49V306.34H136.15V291.25Z" fill="#261C19"/>
<path d="M136.15 328.34H122.49V344.54H136.15V328.34Z" fill="#261C19"/>
<path d="M136.15 365.43H122.49V382.74H136.15V365.43Z" fill="#261C19"/>
<path d="M136.15 402.52H122.49V420.94H136.15V402.52Z" fill="#261C19"/>
<path d="M136.15 439.61H122.49V459.14H136.15V439.61Z" fill="#261C19"/>
<path d="M122.71 12.99H109.05V20.2999H122.71V12.99Z" fill="#261C19"/>
<path d="M122.71 50.0801H109.05V58.5001H122.71V50.0801Z" fill="#261C19"/>
<path d="M122.71 87.1699H109.05V96.7H122.71V87.1699Z" fill="#261C19"/>
<path d="M122.71 124.26H109.05V134.9H122.71V124.26Z" fill="#261C19"/>
<path d="M122.71 161.35H109.05V173.1H122.71V161.35Z" fill="#261C19"/>
<path d="M122.71 198.44H109.05V211.3H122.71V198.44Z" fill="#261C19"/>
<path d="M122.71 235.53H109.05V249.51H122.71V235.53Z" fill="#261C19"/>
<path d="M122.71 272.62H109.05V287.71H122.71V272.62Z" fill="#261C19"/>
<path d="M122.71 309.71H109.05V325.91H122.71V309.71Z" fill="#261C19"/>
<path d="M122.71 346.8H109.05V364.11H122.71V346.8Z" fill="#261C19"/>
<path d="M122.71 383.9H109.05V402.32H122.71V383.9Z" fill="#261C19"/>
<path d="M122.71 420.99H109.05V440.52H122.71V420.99Z" fill="#261C19"/>
<path d="M122.71 459.14H109.05V478.67H122.71V459.14Z" fill="#261C19"/>
<path d="M109.28 0H95.6199V3.20996H109.28V0Z" fill="#261C19"/>
<path d="M108.89 31.6099H95.2302V38.9198H108.89V31.6099Z" fill="#261C19"/>
<path d="M108.89 68.7H95.2302V77.12H108.89V68.7Z" fill="#261C19"/>
<path d="M108.89 105.79H95.2302V115.32H108.89V105.79Z" fill="#261C19"/>
<path d="M108.89 142.88H95.2302V153.52H108.89V142.88Z" fill="#261C19"/>
<path d="M108.89 179.97H95.2302V191.72H108.89V179.97Z" fill="#261C19"/>
<path d="M108.89 217.06H95.2302V229.92H108.89V217.06Z" fill="#261C19"/>
<path d="M108.89 254.15H95.2302V268.13H108.89V254.15Z" fill="#261C19"/>
<path d="M108.89 291.25H95.2302V306.34H108.89V291.25Z" fill="#261C19"/>
<path d="M108.89 328.34H95.2302V344.54H108.89V328.34Z" fill="#261C19"/>
<path d="M108.89 365.43H95.2302V382.74H108.89V365.43Z" fill="#261C19"/>
<path d="M108.89 402.52H95.2302V420.94H108.89V402.52Z" fill="#261C19"/>
<path d="M108.89 439.61H95.2302V459.14H108.89V439.61Z" fill="#261C19"/>
<path d="M95.4501 12.99H81.79V20.2999H95.4501V12.99Z" fill="#261C19"/>
<path d="M95.4501 50.0801H81.79V58.5001H95.4501V50.0801Z" fill="#261C19"/>
<path d="M95.4501 87.1699H81.79V96.7H95.4501V87.1699Z" fill="#261C19"/>
<path d="M95.4501 124.26H81.79V134.9H95.4501V124.26Z" fill="#261C19"/>
<path d="M95.4501 161.35H81.79V173.1H95.4501V161.35Z" fill="#261C19"/>
<path d="M95.4501 198.44H81.79V211.3H95.4501V198.44Z" fill="#261C19"/>
<path d="M95.4501 235.53H81.79V249.51H95.4501V235.53Z" fill="#261C19"/>
<path d="M95.4501 272.62H81.79V287.71H95.4501V272.62Z" fill="#261C19"/>
<path d="M95.4501 309.71H81.79V325.91H95.4501V309.71Z" fill="#261C19"/>
<path d="M95.4501 346.8H81.79V364.11H95.4501V346.8Z" fill="#261C19"/>
<path d="M95.4501 383.9H81.79V402.32H95.4501V383.9Z" fill="#261C19"/>
<path d="M95.4501 420.99H81.79V440.52H95.4501V420.99Z" fill="#261C19"/>
<path d="M95.4501 459.14H81.79V478.67H95.4501V459.14Z" fill="#261C19"/>
<path d="M82.01 0H68.3501V3.20996H82.01V0Z" fill="#261C19"/>
<path d="M81.6299 31.6099H67.97V38.9198H81.6299V31.6099Z" fill="#261C19"/>
<path d="M81.6299 68.7H67.97V77.12H81.6299V68.7Z" fill="#261C19"/>
<path d="M81.6299 105.79H67.97V115.32H81.6299V105.79Z" fill="#261C19"/>
<path d="M81.6299 142.88H67.97V153.52H81.6299V142.88Z" fill="#261C19"/>
<path d="M81.6299 179.97H67.97V191.72H81.6299V179.97Z" fill="#261C19"/>
<path d="M81.6299 217.06H67.97V229.92H81.6299V217.06Z" fill="#261C19"/>
<path d="M81.6299 254.15H67.97V268.13H81.6299V254.15Z" fill="#261C19"/>
<path d="M81.6299 291.25H67.97V306.34H81.6299V291.25Z" fill="#261C19"/>
<path d="M81.6299 328.34H67.97V344.54H81.6299V328.34Z" fill="#261C19"/>
<path d="M81.6299 365.43H67.97V382.74H81.6299V365.43Z" fill="#261C19"/>
<path d="M81.6299 402.52H67.97V420.94H81.6299V402.52Z" fill="#261C19"/>
<path d="M81.6299 439.61H67.97V459.14H81.6299V439.61Z" fill="#261C19"/>
<path d="M68.1901 12.99H54.53V20.2999H68.1901V12.99Z" fill="#261C19"/>
<path d="M68.1901 50.0801H54.53V58.5001H68.1901V50.0801Z" fill="#261C19"/>
<path d="M68.1901 87.1699H54.53V96.7H68.1901V87.1699Z" fill="#261C19"/>
<path d="M68.1901 124.26H54.53V134.9H68.1901V124.26Z" fill="#261C19"/>
<path d="M68.1901 161.35H54.53V173.1H68.1901V161.35Z" fill="#261C19"/>
<path d="M68.1901 198.44H54.53V211.3H68.1901V198.44Z" fill="#261C19"/>
<path d="M68.1901 235.53H54.53V249.51H68.1901V235.53Z" fill="#261C19"/>
<path d="M68.1901 272.62H54.53V287.71H68.1901V272.62Z" fill="#261C19"/>
<path d="M68.1901 309.71H54.53V325.91H68.1901V309.71Z" fill="#261C19"/>
<path d="M68.1901 346.8H54.53V364.11H68.1901V346.8Z" fill="#261C19"/>
<path d="M68.1901 383.9H54.53V402.32H68.1901V383.9Z" fill="#261C19"/>
<path d="M68.1901 420.99H54.53V440.52H68.1901V420.99Z" fill="#261C19"/>
<path d="M68.1901 459.14H54.53V478.67H68.1901V459.14Z" fill="#261C19"/>
<path d="M54.75 0H41.0901V3.20996H54.75V0Z" fill="#261C19"/>
<path d="M54.36 31.6099H40.7V38.9198H54.36V31.6099Z" fill="#261C19"/>
<path d="M54.36 68.7H40.7V77.12H54.36V68.7Z" fill="#261C19"/>
<path d="M54.36 105.79H40.7V115.32H54.36V105.79Z" fill="#261C19"/>
<path d="M54.36 142.88H40.7V153.52H54.36V142.88Z" fill="#261C19"/>
<path d="M54.36 179.97H40.7V191.72H54.36V179.97Z" fill="#261C19"/>
<path d="M54.36 217.06H40.7V229.92H54.36V217.06Z" fill="#261C19"/>
<path d="M54.36 254.15H40.7V268.13H54.36V254.15Z" fill="#261C19"/>
<path d="M54.36 291.25H40.7V306.34H54.36V291.25Z" fill="#261C19"/>
<path d="M54.36 328.34H40.7V344.54H54.36V328.34Z" fill="#261C19"/>
<path d="M54.36 365.43H40.7V382.74H54.36V365.43Z" fill="#261C19"/>
<path d="M54.36 402.52H40.7V420.94H54.36V402.52Z" fill="#261C19"/>
<path d="M54.36 439.61H40.7V459.14H54.36V439.61Z" fill="#261C19"/>
<path d="M27.49 0H13.8301V3.20996H27.49V0Z" fill="#261C19"/>
<path d="M27.1002 31.6099H13.4402V38.9198H27.1002V31.6099Z" fill="#261C19"/>
<path d="M27.1002 68.7H13.4402V77.12H27.1002V68.7Z" fill="#261C19"/>
<path d="M27.1002 105.79H13.4402V115.32H27.1002V105.79Z" fill="#261C19"/>
<path d="M27.1002 142.88H13.4402V153.52H27.1002V142.88Z" fill="#261C19"/>
<path d="M27.1002 179.97H13.4402V191.72H27.1002V179.97Z" fill="#261C19"/>
<path d="M27.1002 217.06H13.4402V229.92H27.1002V217.06Z" fill="#261C19"/>
<path d="M27.1002 254.15H13.4402V268.13H27.1002V254.15Z" fill="#261C19"/>
<path d="M27.1002 291.25H13.4402V306.34H27.1002V291.25Z" fill="#261C19"/>
<path d="M27.1002 328.34H13.4402V344.54H27.1002V328.34Z" fill="#261C19"/>
<path d="M27.1002 365.43H13.4402V382.74H27.1002V365.43Z" fill="#261C19"/>
<path d="M27.1002 402.52H13.4402V420.94H27.1002V402.52Z" fill="#261C19"/>
<path d="M27.1002 439.61H13.4402V459.14H27.1002V439.61Z" fill="#261C19"/>
<path d="M40.9301 12.99H27.27V20.2999H40.9301V12.99Z" fill="#261C19"/>
<path d="M40.9301 50.0801H27.27V58.5001H40.9301V50.0801Z" fill="#261C19"/>
<path d="M40.9301 87.1699H27.27V96.7H40.9301V87.1699Z" fill="#261C19"/>
<path d="M40.9301 124.26H27.27V134.9H40.9301V124.26Z" fill="#261C19"/>
<path d="M40.9301 161.35H27.27V173.1H40.9301V161.35Z" fill="#261C19"/>
<path d="M40.9301 198.44H27.27V211.3H40.9301V198.44Z" fill="#261C19"/>
<path d="M40.9301 235.53H27.27V249.51H40.9301V235.53Z" fill="#261C19"/>
<path d="M40.9301 272.62H27.27V287.71H40.9301V272.62Z" fill="#261C19"/>
<path d="M40.9301 309.71H27.27V325.91H40.9301V309.71Z" fill="#261C19"/>
<path d="M40.9301 346.8H27.27V364.11H40.9301V346.8Z" fill="#261C19"/>
<path d="M40.9301 383.9H27.27V402.32H40.9301V383.9Z" fill="#261C19"/>
<path d="M40.9301 420.99H27.27V440.52H40.9301V420.99Z" fill="#261C19"/>
<path d="M40.9301 459.14H27.27V478.67H40.9301V459.14Z" fill="#261C19"/>
<path d="M13.66 12.99H0V20.2999H13.66V12.99Z" fill="#261C19"/>
<path d="M13.66 50.0801H0V58.5001H13.66V50.0801Z" fill="#261C19"/>
<path d="M13.66 87.1699H0V96.7H13.66V87.1699Z" fill="#261C19"/>
<path d="M13.66 124.26H0V134.9H13.66V124.26Z" fill="#261C19"/>
<path d="M13.66 161.35H0V173.1H13.66V161.35Z" fill="#261C19"/>
<path d="M13.66 198.44H0V211.3H13.66V198.44Z" fill="#261C19"/>
<path d="M13.66 235.53H0V249.51H13.66V235.53Z" fill="#261C19"/>
<path d="M13.66 272.62H0V287.71H13.66V272.62Z" fill="#261C19"/>
<path d="M13.66 309.71H0V325.91H13.66V309.71Z" fill="#261C19"/>
<path d="M13.66 346.8H0V364.11H13.66V346.8Z" fill="#261C19"/>
<path d="M13.66 383.9H0V402.32H13.66V383.9Z" fill="#261C19"/>
<path d="M13.66 420.99H0V440.52H13.66V420.99Z" fill="#261C19"/>
<path d="M13.66 459.14H0V478.67H13.66V459.14Z" fill="#261C19"/>
<path d="M313.55 12.99H299.89V20.2999H313.55V12.99Z" fill="#261C19"/>
<path d="M313.55 50.0801H299.89V58.5001H313.55V50.0801Z" fill="#261C19"/>
<path d="M313.55 87.1699H299.89V96.7H313.55V87.1699Z" fill="#261C19"/>
<path d="M313.55 124.26H299.89V134.9H313.55V124.26Z" fill="#261C19"/>
<path d="M313.55 161.35H299.89V173.1H313.55V161.35Z" fill="#261C19"/>
<path d="M313.55 198.44H299.89V211.3H313.55V198.44Z" fill="#261C19"/>
<path d="M313.55 235.53H299.89V249.51H313.55V235.53Z" fill="#261C19"/>
<path d="M313.55 272.62H299.89V287.71H313.55V272.62Z" fill="#261C19"/>
<path d="M313.55 309.71H299.89V325.91H313.55V309.71Z" fill="#261C19"/>
<path d="M313.55 346.8H299.89V364.11H313.55V346.8Z" fill="#261C19"/>
<path d="M313.55 383.9H299.89V402.32H313.55V383.9Z" fill="#261C19"/>
<path d="M313.55 420.99H299.89V440.52H313.55V420.99Z" fill="#261C19"/>
<path d="M313.55 459.14H299.89V478.67H313.55V459.14Z" fill="#261C19"/>
</svg>
