<svg width="638" height="322" viewBox="0 0 638 322" fill="none" xmlns="http://www.w3.org/2000/svg">
<mask id="mask0_115_1871" style="mask-type:luminance" maskUnits="userSpaceOnUse" x="0" y="0" width="638" height="322">
<path d="M638 0H0V322H638V0Z" fill="white"/>
</mask>
<g mask="url(#mask0_115_1871)">
<path d="M566.158 -20.4355H142.191V527.465H566.158V-20.4355Z" fill="#F5ECD3"/>
<path d="M104.296 381.514C122.679 381.514 137.581 366.582 137.581 348.163C137.581 329.743 122.679 314.811 104.296 314.811C85.913 314.811 71.0107 329.743 71.0107 348.163C71.0107 366.582 85.913 381.514 104.296 381.514Z" fill="#2E5A87"/>
<path d="M32.7149 381.514C51.0978 381.514 66.0001 366.582 66.0001 348.163C66.0001 329.743 51.0978 314.811 32.7149 314.811C14.332 314.811 -0.570312 329.743 -0.570312 348.163C-0.570312 366.582 14.332 381.514 32.7149 381.514Z" fill="#2E5A87"/>
<path d="M175.877 381.514C194.26 381.514 209.162 366.582 209.162 348.163C209.162 329.743 194.26 314.811 175.877 314.811C157.494 314.811 142.592 329.743 142.592 348.163C142.592 366.582 157.494 381.514 175.877 381.514Z" fill="#2E5A87"/>
<path d="M247.459 381.514C265.842 381.514 280.744 366.582 280.744 348.163C280.744 329.743 265.842 314.811 247.459 314.811C229.076 314.811 214.174 329.743 214.174 348.163C214.174 366.582 229.076 381.514 247.459 381.514Z" fill="#2E5A87"/>
<path d="M319.04 381.514C337.423 381.514 352.325 366.582 352.325 348.163C352.325 329.743 337.423 314.811 319.04 314.811C300.657 314.811 285.755 329.743 285.755 348.163C285.755 366.582 300.657 381.514 319.04 381.514Z" fill="#2E5A87"/>
<path d="M390.61 381.514C408.993 381.514 423.896 366.582 423.896 348.163C423.896 329.743 408.993 314.811 390.61 314.811C372.227 314.811 357.325 329.743 357.325 348.163C357.325 366.582 372.227 381.514 390.61 381.514Z" fill="#2E5A87"/>
<path d="M462.192 381.514C480.575 381.514 495.478 366.582 495.478 348.163C495.478 329.743 480.575 314.811 462.192 314.811C443.81 314.811 428.907 329.743 428.907 348.163C428.907 366.582 443.81 381.514 462.192 381.514Z" fill="#2E5A87"/>
<path d="M533.774 381.514C552.156 381.514 567.059 366.582 567.059 348.163C567.059 329.743 552.156 314.811 533.774 314.811C515.391 314.811 500.488 329.743 500.488 348.163C500.488 366.582 515.391 381.514 533.774 381.514Z" fill="#2E5A87"/>
<path d="M605.355 381.514C623.738 381.514 638.641 366.582 638.641 348.163C638.641 329.743 623.738 314.811 605.355 314.811C586.973 314.811 572.07 329.743 572.07 348.163C572.07 366.582 586.973 381.514 605.355 381.514Z" fill="#2E5A87"/>
<path d="M140.462 350.846C158.845 350.846 173.747 335.914 173.747 317.494C173.747 299.075 158.845 284.143 140.462 284.143C122.079 284.143 107.177 299.075 107.177 317.494C107.177 335.914 122.079 350.846 140.462 350.846Z" fill="#F5ECD3"/>
<path d="M68.8409 350.846C87.2238 350.846 102.126 335.914 102.126 317.494C102.126 299.075 87.2238 284.143 68.8409 284.143C50.458 284.143 35.5557 299.075 35.5557 317.494C35.5557 335.914 50.458 350.846 68.8409 350.846Z" fill="#F5ECD3"/>
<path d="M-2.78119 350.846C15.6017 350.846 30.504 335.914 30.504 317.494C30.504 299.075 15.6017 284.143 -2.78119 284.143C-21.1641 284.143 -36.0664 299.075 -36.0664 317.494C-36.0664 335.914 -21.1641 350.846 -2.78119 350.846Z" fill="#F5ECD3"/>
<path d="M212.083 350.846C230.466 350.846 245.368 335.914 245.368 317.494C245.368 299.075 230.466 284.143 212.083 284.143C193.7 284.143 178.798 299.075 178.798 317.494C178.798 335.914 193.7 350.846 212.083 350.846Z" fill="#F5ECD3"/>
<path d="M283.704 350.846C302.087 350.846 316.989 335.914 316.989 317.494C316.989 299.075 302.087 284.143 283.704 284.143C265.321 284.143 250.419 299.075 250.419 317.494C250.419 335.914 265.321 350.846 283.704 350.846Z" fill="#F5ECD3"/>
<path d="M355.335 350.846C373.718 350.846 388.62 335.914 388.62 317.494C388.62 299.075 373.718 284.143 355.335 284.143C336.952 284.143 322.05 299.075 322.05 317.494C322.05 335.914 336.952 350.846 355.335 350.846Z" fill="#F5ECD3"/>
<path d="M426.957 350.846C445.34 350.846 460.242 335.914 460.242 317.494C460.242 299.075 445.34 284.143 426.957 284.143C408.574 284.143 393.672 299.075 393.672 317.494C393.672 335.914 408.574 350.846 426.957 350.846Z" fill="#F5ECD3"/>
<path d="M498.578 350.846C516.961 350.846 531.863 335.914 531.863 317.494C531.863 299.075 516.961 284.143 498.578 284.143C480.195 284.143 465.293 299.075 465.293 317.494C465.293 335.914 480.195 350.846 498.578 350.846Z" fill="#F5ECD3"/>
<path d="M570.199 350.846C588.582 350.846 603.484 335.914 603.484 317.494C603.484 299.075 588.582 284.143 570.199 284.143C551.816 284.143 536.914 299.075 536.914 317.494C536.914 335.914 551.816 350.846 570.199 350.846Z" fill="#F5ECD3"/>
<path d="M641.82 350.846C660.203 350.846 675.106 335.914 675.106 317.494C675.106 299.075 660.203 284.143 641.82 284.143C623.437 284.143 608.535 299.075 608.535 317.494C608.535 335.914 623.437 350.846 641.82 350.846Z" fill="#F5ECD3"/>
<path d="M104.296 315.762C122.679 315.762 137.581 300.83 137.581 282.411C137.581 263.991 122.679 249.059 104.296 249.059C85.913 249.059 71.0107 263.991 71.0107 282.411C71.0107 300.83 85.913 315.762 104.296 315.762Z" fill="#2E5A87"/>
<path d="M32.7149 315.762C51.0978 315.762 66.0001 300.83 66.0001 282.411C66.0001 263.991 51.0978 249.059 32.7149 249.059C14.332 249.059 -0.570312 263.991 -0.570312 282.411C-0.570312 300.83 14.332 315.762 32.7149 315.762Z" fill="#2E5A87"/>
<path d="M175.877 315.762C194.26 315.762 209.162 300.83 209.162 282.411C209.162 263.991 194.26 249.059 175.877 249.059C157.494 249.059 142.592 263.991 142.592 282.411C142.592 300.83 157.494 315.762 175.877 315.762Z" fill="#2E5A87"/>
<path d="M247.459 315.762C265.842 315.762 280.744 300.83 280.744 282.411C280.744 263.991 265.842 249.059 247.459 249.059C229.076 249.059 214.174 263.991 214.174 282.411C214.174 300.83 229.076 315.762 247.459 315.762Z" fill="#2E5A87"/>
<path d="M319.04 315.762C337.423 315.762 352.325 300.83 352.325 282.411C352.325 263.991 337.423 249.059 319.04 249.059C300.657 249.059 285.755 263.991 285.755 282.411C285.755 300.83 300.657 315.762 319.04 315.762Z" fill="#2E5A87"/>
<path d="M390.61 315.762C408.993 315.762 423.896 300.83 423.896 282.411C423.896 263.991 408.993 249.059 390.61 249.059C372.227 249.059 357.325 263.991 357.325 282.411C357.325 300.83 372.227 315.762 390.61 315.762Z" fill="#2E5A87"/>
<path d="M462.192 315.762C480.575 315.762 495.478 300.83 495.478 282.411C495.478 263.991 480.575 249.059 462.192 249.059C443.81 249.059 428.907 263.991 428.907 282.411C428.907 300.83 443.81 315.762 462.192 315.762Z" fill="#2E5A87"/>
<path d="M533.774 315.762C552.156 315.762 567.059 300.83 567.059 282.411C567.059 263.991 552.156 249.059 533.774 249.059C515.391 249.059 500.488 263.991 500.488 282.411C500.488 300.83 515.391 315.762 533.774 315.762Z" fill="#2E5A87"/>
<path d="M605.355 315.762C623.738 315.762 638.641 300.83 638.641 282.411C638.641 263.991 623.738 249.059 605.355 249.059C586.973 249.059 572.07 263.991 572.07 282.411C572.07 300.83 586.973 315.762 605.355 315.762Z" fill="#2E5A87"/>
<path d="M140.462 285.084C158.845 285.084 173.747 270.152 173.747 251.733C173.747 233.313 158.845 218.381 140.462 218.381C122.079 218.381 107.177 233.313 107.177 251.733C107.177 270.152 122.079 285.084 140.462 285.084Z" fill="#F5ECD3"/>
<path d="M68.8409 285.084C87.2238 285.084 102.126 270.152 102.126 251.733C102.126 233.313 87.2238 218.381 68.8409 218.381C50.458 218.381 35.5557 233.313 35.5557 251.733C35.5557 270.152 50.458 285.084 68.8409 285.084Z" fill="#F5ECD3"/>
<path d="M-2.78119 285.084C15.6017 285.084 30.504 270.152 30.504 251.733C30.504 233.313 15.6017 218.381 -2.78119 218.381C-21.1641 218.381 -36.0664 233.313 -36.0664 251.733C-36.0664 270.152 -21.1641 285.084 -2.78119 285.084Z" fill="#F5ECD3"/>
<path d="M212.083 285.084C230.466 285.084 245.368 270.152 245.368 251.733C245.368 233.313 230.466 218.381 212.083 218.381C193.7 218.381 178.798 233.313 178.798 251.733C178.798 270.152 193.7 285.084 212.083 285.084Z" fill="#F5ECD3"/>
<path d="M283.704 285.084C302.087 285.084 316.989 270.152 316.989 251.733C316.989 233.313 302.087 218.381 283.704 218.381C265.321 218.381 250.419 233.313 250.419 251.733C250.419 270.152 265.321 285.084 283.704 285.084Z" fill="#F5ECD3"/>
<path d="M355.335 285.084C373.718 285.084 388.62 270.152 388.62 251.733C388.62 233.313 373.718 218.381 355.335 218.381C336.952 218.381 322.05 233.313 322.05 251.733C322.05 270.152 336.952 285.084 355.335 285.084Z" fill="#F5ECD3"/>
<path d="M426.957 285.084C445.34 285.084 460.242 270.152 460.242 251.733C460.242 233.313 445.34 218.381 426.957 218.381C408.574 218.381 393.672 233.313 393.672 251.733C393.672 270.152 408.574 285.084 426.957 285.084Z" fill="#F5ECD3"/>
<path d="M498.578 285.084C516.961 285.084 531.863 270.152 531.863 251.733C531.863 233.313 516.961 218.381 498.578 218.381C480.195 218.381 465.293 233.313 465.293 251.733C465.293 270.152 480.195 285.084 498.578 285.084Z" fill="#F5ECD3"/>
<path d="M570.199 285.084C588.582 285.084 603.484 270.152 603.484 251.733C603.484 233.313 588.582 218.381 570.199 218.381C551.816 218.381 536.914 233.313 536.914 251.733C536.914 270.152 551.816 285.084 570.199 285.084Z" fill="#F5ECD3"/>
<path d="M641.82 285.084C660.203 285.084 675.106 270.152 675.106 251.733C675.106 233.313 660.203 218.381 641.82 218.381C623.437 218.381 608.535 233.313 608.535 251.733C608.535 270.152 623.437 285.084 641.82 285.084Z" fill="#F5ECD3"/>
<path d="M104.296 252.764C122.679 252.764 137.581 237.357 137.581 218.351C137.581 199.346 122.679 183.938 104.296 183.938C85.913 183.938 71.0107 199.346 71.0107 218.351C71.0107 237.357 85.913 252.764 104.296 252.764Z" fill="#2E5A87"/>
<path d="M32.7149 252.764C51.0978 252.764 66.0001 237.357 66.0001 218.351C66.0001 199.346 51.0978 183.938 32.7149 183.938C14.332 183.938 -0.570312 199.346 -0.570312 218.351C-0.570312 237.357 14.332 252.764 32.7149 252.764Z" fill="#2E5A87"/>
<path d="M175.877 252.764C194.26 252.764 209.162 237.357 209.162 218.351C209.162 199.346 194.26 183.938 175.877 183.938C157.494 183.938 142.592 199.346 142.592 218.351C142.592 237.357 157.494 252.764 175.877 252.764Z" fill="#2E5A87"/>
<path d="M247.459 252.764C265.842 252.764 280.744 237.357 280.744 218.351C280.744 199.346 265.842 183.938 247.459 183.938C229.076 183.938 214.174 199.346 214.174 218.351C214.174 237.357 229.076 252.764 247.459 252.764Z" fill="#2E5A87"/>
<path d="M319.04 252.764C337.423 252.764 352.325 237.357 352.325 218.351C352.325 199.346 337.423 183.938 319.04 183.938C300.657 183.938 285.755 199.346 285.755 218.351C285.755 237.357 300.657 252.764 319.04 252.764Z" fill="#2E5A87"/>
<path d="M390.61 252.764C408.993 252.764 423.896 237.357 423.896 218.351C423.896 199.346 408.993 183.938 390.61 183.938C372.227 183.938 357.325 199.346 357.325 218.351C357.325 237.357 372.227 252.764 390.61 252.764Z" fill="#2E5A87"/>
<path d="M462.192 252.764C480.575 252.764 495.478 237.357 495.478 218.351C495.478 199.346 480.575 183.938 462.192 183.938C443.81 183.938 428.907 199.346 428.907 218.351C428.907 237.357 443.81 252.764 462.192 252.764Z" fill="#2E5A87"/>
<path d="M533.774 252.764C552.156 252.764 567.059 237.357 567.059 218.351C567.059 199.346 552.156 183.938 533.774 183.938C515.391 183.938 500.488 199.346 500.488 218.351C500.488 237.357 515.391 252.764 533.774 252.764Z" fill="#2E5A87"/>
<path d="M605.355 252.764C623.738 252.764 638.641 237.357 638.641 218.351C638.641 199.346 623.738 183.938 605.355 183.938C586.973 183.938 572.07 199.346 572.07 218.351C572.07 237.357 586.973 252.764 605.355 252.764Z" fill="#2E5A87"/>
<path d="M140.462 219.002C158.845 219.002 173.747 204.07 173.747 185.651C173.747 167.231 158.845 152.299 140.462 152.299C122.079 152.299 107.177 167.231 107.177 185.651C107.177 204.07 122.079 219.002 140.462 219.002Z" fill="#F5ECD3"/>
<path d="M68.8409 219.002C87.2238 219.002 102.126 204.07 102.126 185.651C102.126 167.231 87.2238 152.299 68.8409 152.299C50.458 152.299 35.5557 167.231 35.5557 185.651C35.5557 204.07 50.458 219.002 68.8409 219.002Z" fill="#F5ECD3"/>
<path d="M-2.78119 219.002C15.6017 219.002 30.504 204.07 30.504 185.651C30.504 167.231 15.6017 152.299 -2.78119 152.299C-21.1641 152.299 -36.0664 167.231 -36.0664 185.651C-36.0664 204.07 -21.1641 219.002 -2.78119 219.002Z" fill="#F5ECD3"/>
<path d="M212.083 219.002C230.466 219.002 245.368 204.07 245.368 185.651C245.368 167.231 230.466 152.299 212.083 152.299C193.7 152.299 178.798 167.231 178.798 185.651C178.798 204.07 193.7 219.002 212.083 219.002Z" fill="#F5ECD3"/>
<path d="M283.704 219.002C302.087 219.002 316.989 204.07 316.989 185.651C316.989 167.231 302.087 152.299 283.704 152.299C265.321 152.299 250.419 167.231 250.419 185.651C250.419 204.07 265.321 219.002 283.704 219.002Z" fill="#F5ECD3"/>
<path d="M355.335 219.002C373.718 219.002 388.62 204.07 388.62 185.651C388.62 167.231 373.718 152.299 355.335 152.299C336.952 152.299 322.05 167.231 322.05 185.651C322.05 204.07 336.952 219.002 355.335 219.002Z" fill="#F5ECD3"/>
<path d="M426.957 219.002C445.34 219.002 460.242 204.07 460.242 185.651C460.242 167.231 445.34 152.299 426.957 152.299C408.574 152.299 393.672 167.231 393.672 185.651C393.672 204.07 408.574 219.002 426.957 219.002Z" fill="#F5ECD3"/>
<path d="M498.578 219.002C516.961 219.002 531.863 204.07 531.863 185.651C531.863 167.231 516.961 152.299 498.578 152.299C480.195 152.299 465.293 167.231 465.293 185.651C465.293 204.07 480.195 219.002 498.578 219.002Z" fill="#F5ECD3"/>
<path d="M570.199 219.002C588.582 219.002 603.484 204.07 603.484 185.651C603.484 167.231 588.582 152.299 570.199 152.299C551.816 152.299 536.914 167.231 536.914 185.651C536.914 204.07 551.816 219.002 570.199 219.002Z" fill="#F5ECD3"/>
<path d="M641.82 219.002C660.203 219.002 675.106 204.07 675.106 185.651C675.106 167.231 660.203 152.299 641.82 152.299C623.437 152.299 608.535 167.231 608.535 185.651C608.535 204.07 623.437 219.002 641.82 219.002Z" fill="#F5ECD3"/>
<path d="M104.945 185.891C123.328 185.891 138.231 170.358 138.231 151.198C138.231 132.037 123.328 116.505 104.945 116.505C86.5625 116.505 71.6602 132.037 71.6602 151.198C71.6602 170.358 86.5625 185.891 104.945 185.891Z" fill="#2E5A87"/>
<path d="M33.585 185.891C51.9679 185.891 66.8702 170.358 66.8702 151.198C66.8702 132.037 51.9679 116.505 33.585 116.505C15.2021 116.505 0.299805 132.037 0.299805 151.198C0.299805 170.358 15.2021 185.891 33.585 185.891Z" fill="#2E5A87"/>
<path d="M176.308 185.891C194.691 185.891 209.593 170.358 209.593 151.198C209.593 132.037 194.691 116.505 176.308 116.505C157.925 116.505 143.022 132.037 143.022 151.198C143.022 170.358 157.925 185.891 176.308 185.891Z" fill="#2E5A87"/>
<path d="M247.668 185.891C266.051 185.891 280.953 170.358 280.953 151.198C280.953 132.037 266.051 116.505 247.668 116.505C229.285 116.505 214.383 132.037 214.383 151.198C214.383 170.358 229.285 185.891 247.668 185.891Z" fill="#2E5A87"/>
<path d="M319.04 185.891C337.423 185.891 352.325 170.358 352.325 151.198C352.325 132.037 337.423 116.505 319.04 116.505C300.657 116.505 285.755 132.037 285.755 151.198C285.755 170.358 300.657 185.891 319.04 185.891Z" fill="#2E5A87"/>
<path d="M390.4 185.891C408.783 185.891 423.686 170.358 423.686 151.198C423.686 132.037 408.783 116.505 390.4 116.505C372.018 116.505 357.115 132.037 357.115 151.198C357.115 170.358 372.018 185.891 390.4 185.891Z" fill="#2E5A87"/>
<path d="M461.762 185.891C480.145 185.891 495.047 170.358 495.047 151.198C495.047 132.037 480.145 116.505 461.762 116.505C443.379 116.505 428.477 132.037 428.477 151.198C428.477 170.358 443.379 185.891 461.762 185.891Z" fill="#2E5A87"/>
<path d="M533.123 185.891C551.506 185.891 566.408 170.358 566.408 151.198C566.408 132.037 551.506 116.505 533.123 116.505C514.74 116.505 499.838 132.037 499.838 151.198C499.838 170.358 514.74 185.891 533.123 185.891Z" fill="#2E5A87"/>
<path d="M604.484 185.891C622.867 185.891 637.77 170.358 637.77 151.198C637.77 132.037 622.867 116.505 604.484 116.505C586.101 116.505 571.199 132.037 571.199 151.198C571.199 170.358 586.101 185.891 604.484 185.891Z" fill="#2E5A87"/>
<path d="M140.462 153.721C158.845 153.721 173.747 138.457 173.747 119.629C173.747 100.8 158.845 85.5362 140.462 85.5362C122.079 85.5362 107.177 100.8 107.177 119.629C107.177 138.457 122.079 153.721 140.462 153.721Z" fill="#F5ECD3"/>
<path d="M68.8409 153.721C87.2238 153.721 102.126 138.457 102.126 119.629C102.126 100.8 87.2238 85.5362 68.8409 85.5362C50.458 85.5362 35.5557 100.8 35.5557 119.629C35.5557 138.457 50.458 153.721 68.8409 153.721Z" fill="#F5ECD3"/>
<path d="M-2.78119 153.721C15.6017 153.721 30.504 138.457 30.504 119.629C30.504 100.8 15.6017 85.5362 -2.78119 85.5362C-21.1641 85.5362 -36.0664 100.8 -36.0664 119.629C-36.0664 138.457 -21.1641 153.721 -2.78119 153.721Z" fill="#F5ECD3"/>
<path d="M212.083 153.721C230.466 153.721 245.368 138.457 245.368 119.629C245.368 100.8 230.466 85.5362 212.083 85.5362C193.7 85.5362 178.798 100.8 178.798 119.629C178.798 138.457 193.7 153.721 212.083 153.721Z" fill="#F5ECD3"/>
<path d="M283.704 153.721C302.087 153.721 316.989 138.457 316.989 119.629C316.989 100.8 302.087 85.5362 283.704 85.5362C265.321 85.5362 250.419 100.8 250.419 119.629C250.419 138.457 265.321 153.721 283.704 153.721Z" fill="#F5ECD3"/>
<path d="M355.335 153.721C373.718 153.721 388.62 138.457 388.62 119.629C388.62 100.8 373.718 85.5362 355.335 85.5362C336.952 85.5362 322.05 100.8 322.05 119.629C322.05 138.457 336.952 153.721 355.335 153.721Z" fill="#F5ECD3"/>
<path d="M426.957 153.721C445.34 153.721 460.242 138.457 460.242 119.629C460.242 100.8 445.34 85.5362 426.957 85.5362C408.574 85.5362 393.672 100.8 393.672 119.629C393.672 138.457 408.574 153.721 426.957 153.721Z" fill="#F5ECD3"/>
<path d="M498.578 153.721C516.961 153.721 531.863 138.457 531.863 119.629C531.863 100.8 516.961 85.5362 498.578 85.5362C480.195 85.5362 465.293 100.8 465.293 119.629C465.293 138.457 480.195 153.721 498.578 153.721Z" fill="#F5ECD3"/>
<path d="M570.199 153.721C588.582 153.721 603.484 138.457 603.484 119.629C603.484 100.8 588.582 85.5362 570.199 85.5362C551.816 85.5362 536.914 100.8 536.914 119.629C536.914 138.457 551.816 153.721 570.199 153.721Z" fill="#F5ECD3"/>
<path d="M641.82 153.721C660.203 153.721 675.106 138.457 675.106 119.629C675.106 100.8 660.203 85.5362 641.82 85.5362C623.437 85.5362 608.535 100.8 608.535 119.629C608.535 138.457 623.437 153.721 641.82 153.721Z" fill="#F5ECD3"/>
<path d="M103.276 118.047C121.659 118.047 136.562 102.702 136.562 83.774C136.562 64.8457 121.659 49.5014 103.276 49.5014C84.8935 49.5014 69.9912 64.8457 69.9912 83.774C69.9912 102.702 84.8935 118.047 103.276 118.047Z" fill="#2E5A87"/>
<path d="M31.3546 118.047C49.7375 118.047 64.6398 102.702 64.6398 83.774C64.6398 64.8457 49.7375 49.5014 31.3546 49.5014C12.9716 49.5014 -1.93066 64.8457 -1.93066 83.774C-1.93066 102.702 12.9716 118.047 31.3546 118.047Z" fill="#2E5A87"/>
<path d="M175.197 118.047C193.58 118.047 208.483 102.702 208.483 83.774C208.483 64.8457 193.58 49.5014 175.197 49.5014C156.814 49.5014 141.912 64.8457 141.912 83.774C141.912 102.702 156.814 118.047 175.197 118.047Z" fill="#2E5A87"/>
<path d="M247.118 118.047C265.501 118.047 280.403 102.702 280.403 83.774C280.403 64.8457 265.501 49.5014 247.118 49.5014C228.735 49.5014 213.833 64.8457 213.833 83.774C213.833 102.702 228.735 118.047 247.118 118.047Z" fill="#2E5A87"/>
<path d="M319.04 118.047C337.423 118.047 352.325 102.702 352.325 83.774C352.325 64.8457 337.423 49.5014 319.04 49.5014C300.657 49.5014 285.755 64.8457 285.755 83.774C285.755 102.702 300.657 118.047 319.04 118.047Z" fill="#2E5A87"/>
<path d="M390.95 118.047C409.333 118.047 424.235 102.702 424.235 83.774C424.235 64.8457 409.333 49.5014 390.95 49.5014C372.567 49.5014 357.665 64.8457 357.665 83.774C357.665 102.702 372.567 118.047 390.95 118.047Z" fill="#2E5A87"/>
<path d="M462.872 118.047C481.255 118.047 496.157 102.702 496.157 83.774C496.157 64.8457 481.255 49.5014 462.872 49.5014C444.489 49.5014 429.587 64.8457 429.587 83.774C429.587 102.702 444.489 118.047 462.872 118.047Z" fill="#2E5A87"/>
<path d="M534.794 118.047C553.177 118.047 568.079 102.702 568.079 83.774C568.079 64.8457 553.177 49.5014 534.794 49.5014C516.411 49.5014 501.509 64.8457 501.509 83.774C501.509 102.702 516.411 118.047 534.794 118.047Z" fill="#2E5A87"/>
<path d="M606.715 118.047C625.098 118.047 640 102.702 640 83.774C640 64.8457 625.098 49.5014 606.715 49.5014C588.332 49.5014 573.43 64.8457 573.43 83.774C573.43 102.702 588.332 118.047 606.715 118.047Z" fill="#2E5A87"/>
<path d="M140.462 85.5261C158.845 85.5261 173.747 70.5942 173.747 52.1747C173.747 33.7552 158.845 18.8232 140.462 18.8232C122.079 18.8232 107.177 33.7552 107.177 52.1747C107.177 70.5942 122.079 85.5261 140.462 85.5261Z" fill="#F5ECD3"/>
<path d="M68.8409 85.5261C87.2238 85.5261 102.126 70.5942 102.126 52.1747C102.126 33.7552 87.2238 18.8232 68.8409 18.8232C50.458 18.8232 35.5557 33.7552 35.5557 52.1747C35.5557 70.5942 50.458 85.5261 68.8409 85.5261Z" fill="#F5ECD3"/>
<path d="M-2.78119 85.5261C15.6017 85.5261 30.504 70.5942 30.504 52.1747C30.504 33.7552 15.6017 18.8232 -2.78119 18.8232C-21.1641 18.8232 -36.0664 33.7552 -36.0664 52.1747C-36.0664 70.5942 -21.1641 85.5261 -2.78119 85.5261Z" fill="#F5ECD3"/>
<path d="M212.083 85.5261C230.466 85.5261 245.368 70.5942 245.368 52.1747C245.368 33.7552 230.466 18.8232 212.083 18.8232C193.7 18.8232 178.798 33.7552 178.798 52.1747C178.798 70.5942 193.7 85.5261 212.083 85.5261Z" fill="#F5ECD3"/>
<path d="M283.704 85.5261C302.087 85.5261 316.989 70.5942 316.989 52.1747C316.989 33.7552 302.087 18.8232 283.704 18.8232C265.321 18.8232 250.419 33.7552 250.419 52.1747C250.419 70.5942 265.321 85.5261 283.704 85.5261Z" fill="#F5ECD3"/>
<path d="M355.335 85.5261C373.718 85.5261 388.62 70.5942 388.62 52.1747C388.62 33.7552 373.718 18.8232 355.335 18.8232C336.952 18.8232 322.05 33.7552 322.05 52.1747C322.05 70.5942 336.952 85.5261 355.335 85.5261Z" fill="#F5ECD3"/>
<path d="M426.957 85.5261C445.34 85.5261 460.242 70.5942 460.242 52.1747C460.242 33.7552 445.34 18.8232 426.957 18.8232C408.574 18.8232 393.672 33.7552 393.672 52.1747C393.672 70.5942 408.574 85.5261 426.957 85.5261Z" fill="#F5ECD3"/>
<path d="M498.578 85.5261C516.961 85.5261 531.863 70.5942 531.863 52.1747C531.863 33.7552 516.961 18.8232 498.578 18.8232C480.195 18.8232 465.293 33.7552 465.293 52.1747C465.293 70.5942 480.195 85.5261 498.578 85.5261Z" fill="#F5ECD3"/>
<path d="M570.199 85.5261C588.582 85.5261 603.484 70.5942 603.484 52.1747C603.484 33.7552 588.582 18.8232 570.199 18.8232C551.816 18.8232 536.914 33.7552 536.914 52.1747C536.914 70.5942 551.816 85.5261 570.199 85.5261Z" fill="#F5ECD3"/>
<path d="M641.82 85.5261C660.203 85.5261 675.106 70.5942 675.106 52.1747C675.106 33.7552 660.203 18.8232 641.82 18.8232C623.437 18.8232 608.535 33.7552 608.535 52.1747C608.535 70.5942 623.437 85.5261 641.82 85.5261Z" fill="#F5ECD3"/>
<path d="M104.276 51.0933C122.659 51.0933 137.562 35.8028 137.562 16.9409C137.562 -1.92094 122.659 -17.2115 104.276 -17.2115C85.8935 -17.2115 70.9912 -1.92094 70.9912 16.9409C70.9912 35.8028 85.8935 51.0933 104.276 51.0933Z" fill="#2E5A87"/>
<path d="M32.6954 51.0933C51.0783 51.0933 65.9806 35.8028 65.9806 16.9409C65.9806 -1.92094 51.0783 -17.2115 32.6954 -17.2115C14.3125 -17.2115 -0.589844 -1.92094 -0.589844 16.9409C-0.589844 35.8028 14.3125 51.0933 32.6954 51.0933Z" fill="#2E5A87"/>
<path d="M175.867 51.0933C194.25 51.0933 209.152 35.8028 209.152 16.9409C209.152 -1.92094 194.25 -17.2115 175.867 -17.2115C157.484 -17.2115 142.582 -1.92094 142.582 16.9409C142.582 35.8028 157.484 51.0933 175.867 51.0933Z" fill="#2E5A87"/>
<path d="M247.448 51.0933C265.831 51.0933 280.734 35.8028 280.734 16.9409C280.734 -1.92094 265.831 -17.2115 247.448 -17.2115C229.065 -17.2115 214.163 -1.92094 214.163 16.9409C214.163 35.8028 229.065 51.0933 247.448 51.0933Z" fill="#2E5A87"/>
<path d="M319.04 51.0933C337.423 51.0933 352.325 35.8028 352.325 16.9409C352.325 -1.92094 337.423 -17.2115 319.04 -17.2115C300.657 -17.2115 285.755 -1.92094 285.755 16.9409C285.755 35.8028 300.657 51.0933 319.04 51.0933Z" fill="#2E5A87"/>
<path d="M390.62 51.0933C409.003 51.0933 423.905 35.8028 423.905 16.9409C423.905 -1.92094 409.003 -17.2115 390.62 -17.2115C372.237 -17.2115 357.335 -1.92094 357.335 16.9409C357.335 35.8028 372.237 51.0933 390.62 51.0933Z" fill="#2E5A87"/>
<path d="M462.202 51.0933C480.585 51.0933 495.487 35.8028 495.487 16.9409C495.487 -1.92094 480.585 -17.2115 462.202 -17.2115C443.819 -17.2115 428.917 -1.92094 428.917 16.9409C428.917 35.8028 443.819 51.0933 462.202 51.0933Z" fill="#2E5A87"/>
<path d="M533.794 51.0933C552.177 51.0933 567.079 35.8028 567.079 16.9409C567.079 -1.92094 552.177 -17.2115 533.794 -17.2115C515.411 -17.2115 500.509 -1.92094 500.509 16.9409C500.509 35.8028 515.411 51.0933 533.794 51.0933Z" fill="#2E5A87"/>
<path d="M605.374 51.0933C623.757 51.0933 638.659 35.8028 638.659 16.9409C638.659 -1.92094 623.757 -17.2115 605.374 -17.2115C586.991 -17.2115 572.089 -1.92094 572.089 16.9409C572.089 35.8028 586.991 51.0933 605.374 51.0933Z" fill="#2E5A87"/>
<path d="M101.776 -17.3816C101.776 3.27407 85.6732 20.0148 65.8201 20.0148C45.967 20.0148 29.8145 3.27407 29.8145 -17.3816H101.776Z" fill="#F5ECD3"/>
<path d="M29.8742 -17.2115C29.8742 3.44418 13.7816 20.1749 -6.08147 20.1749C-25.9446 20.1749 -42.0371 3.44418 -42.0371 -17.2115H29.8742Z" fill="#F5ECD3"/>
<path d="M173.717 -17.2115C173.717 3.44418 157.615 20.1749 137.712 20.1749C117.809 20.1749 101.706 3.44418 101.706 -17.2115H173.717Z" fill="#F5ECD3"/>
<path d="M245.638 -17.2115C245.638 3.44418 229.536 20.1749 209.632 20.1749C189.729 20.1749 173.677 3.44418 173.677 -17.2115H245.638Z" fill="#F5ECD3"/>
<path d="M317.589 -17.2115C317.589 3.44418 301.487 20.1749 281.584 20.1749C261.68 20.1749 245.628 3.44418 245.628 -17.2115H317.589Z" fill="#F5ECD3"/>
<path d="M389.471 -17.2115C389.471 3.44418 373.379 20.1749 353.515 20.1749C333.652 20.1749 317.59 3.44418 317.59 -17.2115H389.471Z" fill="#F5ECD3"/>
<path d="M461.392 -17.2115C461.392 3.44418 445.289 20.1749 425.436 20.1749C405.583 20.1749 389.431 3.44418 389.431 -17.2115H461.392Z" fill="#F5ECD3"/>
<path d="M533.313 -17.2115C533.313 3.44418 517.211 20.1749 497.307 20.1749C477.404 20.1749 461.302 3.44418 461.302 -17.2115H533.313Z" fill="#F5ECD3"/>
<path d="M605.235 -17.2115C605.235 3.44418 589.132 20.1749 569.229 20.1749C549.326 20.1749 533.273 3.44418 533.273 -17.2115H605.235Z" fill="#F5ECD3"/>
<path d="M677.157 -17.2115C677.157 3.44418 661.054 20.1749 641.151 20.1749C621.248 20.1749 605.195 3.44418 605.195 -17.2115H677.157Z" fill="#F5ECD3"/>
</g>
</svg>
