<svg width="141" height="100" viewBox="0 0 141 100" fill="none" xmlns="http://www.w3.org/2000/svg">
<g clip-path="url(#clip0_114_928)">
<path d="M141 0H0V100H141V0Z" fill="#2E5A87"/>
<path d="M58.1922 100C57.1158 99.965 56.0465 99.965 54.9702 99.965C37.2316 99.965 19.493 99.972 1.74745 99.972C1.16735 99.972 0.580256 99.951 0.000153256 99.9369C0.000153256 96.5455 0.000153256 93.154 0.000153256 89.7625C5.36785 90.5403 10.7286 91.3181 16.0963 92.0889C31.794 94.3382 47.4987 96.5875 63.1964 98.8368C65.0346 99.1031 66.8867 99.3483 68.7249 99.6076C68.655 99.4184 68.5292 99.3553 68.3894 99.3133C52.5659 94.5624 36.7354 89.8185 20.9188 85.0676C13.9366 82.9725 6.96838 80.8563 -0.00683594 78.7541C0.000153256 74.6899 0.000153256 70.6328 0.000153256 66.5686C4.11679 68.5096 8.22643 70.4506 12.3431 72.3916C30.2564 80.8493 48.1697 89.314 66.083 97.7717C67.1034 98.2552 68.1308 98.7317 69.1512 99.2152C69.2002 99.1732 69.2421 99.1381 69.291 99.0961C54.2293 88.4171 39.1606 77.7451 24.0989 67.0661C24.1688 67.017 24.2317 66.975 24.3016 66.9259C35.1838 72.0763 46.0729 77.2196 56.9551 82.3699C55.4524 81.1856 53.8589 80.0855 52.2304 78.9994C37.595 69.3224 22.9597 59.6314 8.3103 49.9475C5.56355 48.1326 2.77486 46.3458 0.000153256 44.5519C0.000153256 40.8241 0.000153256 37.1032 0.000153256 33.3754C0.20284 33.5085 0.440472 33.6206 0.608213 33.7678C3.70443 36.3885 6.80064 39.0022 9.88287 41.6299C25.1193 54.6003 40.3558 67.5706 55.5992 80.541C56.3121 81.1506 57.0599 81.7462 57.7868 82.3418C57.7728 81.9915 57.5981 81.7112 57.4094 81.4379C47.5406 67.4655 37.6649 53.4931 27.8032 39.5207C20.9747 29.8438 14.1742 20.1598 7.3458 10.4828C4.92055 7.04227 2.45336 3.44056 0.00714245 0.00702057H1.12541C17.9135 1.33517e-05 34.7085 0.00702057 51.5035 0.00702057C51.5524 0.504533 51.5594 1.00205 51.6573 1.49255C52.5309 6.06826 53.4186 10.637 54.2922 15.2127C55.732 22.7314 57.1718 30.2572 58.6185 37.7829C60.0164 45.0564 61.4212 52.3299 62.826 59.6034C63.9513 65.4194 65.0835 71.2284 66.1948 77.0444C67.3271 82.9444 68.4313 88.8375 69.5566 94.7376C69.8222 96.125 70.1157 97.5054 70.4303 99.0751C70.605 98.8228 70.6819 98.7597 70.6958 98.6897C71.1921 96.1601 71.6953 93.6234 72.1776 91.0868C73.6383 83.456 75.0781 75.8181 76.5458 68.1872C77.9996 60.6124 79.4743 53.0306 80.935 45.4558C82.3398 38.1823 83.7447 30.9089 85.1355 23.6354C86.2538 17.7913 87.3581 11.9543 88.4833 6.11031C88.8747 4.07121 89.329 2.03911 89.7554 0.00702057C106.501 0.00702057 123.185 1.33517e-05 139.938 0.00702057H141.014C139.973 1.45751 138.903 3.07618 137.876 4.52668C120.557 29.08 103.238 53.6333 85.9253 78.1936C84.9678 79.553 84.0103 80.9194 83.0458 82.2788C83.507 82.1386 83.7726 81.9354 84.0312 81.7182C87.9592 78.3687 91.8731 75.0193 95.808 71.6768C108.507 60.8787 121.214 50.0876 133.927 39.2965C136.268 37.3134 138.645 35.3514 141.007 33.3754C141.007 37.1032 141.007 40.8241 141.007 44.5519C140.756 44.692 140.483 44.8252 140.245 44.9793C135.059 48.3989 129.88 51.8184 124.701 55.2449C111.569 63.9339 98.4429 72.6298 85.3102 81.3118C84.828 81.6271 84.2898 81.9074 83.7796 82.2017C83.8705 82.2647 83.9613 82.3278 84.0452 82.3909C94.9344 77.2406 105.824 72.0903 116.713 66.94C116.734 67.1782 116.615 67.2903 116.475 67.3884C110.996 71.2774 105.523 75.1664 100.036 79.0484C90.6989 85.6632 81.3474 92.2711 72.0238 98.8929C71.8421 99.019 71.8351 99.2572 71.7442 99.4464L71.7233 99.4324C72.1566 99.4605 72.6109 99.5656 73.0163 99.5095C76.1963 99.0751 79.3694 98.6126 82.5425 98.1571C95.5634 96.2932 108.584 94.4293 121.605 92.5654C128.07 91.6404 134.535 90.6944 141 89.7625C141 93.154 141 96.5455 141 99.9369C140.504 99.951 140.001 99.972 139.504 99.972C125.47 99.972 111.443 99.972 97.4085 99.972C92.4881 99.972 87.5608 99.972 83.8425 99.972" fill="#131915"/>
</g>
<defs>
<clipPath id="clip0_114_928">
<rect width="141" height="100" fill="white"/>
</clipPath>
</defs>
</svg>
