<svg width="141" height="100" viewBox="0 0 141 100" fill="none" xmlns="http://www.w3.org/2000/svg">
<g clip-path="url(#clip0_114_941)">
<path d="M141 0.00708008H0.0488281V100H141V0.00708008Z" fill="#469B70"/>
<path d="M141 91.3538H140.057V95.7119H141V91.3538Z" fill="#0C0B0B"/>
<path d="M131.694 91.2346H129.542V95.5928H131.694V91.2346Z" fill="#0C0B0B"/>
<path d="M120.766 91.2346H118.286V95.5928H120.766V91.2346Z" fill="#0C0B0B"/>
<path d="M109.839 91.2346H107.031V95.5928H109.839V91.2346Z" fill="#0C0B0B"/>
<path d="M98.9188 91.2346H95.7817V95.5928H98.9188V91.2346Z" fill="#0C0B0B"/>
<path d="M87.9918 91.2346H84.5264V95.5928H87.9918V91.2346Z" fill="#0C0B0B"/>
<path d="M77.0573 91.2346H73.2705V95.5928H77.0573V91.2346Z" fill="#0C0B0B"/>
<path d="M66.1372 91.2346H62.022V95.5928H66.1372V91.2346Z" fill="#0C0B0B"/>
<path d="M55.2097 91.2346H50.7661V95.5928H55.2097V91.2346Z" fill="#0C0B0B"/>
<path d="M44.2822 91.2346H39.5103V95.5928H44.2822V91.2346Z" fill="#0C0B0B"/>
<path d="M33.3621 91.2346H28.2617V95.5928H33.3621V91.2346Z" fill="#0C0B0B"/>
<path d="M22.4346 91.2346H17.0059V95.5928H22.4346V91.2346Z" fill="#0C0B0B"/>
<path d="M11.5144 91.2346H5.75732V95.5928H11.5144V91.2346Z" fill="#0C0B0B"/>
<path d="M137.178 86.9465H135.026V91.3047H137.178V86.9465Z" fill="#0C0B0B"/>
<path d="M126.251 86.9465H123.771V91.3047H126.251V86.9465Z" fill="#0C0B0B"/>
<path d="M115.331 86.9465H112.522V91.3047H115.331V86.9465Z" fill="#0C0B0B"/>
<path d="M104.403 86.9465H101.266V91.3047H104.403V86.9465Z" fill="#0C0B0B"/>
<path d="M93.4762 86.9465H90.0107V91.3047H93.4762V86.9465Z" fill="#0C0B0B"/>
<path d="M82.5485 86.9465H78.7617V91.3047H82.5485V86.9465Z" fill="#0C0B0B"/>
<path d="M71.6216 86.9465H67.5063V91.3047H71.6216V86.9465Z" fill="#0C0B0B"/>
<path d="M60.6941 86.9465H56.2505V91.3047H60.6941V86.9465Z" fill="#0C0B0B"/>
<path d="M49.7739 86.9465H45.002V91.3047H49.7739V86.9465Z" fill="#0C0B0B"/>
<path d="M38.8464 86.9465H33.7461V91.3047H38.8464V86.9465Z" fill="#0C0B0B"/>
<path d="M27.919 86.9465H22.4902V91.3047H27.919V86.9465Z" fill="#0C0B0B"/>
<path d="M16.9988 86.9465H11.2417V91.3047H16.9988V86.9465Z" fill="#0C0B0B"/>
<path d="M5.7571 86.9465H0V91.3047H5.7571V86.9465Z" fill="#0C0B0B"/>
<path d="M141 82.6584H140.057V87.0166H141V82.6584Z" fill="#0C0B0B"/>
<path d="M131.694 82.5393H129.542V86.8975H131.694V82.5393Z" fill="#0C0B0B"/>
<path d="M120.766 82.5393H118.286V86.8975H120.766V82.5393Z" fill="#0C0B0B"/>
<path d="M109.839 82.5393H107.031V86.8975H109.839V82.5393Z" fill="#0C0B0B"/>
<path d="M98.9188 82.5393H95.7817V86.8975H98.9188V82.5393Z" fill="#0C0B0B"/>
<path d="M87.9918 82.5393H84.5264V86.8975H87.9918V82.5393Z" fill="#0C0B0B"/>
<path d="M77.0573 82.5393H73.2705V86.8975H77.0573V82.5393Z" fill="#0C0B0B"/>
<path d="M66.1372 82.5393H62.022V86.8975H66.1372V82.5393Z" fill="#0C0B0B"/>
<path d="M55.2097 82.5393H50.7661V86.8975H55.2097V82.5393Z" fill="#0C0B0B"/>
<path d="M44.2822 82.5393H39.5103V86.8975H44.2822V82.5393Z" fill="#0C0B0B"/>
<path d="M33.3621 82.5393H28.2617V86.8975H33.3621V82.5393Z" fill="#0C0B0B"/>
<path d="M22.4346 82.5393H17.0059V86.8975H22.4346V82.5393Z" fill="#0C0B0B"/>
<path d="M11.5144 82.5393H5.75732V86.8975H11.5144V82.5393Z" fill="#0C0B0B"/>
<path d="M137.178 78.2512H135.026V82.6094H137.178V78.2512Z" fill="#0C0B0B"/>
<path d="M126.251 78.2512H123.771V82.6094H126.251V78.2512Z" fill="#0C0B0B"/>
<path d="M115.331 78.2512H112.522V82.6094H115.331V78.2512Z" fill="#0C0B0B"/>
<path d="M104.403 78.2512H101.266V82.6094H104.403V78.2512Z" fill="#0C0B0B"/>
<path d="M93.4762 78.2512H90.0107V82.6094H93.4762V78.2512Z" fill="#0C0B0B"/>
<path d="M82.5485 78.2512H78.7617V82.6094H82.5485V78.2512Z" fill="#0C0B0B"/>
<path d="M71.6216 78.2512H67.5063V82.6094H71.6216V78.2512Z" fill="#0C0B0B"/>
<path d="M60.6941 78.2512H56.2505V82.6094H60.6941V78.2512Z" fill="#0C0B0B"/>
<path d="M49.7739 78.2512H45.002V82.6094H49.7739V78.2512Z" fill="#0C0B0B"/>
<path d="M38.8464 78.2512H33.7461V82.6094H38.8464V78.2512Z" fill="#0C0B0B"/>
<path d="M27.919 78.2512H22.4902V82.6094H27.919V78.2512Z" fill="#0C0B0B"/>
<path d="M16.9988 78.2512H11.2417V82.6094H16.9988V78.2512Z" fill="#0C0B0B"/>
<path d="M5.7571 78.2512H0V82.6094H5.7571V78.2512Z" fill="#0C0B0B"/>
<path d="M141 73.9702H140.057V78.3284H141V73.9702Z" fill="#0C0B0B"/>
<path d="M131.694 73.844H129.542V78.2022H131.694V73.844Z" fill="#0C0B0B"/>
<path d="M120.766 73.844H118.286V78.2022H120.766V73.844Z" fill="#0C0B0B"/>
<path d="M109.839 73.844H107.031V78.2022H109.839V73.844Z" fill="#0C0B0B"/>
<path d="M98.9188 73.844H95.7817V78.2022H98.9188V73.844Z" fill="#0C0B0B"/>
<path d="M87.9918 73.844H84.5264V78.2022H87.9918V73.844Z" fill="#0C0B0B"/>
<path d="M77.0573 73.844H73.2705V78.2022H77.0573V73.844Z" fill="#0C0B0B"/>
<path d="M66.1372 73.844H62.022V78.2022H66.1372V73.844Z" fill="#0C0B0B"/>
<path d="M55.2097 73.844H50.7661V78.2022H55.2097V73.844Z" fill="#0C0B0B"/>
<path d="M44.2822 73.844H39.5103V78.2022H44.2822V73.844Z" fill="#0C0B0B"/>
<path d="M33.3621 73.844H28.2617V78.2022H33.3621V73.844Z" fill="#0C0B0B"/>
<path d="M22.4346 73.844H17.0059V78.2022H22.4346V73.844Z" fill="#0C0B0B"/>
<path d="M11.5144 73.844H5.75732V78.2022H11.5144V73.844Z" fill="#0C0B0B"/>
<path d="M137.178 69.5557H135.026V73.9138H137.178V69.5557Z" fill="#0C0B0B"/>
<path d="M126.251 69.5557H123.771V73.9138H126.251V69.5557Z" fill="#0C0B0B"/>
<path d="M115.331 69.5557H112.522V73.9138H115.331V69.5557Z" fill="#0C0B0B"/>
<path d="M104.403 69.5557H101.266V73.9138H104.403V69.5557Z" fill="#0C0B0B"/>
<path d="M93.4762 69.5557H90.0107V73.9138H93.4762V69.5557Z" fill="#0C0B0B"/>
<path d="M82.5485 69.5557H78.7617V73.9138H82.5485V69.5557Z" fill="#0C0B0B"/>
<path d="M71.6216 69.5557H67.5063V73.9138H71.6216V69.5557Z" fill="#0C0B0B"/>
<path d="M60.6941 69.5557H56.2505V73.9138H60.6941V69.5557Z" fill="#0C0B0B"/>
<path d="M49.7739 69.5557H45.002V73.9138H49.7739V69.5557Z" fill="#0C0B0B"/>
<path d="M38.8464 69.5557H33.7461V73.9138H38.8464V69.5557Z" fill="#0C0B0B"/>
<path d="M27.919 69.5557H22.4902V73.9138H27.919V69.5557Z" fill="#0C0B0B"/>
<path d="M16.9988 69.5557H11.2417V73.9138H16.9988V69.5557Z" fill="#0C0B0B"/>
<path d="M5.7571 69.5557H0V73.9138H5.7571V69.5557Z" fill="#0C0B0B"/>
<path d="M141 65.2747H140.057V69.6328H141V65.2747Z" fill="#0C0B0B"/>
<path d="M131.694 65.1484H129.542V69.5066H131.694V65.1484Z" fill="#0C0B0B"/>
<path d="M120.766 65.1484H118.286V69.5066H120.766V65.1484Z" fill="#0C0B0B"/>
<path d="M109.839 65.1484H107.031V69.5066H109.839V65.1484Z" fill="#0C0B0B"/>
<path d="M98.9188 65.1484H95.7817V69.5066H98.9188V65.1484Z" fill="#0C0B0B"/>
<path d="M87.9918 65.1484H84.5264V69.5066H87.9918V65.1484Z" fill="#0C0B0B"/>
<path d="M77.0573 65.1484H73.2705V69.5066H77.0573V65.1484Z" fill="#0C0B0B"/>
<path d="M66.1372 65.1484H62.022V69.5066H66.1372V65.1484Z" fill="#0C0B0B"/>
<path d="M55.2097 65.1484H50.7661V69.5066H55.2097V65.1484Z" fill="#0C0B0B"/>
<path d="M44.2822 65.1484H39.5103V69.5066H44.2822V65.1484Z" fill="#0C0B0B"/>
<path d="M33.3621 65.1484H28.2617V69.5066H33.3621V65.1484Z" fill="#0C0B0B"/>
<path d="M22.4346 65.1484H17.0059V69.5066H22.4346V65.1484Z" fill="#0C0B0B"/>
<path d="M11.5144 65.1484H5.75732V69.5066H11.5144V65.1484Z" fill="#0C0B0B"/>
<path d="M137.178 60.8604H135.026V65.2185H137.178V60.8604Z" fill="#0C0B0B"/>
<path d="M126.251 60.8604H123.771V65.2185H126.251V60.8604Z" fill="#0C0B0B"/>
<path d="M115.331 60.8604H112.522V65.2185H115.331V60.8604Z" fill="#0C0B0B"/>
<path d="M104.403 60.8604H101.266V65.2185H104.403V60.8604Z" fill="#0C0B0B"/>
<path d="M93.4762 60.8604H90.0107V65.2185H93.4762V60.8604Z" fill="#0C0B0B"/>
<path d="M82.5485 60.8604H78.7617V65.2185H82.5485V60.8604Z" fill="#0C0B0B"/>
<path d="M71.6216 60.8604H67.5063V65.2185H71.6216V60.8604Z" fill="#0C0B0B"/>
<path d="M60.6941 60.8604H56.2505V65.2185H60.6941V60.8604Z" fill="#0C0B0B"/>
<path d="M49.7739 60.8604H45.002V65.2185H49.7739V60.8604Z" fill="#0C0B0B"/>
<path d="M38.8464 60.8604H33.7461V65.2185H38.8464V60.8604Z" fill="#0C0B0B"/>
<path d="M27.919 60.8604H22.4902V65.2185H27.919V60.8604Z" fill="#0C0B0B"/>
<path d="M16.9988 60.8604H11.2417V65.2185H16.9988V60.8604Z" fill="#0C0B0B"/>
<path d="M5.7571 60.8604H0V65.2185H5.7571V60.8604Z" fill="#0C0B0B"/>
<path d="M141 56.5793H140.057V60.9375H141V56.5793Z" fill="#0C0B0B"/>
<path d="M131.694 56.4531H129.542V60.8113H131.694V56.4531Z" fill="#0C0B0B"/>
<path d="M120.766 56.4531H118.286V60.8113H120.766V56.4531Z" fill="#0C0B0B"/>
<path d="M109.839 56.4531H107.031V60.8113H109.839V56.4531Z" fill="#0C0B0B"/>
<path d="M98.9188 56.4531H95.7817V60.8113H98.9188V56.4531Z" fill="#0C0B0B"/>
<path d="M87.9918 56.4531H84.5264V60.8113H87.9918V56.4531Z" fill="#0C0B0B"/>
<path d="M77.0573 56.4531H73.2705V60.8113H77.0573V56.4531Z" fill="#0C0B0B"/>
<path d="M66.1372 56.4531H62.022V60.8113H66.1372V56.4531Z" fill="#0C0B0B"/>
<path d="M55.2097 56.4531H50.7661V60.8113H55.2097V56.4531Z" fill="#0C0B0B"/>
<path d="M44.2822 56.4531H39.5103V60.8113H44.2822V56.4531Z" fill="#0C0B0B"/>
<path d="M33.3621 56.4531H28.2617V60.8113H33.3621V56.4531Z" fill="#0C0B0B"/>
<path d="M22.4346 56.4531H17.0059V60.8113H22.4346V56.4531Z" fill="#0C0B0B"/>
<path d="M11.5144 56.4531H5.75732V60.8113H11.5144V56.4531Z" fill="#0C0B0B"/>
<path d="M137.178 52.165H135.026V56.5232H137.178V52.165Z" fill="#0C0B0B"/>
<path d="M126.251 52.165H123.771V56.5232H126.251V52.165Z" fill="#0C0B0B"/>
<path d="M115.331 52.165H112.522V56.5232H115.331V52.165Z" fill="#0C0B0B"/>
<path d="M104.403 52.165H101.266V56.5232H104.403V52.165Z" fill="#0C0B0B"/>
<path d="M93.4762 52.165H90.0107V56.5232H93.4762V52.165Z" fill="#0C0B0B"/>
<path d="M82.5485 52.165H78.7617V56.5232H82.5485V52.165Z" fill="#0C0B0B"/>
<path d="M71.6216 52.165H67.5063V56.5232H71.6216V52.165Z" fill="#0C0B0B"/>
<path d="M60.6941 52.165H56.2505V56.5232H60.6941V52.165Z" fill="#0C0B0B"/>
<path d="M49.7739 52.165H45.002V56.5232H49.7739V52.165Z" fill="#0C0B0B"/>
<path d="M38.8464 52.165H33.7461V56.5232H38.8464V52.165Z" fill="#0C0B0B"/>
<path d="M27.919 52.165H22.4902V56.5232H27.919V52.165Z" fill="#0C0B0B"/>
<path d="M16.9988 52.165H11.2417V56.5232H16.9988V52.165Z" fill="#0C0B0B"/>
<path d="M5.7571 52.165H0V56.5232H5.7571V52.165Z" fill="#0C0B0B"/>
<path d="M141 47.884H140.057V52.2422H141V47.884Z" fill="#0C0B0B"/>
<path d="M131.694 47.7578H129.542V52.116H131.694V47.7578Z" fill="#0C0B0B"/>
<path d="M120.766 47.7578H118.286V52.116H120.766V47.7578Z" fill="#0C0B0B"/>
<path d="M109.839 47.7578H107.031V52.116H109.839V47.7578Z" fill="#0C0B0B"/>
<path d="M98.9188 47.7578H95.7817V52.116H98.9188V47.7578Z" fill="#0C0B0B"/>
<path d="M87.9918 47.7578H84.5264V52.116H87.9918V47.7578Z" fill="#0C0B0B"/>
<path d="M77.0573 47.7578H73.2705V52.116H77.0573V47.7578Z" fill="#0C0B0B"/>
<path d="M66.1372 47.7578H62.022V52.116H66.1372V47.7578Z" fill="#0C0B0B"/>
<path d="M55.2097 47.7578H50.7661V52.116H55.2097V47.7578Z" fill="#0C0B0B"/>
<path d="M44.2822 47.7578H39.5103V52.116H44.2822V47.7578Z" fill="#0C0B0B"/>
<path d="M33.3621 47.7578H28.2617V52.116H33.3621V47.7578Z" fill="#0C0B0B"/>
<path d="M22.4346 47.7578H17.0059V52.116H22.4346V47.7578Z" fill="#0C0B0B"/>
<path d="M11.5144 47.7578H5.75732V52.116H11.5144V47.7578Z" fill="#0C0B0B"/>
<path d="M137.178 43.4768H135.026V47.835H137.178V43.4768Z" fill="#0C0B0B"/>
<path d="M126.251 43.4768H123.771V47.835H126.251V43.4768Z" fill="#0C0B0B"/>
<path d="M115.331 43.4768H112.522V47.835H115.331V43.4768Z" fill="#0C0B0B"/>
<path d="M104.403 43.4768H101.266V47.835H104.403V43.4768Z" fill="#0C0B0B"/>
<path d="M93.4762 43.4768H90.0107V47.835H93.4762V43.4768Z" fill="#0C0B0B"/>
<path d="M82.5485 43.4768H78.7617V47.835H82.5485V43.4768Z" fill="#0C0B0B"/>
<path d="M71.6216 43.4768H67.5063V47.835H71.6216V43.4768Z" fill="#0C0B0B"/>
<path d="M60.6941 43.4768H56.2505V47.835H60.6941V43.4768Z" fill="#0C0B0B"/>
<path d="M49.7739 43.4768H45.002V47.835H49.7739V43.4768Z" fill="#0C0B0B"/>
<path d="M38.8464 43.4768H33.7461V47.835H38.8464V43.4768Z" fill="#0C0B0B"/>
<path d="M27.919 43.4768H22.4902V47.835H27.919V43.4768Z" fill="#0C0B0B"/>
<path d="M16.9988 43.4768H11.2417V47.835H16.9988V43.4768Z" fill="#0C0B0B"/>
<path d="M5.7571 43.4768H0V47.835H5.7571V43.4768Z" fill="#0C0B0B"/>
<path d="M141 39.1887H140.057V43.5469H141V39.1887Z" fill="#0C0B0B"/>
<path d="M131.694 39.0625H129.542V43.4207H131.694V39.0625Z" fill="#0C0B0B"/>
<path d="M120.766 39.0625H118.286V43.4207H120.766V39.0625Z" fill="#0C0B0B"/>
<path d="M109.839 39.0625H107.031V43.4207H109.839V39.0625Z" fill="#0C0B0B"/>
<path d="M98.9188 39.0625H95.7817V43.4207H98.9188V39.0625Z" fill="#0C0B0B"/>
<path d="M87.9918 39.0625H84.5264V43.4207H87.9918V39.0625Z" fill="#0C0B0B"/>
<path d="M77.0573 39.0625H73.2705V43.4207H77.0573V39.0625Z" fill="#0C0B0B"/>
<path d="M66.1372 39.0625H62.022V43.4207H66.1372V39.0625Z" fill="#0C0B0B"/>
<path d="M55.2097 39.0625H50.7661V43.4207H55.2097V39.0625Z" fill="#0C0B0B"/>
<path d="M44.2822 39.0625H39.5103V43.4207H44.2822V39.0625Z" fill="#0C0B0B"/>
<path d="M33.3621 39.0625H28.2617V43.4207H33.3621V39.0625Z" fill="#0C0B0B"/>
<path d="M22.4346 39.0625H17.0059V43.4207H22.4346V39.0625Z" fill="#0C0B0B"/>
<path d="M11.5144 39.0625H5.75732V43.4207H11.5144V39.0625Z" fill="#0C0B0B"/>
<path d="M137.178 34.7815H135.026V39.1397H137.178V34.7815Z" fill="#0C0B0B"/>
<path d="M126.251 34.7815H123.771V39.1397H126.251V34.7815Z" fill="#0C0B0B"/>
<path d="M115.331 34.7815H112.522V39.1397H115.331V34.7815Z" fill="#0C0B0B"/>
<path d="M104.403 34.7815H101.266V39.1397H104.403V34.7815Z" fill="#0C0B0B"/>
<path d="M93.4762 34.7815H90.0107V39.1397H93.4762V34.7815Z" fill="#0C0B0B"/>
<path d="M82.5485 34.7815H78.7617V39.1397H82.5485V34.7815Z" fill="#0C0B0B"/>
<path d="M71.6216 34.7815H67.5063V39.1397H71.6216V34.7815Z" fill="#0C0B0B"/>
<path d="M60.6941 34.7815H56.2505V39.1397H60.6941V34.7815Z" fill="#0C0B0B"/>
<path d="M49.7739 34.7815H45.002V39.1397H49.7739V34.7815Z" fill="#0C0B0B"/>
<path d="M38.8464 34.7815H33.7461V39.1397H38.8464V34.7815Z" fill="#0C0B0B"/>
<path d="M27.919 34.7815H22.4902V39.1397H27.919V34.7815Z" fill="#0C0B0B"/>
<path d="M16.9988 34.7815H11.2417V39.1397H16.9988V34.7815Z" fill="#0C0B0B"/>
<path d="M5.7571 34.7815H0V39.1397H5.7571V34.7815Z" fill="#0C0B0B"/>
<path d="M141 30.4934H140.057V34.8516H141V30.4934Z" fill="#0C0B0B"/>
<path d="M131.694 30.3672H129.542V34.7254H131.694V30.3672Z" fill="#0C0B0B"/>
<path d="M120.766 30.3672H118.286V34.7254H120.766V30.3672Z" fill="#0C0B0B"/>
<path d="M109.839 30.3672H107.031V34.7254H109.839V30.3672Z" fill="#0C0B0B"/>
<path d="M98.9188 30.3672H95.7817V34.7254H98.9188V30.3672Z" fill="#0C0B0B"/>
<path d="M87.9918 30.3672H84.5264V34.7254H87.9918V30.3672Z" fill="#0C0B0B"/>
<path d="M77.0573 30.3672H73.2705V34.7254H77.0573V30.3672Z" fill="#0C0B0B"/>
<path d="M66.1372 30.3672H62.022V34.7254H66.1372V30.3672Z" fill="#0C0B0B"/>
<path d="M55.2097 30.3672H50.7661V34.7254H55.2097V30.3672Z" fill="#0C0B0B"/>
<path d="M44.2822 30.3672H39.5103V34.7254H44.2822V30.3672Z" fill="#0C0B0B"/>
<path d="M33.3621 30.3672H28.2617V34.7254H33.3621V30.3672Z" fill="#0C0B0B"/>
<path d="M22.4346 30.3672H17.0059V34.7254H22.4346V30.3672Z" fill="#0C0B0B"/>
<path d="M11.5144 30.3672H5.75732V34.7254H11.5144V30.3672Z" fill="#0C0B0B"/>
<path d="M137.178 26.0859H135.026V30.4441H137.178V26.0859Z" fill="#0C0B0B"/>
<path d="M126.251 26.0859H123.771V30.4441H126.251V26.0859Z" fill="#0C0B0B"/>
<path d="M115.331 26.0859H112.522V30.4441H115.331V26.0859Z" fill="#0C0B0B"/>
<path d="M104.403 26.0859H101.266V30.4441H104.403V26.0859Z" fill="#0C0B0B"/>
<path d="M93.4762 26.0859H90.0107V30.4441H93.4762V26.0859Z" fill="#0C0B0B"/>
<path d="M82.5485 26.0859H78.7617V30.4441H82.5485V26.0859Z" fill="#0C0B0B"/>
<path d="M71.6216 26.0859H67.5063V30.4441H71.6216V26.0859Z" fill="#0C0B0B"/>
<path d="M60.6941 26.0859H56.2505V30.4441H60.6941V26.0859Z" fill="#0C0B0B"/>
<path d="M49.7739 26.0859H45.002V30.4441H49.7739V26.0859Z" fill="#0C0B0B"/>
<path d="M38.8464 26.0859H33.7461V30.4441H38.8464V26.0859Z" fill="#0C0B0B"/>
<path d="M27.919 26.0859H22.4902V30.4441H27.919V26.0859Z" fill="#0C0B0B"/>
<path d="M16.9988 26.0859H11.2417V30.4441H16.9988V26.0859Z" fill="#0C0B0B"/>
<path d="M5.7571 26.0859H0V30.4441H5.7571V26.0859Z" fill="#0C0B0B"/>
<path d="M141 21.7981H140.057V26.1563H141V21.7981Z" fill="#0C0B0B"/>
<path d="M131.694 21.6719H129.542V26.0301H131.694V21.6719Z" fill="#0C0B0B"/>
<path d="M120.766 21.6719H118.286V26.0301H120.766V21.6719Z" fill="#0C0B0B"/>
<path d="M109.839 21.6719H107.031V26.0301H109.839V21.6719Z" fill="#0C0B0B"/>
<path d="M98.9188 21.6719H95.7817V26.0301H98.9188V21.6719Z" fill="#0C0B0B"/>
<path d="M87.9918 21.6719H84.5264V26.0301H87.9918V21.6719Z" fill="#0C0B0B"/>
<path d="M77.0573 21.6719H73.2705V26.0301H77.0573V21.6719Z" fill="#0C0B0B"/>
<path d="M66.1372 21.6719H62.022V26.0301H66.1372V21.6719Z" fill="#0C0B0B"/>
<path d="M55.2097 21.6719H50.7661V26.0301H55.2097V21.6719Z" fill="#0C0B0B"/>
<path d="M44.2822 21.6719H39.5103V26.0301H44.2822V21.6719Z" fill="#0C0B0B"/>
<path d="M33.3621 21.6719H28.2617V26.0301H33.3621V21.6719Z" fill="#0C0B0B"/>
<path d="M22.4346 21.6719H17.0059V26.0301H22.4346V21.6719Z" fill="#0C0B0B"/>
<path d="M11.5144 21.6719H5.75732V26.0301H11.5144V21.6719Z" fill="#0C0B0B"/>
<path d="M137.178 17.3906H135.026V21.7488H137.178V17.3906Z" fill="#0C0B0B"/>
<path d="M126.251 17.3906H123.771V21.7488H126.251V17.3906Z" fill="#0C0B0B"/>
<path d="M115.331 17.3906H112.522V21.7488H115.331V17.3906Z" fill="#0C0B0B"/>
<path d="M104.403 17.3906H101.266V21.7488H104.403V17.3906Z" fill="#0C0B0B"/>
<path d="M93.4762 17.3906H90.0107V21.7488H93.4762V17.3906Z" fill="#0C0B0B"/>
<path d="M82.5485 17.3906H78.7617V21.7488H82.5485V17.3906Z" fill="#0C0B0B"/>
<path d="M71.6216 17.3906H67.5063V21.7488H71.6216V17.3906Z" fill="#0C0B0B"/>
<path d="M60.6941 17.3906H56.2505V21.7488H60.6941V17.3906Z" fill="#0C0B0B"/>
<path d="M49.7739 17.3906H45.002V21.7488H49.7739V17.3906Z" fill="#0C0B0B"/>
<path d="M38.8464 17.3906H33.7461V21.7488H38.8464V17.3906Z" fill="#0C0B0B"/>
<path d="M27.919 17.3906H22.4902V21.7488H27.919V17.3906Z" fill="#0C0B0B"/>
<path d="M16.9988 17.3906H11.2417V21.7488H16.9988V17.3906Z" fill="#0C0B0B"/>
<path d="M5.7571 17.3906H0V21.7488H5.7571V17.3906Z" fill="#0C0B0B"/>
<path d="M141 13.1025H140.057V17.4607H141V13.1025Z" fill="#0C0B0B"/>
<path d="M131.694 12.9834H129.542V17.3416H131.694V12.9834Z" fill="#0C0B0B"/>
<path d="M120.766 12.9834H118.286V17.3416H120.766V12.9834Z" fill="#0C0B0B"/>
<path d="M109.839 12.9834H107.031V17.3416H109.839V12.9834Z" fill="#0C0B0B"/>
<path d="M98.9188 12.9834H95.7817V17.3416H98.9188V12.9834Z" fill="#0C0B0B"/>
<path d="M87.9918 12.9834H84.5264V17.3416H87.9918V12.9834Z" fill="#0C0B0B"/>
<path d="M77.0573 12.9834H73.2705V17.3416H77.0573V12.9834Z" fill="#0C0B0B"/>
<path d="M66.1372 12.9834H62.022V17.3416H66.1372V12.9834Z" fill="#0C0B0B"/>
<path d="M55.2097 12.9834H50.7661V17.3416H55.2097V12.9834Z" fill="#0C0B0B"/>
<path d="M44.2822 12.9834H39.5103V17.3416H44.2822V12.9834Z" fill="#0C0B0B"/>
<path d="M33.3621 12.9834H28.2617V17.3416H33.3621V12.9834Z" fill="#0C0B0B"/>
<path d="M22.4346 12.9834H17.0059V17.3416H22.4346V12.9834Z" fill="#0C0B0B"/>
<path d="M11.5144 12.9834H5.75732V17.3416H11.5144V12.9834Z" fill="#0C0B0B"/>
<path d="M141 4.40723H140.057V8.76541H141V4.40723Z" fill="#0C0B0B"/>
<path d="M131.694 4.28809H129.542V8.64627H131.694V4.28809Z" fill="#0C0B0B"/>
<path d="M120.766 4.28809H118.286V8.64627H120.766V4.28809Z" fill="#0C0B0B"/>
<path d="M109.839 4.28809H107.031V8.64627H109.839V4.28809Z" fill="#0C0B0B"/>
<path d="M98.9188 4.28809H95.7817V8.64627H98.9188V4.28809Z" fill="#0C0B0B"/>
<path d="M87.9918 4.28809H84.5264V8.64627H87.9918V4.28809Z" fill="#0C0B0B"/>
<path d="M77.0573 4.28809H73.2705V8.64627H77.0573V4.28809Z" fill="#0C0B0B"/>
<path d="M66.1372 4.28809H62.022V8.64627H66.1372V4.28809Z" fill="#0C0B0B"/>
<path d="M55.2097 4.28809H50.7661V8.64627H55.2097V4.28809Z" fill="#0C0B0B"/>
<path d="M44.2822 4.28809H39.5103V8.64627H44.2822V4.28809Z" fill="#0C0B0B"/>
<path d="M33.3621 4.28809H28.2617V8.64627H33.3621V4.28809Z" fill="#0C0B0B"/>
<path d="M22.4346 4.28809H17.0059V8.64627H22.4346V4.28809Z" fill="#0C0B0B"/>
<path d="M11.5144 4.28809H5.75732V8.64627H11.5144V4.28809Z" fill="#0C0B0B"/>
<path d="M137.178 8.69531H135.026V13.0535H137.178V8.69531Z" fill="#0C0B0B"/>
<path d="M126.251 8.69531H123.771V13.0535H126.251V8.69531Z" fill="#0C0B0B"/>
<path d="M115.331 8.69531H112.522V13.0535H115.331V8.69531Z" fill="#0C0B0B"/>
<path d="M104.403 8.69531H101.266V13.0535H104.403V8.69531Z" fill="#0C0B0B"/>
<path d="M93.4762 8.69531H90.0107V13.0535H93.4762V8.69531Z" fill="#0C0B0B"/>
<path d="M82.5485 8.69531H78.7617V13.0535H82.5485V8.69531Z" fill="#0C0B0B"/>
<path d="M71.6216 8.69531H67.5063V13.0535H71.6216V8.69531Z" fill="#0C0B0B"/>
<path d="M60.6941 8.69531H56.2505V13.0535H60.6941V8.69531Z" fill="#0C0B0B"/>
<path d="M49.7739 8.69531H45.002V13.0535H49.7739V8.69531Z" fill="#0C0B0B"/>
<path d="M38.8464 8.69531H33.7461V13.0535H38.8464V8.69531Z" fill="#0C0B0B"/>
<path d="M27.919 8.69531H22.4902V13.0535H27.919V8.69531Z" fill="#0C0B0B"/>
<path d="M16.9988 8.69531H11.2417V13.0535H16.9988V8.69531Z" fill="#0C0B0B"/>
<path d="M5.7571 8.69531H0V13.0535H5.7571V8.69531Z" fill="#0C0B0B"/>
<path d="M137.178 0H135.026V4.35818H137.178V0Z" fill="#0C0B0B"/>
<path d="M126.251 0H123.771V4.35818H126.251V0Z" fill="#0C0B0B"/>
<path d="M115.331 0H112.522V4.35818H115.331V0Z" fill="#0C0B0B"/>
<path d="M104.403 0H101.266V4.35818H104.403V0Z" fill="#0C0B0B"/>
<path d="M93.4762 0H90.0107V4.35818H93.4762V0Z" fill="#0C0B0B"/>
<path d="M82.5485 0H78.7617V4.35818H82.5485V0Z" fill="#0C0B0B"/>
<path d="M71.6216 0H67.5063V4.35818H71.6216V0Z" fill="#0C0B0B"/>
<path d="M60.6941 0H56.2505V4.35818H60.6941V0Z" fill="#0C0B0B"/>
<path d="M49.7739 0H45.002V4.35818H49.7739V0Z" fill="#0C0B0B"/>
<path d="M38.8464 0H33.7461V4.35818H38.8464V0Z" fill="#0C0B0B"/>
<path d="M27.919 0H22.4902V4.35818H27.919V0Z" fill="#0C0B0B"/>
<path d="M16.9988 0H11.2417V4.35818H16.9988V0Z" fill="#0C0B0B"/>
<path d="M5.7571 0H0V4.35818H5.7571V0Z" fill="#0C0B0B"/>
<path d="M137.178 95.6418H135.026V100H137.178V95.6418Z" fill="#0C0B0B"/>
<path d="M126.251 95.6418H123.771V100H126.251V95.6418Z" fill="#0C0B0B"/>
<path d="M115.331 95.6418H112.522V100H115.331V95.6418Z" fill="#0C0B0B"/>
<path d="M104.403 95.6418H101.266V100H104.403V95.6418Z" fill="#0C0B0B"/>
<path d="M93.4762 95.6418H90.0107V100H93.4762V95.6418Z" fill="#0C0B0B"/>
<path d="M82.5485 95.6418H78.7617V100H82.5485V95.6418Z" fill="#0C0B0B"/>
<path d="M71.6216 95.6418H67.5063V100H71.6216V95.6418Z" fill="#0C0B0B"/>
<path d="M60.6941 95.6418H56.2505V100H60.6941V95.6418Z" fill="#0C0B0B"/>
<path d="M49.7739 95.6418H45.002V100H49.7739V95.6418Z" fill="#0C0B0B"/>
<path d="M38.8464 95.6418H33.7461V100H38.8464V95.6418Z" fill="#0C0B0B"/>
<path d="M27.919 95.6418H22.4902V100H27.919V95.6418Z" fill="#0C0B0B"/>
<path d="M16.9988 95.6418H11.2417V100H16.9988V95.6418Z" fill="#0C0B0B"/>
<path d="M5.7571 95.6418H0V100H5.7571V95.6418Z" fill="#0C0B0B"/>
</g>
<defs>
<clipPath id="clip0_114_941">
<rect width="141" height="100" fill="white"/>
</clipPath>
</defs>
</svg>
