<svg width="170" height="120" viewBox="0 0 170 120" fill="none" xmlns="http://www.w3.org/2000/svg">
<g clip-path="url(#clip0_112_922)">
<path d="M170 0H0V119.992H170V0Z" fill="#A84129"/>
<path d="M28.5075 15.7232C20.0134 24.6273 10.8368 35.1458 10.0531 49.1957C9.6149 56.9732 11.9828 64.7422 15.7411 70.8633C19.4994 76.9844 24.5638 81.6088 29.9148 85.2748C43.3048 94.448 58.6245 98.0046 73.7757 99.1144C95.6682 100.729 118.319 97.2563 137.625 83.9042C143.077 80.1374 148.284 75.5214 152.178 69.3415C156.071 63.1615 158.548 55.2327 158.043 47.3039C157.191 34.1621 148.79 24.2238 140.97 15.6812C148.31 20.0618 155.422 25.5018 160.916 33.1447C166.41 40.7877 170.177 50.8689 169.992 61.2781C169.806 71.4519 165.846 81.0875 160.318 88.3689C154.79 95.6503 147.779 100.788 140.557 104.975C108.898 123.321 71.9387 124.221 38.7291 111.18C28.8362 107.295 18.9854 102.04 11.3845 93.0102C2.83141 82.8448 -2.57009 66.777 1.24719 51.9956C4.79483 38.2484 12.5221 26.3594 22.3729 19.3303C24.3363 17.9261 26.3924 16.7153 28.5075 15.7232Z" fill="#0C0B0B"/>
<path d="M49.802 6.73486C44.4679 10.5774 38.94 15.7567 37.7265 23.4585C36.8164 29.218 38.645 35.2971 41.6786 39.6861C44.7207 44.0751 48.8413 46.9927 53.0631 49.2461C64.0009 55.0813 76.0511 56.9731 87.8822 56.3425C98.7442 55.7707 109.741 53.0213 119.17 46.0678C125.474 41.4182 131.473 33.2539 130.386 24.0219C129.518 16.6143 124.437 11.3761 119.626 7.15527C125.111 9.41704 130.572 12.2085 135.131 16.7405C139.689 21.2724 143.313 27.755 144.097 35.0953C144.939 42.9989 142.378 51.0706 138.257 57.0319C134.136 62.9933 128.583 67.0376 122.828 70.0392C109.362 77.0768 94.5308 78.8004 79.9948 78.1278C66.6806 77.514 53.1895 74.8739 41.173 67.4664C36.6648 64.6833 32.3166 61.1687 29.1566 56.1827C16.5081 36.1883 33.8334 10.8212 49.802 6.73486Z" fill="#0C0B0B"/>
<path d="M83.8708 39.0135C99.3265 39.0135 111.856 30.28 111.856 19.5067C111.856 8.73346 99.3265 0 83.8708 0C68.4151 0 55.8857 8.73346 55.8857 19.5067C55.8857 30.28 68.4151 39.0135 83.8708 39.0135Z" fill="#0C0B0B"/>
</g>
<defs>
<clipPath id="clip0_112_922">
<rect width="170" height="120" fill="white"/>
</clipPath>
</defs>
</svg>
