<svg width="1348" height="628" viewBox="0 0 1348 628" fill="none" xmlns="http://www.w3.org/2000/svg">
<g clip-path="url(#clip0_105_133)">
<path d="M809 0H0V357H809V0Z" fill="#EBE0CF"/>
<path d="M340.2 55.119H321.719V47.8895H367.008V55.119H348.527V104.478H340.228V55.119H340.2Z" fill="#BF3B24"/>
<path d="M373.427 47.8895H381.561V71.7328H408.425V47.8895H416.642V104.478H408.425V79.104H381.561V104.478H373.427V47.8895Z" fill="#BF3B24"/>
<path d="M428.731 47.8895H465.776V55.034H436.865V72.0446H463.176V79.104H436.865V97.2487H465.776V104.478H428.731V47.8895Z" fill="#BF3B24"/>
<path d="M327.363 144.539H340.836L357.215 192.452L373.731 144.539H386.735V201.128H378.656L378.877 151.428L361.724 201.128H352.318L335.165 151.428L335.331 201.128H327.335V144.539H327.363Z" fill="#BF3B24"/>
<path d="M409.725 198.576C405.271 196.053 401.73 192.566 399.157 188.058C396.584 183.55 395.283 178.504 395.283 172.89C395.283 167.277 396.584 162.202 399.157 157.722C401.73 153.214 405.271 149.699 409.725 147.176C414.179 144.624 419.076 143.377 424.416 143.377C429.783 143.377 434.708 144.652 439.134 147.176C443.561 149.727 447.074 153.243 449.675 157.722C452.248 162.23 453.548 167.277 453.548 172.89C453.548 178.504 452.248 183.578 449.675 188.058C447.102 192.566 443.588 196.053 439.134 198.576C434.708 201.099 429.783 202.347 424.416 202.347C419.104 202.347 414.207 201.071 409.725 198.576ZM434.984 192.254C438.055 190.468 440.49 187.888 442.233 184.542C443.976 181.197 444.861 177.313 444.861 172.862C444.861 168.354 443.976 164.47 442.233 161.153C440.49 157.836 438.055 155.256 434.957 153.441C431.858 151.627 428.344 150.72 424.416 150.72C420.543 150.72 417.057 151.627 413.93 153.441C410.804 155.256 408.342 157.836 406.599 161.153C404.856 164.47 403.971 168.382 403.971 172.862C403.971 177.313 404.856 181.197 406.599 184.542C408.342 187.888 410.776 190.468 413.875 192.254C416.974 194.04 420.487 194.947 424.416 194.947C428.4 194.947 431.913 194.068 434.984 192.254Z" fill="#BF3B24"/>
<path d="M472.001 199.738C468.737 198.009 466.164 195.429 464.282 191.998C462.401 188.568 461.46 184.429 461.46 179.552V144.539H469.677V179.864C469.677 183.295 470.314 186.101 471.586 188.284C472.859 190.468 474.519 192.084 476.566 193.047C478.613 194.04 480.827 194.522 483.234 194.522C487.052 194.522 490.261 193.331 492.861 190.949C495.462 188.568 496.79 184.854 496.79 179.836V144.539H505.007V179.552C505.007 184.485 504.066 188.653 502.24 192.084C500.387 195.514 497.814 198.066 494.521 199.795C491.229 201.496 487.467 202.375 483.234 202.375C479.028 202.347 475.266 201.468 472.001 199.738Z" fill="#BF3B24"/>
<path d="M516.46 144.539H542.079C545.316 144.539 548.248 145.191 550.849 146.467C553.45 147.742 555.525 149.585 556.991 151.967C558.485 154.348 559.232 157.155 559.232 160.359C559.232 163.506 558.457 166.284 556.88 168.666C555.303 171.047 553.228 172.861 550.6 174.081C547.972 175.3 545.178 175.923 542.134 175.923H524.677V201.128H516.46V144.539ZM546.146 167.985C547.612 167.276 548.691 166.312 549.438 165.008C550.158 163.732 550.545 162.173 550.545 160.359C550.545 157.637 549.715 155.511 548.083 154.008C546.45 152.505 544.016 151.768 540.834 151.768H524.705V169.034H540.834C542.909 169.034 544.68 168.666 546.146 167.985ZM531.594 170.962L542.079 172.975L560.809 201.156H550.711L531.594 170.962Z" fill="#BF3B24"/>
<path d="M568.556 144.539H580.701L606.486 190.524V144.539H614.62V201.128H603.664L576.717 152.959V201.128H568.584V144.539H568.556Z" fill="#BF3B24"/>
<path d="M626.682 144.539H634.899V201.128H626.682V144.539Z" fill="#BF3B24"/>
<path d="M646.961 144.539H659.107L684.892 190.524V144.539H693.025V201.128H682.07L655.123 152.959V201.128H646.989V144.539H646.961Z" fill="#BF3B24"/>
<path d="M715.158 198.605C710.732 196.11 707.384 192.651 705.088 188.2C702.792 183.749 701.63 178.645 701.63 172.862C701.63 167.135 702.764 162.032 705.033 157.581C707.301 153.129 710.538 149.614 714.716 147.091C718.893 144.567 723.735 143.32 729.213 143.32C734.027 143.32 738.149 144.17 741.635 145.843C745.121 147.516 747.832 149.841 749.824 152.761C751.816 155.681 753.033 158.97 753.504 162.599H744.733C743.959 158.686 742.271 155.709 739.67 153.64C737.098 151.57 733.446 150.549 728.742 150.549C725.201 150.549 721.992 151.457 719.198 153.271C716.376 155.086 714.162 157.694 712.585 161.068C710.981 164.441 710.206 168.382 710.206 172.862C710.206 177.398 711.064 181.367 712.751 184.741C714.439 188.115 716.818 190.695 719.889 192.452C722.96 194.21 726.474 195.089 730.513 195.089C733.695 195.089 736.655 194.664 739.366 193.842C742.077 193.019 744.291 191.97 746.034 190.751V177.993H728.327V170.934H753.697V195.089C751.29 197.074 747.915 198.775 743.599 200.192C739.256 201.61 734.995 202.319 730.817 202.319C724.786 202.347 719.585 201.099 715.158 198.605Z" fill="#BF3B24"/>
<path d="M327.363 241.188H335.58V290.491H362.361V297.805H327.335V241.188H327.363Z" fill="#BF3B24"/>
<path d="M384.936 241.188H394.896L417.693 297.777H408.369L401.619 279.887L401.01 278.016L389.639 248.247L378.684 278.101L377.909 280.199L371.407 297.777H362.637L384.936 241.188ZM378.13 276.031H401.48L403.915 282.949H375.723L378.13 276.031Z" fill="#BF3B24"/>
<path d="M423.336 241.188H435.482L461.266 287.173V241.188H469.4V297.777H458.444L431.498 249.608V297.777H423.364V241.188H423.336Z" fill="#BF3B24"/>
<path d="M481.463 241.188H500.11C505.394 241.188 510.236 242.265 514.635 244.448C519.033 246.631 522.547 249.835 525.12 254.116C527.693 258.397 528.993 263.5 528.993 269.454C528.993 275.294 527.748 280.341 525.258 284.622C522.768 288.903 519.366 292.163 515.022 294.403C510.678 296.643 505.809 297.777 500.387 297.777H481.435V241.188H481.463ZM510.153 288.194C513.307 286.606 515.797 284.253 517.595 281.135C519.393 278.016 520.306 274.189 520.306 269.709C520.306 265.003 519.393 261.062 517.595 257.858C515.797 254.683 513.334 252.302 510.18 250.742C507.054 249.183 503.43 248.417 499.28 248.417H489.652V290.576H499.059C503.319 290.547 506.999 289.753 510.153 288.194Z" fill="#BF3B24"/>
<path d="M134.975 90.3708L153.816 89.8828V101.108L134.975 100.62H113.067V145.509H142.154L160.995 145.152V156.377L142.154 155.889H73.9671L55.1257 156.377V145.152L73.9671 145.509H101.881V100.632H81.0296L62.1883 101.12V89.8947L81.0296 90.3827H101.869V62.1352C101.869 59.4806 101.869 58.6355 100.812 53.3264C114.472 54.0525 116.83 54.4097 116.83 56.7071C116.83 57.9094 115.773 58.5164 113.067 59.2426V90.3708H134.975Z" fill="#BF3B24"/>
<path d="M202.696 84.5861L214.591 84.229V94.121L202.696 93.7639H202.464V129.118C206.704 127.916 211.292 126.582 216.008 125.011C215.776 128.749 215.776 131.284 215.776 134.546C207.773 137.082 196.702 140.7 184.691 143.724C184.343 146.497 183.867 147.104 182.81 147.224C180.568 147.343 179.871 146.378 175.038 134.427C179.871 133.939 181.985 133.701 184.691 133.225C186.933 132.737 189.524 132.261 192.346 131.653V93.752H190.348L177.164 94.1091V84.2171L190.348 84.5742H192.346V61.0524C192.346 58.3979 192.346 57.5527 191.289 52.2437C204.601 53.3269 206.251 53.6959 206.251 55.9814C206.251 57.1837 205.194 57.7908 202.487 58.5169V84.5861H202.696ZM244.619 61.0524C244.619 58.3979 244.619 57.5527 243.562 52.2437C256.746 53.3269 258.395 53.6959 258.395 55.9814C258.395 57.1837 257.338 57.7908 254.632 58.5169V81.2054L269.117 75.4083L272.3 71.6706H273.601C281.965 77.9438 282.789 79.158 282.789 80.2412C282.789 81.4435 281.372 82.7767 279.142 83.86C279.026 91.3474 278.91 98.0968 278.666 105.822C278.073 122.476 274.902 125.249 262.299 125.249H260.057C259.232 120.785 257.942 117.643 255.701 114.143C260.057 114.869 262.299 114.988 263.832 114.988C267.723 114.988 268.188 113.905 268.664 106.537C269.14 98.8111 269.14 91.6926 269.14 85.1813L254.655 90.9784V119.095L255.131 139.486H244.177L244.654 119.095V94.9661L232.166 99.9181V146.14C232.166 148.557 233.932 149.152 254.19 149.152C270.325 149.152 271.742 148.069 272.916 146.855C274.333 145.402 274.914 142.272 275.39 130.439C279.037 132.975 282.336 134.546 286.228 135.629C284.927 158.318 281.047 159.282 252.076 159.282C224.639 159.282 222.049 156.866 222.049 147.093V104.013L210.038 109.203L206.39 99.43L221.7 94.24L222.049 94.121V70.0993C222.049 67.4447 222.049 66.5996 220.992 61.2905C234.06 62.0166 235.953 62.3737 235.953 64.6712C235.953 65.8734 234.896 66.4805 232.19 67.2067V90.1332L244.677 85.1813V61.0524H244.619Z" fill="#BF3B24"/>
<path d="M73.1423 230.169C79.3801 228.967 85.5134 227.515 91.519 225.824C89.7533 222.325 87.5114 218.944 84.921 215.444L92.8083 210.492C98.5815 218.218 103.054 225.336 106.585 233.3L96.9321 238.252C96.4558 236.799 95.875 235.478 95.3987 234.026C84.5609 237.288 72.91 240.18 62.5368 242.228C62.4206 244.882 61.5959 245.727 60.4226 245.727C58.7732 245.846 58.4247 245.12 53.2439 233.062C56.8914 232.824 59.1333 232.574 63.1408 231.978L62.4322 212.183C62.1999 204.576 61.7237 201.076 60.8989 195.767C64.1979 196.374 68.7862 197.577 72.2014 198.91C77.9746 198.065 83.0392 196.982 87.976 195.648C90.9149 194.803 92.6922 193.958 94.8063 192.637C102.938 198.672 103.878 199.874 103.878 201.933C103.878 202.898 103.286 203.386 102.113 203.386C101.288 203.386 100.231 203.148 98.8139 202.66C90.1018 204.707 81.7382 206.159 72.3175 207.493L73.1423 230.169ZM80.3327 297.985V304.496H69.4948L69.9711 285.188V266.487L69.4948 251.286L70.0872 250.679L85.0488 251.167H132.036L146.997 250.679L147.474 251.286L146.997 266.487V285.188L147.474 304.496H136.52V297.985H80.3327ZM102.345 259.619H80.3327V270.118H102.357V259.619H102.345ZM102.345 278.32H80.3327V289.057H102.357V278.32H102.345ZM132.384 206.993C131.211 231.002 123.08 242.478 104.947 249.108C102.949 245.608 100.94 243.311 98.0007 241.025C114.368 236.323 121.43 226.788 122.255 206.993L106.12 207.35V197.696L125.078 198.184H142.386L156.395 197.696L157.103 198.303L156.511 212.183C156.163 219.789 155.57 227.991 154.513 234.871C152.864 244.168 148.624 247.549 139.795 247.549C137.798 247.549 135.788 247.549 133.441 247.43C132.501 243.692 130.735 239.823 128.377 235.966C133.093 236.573 136.032 236.93 139.795 236.93C142.037 236.93 143.327 236.323 143.919 233.669C145.453 226.669 146.033 218.587 146.033 207.004H132.384V206.993ZM136.497 270.118V259.619H112.718V270.118H136.497ZM136.497 289.057V278.32H112.718V289.057H136.497Z" fill="#BF3B24"/>
<path d="M212.35 220.99C220.121 227.145 221.178 228.347 221.178 229.442C221.178 230.644 220.353 231.37 217.647 232.823C215.173 266.617 207.518 284.354 184.204 301.245C182.903 298.472 181.137 295.817 178.198 293.163C189.036 285.556 196.691 277.235 201.396 265.522C197.156 261.903 193.148 259.249 188.909 256.951L194.566 249.107C198.457 251.154 201.628 252.964 204.811 255.023C206.228 248.631 207.285 241.381 207.634 232.942H196.912C193.845 243.084 189.605 252.25 183.6 260.582C181.358 257.809 178.187 255.154 175.945 253.821C184.309 242.119 189.605 226.311 191.72 208.325L177.234 208.682V198.79L192.661 199.147H207.738L221.991 198.79V208.682L207.738 208.325H202.325C201.617 213.634 200.559 218.824 199.386 224.014H208.342L211.049 221.002H212.35V220.99ZM233.073 272.772C228.833 276.033 223.304 278.569 215.881 280.259C214.348 277.116 212.698 275.426 210.584 273.022C222.595 270.486 228.717 266.379 232.841 260.225L217.879 260.582V251.773L234.478 252.261H269.106L286.89 251.773V260.582L269.106 260.225H243.086C242.145 261.915 241.204 263.725 240.019 265.296H268.398L281.582 264.808L282.174 265.296L281.698 271.331C281.222 279.902 280.989 284.247 280.397 289.187C279.096 299.567 274.508 302.459 265.203 302.459H260.615C259.558 298.353 258.373 296.305 256.026 292.079C260.034 292.686 262.973 292.806 266.272 292.806C269.211 292.806 270.279 291.234 270.86 287.377C271.453 283.759 271.917 279.652 272.161 272.772H267.213C260.499 291.353 250.021 300.531 224.698 304.031C223.281 300.769 221.875 299.198 219.157 296.305C242.714 293.532 251.659 286.651 257.432 272.772H250.718C244.712 283.759 236.233 289.306 219.273 291.722C217.624 288.342 216.206 286.889 213.5 284.366C229.042 282.675 235.872 278.819 240.472 272.783H233.073V272.772ZM229.309 220.514C227.776 222.812 226.127 224.978 224.361 227.156C222.363 224.383 219.773 222.693 216.706 220.764C222.595 214.61 227.3 207.003 230.134 199.409C231.551 195.552 232.26 193.743 232.608 190.838C243.911 194.338 244.736 195.302 244.736 196.635C244.736 198.207 243.795 198.933 240.728 199.171C240.136 200.623 239.555 201.944 238.846 203.397H267.701L285.601 202.909V212.324L267.701 211.836H234.722C233.898 213.289 233.073 214.848 232.132 216.3L242.726 216.538H262.276L275.704 216.05L276.296 216.657L275.82 228.359V234.751L276.296 247.298L275.704 247.905L262.276 247.417H242.726L229.414 247.655L228.938 247.048L229.414 234.739V228.347L229.309 220.514ZM238.37 228.478H266.632V223.526H238.37V228.478ZM238.37 234.989V240.298H266.632V234.989H238.37Z" fill="#BF3B24"/>
</g>
<path d="M806 0L806 357L1348 357L1348 0.000391082L806 0Z" fill="#BF3B24"/>
<path d="M914.307 36.5445C899.226 50.2904 885.165 61.9814 871.904 75.4496C836.861 111.022 835.201 170.421 867.383 211.52C890.285 240.789 917.187 258.368 945.91 269.892C1035.68 305.853 1125.42 305.381 1214.79 266.421C1240.45 255.23 1264.41 238.401 1285.34 213.131C1306.1 188.055 1318.7 145.79 1302.16 105.107C1294.14 85.3911 1281.96 72.2839 1268.78 61.0095C1260.37 53.8172 1251.87 46.9026 1243.43 39.8491C1243.65 39.1271 1243.87 38.3773 1244.07 37.6553C1255.23 44.8754 1266.61 51.4845 1277.54 59.4544C1296.32 73.1725 1313.48 90.3063 1327.74 113.494C1349.42 148.706 1351.36 194.553 1332.54 233.319C1316.58 266.171 1293.8 285.609 1269.82 302.243C1228.11 331.151 1183.71 345.064 1138.16 351.979C1066.54 362.836 995.774 356.866 926.488 326.347C894.946 312.435 864.923 293.607 839.241 262.005C828.1 248.232 819.12 232.014 813.059 212.742C803.918 183.612 807.859 155.898 818.6 129.295C830.4 100.053 849.102 82.5309 868.163 65.8414C882.225 53.5395 896.966 43.0704 914.307 36.5445Z" fill="black"/>
<path d="M976.792 14.4107C964.991 24.5744 954.51 32.7664 944.61 42.2913C929.348 56.9814 926.628 87.75 938.409 108.133C946.61 122.323 957.191 131.737 968.711 138.679C1011.61 164.533 1056.5 170.059 1102.2 165.477C1131.44 162.533 1160.17 155.174 1186.93 136.652C1198.57 128.599 1210.61 120.351 1217.77 103.079C1227.09 80.641 1224.55 57.8978 1210.09 42.4302C1201.05 32.7664 1190.93 25.2964 1181.59 15.0772C1190.93 20.0757 1200.45 24.4633 1209.55 30.2394C1224.41 39.7088 1238.43 51.0943 1250.73 67.2284C1269.48 91.8322 1273.14 133.653 1247.59 165.144C1230.59 186.082 1210.95 199.189 1190.11 208.77C1140.61 231.513 1089.86 235.956 1038.52 229.986C1004.59 226.042 971.512 216.295 940.209 195.968C925.568 186.471 912.007 174.613 900.566 157.34C880.484 126.961 885.685 91.249 902.886 68.3114C922.468 42.208 946.01 24.9076 971.892 15.4937C972.892 15.1327 973.932 15.0494 976.792 14.4107Z" fill="black"/>
<path d="M1172.15 20.493C1184.17 38.0989 1182.69 60.4811 1169.09 73.866C1153.95 88.7505 1137.06 96.9147 1119.26 101.136C1080.08 110.411 1041.3 109.522 1003.65 88.5561C997.173 84.9461 991.113 79.3922 985.232 73.866C978.132 67.2013 972.651 58.2595 973.771 44.6525C975.031 29.5459 980.232 17.0496 990.153 12.662C1000.81 7.94116 1012.05 5.10867 1023.18 3.63688C1065.64 -2.0281 1108.08 -1.05617 1150.45 6.55268C1158.93 8.05224 1166.75 11.218 1172.15 20.493Z" fill="black"/>
<rect y="357" width="397" height="271" fill="black"/>
<path d="M77.0398 406.081L78.1646 405.084H78.6983C81.2911 407.038 81.8058 407.507 81.8058 408.054C81.8058 408.562 81.5007 408.777 79.9375 409.206C77.9548 411.785 76.1819 413.622 74.4661 415.009L74.6186 415.087C78.4124 417.04 81.9773 417.783 89.336 418.466C88.2875 419.775 87.7919 420.694 87.2772 421.885C85.1039 421.612 83.2546 421.338 81.6151 420.967L81.5008 425.734V427.766L81.6532 432.884H78.0883V431.223H64.6482V433.177H61.1213L61.2738 428.176V425.753L61.1594 421.455C59.3293 421.963 57.3657 422.452 55.3068 422.882C54.8111 421.885 54.2583 420.928 53.286 419.873C60.6066 418.916 65.1819 417.216 68.5944 415.145C66.9739 413.719 65.5823 412 64.3622 410.222C62.3414 412.254 59.9012 413.915 57.0416 415.38C56.4697 414.344 55.8024 413.504 54.9064 412.801C59.5199 410.652 61.8839 408.718 64.0953 405.455C64.6291 404.654 64.9532 404.107 65.182 403.267H58.0139V408.23H54.4108L54.6014 404.068L54.4489 400.142L54.6395 399.985L60.6828 400.142H69.1663V399.79C69.1663 398.403 69.1282 398.012 68.8613 396.215C73.0935 396.332 73.9323 396.567 73.9323 397.172C73.9323 397.563 73.5511 397.817 72.7313 398.051V400.161H81.3673L87.4106 400.005L87.6012 400.161L87.4487 404.088L87.6394 408.249H83.9981V403.287H66.4402C69.1092 404.127 69.2998 404.244 69.2998 404.713C69.2998 405.143 69.0329 405.358 68.0606 405.358C67.9081 405.592 67.7556 405.866 67.6031 406.12H77.0398V406.081ZM66.2686 420.772H76.6204L80.1472 420.655C77.2876 419.971 75.0762 419.15 72.7885 417.919L71.5112 417.197C69.1091 418.701 66.4783 419.814 63.8094 420.694L66.2686 420.772ZM78.1264 428.156V423.741H64.6863V428.156H78.1264ZM67.0312 408.738C68.2322 410.476 69.7001 412.039 71.4159 413.231C73.1507 411.883 74.8283 410.339 75.915 408.738H67.0312Z" fill="#F6EED8"/>
<path d="M112.861 398.969C112.861 398.09 112.861 397.817 112.518 396.078C116.941 396.313 117.551 396.43 117.551 397.192C117.551 397.582 117.208 397.797 116.312 398.032V400.962H125.024L131.143 400.806V404.381L124.948 404.225H103.024V416.103C103.024 423.331 101.747 427.746 98.2961 433.021C97.362 432.024 96.5613 431.438 95.3602 430.833C98.4677 426.457 99.5543 422.725 99.5543 415.028V407.214L99.4018 401.06L99.5924 400.825L105.521 400.982H112.88V398.969H112.861ZM115.187 417.001H111.736L105.54 417.158V413.582L111.736 413.739H115.187V408.093C115.187 407.214 115.187 406.94 114.844 405.201C119.343 405.436 119.915 405.553 119.915 406.315C119.915 406.706 119.572 406.921 118.676 407.155V413.739H123.06L129.256 413.582V417.158L123.06 417.001H118.676V427.922H125.424L131.62 427.805V431.341L125.424 431.184H108.915L102.719 431.341V427.805L108.915 427.922H115.187V417.001Z" fill="#F6EED8"/>
<path d="M150.627 413.661C149.502 415.81 148.034 417.861 145.937 419.971C145.441 419.248 144.927 418.584 144.24 417.978C144.24 424.484 143.344 428.391 140.599 433.216C139.512 431.985 138.578 431.263 137.492 430.833C140.008 426.906 140.752 423.917 140.752 417.841V404.264L140.637 398.11L140.79 397.915L146.833 398.071H167.556L174.152 397.915V401.333L167.518 401.177H144.24V417.333C146.414 415.419 148.301 413.172 149.616 410.574H148.797L145.232 410.652V407.839L148.797 407.917H150.531V405.573C149.216 405.807 147.786 406.002 146.223 406.217C145.956 405.26 145.689 404.381 145.022 403.56C148.434 403.287 150.684 402.916 152.895 402.369C154.096 402.056 154.592 401.822 155.145 401.49C157.585 403.228 157.738 403.56 157.738 403.99C157.738 404.303 157.509 404.42 156.994 404.42C156.765 404.42 156.46 404.42 156.098 404.342C155.24 404.576 154.401 404.772 153.467 404.987V407.917H153.887L157.452 407.839V410.652L153.887 410.574H153.467V412.801L154.63 411.687C156.022 412.606 157.032 413.563 157.89 414.462L155.908 416.2C155.088 415.204 154.401 414.462 153.505 413.739L153.62 419.932H150.322L150.627 413.661ZM149.044 424.23C149.044 423.35 149.045 423.077 148.701 421.338C153.2 421.573 153.544 421.69 153.544 422.452C153.544 422.843 153.2 423.038 152.304 423.292V429.055H157.223V421.905C157.223 421.026 157.223 420.752 156.88 419.013C161.379 419.248 161.76 419.365 161.76 420.127C161.76 420.518 161.417 420.713 160.521 420.967V422.667H164.2L170.396 422.51V425.558L164.2 425.402H160.521V429.055H167.422L173.618 428.938V432.083L167.422 431.927H150.417L144.221 432.083V428.938L149.064 429.016V424.23H149.044ZM167.632 410.554C169.691 413.446 171.616 414.891 174.724 416.474C173.942 417.158 173.103 418.31 172.627 419.131C169.958 417.255 167.823 415.321 166.393 412.86L166.736 419.971H163.362L163.667 413.27C162.389 415.458 160.921 417.158 158.71 418.877C158.367 418.154 157.395 417.255 156.651 416.767C159.091 415.106 160.845 413.27 162.542 410.574H162.122L158.557 410.652V407.839L162.122 407.917H163.514V405.768C162.351 405.963 161.112 406.12 159.797 406.237C159.53 405.28 159.167 404.459 158.519 403.619C162.313 403.385 164.982 402.935 167.193 402.388C168.394 402.076 168.928 401.841 169.481 401.509C171.921 403.248 172.074 403.58 172.074 404.01C172.074 404.322 171.845 404.44 171.33 404.44C171.102 404.44 170.797 404.44 170.434 404.361C169.233 404.674 167.956 404.947 166.526 405.241V407.897H169.233L173.542 407.819V410.633L169.233 410.554H167.632Z" fill="#F6EED8"/>
<path d="M200.594 416.357C200.441 419.287 200.06 422.276 198.573 424.894C203.263 427.238 208.029 428.195 217.256 428.43C216.398 429.543 215.788 430.891 215.387 432.2C206.637 431.849 201.318 430.501 196.4 427.668C193.578 430.403 189.308 432.239 183.188 432.982C182.693 431.712 181.987 430.716 180.824 429.797C187.173 429.211 190.814 428.02 193.33 425.714C190.814 423.878 188.907 421.749 187.211 418.799L190.109 417.177C191.576 419.6 193.254 421.514 195.504 423.057C196.667 421.026 196.933 418.642 197.048 416.337H189.88L185.152 416.493L184.961 416.298L185.114 411.297V407.683L184.961 402.759L185.152 402.564L190.07 402.72H197.162V400.532C197.162 398.989 197.086 398.305 196.819 396.488C201.433 396.684 201.928 396.801 201.928 397.524C201.928 397.954 201.623 398.208 200.689 398.481V402.72H207.743L212.661 402.564L212.852 402.759L212.699 407.683V411.297L212.852 416.298L212.661 416.493L207.743 416.337H200.594V416.357ZM197.181 406.002H188.66V413.153H197.181V406.002ZM209.192 413.133V405.983H200.708V413.133H209.192Z" fill="#F6EED8"/>
<path d="M223.28 406.628V403.248L228.351 403.404H234.623L239.694 403.248V406.628L234.623 406.471H228.351L223.28 406.628ZM228.827 430.501V432.728H225.377L225.529 427.531V423.722L225.377 419.873L225.606 419.717L229.666 419.834H233.307L237.406 419.717L237.635 419.873L237.482 423.722V426.906L237.635 432.103H234.223V430.52H228.827V430.501ZM225.644 401.197V397.895L229.552 398.012H233.384L237.33 397.895V401.197L233.384 401.079H229.552L225.644 401.197ZM225.644 412V408.738L229.552 408.855H233.384L237.33 408.738V412L233.384 411.922H229.552L225.644 412ZM225.644 417.47V414.169L229.552 414.286H233.384L237.33 414.169V417.47L233.384 417.353H229.552L225.644 417.47ZM234.261 422.784H228.827V427.512H234.261V422.784ZM251.418 413.817H245.489V427.121C245.489 428.352 245.527 428.469 250.065 428.469C255.364 428.469 255.765 428.039 255.994 427.16C256.184 426.437 256.222 424.933 256.222 422.921C257.347 423.761 258.777 424.464 259.711 424.738C259.444 431.009 258.663 431.888 250.027 431.888C242.477 431.888 241.962 431.497 241.962 427.766V415.653L241.772 410.613L241.962 410.457L246.843 410.613H252.81V401.685H245.604L240.533 401.802V398.305L245.604 398.462H251.418L256.299 398.305L256.489 398.501L256.337 403.502V407.624L256.489 413.778L256.299 413.973L251.418 413.817Z" fill="#F6EED8"/>
<path d="M270.234 402.271C270.006 407.429 269.739 410.379 268.919 414.93L265.983 414.169C266.841 409.363 267.108 406.94 267.337 401.783L270.234 402.271ZM275.858 401.236C277.174 402.388 278.337 403.775 279.347 405.162L278.222 406.081L283.732 406.237H283.961C283.732 405.123 283.465 404.01 283.064 402.896L279.08 403.013V400.083L285.276 400.239H287.792V398.891C287.792 398.012 287.792 397.739 287.449 396C291.834 396.234 292.368 396.352 292.368 397.114C292.368 397.504 292.025 397.719 291.129 397.954V400.259H294.465L300.699 400.103V403.033L295.742 402.916C295.475 404.029 295.208 405.143 294.846 406.256H296.009L302.243 406.1V409.109L296.009 408.952H283.732L277.536 409.109V406.647L277.078 407.038C276.259 405.69 275.42 404.537 274.486 403.58V426.926L274.638 433.314H270.959L271.111 426.926V399.009C271.111 398.129 271.111 397.856 270.768 396.117C275.115 396.352 275.725 396.469 275.725 397.231C275.725 397.622 275.382 397.817 274.486 398.071V402.486L275.858 401.236ZM280.929 425.245C280.3 427.551 279.728 429.133 278.527 431.477L275.382 430.208C276.545 428.059 277.212 426.515 277.746 424.21L280.929 425.245ZM298.754 410.515L298.945 410.711L298.792 414.09V418.779L298.945 422.12L298.792 422.354L293.874 422.198H284.647L279.766 422.354L279.576 422.12L279.728 418.779V414.09L279.576 410.711L279.766 410.515L284.647 410.672H293.874L298.754 410.515ZM282.283 425.89C282.283 425.011 282.168 424.151 281.94 422.999C286.324 423.233 286.934 423.35 286.934 424.112C286.934 424.503 286.591 424.718 285.695 424.952V428.567C285.695 429.289 286 429.368 288.993 429.368C293.054 429.368 293.054 429.407 293.054 426.476C294.331 427.199 295.418 427.629 296.619 427.863C296.123 432.2 295.57 432.552 288.669 432.552C282.893 432.552 282.283 432.083 282.283 428.821V425.89ZM282.912 415.126H295.59V413.25H282.912V415.126ZM282.912 417.626V419.619H295.59V417.626H282.912ZM286.477 402.857C286.782 403.971 287.106 405.123 287.335 406.237H291.434C291.739 405.123 292.063 404.01 292.253 402.857H286.477ZM290.118 427.59C289.337 426.046 288.727 425.05 287.754 423.937L290.538 422.432C291.624 423.585 292.196 424.386 293.016 425.812L290.118 427.59ZM298.525 423.897C300.108 425.48 301.309 427.121 302.357 428.977L299.46 430.813C298.297 428.703 297.401 427.355 295.856 425.695L298.525 423.897Z" fill="#F6EED8"/>
<path d="M55.3639 480.826C54.7348 479.634 54.0866 478.794 53 477.934C58.0329 476.742 61.1022 475.316 63.0658 474.047C63.6377 473.695 64.4193 473.089 64.9722 472.425C68.4228 474.301 68.5753 474.535 68.5753 474.926C68.5753 475.395 68.2703 475.57 67.1074 475.57C63.3899 478.012 60.0918 479.517 55.3639 480.826ZM66.4592 461.485C66.4592 460.606 66.4592 460.332 66.1161 458.594C70.2529 458.828 70.8058 458.945 70.8058 459.707C70.8058 460.098 70.4626 460.293 69.5666 460.547V468.811H72.636V457.265H70.3483L66.6689 457.46L66.5164 457.265L66.6689 453.573V447.302C66.6689 446.423 66.6689 446.149 66.3257 444.41C70.5007 444.645 71.0917 444.762 71.0917 445.524C71.0917 445.915 70.7486 446.11 69.8526 446.364V448.142H73.0363L76.3725 447.985V451.033L73.0363 450.916H69.8526V454.296H72.369L75.8196 454.1L75.9722 454.296L75.8196 458.105V468.83H82.168L82.3205 463.829H80.8907L77.5545 463.946V460.84L80.8907 460.996H82.4348L82.5873 456.347H80.8907L77.5545 456.464V453.358L80.8907 453.514H82.6827L82.8352 448.943H80.9669L77.5545 449.099V446.169L80.9669 446.325H83.6359L86.1142 446.169L86.3048 446.364L86.038 451.131L85.466 468.713L88.9548 468.635V471.898L82.7208 471.78H59.4436L53.2478 471.898V468.635L56.8128 468.713L56.3934 452.401L56.0503 446.481C56.9844 446.716 57.8804 446.95 58.7955 447.243C59.8821 446.813 60.8163 446.364 61.1976 446.169C62.0173 445.778 62.2842 445.563 62.818 445.094C65.1056 446.755 65.4488 447.087 65.4488 447.634C65.4488 447.985 65.22 448.142 64.7815 448.142C64.5528 448.142 64.2859 448.103 63.9618 448.025C62.6083 448.669 61.1785 449.216 59.5008 449.763L59.6152 453.495H61.4072L64.7434 453.338V456.445L61.4072 456.327H59.7105L59.8249 460.977H61.4072L64.7434 460.821V463.927L61.4072 463.81H59.9012L60.0155 468.811H66.4783V461.485H66.4592ZM86.2095 480.943C82.3395 478.559 79.0033 477.055 74.0467 475.141L76.22 472.64C80.9478 474.183 84.2078 475.609 88.3828 477.837L86.2095 480.943Z" fill="#F6EED8"/>
<path d="M103.024 464.474C101.48 464.669 99.8784 464.865 98.2579 465.021C98.0673 465.861 97.8004 466.173 97.4001 466.173C96.8663 466.173 96.5041 465.626 95.7034 461.758C96.7519 461.836 97.8386 461.836 98.8871 461.797C99.3065 461.758 99.745 461.758 100.126 461.719C100.946 460.567 101.709 459.414 102.49 458.222C100.622 456.445 98.6202 454.686 96.2943 453.26L98.1626 450.603C98.6202 450.916 99.0587 451.248 99.4781 451.521C100.679 449.451 101.537 447.751 102.147 446.247C102.452 445.407 102.681 444.742 102.891 443.824C106.608 445.368 107.237 445.778 107.237 446.364C107.237 446.755 106.932 446.95 105.769 447.048C104.606 449.197 103.367 451.326 102.014 453.397C102.795 453.983 103.558 454.667 104.339 455.311C105.121 453.963 105.884 452.576 106.627 451.15C107.008 450.349 107.256 449.763 107.561 448.806C111.05 450.584 111.698 451.033 111.698 451.619C111.698 452.01 111.164 452.264 110.116 452.264C108.019 455.565 106.017 458.496 103.92 461.446C105.388 461.329 106.856 461.133 108.305 460.938C107.923 460.137 107.523 459.473 107.142 458.789L109.925 457.597C111.241 459.629 112.289 461.719 113.185 464.396L110.154 465.744C109.925 464.943 109.696 464.2 109.41 463.517C108.438 463.673 107.504 463.829 106.551 463.985V474.222L106.703 480.728H102.91L103.062 474.222V464.474H103.024ZM102.471 468.205C102.471 468.518 102.242 468.752 101.346 468.928C100.889 471.976 100.145 474.887 98.868 478.227C97.9339 477.504 96.9998 476.918 95.9703 476.528C97.0569 473.91 97.7051 471.605 98.1055 469.338C98.258 468.459 98.3342 467.6 98.2961 466.681C101.899 467.404 102.471 467.717 102.471 468.205ZM110.306 466.252C111.279 468.83 112.175 472.015 112.67 475.062L109.487 476.098C109.067 473.05 108.286 469.553 107.39 467.17L110.306 466.252ZM124.338 461.289H118.065V474.711C118.065 475.981 118.256 476.098 122.793 476.098C126.854 476.098 127.712 475.785 127.979 474.984C128.208 474.261 128.284 472.953 128.322 471.097C129.447 471.937 130.61 472.445 131.887 472.933C131.62 478.931 130.133 479.399 122.546 479.399C114.844 479.399 114.481 478.852 114.481 475.277V463.204L114.291 458.164L114.481 458.007L119.362 458.164H125.825V449.822H117.951L112.651 449.939V446.52L117.951 446.677H124.299L129.294 446.52L129.485 446.716L129.332 451.717V455.097L129.485 461.25L129.294 461.446L124.338 461.289Z" fill="#F6EED8"/>
<path d="M163.381 456.445L158.119 456.288H154.44L149.178 456.445V453.553C146.433 455.214 143.478 456.484 140.142 457.597C139.512 456.64 138.826 455.761 137.587 454.706C144.755 452.752 149.597 449.548 153.01 446.09C154.02 445.055 154.516 444.274 154.878 443.512C158.405 444.391 159.015 444.703 159.015 445.25C159.015 445.524 158.824 445.797 158.386 445.973C162.771 449.783 167.174 452.127 174.933 453.788C173.542 455.018 173.065 455.937 172.264 457.206C168.814 456.093 165.954 454.901 163.4 453.475V456.445H163.381ZM146.051 469.749C144.965 473.206 143.726 476.586 141.819 479.126L138.636 477.211C140.656 474.633 141.895 471.487 142.582 468.479L146.051 469.749ZM149.311 462.012L143.077 462.169V458.789L149.311 458.945H163.533L164.696 457.988H165.23C168.051 460.254 168.299 460.528 168.299 460.996C168.299 461.387 168.032 461.719 166.755 462.305C165.859 464.532 164.734 466.994 163.457 469.299L160.235 467.678C161.398 465.724 162.332 463.868 163.057 461.993H149.311V462.012ZM147.882 470.862C147.882 469.983 147.882 469.71 147.538 467.971C152.038 468.205 152.571 468.322 152.571 469.084C152.571 469.475 152.228 469.69 151.332 469.924V475.277C151.332 476.235 151.561 476.469 156.327 476.469C161.951 476.469 161.989 476.43 162.027 472.054C163.343 472.816 164.467 473.206 165.745 473.519C165.249 479.243 164.505 479.79 156.213 479.79C148.415 479.79 147.882 479.399 147.882 475.707V470.862ZM163.057 453.28C160.502 451.815 158.176 450.056 156.003 448.122C154.058 450.076 151.942 451.815 149.578 453.28L154.421 453.436H158.1L163.057 453.28ZM156.117 465.177C157.814 466.681 159.301 468.186 160.693 469.983L157.661 472.171C156.422 470.178 155.069 468.674 153.353 467.092L156.117 465.177ZM168.223 468.088C170.587 470.237 172.493 472.503 174.19 475.199L171.083 477.543C169.329 474.437 167.746 472.425 165.421 470.198L168.223 468.088Z" fill="#F6EED8"/>
<path d="M182.006 449.822V446.481L188.202 446.637H195.256L201.49 446.481V449.822L197.543 449.705V458.515L202.081 458.398V461.778L197.543 461.661V472.425L197.696 480.533H194.017L194.131 472.425V461.622H189.861V462.54C189.861 472.386 187.802 476.723 183.036 480.533C182.407 479.536 181.606 478.716 180.481 477.954C184.79 475.023 186.41 470.999 186.41 462.755V461.641L180.824 461.797V458.418L186.41 458.574V449.724L182.006 449.822ZM189.861 449.666V458.554H194.131V449.666H189.861ZM217.484 469.983C217.484 470.628 217.027 470.667 216.055 470.569C211.403 475.727 207.266 478.188 200.67 480.22C200.212 478.911 199.545 478.071 198.649 477.036C205.398 475.258 209.42 472.699 212.451 469.221C213.233 468.342 213.576 467.756 213.957 467.033C217.179 469.163 217.484 469.397 217.484 469.983ZM214.51 447.204C214.51 447.849 213.977 447.888 213.004 447.79C209.63 451.287 206.808 453.221 202.119 455.253C201.528 454.061 200.841 453.221 199.907 452.362C204.292 450.779 206.808 449.021 209.325 446.364C210.183 445.446 210.526 444.977 210.907 444.254C214.205 446.403 214.51 446.598 214.51 447.204ZM215.521 458.789C215.521 459.434 214.987 459.473 214.015 459.394C210.564 462.931 206.923 464.962 202.538 466.545C201.947 465.353 201.413 464.435 200.479 463.575C205.017 462.227 207.762 460.606 210.316 458.007C211.174 457.128 211.555 456.62 211.937 455.898C215.235 458.027 215.521 458.203 215.521 458.789Z" fill="#F6EED8"/>
<path d="M236.11 472.894C238.855 472.464 241.772 471.898 244.708 471.351C244.632 472.464 244.631 473.46 244.631 474.535C238.703 475.766 233.079 476.801 227.264 477.719C227.15 478.755 226.921 479.067 226.521 479.067C225.93 479.067 225.548 478.188 224.119 474.261C225.548 474.261 226.292 474.183 227.607 474.066C229.19 473.91 230.867 473.714 232.564 473.48V462.95H231.401L225.968 463.106V459.57L231.401 459.727H236.987L242.248 459.57V463.106L236.987 462.95H236.091V472.894H236.11ZM243.755 451.326C243.716 450.486 243.716 449.626 243.716 448.708C243.716 446.559 243.716 445.934 243.411 444.215C247.834 444.606 248.482 444.899 248.482 445.563C248.482 445.915 248.292 446.208 247.358 446.403V451.326H253.363L259.559 451.17V454.706L253.363 454.55H247.472C247.853 462.364 249.207 467.541 251.19 471.351C252.162 473.226 254.526 476.274 255.498 476.274C256.089 476.274 256.28 475.316 256.394 471.155C257.709 471.995 258.872 472.542 259.806 472.855C259.425 479.282 258.224 480.239 255.822 480.239C253.382 480.239 250.122 476.977 248.616 474.125C246.252 469.592 244.441 464.044 243.888 454.55H230.448L224.252 454.706V451.17L230.448 451.326H243.755ZM252.429 444.703C254.125 445.7 255.498 446.813 257.004 448.161L254.716 450.584C253.248 449.04 251.895 448.044 250.027 446.852L252.429 444.703Z" fill="#F6EED8"/>
<path d="M270.234 464.669C269.491 465.587 268.728 466.506 267.87 467.443C267.127 466.486 266.364 465.783 265.316 465.138C268.214 462.169 270.501 459.101 271.855 456.445C272.446 455.292 272.713 454.53 272.98 453.631C275.42 454.745 276.354 455.214 276.659 455.663L276.773 452.557V450.173C276.773 449.138 276.697 448.474 276.506 447.204C279.881 447.36 280.529 447.595 280.529 448.2C280.529 448.552 280.262 448.747 279.519 449.001V453.885H281.177V448.083C281.177 446.696 281.139 445.661 280.948 444.508C284.513 444.664 285.181 444.86 285.181 445.504C285.181 445.856 284.914 446.051 284.018 446.305V453.885H285.676V451.072C285.676 449.451 285.6 448.532 285.409 447.224C289.47 447.458 289.604 447.536 289.604 448.22C289.604 448.571 289.375 448.767 288.479 449.021V452.596L288.631 456.484L288.441 456.757L284.571 456.601H280.815L276.831 456.757L276.64 456.562V456.484C276.411 456.64 276.011 456.679 275.515 456.64C274.848 457.832 274.2 458.945 273.494 460.098C274.429 460.332 274.657 460.528 274.657 460.86C274.657 461.25 274.39 461.583 273.418 461.856V480.845H270.006L270.158 474.457V468.186L270.234 464.669ZM272.522 445.172C275.82 447.243 275.82 447.556 275.82 448.064C275.82 448.572 275.439 448.65 274.467 448.65C272.293 451.15 270.52 452.537 267.928 454.335C267.337 453.26 266.803 452.518 265.716 451.756C268.004 450.33 269.51 449.177 270.749 447.829C271.779 446.716 272.217 446.09 272.522 445.172ZM280.891 466.408C279.576 466.603 278.184 466.799 276.831 466.955C276.526 465.92 276.049 464.962 275.439 464.22C279.195 463.946 281.997 463.536 284.151 462.989C284.971 462.794 285.772 462.52 286.515 462.188C288.65 464.142 288.879 464.454 288.879 464.845C288.879 465.119 288.727 465.275 288.212 465.275C287.983 465.275 287.678 465.236 287.24 465.158C286.305 465.392 285.219 465.626 284.056 465.88V468.537H285.142L289.947 468.42V471.39L285.142 471.272H284.056V473.773C285.753 473.539 287.506 473.226 289.413 472.855C289.146 473.929 289.108 474.476 289.032 475.551C285.581 476.313 282.016 477.016 278.07 477.778C277.955 478.657 277.688 478.931 277.326 478.931C276.831 478.931 276.392 478.344 275.153 474.73C276.278 474.73 276.926 474.691 278.127 474.574C279.061 474.457 279.995 474.379 280.872 474.261V471.292H280.052L274.829 471.409V468.44L280.052 468.557H280.872V466.408H280.891ZM299.993 456.445C299.765 461.719 299.364 467.17 297.057 472.015C298.525 474.125 300.508 475.863 303.025 477.368C302.014 478.208 301.08 479.282 300.356 480.298C298.03 478.559 296.409 476.879 295.132 475.101C293.397 477.329 291.071 479.145 287.926 480.747C287.259 479.634 286.725 478.97 285.714 478.051C289.165 476.547 291.643 474.633 293.34 472.015C293.111 471.507 292.921 470.979 292.673 470.432C291.662 467.775 291.052 464.865 290.728 459.59C290.423 460.098 290.137 460.625 289.832 461.133C289.451 460.664 289.051 460.215 288.631 459.863V461.485L284.323 461.368H280.376L275.687 461.485V458.476L280.376 458.594H284.323L287.85 458.515C289.794 455.292 291.071 451.795 292.082 447.087C292.349 445.778 292.387 444.938 292.387 443.981C296.219 444.86 296.695 445.094 296.695 445.641C296.695 446.071 296.428 446.403 295.494 446.481C294.96 449.099 294.293 451.365 293.512 453.514H296.924L301.995 453.358V456.542L299.993 456.445ZM293.359 456.366C293.512 460.371 293.664 464.552 295.151 468.362C295.685 466.74 296.047 465.06 296.314 463.399C296.619 461.055 296.733 458.711 296.81 456.366H293.359Z" fill="#F6EED8"/>
<path d="M313.51 461.368C312.728 463.106 311.966 464.708 310.726 466.896C309.907 465.9 309.182 465.392 308.134 464.825C311.032 459.863 312.671 455.644 314.444 448.825C315.016 446.52 315.149 445.602 315.264 443.824C319.572 445.329 320.068 445.563 320.068 446.169C320.03 446.813 319.801 446.97 318.562 447.048C317.704 449.978 317.018 452.44 316.312 454.589C317.78 454.862 317.971 455.136 317.971 455.507C317.971 455.898 317.666 456.054 316.732 456.503V480.65H313.167L313.319 474.261V465.724L313.51 461.368ZM325.082 455.898C324.262 457.968 323.29 459.941 322.05 462.09C321.116 461.289 320.144 460.899 319.019 460.469C321.078 456.972 322.432 453.67 323.366 450.232C323.671 449.079 323.862 447.849 323.938 446.852C327.808 448.083 328.284 448.318 328.284 448.884C328.284 449.49 327.979 449.568 326.969 449.646C326.702 450.76 326.435 451.795 326.111 452.83H330.572V446.755C330.572 445.876 330.572 445.602 330.229 443.863C334.728 444.098 335.376 444.215 335.376 444.977C335.376 445.368 335.033 445.582 334.137 445.817V452.85H337.855L342.926 452.694V456.112L337.855 455.956H334.137V463.849H339.608L344.679 463.692V467.189L339.608 467.033H334.137V474.457L334.251 480.845H330.458L330.572 474.457V467.033H323.595L318.524 467.189V463.692L323.595 463.849H330.572V455.956H325.082V455.898Z" fill="#F6EED8"/>
<path d="M54.7158 509.525H57.9186V518.882H68.48V509.525H71.7018V531.757H68.48V521.793H57.9186V531.757H54.7158V509.525Z" fill="#F6EED8"/>
<path d="M78.1456 531.17C77.0017 530.467 76.1248 529.49 75.4957 528.24C74.8666 526.99 74.5615 525.564 74.5615 523.942C74.5615 522.36 74.8666 520.953 75.4766 519.703C76.0867 518.452 76.9636 517.476 78.1075 516.753C79.2513 516.03 80.5476 515.678 81.9965 515.678C82.9116 515.678 83.7504 515.796 84.4939 516.05C85.2374 516.284 85.8474 516.616 86.3431 516.987C86.8387 517.358 87.22 517.769 87.506 518.179V516.128H90.4991V531.776H87.506V529.529C87.2963 529.822 86.9722 530.174 86.5147 530.604C86.0572 531.034 85.4662 531.405 84.7036 531.737C83.941 532.069 83.045 532.245 82.0346 532.245C80.5858 532.225 79.2894 531.874 78.1456 531.17ZM85.2565 528.943C86.019 528.474 86.61 527.81 87.0294 526.951C87.4488 526.091 87.6585 525.075 87.6585 523.923C87.6585 522.789 87.4488 521.793 87.0294 520.934C86.61 520.074 86.019 519.41 85.2755 518.941C84.532 518.472 83.6551 518.238 82.6828 518.238C81.6724 518.238 80.8145 518.472 80.0711 518.921C79.3276 519.39 78.7556 520.054 78.3553 520.914C77.9359 521.774 77.7452 522.789 77.7452 523.942C77.7452 525.095 77.955 526.111 78.3553 526.951C78.7556 527.81 79.3466 528.455 80.0901 528.943C80.8336 529.412 81.7105 529.647 82.6828 529.647C83.6169 529.647 84.4939 529.412 85.2565 528.943Z" fill="#F6EED8"/>
<path d="M94.1974 509.525H97.3048V522.829L103.119 516.108H106.78L100.527 523.18L107.542 531.757H103.748L97.2858 523.786V531.757H94.1783V509.525H94.1974Z" fill="#F6EED8"/>
<path d="M108.858 509.525H111.965V522.829L117.78 516.108H121.44L115.187 523.18L122.203 531.757H118.409L111.946 523.786V531.757H108.839V509.525H108.858Z" fill="#F6EED8"/>
<path d="M125.329 531.17C124.185 530.467 123.308 529.49 122.679 528.24C122.05 526.99 121.745 525.564 121.745 523.942C121.745 522.36 122.05 520.953 122.66 519.703C123.27 518.452 124.147 517.476 125.291 516.753C126.435 516.03 127.731 515.678 129.18 515.678C130.095 515.678 130.934 515.796 131.677 516.05C132.421 516.284 133.031 516.616 133.526 516.987C134.022 517.358 134.403 517.769 134.689 518.179V516.128H137.682V531.776H134.689V529.529C134.48 529.822 134.156 530.174 133.698 530.604C133.241 531.034 132.65 531.405 131.887 531.737C131.124 532.069 130.228 532.245 129.218 532.245C127.769 532.225 126.473 531.874 125.329 531.17ZM132.421 528.943C133.183 528.474 133.774 527.81 134.194 526.951C134.613 526.091 134.823 525.075 134.823 523.923C134.823 522.789 134.613 521.793 134.194 520.934C133.774 520.074 133.183 519.41 132.44 518.941C131.696 518.472 130.819 518.238 129.847 518.238C128.837 518.238 127.979 518.472 127.235 518.921C126.492 519.39 125.92 520.054 125.52 520.914C125.1 521.774 124.91 522.789 124.91 523.942C124.91 525.095 125.119 526.111 125.52 526.951C125.92 527.81 126.511 528.455 127.254 528.943C127.998 529.412 128.875 529.647 129.847 529.647C130.8 529.647 131.677 529.412 132.421 528.943Z" fill="#F6EED8"/>
<path d="M141.381 516.108H144.393V518.218C144.736 517.593 145.327 517.007 146.147 516.46C146.967 515.913 147.996 515.639 149.254 515.639C150.36 515.639 151.332 515.874 152.171 516.323C153.01 516.772 153.677 517.456 154.173 518.335C154.668 519.214 154.916 520.308 154.916 521.578V531.737H151.847V521.989C151.847 521.09 151.714 520.348 151.428 519.801C151.142 519.253 150.76 518.843 150.265 518.589C149.769 518.335 149.159 518.218 148.473 518.218C147.558 518.218 146.795 518.453 146.204 518.902C145.613 519.371 145.175 519.996 144.908 520.777C144.641 521.559 144.507 522.496 144.507 523.571V531.737H141.4V516.108H141.381Z" fill="#F6EED8"/>
<path d="M160.902 531.21C159.778 530.526 158.92 529.568 158.31 528.318C157.719 527.087 157.414 525.622 157.414 523.962C157.414 522.301 157.719 520.836 158.329 519.586C158.939 518.335 159.816 517.358 160.96 516.675C162.103 515.971 163.438 515.639 164.982 515.639C166.583 515.639 167.956 516.03 169.119 516.792C170.282 517.554 171.14 518.628 171.712 519.976C172.284 521.324 172.512 522.907 172.398 524.685H160.483C160.502 525.739 160.693 526.638 161.055 527.38C161.417 528.123 161.913 528.709 162.58 529.1C163.228 529.49 164.01 529.705 164.925 529.705C166.031 529.705 166.908 529.451 167.556 528.943C168.204 528.435 168.681 527.752 169.024 526.892H172.131C171.94 527.713 171.578 528.533 171.045 529.334C170.492 530.135 169.729 530.819 168.7 531.385C167.67 531.952 166.45 532.225 164.982 532.225C163.4 532.225 162.027 531.893 160.902 531.21ZM168.566 519.976C168.185 519.332 167.67 518.863 167.041 518.55C166.412 518.238 165.726 518.081 164.963 518.081C163.705 518.081 162.714 518.452 161.97 519.175C161.227 519.898 160.769 520.973 160.597 522.379H169.214C169.176 521.402 168.947 520.621 168.566 519.976Z" fill="#F6EED8"/>
<path d="M176.802 531.444C175.772 530.916 175.01 530.233 174.533 529.412C174.057 528.592 173.771 527.674 173.733 526.677H176.573C176.63 527.205 176.802 527.693 177.088 528.162C177.374 528.631 177.812 529.021 178.403 529.334C178.994 529.647 179.738 529.803 180.653 529.803C181.701 529.803 182.521 529.608 183.112 529.197C183.703 528.787 184.008 528.26 184.008 527.615C184.008 527.009 183.779 526.54 183.322 526.189C182.864 525.837 182.064 525.564 180.882 525.31L179.433 525.017C177.583 524.685 176.306 524.118 175.563 523.337C174.838 522.555 174.476 521.539 174.476 520.269C174.476 519.41 174.724 518.628 175.2 517.945C175.677 517.261 176.363 516.694 177.24 516.264C178.117 515.835 179.109 515.639 180.195 515.639C182.292 515.639 183.875 516.108 184.942 517.026C186.01 517.945 186.639 519.058 186.772 520.367H183.875C183.703 519.644 183.322 519.097 182.712 518.687C182.102 518.277 181.244 518.081 180.157 518.081C179.242 518.081 178.518 518.257 178.022 518.628C177.526 519 177.259 519.468 177.259 520.054C177.259 520.601 177.488 521.031 177.946 521.324C178.403 521.637 179.185 521.891 180.271 522.125L181.873 522.438C183.608 522.789 184.923 523.376 185.8 524.177C186.677 524.978 187.115 526.052 187.115 527.4C187.115 528.318 186.868 529.158 186.372 529.901C185.876 530.643 185.152 531.21 184.18 531.62C183.207 532.03 182.025 532.225 180.653 532.225C179.128 532.225 177.831 531.971 176.802 531.444Z" fill="#F6EED8"/>
<path d="M192.167 531.21C191.043 530.526 190.185 529.568 189.575 528.318C188.984 527.087 188.679 525.622 188.679 523.962C188.679 522.301 188.984 520.836 189.594 519.586C190.204 518.335 191.081 517.358 192.225 516.675C193.368 515.971 194.703 515.639 196.247 515.639C197.849 515.639 199.221 516.03 200.384 516.792C201.547 517.554 202.405 518.628 202.977 519.976C203.549 521.324 203.777 522.907 203.663 524.685H191.748C191.767 525.739 191.958 526.638 192.32 527.38C192.682 528.123 193.178 528.709 193.845 529.1C194.493 529.49 195.275 529.705 196.19 529.705C197.296 529.705 198.173 529.451 198.821 528.943C199.469 528.435 199.946 527.752 200.289 526.892H203.396C203.205 527.713 202.843 528.533 202.309 529.334C201.757 530.135 200.994 530.819 199.965 531.385C198.935 531.952 197.715 532.225 196.247 532.225C194.665 532.225 193.292 531.893 192.167 531.21ZM199.831 519.976C199.45 519.332 198.935 518.863 198.306 518.55C197.677 518.238 196.991 518.081 196.228 518.081C194.97 518.081 193.978 518.452 193.235 519.175C192.491 519.898 192.034 520.973 191.862 522.379H200.479C200.441 521.402 200.212 520.621 199.831 519.976Z" fill="#F6EED8"/>
<path d="M213.348 509.525H216.55V518.882H227.112V509.525H230.334V531.757H227.112V521.793H216.55V531.757H213.348V509.525Z" fill="#F6EED8"/>
<path d="M234.432 512.435C234.089 512.045 233.918 511.576 233.918 511.029C233.918 510.482 234.089 510.013 234.432 509.642C234.776 509.271 235.252 509.075 235.862 509.075C236.453 509.075 236.93 509.271 237.292 509.661C237.654 510.052 237.826 510.501 237.826 511.029C237.826 511.576 237.654 512.045 237.292 512.435C236.93 512.826 236.453 513.021 235.862 513.021C235.252 513.021 234.776 512.826 234.432 512.435ZM234.337 516.108H237.444V531.757H234.337V516.108Z" fill="#F6EED8"/>
<path d="M242.859 531.444C241.829 530.916 241.067 530.233 240.59 529.412C240.113 528.592 239.827 527.674 239.789 526.677H242.63C242.687 527.205 242.859 527.693 243.145 528.162C243.43 528.631 243.869 529.021 244.46 529.334C245.051 529.647 245.794 529.803 246.71 529.803C247.758 529.803 248.578 529.608 249.169 529.197C249.76 528.787 250.065 528.26 250.065 527.615C250.065 527.009 249.836 526.54 249.379 526.189C248.921 525.837 248.12 525.564 246.938 525.31L245.489 525.017C243.64 524.685 242.363 524.118 241.619 523.337C240.895 522.555 240.533 521.539 240.533 520.269C240.533 519.41 240.781 518.628 241.257 517.945C241.734 517.261 242.42 516.694 243.297 516.264C244.174 515.835 245.165 515.639 246.252 515.639C248.349 515.639 249.931 516.108 250.999 517.026C252.067 517.945 252.696 519.058 252.829 520.367H249.931C249.76 519.644 249.378 519.097 248.768 518.687C248.158 518.277 247.301 518.081 246.214 518.081C245.299 518.081 244.574 518.257 244.079 518.628C243.583 519 243.316 519.468 243.316 520.054C243.316 520.601 243.545 521.031 244.002 521.324C244.46 521.637 245.242 521.891 246.328 522.125L247.93 522.438C249.664 522.789 250.98 523.376 251.857 524.177C252.734 524.978 253.172 526.052 253.172 527.4C253.172 528.318 252.924 529.158 252.429 529.901C251.933 530.643 251.209 531.21 250.236 531.62C249.264 532.03 248.082 532.225 246.71 532.225C245.184 532.225 243.888 531.971 242.859 531.444Z" fill="#F6EED8"/>
<path d="M257.824 530.487C257.08 529.647 256.718 528.455 256.718 526.892V518.511H253.973V516.108H256.718V512.162H259.768V516.108H263.371V518.511H259.768V526.97C259.768 527.752 259.94 528.299 260.302 528.631C260.664 528.963 261.198 529.119 261.923 529.119H263.371V531.776H261.008C259.616 531.757 258.548 531.327 257.824 530.487Z" fill="#F6EED8"/>
<path d="M268.481 531.17C267.242 530.467 266.269 529.49 265.564 528.221C264.859 526.951 264.515 525.525 264.515 523.923C264.515 522.301 264.859 520.855 265.564 519.605C266.269 518.335 267.222 517.358 268.481 516.675C269.72 515.971 271.131 515.639 272.675 515.639C274.219 515.639 275.611 515.991 276.85 516.675C278.089 517.358 279.061 518.355 279.767 519.605C280.472 520.875 280.815 522.301 280.815 523.923C280.815 525.525 280.472 526.951 279.767 528.221C279.061 529.49 278.108 530.467 276.85 531.17C275.611 531.874 274.219 532.225 272.675 532.225C271.131 532.225 269.72 531.874 268.481 531.17ZM275.306 528.904C276.068 528.416 276.659 527.732 277.059 526.853C277.46 525.974 277.67 524.997 277.67 523.903C277.67 522.809 277.479 521.832 277.079 520.953C276.678 520.074 276.106 519.41 275.344 518.941C274.581 518.472 273.704 518.238 272.694 518.238C271.664 518.238 270.787 518.472 270.025 518.941C269.281 519.41 268.69 520.074 268.29 520.934C267.871 521.793 267.68 522.789 267.68 523.903C267.68 525.017 267.89 526.013 268.29 526.892C268.69 527.771 269.281 528.435 270.044 528.924C270.806 529.412 271.683 529.647 272.694 529.647C273.666 529.647 274.543 529.393 275.306 528.904Z" fill="#F6EED8"/>
<path d="M283.446 516.108H286.458V519.078C286.877 518.257 287.487 517.534 288.326 516.909C289.165 516.284 290.233 515.971 291.529 515.971H291.967V519.117H291.167C290.08 519.117 289.184 519.312 288.498 519.722C287.811 520.113 287.316 520.699 287.011 521.442C286.706 522.184 286.553 523.102 286.553 524.177V531.776H283.446V516.108Z" fill="#F6EED8"/>
<path d="M293.912 512.435C293.569 512.045 293.397 511.576 293.397 511.029C293.397 510.482 293.569 510.013 293.912 509.642C294.255 509.271 294.732 509.075 295.342 509.075C295.933 509.075 296.41 509.271 296.772 509.661C297.134 510.052 297.306 510.501 297.306 511.029C297.306 511.576 297.134 512.045 296.772 512.435C296.41 512.826 295.933 513.021 295.342 513.021C294.713 513.021 294.236 512.826 293.912 512.435ZM293.798 516.108H296.905V531.757H293.798V516.108Z" fill="#F6EED8"/>
<path d="M303.349 531.131C302.148 530.409 301.213 529.432 300.546 528.181C299.879 526.931 299.555 525.544 299.555 524.02C299.555 522.399 299.898 520.953 300.565 519.683C301.233 518.413 302.186 517.417 303.406 516.694C304.607 515.971 305.979 515.62 307.466 515.62C309.03 515.62 310.364 515.913 311.47 516.518C312.576 517.124 313.433 517.886 314.044 518.804C314.654 519.722 315.016 520.699 315.13 521.735H311.966C311.737 520.582 311.26 519.703 310.517 519.097C309.773 518.492 308.763 518.199 307.466 518.199C306.513 518.199 305.694 518.433 304.969 518.882C304.245 519.351 303.692 520.015 303.311 520.875C302.929 521.735 302.72 522.77 302.72 523.962C302.72 525.114 302.91 526.111 303.311 526.951C303.711 527.791 304.264 528.435 304.988 528.904C305.713 529.373 306.532 529.608 307.447 529.608C308.763 529.608 309.792 529.275 310.536 528.592C311.279 527.908 311.756 526.99 311.966 525.857H315.073C315.016 526.794 314.692 527.771 314.12 528.748C313.548 529.725 312.69 530.545 311.584 531.21C310.46 531.874 309.087 532.206 307.447 532.206C305.922 532.225 304.55 531.874 303.349 531.131Z" fill="#F6EED8"/>
<path d="M320.125 531.17C318.981 530.467 318.104 529.49 317.475 528.24C316.846 526.99 316.541 525.564 316.541 523.942C316.541 522.36 316.846 520.953 317.456 519.703C318.066 518.452 318.943 517.476 320.087 516.753C321.231 516.03 322.527 515.678 323.976 515.678C324.891 515.678 325.73 515.796 326.473 516.05C327.217 516.284 327.827 516.616 328.323 516.987C328.818 517.358 329.2 517.769 329.485 518.179V516.128H332.479V531.776H329.485V529.529C329.276 529.822 328.952 530.174 328.494 530.604C328.037 531.034 327.446 531.405 326.683 531.737C325.921 532.069 325.025 532.245 324.014 532.245C322.565 532.225 321.269 531.874 320.125 531.17ZM327.217 528.943C327.979 528.474 328.57 527.81 328.99 526.951C329.409 526.091 329.619 525.075 329.619 523.923C329.619 522.789 329.409 521.793 328.99 520.934C328.57 520.074 327.979 519.41 327.236 518.941C326.492 518.472 325.615 518.238 324.643 518.238C323.633 518.238 322.775 518.472 322.031 518.921C321.288 519.39 320.716 520.054 320.316 520.914C319.896 521.774 319.706 522.789 319.706 523.942C319.706 525.095 319.915 526.111 320.316 526.951C320.716 527.81 321.307 528.455 322.051 528.943C322.794 529.412 323.671 529.647 324.643 529.647C325.596 529.647 326.454 529.412 327.217 528.943Z" fill="#F6EED8"/>
<path d="M337.016 530.799C336.387 530.155 336.082 529.236 336.082 528.045V509.525H339.151V527.849C339.151 528.318 339.265 528.65 339.475 528.865C339.685 529.08 340.028 529.197 340.466 529.197H341.057V531.757H339.799C338.579 531.757 337.645 531.424 337.016 530.799Z" fill="#F6EED8"/>
<path d="M54.7158 536.015H64.7816C66.0589 536.015 67.2027 536.269 68.2322 536.777C69.2616 537.285 70.0624 538.008 70.6533 538.946C71.2443 539.884 71.5303 540.978 71.5303 542.247C71.5303 543.498 71.2252 544.572 70.6152 545.51C70.0051 546.448 69.1854 547.151 68.156 547.639C67.1265 548.128 66.0207 548.362 64.8388 548.362H57.9758V558.267H54.7349V536.015H54.7158ZM66.383 545.217C66.9549 544.943 67.3934 544.553 67.6794 544.045C67.9653 543.537 68.1178 542.931 68.1178 542.208C68.1178 541.134 67.7937 540.313 67.1456 539.708C66.4974 539.122 65.5441 538.829 64.305 538.829H57.9567V545.608H64.305C65.1057 545.627 65.811 545.49 66.383 545.217ZM60.6638 546.389L64.7816 547.17L72.1403 558.247H68.175L60.6638 546.389Z" fill="#F6EED8"/>
<path d="M76.3536 557.7C75.2288 557.017 74.3709 556.059 73.7609 554.809C73.1699 553.578 72.8649 552.113 72.8649 550.453C72.8649 548.792 73.1699 547.327 73.7799 546.076C74.39 544.826 75.2669 543.849 76.4107 543.166C77.5546 542.462 78.8891 542.13 80.4333 542.13C82.0347 542.13 83.4072 542.521 84.5701 543.283C85.733 544.045 86.591 545.119 87.1629 546.467C87.7348 547.815 87.9635 549.398 87.8492 551.175H75.9341C75.9532 552.23 76.1439 553.129 76.5061 553.871C76.8683 554.614 77.364 555.2 78.0312 555.591C78.6794 555.981 79.461 556.196 80.3761 556.196C81.4818 556.196 82.3587 555.942 83.0069 555.434C83.6551 554.926 84.1317 554.243 84.4748 553.383H87.5823C87.3917 554.203 87.0294 555.024 86.4956 555.825C85.9428 556.626 85.1802 557.31 84.1507 557.876C83.1213 558.443 81.9012 558.716 80.4333 558.716C78.851 558.716 77.4783 558.384 76.3536 557.7ZM84.0173 546.467C83.636 545.823 83.1213 545.354 82.4922 545.041C81.8631 544.728 81.1768 544.572 80.4142 544.572C79.156 544.572 78.1646 544.943 77.4211 545.666C76.6776 546.389 76.2201 547.464 76.0485 548.87H84.6655C84.6274 547.893 84.3986 547.112 84.0173 546.467Z" fill="#F6EED8"/>
<path d="M90.5371 542.599H93.5302V544.299C93.9877 543.634 94.5215 543.087 95.1506 542.697C95.7797 542.306 96.5804 542.111 97.5717 542.111C98.6584 542.111 99.5544 542.365 100.26 542.892C100.965 543.42 101.499 544.045 101.842 544.748C102.261 544.045 102.872 543.439 103.672 542.912C104.473 542.384 105.426 542.111 106.513 542.111C107.638 542.111 108.61 542.345 109.43 542.794C110.23 543.244 110.859 543.869 111.279 544.67C111.698 545.471 111.908 546.409 111.908 547.503V558.228H108.858V547.971C108.858 546.877 108.629 546.057 108.152 545.471C107.676 544.885 106.951 544.611 105.941 544.611C104.873 544.611 104.073 544.963 103.539 545.666C103.005 546.37 102.738 547.346 102.738 548.577V558.189H99.726L99.7641 547.932C99.7641 547.21 99.6497 546.604 99.44 546.116C99.2303 545.627 98.8871 545.236 98.4487 544.982C98.0102 544.728 97.4192 544.592 96.7138 544.592C95.9894 544.592 95.4175 544.768 94.96 545.1C94.5024 545.432 94.1783 545.901 93.9686 546.487C93.7589 547.073 93.6636 547.776 93.6636 548.577V558.189H90.5562V542.599H90.5371Z" fill="#F6EED8"/>
<path d="M117.894 557.7C116.769 557.017 115.911 556.059 115.301 554.809C114.71 553.578 114.405 552.113 114.405 550.453C114.405 548.792 114.71 547.327 115.32 546.076C115.93 544.826 116.807 543.849 117.951 543.166C119.095 542.462 120.43 542.13 121.974 542.13C123.575 542.13 124.948 542.521 126.111 543.283C127.274 544.045 128.131 545.119 128.703 546.467C129.275 547.815 129.504 549.398 129.39 551.175H117.475C117.494 552.23 117.684 553.129 118.047 553.871C118.409 554.614 118.904 555.2 119.572 555.591C120.22 555.981 121.001 556.196 121.916 556.196C123.022 556.196 123.899 555.942 124.547 555.434C125.196 554.926 125.672 554.243 126.015 553.383H129.123C128.932 554.203 128.57 555.024 128.036 555.825C127.483 556.626 126.721 557.31 125.691 557.876C124.662 558.443 123.442 558.716 121.974 558.716C120.391 558.716 119.038 558.384 117.894 557.7ZM125.558 546.467C125.176 545.823 124.662 545.354 124.033 545.041C123.404 544.728 122.717 544.572 121.955 544.572C120.696 544.572 119.705 544.943 118.962 545.666C118.218 546.389 117.761 547.464 117.589 548.87H126.206C126.168 547.893 125.958 547.112 125.558 546.467Z" fill="#F6EED8"/>
<path d="M132.097 542.599H135.09V544.299C135.547 543.634 136.081 543.087 136.71 542.697C137.339 542.306 138.14 542.111 139.131 542.111C140.218 542.111 141.114 542.365 141.819 542.892C142.525 543.42 143.059 544.045 143.402 544.748C143.821 544.045 144.431 543.439 145.232 542.912C146.033 542.384 146.986 542.111 148.072 542.111C149.197 542.111 150.169 542.345 150.989 542.794C151.79 543.244 152.419 543.869 152.838 544.67C153.258 545.471 153.467 546.409 153.467 547.503V558.228H150.417V547.971C150.417 546.877 150.188 546.057 149.712 545.471C149.235 544.885 148.511 544.611 147.5 544.611C146.433 544.611 145.632 544.963 145.098 545.666C144.565 546.37 144.298 547.346 144.298 548.577V558.189H141.286L141.324 547.932C141.324 547.21 141.209 546.604 141 546.116C140.79 545.627 140.447 545.236 140.008 544.982C139.57 544.728 138.979 544.592 138.273 544.592C137.549 544.592 136.977 544.768 136.52 545.1C136.062 545.432 135.738 545.901 135.528 546.487C135.319 547.073 135.223 547.776 135.223 548.577V558.189H132.116V542.599H132.097Z" fill="#F6EED8"/>
<path d="M162.714 558.208C161.951 557.876 161.36 557.505 160.922 557.095C160.483 556.685 160.178 556.313 160.006 556.001V558.247H156.994V536.015H160.102V544.592C160.597 543.927 161.265 543.341 162.142 542.873C163 542.404 164.086 542.169 165.402 542.169C166.908 542.169 168.223 542.521 169.348 543.224C170.492 543.927 171.369 544.904 171.998 546.155C172.627 547.405 172.932 548.831 172.932 550.433C172.932 552.054 172.627 553.481 171.998 554.731C171.369 555.981 170.492 556.958 169.348 557.661C168.204 558.365 166.908 558.716 165.421 558.716C164.372 558.716 163.476 558.56 162.714 558.208ZM167.461 555.434C168.204 554.965 168.776 554.301 169.176 553.442C169.577 552.582 169.767 551.586 169.767 550.433C169.767 549.28 169.577 548.264 169.176 547.405C168.776 546.545 168.204 545.881 167.461 545.412C166.717 544.943 165.84 544.728 164.849 544.728C163.857 544.728 163 544.963 162.256 545.432C161.513 545.901 160.922 546.565 160.502 547.424C160.083 548.284 159.873 549.28 159.873 550.413C159.873 551.566 160.083 552.582 160.483 553.442C160.902 554.301 161.474 554.965 162.237 555.434C163 555.903 163.876 556.138 164.849 556.138C165.821 556.138 166.717 555.903 167.461 555.434Z" fill="#F6EED8"/>
<path d="M175.582 542.599H178.594V545.569C179.013 544.748 179.623 544.025 180.462 543.4C181.301 542.775 182.369 542.462 183.665 542.462H184.103V545.608H183.303C182.216 545.608 181.32 545.803 180.634 546.213C179.947 546.604 179.452 547.19 179.147 547.932C178.842 548.675 178.689 549.593 178.689 550.667V558.267H175.582V542.599Z" fill="#F6EED8"/>
<path d="M188.088 557.661C186.944 556.958 186.067 555.981 185.438 554.731C184.809 553.481 184.504 552.054 184.504 550.433C184.504 548.851 184.809 547.444 185.419 546.194C186.029 544.943 186.906 543.967 188.05 543.244C189.193 542.521 190.49 542.169 191.939 542.169C192.854 542.169 193.693 542.286 194.436 542.54C195.179 542.775 195.79 543.107 196.285 543.478C196.781 543.849 197.162 544.26 197.448 544.67V542.619H200.441V558.267H197.448V556.02C197.238 556.313 196.914 556.665 196.457 557.095C195.999 557.525 195.408 557.896 194.646 558.228C193.883 558.56 192.987 558.736 191.977 558.736C190.528 558.716 189.232 558.365 188.088 557.661ZM195.18 555.434C195.942 554.965 196.533 554.301 196.952 553.442C197.372 552.582 197.582 551.566 197.582 550.413C197.582 549.28 197.372 548.284 196.952 547.424C196.533 546.565 195.942 545.901 195.199 545.432C194.455 544.963 193.578 544.728 192.606 544.728C191.595 544.728 190.738 544.963 189.994 545.412C189.251 545.881 188.679 546.545 188.278 547.405C187.859 548.264 187.668 549.28 187.668 550.433C187.668 551.586 187.878 552.601 188.278 553.442C188.679 554.301 189.27 554.946 190.013 555.434C190.757 555.903 191.634 556.138 192.606 556.138C193.559 556.138 194.417 555.903 195.18 555.434Z" fill="#F6EED8"/>
<path d="M204.14 542.599H207.152V544.709C207.495 544.084 208.086 543.498 208.906 542.951C209.725 542.404 210.755 542.13 212.013 542.13C213.119 542.13 214.091 542.365 214.93 542.814C215.769 543.263 216.436 543.947 216.932 544.826C217.427 545.705 217.675 546.799 217.675 548.069V558.228H214.606V548.479C214.606 547.581 214.472 546.838 214.186 546.291C213.9 545.744 213.519 545.334 213.023 545.08C212.528 544.826 211.918 544.709 211.231 544.709C210.316 544.709 209.554 544.943 208.963 545.393C208.372 545.862 207.933 546.487 207.667 547.268C207.4 548.05 207.266 548.987 207.266 550.062V558.228H204.159V542.599H204.14Z" fill="#F6EED8"/>
<path d="M223.947 557.642C222.746 556.919 221.812 555.942 221.145 554.692C220.477 553.442 220.153 552.055 220.153 550.531C220.153 548.909 220.496 547.464 221.164 546.194C221.831 544.924 222.784 543.928 224.004 543.205C225.205 542.482 226.578 542.13 228.065 542.13C229.628 542.13 230.963 542.423 232.068 543.029C233.174 543.634 234.032 544.396 234.642 545.315C235.252 546.233 235.614 547.21 235.729 548.245H232.564C232.335 547.092 231.859 546.213 231.115 545.608C230.372 545.002 229.361 544.709 228.065 544.709C227.112 544.709 226.292 544.943 225.567 545.393C224.843 545.862 224.29 546.526 223.909 547.385C223.528 548.245 223.318 549.28 223.318 550.472C223.318 551.625 223.509 552.621 223.909 553.461C224.309 554.301 224.862 554.946 225.587 555.415C226.311 555.884 227.131 556.118 228.046 556.118C229.361 556.118 230.391 555.786 231.134 555.102C231.878 554.418 232.354 553.5 232.564 552.367H235.671C235.614 553.305 235.29 554.282 234.718 555.258C234.146 556.235 233.288 557.056 232.183 557.72C231.058 558.384 229.685 558.716 228.046 558.716C226.521 558.716 225.148 558.365 223.947 557.642Z" fill="#F6EED8"/>
<path d="M240.647 557.7C239.522 557.017 238.665 556.059 238.054 554.809C237.463 553.578 237.158 552.113 237.158 550.453C237.158 548.792 237.463 547.327 238.074 546.076C238.684 544.826 239.56 543.849 240.704 543.166C241.848 542.462 243.183 542.13 244.727 542.13C246.328 542.13 247.701 542.521 248.864 543.283C250.027 544.045 250.885 545.119 251.456 546.467C252.028 547.815 252.257 549.398 252.143 551.175H240.228C240.247 552.23 240.437 553.129 240.8 553.871C241.162 554.614 241.658 555.2 242.325 555.591C242.973 555.981 243.755 556.196 244.67 556.196C245.775 556.196 246.652 555.942 247.301 555.434C247.949 554.926 248.425 554.243 248.768 553.383H251.876C251.685 554.203 251.323 555.024 250.789 555.825C250.236 556.626 249.474 557.31 248.444 557.876C247.415 558.443 246.195 558.716 244.727 558.716C243.145 558.716 241.772 558.384 240.647 557.7ZM248.311 546.467C247.93 545.823 247.415 545.354 246.786 545.041C246.157 544.728 245.47 544.572 244.708 544.572C243.45 544.572 242.458 544.943 241.715 545.666C240.971 546.389 240.514 547.464 240.342 548.87H248.959C248.921 547.893 248.692 547.112 248.311 546.467Z" fill="#F6EED8"/>
<path d="M54.7159 562.506H62.0364C64.1144 562.506 66.0208 562.936 67.7556 563.776C69.4904 564.636 70.8631 565.886 71.8734 567.586C72.8838 569.266 73.3986 571.278 73.3986 573.603C73.3986 575.888 72.9029 577.881 71.9306 579.561C70.9584 581.241 69.6239 582.531 67.9082 583.41C66.2115 584.289 64.286 584.738 62.1508 584.738H54.6968V562.506H54.7159ZM66.0018 580.968C67.2409 580.343 68.2132 579.425 68.9185 578.194C69.6239 576.963 69.9861 575.459 69.9861 573.7C69.9861 571.845 69.6239 570.301 68.9185 569.051C68.2132 567.801 67.2409 566.863 66.0018 566.257C64.7626 565.652 63.3519 565.339 61.7314 565.339H57.9377V581.906H61.6361C63.2946 581.906 64.7626 581.593 66.0018 580.968Z" fill="#F6EED8"/>
<path d="M78.7556 584.191C77.6308 583.508 76.7729 582.55 76.1629 581.3C75.5719 580.069 75.2668 578.604 75.2668 576.943C75.2668 575.283 75.5719 573.818 76.1819 572.567C76.792 571.317 77.6689 570.34 78.8128 569.656C79.9566 568.953 81.2911 568.621 82.8353 568.621C84.4366 568.621 85.8093 569.012 86.9722 569.774C88.1351 570.536 88.9929 571.61 89.5649 572.958C90.1368 574.306 90.3656 575.888 90.2512 577.666H78.3362C78.3552 578.721 78.5459 579.62 78.9081 580.362C79.2703 581.105 79.766 581.691 80.4332 582.081C81.0814 582.472 81.863 582.687 82.7781 582.687C83.8838 582.687 84.7607 582.433 85.4089 581.925C86.0571 581.417 86.5337 580.733 86.8768 579.874H89.9843C89.7936 580.694 89.4315 581.515 88.8977 582.316C88.3448 583.117 87.5822 583.801 86.5528 584.367C85.5233 584.934 84.3032 585.207 82.8353 585.207C81.2529 585.207 79.8804 584.875 78.7556 584.191ZM86.4193 572.958C86.038 572.313 85.5233 571.845 84.8942 571.532C84.2651 571.219 83.5788 571.063 82.8162 571.063C81.558 571.063 80.5667 571.434 79.8232 572.157C79.0797 572.88 78.6221 573.954 78.4506 575.361H87.0675C87.0293 574.404 86.8006 573.603 86.4193 572.958Z" fill="#F6EED8"/>
<path d="M94.6741 584.426C93.6446 583.898 92.8821 583.214 92.4055 582.394C91.9289 581.573 91.6429 580.655 91.6047 579.659H94.4453C94.5024 580.186 94.6741 580.675 94.96 581.144C95.246 581.613 95.6845 582.003 96.2754 582.316C96.8664 582.628 97.6099 582.785 98.525 582.785C99.5735 582.785 100.393 582.589 100.984 582.179C101.575 581.769 101.88 581.241 101.88 580.597C101.88 579.991 101.651 579.522 101.194 579.171C100.736 578.819 99.9357 578.545 98.7537 578.291L97.3049 577.998C95.4556 577.666 94.1784 577.1 93.4349 576.318C92.7104 575.537 92.3483 574.521 92.3483 573.251C92.3483 572.392 92.596 571.61 93.0726 570.926C93.5492 570.243 94.2356 569.676 95.1125 569.246C95.9895 568.816 96.9808 568.621 98.0675 568.621C100.165 568.621 101.747 569.09 102.814 570.008C103.882 570.926 104.511 572.04 104.645 573.349H101.747C101.575 572.626 101.194 572.079 100.584 571.669C99.9738 571.258 99.1159 571.063 98.0293 571.063C97.1142 571.063 96.3898 571.239 95.8941 571.61C95.3985 571.981 95.1316 572.45 95.1316 573.036C95.1316 573.583 95.3603 574.013 95.8179 574.306C96.2754 574.619 97.057 574.873 98.1437 575.107L99.7451 575.42C101.48 575.771 102.795 576.357 103.672 577.158C104.549 577.959 104.988 579.034 104.988 580.382C104.988 581.3 104.74 582.14 104.244 582.882C103.749 583.625 103.024 584.191 102.052 584.602C101.08 585.012 99.8976 585.207 98.525 585.207C96.9808 585.207 95.6845 584.953 94.6741 584.426Z" fill="#F6EED8"/>
<path d="M107.676 565.417C107.333 565.026 107.161 564.558 107.161 564.011C107.161 563.464 107.333 562.995 107.676 562.624C108.019 562.252 108.495 562.057 109.106 562.057C109.697 562.057 110.173 562.252 110.535 562.643C110.898 563.034 111.069 563.483 111.069 564.011C111.069 564.558 110.898 565.026 110.535 565.417C110.173 565.808 109.697 566.003 109.106 566.003C108.476 566.003 108 565.808 107.676 565.417ZM107.561 569.09H110.669V584.738H107.561V569.09Z" fill="#F6EED8"/>
<path d="M115.702 589.114C114.482 588.138 113.814 586.79 113.681 585.07H116.788C116.826 585.93 117.189 586.653 117.856 587.239C118.523 587.825 119.572 588.118 121.001 588.118C122.431 588.118 123.556 587.708 124.376 586.907C125.196 586.106 125.596 584.934 125.596 583.39V581.495C125.043 582.277 124.3 582.882 123.384 583.293C122.469 583.703 121.402 583.918 120.22 583.918C118.981 583.918 117.856 583.625 116.807 583.019C115.759 582.414 114.939 581.554 114.31 580.421C113.7 579.288 113.395 577.959 113.395 576.455C113.395 574.892 113.7 573.525 114.291 572.352C114.882 571.18 115.702 570.262 116.75 569.617C117.799 568.973 118.981 568.66 120.315 568.66C121.631 568.66 122.717 568.895 123.556 569.344C124.414 569.813 125.1 570.379 125.672 571.044V569.09H128.665V583.117C128.665 585.481 127.96 587.298 126.568 588.606C125.176 589.915 123.327 590.56 121.021 590.56C118.695 590.58 116.922 590.091 115.702 589.114ZM123.594 580.792C124.3 580.362 124.833 579.757 125.215 578.995C125.596 578.233 125.787 577.354 125.787 576.396C125.787 575.322 125.596 574.404 125.215 573.622C124.833 572.841 124.3 572.255 123.613 571.845C122.927 571.434 122.107 571.239 121.135 571.239C120.144 571.239 119.305 571.434 118.618 571.845C117.932 572.255 117.398 572.841 117.036 573.622C116.674 574.404 116.483 575.322 116.483 576.396C116.483 577.881 116.903 579.112 117.722 580.03C118.561 580.968 119.686 581.437 121.116 581.437C122.069 581.437 122.908 581.222 123.594 580.792Z" fill="#F6EED8"/>
<path d="M132.344 569.09H135.357V571.2C135.7 570.575 136.291 569.989 137.11 569.442C137.93 568.895 138.96 568.621 140.218 568.621C141.324 568.621 142.296 568.856 143.135 569.305C143.974 569.754 144.641 570.438 145.136 571.317C145.632 572.196 145.88 573.29 145.88 574.56V584.719H142.811V574.97C142.811 574.072 142.677 573.329 142.391 572.782C142.105 572.235 141.724 571.825 141.228 571.571C140.733 571.317 140.123 571.2 139.436 571.2C138.521 571.2 137.759 571.434 137.168 571.884C136.577 572.352 136.138 572.978 135.871 573.759C135.604 574.54 135.471 575.478 135.471 576.553V584.719H132.364V569.09H132.344Z" fill="#F6EED8"/>
<path d="M806.578 357H660.18V628.003H806.578V357Z" fill="#151915"/>
<path d="M528.514 357.011H397.002V492.507H528.514V357.011Z" fill="#343D4C"/>
<path d="M528.514 492.507H397.002V628.004H528.514V492.507Z" fill="#95A59C"/>
<path d="M660.026 492.507H528.514V628.004H660.026V492.507Z" fill="#EBE0CF"/>
<path d="M660.026 357.011H528.514V492.507H660.026V357.011Z" fill="#95A59C"/>
<path d="M397.002 492.507L528.514 627.993H397.002V492.507Z" fill="#151915"/>
<path d="M660.016 492.506L528.514 357.01H660.016V492.506Z" fill="#343D4C"/>
<path d="M528.514 470.104V447.706H505.801V470.104H528.514Z" fill="#151915"/>
<path d="M505.801 421.695V406.511C505.801 404.521 507.439 402.904 509.454 402.904H524.851C526.866 402.904 528.504 404.521 528.504 406.511V421.685C528.504 423.675 526.866 425.292 524.851 425.292H509.454C507.439 425.302 505.801 423.685 505.801 421.695Z" fill="#151915"/>
<path d="M528.52 380.508V357.011H505.807V380.508H528.52Z" fill="#151915"/>
<path d="M484.682 380.505V357.008H461.969V380.505H484.682Z" fill="#151915"/>
<path d="M505.809 492.499V470.101H484.156V492.499H505.809Z" fill="#151915"/>
<path d="M505.804 447.7V425.302H484.151V447.7H505.804Z" fill="#151915"/>
<path d="M505.8 402.899V380.501H484.147V402.899H505.8Z" fill="#151915"/>
<path d="M462.496 466.492V451.318C462.496 449.328 464.133 447.711 466.148 447.711H480.485C482.501 447.711 484.138 449.328 484.138 451.318V466.492C484.138 468.482 482.501 470.099 480.485 470.099H466.148C464.133 470.099 462.496 468.482 462.496 466.492Z" fill="#151915"/>
<path d="M484.148 425.301V402.903H462.495V425.301H484.148Z" fill="#151915"/>
<path d="M462.499 492.504V470.106H440.846V492.504H462.499Z" fill="#151915"/>
<path d="M462.495 447.703V425.305H440.842V447.703H462.495Z" fill="#151915"/>
<path d="M440.843 399.287V384.114C440.843 382.124 442.48 380.507 444.496 380.507H458.833C460.848 380.507 462.485 382.124 462.485 384.114V399.287C462.485 401.277 460.848 402.894 458.833 402.894H444.496C442.48 402.905 440.843 401.288 440.843 399.287Z" fill="#151915"/>
<path d="M440.844 380.502V357.005H418.131V380.502H440.844Z" fill="#151915"/>
<path d="M440.313 470.098V447.7H418.661V470.098H440.313Z" fill="#151915"/>
<path d="M440.31 425.298V402.9H418.657V425.298H440.31Z" fill="#151915"/>
<path d="M397.002 488.889V473.715C397.002 471.725 398.639 470.109 400.654 470.109H414.992C417.007 470.109 418.644 471.725 418.644 473.715V488.889C418.644 490.879 417.007 492.496 414.992 492.496H400.654C398.639 492.506 397.002 490.89 397.002 488.889Z" fill="#151915"/>
<path d="M418.656 447.701V425.303H397.004V447.701H418.656Z" fill="#151915"/>
<path d="M418.653 402.901V380.503H397V402.901H418.653Z" fill="#151915"/>
<path d="M768.412 372.422C770.165 369.448 770.165 366.681 767.237 364.411C765.746 363.26 765.127 362.193 765.977 360.265C766.723 358.586 765.809 357.145 763.836 357.083C759.606 356.959 755.366 357.041 751.126 357.041C751.105 360.068 753.634 361.892 753.309 364.431C753.099 366.1 753.96 366.649 755.188 367.333C758.494 369.168 758.924 371.718 755.608 373.293C751.504 375.242 749.205 379.066 745.406 381.181C744.702 381.574 743.695 381.999 743.894 382.922C744.125 383.969 745.248 383.73 746.014 383.658C749.352 383.357 752.742 383.233 755.985 382.528C758.19 382.051 760.047 380.89 761.884 379.077C764.12 376.859 765.82 374.07 768.528 372.298C767.699 376.548 765.872 380.227 762.22 382.86C761.349 383.482 760.016 383.938 759.701 384.767C758.095 388.975 754.317 389.296 750.664 389.939C743.884 391.131 737.03 391.918 730.386 393.763C729.851 392.83 732.034 392.592 730.848 391.317C725.758 392.291 721.622 394.997 718.61 399.08C716.059 402.532 716.931 406.159 719.995 409.227C721.969 411.207 723.249 414.047 725.904 415.145C729.263 416.545 730.691 418.856 730.88 422.162C731.079 425.655 730.061 428.785 726.87 430.62C723.522 432.547 721.864 435.968 719.061 438.352C718.274 439.025 718.043 440.435 717.781 441.554C717.13 444.301 718.925 446.187 720.971 447.151C723.071 448.146 724.299 445.71 725.569 444.508C727.321 442.85 726.765 441.502 724.225 441.119C724.11 441.098 724.078 440.29 724.089 439.844C724.141 434.092 727.888 431.293 734.144 432.247C734.469 432.299 735.036 431.894 735.204 431.573C735.739 430.547 736.873 430.267 737.607 429.573C739.937 427.344 742.131 424.878 741.638 421.395C741.155 417.964 738.206 417.052 735.319 416.586C732.37 416.109 731.047 413.414 728.004 412.668C729.998 411.632 731.467 412.274 732.076 413.249C733.419 415.425 735.582 415.425 737.628 415.819C740.032 416.275 742.33 416.928 743.947 418.845C745.731 420.96 745.574 423.779 746.035 426.215C746.686 429.676 741.029 436.144 737.345 437.222C734.836 437.958 734.857 440.196 734.647 442.072C734.459 443.752 734.994 445.555 737.124 445.752C741.459 446.135 746.025 446.768 750.045 444.943C757.602 441.513 761.065 434.206 765.652 428.018C766.565 426.785 766.177 425.748 764.414 425.696C761.622 425.603 761.569 424.08 762.451 422.131C762.934 421.063 763.395 419.923 764.151 419.053C770.407 411.839 778.646 407.672 787.693 404.905C793.057 403.267 798.567 402.076 803.552 399.453C805.704 398.324 807.499 396.727 807.499 394.022C807.499 382.424 807.488 370.826 807.499 359.228C807.499 357.891 807.257 357 805.557 357C793.424 357.031 781.28 357.01 769.147 357.031C768.381 357.031 767.174 356.803 767.541 358.161C768.171 360.503 767.646 363.094 769.368 365.198C771.572 367.883 771.036 370.298 768.412 372.422ZM807.467 400.034C804.57 402.096 802.156 403.35 799.543 403.496C793.529 403.827 788.344 406.709 782.771 408.325C776.515 410.139 771.572 414.098 767.373 418.897C766.712 419.654 765.851 420.68 766.45 421.748C767.006 422.732 767.919 421.83 768.696 421.716C770.826 421.416 771.047 422.805 770.417 424.09C767.93 429.158 764.865 433.926 761.317 438.341C759.785 440.248 757.833 441.844 756.374 443.886C751.829 450.25 745.437 454.717 738.52 457.961C733.755 460.2 730.124 463.444 727.752 467.352C724.865 472.109 721.024 475.104 716.29 477.478C714.254 478.504 712.218 479.478 710.843 481.385C709.29 483.541 708.859 485.624 711 487.677C713.089 489.677 712.522 491.957 711.546 494.165C710.35 496.87 708.135 498.705 705.48 499.928C700.694 502.146 698.217 506.934 693.871 509.65C692.927 510.24 692.654 511.629 692.58 512.842C692.444 515.039 693.546 516.718 695.708 515.744C699.843 513.878 704.157 515.049 707.526 516.2C715.839 519.05 722.126 514.542 728.644 511.764C732.916 509.95 736.831 507.007 741.291 505.245C745.269 503.669 747.946 500.663 750.034 497.202C751.934 494.051 750.727 492.185 747.19 492.278C743.191 492.382 740.042 493.937 737.775 497.222C736.537 499.015 735.277 500.84 732.055 502.083C735.288 497.741 737.355 493.854 739.79 490.268C745.007 482.577 751.861 477.53 761.926 475.726C767.835 474.669 774.364 474.431 780.042 470.938C784.303 468.316 789.005 466.471 792.017 462.314C793.602 460.128 794.683 457.526 796.499 455.557C803.08 448.436 805.337 439.212 807.037 430.578C808.916 421.001 807.467 410.803 807.467 400.034ZM648.488 550.538C649.684 548.993 650.272 546.133 652.256 546.413C656.674 547.045 658.48 543.832 659.938 541.427C662.09 537.883 664.945 536.67 668.671 536.255C670.928 536.007 673.216 535.893 675.315 534.887C676.532 534.307 677.928 533.55 677.634 532.12C677.288 530.368 675.514 530.317 674.097 530.565C667.915 531.664 662.059 533.954 656.884 537.219C653.337 539.458 650.261 542.567 646.808 545.096C644.457 546.827 642.694 549.781 643.292 551.947C644.289 555.523 642.988 558.177 641.067 560.26C634.35 567.536 634.266 575.848 636.229 584.606C636.722 586.824 637.362 589.239 636.176 591.084C634.99 592.939 635.168 594.598 635.389 596.411C635.725 599.199 636.26 601.956 636.554 604.745C636.858 607.605 637.929 610.176 639.367 612.632C639.923 613.575 640.679 614.425 641.949 614.125C643.145 613.845 643.649 612.808 643.785 611.741C644.216 608.424 643.334 605.553 640.784 603.148C638.181 600.702 637.257 595.354 639.241 593.157C642.474 589.581 642.306 585.985 640.217 582.025C639.251 580.201 639.43 578.159 639.85 576.169C640.122 574.874 640.773 573.589 640.091 571.744C637.383 574.884 637.645 578.47 636.974 582.492C636.229 577.258 637.404 573.184 639.388 569.215C640.584 566.831 641.382 567.432 642.148 569.64C644.499 564.437 644.499 564.437 645.696 563.701C643.46 567.484 642.799 571.889 641.749 576.159C641.623 576.688 641.655 577.434 641.959 577.838C644.174 580.823 645.108 584.15 645.349 587.788C645.538 590.607 647.333 591.333 650.093 590.628C656.15 589.084 658.773 583.228 663.885 580.481C665.27 579.735 666.509 577.558 663.727 576.014C661.87 574.977 662.185 573.06 663.182 571.682C668.272 564.634 672.869 557.036 681.182 553.036C687.102 550.185 692.633 546.765 697.975 543.044C700.379 541.376 702.856 539.23 701.901 535.872C701.376 534.037 696.065 533.447 692.864 534.69C690.964 535.437 689.085 536.494 687.028 536.297C680.269 535.644 674.024 539.292 667.223 538.38C665.302 538.121 664.158 539.883 662.814 541.065C660.211 543.345 657.671 545.936 654.607 547.377C652.56 548.361 650.062 548.444 648.488 550.538ZM583.088 566.406C580.37 567.909 578.176 569.07 576.046 570.313C575.458 570.655 574.828 571.236 575.164 572.034C575.542 572.936 576.476 572.822 576.959 572.366C580.045 569.453 584.642 568.976 587.654 566.085C592.965 561.006 597.94 555.637 601.55 549.19C602.999 546.599 603.503 543.987 603.261 541.116C603.093 539.043 601.897 537.893 599.934 538.525C594.602 540.225 589.627 543.013 586.856 547.719C585.24 550.455 583.519 552.663 581.052 554.539C578.008 556.871 575.332 559.503 573.81 563.11C573.327 564.261 572.414 565.297 571.533 566.23C569.129 568.738 567.135 571.474 565.97 574.749C564.815 577.973 562.779 580.481 559.683 582.15C558.959 582.544 558.213 583 557.668 583.601C556.88 584.482 555.128 585.332 556.293 586.689C557.122 587.664 558.518 586.886 559.567 586.254C562.265 584.627 564.511 582.554 566.19 579.921C570.137 573.775 574.083 567.619 583.088 566.406ZM684.677 508.976C686.419 509.65 687.668 509.308 688.655 508.758C692.685 506.488 697.345 505.307 697.818 499.078C698.122 495.046 700.463 490.859 704.346 488.153C705.711 487.21 706.771 485.884 707.526 484.391C707.883 483.676 708.45 482.95 707.841 482.111C707.264 481.302 706.382 481.396 705.553 481.468C702.362 481.727 697.387 485.697 696.674 488.848C696.201 490.91 695.099 492.475 693.714 493.958C689.925 498.01 686.283 502.021 680.773 504.239C677.099 505.721 673.688 507.079 669.742 506.105C664.861 504.903 660.484 505.918 656.443 508.717C655.478 509.38 654.523 510.582 653.337 510.292C649.075 509.245 646.43 512.023 643.974 514.314C640.647 517.413 637.184 520.211 633.227 522.471C630.267 524.16 628.472 526.699 627.685 529.923C627.486 530.752 626.635 531.799 627.863 532.4C628.808 532.866 629.417 531.882 629.879 531.291C633.395 526.803 638.107 523.642 642.348 519.931C650.566 512.738 661.009 511.847 670.508 508.292C671.767 507.815 673.447 507.877 674.78 508.23C678.201 509.1 681.518 510.686 684.677 508.976ZM577.998 586.648C569.349 594.929 561.184 600.868 550.751 604.133C543.582 606.372 537.684 611.647 534.493 618.903C533.832 620.416 532.845 622.053 534.451 623.473C535.794 624.645 537.568 624.873 539.237 624.157C540.601 623.567 541.787 622.613 543.131 621.939C547.172 619.918 550.478 614.373 553.805 614.549C560.869 614.923 561.95 610.901 563.587 606.444C564.311 604.485 565.665 603.045 566.967 601.449C570.493 597.106 576.466 594.608 577.998 586.648ZM655.877 602.941C656.485 606.133 657.021 609.336 657.745 612.497C657.965 613.461 658.574 614.643 659.834 614.591C661.229 614.539 661.261 613.233 661.439 612.228C661.576 611.43 661.775 610.569 661.628 609.792C660.421 603.397 661.723 597.355 664.242 591.478C664.746 590.296 665.155 589.084 665.659 587.902C666.005 587.083 666.121 586.233 665.417 585.643C664.662 585 663.769 585.352 663.14 585.922C662.09 586.866 660.705 587.747 660.232 588.939C658.469 593.468 655.751 597.769 655.877 602.941ZM610.01 557.171C606.337 561.338 605.077 565.442 604.384 569.733C603.881 572.842 602.642 575.548 600.532 577.89C599.241 579.32 598.213 580.875 597.678 582.699C597.447 583.497 597.384 584.409 598.192 584.938C599.031 585.487 599.829 584.99 600.448 584.42C601.865 583.103 602.904 581.683 602.736 579.538C602.464 576.149 604.153 573.982 607.334 572.459C610.325 571.039 612.193 568.448 612.718 565.141C612.802 564.613 612.686 563.628 612.435 563.556C609.485 562.675 610.241 560.166 610.01 557.171ZM621.608 524.885C623.497 521.766 627.076 521.299 629.858 519.631C631.442 518.677 634.192 517.35 633.269 515.816C631.967 513.65 629.532 515.526 628.063 516.677C622.93 520.698 617.861 524.803 613.012 529.135C611.49 530.493 610.755 532.659 610.461 534.908C612.928 531.021 616.979 529.601 620.915 528.016C621.671 527.715 622.406 527.249 623.004 526.71C623.56 526.202 624.599 525.642 623.906 524.72C623.256 523.828 622.479 525.072 621.608 524.885ZM632.88 590.97C632.23 593.882 631.096 596.785 631.075 599.697C631.054 602.879 631.306 606.175 632.387 609.284C632.576 609.844 632.891 610.445 633.563 610.31C633.888 610.248 634.339 609.606 634.308 609.264C634.003 606.247 635.809 603.397 634.906 600.309C634.024 597.303 633.531 594.204 632.88 590.97ZM585.88 583.165C591.768 582.129 594.707 577.61 598.171 573.765C598.874 572.977 599.85 571.412 598.864 570.624C597.562 569.598 596.45 571.153 595.736 572.044C592.65 575.89 590.53 580.533 585.88 583.165ZM630.54 591.167C631.39 588.565 634.812 586.855 633.437 583.155C630.508 585.404 630.047 588.151 630.54 591.167Z" fill="#BF3B24"/>
<rect x="806" y="357" width="542" height="271" fill="#343D4C"/>
<path d="M841.266 431.738C837.69 429.637 834.929 426.68 832.955 422.879C830.994 419.079 830 414.753 830 409.917C830 405.218 830.966 400.975 832.913 397.189C834.86 393.416 837.607 390.431 841.183 388.261C844.759 386.092 848.887 385 853.595 385C858.344 385 862.362 385.926 865.661 387.778C868.961 389.63 871.488 391.979 873.255 394.84C875.022 397.686 876.127 400.699 876.582 403.864H869.058C868.561 401.514 867.691 399.386 866.448 397.479C865.206 395.572 863.521 394.066 861.395 392.932C859.269 391.799 856.646 391.233 853.526 391.233C850.447 391.233 847.713 391.965 845.283 393.444C842.867 394.909 840.962 397.051 839.595 399.856C838.215 402.661 837.524 406.006 837.524 409.903C837.524 413.745 838.215 417.089 839.595 419.908C840.976 422.741 842.867 424.883 845.283 426.362C847.7 427.827 850.447 428.573 853.526 428.573C856.646 428.573 859.283 428.006 861.423 426.873C863.563 425.74 865.261 424.22 866.504 422.299C867.746 420.378 868.616 418.236 869.113 415.887H876.706C876.347 419.01 875.271 422.023 873.49 424.911C871.709 427.813 869.141 430.19 865.8 432.069C862.458 433.949 858.372 434.889 853.526 434.889C848.928 434.889 844.842 433.838 841.266 431.738Z" fill="#EBE0CF"/>
<path d="M893.025 431.71C889.159 429.582 886.108 426.625 883.872 422.824C881.635 419.024 880.517 414.754 880.517 410C880.517 405.246 881.635 400.975 883.872 397.175C886.108 393.375 889.159 390.403 893.025 388.248C896.891 386.106 901.129 385.028 905.741 385.028C910.393 385.028 914.646 386.106 918.484 388.248C922.322 390.403 925.359 393.375 927.596 397.175C929.832 400.975 930.951 405.246 930.951 410C930.951 414.754 929.832 419.024 927.596 422.824C925.359 426.625 922.322 429.582 918.484 431.71C914.646 433.838 910.393 434.902 905.741 434.902C901.129 434.889 896.891 433.838 893.025 431.71ZM914.894 426.376C917.559 424.856 919.643 422.686 921.162 419.867C922.681 417.034 923.44 413.745 923.44 410C923.44 406.199 922.681 402.896 921.162 400.091C919.643 397.286 917.545 395.116 914.853 393.582C912.16 392.048 909.123 391.274 905.741 391.274C902.399 391.274 899.362 392.048 896.656 393.582C893.95 395.116 891.838 397.286 890.319 400.091C888.8 402.896 888.041 406.199 888.041 410C888.041 413.759 888.8 417.048 890.319 419.867C891.838 422.7 893.936 424.869 896.628 426.376C899.321 427.896 902.358 428.642 905.741 428.642C909.178 428.656 912.229 427.896 914.894 426.376Z" fill="#EBE0CF"/>
<path d="M938.351 386.036H950.017L964.182 426.541L978.486 386.036H989.738V433.879H982.752L982.959 391.882L968.117 433.879H959.985L945.13 391.868L945.254 433.879H938.351V386.036Z" fill="#EBE0CF"/>
<path d="M1000.18 386.036H1007.3V433.879H1000.18V386.036Z" fill="#EBE0CF"/>
<path d="M1017.72 386.036H1028.23L1050.53 424.924V386.036H1057.58V433.879H1048.1L1024.78 393.167V433.879H1017.72V386.036Z" fill="#EBE0CF"/>
<path d="M1076.74 431.737C1072.92 429.637 1070.02 426.707 1068.03 422.948C1066.04 419.189 1065.05 414.877 1065.05 409.985C1065.05 405.149 1066.03 400.837 1068.01 397.064C1069.97 393.291 1072.75 390.334 1076.37 388.206C1079.99 386.078 1084.17 385.013 1088.91 385.013C1093.06 385.013 1096.64 385.732 1099.65 387.155C1102.66 388.579 1105.02 390.527 1106.73 392.987C1108.44 395.447 1109.51 398.225 1109.92 401.293H1102.33C1101.65 397.99 1100.19 395.475 1097.95 393.734C1095.71 391.992 1092.57 391.122 1088.49 391.122C1085.41 391.122 1082.67 391.896 1080.22 393.43C1077.78 394.963 1075.87 397.161 1074.49 400.008C1073.11 402.854 1072.42 406.185 1072.42 409.985C1072.42 413.827 1073.15 417.172 1074.63 420.032C1076.1 422.879 1078.15 425.049 1080.8 426.541C1083.45 428.034 1086.51 428.78 1089.98 428.78C1092.75 428.78 1095.3 428.434 1097.65 427.73C1099.99 427.025 1101.91 426.154 1103.4 425.118V414.325H1088.08V408.355H1110.04V428.78C1107.96 430.452 1105.05 431.889 1101.31 433.092C1097.55 434.294 1093.88 434.888 1090.26 434.888C1085.07 434.888 1080.55 433.838 1076.74 431.737Z" fill="#EBE0CF"/>
<path d="M1138.15 432.829C1135.28 431.447 1133.07 429.568 1131.51 427.191C1129.95 424.814 1129.08 422.16 1128.9 419.217H1135.96C1136.14 420.889 1136.68 422.451 1137.55 423.902C1138.43 425.353 1139.77 426.555 1141.58 427.495C1143.39 428.448 1145.67 428.918 1148.43 428.918C1151.01 428.918 1153.16 428.545 1154.9 427.799C1156.64 427.053 1157.92 426.085 1158.73 424.91C1159.54 423.736 1159.94 422.464 1159.94 421.11C1159.94 419.037 1159.25 417.351 1157.87 416.094C1156.49 414.822 1153.98 413.882 1150.32 413.247L1145.38 412.293C1140.27 411.436 1136.58 409.902 1134.33 407.677C1132.07 405.466 1130.93 402.454 1130.93 398.653C1130.93 396.263 1131.61 394.01 1132.96 391.896C1134.32 389.795 1136.26 388.123 1138.79 386.879C1141.32 385.635 1144.26 385.013 1147.6 385.013C1151.57 385.013 1154.9 385.732 1157.59 387.155C1160.29 388.579 1162.33 390.417 1163.72 392.656C1165.12 394.894 1165.96 397.299 1166.24 399.883H1159.11C1158.75 398.17 1158.15 396.636 1157.28 395.309C1156.42 393.968 1155.19 392.904 1153.62 392.089C1152.03 391.274 1150.04 390.873 1147.65 390.873C1145.39 390.873 1143.51 391.232 1142.02 391.965C1140.53 392.683 1139.42 393.595 1138.69 394.673C1137.97 395.765 1137.6 396.912 1137.6 398.128C1137.6 400.215 1138.28 401.79 1139.63 402.882C1140.98 403.974 1143.4 404.831 1146.88 405.466L1151.89 406.351C1156.9 407.208 1160.76 408.825 1163.42 411.201C1166.08 413.578 1167.42 416.729 1167.42 420.668C1167.42 423.377 1166.65 425.823 1165.09 427.992C1163.53 430.162 1161.32 431.862 1158.45 433.078C1155.58 434.294 1152.22 434.916 1148.38 434.916C1144.45 434.888 1141.03 434.211 1138.15 432.829Z" fill="#EBE0CF"/>
<path d="M1184.05 431.71C1180.18 429.582 1177.13 426.625 1174.89 422.824C1172.66 419.024 1171.54 414.754 1171.54 410C1171.54 405.246 1172.66 400.975 1174.89 397.175C1177.13 393.375 1180.18 390.403 1184.05 388.248C1187.91 386.106 1192.15 385.028 1196.76 385.028C1201.41 385.028 1205.67 386.106 1209.5 388.248C1213.34 390.403 1216.38 393.375 1218.62 397.175C1220.85 400.975 1221.97 405.246 1221.97 410C1221.97 414.754 1220.85 419.024 1218.62 422.824C1216.38 426.625 1213.34 429.582 1209.5 431.71C1205.67 433.838 1201.41 434.902 1196.76 434.902C1192.15 434.889 1187.91 433.838 1184.05 431.71ZM1205.92 426.376C1208.58 424.856 1210.66 422.686 1212.18 419.867C1213.7 417.034 1214.46 413.745 1214.46 410C1214.46 406.199 1213.7 402.896 1212.18 400.091C1210.66 397.286 1208.57 395.116 1205.87 393.582C1203.18 392.048 1200.14 391.274 1196.76 391.274C1193.42 391.274 1190.38 392.048 1187.68 393.582C1184.97 395.116 1182.86 397.286 1181.34 400.091C1179.82 402.896 1179.06 406.199 1179.06 410C1179.06 413.759 1179.82 417.048 1181.34 419.867C1182.86 422.7 1184.96 424.869 1187.65 426.376C1190.34 427.896 1193.38 428.642 1196.76 428.642C1200.2 428.656 1203.25 427.896 1205.92 426.376Z" fill="#EBE0CF"/>
<path d="M1238.83 431.71C1234.96 429.582 1231.91 426.625 1229.68 422.824C1227.44 419.024 1226.32 414.754 1226.32 410C1226.32 405.246 1227.44 400.975 1229.68 397.175C1231.91 393.375 1234.96 390.403 1238.83 388.248C1242.7 386.106 1246.93 385.028 1251.54 385.028C1256.2 385.028 1260.45 386.106 1264.29 388.248C1268.13 390.403 1271.16 393.375 1273.4 397.175C1275.64 400.975 1276.75 405.246 1276.75 410C1276.75 414.754 1275.64 419.024 1273.4 422.824C1271.16 426.625 1268.13 429.582 1264.29 431.71C1260.45 433.838 1256.2 434.902 1251.54 434.902C1246.92 434.889 1242.7 433.838 1238.83 431.71ZM1260.68 426.376C1263.35 424.856 1265.43 422.686 1266.95 419.867C1268.47 417.034 1269.23 413.745 1269.23 410C1269.23 406.199 1268.47 402.896 1266.95 400.091C1265.43 397.286 1263.34 395.116 1260.64 393.582C1257.95 392.048 1254.91 391.274 1251.53 391.274C1248.19 391.274 1245.15 392.048 1242.45 393.582C1239.74 395.116 1237.63 397.286 1236.11 400.091C1234.59 402.896 1233.83 406.199 1233.83 410C1233.83 413.759 1234.59 417.048 1236.11 419.867C1237.63 422.7 1239.73 424.869 1242.42 426.376C1245.11 427.896 1248.15 428.642 1251.53 428.642C1254.97 428.656 1258.02 427.896 1260.68 426.376Z" fill="#EBE0CF"/>
<path d="M1284.14 386.036H1294.65L1316.95 424.924V386.036H1324V433.879H1314.52L1291.2 393.167V433.879H1284.14V386.036Z" fill="#EBE0CF"/>
<path d="M1270.12 593H1285.27C1270.74 562.791 1218.23 550.507 1218.23 550.507L1323.54 558.302V539.698L1218.23 547.493C1218.23 547.493 1270.74 535.209 1285.27 505H1270.12C1270.12 505 1247.16 540.346 1207 547.514V549V550.486C1247.16 557.654 1270.12 593 1270.12 593Z" fill="#EBE0CF"/>
<path d="M832.94 537.54H862.52V541.44H832.94V537.54ZM839.54 549.3H857.18V553.14H839.54V549.3ZM838.94 545.16L843.26 546.18C842.38 549.26 841.2 552.24 839.72 555.12C838.24 557.96 836.64 560.38 834.92 562.38C834.68 562.1 834.34 561.8 833.9 561.48C833.46 561.12 833 560.78 832.52 560.46C832.08 560.1 831.7 559.82 831.38 559.62C833.06 557.82 834.54 555.64 835.82 553.08C837.14 550.52 838.18 547.88 838.94 545.16ZM840.56 531.6H844.58V545.52H840.56V531.6ZM851.3 531.6H855.38V546.48H851.3V531.6ZM836.6 557.88H840.14V578.16H836.6V557.88ZM838.64 557.88H850.7V574.86H838.64V571.26H847.1V561.48H838.64V557.88ZM856.1 549.3H860.3C860.3 549.3 860.3 549.44 860.3 549.72C860.3 549.96 860.3 550.26 860.3 550.62C860.3 550.94 860.3 551.2 860.3 551.4C860.06 557.08 859.82 561.88 859.58 565.8C859.34 569.72 859.08 572.94 858.8 575.46C858.56 577.98 858.24 579.94 857.84 581.34C857.48 582.7 857.06 583.68 856.58 584.28C856.06 585 855.48 585.5 854.84 585.78C854.24 586.1 853.5 586.3 852.62 586.38C851.86 586.46 850.86 586.5 849.62 586.5C848.42 586.5 847.16 586.48 845.84 586.44C845.8 585.8 845.68 585.08 845.48 584.28C845.28 583.52 845 582.86 844.64 582.3C845.96 582.42 847.18 582.48 848.3 582.48C849.42 582.52 850.24 582.54 850.76 582.54C851.24 582.58 851.64 582.54 851.96 582.42C852.28 582.3 852.58 582.06 852.86 581.7C853.22 581.26 853.56 580.4 853.88 579.12C854.2 577.8 854.48 575.92 854.72 573.48C855 571.04 855.24 567.92 855.44 564.12C855.68 560.32 855.9 555.68 856.1 550.2V549.3ZM866 542.88H887.36V547.08H866V542.88ZM867.68 531.78L872.24 532.44C871.28 537.88 869.96 543.02 868.28 547.86C866.6 552.7 864.52 556.76 862.04 560.04C861.8 559.76 861.46 559.42 861.02 559.02C860.58 558.62 860.12 558.24 859.64 557.88C859.2 557.48 858.8 557.18 858.44 556.98C860.8 553.98 862.72 550.26 864.2 545.82C865.72 541.38 866.88 536.7 867.68 531.78ZM878.96 545.28L883.58 545.76C882.7 552.64 881.36 558.7 879.56 563.94C877.8 569.14 875.36 573.62 872.24 577.38C869.12 581.14 865.06 584.32 860.06 586.92C859.94 586.56 859.72 586.12 859.4 585.6C859.08 585.08 858.74 584.56 858.38 584.04C858.02 583.56 857.7 583.16 857.42 582.84C862.1 580.64 865.88 577.84 868.76 574.44C871.68 571 873.94 566.88 875.54 562.08C877.14 557.24 878.28 551.64 878.96 545.28ZM867.68 548.22C868.68 553.5 870.06 558.44 871.82 563.04C873.58 567.6 875.82 571.6 878.54 575.04C881.26 578.44 884.54 581.08 888.38 582.96C888.06 583.24 887.68 583.6 887.24 584.04C886.84 584.48 886.46 584.94 886.1 585.42C885.74 585.9 885.44 586.34 885.2 586.74C881.16 584.58 877.72 581.66 874.88 577.98C872.08 574.3 869.78 570 867.98 565.08C866.18 560.16 864.74 554.78 863.66 548.94L867.68 548.22ZM898.1 549.78H915.68V553.32H898.1V549.78ZM898.34 533.7H915.44V537.3H898.34V533.7ZM898.1 557.76H915.68V561.36H898.1V557.76ZM895.28 541.56H917.66V545.34H895.28V541.56ZM900.14 565.86H915.74V583.38H900.14V579.66H911.78V569.64H900.14V565.86ZM898.04 565.86H902V586.14H898.04V565.86ZM919.04 535.62H949.16V539.1H919.04V535.62ZM920.6 542.7H948.32V546H920.6V542.7ZM917.48 549.96H950.54V553.44H917.48V549.96ZM931.76 531.6H936.08V552.84H931.76V531.6ZM922.04 556.98H945.08V560.4H926.24V586.68H922.04V556.98ZM942.62 556.98H946.82V582C946.82 583.12 946.68 583.98 946.4 584.58C946.16 585.18 945.64 585.66 944.84 586.02C944.08 586.3 943.04 586.46 941.72 586.5C940.44 586.58 938.86 586.62 936.98 586.62C936.94 586.1 936.78 585.48 936.5 584.76C936.26 584.04 935.98 583.42 935.66 582.9C937.06 582.94 938.3 582.96 939.38 582.96C940.5 582.96 941.26 582.94 941.66 582.9C942.06 582.9 942.32 582.82 942.44 582.66C942.56 582.54 942.62 582.3 942.62 581.94V556.98ZM923.9 564.66H944.72V567.9H923.9V564.66ZM923.9 572.28H944.72V575.46H923.9V572.28ZM992.66 534.6H1009.28V538.68H992.66V534.6ZM992.66 548.34H1009.28V552.36H992.66V548.34ZM992.6 562.32H1009.4V566.4H992.6V562.32ZM1007.3 534.6H1011.62V581.04C1011.62 582.32 1011.46 583.32 1011.14 584.04C1010.82 584.8 1010.22 585.36 1009.34 585.72C1008.5 586.08 1007.34 586.3 1005.86 586.38C1004.42 586.5 1002.6 586.56 1000.4 586.56C1000.32 585.96 1000.14 585.22 999.86 584.34C999.58 583.5 999.28 582.78 998.96 582.18C1000.56 582.26 1002.04 582.3 1003.4 582.3C1004.76 582.3 1005.66 582.28 1006.1 582.24C1006.54 582.2 1006.84 582.1 1007 581.94C1007.2 581.78 1007.3 581.46 1007.3 580.98V534.6ZM990.8 534.6H995V556.38C995 558.66 994.92 561.14 994.76 563.82C994.64 566.5 994.38 569.22 993.98 571.98C993.58 574.74 992.96 577.42 992.12 580.02C991.32 582.58 990.24 584.92 988.88 587.04C988.64 586.8 988.3 586.5 987.86 586.14C987.42 585.78 986.96 585.44 986.48 585.12C986.04 584.84 985.64 584.62 985.28 584.46C986.96 581.78 988.18 578.82 988.94 575.58C989.74 572.34 990.24 569.06 990.44 565.74C990.68 562.38 990.8 559.26 990.8 556.38V534.6ZM959.12 539.58H987.86V543.6H959.12V539.58ZM966.14 548.94H981.38V552.54H966.14V548.94ZM966.2 558.42H981.44V562.08H966.2V558.42ZM958.28 568.14H987.86V572.16H958.28V568.14ZM964.22 532.32H968.3V569.76H964.22V532.32ZM979.22 532.32H983.42V569.76H979.22V532.32ZM966.68 573.42L970.94 574.62C969.86 576.9 968.5 579.14 966.86 581.34C965.26 583.5 963.66 585.32 962.06 586.8C961.78 586.56 961.42 586.26 960.98 585.9C960.54 585.58 960.08 585.26 959.6 584.94C959.16 584.62 958.74 584.36 958.34 584.16C960.02 582.8 961.6 581.18 963.08 579.3C964.56 577.42 965.76 575.46 966.68 573.42ZM975.26 575.28L978.74 573.42C979.54 574.34 980.34 575.34 981.14 576.42C981.98 577.46 982.76 578.5 983.48 579.54C984.2 580.58 984.76 581.52 985.16 582.36L981.44 584.52C981.12 583.68 980.6 582.74 979.88 581.7C979.2 580.62 978.46 579.52 977.66 578.4C976.86 577.24 976.06 576.2 975.26 575.28ZM1042.16 539.4H1073.6V543.48H1042.16V539.4ZM1039.34 561.96H1076.3V566.1H1039.34V561.96ZM1038.62 551.1H1076.72V555.24H1038.62V551.1ZM1055.36 531.9H1059.86V553.32H1055.36V531.9ZM1063.82 554.34H1068.26V581.34C1068.26 582.7 1068.08 583.72 1067.72 584.4C1067.4 585.08 1066.76 585.6 1065.8 585.96C1064.84 586.32 1063.58 586.52 1062.02 586.56C1060.46 586.64 1058.5 586.68 1056.14 586.68C1056.06 586.08 1055.86 585.36 1055.54 584.52C1055.26 583.72 1054.96 583 1054.64 582.36C1055.88 582.4 1057.02 582.42 1058.06 582.42C1059.14 582.46 1060.08 582.46 1060.88 582.42C1061.68 582.42 1062.24 582.42 1062.56 582.42C1063.04 582.42 1063.36 582.34 1063.52 582.18C1063.72 582.02 1063.82 581.74 1063.82 581.34V554.34ZM1043.9 569.76L1047.62 567.84C1048.58 568.84 1049.52 569.96 1050.44 571.2C1051.36 572.44 1052.22 573.68 1053.02 574.92C1053.82 576.12 1054.44 577.2 1054.88 578.16L1051.04 580.44C1050.64 579.44 1050.04 578.32 1049.24 577.08C1048.48 575.84 1047.64 574.58 1046.72 573.3C1045.8 572.02 1044.86 570.84 1043.9 569.76ZM1035.32 544.98L1039.28 546.54C1037.96 548.94 1036.4 551.32 1034.6 553.68C1032.84 556 1030.98 558.2 1029.02 560.28C1027.06 562.32 1025.1 564.14 1023.14 565.74C1023.02 565.38 1022.82 564.92 1022.54 564.36C1022.26 563.8 1021.94 563.24 1021.58 562.68C1021.26 562.12 1020.98 561.66 1020.74 561.3C1022.54 559.98 1024.34 558.44 1026.14 556.68C1027.98 554.92 1029.68 553.06 1031.24 551.1C1032.84 549.1 1034.2 547.06 1035.32 544.98ZM1034.3 531.72L1038.5 533.4C1037.34 535.16 1035.96 536.92 1034.36 538.68C1032.76 540.44 1031.06 542.1 1029.26 543.66C1027.5 545.22 1025.74 546.6 1023.98 547.8C1023.82 547.44 1023.6 547.04 1023.32 546.6C1023.04 546.12 1022.74 545.66 1022.42 545.22C1022.14 544.74 1021.88 544.36 1021.64 544.08C1023.2 543.04 1024.78 541.84 1026.38 540.48C1028.02 539.08 1029.54 537.64 1030.94 536.16C1032.34 534.64 1033.46 533.16 1034.3 531.72ZM1030.1 555.54L1034.24 551.34L1034.42 551.46V586.74H1030.1V555.54Z" fill="#F6EED8"/>
<defs>
<clipPath id="clip0_105_133">
<rect width="805" height="357" fill="white" transform="translate(1)"/>
</clipPath>
</defs>
</svg>
