<svg width="449" height="267" viewBox="0 0 449 267" fill="none" xmlns="http://www.w3.org/2000/svg">
<path d="M449 0H0V267H449V0Z" fill="#A84129"/>
<path d="M185.294 267C181.876 266.908 178.457 266.908 175.039 266.908H5.58035C3.72727 266.908 1.87416 266.845 0.0210783 266.817V239.668C17.1059 241.74 34.1861 243.811 51.2616 245.879C101.253 251.89 151.246 257.896 201.242 263.898C207.103 264.603 212.978 265.266 218.846 265.95C218.747 265.743 218.599 265.564 218.416 265.427C218.232 265.291 218.019 265.202 217.793 265.167C167.4 252.477 117.011 239.787 66.6267 227.098C44.4038 221.5 22.1948 215.881 0 210.241V177.763L39.3078 193.272L210.416 261.029L220.201 264.885L220.636 264.575L76.7414 179.081L77.3872 178.707L181.363 219.935C176.59 216.777 171.536 213.823 166.321 210.939C119.723 185.09 73.1101 159.229 26.4836 133.355C17.7306 128.512 8.83724 123.746 0.0140522 118.938V89.1316C0.680069 89.4472 1.32909 89.7979 1.9584 90.182C11.8134 97.1755 21.6544 104.171 31.4813 111.17L177.039 215.042C179.314 216.671 181.679 218.257 184.002 219.857C183.879 218.943 183.457 218.095 182.802 217.446C151.389 180.148 119.973 142.838 88.5548 105.516C66.8092 79.666 45.0939 53.8164 23.4092 27.9669C15.688 18.802 7.84053 9.17189 0.0351305 0H3.58682C57.0547 0 110.525 0 163.998 0C164.087 1.33292 164.246 2.66018 164.475 3.97614C167.248 16.1865 170.09 28.3969 172.898 40.6355C177.489 60.723 182.077 80.8057 186.663 100.884C191.118 120.299 195.587 139.717 200.07 159.137C203.642 174.647 207.25 190.156 210.795 205.666C214.396 221.408 217.927 237.158 221.513 252.9C222.356 256.594 223.289 260.288 224.321 264.469C224.883 263.764 225.121 263.623 225.17 263.433C226.75 256.672 228.336 249.911 229.88 243.15C234.522 222.767 239.155 202.386 243.778 182.007C248.406 161.797 253.065 141.571 257.754 121.328C262.218 101.913 266.677 82.4977 271.132 63.0823C274.698 47.488 278.201 31.8866 281.788 16.2993C283.044 10.8568 284.483 5.43546 285.831 0C339.177 0 392.284 0 445.617 0H448.986C445.659 3.87743 442.276 8.18491 438.998 12.0764L273.575 208.782C270.515 212.42 267.473 216.058 264.45 219.695C265.586 219.418 266.652 218.907 267.581 218.194C280.08 209.264 292.576 200.334 305.07 191.404C345.52 162.584 385.981 133.769 426.454 104.959C433.902 99.6571 441.482 94.419 449 89.1527V118.995C448.193 119.376 447.329 119.7 446.585 120.137C430.081 129.259 413.586 138.391 397.1 147.533C355.293 170.727 313.486 193.923 271.68 217.122C270.157 217.968 268.437 218.708 266.815 219.505L267.665 220.006L371.683 178.771C371.753 179.398 371.381 179.701 370.932 179.962C353.496 190.34 336.053 200.717 318.603 211.094C288.861 228.747 259.125 246.405 229.396 264.067C228.82 264.413 228.799 265.047 228.519 265.548L228.441 265.505C229.802 265.684 231.176 265.752 232.548 265.71C242.676 264.554 252.77 263.32 262.878 262.107C304.31 257.116 345.756 252.132 387.217 247.155C407.806 244.682 428.396 242.187 448.986 239.668V266.838C447.4 266.838 445.813 266.93 444.227 266.93H266.991" fill="#131915"/>
</svg>
