<svg width="430" height="236" viewBox="0 0 430 236" fill="none" xmlns="http://www.w3.org/2000/svg">
<path d="M429.675 0H0V235.197H429.675V0Z" fill="#469B70"/>
<path d="M347.531 186.74C352.237 187.988 356.235 189.772 359.417 192.04C361.904 193.824 363.909 195.904 365.353 198.252C367.332 201.445 367.866 204.504 367.88 205.685V205.671L372.947 205.712C372.947 205.524 372.947 201.056 369.845 195.89C368.067 192.912 365.62 190.282 362.572 188.068C362.024 187.666 361.436 187.277 360.847 186.901H399.485V181.695L360.847 181.695C361.436 181.32 362.024 180.931 362.572 180.528C365.62 178.301 368.067 175.671 369.845 172.706C372.947 167.54 372.947 163.073 372.947 162.885L367.88 162.925V162.912C367.866 164.092 367.332 167.151 365.353 170.345C363.896 172.679 361.904 174.772 359.417 176.557C356.235 178.838 352.237 180.622 347.531 181.856V186.74Z" fill="black"/>
<path d="M60.8986 40.4417H56.4226C56.1579 39.1542 55.6947 38.0232 55.0329 37.0486C54.3832 36.074 53.589 35.2558 52.6505 34.5941C51.7241 33.9203 50.6953 33.4149 49.5643 33.078C48.4333 32.7411 47.2541 32.5727 46.0269 32.5727C43.7889 32.5727 41.7615 33.1382 39.9446 34.2692C38.1398 35.4002 36.702 37.0667 35.6311 39.2685C34.5723 41.4704 34.0429 44.1716 34.0429 47.3722C34.0429 50.5727 34.5723 53.2739 35.6311 55.4758C36.702 57.6777 38.1398 59.3441 39.9446 60.4752C41.7615 61.6062 43.7889 62.1717 46.0269 62.1717C47.2541 62.1717 48.4333 62.0032 49.5643 61.6663C50.6953 61.3294 51.7241 60.8301 52.6505 60.1683C53.589 59.4945 54.3832 58.6703 55.0329 57.6957C55.6947 56.7091 56.1579 55.5781 56.4226 54.3027H60.8986C60.5617 56.1917 59.948 57.8822 59.0577 59.3742C58.1673 60.8662 57.0603 62.1356 55.7368 63.1824C54.4133 64.2171 52.9273 65.0053 51.2789 65.5467C49.6425 66.0881 47.8918 66.3589 46.0269 66.3589C42.8744 66.3589 40.071 65.5888 37.6164 64.0487C35.1618 62.5086 33.2307 60.3187 31.8229 57.4792C30.4152 54.6396 29.7113 51.2706 29.7113 47.3722C29.7113 43.4738 30.4152 40.1048 31.8229 37.2652C33.2307 34.4256 35.1618 32.2358 37.6164 30.6956C40.071 29.1555 42.8744 28.3855 46.0269 28.3855C47.8918 28.3855 49.6425 28.6562 51.2789 29.1976C52.9273 29.7391 54.4133 30.5332 55.7368 31.58C57.0603 32.6148 58.1673 33.8781 59.0577 35.3701C59.948 36.8501 60.5617 38.5406 60.8986 40.4417ZM99.3186 47.3722C99.3186 51.2706 98.6148 54.6396 97.207 57.4792C95.7993 60.3187 93.8681 62.5086 91.4135 64.0487C88.959 65.5888 86.1555 66.3589 83.0031 66.3589C79.8507 66.3589 77.0472 65.5888 74.5926 64.0487C72.1381 62.5086 70.2069 60.3187 68.7992 57.4792C67.3914 54.6396 66.6875 51.2706 66.6875 47.3722C66.6875 43.4738 67.3914 40.1048 68.7992 37.2652C70.2069 34.4256 72.1381 32.2358 74.5926 30.6956C77.0472 29.1555 79.8507 28.3855 83.0031 28.3855C86.1555 28.3855 88.959 29.1555 91.4135 30.6956C93.8681 32.2358 95.7993 34.4256 97.207 37.2652C98.6148 40.1048 99.3186 43.4738 99.3186 47.3722ZM94.9871 47.3722C94.9871 44.1716 94.4517 41.4704 93.3808 39.2685C92.322 37.0667 90.8841 35.4002 89.0673 34.2692C87.2625 33.1382 85.2411 32.5727 83.0031 32.5727C80.7651 32.5727 78.7377 33.1382 76.9208 34.2692C75.116 35.4002 73.6782 37.0667 72.6073 39.2685C71.5485 41.4704 71.0191 44.1716 71.0191 47.3722C71.0191 50.5727 71.5485 53.2739 72.6073 55.4758C73.6782 57.6777 75.116 59.3441 76.9208 60.4752C78.7377 61.6062 80.7651 62.1717 83.0031 62.1717C85.2411 62.1717 87.2625 61.6062 89.0673 60.4752C90.8841 59.3441 92.322 57.6777 93.3808 55.4758C94.4517 53.2739 94.9871 50.5727 94.9871 47.3722ZM106.845 28.8908H112.187L124.749 59.5727H125.182L137.743 28.8908H143.086V65.8535H138.898V37.7705H138.537L126.987 65.8535H122.944L111.393 37.7705H111.032V65.8535H106.845V28.8908ZM156.536 28.8908V65.8535H152.06V28.8908H156.536ZM194.821 28.8908V65.8535H190.489L170.347 36.832H169.986V65.8535H165.51V28.8908H169.842L190.056 57.9845H190.417V28.8908H194.821ZM229.045 40.4417C228.647 39.2264 228.124 38.1375 227.474 37.1749C226.837 36.2003 226.073 35.3701 225.182 34.6843C224.304 33.9985 223.305 33.4751 222.186 33.1141C221.067 32.7531 219.84 32.5727 218.504 32.5727C216.315 32.5727 214.323 33.1382 212.53 34.2692C210.738 35.4002 209.312 37.0667 208.253 39.2685C207.194 41.4704 206.665 44.1716 206.665 47.3722C206.665 50.5727 207.2 53.2739 208.271 55.4758C209.342 57.6777 210.792 59.3441 212.621 60.4752C214.45 61.6062 216.507 62.1717 218.793 62.1717C220.911 62.1717 222.776 61.7205 224.388 60.8181C226.012 59.9036 227.276 58.6162 228.178 56.9558C229.093 55.2833 229.55 53.316 229.55 51.054L230.922 51.3428H219.804V47.3722H233.881V51.3428C233.881 54.3869 233.232 57.034 231.932 59.284C230.645 61.534 228.864 63.2786 226.59 64.5179C224.328 65.7452 221.729 66.3589 218.793 66.3589C215.52 66.3589 212.645 65.5888 210.166 64.0487C207.7 62.5086 205.774 60.3187 204.391 57.4792C203.019 54.6396 202.333 51.2706 202.333 47.3722C202.333 44.4484 202.724 41.8193 203.506 39.4851C204.3 37.1388 205.419 35.1415 206.863 33.4931C208.307 31.8447 210.016 30.5813 211.989 29.703C213.962 28.8246 216.134 28.3855 218.504 28.3855C220.454 28.3855 222.27 28.6803 223.955 29.2698C225.651 29.8474 227.161 30.6716 228.485 31.7424C229.821 32.8013 230.934 34.0707 231.824 35.5506C232.714 37.0185 233.328 38.6489 233.665 40.4417H229.045ZM276.056 38.1315C275.839 36.3026 274.961 34.8828 273.421 33.8721C271.88 32.8614 269.991 32.3561 267.753 32.3561C266.117 32.3561 264.685 32.6208 263.458 33.1502C262.243 33.6796 261.292 34.4076 260.606 35.334C259.932 36.2605 259.596 37.3133 259.596 38.4925C259.596 39.4791 259.83 40.3274 260.299 41.0373C260.781 41.7351 261.394 42.3187 262.14 42.7879C262.886 43.2451 263.668 43.6242 264.487 43.925C265.305 44.2137 266.057 44.4484 266.743 44.6288L270.497 45.6395C271.459 45.8922 272.53 46.2411 273.709 46.6863C274.9 47.1315 276.037 47.7391 277.12 48.5092C278.215 49.2672 279.118 50.2418 279.828 51.433C280.538 52.6242 280.892 54.0861 280.892 55.8187C280.892 57.8161 280.369 59.6209 279.322 61.2332C278.287 62.8455 276.771 64.1269 274.774 65.0774C272.789 66.028 270.376 66.5033 267.537 66.5033C264.89 66.5033 262.598 66.0761 260.66 65.2218C258.735 64.3675 257.219 63.1764 256.112 61.6483C255.017 60.1202 254.398 58.3455 254.253 56.3241H258.874C258.994 57.7198 259.463 58.8749 260.281 59.7893C261.112 60.6917 262.158 61.3655 263.422 61.8107C264.697 62.2439 266.069 62.4605 267.537 62.4605C269.245 62.4605 270.779 62.1837 272.139 61.6302C273.499 61.0647 274.576 60.2826 275.37 59.284C276.164 58.2733 276.561 57.0941 276.561 55.7465C276.561 54.5193 276.218 53.5206 275.532 52.7505C274.846 51.9805 273.944 51.3548 272.825 50.8735C271.706 50.3922 270.497 49.9711 269.197 49.6101L264.649 48.3107C261.761 47.4805 259.475 46.2953 257.791 44.7552C256.106 43.2151 255.264 41.1997 255.264 38.709C255.264 36.6395 255.824 34.8347 256.943 33.2946C258.074 31.7424 259.59 30.5392 261.491 29.6849C263.404 28.8186 265.539 28.3855 267.898 28.3855C270.28 28.3855 272.398 28.8126 274.251 29.6669C276.104 30.5091 277.572 31.6642 278.654 33.1321C279.749 34.6001 280.327 36.2665 280.387 38.1315H276.056ZM319.439 47.3722C319.439 51.2706 318.735 54.6396 317.327 57.4792C315.919 60.3187 313.988 62.5086 311.534 64.0487C309.079 65.5888 306.276 66.3589 303.123 66.3589C299.971 66.3589 297.167 65.5888 294.713 64.0487C292.258 62.5086 290.327 60.3187 288.919 57.4792C287.512 54.6396 286.808 51.2706 286.808 47.3722C286.808 43.4738 287.512 40.1048 288.919 37.2652C290.327 34.4256 292.258 32.2358 294.713 30.6956C297.167 29.1555 299.971 28.3855 303.123 28.3855C306.276 28.3855 309.079 29.1555 311.534 30.6956C313.988 32.2358 315.919 34.4256 317.327 37.2652C318.735 40.1048 319.439 43.4738 319.439 47.3722ZM315.107 47.3722C315.107 44.1716 314.572 41.4704 313.501 39.2685C312.442 37.0667 311.004 35.4002 309.187 34.2692C307.383 33.1382 305.361 32.5727 303.123 32.5727C300.885 32.5727 298.858 33.1382 297.041 34.2692C295.236 35.4002 293.798 37.0667 292.728 39.2685C291.669 41.4704 291.139 44.1716 291.139 47.3722C291.139 50.5727 291.669 53.2739 292.728 55.4758C293.798 57.6777 295.236 59.3441 297.041 60.4752C298.858 61.6062 300.885 62.1717 303.123 62.1717C305.361 62.1717 307.383 61.6062 309.187 60.4752C311.004 59.3441 312.442 57.6777 313.501 55.4758C314.572 53.2739 315.107 50.5727 315.107 47.3722ZM358.152 47.3722C358.152 51.2706 357.448 54.6396 356.041 57.4792C354.633 60.3187 352.702 62.5086 350.247 64.0487C347.793 65.5888 344.989 66.3589 341.837 66.3589C338.684 66.3589 335.881 65.5888 333.426 64.0487C330.972 62.5086 329.041 60.3187 327.633 57.4792C326.225 54.6396 325.521 51.2706 325.521 47.3722C325.521 43.4738 326.225 40.1048 327.633 37.2652C329.041 34.4256 330.972 32.2358 333.426 30.6956C335.881 29.1555 338.684 28.3855 341.837 28.3855C344.989 28.3855 347.793 29.1555 350.247 30.6956C352.702 32.2358 354.633 34.4256 356.041 37.2652C357.448 40.1048 358.152 43.4738 358.152 47.3722ZM353.821 47.3722C353.821 44.1716 353.285 41.4704 352.214 39.2685C351.156 37.0667 349.718 35.4002 347.901 34.2692C346.096 33.1382 344.075 32.5727 341.837 32.5727C339.599 32.5727 337.571 33.1382 335.754 34.2692C333.95 35.4002 332.512 37.0667 331.441 39.2685C330.382 41.4704 329.853 44.1716 329.853 47.3722C329.853 50.5727 330.382 53.2739 331.441 55.4758C332.512 57.6777 333.95 59.3441 335.754 60.4752C337.571 61.6062 339.599 62.1717 341.837 62.1717C344.075 62.1717 346.096 61.6062 347.901 60.4752C349.718 59.3441 351.156 57.6777 352.214 55.4758C353.285 53.2739 353.821 50.5727 353.821 47.3722ZM394.989 28.8908V65.8535H390.657L370.515 36.832H370.154V65.8535H365.678V28.8908H370.01L390.224 57.9845H390.585V28.8908H394.989Z" fill="black"/>
<path d="M41.2045 174.944C41.2403 174.808 41.2763 174.673 41.3123 174.537C41.5107 173.788 41.7097 173.036 41.8866 172.285C42.1167 172.274 42.3066 172.228 42.4603 172.143C42.6419 172.042 42.7613 171.894 42.8366 171.715L42.9056 171.55L42.7302 171.519L42.6296 171.5V167.879H48.0754V171.699V171.842H48.2186H50.9359H51.0791V171.699V167.879H56.8665H57.0096V167.736V165.061V164.918H56.8665H51.0791V161.486C51.3198 161.437 51.5081 161.36 51.6467 161.252C51.8132 161.121 51.8969 160.951 51.921 160.759L51.9399 160.608L51.7876 160.598L48.2174 160.381L48.0655 160.371V160.523V164.928H42.6395V161.495C42.8802 161.447 43.0685 161.37 43.2071 161.261C43.3736 161.131 43.4573 160.961 43.4814 160.769L43.5003 160.618L43.3481 160.608L39.8176 160.39L39.6656 160.381V160.533V164.938H34.146H34.0028V165.081V167.756V167.899H34.146H39.6656V170.822L39.1294 170.688L38.9856 170.652L38.9547 170.797C37.8455 176.001 35.9272 181.237 33.586 184.294L33.4806 184.431L33.6357 184.509C34.3364 184.859 35.398 185.614 35.9287 186.056L36.0451 186.153L36.1354 186.031C36.4378 185.624 36.7476 185.191 37.0375 184.729V195.527V195.67H37.1807H39.6302H39.7734V195.527V193.134H47.3062H47.4494V192.99V181.29V181.146H47.3062H38.9114C39.3995 180.076 39.8538 178.972 40.2665 177.826H51.0458C50.6899 188.521 50.3017 193.865 49.7445 196.535C49.4637 197.881 49.146 198.513 48.7984 198.817C48.4591 199.113 48.0689 199.119 47.5343 199.119C46.7413 199.119 44.6449 199.119 42.421 198.901L42.1385 198.874L42.2842 199.117C42.7249 199.854 42.9888 200.989 43.0277 201.815L43.0339 201.947L43.1665 201.951C43.4226 201.959 43.6786 201.967 43.933 201.975C45.0063 202.008 46.0509 202.04 46.9591 202.04C48.162 202.04 49.0837 202.006 49.8357 201.793C50.5972 201.578 51.1807 201.18 51.7138 200.469C52.077 200.011 52.3721 199.314 52.623 198.277C52.8746 197.237 53.0846 195.842 53.2689 193.978C53.5685 190.949 53.8015 186.67 54.0326 180.641L54.1519 180.717C54.8458 181.156 55.9057 182.049 56.3911 182.612L56.5108 182.75L56.6165 182.601C57.6253 181.173 58.5097 179.469 59.3512 177.575C60.4031 182.204 61.7465 186.499 63.5163 190.216C61.0357 194.124 57.6772 197.155 53.2237 199.321L53.0511 199.405L53.1807 199.547C53.7033 200.117 54.46 201.352 54.8145 202.06L54.879 202.189L55.0075 202.124C59.3296 199.921 62.6998 197.023 65.2858 193.43C67.5091 197.104 70.2966 200.04 73.7915 202.119L73.9168 202.194L73.989 202.067C74.4661 201.231 75.3975 200.133 76.101 199.518L76.2578 199.381L76.0737 199.284C72.4166 197.35 69.5506 194.228 67.2461 190.313C70.0252 185.291 71.7103 179.183 72.7785 171.912H75.6498H75.793V171.768V168.965V168.821H75.6498H62.3589C62.9541 166.592 63.4671 164.284 63.8979 162.011C64.1454 162 64.3549 161.954 64.5208 161.863C64.7187 161.754 64.8453 161.587 64.8995 161.371L64.9356 161.226L64.7902 161.196L60.9919 160.393L60.8456 160.362L60.821 160.51C59.5324 168.264 57.2554 176.083 54.1117 180.513L54.0332 180.624C54.0864 179.238 54.1394 177.759 54.1931 176.182L54.1931 176.182V176.177C54.1931 176.029 54.2028 175.854 54.2127 175.687C54.2136 175.672 54.2145 175.657 54.2153 175.643C54.2242 175.494 54.2328 175.35 54.2328 175.246V175.114L54.1014 175.103L52.6758 174.985V174.944H52.5326H41.2045ZM39.7734 190.4V183.91H44.7035V190.4H39.7734ZM65.4291 186.67C63.5838 182.427 62.2968 177.475 61.3771 172.224L61.4743 171.912H69.4549C68.6309 177.634 67.333 182.552 65.4291 186.67Z" fill="black" stroke="black" stroke-width="0.286384"/>
<path d="M98.9498 168.071V167.928H98.8066H82.0762H81.933V168.071V170.568V170.711H82.0762H98.8066H98.9498V170.568V168.071ZM97.5217 186.262V186.118H97.3785H84.1191H83.9759V186.262V201.47V201.613H84.1191H86.7571H86.9003V201.47V199.512H97.3785H97.5217V199.369V186.262ZM97.4325 174.135V173.992H97.2893H84.1687H84.0255V174.135V176.582V176.725H84.1687H97.2893H97.4325V176.582V174.135ZM84.0255 182.645V182.789H84.1687H97.2893H97.4325V182.645V180.198V180.055H97.2893H84.1687H84.0255V180.198V182.645ZM97.3035 162.147V162.004H97.1603H84.3472H84.204V162.147V164.594V164.737H84.3472H97.1603H97.3035V164.594V162.147ZM109.463 160.492V164.084H100.106H99.9626V164.227V166.635V166.778H100.106H109.463V169.702H101.127H100.984V169.845V172.213V172.356H101.127H109.463V175.547H98.2711H98.1279V175.69V178.187V178.33H98.2711H123.62H123.763V178.187V175.69V175.547H123.62H112.745V172.366H121.795H121.938V172.223V169.855V169.712H121.795H112.745V166.788H122.588H122.731V166.645V164.237V164.094H122.588H112.735V161.455C112.981 161.406 113.179 161.331 113.327 161.224C113.503 161.096 113.601 160.927 113.626 160.728L113.645 160.576L113.492 160.567L109.615 160.349L109.463 160.341V160.492ZM120.728 180.862V180.719H120.585H102.288H102.144V180.862V201.995V202.138H102.288H105.144H105.287V201.995V194.826H117.546V198.913C117.546 199.091 117.528 199.199 117.491 199.272C117.458 199.336 117.401 199.389 117.276 199.43C117.144 199.474 116.952 199.501 116.665 199.516C116.381 199.531 116.016 199.533 115.547 199.533C114.658 199.533 113.45 199.494 112.161 199.444L111.919 199.435L112.027 199.651C112.381 200.358 112.771 201.375 112.907 202.11L112.929 202.227H113.048H113.051C114.499 202.227 115.698 202.227 116.68 202.177C117.662 202.128 118.439 202.028 119.038 201.823C119.642 201.617 120.073 201.3 120.348 200.817C120.619 200.34 120.728 199.716 120.728 198.913V180.862ZM86.9003 196.68V188.941H94.5577V196.68H86.9003ZM105.287 186.525V183.462H117.536V186.525H105.287ZM117.536 189.119V192.221H105.287V189.119H117.536Z" fill="black" stroke="black" stroke-width="0.286384"/>
<path d="M152.499 191.041H152.642V190.898V188.173V188.164V188.02H152.499H148.983V169.492H152.231H152.375V169.349V166.625V166.481H152.231H148.983V161.979C149.22 161.949 149.408 161.884 149.547 161.781C149.717 161.655 149.801 161.484 149.825 161.292L149.844 161.141L149.691 161.132L146.032 160.914L145.88 160.905V161.057V166.491H137.469V161.982C137.705 161.94 137.892 161.875 138.03 161.778C138.201 161.659 138.286 161.497 138.311 161.302L138.33 161.151L138.177 161.142L134.557 160.924L134.406 160.914V161.067V166.501H130.671H130.528V166.644V169.369V169.512H130.671H134.406V188.03H130.046H129.903V188.173V190.898V191.041H130.046H152.499ZM140.083 193.189L140.153 193.043L139.999 192.991L136.528 191.832L136.405 191.791L136.352 191.909C134.932 195.062 132.535 198.253 130.234 200.11L130.073 200.24L130.252 200.344C130.915 200.734 131.928 201.53 132.458 202.02L132.553 202.108L132.65 202.023C135.045 199.927 137.532 196.651 139.109 193.675C139.57 193.659 139.927 193.513 140.083 193.189ZM170.315 162.81V162.667H170.172H154.582H154.439V162.81V179.237C154.439 185.137 154.088 192.564 150.751 198.331C149.767 196.498 147.837 193.863 146.122 191.846L146.047 191.757L145.945 191.813L143.584 193.101L143.429 193.185L143.544 193.319C145.324 195.403 147.328 198.384 148.164 200.192L148.23 200.335L148.367 200.255C148.473 200.193 148.659 200.082 148.883 199.948C149.139 199.795 149.444 199.613 149.734 199.441C149.943 199.318 150.145 199.2 150.317 199.101C150.019 199.54 149.72 199.957 149.394 200.347L149.276 200.489L149.442 200.568C149.762 200.721 150.222 201.017 150.66 201.348C151.099 201.681 151.5 202.038 151.712 202.31L151.825 202.456L151.938 202.31C155.279 197.982 156.675 192.172 157.221 186.672H167.123V198.17C167.123 198.415 167.105 198.572 167.057 198.68C167.016 198.775 166.946 198.842 166.801 198.893C166.647 198.947 166.419 198.977 166.076 198.993C165.735 199.008 165.296 199.008 164.727 199.008C163.93 199.008 162.924 198.978 161.846 198.946C161.533 198.937 161.215 198.928 160.893 198.919L160.651 198.912L160.762 199.127C161.163 199.909 161.602 201.23 161.689 201.971L161.704 202.096L161.829 202.098C163.5 202.12 164.862 202.12 165.963 202.05C167.063 201.979 167.915 201.839 168.562 201.576C169.215 201.31 169.66 200.918 169.937 200.35C170.211 199.789 170.315 199.07 170.315 198.16V162.81ZM157.561 179.217V176.101H167.133V183.661H157.43C157.511 182.16 157.549 180.705 157.551 179.36H157.561V179.217ZM137.469 173.635V169.512H145.88V173.635H137.469ZM145.88 180.629H137.469V176.418H145.88V180.629ZM145.88 188.03H137.469V183.373H145.88V188.03ZM157.551 173.1V165.718H167.123V173.1H157.551Z" fill="black" stroke="black" stroke-width="0.286384"/>
<path d="M179.506 187.255C181.029 185.734 182.631 183.938 184.161 181.969V201.945V202.088H184.304H187.111H187.254V201.945V178.494C187.747 178.425 188.035 178.187 188.139 177.876L188.185 177.738L188.047 177.694L187.387 177.485C188.579 175.736 189.687 173.935 190.633 172.186C191.036 172.213 191.507 172.111 191.712 171.702L191.782 171.561L191.635 171.505L188.283 170.207L188.162 170.16L188.104 170.276C185.443 175.572 181.209 181.126 177.65 184.503L177.555 184.593L177.637 184.696C178.128 185.314 178.975 186.604 179.277 187.217L179.365 187.396L179.506 187.255ZM190.832 161.927L190.891 161.792L190.755 161.737L187.452 160.399L187.346 160.356L187.28 160.451C185.15 163.555 181.106 167.468 177.811 169.959L177.68 170.058L177.797 170.174C178.322 170.699 179.119 171.769 179.472 172.338L179.558 172.476L179.684 172.374C183.147 169.574 187.355 165.453 189.782 162.378C189.947 162.396 190.136 162.401 190.312 162.357C190.525 162.304 190.722 162.178 190.832 161.927ZM203.272 160.492V166.056H193.329H193.186V166.199V168.874V169.017H193.329H203.272V175.101H190.969H190.826V175.244V178.009V178.152H190.969H219.213H219.356V178.009V175.244V175.101H219.213H206.504V169.017H216.932H217.075V168.874V166.199V166.056H216.932H206.504V161.465C206.747 161.435 206.944 161.37 207.092 161.269C207.271 161.147 207.37 160.976 207.395 160.777L207.414 160.627L207.263 160.617L203.425 160.349L203.272 160.339V160.492ZM213.197 179.097L213.216 178.944L213.063 178.936L209.225 178.718L209.073 178.709V178.861V183.84H191.058H190.915V183.983V186.747V186.89H191.058H209.073V198.329C209.073 198.553 209.058 198.691 209.015 198.785C208.979 198.865 208.915 198.926 208.768 198.973C208.612 199.022 208.38 199.05 208.027 199.064C207.677 199.077 207.222 199.077 206.628 199.077C205.793 199.077 204.765 199.05 203.628 199.019C203.242 199.009 202.844 198.998 202.437 198.988L202.196 198.982L202.306 199.197C202.705 199.976 203.099 201.173 203.275 201.966L203.3 202.078H203.415C205.177 202.078 206.609 202.073 207.764 202.01C208.918 201.947 209.807 201.827 210.48 201.591C211.158 201.354 211.623 200.997 211.913 200.461C212.199 199.932 212.305 199.246 212.305 198.369V186.88H218.896H219.039V186.737V183.973V183.83H218.896H212.305V179.784C212.565 179.754 212.765 179.688 212.911 179.583C213.088 179.456 213.172 179.285 213.197 179.097ZM199.982 197.109L200.047 197.255L200.185 197.174L202.684 195.708L202.797 195.642L202.741 195.524C201.75 193.402 199.376 190.357 197.179 188.171L197.102 188.095L197.008 188.148L194.688 189.436L194.527 189.525L194.653 189.659C196.789 191.932 199.049 195.029 199.982 197.109Z" fill="black" stroke="black" stroke-width="0.286384"/>
</svg>
