<svg width="448" height="267" viewBox="0 0 448 267" fill="none" xmlns="http://www.w3.org/2000/svg">
<g clip-path="url(#clip0_111_407)">
<path d="M448 0H0.0703125V266.895H448V0Z" fill="#469B70"/>
<path d="M75.1207 34.9946C52.7438 54.8064 28.5696 78.2187 26.4983 109.479C25.3538 126.791 31.5817 144.06 41.4817 157.693C51.3817 171.326 64.7221 181.595 78.8349 189.757C114.124 210.163 154.489 218.072 194.405 220.563C252.078 224.155 311.773 216.42 362.642 186.716C377.008 178.326 390.734 168.066 400.985 154.302C411.236 140.538 417.78 122.911 416.432 105.267C414.199 76.0339 392.054 53.9062 371.454 34.9072C390.805 44.6514 409.523 56.7552 424.001 73.7705C438.479 90.7769 448.414 113.21 447.909 136.361C447.417 158.986 436.998 180.441 422.428 196.644C407.859 212.837 389.386 224.286 370.373 233.584C286.953 274.396 189.582 276.406 102.068 247.383C75.9913 238.732 50.0617 227.039 30.03 206.956C7.4706 184.33 -6.77559 148.587 3.27889 115.692C12.6312 85.0965 32.9859 58.6516 58.9366 43.0172C64.1253 39.8886 69.5387 37.1969 75.1207 34.9946Z" fill="black"/>
<path d="M131.213 14.9922C117.171 23.5479 102.602 35.0749 99.393 52.2037C96.9917 65.0154 101.808 78.5349 109.813 88.3053C117.824 98.0758 128.686 104.56 139.815 109.577C168.637 122.563 200.38 126.767 231.562 125.368C260.173 124.092 289.164 117.984 313.999 102.507C330.611 92.1593 346.409 73.9993 343.537 53.4447C341.241 36.9625 327.873 25.3132 315.192 15.9098C329.656 20.9436 344.022 27.1572 356.042 37.2334C368.062 47.3097 377.597 61.7382 379.662 78.0717C381.88 95.655 375.14 113.623 364.264 126.88C353.388 140.138 338.763 149.148 323.618 155.824C288.125 171.476 249.052 175.313 210.765 173.827C175.672 172.464 140.145 166.582 108.486 150.1C96.6056 143.913 85.1468 136.083 76.8336 124.984C43.5036 80.5187 89.149 24.0897 131.213 14.9922Z" fill="black"/>
<path d="M220.981 86.8016C261.709 86.8016 294.725 67.3713 294.725 43.4028C294.725 19.4342 261.709 0.00390625 220.981 0.00390625C180.253 0.00390625 147.236 19.4342 147.236 43.4028C147.236 67.3713 180.253 86.8016 220.981 86.8016Z" fill="black"/>
</g>
<defs>
<clipPath id="clip0_111_407">
<rect width="448" height="267" fill="white"/>
</clipPath>
</defs>
</svg>
