<svg width="451" height="267" viewBox="0 0 451 267" fill="none" xmlns="http://www.w3.org/2000/svg">
<path d="M451 0H0V266.91H451V0Z" fill="#2E5A87"/>
<path d="M450.683 243.931H447.655V255.562H450.683V243.931Z" fill="black"/>
<path d="M420.92 243.599H414.042V255.23H420.92V243.599Z" fill="black"/>
<path d="M385.999 243.599H378.074V255.23H385.999V243.599Z" fill="black"/>
<path d="M351.077 243.599H342.106V255.23H351.077V243.599Z" fill="black"/>
<path d="M316.157 243.599H306.139V255.23H316.157V243.599Z" fill="black"/>
<path d="M281.236 243.599H270.171V255.23H281.236V243.599Z" fill="black"/>
<path d="M246.315 243.599H234.204V255.23H246.315V243.599Z" fill="black"/>
<path d="M211.387 243.599H198.229V255.23H211.387V243.599Z" fill="black"/>
<path d="M176.466 243.599H162.261V255.23H176.466V243.599Z" fill="black"/>
<path d="M141.545 243.599H126.293V255.23H141.545V243.599Z" fill="black"/>
<path d="M106.624 243.599H90.3262V255.23H106.624V243.599Z" fill="black"/>
<path d="M71.7034 243.599H54.3589V255.23H71.7034V243.599Z" fill="black"/>
<path d="M36.7824 243.599H18.3911V255.23H36.7824V243.599Z" fill="black"/>
<path d="M438.454 232.156H431.576V243.787H438.454V232.156Z" fill="black"/>
<path d="M403.534 232.156H395.609V243.787H403.534V232.156Z" fill="black"/>
<path d="M368.612 232.156H359.642V243.787H368.612V232.156Z" fill="black"/>
<path d="M333.69 232.156H323.673V243.787H333.69V232.156Z" fill="black"/>
<path d="M298.77 232.156H287.706V243.787H298.77V232.156Z" fill="black"/>
<path d="M263.849 232.156H251.738V243.787H263.849V232.156Z" fill="black"/>
<path d="M228.922 232.156H215.764V243.787H228.922V232.156Z" fill="black"/>
<path d="M194 232.156H179.796V243.787H194V232.156Z" fill="black"/>
<path d="M159.079 232.156H143.828V243.787H159.079V232.156Z" fill="black"/>
<path d="M124.158 232.156H107.86V243.787H124.158V232.156Z" fill="black"/>
<path d="M89.2376 232.156H71.8931V243.787H89.2376V232.156Z" fill="black"/>
<path d="M54.317 232.156H35.9258V243.787H54.317V232.156Z" fill="black"/>
<path d="M18.3912 232.156H0V243.787H18.3912V232.156Z" fill="black"/>
<path d="M450.683 220.71H447.655V232.34H450.683V220.71Z" fill="black"/>
<path d="M420.92 220.378H414.042V232.008H420.92V220.378Z" fill="black"/>
<path d="M385.999 220.378H378.074V232.008H385.999V220.378Z" fill="black"/>
<path d="M351.077 220.378H342.106V232.008H351.077V220.378Z" fill="black"/>
<path d="M316.157 220.378H306.139V232.008H316.157V220.378Z" fill="black"/>
<path d="M281.236 220.378H270.171V232.008H281.236V220.378Z" fill="black"/>
<path d="M246.315 220.378H234.204V232.008H246.315V220.378Z" fill="black"/>
<path d="M211.387 220.378H198.229V232.008H211.387V220.378Z" fill="black"/>
<path d="M176.466 220.378H162.261V232.008H176.466V220.378Z" fill="black"/>
<path d="M141.545 220.378H126.293V232.008H141.545V220.378Z" fill="black"/>
<path d="M106.624 220.378H90.3262V232.008H106.624V220.378Z" fill="black"/>
<path d="M71.7034 220.378H54.3589V232.008H71.7034V220.378Z" fill="black"/>
<path d="M36.7824 220.378H18.3911V232.008H36.7824V220.378Z" fill="black"/>
<path d="M438.454 208.938H431.576V220.569H438.454V208.938Z" fill="black"/>
<path d="M403.534 208.938H395.609V220.569H403.534V208.938Z" fill="black"/>
<path d="M368.612 208.938H359.641V220.569H368.612V208.938Z" fill="black"/>
<path d="M333.691 208.938H323.673V220.569H333.691V208.938Z" fill="black"/>
<path d="M298.769 208.938H287.705V220.569H298.769V208.938Z" fill="black"/>
<path d="M263.849 208.938H251.738V220.569H263.849V208.938Z" fill="black"/>
<path d="M228.922 208.938H215.764V220.569H228.922V208.938Z" fill="black"/>
<path d="M194 208.938H179.796V220.569H194V208.938Z" fill="black"/>
<path d="M159.079 208.938H143.828V220.569H159.079V208.938Z" fill="black"/>
<path d="M124.159 208.938H107.861V220.569H124.159V208.938Z" fill="black"/>
<path d="M89.2376 208.938H71.8931V220.569H89.2376V208.938Z" fill="black"/>
<path d="M54.3165 208.938H35.9253V220.569H54.3165V208.938Z" fill="black"/>
<path d="M18.3912 208.938H0V220.569H18.3912V208.938Z" fill="black"/>
<path d="M450.684 197.496H447.656V209.127H450.684V197.496Z" fill="black"/>
<path d="M420.92 197.164H414.042V208.795H420.92V197.164Z" fill="black"/>
<path d="M386 197.164H378.075V208.795H386V197.164Z" fill="black"/>
<path d="M351.078 197.164H342.107V208.795H351.078V197.164Z" fill="black"/>
<path d="M316.157 197.164H306.139V208.795H316.157V197.164Z" fill="black"/>
<path d="M281.236 197.164H270.171V208.795H281.236V197.164Z" fill="black"/>
<path d="M246.315 197.164H234.204V208.795H246.315V197.164Z" fill="black"/>
<path d="M211.387 197.164H198.229V208.795H211.387V197.164Z" fill="black"/>
<path d="M176.467 197.164H162.262V208.795H176.467V197.164Z" fill="black"/>
<path d="M141.545 197.164H126.293V208.795H141.545V197.164Z" fill="black"/>
<path d="M106.624 197.164H90.3267V208.795H106.624V197.164Z" fill="black"/>
<path d="M71.7039 197.164H54.3594V208.795H71.7039V197.164Z" fill="black"/>
<path d="M36.7828 197.165H18.3916V208.795H36.7828V197.165Z" fill="black"/>
<path d="M438.454 185.723H431.576V197.354H438.454V185.723Z" fill="black"/>
<path d="M403.534 185.723H395.609V197.354H403.534V185.723Z" fill="black"/>
<path d="M368.612 185.723H359.641V197.354H368.612V185.723Z" fill="black"/>
<path d="M333.691 185.723H323.673V197.354H333.691V185.723Z" fill="black"/>
<path d="M298.769 185.723H287.705V197.354H298.769V185.723Z" fill="black"/>
<path d="M263.849 185.723H251.738V197.354H263.849V185.723Z" fill="black"/>
<path d="M228.922 185.723H215.764V197.354H228.922V185.723Z" fill="black"/>
<path d="M194 185.723H179.796V197.354H194V185.723Z" fill="black"/>
<path d="M159.079 185.723H143.828V197.354H159.079V185.723Z" fill="black"/>
<path d="M124.159 185.723H107.861V197.354H124.159V185.723Z" fill="black"/>
<path d="M89.2376 185.723H71.8931V197.354H89.2376V185.723Z" fill="black"/>
<path d="M54.3165 185.723H35.9253V197.354H54.3165V185.723Z" fill="black"/>
<path d="M18.3912 185.723H0V197.354H18.3912V185.723Z" fill="black"/>
<path d="M450.683 174.275H447.655V185.906H450.683V174.275Z" fill="black"/>
<path d="M420.92 173.951H414.042V185.582H420.92V173.951Z" fill="black"/>
<path d="M385.999 173.951H378.074V185.582H385.999V173.951Z" fill="black"/>
<path d="M351.077 173.951H342.106V185.582H351.077V173.951Z" fill="black"/>
<path d="M316.157 173.951H306.139V185.582H316.157V173.951Z" fill="black"/>
<path d="M281.236 173.951H270.171V185.582H281.236V173.951Z" fill="black"/>
<path d="M246.315 173.951H234.204V185.582H246.315V173.951Z" fill="black"/>
<path d="M211.394 173.951H198.236V185.582H211.394V173.951Z" fill="black"/>
<path d="M176.466 173.951H162.261V185.582H176.466V173.951Z" fill="black"/>
<path d="M141.545 173.951H126.293V185.582H141.545V173.951Z" fill="black"/>
<path d="M106.624 173.951H90.3262V185.582H106.624V173.951Z" fill="black"/>
<path d="M71.7034 173.951H54.3589V185.582H71.7034V173.951Z" fill="black"/>
<path d="M36.7824 173.951H18.3911V185.582H36.7824V173.951Z" fill="black"/>
<path d="M438.454 162.504H431.576V174.134H438.454V162.504Z" fill="black"/>
<path d="M403.534 162.504H395.609V174.134H403.534V162.504Z" fill="black"/>
<path d="M368.612 162.504H359.641V174.134H368.612V162.504Z" fill="black"/>
<path d="M333.691 162.504H323.673V174.134H333.691V162.504Z" fill="black"/>
<path d="M298.77 162.504H287.706V174.134H298.77V162.504Z" fill="black"/>
<path d="M263.849 162.504H251.738V174.134H263.849V162.504Z" fill="black"/>
<path d="M228.922 162.504H215.764V174.134H228.922V162.504Z" fill="black"/>
<path d="M194 162.504H179.796V174.134H194V162.504Z" fill="black"/>
<path d="M159.079 162.504H143.828V174.134H159.079V162.504Z" fill="black"/>
<path d="M124.158 162.504H107.86V174.135H124.158V162.504Z" fill="black"/>
<path d="M89.2376 162.504H71.8931V174.134H89.2376V162.504Z" fill="black"/>
<path d="M54.317 162.504H35.9258V174.134H54.317V162.504Z" fill="black"/>
<path d="M18.3912 162.504H0V174.134H18.3912V162.504Z" fill="black"/>
<path d="M450.684 151.067H447.656V162.698H450.684V151.067Z" fill="black"/>
<path d="M420.92 150.735H414.042V162.366H420.92V150.735Z" fill="black"/>
<path d="M386 150.735H378.075V162.366H386V150.735Z" fill="black"/>
<path d="M351.078 150.735H342.107V162.366H351.078V150.735Z" fill="black"/>
<path d="M316.157 150.735H306.139V162.366H316.157V150.735Z" fill="black"/>
<path d="M281.236 150.735H270.171V162.366H281.236V150.735Z" fill="black"/>
<path d="M246.315 150.735H234.204V162.366H246.315V150.735Z" fill="black"/>
<path d="M211.394 150.735H198.236V162.366H211.394V150.735Z" fill="black"/>
<path d="M176.467 150.735H162.262V162.366H176.467V150.735Z" fill="black"/>
<path d="M141.545 150.735H126.293V162.366H141.545V150.735Z" fill="black"/>
<path d="M106.624 150.735H90.3267V162.366H106.624V150.735Z" fill="black"/>
<path d="M71.7039 150.735H54.3594V162.366H71.7039V150.735Z" fill="black"/>
<path d="M36.7828 150.735H18.3916V162.366H36.7828V150.735Z" fill="black"/>
<path d="M438.454 139.294H431.576V150.925H438.454V139.294Z" fill="black"/>
<path d="M403.534 139.294H395.609V150.925H403.534V139.294Z" fill="black"/>
<path d="M368.612 139.294H359.641V150.925H368.612V139.294Z" fill="black"/>
<path d="M333.691 139.294H323.673V150.925H333.691V139.294Z" fill="black"/>
<path d="M298.769 139.294H287.705V150.925H298.769V139.294Z" fill="black"/>
<path d="M263.849 139.294H251.738V150.925H263.849V139.294Z" fill="black"/>
<path d="M228.922 139.294H215.764V150.925H228.922V139.294Z" fill="black"/>
<path d="M194 139.294H179.796V150.925H194V139.294Z" fill="black"/>
<path d="M159.079 139.294H143.828V150.925H159.079V139.294Z" fill="black"/>
<path d="M124.159 139.294H107.861V150.925H124.159V139.294Z" fill="black"/>
<path d="M89.2376 139.294H71.8931V150.925H89.2376V139.294Z" fill="black"/>
<path d="M54.3165 139.294H35.9253V150.925H54.3165V139.294Z" fill="black"/>
<path d="M18.3912 139.294H0V150.925H18.3912V139.294Z" fill="black"/>
<path d="M450.684 127.847H447.656V139.477H450.684V127.847Z" fill="black"/>
<path d="M420.92 127.522H414.042V139.153H420.92V127.522Z" fill="black"/>
<path d="M385.999 127.522H378.074V139.153H385.999V127.522Z" fill="black"/>
<path d="M351.078 127.522H342.107V139.153H351.078V127.522Z" fill="black"/>
<path d="M316.157 127.522H306.139V139.153H316.157V127.522Z" fill="black"/>
<path d="M281.236 127.522H270.171V139.153H281.236V127.522Z" fill="black"/>
<path d="M246.315 127.522H234.204V139.153H246.315V127.522Z" fill="black"/>
<path d="M211.394 127.522H198.236V139.153H211.394V127.522Z" fill="black"/>
<path d="M176.466 127.522H162.262V139.153H176.466V127.522Z" fill="black"/>
<path d="M141.545 127.522H126.293V139.153H141.545V127.522Z" fill="black"/>
<path d="M106.624 127.522H90.3267V139.153H106.624V127.522Z" fill="black"/>
<path d="M71.7034 127.522H54.3589V139.153H71.7034V127.522Z" fill="black"/>
<path d="M36.7828 127.522H18.3916V139.153H36.7828V127.522Z" fill="black"/>
<path d="M438.454 116.075H431.576V127.706H438.454V116.075Z" fill="black"/>
<path d="M403.534 116.075H395.609V127.706H403.534V116.075Z" fill="black"/>
<path d="M368.612 116.075H359.641V127.706H368.612V116.075Z" fill="black"/>
<path d="M333.691 116.075H323.673V127.706H333.691V116.075Z" fill="black"/>
<path d="M298.769 116.075H287.705V127.706H298.769V116.075Z" fill="black"/>
<path d="M263.849 116.075H251.738V127.706H263.849V116.075Z" fill="black"/>
<path d="M228.922 116.075H215.764V127.706H228.922V116.075Z" fill="black"/>
<path d="M194 116.075H179.796V127.706H194V116.075Z" fill="black"/>
<path d="M159.079 116.075H143.828V127.706H159.079V116.075Z" fill="black"/>
<path d="M124.159 116.075H107.861V127.706H124.159V116.075Z" fill="black"/>
<path d="M89.2376 116.075H71.8931V127.706H89.2376V116.075Z" fill="black"/>
<path d="M54.3165 116.075H35.9253V127.706H54.3165V116.075Z" fill="black"/>
<path d="M18.3912 116.075H0V127.706H18.3912V116.075Z" fill="black"/>
<path d="M450.683 104.635H447.655V116.265H450.683V104.635Z" fill="black"/>
<path d="M420.92 104.303H414.042V115.933H420.92V104.303Z" fill="black"/>
<path d="M385.999 104.303H378.074V115.933H385.999V104.303Z" fill="black"/>
<path d="M351.077 104.303H342.106V115.933H351.077V104.303Z" fill="black"/>
<path d="M316.157 104.303H306.139V115.933H316.157V104.303Z" fill="black"/>
<path d="M281.236 104.303H270.171V115.933H281.236V104.303Z" fill="black"/>
<path d="M246.315 104.303H234.204V115.933H246.315V104.303Z" fill="black"/>
<path d="M211.394 104.303H198.236V115.933H211.394V104.303Z" fill="black"/>
<path d="M176.466 104.303H162.261V115.933H176.466V104.303Z" fill="black"/>
<path d="M141.545 104.303H126.293V115.933H141.545V104.303Z" fill="black"/>
<path d="M106.624 104.303H90.3262V115.933H106.624V104.303Z" fill="black"/>
<path d="M71.7034 104.303H54.3589V115.933H71.7034V104.303Z" fill="black"/>
<path d="M36.7824 104.303H18.3911V115.933H36.7824V104.303Z" fill="black"/>
<path d="M438.454 92.8635H431.576V104.494H438.454V92.8635Z" fill="black"/>
<path d="M403.534 92.8635H395.609V104.494H403.534V92.8635Z" fill="black"/>
<path d="M368.612 92.8635H359.641V104.494H368.612V92.8635Z" fill="black"/>
<path d="M333.691 92.8635H323.673V104.494H333.691V92.8635Z" fill="black"/>
<path d="M298.769 92.8635H287.705V104.494H298.769V92.8635Z" fill="black"/>
<path d="M263.849 92.8635H251.738V104.494H263.849V92.8635Z" fill="black"/>
<path d="M228.922 92.8635H215.764V104.494H228.922V92.8635Z" fill="black"/>
<path d="M194 92.8635H179.796V104.494H194V92.8635Z" fill="black"/>
<path d="M159.079 92.8635H143.828V104.494H159.079V92.8635Z" fill="black"/>
<path d="M124.159 92.8635H107.861V104.494H124.159V92.8635Z" fill="black"/>
<path d="M89.2376 92.8635H71.8931V104.494H89.2376V92.8635Z" fill="black"/>
<path d="M54.3165 92.8635H35.9253V104.494H54.3165V92.8635Z" fill="black"/>
<path d="M18.3912 92.8635H0V104.494H18.3912V92.8635Z" fill="black"/>
<path d="M450.683 81.4214H447.655V93.0521H450.683V81.4214Z" fill="black"/>
<path d="M420.92 81.0894H414.042V92.7201H420.92V81.0894Z" fill="black"/>
<path d="M385.999 81.0894H378.074V92.7201H385.999V81.0894Z" fill="black"/>
<path d="M351.077 81.0894H342.106V92.7201H351.077V81.0894Z" fill="black"/>
<path d="M316.157 81.0894H306.139V92.7201H316.157V81.0894Z" fill="black"/>
<path d="M281.236 81.0894H270.171V92.7201H281.236V81.0894Z" fill="black"/>
<path d="M246.315 81.0894H234.204V92.7201H246.315V81.0894Z" fill="black"/>
<path d="M211.394 81.0894H198.236V92.7201H211.394V81.0894Z" fill="black"/>
<path d="M176.466 81.0894H162.261V92.7201H176.466V81.0894Z" fill="black"/>
<path d="M141.545 81.0894H126.293V92.7201H141.545V81.0894Z" fill="black"/>
<path d="M106.624 81.0894H90.3262V92.7201H106.624V81.0894Z" fill="black"/>
<path d="M71.7034 81.0894H54.3589V92.7201H71.7034V81.0894Z" fill="black"/>
<path d="M36.7824 81.0894H18.3911V92.7201H36.7824V81.0894Z" fill="black"/>
<path d="M438.454 69.6423H431.576V81.2731H438.454V69.6423Z" fill="black"/>
<path d="M403.534 69.6423H395.609V81.2731H403.534V69.6423Z" fill="black"/>
<path d="M368.612 69.6423H359.641V81.2731H368.612V69.6423Z" fill="black"/>
<path d="M333.691 69.6423H323.673V81.2731H333.691V69.6423Z" fill="black"/>
<path d="M298.769 69.6423H287.705V81.2731H298.769V69.6423Z" fill="black"/>
<path d="M263.849 69.6423H251.738V81.2731H263.849V69.6423Z" fill="black"/>
<path d="M228.922 69.6423H215.764V81.2731H228.922V69.6423Z" fill="black"/>
<path d="M194 69.6423H179.796V81.2731H194V69.6423Z" fill="black"/>
<path d="M159.079 69.6423H143.828V81.2731H159.079V69.6423Z" fill="black"/>
<path d="M124.159 69.6423H107.861V81.2731H124.159V69.6423Z" fill="black"/>
<path d="M89.2376 69.6423H71.8931V81.2731H89.2376V69.6423Z" fill="black"/>
<path d="M54.3165 69.6423H35.9253V81.2731H54.3165V69.6423Z" fill="black"/>
<path d="M18.3912 69.6423H0V81.2731H18.3912V69.6423Z" fill="black"/>
<path d="M450.684 58.2021H447.656V69.8329H450.684V58.2021Z" fill="black"/>
<path d="M420.92 57.8704H414.042V69.5011H420.92V57.8704Z" fill="black"/>
<path d="M385.999 57.8701H378.074V69.5008H385.999V57.8701Z" fill="black"/>
<path d="M351.078 57.8704H342.107V69.5011H351.078V57.8704Z" fill="black"/>
<path d="M316.157 57.8704H306.139V69.5011H316.157V57.8704Z" fill="black"/>
<path d="M281.236 57.8701H270.171V69.5008H281.236V57.8701Z" fill="black"/>
<path d="M246.315 57.8704H234.204V69.5011H246.315V57.8704Z" fill="black"/>
<path d="M211.394 57.8701H198.236V69.5008H211.394V57.8701Z" fill="black"/>
<path d="M176.466 57.8704H162.262V69.5011H176.466V57.8704Z" fill="black"/>
<path d="M141.545 57.8701H126.293V69.5008H141.545V57.8701Z" fill="black"/>
<path d="M106.624 57.8704H90.3267V69.5011H106.624V57.8704Z" fill="black"/>
<path d="M71.7034 57.8701H54.3589V69.5008H71.7034V57.8701Z" fill="black"/>
<path d="M36.7828 57.8704H18.3916V69.5011H36.7828V57.8704Z" fill="black"/>
<path d="M438.454 46.4309H431.576V58.0616H438.454V46.4309Z" fill="black"/>
<path d="M403.534 46.4309H395.609V58.0616H403.534V46.4309Z" fill="black"/>
<path d="M368.612 46.4309H359.641V58.0616H368.612V46.4309Z" fill="black"/>
<path d="M333.691 46.4309H323.673V58.0616H333.691V46.4309Z" fill="black"/>
<path d="M298.769 46.4309H287.705V58.0616H298.769V46.4309Z" fill="black"/>
<path d="M263.849 46.4309H251.738V58.0616H263.849V46.4309Z" fill="black"/>
<path d="M228.922 46.4309H215.764V58.0616H228.922V46.4309Z" fill="black"/>
<path d="M194 46.4309H179.796V58.0616H194V46.4309Z" fill="black"/>
<path d="M159.079 46.4309H143.828V58.0616H159.079V46.4309Z" fill="black"/>
<path d="M124.159 46.4309H107.861V58.0616H124.159V46.4309Z" fill="black"/>
<path d="M89.2376 46.4309H71.8931V58.0616H89.2376V46.4309Z" fill="black"/>
<path d="M54.3165 46.4309H35.9253V58.0616H54.3165V46.4309Z" fill="black"/>
<path d="M18.3912 46.4309H0V58.0616H18.3912V46.4309Z" fill="black"/>
<path d="M450.684 34.9927H447.656V46.6234H450.684V34.9927Z" fill="black"/>
<path d="M420.92 34.6606H414.042V46.2914H420.92V34.6606Z" fill="black"/>
<path d="M386 34.6606H378.075V46.2914H386V34.6606Z" fill="black"/>
<path d="M351.078 34.6606H342.107V46.2914H351.078V34.6606Z" fill="black"/>
<path d="M316.157 34.6606H306.14V46.2914H316.157V34.6606Z" fill="black"/>
<path d="M281.236 34.6606H270.171V46.2914H281.236V34.6606Z" fill="black"/>
<path d="M246.315 34.6606H234.204V46.2914H246.315V34.6606Z" fill="black"/>
<path d="M211.394 34.6606H198.236V46.2914H211.394V34.6606Z" fill="black"/>
<path d="M176.467 34.6606H162.262V46.2914H176.467V34.6606Z" fill="black"/>
<path d="M141.545 34.6606H126.293V46.2914H141.545V34.6606Z" fill="black"/>
<path d="M106.624 34.6606H90.3267V46.2914H106.624V34.6606Z" fill="black"/>
<path d="M71.7039 34.6606H54.3594V46.2914H71.7039V34.6606Z" fill="black"/>
<path d="M36.7828 34.6609H18.3916V46.2916H36.7828V34.6609Z" fill="black"/>
<path d="M450.684 11.7749H447.656V23.4056H450.684V11.7749Z" fill="black"/>
<path d="M420.92 11.4431H414.042V23.0738H420.92V11.4431Z" fill="black"/>
<path d="M385.999 11.4431H378.074V23.0738H385.999V11.4431Z" fill="black"/>
<path d="M351.078 11.4431H342.107V23.0738H351.078V11.4431Z" fill="black"/>
<path d="M316.157 11.4431H306.14V23.0738H316.157V11.4431Z" fill="black"/>
<path d="M281.236 11.4431H270.172V23.0738H281.236V11.4431Z" fill="black"/>
<path d="M246.315 11.4431H234.204V23.0738H246.315V11.4431Z" fill="black"/>
<path d="M211.394 11.4431H198.236V23.0738H211.394V11.4431Z" fill="black"/>
<path d="M176.466 11.4431H162.262V23.0738H176.466V11.4431Z" fill="black"/>
<path d="M141.545 11.4431H126.294V23.0738H141.545V11.4431Z" fill="black"/>
<path d="M106.624 11.4431H90.3267V23.0738H106.624V11.4431Z" fill="black"/>
<path d="M71.7039 11.4431H54.3594V23.0738H71.7039V11.4431Z" fill="black"/>
<path d="M36.7828 11.4431H18.3916V23.0738H36.7828V11.4431Z" fill="black"/>
<path d="M438.454 23.2134H431.576V34.8441H438.454V23.2134Z" fill="black"/>
<path d="M403.534 23.2134H395.609V34.8441H403.534V23.2134Z" fill="black"/>
<path d="M368.612 23.2134H359.641V34.8441H368.612V23.2134Z" fill="black"/>
<path d="M333.691 23.2134H323.673V34.8441H333.691V23.2134Z" fill="black"/>
<path d="M298.77 23.2134H287.706V34.8441H298.77V23.2134Z" fill="black"/>
<path d="M263.849 23.2134H251.738V34.8441H263.849V23.2134Z" fill="black"/>
<path d="M228.922 23.2134H215.765V34.8441H228.922V23.2134Z" fill="black"/>
<path d="M194.001 23.2134H179.796V34.8441H194.001V23.2134Z" fill="black"/>
<path d="M159.08 23.2134H143.829V34.8441H159.08V23.2134Z" fill="black"/>
<path d="M124.159 23.2134H107.861V34.8441H124.159V23.2134Z" fill="black"/>
<path d="M89.2381 23.2134H71.8936V34.8441H89.2381V23.2134Z" fill="black"/>
<path d="M54.317 23.2134H35.9258V34.8441H54.317V23.2134Z" fill="black"/>
<path d="M18.3917 23.2134H0.000488281V34.8441H18.3917V23.2134Z" fill="black"/>
<path d="M438.454 0H431.576V11.6307H438.454V0Z" fill="black"/>
<path d="M403.534 0H395.609V11.6307H403.534V0Z" fill="black"/>
<path d="M368.612 0H359.641V11.6307H368.612V0Z" fill="black"/>
<path d="M333.691 0H323.673V11.6307H333.691V0Z" fill="black"/>
<path d="M298.77 0H287.706V11.6307H298.77V0Z" fill="black"/>
<path d="M263.849 0H251.738V11.6307H263.849V0Z" fill="black"/>
<path d="M228.922 0H215.764V11.6307H228.922V0Z" fill="black"/>
<path d="M194 0H179.796V11.6307H194V0Z" fill="black"/>
<path d="M159.079 0H143.828V11.6307H159.079V0Z" fill="black"/>
<path d="M124.159 0H107.861V11.6307H124.159V0Z" fill="black"/>
<path d="M89.2376 0H71.8931V11.6307H89.2376V0Z" fill="black"/>
<path d="M54.317 0H35.9258V11.6307H54.317V0Z" fill="black"/>
<path d="M18.3912 0H0V11.6307H18.3912V0Z" fill="black"/>
<path d="M438.454 255.369H431.576V267H438.454V255.369Z" fill="black"/>
<path d="M403.534 255.369H395.609V267H403.534V255.369Z" fill="black"/>
<path d="M368.612 255.369H359.641V267H368.612V255.369Z" fill="black"/>
<path d="M333.691 255.369H323.673V267H333.691V255.369Z" fill="black"/>
<path d="M298.769 255.369H287.705V267H298.769V255.369Z" fill="black"/>
<path d="M263.849 255.369H251.738V267H263.849V255.369Z" fill="black"/>
<path d="M228.922 255.369H215.764V267H228.922V255.369Z" fill="black"/>
<path d="M194 255.369H179.796V267H194V255.369Z" fill="black"/>
<path d="M159.079 255.369H143.828V267H159.079V255.369Z" fill="black"/>
<path d="M124.159 255.369H107.861V267H124.159V255.369Z" fill="black"/>
<path d="M89.2376 255.369H71.8931V267H89.2376V255.369Z" fill="black"/>
<path d="M54.3165 255.369H35.9253V267H54.3165V255.369Z" fill="black"/>
<path d="M18.3912 255.369H0V267H18.3912V255.369Z" fill="black"/>
</svg>
