<svg width="253" height="335" viewBox="0 0 253 335" fill="none" xmlns="http://www.w3.org/2000/svg">
<path d="M253 0H0V335H253V0Z" fill="#2E5A87"/>
<mask id="mask0_110_205" style="mask-type:luminance" maskUnits="userSpaceOnUse" x="0" y="0" width="253" height="335">
<path d="M253 0H0V335H253V0Z" fill="white"/>
</mask>
<g mask="url(#mask0_110_205)">
<path d="M253 0.0712891H0V335.009H253V0.0712891Z" fill="#F5ECD3"/>
</g>
<mask id="mask1_110_205" style="mask-type:luminance" maskUnits="userSpaceOnUse" x="0" y="0" width="253" height="335">
<path d="M253 0H0V335H253V0Z" fill="white"/>
</mask>
<g mask="url(#mask1_110_205)">
<path d="M20.3596 329.044C31.3296 329.044 40.2227 319.351 40.2227 307.393C40.2227 295.436 31.3296 285.743 20.3596 285.743C9.38947 285.743 0.49646 295.436 0.49646 307.393C0.49646 319.351 9.38947 329.044 20.3596 329.044Z" fill="#2E5A87"/>
<path d="M62.9442 329.044C73.9143 329.044 82.8073 319.351 82.8073 307.393C82.8073 295.436 73.9143 285.743 62.9442 285.743C51.9741 285.743 43.0811 295.436 43.0811 307.393C43.0811 319.351 51.9741 329.044 62.9442 329.044Z" fill="#2E5A87"/>
<path d="M105.529 329.044C116.499 329.044 125.392 319.351 125.392 307.393C125.392 295.436 116.499 285.743 105.529 285.743C94.5585 285.743 85.6655 295.436 85.6655 307.393C85.6655 319.351 94.5585 329.044 105.529 329.044Z" fill="#2E5A87"/>
<path d="M148.113 329.044C159.083 329.044 167.976 319.351 167.976 307.393C167.976 295.436 159.083 285.743 148.113 285.743C137.143 285.743 128.25 295.436 128.25 307.393C128.25 319.351 137.143 329.044 148.113 329.044Z" fill="#2E5A87"/>
<path d="M190.698 329.044C201.668 329.044 210.561 319.351 210.561 307.393C210.561 295.436 201.668 285.743 190.698 285.743C179.728 285.743 170.835 295.436 170.835 307.393C170.835 319.351 179.728 329.044 190.698 329.044Z" fill="#2E5A87"/>
<path d="M233.283 329.044C244.253 329.044 253.146 319.351 253.146 307.393C253.146 295.436 244.253 285.743 233.283 285.743C222.312 285.743 213.419 295.436 213.419 307.393C213.419 319.351 222.312 329.044 233.283 329.044Z" fill="#2E5A87"/>
<path d="M-1.03558 308.967C9.93451 308.967 18.8275 299.442 18.8275 287.692C18.8275 275.942 9.93451 266.417 -1.03558 266.417C-12.0057 266.417 -20.8987 275.942 -20.8987 287.692C-20.8987 299.442 -12.0057 308.967 -1.03558 308.967Z" fill="#F5ECD3"/>
<path d="M41.7031 308.967C52.6732 308.967 61.5662 299.442 61.5662 287.692C61.5662 275.942 52.6732 266.417 41.7031 266.417C30.733 266.417 21.84 275.942 21.84 287.692C21.84 299.442 30.733 308.967 41.7031 308.967Z" fill="#F5ECD3"/>
<path d="M84.4417 308.967C95.4118 308.967 104.305 299.442 104.305 287.692C104.305 275.942 95.4118 266.417 84.4417 266.417C73.4716 266.417 64.5786 275.942 64.5786 287.692C64.5786 299.442 73.4716 308.967 84.4417 308.967Z" fill="#F5ECD3"/>
<path d="M127.18 308.967C138.15 308.967 147.043 299.442 147.043 287.692C147.043 275.942 138.15 266.417 127.18 266.417C116.21 266.417 107.317 275.942 107.317 287.692C107.317 299.442 116.21 308.967 127.18 308.967Z" fill="#F5ECD3"/>
<path d="M169.928 308.967C180.898 308.967 189.791 299.442 189.791 287.692C189.791 275.942 180.898 266.417 169.928 266.417C158.957 266.417 150.064 275.942 150.064 287.692C150.064 299.442 158.957 308.967 169.928 308.967Z" fill="#F5ECD3"/>
<path d="M212.666 308.967C223.636 308.967 232.529 299.442 232.529 287.692C232.529 275.942 223.636 266.417 212.666 266.417C201.696 266.417 192.803 275.942 192.803 287.692C192.803 299.442 201.696 308.967 212.666 308.967Z" fill="#F5ECD3"/>
<path d="M255.405 308.967C266.375 308.967 275.268 299.442 275.268 287.692C275.268 275.942 266.375 266.417 255.405 266.417C244.435 266.417 235.542 275.942 235.542 287.692C235.542 299.442 244.435 308.967 255.405 308.967Z" fill="#F5ECD3"/>
<path d="M19.6921 286.7C30.6622 286.7 39.5552 277.122 39.5552 265.308C39.5552 253.494 30.6622 243.917 19.6921 243.917C8.72199 243.917 -0.171021 253.494 -0.171021 265.308C-0.171021 277.122 8.72199 286.7 19.6921 286.7Z" fill="#2E5A87"/>
<path d="M62.6103 286.7C73.5804 286.7 82.4734 277.122 82.4734 265.308C82.4734 253.494 73.5804 243.917 62.6103 243.917C51.6402 243.917 42.7472 253.494 42.7472 265.308C42.7472 277.122 51.6402 286.7 62.6103 286.7Z" fill="#2E5A87"/>
<path d="M105.529 286.7C116.499 286.7 125.392 277.122 125.392 265.308C125.392 253.494 116.499 243.917 105.529 243.917C94.5584 243.917 85.6654 253.494 85.6654 265.308C85.6654 277.122 94.5584 286.7 105.529 286.7Z" fill="#2E5A87"/>
<path d="M148.447 286.7C159.417 286.7 168.31 277.122 168.31 265.308C168.31 253.494 159.417 243.917 148.447 243.917C137.477 243.917 128.584 253.494 128.584 265.308C128.584 277.122 137.477 286.7 148.447 286.7Z" fill="#2E5A87"/>
<path d="M191.357 286.7C202.327 286.7 211.22 277.122 211.22 265.308C211.22 253.494 202.327 243.917 191.357 243.917C180.387 243.917 171.494 253.494 171.494 265.308C171.494 277.122 180.387 286.7 191.357 286.7Z" fill="#2E5A87"/>
<path d="M234.275 286.7C245.245 286.7 254.138 277.122 254.138 265.308C254.138 253.494 245.245 243.917 234.275 243.917C223.305 243.917 214.412 253.494 214.412 265.308C214.412 277.122 223.305 286.7 234.275 286.7Z" fill="#2E5A87"/>
<path d="M-1.03558 266.408C9.93451 266.408 18.8275 257.087 18.8275 245.589C18.8275 234.091 9.93451 224.77 -1.03558 224.77C-12.0057 224.77 -20.8987 234.091 -20.8987 245.589C-20.8987 257.087 -12.0057 266.408 -1.03558 266.408Z" fill="#F5ECD3"/>
<path d="M41.7031 266.408C52.6732 266.408 61.5662 257.087 61.5662 245.589C61.5662 234.091 52.6732 224.77 41.7031 224.77C30.733 224.77 21.84 234.091 21.84 245.589C21.84 257.087 30.733 266.408 41.7031 266.408Z" fill="#F5ECD3"/>
<path d="M84.4417 266.408C95.4118 266.408 104.305 257.087 104.305 245.589C104.305 234.091 95.4118 224.77 84.4417 224.77C73.4716 224.77 64.5786 234.091 64.5786 245.589C64.5786 257.087 73.4716 266.408 84.4417 266.408Z" fill="#F5ECD3"/>
<path d="M127.18 266.408C138.15 266.408 147.043 257.087 147.043 245.589C147.043 234.091 138.15 224.77 127.18 224.77C116.21 224.77 107.317 234.091 107.317 245.589C107.317 257.087 116.21 266.408 127.18 266.408Z" fill="#F5ECD3"/>
<path d="M169.928 266.408C180.898 266.408 189.791 257.087 189.791 245.589C189.791 234.091 180.898 224.77 169.928 224.77C158.957 224.77 150.064 234.091 150.064 245.589C150.064 257.087 158.957 266.408 169.928 266.408Z" fill="#F5ECD3"/>
<path d="M212.666 266.408C223.636 266.408 232.529 257.087 232.529 245.589C232.529 234.091 223.636 224.77 212.666 224.77C201.696 224.77 192.803 234.091 192.803 245.589C192.803 257.087 201.696 266.408 212.666 266.408Z" fill="#F5ECD3"/>
<path d="M255.405 266.408C266.375 266.408 275.268 257.087 275.268 245.589C275.268 234.091 266.375 224.77 255.405 224.77C244.435 224.77 235.542 234.091 235.542 245.589C235.542 257.087 244.435 266.408 255.405 266.408Z" fill="#F5ECD3"/>
<path d="M20.0941 243.917C31.0641 243.917 39.9572 234.596 39.9572 223.098C39.9572 211.6 31.0641 202.279 20.0941 202.279C9.12397 202.279 0.230957 211.6 0.230957 223.098C0.230957 234.596 9.12397 243.917 20.0941 243.917Z" fill="#2E5A87"/>
<path d="M62.807 243.917C73.7771 243.917 82.6701 234.596 82.6701 223.098C82.6701 211.6 73.7771 202.279 62.807 202.279C51.8369 202.279 42.9438 211.6 42.9438 223.098C42.9438 234.596 51.8369 243.917 62.807 243.917Z" fill="#2E5A87"/>
<path d="M105.529 243.917C116.499 243.917 125.392 234.596 125.392 223.098C125.392 211.6 116.499 202.279 105.529 202.279C94.5584 202.279 85.6654 211.6 85.6654 223.098C85.6654 234.596 94.5584 243.917 105.529 243.917Z" fill="#2E5A87"/>
<path d="M148.242 243.917C159.212 243.917 168.105 234.596 168.105 223.098C168.105 211.6 159.212 202.279 148.242 202.279C137.271 202.279 128.378 211.6 128.378 223.098C128.378 234.596 137.271 243.917 148.242 243.917Z" fill="#2E5A87"/>
<path d="M190.954 243.917C201.924 243.917 210.818 234.596 210.818 223.098C210.818 211.6 201.924 202.279 190.954 202.279C179.984 202.279 171.091 211.6 171.091 223.098C171.091 234.596 179.984 243.917 190.954 243.917Z" fill="#2E5A87"/>
<path d="M233.667 243.917C244.638 243.917 253.531 234.596 253.531 223.098C253.531 211.6 244.638 202.279 233.667 202.279C222.697 202.279 213.804 211.6 213.804 223.098C213.804 234.596 222.697 243.917 233.667 243.917Z" fill="#2E5A87"/>
<path d="M-1.03558 224.779C9.93451 224.779 18.8275 215.458 18.8275 203.96C18.8275 192.462 9.93451 183.141 -1.03558 183.141C-12.0057 183.141 -20.8987 192.462 -20.8987 203.96C-20.8987 215.458 -12.0057 224.779 -1.03558 224.779Z" fill="#F5ECD3"/>
<path d="M41.7031 224.779C52.6732 224.779 61.5662 215.458 61.5662 203.96C61.5662 192.462 52.6732 183.141 41.7031 183.141C30.733 183.141 21.84 192.462 21.84 203.96C21.84 215.458 30.733 224.779 41.7031 224.779Z" fill="#F5ECD3"/>
<path d="M84.4417 224.779C95.4118 224.779 104.305 215.458 104.305 203.96C104.305 192.462 95.4118 183.141 84.4417 183.141C73.4716 183.141 64.5786 192.462 64.5786 203.96C64.5786 215.458 73.4716 224.779 84.4417 224.779Z" fill="#F5ECD3"/>
<path d="M127.18 224.779C138.15 224.779 147.043 215.458 147.043 203.96C147.043 192.462 138.15 183.141 127.18 183.141C116.21 183.141 107.317 192.462 107.317 203.96C107.317 215.458 116.21 224.779 127.18 224.779Z" fill="#F5ECD3"/>
<path d="M169.928 224.779C180.898 224.779 189.791 215.458 189.791 203.96C189.791 192.462 180.898 183.141 169.928 183.141C158.957 183.141 150.064 192.462 150.064 203.96C150.064 215.458 158.957 224.779 169.928 224.779Z" fill="#F5ECD3"/>
<path d="M212.666 224.779C223.636 224.779 232.529 215.458 232.529 203.96C232.529 192.462 223.636 183.141 212.666 183.141C201.696 183.141 192.803 192.462 192.803 203.96C192.803 215.458 201.696 224.779 212.666 224.779Z" fill="#F5ECD3"/>
<path d="M255.405 224.779C266.375 224.779 275.268 215.458 275.268 203.96C275.268 192.462 266.375 183.141 255.405 183.141C244.435 183.141 235.542 192.462 235.542 203.96C235.542 215.458 244.435 224.779 255.405 224.779Z" fill="#F5ECD3"/>
<path d="M20.0941 202.878C31.0641 202.878 39.9572 193.557 39.9572 182.059C39.9572 170.561 31.0641 161.24 20.0941 161.24C9.12397 161.24 0.230957 170.561 0.230957 182.059C0.230957 193.557 9.12397 202.878 20.0941 202.878Z" fill="#2E5A87"/>
<path d="M62.807 202.878C73.7771 202.878 82.6701 193.557 82.6701 182.059C82.6701 170.561 73.7771 161.24 62.807 161.24C51.8369 161.24 42.9438 170.561 42.9438 182.059C42.9438 193.557 51.8369 202.878 62.807 202.878Z" fill="#2E5A87"/>
<path d="M105.529 202.878C116.499 202.878 125.392 193.557 125.392 182.059C125.392 170.561 116.499 161.24 105.529 161.24C94.5584 161.24 85.6654 170.561 85.6654 182.059C85.6654 193.557 94.5584 202.878 105.529 202.878Z" fill="#2E5A87"/>
<path d="M148.242 202.878C159.212 202.878 168.105 193.557 168.105 182.059C168.105 170.561 159.212 161.24 148.242 161.24C137.271 161.24 128.378 170.561 128.378 182.059C128.378 193.557 137.271 202.878 148.242 202.878Z" fill="#2E5A87"/>
<path d="M190.954 202.878C201.924 202.878 210.818 193.557 210.818 182.059C210.818 170.561 201.924 161.24 190.954 161.24C179.984 161.24 171.091 170.561 171.091 182.059C171.091 193.557 179.984 202.878 190.954 202.878Z" fill="#2E5A87"/>
<path d="M233.667 202.878C244.638 202.878 253.531 193.557 253.531 182.059C253.531 170.561 244.638 161.24 233.667 161.24C222.697 161.24 213.804 170.561 213.804 182.059C213.804 193.557 222.697 202.878 233.667 202.878Z" fill="#2E5A87"/>
<path d="M-1.03558 183.731C9.93451 183.731 18.8275 174.41 18.8275 162.912C18.8275 151.414 9.93451 142.093 -1.03558 142.093C-12.0057 142.093 -20.8987 151.414 -20.8987 162.912C-20.8987 174.41 -12.0057 183.731 -1.03558 183.731Z" fill="#F5ECD3"/>
<path d="M41.7031 183.731C52.6732 183.731 61.5662 174.41 61.5662 162.912C61.5662 151.414 52.6732 142.093 41.7031 142.093C30.733 142.093 21.84 151.414 21.84 162.912C21.84 174.41 30.733 183.731 41.7031 183.731Z" fill="#F5ECD3"/>
<path d="M84.4417 183.731C95.4118 183.731 104.305 174.41 104.305 162.912C104.305 151.414 95.4118 142.093 84.4417 142.093C73.4716 142.093 64.5786 151.414 64.5786 162.912C64.5786 174.41 73.4716 183.731 84.4417 183.731Z" fill="#F5ECD3"/>
<path d="M127.18 183.731C138.15 183.731 147.043 174.41 147.043 162.912C147.043 151.414 138.15 142.093 127.18 142.093C116.21 142.093 107.317 151.414 107.317 162.912C107.317 174.41 116.21 183.731 127.18 183.731Z" fill="#F5ECD3"/>
<path d="M169.928 183.731C180.898 183.731 189.791 174.41 189.791 162.912C189.791 151.414 180.898 142.093 169.928 142.093C158.957 142.093 150.064 151.414 150.064 162.912C150.064 174.41 158.957 183.731 169.928 183.731Z" fill="#F5ECD3"/>
<path d="M212.666 183.731C223.636 183.731 232.529 174.41 232.529 162.912C232.529 151.414 223.636 142.093 212.666 142.093C201.696 142.093 192.803 151.414 192.803 162.912C192.803 174.41 201.696 183.731 212.666 183.731Z" fill="#F5ECD3"/>
<path d="M255.405 183.731C266.375 183.731 275.268 174.41 275.268 162.912C275.268 151.414 266.375 142.093 255.405 142.093C244.435 142.093 235.542 151.414 235.542 162.912C235.542 174.41 244.435 183.731 255.405 183.731Z" fill="#F5ECD3"/>
<path d="M20.0941 163.565C31.0641 163.565 39.9572 153.948 39.9572 142.084C39.9572 130.221 31.0641 120.604 20.0941 120.604C9.12397 120.604 0.230957 130.221 0.230957 142.084C0.230957 153.948 9.12397 163.565 20.0941 163.565Z" fill="#2E5A87"/>
<path d="M62.807 163.565C73.7771 163.565 82.6701 153.948 82.6701 142.084C82.6701 130.221 73.7771 120.604 62.807 120.604C51.8369 120.604 42.9438 130.221 42.9438 142.084C42.9438 153.948 51.8369 163.565 62.807 163.565Z" fill="#2E5A87"/>
<path d="M105.529 163.565C116.499 163.565 125.392 153.948 125.392 142.084C125.392 130.221 116.499 120.604 105.529 120.604C94.5584 120.604 85.6654 130.221 85.6654 142.084C85.6654 153.948 94.5584 163.565 105.529 163.565Z" fill="#2E5A87"/>
<path d="M148.242 163.565C159.212 163.565 168.105 153.948 168.105 142.084C168.105 130.221 159.212 120.604 148.242 120.604C137.271 120.604 128.378 130.221 128.378 142.084C128.378 153.948 137.271 163.565 148.242 163.565Z" fill="#2E5A87"/>
<path d="M190.954 163.565C201.924 163.565 210.818 153.948 210.818 142.084C210.818 130.221 201.924 120.604 190.954 120.604C179.984 120.604 171.091 130.221 171.091 142.084C171.091 153.948 179.984 163.565 190.954 163.565Z" fill="#2E5A87"/>
<path d="M233.667 163.565C244.638 163.565 253.531 153.948 253.531 142.084C253.531 130.221 244.638 120.604 233.667 120.604C222.697 120.604 213.804 130.221 213.804 142.084C213.804 153.948 222.697 163.565 233.667 163.565Z" fill="#2E5A87"/>
<path d="M-1.03558 142.495C9.93451 142.495 18.8275 133.174 18.8275 121.676C18.8275 110.178 9.93451 100.857 -1.03558 100.857C-12.0057 100.857 -20.8987 110.178 -20.8987 121.676C-20.8987 133.174 -12.0057 142.495 -1.03558 142.495Z" fill="#F5ECD3"/>
<path d="M41.7031 142.495C52.6732 142.495 61.5662 133.174 61.5662 121.676C61.5662 110.178 52.6732 100.857 41.7031 100.857C30.733 100.857 21.84 110.178 21.84 121.676C21.84 133.174 30.733 142.495 41.7031 142.495Z" fill="#F5ECD3"/>
<path d="M84.4417 142.495C95.4118 142.495 104.305 133.174 104.305 121.676C104.305 110.178 95.4118 100.857 84.4417 100.857C73.4716 100.857 64.5786 110.178 64.5786 121.676C64.5786 133.174 73.4716 142.495 84.4417 142.495Z" fill="#F5ECD3"/>
<path d="M127.18 142.495C138.15 142.495 147.043 133.174 147.043 121.676C147.043 110.178 138.15 100.857 127.18 100.857C116.21 100.857 107.317 110.178 107.317 121.676C107.317 133.174 116.21 142.495 127.18 142.495Z" fill="#F5ECD3"/>
<path d="M169.928 142.495C180.898 142.495 189.791 133.174 189.791 121.676C189.791 110.178 180.898 100.857 169.928 100.857C158.957 100.857 150.064 110.178 150.064 121.676C150.064 133.174 158.957 142.495 169.928 142.495Z" fill="#F5ECD3"/>
<path d="M212.666 142.495C223.636 142.495 232.529 133.174 232.529 121.676C232.529 110.178 223.636 100.857 212.666 100.857C201.696 100.857 192.803 110.178 192.803 121.676C192.803 133.174 201.696 142.495 212.666 142.495Z" fill="#F5ECD3"/>
<path d="M255.405 142.495C266.375 142.495 275.268 133.174 275.268 121.676C275.268 110.178 266.375 100.857 255.405 100.857C244.435 100.857 235.542 110.178 235.542 121.676C235.542 133.174 244.435 142.495 255.405 142.495Z" fill="#F5ECD3"/>
<path d="M20.3596 121.819C31.3296 121.819 40.2227 112.126 40.2227 100.169C40.2227 88.2114 31.3296 78.5181 20.3596 78.5181C9.38947 78.5181 0.49646 88.2114 0.49646 100.169C0.49646 112.126 9.38947 121.819 20.3596 121.819Z" fill="#2E5A87"/>
<path d="M62.9442 121.819C73.9143 121.819 82.8073 112.126 82.8073 100.169C82.8073 88.2114 73.9143 78.5181 62.9442 78.5181C51.9741 78.5181 43.0811 88.2114 43.0811 100.169C43.0811 112.126 51.9741 121.819 62.9442 121.819Z" fill="#2E5A87"/>
<path d="M105.529 121.819C116.499 121.819 125.392 112.126 125.392 100.169C125.392 88.2114 116.499 78.5181 105.529 78.5181C94.5585 78.5181 85.6655 88.2114 85.6655 100.169C85.6655 112.126 94.5585 121.819 105.529 121.819Z" fill="#2E5A87"/>
<path d="M148.113 121.819C159.083 121.819 167.976 112.126 167.976 100.169C167.976 88.2114 159.083 78.5181 148.113 78.5181C137.143 78.5181 128.25 88.2114 128.25 100.169C128.25 112.126 137.143 121.819 148.113 121.819Z" fill="#2E5A87"/>
<path d="M190.698 121.819C201.668 121.819 210.561 112.126 210.561 100.169C210.561 88.2114 201.668 78.5181 190.698 78.5181C179.728 78.5181 170.835 88.2114 170.835 100.169C170.835 112.126 179.728 121.819 190.698 121.819Z" fill="#2E5A87"/>
<path d="M233.283 121.819C244.253 121.819 253.146 112.126 253.146 100.169C253.146 88.2114 244.253 78.5181 233.283 78.5181C222.312 78.5181 213.419 88.2114 213.419 100.169C213.419 112.126 222.312 121.819 233.283 121.819Z" fill="#2E5A87"/>
<path d="M-1.03558 101.734C9.93451 101.734 18.8275 92.2086 18.8275 80.4587C18.8275 68.7088 9.93451 59.1836 -1.03558 59.1836C-12.0057 59.1836 -20.8987 68.7088 -20.8987 80.4587C-20.8987 92.2086 -12.0057 101.734 -1.03558 101.734Z" fill="#F5ECD3"/>
<path d="M41.7031 101.734C52.6732 101.734 61.5662 92.2086 61.5662 80.4587C61.5662 68.7088 52.6732 59.1836 41.7031 59.1836C30.733 59.1836 21.84 68.7088 21.84 80.4587C21.84 92.2086 30.733 101.734 41.7031 101.734Z" fill="#F5ECD3"/>
<path d="M84.4417 101.734C95.4118 101.734 104.305 92.2086 104.305 80.4587C104.305 68.7088 95.4118 59.1836 84.4417 59.1836C73.4716 59.1836 64.5786 68.7088 64.5786 80.4587C64.5786 92.2086 73.4716 101.734 84.4417 101.734Z" fill="#F5ECD3"/>
<path d="M127.18 101.734C138.15 101.734 147.043 92.2086 147.043 80.4587C147.043 68.7088 138.15 59.1836 127.18 59.1836C116.21 59.1836 107.317 68.7088 107.317 80.4587C107.317 92.2086 116.21 101.734 127.18 101.734Z" fill="#F5ECD3"/>
<path d="M169.928 101.734C180.898 101.734 189.791 92.2086 189.791 80.4587C189.791 68.7088 180.898 59.1836 169.928 59.1836C158.957 59.1836 150.064 68.7088 150.064 80.4587C150.064 92.2086 158.957 101.734 169.928 101.734Z" fill="#F5ECD3"/>
<path d="M212.666 101.734C223.636 101.734 232.529 92.2086 232.529 80.4587C232.529 68.7088 223.636 59.1836 212.666 59.1836C201.696 59.1836 192.803 68.7088 192.803 80.4587C192.803 92.2086 201.696 101.734 212.666 101.734Z" fill="#F5ECD3"/>
<path d="M255.405 101.734C266.375 101.734 275.268 92.2086 275.268 80.4587C275.268 68.7088 266.375 59.1836 255.405 59.1836C244.435 59.1836 235.542 68.7088 235.542 80.4587C235.542 92.2086 244.435 101.734 255.405 101.734Z" fill="#F5ECD3"/>
<path d="M19.6921 79.4751C30.6622 79.4751 39.5552 69.8979 39.5552 58.0837C39.5552 46.2696 30.6622 36.6924 19.6921 36.6924C8.72199 36.6924 -0.171021 46.2696 -0.171021 58.0837C-0.171021 69.8979 8.72199 79.4751 19.6921 79.4751Z" fill="#2E5A87"/>
<path d="M62.6103 79.4751C73.5804 79.4751 82.4734 69.8979 82.4734 58.0837C82.4734 46.2696 73.5804 36.6924 62.6103 36.6924C51.6402 36.6924 42.7472 46.2696 42.7472 58.0837C42.7472 69.8979 51.6402 79.4751 62.6103 79.4751Z" fill="#2E5A87"/>
<path d="M105.529 79.4751C116.499 79.4751 125.392 69.8979 125.392 58.0837C125.392 46.2696 116.499 36.6924 105.529 36.6924C94.5584 36.6924 85.6654 46.2696 85.6654 58.0837C85.6654 69.8979 94.5584 79.4751 105.529 79.4751Z" fill="#2E5A87"/>
<path d="M148.447 79.4751C159.417 79.4751 168.31 69.8979 168.31 58.0837C168.31 46.2696 159.417 36.6924 148.447 36.6924C137.477 36.6924 128.584 46.2696 128.584 58.0837C128.584 69.8979 137.477 79.4751 148.447 79.4751Z" fill="#2E5A87"/>
<path d="M191.357 79.4751C202.327 79.4751 211.22 69.8979 211.22 58.0837C211.22 46.2696 202.327 36.6924 191.357 36.6924C180.387 36.6924 171.494 46.2696 171.494 58.0837C171.494 69.8979 180.387 79.4751 191.357 79.4751Z" fill="#2E5A87"/>
<path d="M234.275 79.4751C245.245 79.4751 254.138 69.8979 254.138 58.0837C254.138 46.2696 245.245 36.6924 234.275 36.6924C223.305 36.6924 214.412 46.2696 214.412 58.0837C214.412 69.8979 223.305 79.4751 234.275 79.4751Z" fill="#2E5A87"/>
<path d="M-1.03558 59.1839C9.93451 59.1839 18.8275 49.8629 18.8275 38.3649C18.8275 26.8669 9.93451 17.5459 -1.03558 17.5459C-12.0057 17.5459 -20.8987 26.8669 -20.8987 38.3649C-20.8987 49.8629 -12.0057 59.1839 -1.03558 59.1839Z" fill="#F5ECD3"/>
<path d="M41.7031 59.1839C52.6732 59.1839 61.5662 49.8629 61.5662 38.3649C61.5662 26.8669 52.6732 17.5459 41.7031 17.5459C30.733 17.5459 21.84 26.8669 21.84 38.3649C21.84 49.8629 30.733 59.1839 41.7031 59.1839Z" fill="#F5ECD3"/>
<path d="M84.4417 59.1839C95.4118 59.1839 104.305 49.8629 104.305 38.3649C104.305 26.8669 95.4118 17.5459 84.4417 17.5459C73.4716 17.5459 64.5786 26.8669 64.5786 38.3649C64.5786 49.8629 73.4716 59.1839 84.4417 59.1839Z" fill="#F5ECD3"/>
<path d="M127.18 59.1839C138.15 59.1839 147.043 49.8629 147.043 38.3649C147.043 26.8669 138.15 17.5459 127.18 17.5459C116.21 17.5459 107.317 26.8669 107.317 38.3649C107.317 49.8629 116.21 59.1839 127.18 59.1839Z" fill="#F5ECD3"/>
<path d="M169.928 59.1839C180.898 59.1839 189.791 49.8629 189.791 38.3649C189.791 26.8669 180.898 17.5459 169.928 17.5459C158.957 17.5459 150.064 26.8669 150.064 38.3649C150.064 49.8629 158.957 59.1839 169.928 59.1839Z" fill="#F5ECD3"/>
<path d="M212.666 59.1839C223.636 59.1839 232.529 49.8629 232.529 38.3649C232.529 26.8669 223.636 17.5459 212.666 17.5459C201.696 17.5459 192.803 26.8669 192.803 38.3649C192.803 49.8629 201.696 59.1839 212.666 59.1839Z" fill="#F5ECD3"/>
<path d="M255.405 59.1839C266.375 59.1839 275.268 49.8629 275.268 38.3649C275.268 26.8669 266.375 17.5459 255.405 17.5459C244.435 17.5459 235.542 26.8669 235.542 38.3649C235.542 49.8629 244.435 59.1839 255.405 59.1839Z" fill="#F5ECD3"/>
<path d="M20.0942 37.6852C31.0643 37.6852 39.9573 28.144 39.9573 16.3743C39.9573 4.60468 31.0643 -4.93652 20.0942 -4.93652C9.12409 -4.93652 0.231079 4.60468 0.231079 16.3743C0.231079 28.144 9.12409 37.6852 20.0942 37.6852Z" fill="#2E5A87"/>
<path d="M62.8072 37.6852C73.7773 37.6852 82.6703 28.144 82.6703 16.3743C82.6703 4.60468 73.7773 -4.93652 62.8072 -4.93652C51.8371 -4.93652 42.9441 4.60468 42.9441 16.3743C42.9441 28.144 51.8371 37.6852 62.8072 37.6852Z" fill="#2E5A87"/>
<path d="M105.529 37.6852C116.499 37.6852 125.392 28.144 125.392 16.3743C125.392 4.60468 116.499 -4.93652 105.529 -4.93652C94.5585 -4.93652 85.6655 4.60468 85.6655 16.3743C85.6655 28.144 94.5585 37.6852 105.529 37.6852Z" fill="#2E5A87"/>
<path d="M148.242 37.6852C159.212 37.6852 168.105 28.144 168.105 16.3743C168.105 4.60468 159.212 -4.93652 148.242 -4.93652C137.271 -4.93652 128.378 4.60468 128.378 16.3743C128.378 28.144 137.271 37.6852 148.242 37.6852Z" fill="#2E5A87"/>
<path d="M190.963 37.6852C201.933 37.6852 210.826 28.144 210.826 16.3743C210.826 4.60468 201.933 -4.93652 190.963 -4.93652C179.993 -4.93652 171.1 4.60468 171.1 16.3743C171.1 28.144 179.993 37.6852 190.963 37.6852Z" fill="#2E5A87"/>
<path d="M233.676 37.6852C244.646 37.6852 253.539 28.144 253.539 16.3743C253.539 4.60468 244.646 -4.93652 233.676 -4.93652C222.706 -4.93652 213.813 4.60468 213.813 16.3743C213.813 28.144 222.706 37.6852 233.676 37.6852Z" fill="#2E5A87"/>
<path d="M18.8105 -4.93652C18.8105 7.95016 9.19992 18.4044 -2.64434 18.4044C-14.4886 18.4044 -24.1078 7.95016 -24.1078 -4.93652H18.8105Z" fill="#F5ECD3"/>
<path d="M61.7288 -4.93652C61.7288 7.95016 52.1181 18.4044 40.2739 18.4044C28.4296 18.4044 18.819 7.9591 18.819 -4.93652H61.7288Z" fill="#F5ECD3"/>
<path d="M104.639 -4.93652C104.639 7.95016 95.0279 18.4044 83.1836 18.4044C71.3394 18.4044 61.7288 7.95016 61.7288 -4.93652H104.639Z" fill="#F5ECD3"/>
<path d="M147.557 -4.93652C147.557 7.95016 137.946 18.4044 126.102 18.4044C114.249 18.4044 104.647 7.9591 104.647 -4.93652H147.557Z" fill="#F5ECD3"/>
<path d="M190.475 -4.93652C190.475 7.95016 180.865 18.4044 169.02 18.4044C157.168 18.4044 147.566 7.9591 147.566 -4.93652H190.475Z" fill="#F5ECD3"/>
<path d="M233.394 -4.93652C233.394 7.95016 223.783 18.4044 211.939 18.4044C200.086 18.4044 190.484 7.9591 190.484 -4.93652H233.394Z" fill="#F5ECD3"/>
<path d="M276.312 -4.93652C276.312 7.95016 266.701 18.4044 254.857 18.4044C243.004 18.4044 233.402 7.9591 233.402 -4.93652H276.312Z" fill="#F5ECD3"/>
</g>
</svg>
