<svg width="177" height="236" viewBox="0 0 177 236" fill="none" xmlns="http://www.w3.org/2000/svg">
<path d="M177 0.00146484H0.000488281V235.198H177V0.00146484Z" fill="#2E5A87"/>
<mask id="mask0_112_921" style="mask-type:luminance" maskUnits="userSpaceOnUse" x="0" y="0" width="177" height="236">
<path d="M177 0H0V235.197H177V0Z" fill="white"/>
</mask>
<g mask="url(#mask0_112_921)">
<path d="M177 0.0495605H0V235.203H177V0.0495605Z" fill="#F5ECD3"/>
</g>
<mask id="mask1_112_921" style="mask-type:luminance" maskUnits="userSpaceOnUse" x="0" y="0" width="177" height="236">
<path d="M177 0H0V235.197H177V0Z" fill="white"/>
</mask>
<g mask="url(#mask1_112_921)">
<path d="M14.243 231.018C21.9177 231.018 28.1392 224.212 28.1392 215.817C28.1392 207.422 21.9177 200.617 14.243 200.617C6.56825 200.617 0.34668 207.422 0.34668 215.817C0.34668 224.212 6.56825 231.018 14.243 231.018Z" fill="#2E5A87"/>
<path d="M44.0364 231.018C51.7111 231.018 57.9327 224.212 57.9327 215.817C57.9327 207.422 51.7111 200.617 44.0364 200.617C36.3617 200.617 30.1401 207.422 30.1401 215.817C30.1401 224.212 36.3617 231.018 44.0364 231.018Z" fill="#2E5A87"/>
<path d="M73.8284 231.018C81.5031 231.018 87.7247 224.212 87.7247 215.817C87.7247 207.422 81.5031 200.617 73.8284 200.617C66.1537 200.617 59.9321 207.422 59.9321 215.817C59.9321 224.212 66.1537 231.018 73.8284 231.018Z" fill="#2E5A87"/>
<path d="M103.62 231.018C111.295 231.018 117.517 224.212 117.517 215.817C117.517 207.422 111.295 200.617 103.62 200.617C95.9457 200.617 89.7241 207.422 89.7241 215.817C89.7241 224.212 95.9457 231.018 103.62 231.018Z" fill="#2E5A87"/>
<path d="M133.413 231.018C141.088 231.018 147.31 224.212 147.31 215.817C147.31 207.422 141.088 200.617 133.413 200.617C125.739 200.617 119.517 207.422 119.517 215.817C119.517 224.212 125.739 231.018 133.413 231.018Z" fill="#2E5A87"/>
<path d="M163.205 231.018C170.88 231.018 177.102 224.212 177.102 215.817C177.102 207.422 170.88 200.617 163.205 200.617C155.531 200.617 149.309 207.422 149.309 215.817C149.309 224.212 155.531 231.018 163.205 231.018Z" fill="#2E5A87"/>
<path d="M-0.724809 216.919C6.9499 216.919 13.1715 210.231 13.1715 201.982C13.1715 193.732 6.9499 187.045 -0.724809 187.045C-8.39952 187.045 -14.6211 193.732 -14.6211 201.982C-14.6211 210.231 -8.39952 216.919 -0.724809 216.919Z" fill="#F5ECD3"/>
<path d="M29.1751 216.919C36.8498 216.919 43.0714 210.231 43.0714 201.982C43.0714 193.732 36.8498 187.045 29.1751 187.045C21.5004 187.045 15.2788 193.732 15.2788 201.982C15.2788 210.231 21.5004 216.919 29.1751 216.919Z" fill="#F5ECD3"/>
<path d="M59.0755 216.919C66.7502 216.919 72.9718 210.231 72.9718 201.982C72.9718 193.732 66.7502 187.045 59.0755 187.045C51.4008 187.045 45.1792 193.732 45.1792 201.982C45.1792 210.231 51.4008 216.919 59.0755 216.919Z" fill="#F5ECD3"/>
<path d="M88.9754 216.919C96.6501 216.919 102.872 210.231 102.872 201.982C102.872 193.732 96.6501 187.045 88.9754 187.045C81.3007 187.045 75.0791 193.732 75.0791 201.982C75.0791 210.231 81.3007 216.919 88.9754 216.919Z" fill="#F5ECD3"/>
<path d="M118.881 216.919C126.556 216.919 132.777 210.231 132.777 201.982C132.777 193.732 126.556 187.045 118.881 187.045C111.206 187.045 104.985 193.732 104.985 201.982C104.985 210.231 111.206 216.919 118.881 216.919Z" fill="#F5ECD3"/>
<path d="M148.782 216.919C156.456 216.919 162.678 210.231 162.678 201.982C162.678 193.732 156.456 187.045 148.782 187.045C141.107 187.045 134.885 193.732 134.885 201.982C134.885 210.231 141.107 216.919 148.782 216.919Z" fill="#F5ECD3"/>
<path d="M178.681 216.919C186.356 216.919 192.578 210.231 192.578 201.982C192.578 193.732 186.356 187.045 178.681 187.045C171.007 187.045 164.785 193.732 164.785 201.982C164.785 210.231 171.007 216.919 178.681 216.919Z" fill="#F5ECD3"/>
<path d="M13.7771 201.286C21.4518 201.286 27.6734 194.562 27.6734 186.268C27.6734 177.973 21.4518 171.249 13.7771 171.249C6.10243 171.249 -0.119141 177.973 -0.119141 186.268C-0.119141 194.562 6.10243 201.286 13.7771 201.286Z" fill="#2E5A87"/>
<path d="M43.8025 201.286C51.4772 201.286 57.6988 194.562 57.6988 186.268C57.6988 177.973 51.4772 171.249 43.8025 171.249C36.1278 171.249 29.9062 177.973 29.9062 186.268C29.9062 194.562 36.1278 201.286 43.8025 201.286Z" fill="#2E5A87"/>
<path d="M73.8284 201.286C81.5031 201.286 87.7247 194.562 87.7247 186.268C87.7247 177.973 81.5031 171.249 73.8284 171.249C66.1537 171.249 59.9321 177.973 59.9321 186.268C59.9321 194.562 66.1537 201.286 73.8284 201.286Z" fill="#2E5A87"/>
<path d="M103.854 201.286C111.529 201.286 117.751 194.562 117.751 186.268C117.751 177.973 111.529 171.249 103.854 171.249C96.1796 171.249 89.958 177.973 89.958 186.268C89.958 194.562 96.1796 201.286 103.854 201.286Z" fill="#2E5A87"/>
<path d="M133.874 201.286C141.549 201.286 147.77 194.562 147.77 186.268C147.77 177.973 141.549 171.249 133.874 171.249C126.199 171.249 119.978 177.973 119.978 186.268C119.978 194.562 126.199 201.286 133.874 201.286Z" fill="#2E5A87"/>
<path d="M163.9 201.286C171.574 201.286 177.796 194.562 177.796 186.268C177.796 177.973 171.574 171.249 163.9 171.249C156.225 171.249 150.003 177.973 150.003 186.268C150.003 194.562 156.225 201.286 163.9 201.286Z" fill="#2E5A87"/>
<path d="M-0.724809 187.04C6.9499 187.04 13.1715 180.496 13.1715 172.423C13.1715 164.351 6.9499 157.807 -0.724809 157.807C-8.39952 157.807 -14.6211 164.351 -14.6211 172.423C-14.6211 180.496 -8.39952 187.04 -0.724809 187.04Z" fill="#F5ECD3"/>
<path d="M29.1751 187.04C36.8498 187.04 43.0714 180.496 43.0714 172.423C43.0714 164.351 36.8498 157.807 29.1751 157.807C21.5004 157.807 15.2788 164.351 15.2788 172.423C15.2788 180.496 21.5004 187.04 29.1751 187.04Z" fill="#F5ECD3"/>
<path d="M59.0755 187.04C66.7502 187.04 72.9718 180.496 72.9718 172.423C72.9718 164.351 66.7502 157.807 59.0755 157.807C51.4008 157.807 45.1792 164.351 45.1792 172.423C45.1792 180.496 51.4008 187.04 59.0755 187.04Z" fill="#F5ECD3"/>
<path d="M88.9754 187.04C96.6501 187.04 102.872 180.496 102.872 172.423C102.872 164.351 96.6501 157.807 88.9754 157.807C81.3007 157.807 75.0791 164.351 75.0791 172.423C75.0791 180.496 81.3007 187.04 88.9754 187.04Z" fill="#F5ECD3"/>
<path d="M118.882 187.04C126.556 187.04 132.778 180.496 132.778 172.424C132.778 164.351 126.556 157.807 118.882 157.807C111.207 157.807 104.985 164.351 104.985 172.424C104.985 180.496 111.207 187.04 118.882 187.04Z" fill="#F5ECD3"/>
<path d="M148.782 187.04C156.456 187.04 162.678 180.496 162.678 172.423C162.678 164.351 156.456 157.807 148.782 157.807C141.107 157.807 134.885 164.351 134.885 172.423C134.885 180.496 141.107 187.04 148.782 187.04Z" fill="#F5ECD3"/>
<path d="M178.681 187.04C186.356 187.04 192.578 180.496 192.578 172.423C192.578 164.351 186.356 157.807 178.681 157.807C171.007 157.807 164.785 164.351 164.785 172.423C164.785 180.496 171.007 187.04 178.681 187.04Z" fill="#F5ECD3"/>
<path d="M14.0584 171.249C21.7331 171.249 27.9547 164.705 27.9547 156.632C27.9547 148.559 21.7331 142.015 14.0584 142.015C6.38368 142.015 0.162109 148.559 0.162109 156.632C0.162109 164.705 6.38368 171.249 14.0584 171.249Z" fill="#2E5A87"/>
<path d="M43.9402 171.249C51.6149 171.249 57.8365 164.705 57.8365 156.632C57.8365 148.559 51.6149 142.015 43.9402 142.015C36.2655 142.015 30.0439 148.559 30.0439 156.632C30.0439 164.705 36.2655 171.249 43.9402 171.249Z" fill="#2E5A87"/>
<path d="M73.8284 171.249C81.5031 171.249 87.7247 164.705 87.7247 156.632C87.7247 148.559 81.5031 142.015 73.8284 142.015C66.1537 142.015 59.9321 148.559 59.9321 156.632C59.9321 164.705 66.1537 171.249 73.8284 171.249Z" fill="#2E5A87"/>
<path d="M103.711 171.249C111.385 171.249 117.607 164.705 117.607 156.632C117.607 148.559 111.385 142.015 103.711 142.015C96.036 142.015 89.8145 148.559 89.8145 156.632C89.8145 164.705 96.036 171.249 103.711 171.249Z" fill="#2E5A87"/>
<path d="M133.593 171.249C141.267 171.249 147.489 164.705 147.489 156.632C147.489 148.559 141.267 142.015 133.593 142.015C125.918 142.015 119.696 148.559 119.696 156.632C119.696 164.705 125.918 171.249 133.593 171.249Z" fill="#2E5A87"/>
<path d="M163.474 171.249C171.149 171.249 177.371 164.705 177.371 156.632C177.371 148.559 171.149 142.015 163.474 142.015C155.8 142.015 149.578 148.559 149.578 156.632C149.578 164.705 155.8 171.249 163.474 171.249Z" fill="#2E5A87"/>
<path d="M-0.724809 157.816C6.9499 157.816 13.1715 151.272 13.1715 143.2C13.1715 135.127 6.9499 128.583 -0.724809 128.583C-8.39952 128.583 -14.6211 135.127 -14.6211 143.2C-14.6211 151.272 -8.39952 157.816 -0.724809 157.816Z" fill="#F5ECD3"/>
<path d="M29.1751 157.816C36.8498 157.816 43.0714 151.272 43.0714 143.2C43.0714 135.127 36.8498 128.583 29.1751 128.583C21.5004 128.583 15.2788 135.127 15.2788 143.2C15.2788 151.272 21.5004 157.816 29.1751 157.816Z" fill="#F5ECD3"/>
<path d="M59.0755 157.816C66.7502 157.816 72.9718 151.272 72.9718 143.2C72.9718 135.127 66.7502 128.583 59.0755 128.583C51.4008 128.583 45.1792 135.127 45.1792 143.2C45.1792 151.272 51.4008 157.816 59.0755 157.816Z" fill="#F5ECD3"/>
<path d="M88.9754 157.816C96.6501 157.816 102.872 151.272 102.872 143.2C102.872 135.127 96.6501 128.583 88.9754 128.583C81.3007 128.583 75.0791 135.127 75.0791 143.2C75.0791 151.272 81.3007 157.816 88.9754 157.816Z" fill="#F5ECD3"/>
<path d="M118.882 157.816C126.556 157.816 132.778 151.272 132.778 143.2C132.778 135.127 126.556 128.583 118.882 128.583C111.207 128.583 104.985 135.127 104.985 143.2C104.985 151.272 111.207 157.816 118.882 157.816Z" fill="#F5ECD3"/>
<path d="M148.782 157.816C156.456 157.816 162.678 151.272 162.678 143.2C162.678 135.127 156.456 128.583 148.782 128.583C141.107 128.583 134.885 135.127 134.885 143.2C134.885 151.272 141.107 157.816 148.782 157.816Z" fill="#F5ECD3"/>
<path d="M178.681 157.816C186.356 157.816 192.578 151.272 192.578 143.2C192.578 135.127 186.356 128.583 178.681 128.583C171.007 128.583 164.785 135.127 164.785 143.2C164.785 151.272 171.007 157.816 178.681 157.816Z" fill="#F5ECD3"/>
<path d="M14.0584 142.437C21.7331 142.437 27.9547 135.893 27.9547 127.82C27.9547 119.748 21.7331 113.204 14.0584 113.204C6.38368 113.204 0.162109 119.748 0.162109 127.82C0.162109 135.893 6.38368 142.437 14.0584 142.437Z" fill="#2E5A87"/>
<path d="M43.9402 142.437C51.6149 142.437 57.8365 135.893 57.8365 127.82C57.8365 119.748 51.6149 113.204 43.9402 113.204C36.2655 113.204 30.0439 119.748 30.0439 127.82C30.0439 135.893 36.2655 142.437 43.9402 142.437Z" fill="#2E5A87"/>
<path d="M73.8284 142.437C81.5031 142.437 87.7247 135.893 87.7247 127.82C87.7247 119.748 81.5031 113.204 73.8284 113.204C66.1537 113.204 59.9321 119.748 59.9321 127.82C59.9321 135.893 66.1537 142.437 73.8284 142.437Z" fill="#2E5A87"/>
<path d="M103.711 142.437C111.385 142.437 117.607 135.893 117.607 127.82C117.607 119.748 111.385 113.204 103.711 113.204C96.036 113.204 89.8145 119.748 89.8145 127.82C89.8145 135.893 96.036 142.437 103.711 142.437Z" fill="#2E5A87"/>
<path d="M133.593 142.437C141.267 142.437 147.489 135.893 147.489 127.82C147.489 119.748 141.267 113.204 133.593 113.204C125.918 113.204 119.696 119.748 119.696 127.82C119.696 135.893 125.918 142.437 133.593 142.437Z" fill="#2E5A87"/>
<path d="M163.474 142.437C171.149 142.437 177.371 135.893 177.371 127.82C177.371 119.748 171.149 113.204 163.474 113.204C155.8 113.204 149.578 119.748 149.578 127.82C149.578 135.893 155.8 142.437 163.474 142.437Z" fill="#2E5A87"/>
<path d="M-0.724809 128.993C6.9499 128.993 13.1715 122.449 13.1715 114.376C13.1715 106.304 6.9499 99.7595 -0.724809 99.7595C-8.39952 99.7595 -14.6211 106.304 -14.6211 114.376C-14.6211 122.449 -8.39952 128.993 -0.724809 128.993Z" fill="#F5ECD3"/>
<path d="M29.1751 128.993C36.8498 128.993 43.0714 122.449 43.0714 114.376C43.0714 106.304 36.8498 99.7595 29.1751 99.7595C21.5004 99.7595 15.2788 106.304 15.2788 114.376C15.2788 122.449 21.5004 128.993 29.1751 128.993Z" fill="#F5ECD3"/>
<path d="M59.0755 128.993C66.7502 128.993 72.9718 122.449 72.9718 114.376C72.9718 106.304 66.7502 99.7595 59.0755 99.7595C51.4008 99.7595 45.1792 106.304 45.1792 114.376C45.1792 122.449 51.4008 128.993 59.0755 128.993Z" fill="#F5ECD3"/>
<path d="M88.9754 128.993C96.6501 128.993 102.872 122.449 102.872 114.376C102.872 106.304 96.6501 99.7595 88.9754 99.7595C81.3007 99.7595 75.0791 106.304 75.0791 114.376C75.0791 122.449 81.3007 128.993 88.9754 128.993Z" fill="#F5ECD3"/>
<path d="M118.881 128.993C126.556 128.993 132.777 122.449 132.777 114.376C132.777 106.304 126.556 99.7595 118.881 99.7595C111.206 99.7595 104.985 106.304 104.985 114.376C104.985 122.449 111.206 128.993 118.881 128.993Z" fill="#F5ECD3"/>
<path d="M148.782 128.993C156.456 128.993 162.678 122.449 162.678 114.376C162.678 106.304 156.456 99.7595 148.782 99.7595C141.107 99.7595 134.885 106.304 134.885 114.376C134.885 122.449 141.107 128.993 148.782 128.993Z" fill="#F5ECD3"/>
<path d="M178.681 128.993C186.356 128.993 192.578 122.449 192.578 114.376C192.578 106.304 186.356 99.7595 178.681 99.7595C171.007 99.7595 164.785 106.304 164.785 114.376C164.785 122.449 171.007 128.993 178.681 128.993Z" fill="#F5ECD3"/>
<path d="M14.0584 114.835C21.7331 114.835 27.9547 108.083 27.9547 99.7536C27.9547 91.4245 21.7331 84.6724 14.0584 84.6724C6.38368 84.6724 0.162109 91.4245 0.162109 99.7536C0.162109 108.083 6.38368 114.835 14.0584 114.835Z" fill="#2E5A87"/>
<path d="M43.9402 114.835C51.6149 114.835 57.8365 108.083 57.8365 99.7536C57.8365 91.4245 51.6149 84.6724 43.9402 84.6724C36.2655 84.6724 30.0439 91.4245 30.0439 99.7536C30.0439 108.083 36.2655 114.835 43.9402 114.835Z" fill="#2E5A87"/>
<path d="M73.8284 114.835C81.5031 114.835 87.7247 108.083 87.7247 99.7536C87.7247 91.4245 81.5031 84.6724 73.8284 84.6724C66.1537 84.6724 59.9321 91.4245 59.9321 99.7536C59.9321 108.083 66.1537 114.835 73.8284 114.835Z" fill="#2E5A87"/>
<path d="M103.711 114.835C111.385 114.835 117.607 108.083 117.607 99.7536C117.607 91.4245 111.385 84.6724 103.711 84.6724C96.036 84.6724 89.8145 91.4245 89.8145 99.7536C89.8145 108.083 96.036 114.835 103.711 114.835Z" fill="#2E5A87"/>
<path d="M133.593 114.835C141.267 114.835 147.489 108.083 147.489 99.7536C147.489 91.4245 141.267 84.6724 133.593 84.6724C125.918 84.6724 119.696 91.4245 119.696 99.7536C119.696 108.083 125.918 114.835 133.593 114.835Z" fill="#2E5A87"/>
<path d="M163.474 114.835C171.149 114.835 177.371 108.083 177.371 99.7536C177.371 91.4245 171.149 84.6724 163.474 84.6724C155.8 84.6724 149.578 91.4245 149.578 99.7536C149.578 108.083 155.8 114.835 163.474 114.835Z" fill="#2E5A87"/>
<path d="M-0.724809 100.042C6.9499 100.042 13.1715 93.4975 13.1715 85.425C13.1715 77.3524 6.9499 70.8083 -0.724809 70.8083C-8.39952 70.8083 -14.6211 77.3524 -14.6211 85.425C-14.6211 93.4975 -8.39952 100.042 -0.724809 100.042Z" fill="#F5ECD3"/>
<path d="M29.1751 100.042C36.8498 100.042 43.0714 93.4975 43.0714 85.425C43.0714 77.3524 36.8498 70.8083 29.1751 70.8083C21.5004 70.8083 15.2788 77.3524 15.2788 85.425C15.2788 93.4975 21.5004 100.042 29.1751 100.042Z" fill="#F5ECD3"/>
<path d="M59.0755 100.042C66.7502 100.042 72.9718 93.4975 72.9718 85.425C72.9718 77.3524 66.7502 70.8083 59.0755 70.8083C51.4008 70.8083 45.1792 77.3524 45.1792 85.425C45.1792 93.4975 51.4008 100.042 59.0755 100.042Z" fill="#F5ECD3"/>
<path d="M88.9754 100.042C96.6501 100.042 102.872 93.4975 102.872 85.425C102.872 77.3524 96.6501 70.8083 88.9754 70.8083C81.3007 70.8083 75.0791 77.3524 75.0791 85.425C75.0791 93.4975 81.3007 100.042 88.9754 100.042Z" fill="#F5ECD3"/>
<path d="M118.881 100.042C126.556 100.042 132.777 93.4975 132.777 85.425C132.777 77.3524 126.556 70.8083 118.881 70.8083C111.206 70.8083 104.985 77.3524 104.985 85.425C104.985 93.4975 111.206 100.042 118.881 100.042Z" fill="#F5ECD3"/>
<path d="M148.782 100.042C156.456 100.042 162.678 93.4975 162.678 85.425C162.678 77.3524 156.456 70.8083 148.782 70.8083C141.107 70.8083 134.885 77.3524 134.885 85.425C134.885 93.4975 141.107 100.042 148.782 100.042Z" fill="#F5ECD3"/>
<path d="M178.681 100.042C186.356 100.042 192.578 93.4975 192.578 85.425C192.578 77.3524 186.356 70.8083 178.681 70.8083C171.007 70.8083 164.785 77.3524 164.785 85.425C164.785 93.4975 171.007 100.042 178.681 100.042Z" fill="#F5ECD3"/>
<path d="M14.243 85.5295C21.9177 85.5295 28.1392 78.724 28.1392 70.3289C28.1392 61.9339 21.9177 55.1284 14.243 55.1284C6.56825 55.1284 0.34668 61.9339 0.34668 70.3289C0.34668 78.724 6.56825 85.5295 14.243 85.5295Z" fill="#2E5A87"/>
<path d="M44.0364 85.5297C51.7111 85.5297 57.9327 78.7242 57.9327 70.3292C57.9327 61.9342 51.7111 55.1287 44.0364 55.1287C36.3617 55.1287 30.1401 61.9342 30.1401 70.3292C30.1401 78.7242 36.3617 85.5297 44.0364 85.5297Z" fill="#2E5A87"/>
<path d="M73.8284 85.5295C81.5031 85.5295 87.7247 78.724 87.7247 70.3289C87.7247 61.9339 81.5031 55.1284 73.8284 55.1284C66.1537 55.1284 59.9321 61.9339 59.9321 70.3289C59.9321 78.724 66.1537 85.5295 73.8284 85.5295Z" fill="#2E5A87"/>
<path d="M103.62 85.5297C111.295 85.5297 117.517 78.7242 117.517 70.3292C117.517 61.9342 111.295 55.1287 103.62 55.1287C95.9457 55.1287 89.7241 61.9342 89.7241 70.3292C89.7241 78.7242 95.9457 85.5297 103.62 85.5297Z" fill="#2E5A87"/>
<path d="M133.413 85.5297C141.088 85.5297 147.31 78.7242 147.31 70.3292C147.31 61.9342 141.088 55.1287 133.413 55.1287C125.739 55.1287 119.517 61.9342 119.517 70.3292C119.517 78.7242 125.739 85.5297 133.413 85.5297Z" fill="#2E5A87"/>
<path d="M163.205 85.5295C170.88 85.5295 177.102 78.724 177.102 70.3289C177.102 61.9339 170.88 55.1284 163.205 55.1284C155.531 55.1284 149.309 61.9339 149.309 70.3289C149.309 78.724 155.531 85.5295 163.205 85.5295Z" fill="#2E5A87"/>
<path d="M-0.724809 71.4264C6.9499 71.4264 13.1715 64.7389 13.1715 56.4896C13.1715 48.2402 6.9499 41.5527 -0.724809 41.5527C-8.39952 41.5527 -14.6211 48.2402 -14.6211 56.4896C-14.6211 64.7389 -8.39952 71.4264 -0.724809 71.4264Z" fill="#F5ECD3"/>
<path d="M29.1751 71.4264C36.8498 71.4264 43.0714 64.7389 43.0714 56.4896C43.0714 48.2402 36.8498 41.5527 29.1751 41.5527C21.5004 41.5527 15.2788 48.2402 15.2788 56.4896C15.2788 64.7389 21.5004 71.4264 29.1751 71.4264Z" fill="#F5ECD3"/>
<path d="M59.0755 71.4264C66.7502 71.4264 72.9718 64.7389 72.9718 56.4896C72.9718 48.2402 66.7502 41.5527 59.0755 41.5527C51.4008 41.5527 45.1792 48.2402 45.1792 56.4896C45.1792 64.7389 51.4008 71.4264 59.0755 71.4264Z" fill="#F5ECD3"/>
<path d="M88.9754 71.4264C96.6501 71.4264 102.872 64.7389 102.872 56.4896C102.872 48.2402 96.6501 41.5527 88.9754 41.5527C81.3007 41.5527 75.0791 48.2402 75.0791 56.4896C75.0791 64.7389 81.3007 71.4264 88.9754 71.4264Z" fill="#F5ECD3"/>
<path d="M118.881 71.4264C126.556 71.4264 132.777 64.7389 132.777 56.4896C132.777 48.2402 126.556 41.5527 118.881 41.5527C111.206 41.5527 104.985 48.2402 104.985 56.4896C104.985 64.7389 111.206 71.4264 118.881 71.4264Z" fill="#F5ECD3"/>
<path d="M148.782 71.4264C156.456 71.4264 162.678 64.7389 162.678 56.4896C162.678 48.2402 156.456 41.5527 148.782 41.5527C141.107 41.5527 134.885 48.2402 134.885 56.4896C134.885 64.7389 141.107 71.4264 148.782 71.4264Z" fill="#F5ECD3"/>
<path d="M178.681 71.4264C186.356 71.4264 192.578 64.7389 192.578 56.4896C192.578 48.2402 186.356 41.5527 178.681 41.5527C171.007 41.5527 164.785 48.2402 164.785 56.4896C164.785 64.7389 171.007 71.4264 178.681 71.4264Z" fill="#F5ECD3"/>
<path d="M13.7771 55.7979C21.4518 55.7979 27.6734 49.0739 27.6734 40.7794C27.6734 32.485 21.4518 25.761 13.7771 25.761C6.10243 25.761 -0.119141 32.485 -0.119141 40.7794C-0.119141 49.0739 6.10243 55.7979 13.7771 55.7979Z" fill="#2E5A87"/>
<path d="M43.8025 55.7979C51.4772 55.7979 57.6988 49.0739 57.6988 40.7794C57.6988 32.485 51.4772 25.761 43.8025 25.761C36.1278 25.761 29.9062 32.485 29.9062 40.7794C29.9062 49.0739 36.1278 55.7979 43.8025 55.7979Z" fill="#2E5A87"/>
<path d="M73.8284 55.7979C81.5031 55.7979 87.7247 49.0739 87.7247 40.7794C87.7247 32.485 81.5031 25.761 73.8284 25.761C66.1537 25.761 59.9321 32.485 59.9321 40.7794C59.9321 49.0739 66.1537 55.7979 73.8284 55.7979Z" fill="#2E5A87"/>
<path d="M103.854 55.7979C111.529 55.7979 117.751 49.0739 117.751 40.7794C117.751 32.485 111.529 25.761 103.854 25.761C96.1796 25.761 89.958 32.485 89.958 40.7794C89.958 49.0739 96.1796 55.7979 103.854 55.7979Z" fill="#2E5A87"/>
<path d="M133.874 55.7979C141.549 55.7979 147.77 49.0739 147.77 40.7794C147.77 32.485 141.549 25.761 133.874 25.761C126.199 25.761 119.978 32.485 119.978 40.7794C119.978 49.0739 126.199 55.7979 133.874 55.7979Z" fill="#2E5A87"/>
<path d="M163.9 55.7979C171.574 55.7979 177.796 49.0739 177.796 40.7794C177.796 32.485 171.574 25.761 163.9 25.761C156.225 25.761 150.003 32.485 150.003 40.7794C150.003 49.0739 156.225 55.7979 163.9 55.7979Z" fill="#2E5A87"/>
<path d="M-0.724809 41.5521C6.9499 41.5521 13.1715 35.008 13.1715 26.9355C13.1715 18.8629 6.9499 12.3188 -0.724809 12.3188C-8.39952 12.3188 -14.6211 18.8629 -14.6211 26.9355C-14.6211 35.008 -8.39952 41.5521 -0.724809 41.5521Z" fill="#F5ECD3"/>
<path d="M29.1751 41.5521C36.8498 41.5521 43.0714 35.008 43.0714 26.9355C43.0714 18.8629 36.8498 12.3188 29.1751 12.3188C21.5004 12.3188 15.2788 18.8629 15.2788 26.9355C15.2788 35.008 21.5004 41.5521 29.1751 41.5521Z" fill="#F5ECD3"/>
<path d="M59.0755 41.5521C66.7502 41.5521 72.9718 35.008 72.9718 26.9355C72.9718 18.8629 66.7502 12.3188 59.0755 12.3188C51.4008 12.3188 45.1792 18.8629 45.1792 26.9355C45.1792 35.008 51.4008 41.5521 59.0755 41.5521Z" fill="#F5ECD3"/>
<path d="M88.9754 41.5521C96.6501 41.5521 102.872 35.008 102.872 26.9355C102.872 18.8629 96.6501 12.3188 88.9754 12.3188C81.3007 12.3188 75.0791 18.8629 75.0791 26.9355C75.0791 35.008 81.3007 41.5521 88.9754 41.5521Z" fill="#F5ECD3"/>
<path d="M118.881 41.5521C126.556 41.5521 132.777 35.008 132.777 26.9355C132.777 18.8629 126.556 12.3188 118.881 12.3188C111.206 12.3188 104.985 18.8629 104.985 26.9355C104.985 35.008 111.206 41.5521 118.881 41.5521Z" fill="#F5ECD3"/>
<path d="M148.782 41.5521C156.456 41.5521 162.678 35.008 162.678 26.9355C162.678 18.8629 156.456 12.3188 148.782 12.3188C141.107 12.3188 134.885 18.8629 134.885 26.9355C134.885 35.008 141.107 41.5521 148.782 41.5521Z" fill="#F5ECD3"/>
<path d="M178.681 41.5521C186.356 41.5521 192.578 35.008 192.578 26.9355C192.578 18.8629 186.356 12.3188 178.681 12.3188C171.007 12.3188 164.785 18.8629 164.785 26.9355C164.785 35.008 171.007 41.5521 178.681 41.5521Z" fill="#F5ECD3"/>
<path d="M14.0584 26.4588C21.7331 26.4588 27.9547 19.7601 27.9547 11.4969C27.9547 3.2336 21.7331 -3.46509 14.0584 -3.46509C6.38368 -3.46509 0.162109 3.2336 0.162109 11.4969C0.162109 19.7601 6.38368 26.4588 14.0584 26.4588Z" fill="#2E5A87"/>
<path d="M43.9402 26.4588C51.6149 26.4588 57.8365 19.7601 57.8365 11.4969C57.8365 3.2336 51.6149 -3.46509 43.9402 -3.46509C36.2655 -3.46509 30.0439 3.2336 30.0439 11.4969C30.0439 19.7601 36.2655 26.4588 43.9402 26.4588Z" fill="#2E5A87"/>
<path d="M73.8279 26.4588C81.5026 26.4588 87.7242 19.7601 87.7242 11.4969C87.7242 3.2336 81.5026 -3.46509 73.8279 -3.46509C66.1532 -3.46509 59.9316 3.2336 59.9316 11.4969C59.9316 19.7601 66.1532 26.4588 73.8279 26.4588Z" fill="#2E5A87"/>
<path d="M103.711 26.4588C111.385 26.4588 117.607 19.7601 117.607 11.4969C117.607 3.2336 111.385 -3.46509 103.711 -3.46509C96.036 -3.46509 89.8145 3.2336 89.8145 11.4969C89.8145 19.7601 96.036 26.4588 103.711 26.4588Z" fill="#2E5A87"/>
<path d="M133.598 26.4588C141.273 26.4588 147.495 19.7601 147.495 11.4969C147.495 3.2336 141.273 -3.46509 133.598 -3.46509C125.924 -3.46509 119.702 3.2336 119.702 11.4969C119.702 19.7601 125.924 26.4588 133.598 26.4588Z" fill="#2E5A87"/>
<path d="M163.48 26.4588C171.155 26.4588 177.377 19.7601 177.377 11.4969C177.377 3.2336 171.155 -3.46509 163.48 -3.46509C155.806 -3.46509 149.584 3.2336 149.584 11.4969C149.584 19.7601 155.806 26.4588 163.48 26.4588Z" fill="#2E5A87"/>
<path d="M13.1601 -3.46704C13.1601 5.58044 6.43644 12.9201 -1.84984 12.9201C-10.1361 12.9201 -16.8657 5.58044 -16.8657 -3.46704H13.1601Z" fill="#F5ECD3"/>
<path d="M43.1853 -3.46704C43.1853 5.58044 36.4617 12.9201 28.1754 12.9201C19.8891 12.9201 13.1655 5.58672 13.1655 -3.46704H43.1853Z" fill="#F5ECD3"/>
<path d="M73.2054 -3.46704C73.2054 5.58044 66.4817 12.9201 58.1954 12.9201C49.9092 12.9201 43.1855 5.58044 43.1855 -3.46704H73.2054Z" fill="#F5ECD3"/>
<path d="M103.231 -3.46704C103.231 5.58044 96.5076 12.9201 88.2213 12.9201C79.9291 12.9201 73.2114 5.58672 73.2114 -3.46704H103.231Z" fill="#F5ECD3"/>
<path d="M133.257 -3.46704C133.257 5.58044 126.533 12.9201 118.247 12.9201C109.955 12.9201 103.237 5.58672 103.237 -3.46704H133.257Z" fill="#F5ECD3"/>
<path d="M163.283 -3.46704C163.283 5.58044 156.559 12.9201 148.273 12.9201C139.98 12.9201 133.263 5.58672 133.263 -3.46704H163.283Z" fill="#F5ECD3"/>
<path d="M193.308 -3.46704C193.308 5.58044 186.585 12.9201 178.298 12.9201C170.006 12.9201 163.289 5.58672 163.289 -3.46704H193.308Z" fill="#F5ECD3"/>
</g>
</svg>
