<svg width="612" height="335" viewBox="0 0 612 335" fill="none" xmlns="http://www.w3.org/2000/svg">
<path d="M612 0H0V335H612V0Z" fill="#469B70"/>
<path d="M495 265.978C501.703 267.755 507.397 270.297 511.929 273.527C515.471 276.068 518.327 279.03 520.384 282.375C523.202 286.923 523.964 291.28 523.983 292.962V292.943L531.2 293C531.2 292.732 531.2 286.369 526.782 279.011C524.25 274.769 520.765 271.023 516.423 267.87C515.642 267.297 514.804 266.742 513.967 266.207H569V258.793H513.967C514.804 258.258 515.642 257.703 516.423 257.13C520.765 253.958 524.25 250.212 526.782 245.989C531.2 238.631 531.2 232.268 531.2 232L523.983 232.057V232.038C523.964 233.72 523.202 238.077 520.384 242.625C518.308 245.951 515.471 248.932 511.929 251.473C507.397 254.722 501.703 257.264 495 259.022V265.978Z" fill="black"/>
<path d="M65.6016 143.19C63.8627 146.665 61.5148 150.816 58.9819 154.797C58.0558 153.493 56.8372 152.093 55.5595 150.697C57.8089 147.189 60.3368 142.238 61.9199 138.672C62.2233 138.664 62.5011 138.63 62.7355 138.552C63.0071 138.461 63.2354 138.307 63.3659 138.055L63.4682 137.858L63.2633 137.773L58.6866 135.868L58.4912 135.787L58.4172 135.985C57.1203 139.458 54.958 144.27 52.9117 147.916C52.3864 147.4 51.8546 146.914 51.3313 146.435C51.2222 146.336 51.1135 146.236 51.0054 146.137L50.8283 145.975L50.6968 146.176C50.2522 146.856 49.808 147.481 48.4878 148.87L48.3477 149.018L48.4947 149.158C51.3723 151.908 54.6178 155.643 56.5113 158.532C55.0372 160.617 53.6315 162.578 52.2797 164.301H48H47.7404L47.8018 164.554L48.9601 169.309L49.0087 169.509L49.2077 169.459C49.6557 169.347 50.074 169.086 50.2634 168.643C52.6067 168.586 55.529 168.465 58.7433 168.278V195.043V195.247H58.9473H62.7611H62.9651V195.043V168.057L68.224 167.765C68.8303 169.176 69.3015 170.449 69.6136 171.546L69.6795 171.778L69.8972 171.675L73.0948 170.158V195.184V195.388H73.2988H77.2398H77.4437V195.184V143.189H101.247V190.019C101.247 190.321 101.221 190.505 101.158 190.628C101.103 190.735 101.007 190.82 100.789 190.886C100.561 190.954 100.226 190.991 99.7269 191.01C99.2311 191.029 98.592 191.029 97.7641 191.029C96.6197 191.029 95.1683 191.029 93.647 190.973L93.3131 190.96L93.4548 191.263C93.956 192.334 94.5159 194.096 94.7106 195.096L94.7422 195.259L94.9078 195.261C97.0841 195.293 98.8394 195.277 100.247 195.164C101.652 195.051 102.727 194.84 103.534 194.472C104.35 194.099 104.892 193.566 105.224 192.824C105.551 192.093 105.666 191.172 105.666 190.033V139.175V138.971H105.463H73.2988H73.0948V139.175V168.998C71.8376 165.371 69.1232 160.326 66.4743 156.501L66.38 156.365L66.2274 156.429L63.0491 157.77L62.823 157.865L62.9582 158.07C64.1543 159.883 65.3643 161.992 66.4157 164.054L56.7475 164.237C61.0535 158.764 65.848 151.457 68.9538 146.094C69.2761 146.084 69.5634 146.034 69.8011 145.946C70.0654 145.848 70.2852 145.697 70.4091 145.488L70.523 145.295L70.3207 145.2L65.8711 143.097L65.6909 143.012L65.6016 143.19ZM56.7734 173.821L56.8159 173.627L56.6236 173.579L52.0469 172.436L51.8253 172.381L51.7953 172.607C51.0327 178.378 49.7644 184.444 48.0012 187.966L47.9077 188.153L48.0969 188.242C48.2043 188.293 48.3167 188.345 48.4328 188.4C49.3646 188.836 50.5285 189.38 51.1923 189.822L51.3859 189.951L51.4884 189.742C53.3176 186.017 54.7083 179.925 55.5455 174.631C55.7815 174.642 56.0163 174.615 56.2211 174.524C56.4952 174.402 56.6962 174.172 56.7734 173.821ZM68.9591 185.877L69.0002 186.112L69.2256 186.035L72.5875 184.892L72.7536 184.836L72.7226 184.663C72.1397 181.411 70.4805 176.384 68.6381 172.49L68.5621 172.329L68.3926 172.383L65.1579 173.399L64.9402 173.467L65.0324 173.676C66.737 177.532 68.3836 182.596 68.9591 185.877ZM98.729 181.257L98.6993 181.036L98.482 181.085C97.6317 181.277 95.9306 181.334 94.9108 181.334H86.9016C86.286 181.334 85.9977 181.207 85.8334 180.953C85.7441 180.815 85.6788 180.621 85.6373 180.347C85.5959 180.073 85.58 179.732 85.58 179.309V169.733H99.8688H100.073V169.529V166.044V165.84H99.8688H91.1737V160.443C91.4929 160.378 91.7445 160.27 91.9319 160.124C92.1565 159.95 92.2796 159.726 92.3157 159.483L92.3481 159.264L92.1272 159.25L92.1002 159.248H99.4733H99.6773V159.044V155.559V155.355H99.4733H94.4787C95.765 152.989 97.231 149.708 98.1569 147.447C98.775 147.413 99.2367 147.147 99.4638 146.774L99.5942 146.561L99.3583 146.476L95.0924 144.952L94.8861 144.879L94.8273 145.09C94.0678 147.816 92.4901 151.995 91.2245 154.58L91.1288 154.775L91.3301 154.858L92.5369 155.355H84.5792L86.3203 154.735L86.4834 154.677L86.4525 154.506C86.0107 152.071 84.7319 148.311 83.1961 145.498L83.114 145.348L82.9518 145.403L80.1549 146.348L79.9392 146.421L80.0354 146.627C81.3155 149.376 82.5401 152.962 82.9599 155.355H79.3303H79.1264V155.559V159.044V159.248H79.3303H86.9519V165.854H78.7653H78.5614V166.058V169.543V169.747H78.7653H81.4147V179.252C81.4147 181.402 81.6503 182.917 82.4752 183.884C83.309 184.862 84.6947 185.228 86.831 185.228H94.9673H94.9704C95.7591 185.228 96.5434 185.228 97.2333 185.196C97.9199 185.164 98.5322 185.1 98.9687 184.965L99.1348 184.913L99.1102 184.741C99.0474 184.302 98.9843 183.672 98.9206 183.028L98.913 182.952C98.8521 182.336 98.7906 181.715 98.729 181.257Z" fill="black" stroke="black" stroke-width="0.407906"/>
<path d="M141.312 156.559L141.368 156.359L141.167 156.307L136.082 154.98L135.855 154.921L135.828 155.153C134.938 162.571 133.16 173.358 131.58 179.697L131.542 179.85C126.031 181.12 120.893 182.204 116.991 182.989L116.758 183.036L116.84 183.259L118.619 188.142L118.685 188.321L118.868 188.268C119.325 188.135 119.75 187.755 119.823 187.221C125.855 185.824 135.142 183.512 143.998 181.307L144.088 181.285L144.263 181.241L144.242 181.063L143.804 177.323L143.778 177.098L143.556 177.148L135.746 178.909C137.361 172.615 139.015 163.639 139.897 157.396C140.22 157.357 140.508 157.293 140.741 157.185C141.017 157.056 141.228 156.857 141.312 156.559ZM143.099 149.011V148.807H142.895H132.872V138.189C133.215 138.119 133.483 138.011 133.681 137.855C133.918 137.669 134.037 137.428 134.071 137.154L134.098 136.938L133.881 136.925L128.612 136.615L128.396 136.602V136.818V148.807H118.048H117.844V149.011V153.075V153.279H118.048H142.895H143.099V153.075V149.011ZM124.476 155.696L124.432 155.508L124.242 155.541L120.668 156.176L120.46 156.213L120.505 156.42C122.028 163.451 123.113 172.581 123.113 178.532V178.769L123.347 178.734L127.161 178.17L127.338 178.143L127.335 177.964C127.222 171.853 126.132 162.765 124.476 155.696ZM155.404 136.056V166.785H144.548H144.344V166.989V195.071V195.275H144.548H148.743H148.947V195.071V192.157H168.753V194.803V195.007H168.957H173.335H173.539V194.803V166.989V166.785H173.335H160.134V154.112H175.928H176.132H176.146V153.908H176.336V149.759V149.555H176.132H160.134V137.429C160.507 137.36 160.793 137.252 161.001 137.096C161.249 136.909 161.37 136.667 161.404 136.392L161.431 136.175L161.213 136.163L155.619 135.853L155.404 135.841V136.056ZM148.947 171.257H168.753V187.741H148.947V171.257Z" fill="black" stroke="black" stroke-width="0.407906"/>
<path d="M243.582 175.505H243.785V175.301V171.434V171.23H243.582H217.215V166.029C217.564 165.981 217.846 165.885 218.058 165.731C218.316 165.544 218.451 165.285 218.485 164.98L218.509 164.766L218.295 164.753L212.701 164.429L212.485 164.416V164.632V171.23H186.444H186.24V171.434V175.301V175.505H186.444H208.168C202.518 181.816 193.378 187.485 185.109 190.221L184.769 190.333L185.038 190.568C186.036 191.44 187.225 192.948 187.926 194.012L188.017 194.15L188.17 194.09C196.85 190.733 206.456 184.236 212.485 176.774V195.057V195.261H212.689H217.011H217.215V195.057V176.848C223.191 184.301 232.739 190.549 241.862 193.726L242.025 193.782L242.108 193.631C242.732 192.495 243.989 190.931 244.922 190.055L245.182 189.811L244.84 189.711C236.127 187.155 227.119 181.802 221.529 175.505H243.582ZM213.02 142.858V142.673L212.835 142.655L210.604 142.443L210.594 142.443H210.584H200.635C200.765 140.849 200.881 139.139 200.937 137.435C201.237 137.386 201.499 137.289 201.699 137.138C201.945 136.952 202.087 136.688 202.087 136.367V136.175L201.895 136.163L196.626 135.853L196.417 135.84L196.41 136.05C196.407 136.178 196.403 136.305 196.399 136.431C196.335 138.572 196.276 140.546 196.103 142.457H186.373H186.169V142.661V146.527V146.731H186.373H195.543C194.256 155.017 191.225 160.956 185.203 164.185L184.908 164.343L185.185 164.533C186.201 165.228 187.575 166.474 188.277 167.176L188.389 167.287L188.525 167.207C195.283 163.25 198.677 156.253 200.096 146.731H208.354C208.193 151.57 208 154.914 207.749 157.168C207.621 158.311 207.479 159.168 207.32 159.795C207.159 160.427 206.987 160.8 206.814 160.999L206.807 161.008L206.8 161.017C206.664 161.215 206.52 161.332 206.348 161.403C206.171 161.476 205.947 161.507 205.64 161.507C204.624 161.507 202.288 161.507 199.685 161.254L199.283 161.215L199.49 161.562C200.119 162.613 200.494 164.173 200.549 165.348L200.558 165.535L200.745 165.542C202.204 165.598 203.606 165.598 204.749 165.598H204.751C206.267 165.598 207.387 165.553 208.29 165.317C209.206 165.076 209.894 164.64 210.555 163.877L210.556 163.875C210.933 163.431 211.233 162.797 211.484 161.905C211.735 161.012 211.94 159.847 212.117 158.33C212.469 155.298 212.709 150.831 212.963 144.263L212.964 144.263V144.255C212.964 144.008 212.977 143.759 212.992 143.521C212.993 143.504 212.994 143.486 212.995 143.469C213.008 143.252 213.02 143.041 213.02 142.858ZM223.057 165.471H223.261V165.267V162.169H237.106V164.505V164.709H237.31H241.434H241.638V164.505V139.937V139.733H241.434H219.06H218.856V139.937V165.267V165.471H219.06H223.057ZM223.261 157.951V143.881H237.092V157.951H223.261Z" fill="black" stroke="black" stroke-width="0.407906"/>
<path d="M278.181 146.795V146.591H277.977H253.695H253.491V146.795V150.351V150.555H253.695H277.977H278.181V150.351V146.795ZM275.949 172.704V172.5H275.745H256.619H256.415V172.704V194.366V194.57H256.619H260.433H260.637V194.366V191.578H275.745H275.949V191.443C276.808 192.314 277.812 194.044 278.24 195.105L278.309 195.275L278.485 195.225C284.43 193.526 290.071 190.81 294.952 187.035C299.397 190.684 304.593 193.4 310.592 195.168L310.745 195.213L310.825 195.075C311.456 193.997 312.66 192.308 313.586 191.438L313.859 191.182L313.495 191.091C307.758 189.665 302.762 187.244 298.503 183.977C303.394 179.287 307.212 173.244 309.361 165.757C309.376 165.743 309.392 165.728 309.409 165.712C309.48 165.645 309.566 165.564 309.636 165.485C309.746 165.359 309.852 165.199 309.89 164.994L309.919 164.831L309.766 164.768L306.969 163.625L306.916 163.603L306.859 163.613L306.112 163.737H278.867H278.663V163.941V167.836V168.04H278.867H285.326L282.365 168.982L282.158 169.048L282.237 169.251C284.448 174.913 287.585 179.778 291.526 183.883C286.89 187.277 281.573 189.635 276.019 191.078L275.949 191.096V172.704ZM286.49 168.04H303.671C301.673 173.167 298.677 177.439 295.015 180.957C291.326 177.29 288.432 172.967 286.49 168.04ZM256.472 158.917V159.121H256.676H275.802H276.006V158.917V155.432V155.228H275.802H256.676H256.472V155.432V158.917ZM256.472 167.554V167.757H256.676H275.802H276.006V167.554V164.068V163.864H275.802H256.676H256.472V164.068V167.554ZM275.822 138.357V138.153H275.618H257.057H256.853V138.357V141.842V142.046H257.057H275.618H275.822V141.842V138.357ZM287.518 145.963V142.23H298.961V154.232C298.961 156.329 299.229 157.736 300.027 158.608C300.83 159.487 302.118 159.77 303.996 159.77H308.573C309.416 159.77 310.139 159.653 310.749 159.342C311.364 159.029 311.846 158.53 312.224 157.799C312.969 156.355 313.318 153.975 313.481 150.233L313.488 150.065L313.324 150.026C312.798 149.902 312.109 149.683 311.452 149.41C310.79 149.135 310.178 148.813 309.792 148.488L309.465 148.212L309.457 148.64C309.393 151.823 309.311 153.592 309.101 154.567C308.996 155.054 308.866 155.304 308.723 155.436C308.589 155.561 308.414 155.609 308.135 155.609H304.575C304.002 155.609 303.77 155.537 303.647 155.384C303.583 155.303 303.531 155.179 303.497 154.976C303.464 154.773 303.452 154.508 303.452 154.162V138.103V137.899H303.248H283.232H283.028V138.103V145.892C283.028 148.136 282.775 150.581 281.75 152.966C280.727 155.348 278.928 157.681 275.818 159.691L275.554 159.862L275.818 160.034C276.249 160.314 276.86 160.816 277.447 161.355C278.034 161.894 278.582 162.457 278.89 162.852L279.005 163.001L279.163 162.898C286.11 158.328 287.518 151.457 287.518 145.963ZM260.637 187.543V176.521H271.728V187.543H260.637Z" fill="black" stroke="black" stroke-width="0.407906"/>
<path d="M377.596 147.614V147.41H377.392H353.851V137.442C354.203 137.372 354.484 137.265 354.694 137.112C354.945 136.93 355.086 136.69 355.121 136.406L355.148 136.192L354.932 136.178L349.212 135.796L348.994 135.782V136V147.41H325.806H325.602V147.614V177.841V178.045H325.806H330.058H330.262V177.841V173.981H348.98V194.902V195.106H349.184H353.633H353.837V194.902V173.967H372.81V177.516V177.72H373.014H377.392H377.596V177.516V147.614ZM348.952 152.009V169.325H330.234V152.009H348.952ZM372.795 152.009V169.325H353.823V152.009H372.795Z" fill="black" stroke="black" stroke-width="0.407906"/>
<path d="M86.7399 57.805H80.3646C79.9876 55.9713 79.3278 54.3603 78.3852 52.9721C77.4597 51.584 76.3287 50.4186 74.9919 49.476C73.6723 48.5163 72.207 47.7965 70.5961 47.3167C68.9851 46.8368 67.3056 46.5969 65.5576 46.5969C62.3699 46.5969 59.4822 47.4024 56.8944 49.0133C54.3237 50.6243 52.2758 52.9979 50.7505 56.1341C49.2424 59.2703 48.4883 63.1177 48.4883 67.6764C48.4883 72.235 49.2424 76.0824 50.7505 79.2187C52.2758 82.3549 54.3237 84.7285 56.8944 86.3394C59.4822 87.9504 62.3699 88.7558 65.5576 88.7558C67.3056 88.7558 68.9851 88.5159 70.5961 88.0361C72.207 87.5562 73.6723 86.845 74.9919 85.9024C76.3287 84.9427 77.4597 83.7687 78.3852 82.3806C79.3278 80.9753 79.9876 79.3643 80.3646 77.5477H86.7399C86.26 80.2384 85.386 82.6462 84.1178 84.7713C82.8496 86.8964 81.2729 88.7044 79.3878 90.1954C77.5026 91.6693 75.3861 92.7918 73.0382 93.563C70.7075 94.3342 68.2139 94.7198 65.5576 94.7198C61.0675 94.7198 57.0744 93.623 53.5782 91.4293C50.0821 89.2357 47.3315 86.1166 45.3264 82.0721C43.3213 78.0276 42.3187 73.229 42.3187 67.6764C42.3187 62.1237 43.3213 57.3251 45.3264 53.2806C47.3315 49.2361 50.0821 46.117 53.5782 43.9234C57.0744 41.7298 61.0675 40.6329 65.5576 40.6329C68.2139 40.6329 70.7075 41.0185 73.0382 41.7897C75.3861 42.5609 77.5026 43.692 79.3878 45.183C81.2729 46.6569 82.8496 48.4563 84.1178 50.5814C85.386 52.6894 86.26 55.0972 86.7399 57.805ZM141.463 67.6764C141.463 73.229 140.46 78.0276 138.455 82.0721C136.45 86.1166 133.7 89.2357 130.203 91.4293C126.707 93.623 122.714 94.7198 118.224 94.7198C113.734 94.7198 109.741 93.623 106.245 91.4293C102.749 89.2357 99.9981 86.1166 97.993 82.0721C95.9878 78.0276 94.9853 73.229 94.9853 67.6764C94.9853 62.1237 95.9878 57.3251 97.993 53.2806C99.9981 49.2361 102.749 46.117 106.245 43.9234C109.741 41.7298 113.734 40.6329 118.224 40.6329C122.714 40.6329 126.707 41.7298 130.203 43.9234C133.7 46.117 136.45 49.2361 138.455 53.2806C140.46 57.3251 141.463 62.1237 141.463 67.6764ZM135.293 67.6764C135.293 63.1177 134.531 59.2703 133.005 56.1341C131.497 52.9979 129.449 50.6243 126.862 49.0133C124.291 47.4024 121.412 46.5969 118.224 46.5969C115.036 46.5969 112.149 47.4024 109.561 49.0133C106.99 50.6243 104.942 52.9979 103.417 56.1341C101.909 59.2703 101.155 63.1177 101.155 67.6764C101.155 72.235 101.909 76.0824 103.417 79.2187C104.942 82.3549 106.99 84.7285 109.561 86.3394C112.149 87.9504 115.036 88.7558 118.224 88.7558C121.412 88.7558 124.291 87.9504 126.862 86.3394C129.449 84.7285 131.497 82.3549 133.005 79.2187C134.531 76.0824 135.293 72.235 135.293 67.6764ZM152.183 41.3527H159.792L177.684 85.0541H178.301L196.192 41.3527H203.802V94H197.838V54.0004H197.324L180.871 94H175.113L158.661 54.0004H158.147V94H152.183V41.3527ZM222.96 41.3527V94H216.584V41.3527H222.96ZM277.49 41.3527V94H271.32L242.632 52.6637H242.117V94H235.742V41.3527H241.912L270.703 82.7919H271.217V41.3527H277.49ZM326.236 57.805C325.671 56.0741 324.925 54.5231 324 53.1521C323.091 51.7639 322.003 50.5814 320.735 49.6046C319.484 48.6277 318.061 47.8822 316.468 47.3681C314.874 46.854 313.126 46.5969 311.223 46.5969C308.104 46.5969 305.268 47.4024 302.715 49.0133C300.161 50.6243 298.13 52.9979 296.622 56.1341C295.114 59.2703 294.36 63.1177 294.36 67.6764C294.36 72.235 295.122 76.0824 296.648 79.2187C298.173 82.3549 300.238 84.7285 302.843 86.3394C305.448 87.9504 308.379 88.7558 311.635 88.7558C314.651 88.7558 317.307 88.1132 319.604 86.8278C321.917 85.5254 323.717 83.6916 325.002 81.3266C326.305 78.9445 326.956 76.1424 326.956 72.9205L328.91 73.3318H313.074V67.6764H333.125V73.3318C333.125 77.6677 332.2 81.438 330.349 84.6428C328.515 87.8475 325.979 90.3325 322.74 92.0977C319.518 93.8458 315.816 94.7198 311.635 94.7198C306.973 94.7198 302.877 93.623 299.347 91.4293C295.834 89.2357 293.092 86.1166 291.121 82.0721C289.167 78.0276 288.19 73.229 288.19 67.6764C288.19 63.5119 288.747 59.7673 289.861 56.4425C290.992 53.1007 292.586 50.2558 294.643 47.9079C296.699 45.5601 299.133 43.7606 301.943 42.5095C304.754 41.2585 307.847 40.6329 311.223 40.6329C314 40.6329 316.588 41.0528 318.987 41.8926C321.403 42.7152 323.554 43.8891 325.439 45.4144C327.341 46.9225 328.927 48.7305 330.195 50.8385C331.463 52.9293 332.337 55.2515 332.817 57.805H326.236ZM393.196 54.5145C392.887 51.9096 391.636 49.8873 389.442 48.4478C387.249 47.0082 384.558 46.2884 381.371 46.2884C379.04 46.2884 377 46.6654 375.252 47.4195C373.521 48.1736 372.168 49.2104 371.191 50.53C370.231 51.8496 369.751 53.3492 369.751 55.0287C369.751 56.434 370.085 57.6422 370.754 58.6533C371.439 59.6473 372.313 60.4785 373.376 61.1469C374.438 61.7981 375.552 62.3379 376.718 62.7664C377.883 63.1777 378.954 63.5119 379.931 63.7689L385.278 65.2085C386.649 65.5684 388.174 66.0654 389.854 66.6995C391.55 67.3336 393.17 68.1991 394.712 69.2959C396.272 70.3756 397.557 71.7637 398.568 73.4604C399.579 75.157 400.085 77.2392 400.085 79.7071C400.085 82.552 399.339 85.1226 397.848 87.4191C396.375 89.7156 394.215 91.5407 391.37 92.8946C388.543 94.2485 385.107 94.9254 381.062 94.9254C377.292 94.9254 374.027 94.317 371.268 93.1003C368.526 91.8835 366.366 90.1868 364.79 88.0103C363.23 85.8338 362.348 83.306 362.142 80.4269H368.723C368.894 82.4149 369.563 84.0601 370.728 85.3626C371.91 86.6479 373.401 87.6076 375.201 88.2417C377.018 88.8587 378.971 89.1671 381.062 89.1671C383.496 89.1671 385.681 88.773 387.617 87.9846C389.554 87.1792 391.088 86.0652 392.219 84.6428C393.35 83.2032 393.915 81.5237 393.915 79.6043C393.915 77.8562 393.427 76.4338 392.45 75.337C391.473 74.2401 390.188 73.349 388.594 72.6635C387 71.9779 385.278 71.3781 383.427 70.864L376.949 69.0131C372.836 67.8306 369.58 66.1425 367.18 63.9489C364.781 61.7553 363.581 58.8847 363.581 55.3372C363.581 52.3895 364.378 49.8188 365.972 47.6252C367.583 45.4144 369.743 43.7006 372.45 42.4838C375.175 41.2499 378.217 40.6329 381.576 40.6329C384.969 40.6329 387.986 41.2413 390.625 42.4581C393.264 43.6578 395.355 45.303 396.897 47.3938C398.457 49.4846 399.279 51.8582 399.365 54.5145H393.196ZM454.988 67.6764C454.988 73.229 453.985 78.0276 451.98 82.0721C449.975 86.1166 447.225 89.2357 443.728 91.4293C440.232 93.623 436.239 94.7198 431.749 94.7198C427.259 94.7198 423.266 93.623 419.77 91.4293C416.274 89.2357 413.523 86.1166 411.518 82.0721C409.513 78.0276 408.51 73.229 408.51 67.6764C408.51 62.1237 409.513 57.3251 411.518 53.2806C413.523 49.2361 416.274 46.117 419.77 43.9234C423.266 41.7298 427.259 40.6329 431.749 40.6329C436.239 40.6329 440.232 41.7298 443.728 43.9234C447.225 46.117 449.975 49.2361 451.98 53.2806C453.985 57.3251 454.988 62.1237 454.988 67.6764ZM448.818 67.6764C448.818 63.1177 448.056 59.2703 446.53 56.1341C445.022 52.9979 442.974 50.6243 440.387 49.0133C437.816 47.4024 434.937 46.5969 431.749 46.5969C428.562 46.5969 425.674 47.4024 423.086 49.0133C420.515 50.6243 418.467 52.9979 416.942 56.1341C415.434 59.2703 414.68 63.1177 414.68 67.6764C414.68 72.235 415.434 76.0824 416.942 79.2187C418.467 82.3549 420.515 84.7285 423.086 86.3394C425.674 87.9504 428.562 88.7558 431.749 88.7558C434.937 88.7558 437.816 87.9504 440.387 86.3394C442.974 84.7285 445.022 82.3549 446.53 79.2187C448.056 76.0824 448.818 72.235 448.818 67.6764ZM510.129 67.6764C510.129 73.229 509.126 78.0276 507.121 82.0721C505.116 86.1166 502.365 89.2357 498.869 91.4293C495.373 93.623 491.38 94.7198 486.89 94.7198C482.4 94.7198 478.407 93.623 474.911 91.4293C471.415 89.2357 468.664 86.1166 466.659 82.0721C464.654 78.0276 463.651 73.229 463.651 67.6764C463.651 62.1237 464.654 57.3251 466.659 53.2806C468.664 49.2361 471.415 46.117 474.911 43.9234C478.407 41.7298 482.4 40.6329 486.89 40.6329C491.38 40.6329 495.373 41.7298 498.869 43.9234C502.365 46.117 505.116 49.2361 507.121 53.2806C509.126 57.3251 510.129 62.1237 510.129 67.6764ZM503.959 67.6764C503.959 63.1177 503.197 59.2703 501.671 56.1341C500.163 52.9979 498.115 50.6243 495.527 49.0133C492.957 47.4024 490.078 46.5969 486.89 46.5969C483.702 46.5969 480.815 47.4024 478.227 49.0133C475.656 50.6243 473.608 52.9979 472.083 56.1341C470.575 59.2703 469.821 63.1177 469.821 67.6764C469.821 72.235 470.575 76.0824 472.083 79.2187C473.608 82.3549 475.656 84.7285 478.227 86.3394C480.815 87.9504 483.702 88.7558 486.89 88.7558C490.078 88.7558 492.957 87.9504 495.527 86.3394C498.115 84.7285 500.163 82.3549 501.671 79.2187C503.197 76.0824 503.959 72.235 503.959 67.6764ZM562.596 41.3527V94H556.427L527.738 52.6637H527.224V94H520.848V41.3527H527.018L555.81 82.7919H556.324V41.3527H562.596Z" fill="black"/>
<line x1="44" y1="207.092" x2="387" y2="207.092" stroke="black" stroke-width="3"/>
<line x1="42" y1="300.092" x2="321" y2="300.092" stroke="black" stroke-width="3"/>
<path d="M58.6893 249.175C58.7403 248.981 58.7916 248.788 58.8429 248.594C59.1255 247.527 59.4089 246.457 59.6608 245.388C59.9885 245.372 60.2591 245.305 60.478 245.184C60.7367 245.041 60.9068 244.83 61.014 244.575L61.1123 244.341L60.8624 244.295L60.7191 244.269V239.112H68.4758V244.552V244.756H68.6797H72.5501H72.7541V244.552V239.112H80.9972H81.2011V238.908V235.098V234.894H80.9972H72.7541V230.005C73.0969 229.935 73.3651 229.827 73.5625 229.672C73.7996 229.485 73.9189 229.244 73.9532 228.97L73.9801 228.755L73.7632 228.741L68.678 228.431L68.4616 228.418V228.635V234.908H60.7333V230.019C61.0761 229.95 61.3443 229.841 61.5417 229.686C61.7788 229.499 61.8981 229.258 61.9324 228.984L61.9593 228.769L61.7425 228.756L56.7139 228.445L56.4974 228.432V228.649V234.922H48.6356H48.4317V235.126V238.936V239.14H48.6356H56.4974V243.303L55.7337 243.113L55.5288 243.062L55.4848 243.268C53.905 250.68 51.1726 258.138 47.8381 262.491L47.6879 262.687L47.9089 262.798C48.9068 263.296 50.4189 264.372 51.1749 265.002L51.3407 265.14L51.4692 264.966C51.8999 264.386 52.3412 263.769 52.7541 263.111V278.491V278.695H52.958H56.447H56.651V278.491V275.082H67.3802H67.5841V274.878V258.213V258.009H67.3802H55.4232C56.1184 256.484 56.7654 254.912 57.3533 253.28H72.7065C72.1997 268.512 71.6468 276.124 70.8532 279.927C70.4532 281.845 70.0006 282.745 69.5056 283.177C69.0223 283.6 68.4665 283.607 67.7051 283.607C66.5756 283.607 63.5896 283.607 60.422 283.298L60.0197 283.258L60.2271 283.605C60.8549 284.655 61.2307 286.271 61.2861 287.447L61.295 287.636L61.4838 287.642C61.8486 287.652 62.2132 287.664 62.5754 287.675C64.1042 287.722 65.5922 287.769 66.8858 287.769C68.5991 287.769 69.9119 287.72 70.983 287.417C72.0676 287.11 72.8987 286.543 73.658 285.53C74.1754 284.878 74.5958 283.885 74.953 282.409C75.3114 280.927 75.6105 278.94 75.873 276.285C76.2997 271.971 76.6316 265.875 76.9608 257.289L77.1307 257.397C78.1191 258.023 79.6287 259.294 80.3201 260.096L80.4905 260.293L80.6411 260.08C82.078 258.046 83.3377 255.62 84.5362 252.921C86.0345 259.515 87.9479 265.632 90.4688 270.927C86.9355 276.494 82.1519 280.811 75.8087 283.896L75.5628 284.015L75.7475 284.217C76.4918 285.029 77.5695 286.788 78.0744 287.797L78.1664 287.981L78.3494 287.888C84.5055 284.75 89.3058 280.622 92.9891 275.504C96.1558 280.738 100.126 284.92 105.104 287.881L105.283 287.987L105.385 287.807C106.065 286.615 107.392 285.052 108.394 284.176L108.617 283.981L108.355 283.842C103.146 281.087 99.0635 276.641 95.7812 271.065C99.7395 263.912 102.14 255.212 103.661 244.855H107.751H107.955V244.651V240.658V240.454H107.751H88.8202C89.6679 237.278 90.3986 233.991 91.0123 230.754C91.3647 230.738 91.6632 230.672 91.8996 230.542C92.1813 230.387 92.3617 230.15 92.4389 229.841L92.4903 229.636L92.2832 229.592L86.8731 228.449L86.6647 228.405L86.6298 228.615C84.7943 239.659 81.5511 250.796 77.0734 257.107L76.9617 257.264C77.0374 255.29 77.1129 253.184 77.1894 250.938L77.1895 250.938V250.931C77.1895 250.719 77.2032 250.471 77.2174 250.232C77.2186 250.211 77.2198 250.19 77.2211 250.17C77.2338 249.957 77.246 249.753 77.246 249.604V249.417L77.0588 249.401L75.0283 249.233V249.175H74.8243H58.6893ZM56.651 271.189V261.944H63.6731V271.189H56.651ZM93.1933 265.875C90.5649 259.833 88.7318 252.779 87.4218 245.3L87.5602 244.855H98.9273C97.7536 253.006 95.9049 260.011 93.1933 265.875Z" fill="black" stroke="black" stroke-width="0.407906"/>
<path d="M140.938 239.387V239.183H140.734H116.904H116.7V239.387V242.944V243.148H116.904H140.734H140.938V242.944V239.387ZM138.904 265.296V265.092H138.7H119.814H119.61V265.296V286.958V287.162H119.814H123.571H123.775V286.958V284.17H138.7H138.904V283.966V265.296ZM138.777 248.024V247.82H138.573H119.885H119.681V248.024V251.509V251.713H119.885H138.573H138.777V251.509V248.024ZM119.681 260.146V260.35H119.885H138.573H138.777V260.146V256.66V256.456H138.573H119.885H119.681V256.66V260.146ZM138.593 230.949V230.745H138.389H120.139H119.935V230.949V234.434V234.638H120.139H138.389H138.593V234.434V230.949ZM155.913 228.592V233.708H142.584H142.38V233.912V237.341V237.545H142.584H155.913V241.709H144.039H143.835V241.913V245.286V245.49H144.039H155.913V250.035H139.971H139.767V250.239V253.795V253.999H139.971H176.076H176.28V253.795V250.239V250.035H176.076H160.586V245.504H173.477H173.681V245.3V241.928V241.724H173.477H160.586V237.559H174.607H174.811V237.355V233.926V233.722H174.607H160.572V229.963C160.924 229.894 161.205 229.786 161.415 229.634C161.666 229.452 161.806 229.211 161.842 228.928L161.869 228.711L161.651 228.699L156.128 228.388L155.913 228.376V228.592ZM171.957 257.606V257.402H171.753H145.692H145.488V257.606V287.706V287.91H145.692H149.76H149.964V287.706V277.495H167.425V283.317C167.425 283.569 167.4 283.724 167.346 283.828C167.299 283.919 167.219 283.994 167.04 284.053C166.853 284.115 166.578 284.154 166.17 284.175C165.765 284.196 165.246 284.2 164.578 284.2C163.311 284.2 161.591 284.143 159.755 284.073L159.41 284.059L159.564 284.368C160.068 285.374 160.624 286.823 160.818 287.87L160.848 288.037H161.018H161.023C163.085 288.037 164.793 288.037 166.192 287.966C167.59 287.895 168.697 287.753 169.551 287.461C170.411 287.167 171.024 286.717 171.415 286.028C171.802 285.348 171.957 284.46 171.957 283.317V257.606ZM123.775 280.135V269.113H134.682V280.135H123.775ZM149.964 265.671V261.309H167.411V265.671H149.964ZM167.411 269.367V273.785H149.964V269.367H167.411Z" fill="black" stroke="black" stroke-width="0.407906"/>
<path d="M217.209 272.105H217.413V271.901V268.02V268.006V267.802H217.209H212.201V241.412H216.828H217.032V241.208V237.327V237.123H216.828H212.201V230.711C212.539 230.668 212.806 230.575 213.005 230.428C213.247 230.249 213.366 230.005 213.4 229.732L213.427 229.516L213.21 229.503L207.997 229.193L207.781 229.18V229.396V237.137H195.801V230.714C196.138 230.654 196.404 230.563 196.601 230.424C196.843 230.254 196.966 230.023 197 229.746L197.027 229.531L196.81 229.517L191.654 229.207L191.438 229.194V229.411V237.151H186.119H185.915V237.355V241.236V241.44H186.119H191.438V267.816H185.229H185.025V268.02V271.901V272.105H185.229H217.209ZM199.524 275.164L199.625 274.956L199.405 274.882L194.461 273.231L194.286 273.173L194.211 273.341C192.188 277.832 188.774 282.377 185.497 285.021L185.267 285.206L185.521 285.356C186.466 285.911 187.909 287.044 188.664 287.743L188.799 287.867L188.937 287.746C192.348 284.761 195.892 280.094 198.137 275.856C198.794 275.833 199.302 275.625 199.524 275.164ZM242.585 231.894V231.69H242.381H220.176H219.972V231.894V255.291C219.972 263.695 219.473 274.273 214.719 282.488C213.318 279.877 210.569 276.124 208.127 273.25L208.019 273.124L207.873 273.203L204.512 275.038L204.291 275.158L204.454 275.349C206.989 278.318 209.844 282.564 211.035 285.138L211.129 285.342L211.323 285.229C211.474 285.14 211.74 284.982 212.059 284.791C212.423 284.573 212.858 284.314 213.271 284.069C213.569 283.893 213.856 283.725 214.101 283.584C213.677 284.209 213.25 284.804 212.787 285.36L212.619 285.561L212.856 285.674C213.311 285.892 213.966 286.313 214.589 286.785C215.215 287.259 215.787 287.768 216.088 288.155L216.249 288.363L216.41 288.155C221.168 281.991 223.157 273.715 223.934 265.881H238.038V282.259C238.038 282.607 238.013 282.831 237.945 282.984C237.886 283.12 237.787 283.216 237.58 283.289C237.36 283.365 237.035 283.408 236.547 283.43C236.062 283.452 235.437 283.452 234.626 283.452C233.49 283.452 232.058 283.409 230.522 283.364C230.077 283.351 229.623 283.338 229.165 283.325L228.821 283.315L228.978 283.622C229.549 284.735 230.175 286.616 230.299 287.673L230.32 287.851L230.499 287.853C232.879 287.885 234.818 287.884 236.387 287.784C237.953 287.684 239.167 287.485 240.088 287.11C241.018 286.731 241.652 286.172 242.047 285.363C242.437 284.564 242.585 283.54 242.585 282.245V231.894ZM224.419 255.263V250.824H238.052V261.593H224.233C224.348 259.455 224.402 257.382 224.405 255.467H224.419V255.263ZM195.801 247.312V241.44H207.781V247.312H195.801ZM207.781 257.275H195.801V251.276H207.781V257.275ZM207.781 267.816H195.801V261.182H207.781V267.816ZM224.405 246.55V236.035H238.038V246.55H224.405Z" fill="black" stroke="black" stroke-width="0.407906"/>
<path d="M255.676 266.711C257.844 264.545 260.126 261.987 262.306 259.182V287.635V287.839H262.51H266.507H266.711V287.635V254.233C267.413 254.134 267.824 253.796 267.972 253.352L268.038 253.156L267.84 253.093L266.901 252.795C268.598 250.304 270.177 247.739 271.524 245.248C272.098 245.287 272.769 245.141 273.06 244.559L273.161 244.358L272.952 244.277L268.177 242.429L268.004 242.362L267.921 242.527C264.132 250.07 258.101 257.982 253.032 262.792L252.897 262.92L253.013 263.067C253.713 263.947 254.919 265.784 255.349 266.657L255.475 266.912L255.676 266.711ZM271.807 230.636L271.892 230.443L271.697 230.365L266.994 228.459L266.842 228.398L266.749 228.533C263.714 232.955 257.954 238.528 253.262 242.075L253.075 242.217L253.241 242.382C253.989 243.13 255.124 244.655 255.627 245.464L255.749 245.66L255.928 245.515C260.861 241.528 266.856 235.658 270.311 231.278C270.547 231.304 270.816 231.311 271.066 231.249C271.369 231.173 271.65 230.993 271.807 230.636ZM289.526 228.592V236.516H275.364H275.16V236.72V240.53V240.734H275.364H289.526V249.4H272.002H271.798V249.604V253.541V253.745H272.002H312.232H312.435V253.541V249.604V249.4H312.232H294.129V240.734H308.983H309.187V240.53V236.72V236.516H308.983H294.129V229.977C294.476 229.935 294.756 229.843 294.967 229.699C295.222 229.524 295.363 229.281 295.399 228.998L295.425 228.785L295.21 228.77L289.744 228.389L289.526 228.373V228.592ZM303.662 255.092L303.69 254.874L303.471 254.862L298.005 254.551L297.789 254.539V254.755V261.847H272.129H271.925V262.051V265.988V266.192H272.129H297.789V282.484C297.789 282.803 297.768 283 297.706 283.134C297.654 283.247 297.564 283.335 297.354 283.401C297.132 283.472 296.801 283.511 296.299 283.531C295.8 283.55 295.152 283.55 294.306 283.55C293.117 283.55 291.653 283.511 290.034 283.468C289.484 283.453 288.917 283.438 288.336 283.424L287.993 283.415L288.15 283.721C288.719 284.83 289.279 286.535 289.531 287.665L289.566 287.825H289.73C292.239 287.825 294.279 287.817 295.924 287.727C297.567 287.638 298.835 287.466 299.793 287.131C300.758 286.793 301.42 286.284 301.833 285.521C302.241 284.768 302.392 283.79 302.392 282.541V266.178H311.78H311.983V265.974V262.037V261.833H311.78H302.392V256.071C302.762 256.028 303.047 255.933 303.255 255.783C303.507 255.603 303.627 255.359 303.662 255.092ZM284.84 280.747L284.933 280.955L285.129 280.84L288.689 278.751L288.849 278.657L288.77 278.489C287.358 275.467 283.977 271.129 280.847 268.016L280.739 267.908L280.604 267.983L277.299 269.817L277.07 269.944L277.249 270.135C280.292 273.372 283.511 277.784 284.84 280.747Z" fill="black" stroke="black" stroke-width="0.407906"/>
</svg>
