<svg width="450" height="267" viewBox="0 0 450 267" fill="none" xmlns="http://www.w3.org/2000/svg">
<path d="M449.333 0H0V266.088H449.333V0Z" fill="#A84129"/>
<path d="M185.432 266.088C182.011 265.997 178.59 265.997 175.169 265.997H5.58449C3.73004 265.997 1.87555 265.934 0.0210939 265.906V238.849C17.1186 240.915 34.2115 242.978 51.2996 245.039C101.328 251.03 151.358 257.016 201.391 262.997C207.257 263.7 213.136 264.36 219.008 265.042C218.909 264.836 218.762 264.657 218.578 264.521C218.394 264.385 218.181 264.296 217.955 264.262C167.524 251.615 117.098 238.969 66.6761 226.322C44.4367 220.744 22.2113 215.144 0 209.524V177.156L39.3369 192.613L210.572 260.138L220.364 263.981L220.8 263.672L76.7984 178.47L77.4446 178.097L181.498 219.184C176.721 216.037 171.664 213.093 166.444 210.219C119.811 184.458 73.1643 158.685 26.5032 132.9C17.7438 128.073 8.8438 123.324 0.0140626 118.532V88.8273C0.680573 89.1419 1.33008 89.4913 1.95985 89.8741C11.8222 96.8437 21.6704 103.816 31.5047 110.79L177.171 214.308C179.447 215.931 181.814 217.512 184.139 219.107C184.015 218.195 183.593 217.35 182.938 216.704C151.501 179.533 120.062 142.35 88.6205 105.155C66.8588 79.394 45.1274 53.6327 23.4265 27.8714C15.6996 18.7378 7.84635 9.14058 0.0351566 0H3.58949C57.0971 0 110.607 0 164.119 0C164.208 1.32837 164.368 2.65109 164.597 3.96257C167.372 16.1313 170.217 28.3 173.026 40.4968C177.62 60.5156 182.212 80.5298 186.801 100.539C191.26 119.888 195.732 139.24 200.218 158.594C203.793 174.05 207.404 189.507 210.951 204.964C214.555 220.653 218.088 236.348 221.678 252.037C222.521 255.718 223.455 259.4 224.488 263.566C225.049 262.864 225.288 262.723 225.337 262.533C226.918 255.796 228.505 249.058 230.051 242.32C234.696 222.006 239.333 201.695 243.959 181.385C248.591 161.245 253.253 141.088 257.945 120.914C262.413 101.565 266.875 82.216 271.334 62.8669C274.902 47.3259 278.407 31.7777 281.997 16.2437C283.254 10.8198 284.694 5.4169 286.043 0C339.429 0 392.576 0 445.947 0H449.319C445.99 3.86419 442.604 8.15697 439.323 12.0352L273.778 208.069C270.715 211.695 267.671 215.32 264.646 218.945C265.783 218.669 266.85 218.16 267.779 217.449C280.287 208.549 292.793 199.65 305.297 190.751C345.776 162.029 386.268 133.312 426.771 104.6C434.224 99.3168 441.81 94.0966 449.333 88.8484V118.589C448.525 118.968 447.661 119.291 446.917 119.727C430.4 128.818 413.892 137.919 397.394 147.029C355.557 170.144 313.719 193.261 271.881 216.381C270.357 217.224 268.636 217.962 267.014 218.756L267.864 219.254L371.959 178.16C372.029 178.786 371.657 179.088 371.207 179.348C353.759 189.69 336.303 200.032 318.84 210.374C289.075 227.966 259.317 245.564 229.566 263.166C228.99 263.51 228.969 264.142 228.688 264.641L228.611 264.599C229.973 264.777 231.347 264.845 232.72 264.803C242.856 263.65 252.958 262.421 263.073 261.213C304.536 256.238 346.013 251.271 387.504 246.311C408.109 243.847 428.714 241.36 449.319 238.849V265.927C447.732 265.927 446.144 266.018 444.557 266.018H267.189" fill="#131915"/>
</svg>
