<svg width="28" height="28" viewBox="0 0 28 28" fill="none" xmlns="http://www.w3.org/2000/svg">
<path d="M14.0306 28C11.2604 28.006 8.55061 27.1901 6.24429 25.6554C3.93798 24.1208 2.13885 21.9364 1.07452 19.3788C0.0101987 16.8212 -0.271447 14.0053 0.265281 11.2875C0.80201 8.56979 2.13297 6.07237 4.08968 4.11137C6.04639 2.15037 8.54087 0.813946 11.2574 0.271265C13.974 -0.271415 16.7905 0.00402503 19.3505 1.06275C21.9104 2.12147 24.0988 3.91586 25.6385 6.2188C27.1782 8.52175 28 11.2297 28 14C27.9946 17.7061 26.5221 21.2592 23.9044 23.8827C21.2866 26.5062 17.7367 27.9865 14.0306 28ZM14.0306 0.479902C11.3566 0.479902 8.74264 1.27285 6.51928 2.75845C4.29592 4.24406 2.56303 6.3556 1.53973 8.82606C0.516426 11.2965 0.248698 14.015 0.770373 16.6376C1.29205 19.2602 2.57968 21.6693 4.47049 23.5601C6.36131 25.4509 8.77037 26.7386 11.393 27.2602C14.0156 27.7819 16.7341 27.5142 19.2045 26.4909C21.675 25.4676 23.7866 23.7347 25.2722 21.5113C26.7578 19.288 27.5507 16.674 27.5507 14C27.5453 10.4159 26.1191 6.98014 23.5848 4.44581C21.0505 1.91148 17.6147 0.485304 14.0306 0.479902Z" fill="#A84129"/>
<path d="M14.0308 1.17432C11.4941 1.17432 9.01437 1.92652 6.9052 3.33582C4.79602 4.74512 3.15211 6.74821 2.18137 9.0918C1.21062 11.4354 0.956648 14.0142 1.45153 16.5021C1.94641 18.9901 3.16791 21.2754 4.96162 23.0691C6.75532 24.8628 9.04068 26.0843 11.5286 26.5792C14.0166 27.0741 16.5954 26.8201 18.9389 25.8494C21.2825 24.8786 23.2856 23.2347 24.6949 21.1256C26.1042 19.0164 26.8564 16.5367 26.8564 14C26.8564 10.5984 25.5051 7.33612 23.0998 4.93084C20.6946 2.52556 17.4323 1.17432 14.0308 1.17432ZM17.3495 17.3187H10.712V10.6812H17.3495V17.3187Z" fill="#A84129"/>
</svg>
