<svg width="642" height="379" viewBox="0 0 642 379" fill="none" xmlns="http://www.w3.org/2000/svg">
<g clip-path="url(#clip0_115_1307)">
<path d="M642.45 -3.8147e-06H0V379.451H642.45V-3.8147e-06Z" fill="#2E5A87"/>
<path d="M642 346.251H637.687V362.761H642V346.251Z" fill="black"/>
<path d="M599.601 345.781H589.804V362.29H599.601V345.781Z" fill="black"/>
<path d="M549.855 345.781H538.567V362.29H549.855V345.781Z" fill="black"/>
<path d="M500.11 345.781H487.331V362.29H500.11V345.781Z" fill="black"/>
<path d="M450.366 345.781H436.096V362.29H450.366V345.781Z" fill="black"/>
<path d="M400.62 345.781H384.859V362.29H400.62V345.781Z" fill="black"/>
<path d="M350.876 345.781H333.624V362.29H350.876V345.781Z" fill="black"/>
<path d="M301.121 345.781H282.378V362.29H301.121V345.781Z" fill="black"/>
<path d="M251.376 345.781H231.142V362.29H251.376V345.781Z" fill="black"/>
<path d="M201.631 345.781H179.906V362.29H201.631V345.781Z" fill="black"/>
<path d="M151.886 345.781H128.67V362.29H151.886V345.781Z" fill="black"/>
<path d="M102.142 345.781H77.4346V362.29H102.142V345.781Z" fill="black"/>
<path d="M52.3966 345.781H26.1982V362.29H52.3966V345.781Z" fill="black"/>
<path d="M624.578 329.541H614.781V346.051H624.578V329.541Z" fill="black"/>
<path d="M574.833 329.541H563.545V346.051H574.833V329.541Z" fill="black"/>
<path d="M525.088 329.541H512.31V346.051H525.088V329.541Z" fill="black"/>
<path d="M475.343 329.541H461.073V346.051H475.343V329.541Z" fill="black"/>
<path d="M425.598 329.541H409.837V346.051H425.598V329.541Z" fill="black"/>
<path d="M375.854 329.541H358.602V346.051H375.854V329.541Z" fill="black"/>
<path d="M326.099 329.541H307.355V346.051H326.099V329.541Z" fill="black"/>
<path d="M276.353 329.541H256.119V346.051H276.353V329.541Z" fill="black"/>
<path d="M226.609 329.541H204.884V346.051H226.609V329.541Z" fill="black"/>
<path d="M176.864 329.541H153.647V346.051H176.864V329.541Z" fill="black"/>
<path d="M127.119 329.541H102.412V346.051H127.119V329.541Z" fill="black"/>
<path d="M77.3741 329.541H51.1758V346.051H77.3741V329.541Z" fill="black"/>
<path d="M26.1984 329.541H0V346.051H26.1984V329.541Z" fill="black"/>
<path d="M642 313.292H637.687V329.802H642V313.292Z" fill="black"/>
<path d="M599.601 312.821H589.804V329.331H599.601V312.821Z" fill="black"/>
<path d="M549.855 312.821H538.567V329.331H549.855V312.821Z" fill="black"/>
<path d="M500.11 312.821H487.331V329.331H500.11V312.821Z" fill="black"/>
<path d="M450.366 312.821H436.096V329.331H450.366V312.821Z" fill="black"/>
<path d="M400.62 312.821H384.859V329.331H400.62V312.821Z" fill="black"/>
<path d="M350.876 312.821H333.624V329.331H350.876V312.821Z" fill="black"/>
<path d="M301.121 312.821H282.378V329.331H301.121V312.821Z" fill="black"/>
<path d="M251.376 312.821H231.142V329.331H251.376V312.821Z" fill="black"/>
<path d="M201.631 312.821H179.906V329.331H201.631V312.821Z" fill="black"/>
<path d="M151.886 312.821H128.67V329.331H151.886V312.821Z" fill="black"/>
<path d="M102.142 312.821H77.4346V329.331H102.142V312.821Z" fill="black"/>
<path d="M52.3966 312.821H26.1982V329.331H52.3966V312.821Z" fill="black"/>
<path d="M624.578 296.582H614.781V313.092H624.578V296.582Z" fill="black"/>
<path d="M574.833 296.582H563.545V313.092H574.833V296.582Z" fill="black"/>
<path d="M525.088 296.582H512.31V313.092H525.088V296.582Z" fill="black"/>
<path d="M475.343 296.582H461.073V313.092H475.343V296.582Z" fill="black"/>
<path d="M425.598 296.582H409.837V313.092H425.598V296.582Z" fill="black"/>
<path d="M375.854 296.582H358.602V313.092H375.854V296.582Z" fill="black"/>
<path d="M326.099 296.582H307.355V313.092H326.099V296.582Z" fill="black"/>
<path d="M276.353 296.582H256.119V313.092H276.353V296.582Z" fill="black"/>
<path d="M226.609 296.582H204.884V313.092H226.609V296.582Z" fill="black"/>
<path d="M176.864 296.582H153.647V313.092H176.864V296.582Z" fill="black"/>
<path d="M127.119 296.582H102.412V313.092H127.119V296.582Z" fill="black"/>
<path d="M77.3741 296.582H51.1758V313.092H77.3741V296.582Z" fill="black"/>
<path d="M26.1984 296.582H0V313.092H26.1984V296.582Z" fill="black"/>
<path d="M642 280.343H637.687V296.852H642V280.343Z" fill="black"/>
<path d="M599.601 279.872H589.804V296.382H599.601V279.872Z" fill="black"/>
<path d="M549.855 279.872H538.567V296.382H549.855V279.872Z" fill="black"/>
<path d="M500.11 279.872H487.331V296.382H500.11V279.872Z" fill="black"/>
<path d="M450.366 279.872H436.096V296.382H450.366V279.872Z" fill="black"/>
<path d="M400.62 279.872H384.859V296.382H400.62V279.872Z" fill="black"/>
<path d="M350.876 279.872H333.624V296.382H350.876V279.872Z" fill="black"/>
<path d="M301.121 279.872H282.378V296.382H301.121V279.872Z" fill="black"/>
<path d="M251.376 279.872H231.142V296.382H251.376V279.872Z" fill="black"/>
<path d="M201.631 279.872H179.906V296.382H201.631V279.872Z" fill="black"/>
<path d="M151.886 279.872H128.67V296.382H151.886V279.872Z" fill="black"/>
<path d="M102.142 279.872H77.4346V296.382H102.142V279.872Z" fill="black"/>
<path d="M52.3966 279.872H26.1982V296.382H52.3966V279.872Z" fill="black"/>
<path d="M624.578 263.633H614.781V280.143H624.578V263.633Z" fill="black"/>
<path d="M574.833 263.633H563.545V280.143H574.833V263.633Z" fill="black"/>
<path d="M525.088 263.633H512.31V280.143H525.088V263.633Z" fill="black"/>
<path d="M475.343 263.633H461.073V280.143H475.343V263.633Z" fill="black"/>
<path d="M425.598 263.633H409.837V280.143H425.598V263.633Z" fill="black"/>
<path d="M375.854 263.633H358.602V280.143H375.854V263.633Z" fill="black"/>
<path d="M326.099 263.633H307.355V280.143H326.099V263.633Z" fill="black"/>
<path d="M276.353 263.633H256.119V280.143H276.353V263.633Z" fill="black"/>
<path d="M226.609 263.633H204.884V280.143H226.609V263.633Z" fill="black"/>
<path d="M176.864 263.633H153.647V280.143H176.864V263.633Z" fill="black"/>
<path d="M127.119 263.633H102.412V280.143H127.119V263.633Z" fill="black"/>
<path d="M77.3741 263.633H51.1758V280.143H77.3741V263.633Z" fill="black"/>
<path d="M26.1984 263.633H0V280.143H26.1984V263.633Z" fill="black"/>
<path d="M642 247.384H637.687V263.893H642V247.384Z" fill="black"/>
<path d="M599.601 246.923H589.804V263.433H599.601V246.923Z" fill="black"/>
<path d="M549.855 246.923H538.567V263.433H549.855V246.923Z" fill="black"/>
<path d="M500.11 246.923H487.331V263.433H500.11V246.923Z" fill="black"/>
<path d="M450.366 246.923H436.096V263.433H450.366V246.923Z" fill="black"/>
<path d="M400.62 246.923H384.859V263.433H400.62V246.923Z" fill="black"/>
<path d="M350.876 246.923H333.624V263.433H350.876V246.923Z" fill="black"/>
<path d="M301.131 246.923H282.388V263.433H301.131V246.923Z" fill="black"/>
<path d="M251.376 246.923H231.142V263.433H251.376V246.923Z" fill="black"/>
<path d="M201.631 246.923H179.906V263.433H201.631V246.923Z" fill="black"/>
<path d="M151.886 246.923H128.67V263.433H151.886V246.923Z" fill="black"/>
<path d="M102.142 246.923H77.4346V263.433H102.142V246.923Z" fill="black"/>
<path d="M52.3966 246.923H26.1982V263.433H52.3966V246.923Z" fill="black"/>
<path d="M624.578 230.674H614.781V247.183H624.578V230.674Z" fill="black"/>
<path d="M574.833 230.674H563.545V247.183H574.833V230.674Z" fill="black"/>
<path d="M525.088 230.674H512.31V247.183H525.088V230.674Z" fill="black"/>
<path d="M475.343 230.674H461.073V247.183H475.343V230.674Z" fill="black"/>
<path d="M425.598 230.674H409.837V247.183H425.598V230.674Z" fill="black"/>
<path d="M375.854 230.674H358.602V247.183H375.854V230.674Z" fill="black"/>
<path d="M326.099 230.674H307.355V247.183H326.099V230.674Z" fill="black"/>
<path d="M276.353 230.674H256.119V247.183H276.353V230.674Z" fill="black"/>
<path d="M226.609 230.674H204.884V247.183H226.609V230.674Z" fill="black"/>
<path d="M176.864 230.674H153.647V247.183H176.864V230.674Z" fill="black"/>
<path d="M127.119 230.674H102.412V247.183H127.119V230.674Z" fill="black"/>
<path d="M77.3741 230.674H51.1758V247.183H77.3741V230.674Z" fill="black"/>
<path d="M26.1984 230.674H0V247.183H26.1984V230.674Z" fill="black"/>
<path d="M642 214.435H637.687V230.944H642V214.435Z" fill="black"/>
<path d="M599.601 213.964H589.804V230.474H599.601V213.964Z" fill="black"/>
<path d="M549.855 213.964H538.567V230.474H549.855V213.964Z" fill="black"/>
<path d="M500.11 213.964H487.331V230.474H500.11V213.964Z" fill="black"/>
<path d="M450.366 213.964H436.096V230.474H450.366V213.964Z" fill="black"/>
<path d="M400.62 213.964H384.859V230.474H400.62V213.964Z" fill="black"/>
<path d="M350.876 213.964H333.624V230.474H350.876V213.964Z" fill="black"/>
<path d="M301.131 213.964H282.388V230.474H301.131V213.964Z" fill="black"/>
<path d="M251.376 213.964H231.142V230.474H251.376V213.964Z" fill="black"/>
<path d="M201.631 213.964H179.906V230.474H201.631V213.964Z" fill="black"/>
<path d="M151.886 213.964H128.67V230.474H151.886V213.964Z" fill="black"/>
<path d="M102.142 213.964H77.4346V230.474H102.142V213.964Z" fill="black"/>
<path d="M52.3966 213.964H26.1982V230.474H52.3966V213.964Z" fill="black"/>
<path d="M624.578 197.725H614.781V214.234H624.578V197.725Z" fill="black"/>
<path d="M574.833 197.725H563.545V214.234H574.833V197.725Z" fill="black"/>
<path d="M525.088 197.725H512.31V214.234H525.088V197.725Z" fill="black"/>
<path d="M475.343 197.725H461.073V214.234H475.343V197.725Z" fill="black"/>
<path d="M425.598 197.725H409.837V214.234H425.598V197.725Z" fill="black"/>
<path d="M375.854 197.725H358.602V214.234H375.854V197.725Z" fill="black"/>
<path d="M326.099 197.725H307.355V214.234H326.099V197.725Z" fill="black"/>
<path d="M276.353 197.725H256.119V214.234H276.353V197.725Z" fill="black"/>
<path d="M226.609 197.725H204.884V214.234H226.609V197.725Z" fill="black"/>
<path d="M176.864 197.725H153.647V214.234H176.864V197.725Z" fill="black"/>
<path d="M127.119 197.725H102.412V214.234H127.119V197.725Z" fill="black"/>
<path d="M77.3741 197.725H51.1758V214.234H77.3741V197.725Z" fill="black"/>
<path d="M26.1984 197.725H0V214.234H26.1984V197.725Z" fill="black"/>
<path d="M642 181.475H637.687V197.985H642V181.475Z" fill="black"/>
<path d="M599.601 181.015H589.804V197.525H599.601V181.015Z" fill="black"/>
<path d="M549.855 181.015H538.567V197.525H549.855V181.015Z" fill="black"/>
<path d="M500.11 181.015H487.331V197.525H500.11V181.015Z" fill="black"/>
<path d="M450.366 181.015H436.096V197.525H450.366V181.015Z" fill="black"/>
<path d="M400.62 181.015H384.859V197.525H400.62V181.015Z" fill="black"/>
<path d="M350.876 181.015H333.624V197.525H350.876V181.015Z" fill="black"/>
<path d="M301.131 181.015H282.388V197.525H301.131V181.015Z" fill="black"/>
<path d="M251.376 181.015H231.142V197.525H251.376V181.015Z" fill="black"/>
<path d="M201.631 181.015H179.906V197.525H201.631V181.015Z" fill="black"/>
<path d="M151.886 181.015H128.67V197.525H151.886V181.015Z" fill="black"/>
<path d="M102.142 181.015H77.4346V197.525H102.142V181.015Z" fill="black"/>
<path d="M52.3966 181.015H26.1982V197.525H52.3966V181.015Z" fill="black"/>
<path d="M624.578 164.766H614.781V181.275H624.578V164.766Z" fill="black"/>
<path d="M574.833 164.766H563.545V181.275H574.833V164.766Z" fill="black"/>
<path d="M525.088 164.766H512.31V181.275H525.088V164.766Z" fill="black"/>
<path d="M475.343 164.766H461.073V181.275H475.343V164.766Z" fill="black"/>
<path d="M425.598 164.766H409.837V181.275H425.598V164.766Z" fill="black"/>
<path d="M375.854 164.766H358.602V181.275H375.854V164.766Z" fill="black"/>
<path d="M326.099 164.766H307.355V181.275H326.099V164.766Z" fill="black"/>
<path d="M276.353 164.766H256.119V181.275H276.353V164.766Z" fill="black"/>
<path d="M226.609 164.766H204.884V181.275H226.609V164.766Z" fill="black"/>
<path d="M176.864 164.766H153.647V181.275H176.864V164.766Z" fill="black"/>
<path d="M127.119 164.766H102.412V181.275H127.119V164.766Z" fill="black"/>
<path d="M77.3741 164.766H51.1758V181.275H77.3741V164.766Z" fill="black"/>
<path d="M26.1984 164.766H0V181.275H26.1984V164.766Z" fill="black"/>
<path d="M642 148.526H637.687V165.036H642V148.526Z" fill="black"/>
<path d="M599.601 148.056H589.804V164.565H599.601V148.056Z" fill="black"/>
<path d="M549.855 148.056H538.567V164.565H549.855V148.056Z" fill="black"/>
<path d="M500.11 148.056H487.331V164.565H500.11V148.056Z" fill="black"/>
<path d="M450.366 148.056H436.096V164.565H450.366V148.056Z" fill="black"/>
<path d="M400.62 148.056H384.859V164.565H400.62V148.056Z" fill="black"/>
<path d="M350.876 148.056H333.624V164.565H350.876V148.056Z" fill="black"/>
<path d="M301.131 148.056H282.388V164.565H301.131V148.056Z" fill="black"/>
<path d="M251.376 148.056H231.142V164.565H251.376V148.056Z" fill="black"/>
<path d="M201.631 148.056H179.906V164.565H201.631V148.056Z" fill="black"/>
<path d="M151.886 148.056H128.67V164.565H151.886V148.056Z" fill="black"/>
<path d="M102.142 148.056H77.4346V164.565H102.142V148.056Z" fill="black"/>
<path d="M52.3966 148.056H26.1982V164.565H52.3966V148.056Z" fill="black"/>
<path d="M624.578 131.817H614.781V148.326H624.578V131.817Z" fill="black"/>
<path d="M574.833 131.817H563.545V148.326H574.833V131.817Z" fill="black"/>
<path d="M525.088 131.817H512.31V148.326H525.088V131.817Z" fill="black"/>
<path d="M475.343 131.817H461.073V148.326H475.343V131.817Z" fill="black"/>
<path d="M425.598 131.817H409.837V148.326H425.598V131.817Z" fill="black"/>
<path d="M375.854 131.817H358.602V148.326H375.854V131.817Z" fill="black"/>
<path d="M326.099 131.817H307.355V148.326H326.099V131.817Z" fill="black"/>
<path d="M276.353 131.817H256.119V148.326H276.353V131.817Z" fill="black"/>
<path d="M226.609 131.817H204.884V148.326H226.609V131.817Z" fill="black"/>
<path d="M176.864 131.817H153.647V148.326H176.864V131.817Z" fill="black"/>
<path d="M127.119 131.817H102.412V148.326H127.119V131.817Z" fill="black"/>
<path d="M77.3741 131.817H51.1758V148.326H77.3741V131.817Z" fill="black"/>
<path d="M26.1984 131.817H0V148.326H26.1984V131.817Z" fill="black"/>
<path d="M642 115.577H637.687V132.087H642V115.577Z" fill="black"/>
<path d="M599.601 115.107H589.804V131.616H599.601V115.107Z" fill="black"/>
<path d="M549.855 115.107H538.567V131.616H549.855V115.107Z" fill="black"/>
<path d="M500.11 115.107H487.331V131.616H500.11V115.107Z" fill="black"/>
<path d="M450.366 115.107H436.096V131.616H450.366V115.107Z" fill="black"/>
<path d="M400.62 115.107H384.859V131.616H400.62V115.107Z" fill="black"/>
<path d="M350.876 115.107H333.624V131.616H350.876V115.107Z" fill="black"/>
<path d="M301.131 115.107H282.388V131.616H301.131V115.107Z" fill="black"/>
<path d="M251.376 115.107H231.142V131.616H251.376V115.107Z" fill="black"/>
<path d="M201.631 115.107H179.906V131.616H201.631V115.107Z" fill="black"/>
<path d="M151.886 115.107H128.67V131.616H151.886V115.107Z" fill="black"/>
<path d="M102.142 115.107H77.4346V131.616H102.142V115.107Z" fill="black"/>
<path d="M52.3966 115.107H26.1982V131.616H52.3966V115.107Z" fill="black"/>
<path d="M624.578 98.8574H614.781V115.367H624.578V98.8574Z" fill="black"/>
<path d="M574.833 98.8574H563.545V115.367H574.833V98.8574Z" fill="black"/>
<path d="M525.088 98.8574H512.31V115.367H525.088V98.8574Z" fill="black"/>
<path d="M475.343 98.8574H461.073V115.367H475.343V98.8574Z" fill="black"/>
<path d="M425.598 98.8574H409.837V115.367H425.598V98.8574Z" fill="black"/>
<path d="M375.854 98.8574H358.602V115.367H375.854V98.8574Z" fill="black"/>
<path d="M326.099 98.8574H307.355V115.367H326.099V98.8574Z" fill="black"/>
<path d="M276.353 98.8574H256.119V115.367H276.353V98.8574Z" fill="black"/>
<path d="M226.609 98.8574H204.884V115.367H226.609V98.8574Z" fill="black"/>
<path d="M176.864 98.8574H153.647V115.367H176.864V98.8574Z" fill="black"/>
<path d="M127.119 98.8574H102.412V115.367H127.119V98.8574Z" fill="black"/>
<path d="M77.3741 98.8574H51.1758V115.367H77.3741V98.8574Z" fill="black"/>
<path d="M26.1984 98.8574H0V115.367H26.1984V98.8574Z" fill="black"/>
<path d="M642 82.6181H637.687V99.1277H642V82.6181Z" fill="black"/>
<path d="M599.601 82.1475H589.804V98.6571H599.601V82.1475Z" fill="black"/>
<path d="M549.855 82.1475H538.567V98.6571H549.855V82.1475Z" fill="black"/>
<path d="M500.11 82.1475H487.331V98.6571H500.11V82.1475Z" fill="black"/>
<path d="M450.366 82.1475H436.096V98.6571H450.366V82.1475Z" fill="black"/>
<path d="M400.62 82.1475H384.859V98.6571H400.62V82.1475Z" fill="black"/>
<path d="M350.876 82.1475H333.624V98.6571H350.876V82.1475Z" fill="black"/>
<path d="M301.131 82.1475H282.388V98.6571H301.131V82.1475Z" fill="black"/>
<path d="M251.376 82.1475H231.142V98.6571H251.376V82.1475Z" fill="black"/>
<path d="M201.631 82.1475H179.906V98.6571H201.631V82.1475Z" fill="black"/>
<path d="M151.886 82.1475H128.67V98.6571H151.886V82.1475Z" fill="black"/>
<path d="M102.142 82.1475H77.4346V98.6571H102.142V82.1475Z" fill="black"/>
<path d="M52.3966 82.1475H26.1982V98.6571H52.3966V82.1475Z" fill="black"/>
<path d="M624.578 65.9083H614.781V82.4179H624.578V65.9083Z" fill="black"/>
<path d="M574.833 65.9083H563.545V82.4179H574.833V65.9083Z" fill="black"/>
<path d="M525.088 65.9083H512.31V82.4179H525.088V65.9083Z" fill="black"/>
<path d="M475.343 65.9083H461.073V82.4179H475.343V65.9083Z" fill="black"/>
<path d="M425.598 65.9083H409.837V82.4179H425.598V65.9083Z" fill="black"/>
<path d="M375.854 65.9083H358.602V82.4179H375.854V65.9083Z" fill="black"/>
<path d="M326.099 65.9083H307.355V82.4179H326.099V65.9083Z" fill="black"/>
<path d="M276.353 65.9083H256.119V82.4179H276.353V65.9083Z" fill="black"/>
<path d="M226.609 65.9083H204.884V82.4179H226.609V65.9083Z" fill="black"/>
<path d="M176.864 65.9083H153.647V82.4179H176.864V65.9083Z" fill="black"/>
<path d="M127.119 65.9083H102.412V82.4179H127.119V65.9083Z" fill="black"/>
<path d="M77.3741 65.9083H51.1758V82.4179H77.3741V65.9083Z" fill="black"/>
<path d="M26.1984 65.9083H0V82.4179H26.1984V65.9083Z" fill="black"/>
<path d="M642 49.669H637.687V66.1786H642V49.669Z" fill="black"/>
<path d="M599.601 49.1984H589.804V65.708H599.601V49.1984Z" fill="black"/>
<path d="M549.855 49.1984H538.567V65.708H549.855V49.1984Z" fill="black"/>
<path d="M500.11 49.1984H487.331V65.708H500.11V49.1984Z" fill="black"/>
<path d="M450.366 49.1984H436.096V65.708H450.366V49.1984Z" fill="black"/>
<path d="M400.62 49.1984H384.859V65.708H400.62V49.1984Z" fill="black"/>
<path d="M350.876 49.1984H333.624V65.708H350.876V49.1984Z" fill="black"/>
<path d="M301.131 49.1984H282.388V65.708H301.131V49.1984Z" fill="black"/>
<path d="M251.376 49.1984H231.142V65.708H251.376V49.1984Z" fill="black"/>
<path d="M201.631 49.1984H179.906V65.708H201.631V49.1984Z" fill="black"/>
<path d="M151.886 49.1984H128.67V65.708H151.886V49.1984Z" fill="black"/>
<path d="M102.142 49.1984H77.4346V65.708H102.142V49.1984Z" fill="black"/>
<path d="M52.3966 49.1984H26.1982V65.708H52.3966V49.1984Z" fill="black"/>
<path d="M642 16.7098H637.687V33.2194H642V16.7098Z" fill="black"/>
<path d="M599.601 16.2393H589.804V32.7489H599.601V16.2393Z" fill="black"/>
<path d="M549.855 16.2393H538.567V32.7489H549.855V16.2393Z" fill="black"/>
<path d="M500.11 16.2393H487.331V32.7489H500.11V16.2393Z" fill="black"/>
<path d="M450.366 16.2393H436.096V32.7489H450.366V16.2393Z" fill="black"/>
<path d="M400.62 16.2393H384.859V32.7489H400.62V16.2393Z" fill="black"/>
<path d="M350.876 16.2393H333.624V32.7489H350.876V16.2393Z" fill="black"/>
<path d="M301.131 16.2393H282.388V32.7489H301.131V16.2393Z" fill="black"/>
<path d="M251.376 16.2393H231.142V32.7489H251.376V16.2393Z" fill="black"/>
<path d="M201.631 16.2393H179.906V32.7489H201.631V16.2393Z" fill="black"/>
<path d="M151.886 16.2393H128.67V32.7489H151.886V16.2393Z" fill="black"/>
<path d="M102.142 16.2393H77.4346V32.7489H102.142V16.2393Z" fill="black"/>
<path d="M52.3966 16.2393H26.1982V32.7489H52.3966V16.2393Z" fill="black"/>
<path d="M624.578 32.9491H614.781V49.4587H624.578V32.9491Z" fill="black"/>
<path d="M574.833 32.9491H563.545V49.4587H574.833V32.9491Z" fill="black"/>
<path d="M525.088 32.9491H512.31V49.4587H525.088V32.9491Z" fill="black"/>
<path d="M475.343 32.9491H461.073V49.4587H475.343V32.9491Z" fill="black"/>
<path d="M425.598 32.9491H409.837V49.4587H425.598V32.9491Z" fill="black"/>
<path d="M375.854 32.9491H358.602V49.4587H375.854V32.9491Z" fill="black"/>
<path d="M326.099 32.9491H307.355V49.4587H326.099V32.9491Z" fill="black"/>
<path d="M276.353 32.9491H256.119V49.4587H276.353V32.9491Z" fill="black"/>
<path d="M226.609 32.9491H204.884V49.4587H226.609V32.9491Z" fill="black"/>
<path d="M176.864 32.9491H153.647V49.4587H176.864V32.9491Z" fill="black"/>
<path d="M127.119 32.9491H102.412V49.4587H127.119V32.9491Z" fill="black"/>
<path d="M77.3741 32.9491H51.1758V49.4587H77.3741V32.9491Z" fill="black"/>
<path d="M26.1984 32.9491H0V49.4587H26.1984V32.9491Z" fill="black"/>
<path d="M624.578 0H614.781V16.5096H624.578V0Z" fill="black"/>
<path d="M574.833 0H563.545V16.5096H574.833V0Z" fill="black"/>
<path d="M525.088 0H512.31V16.5096H525.088V0Z" fill="black"/>
<path d="M475.343 0H461.073V16.5096H475.343V0Z" fill="black"/>
<path d="M425.598 0H409.837V16.5096H425.598V0Z" fill="black"/>
<path d="M375.854 0H358.602V16.5096H375.854V0Z" fill="black"/>
<path d="M326.099 0H307.355V16.5096H326.099V0Z" fill="black"/>
<path d="M276.353 0H256.119V16.5096H276.353V0Z" fill="black"/>
<path d="M226.609 0H204.884V16.5096H226.609V0Z" fill="black"/>
<path d="M176.864 0H153.647V16.5096H176.864V0Z" fill="black"/>
<path d="M127.119 0H102.412V16.5096H127.119V0Z" fill="black"/>
<path d="M77.3741 0H51.1758V16.5096H77.3741V0Z" fill="black"/>
<path d="M26.1984 0H0V16.5096H26.1984V0Z" fill="black"/>
<path d="M624.578 362.49H614.781V379H624.578V362.49Z" fill="black"/>
<path d="M574.833 362.49H563.545V379H574.833V362.49Z" fill="black"/>
<path d="M525.088 362.49H512.31V379H525.088V362.49Z" fill="black"/>
<path d="M475.343 362.49H461.073V379H475.343V362.49Z" fill="black"/>
<path d="M425.598 362.49H409.837V379H425.598V362.49Z" fill="black"/>
<path d="M375.854 362.49H358.602V379H375.854V362.49Z" fill="black"/>
<path d="M326.099 362.49H307.355V379H326.099V362.49Z" fill="black"/>
<path d="M276.353 362.49H256.119V379H276.353V362.49Z" fill="black"/>
<path d="M226.609 362.49H204.884V379H226.609V362.49Z" fill="black"/>
<path d="M176.864 362.49H153.647V379H176.864V362.49Z" fill="black"/>
<path d="M127.119 362.49H102.412V379H127.119V362.49Z" fill="black"/>
<path d="M77.3741 362.49H51.1758V379H77.3741V362.49Z" fill="black"/>
<path d="M26.1984 362.49H0V379H26.1984V362.49Z" fill="black"/>
</g>
<defs>
<clipPath id="clip0_115_1307">
<rect width="642" height="379" fill="white"/>
</clipPath>
</defs>
</svg>
