<svg width="638" height="306" viewBox="0 0 638 306" fill="none" xmlns="http://www.w3.org/2000/svg">
<g clip-path="url(#clip0_115_3182)">
<rect width="638" height="306" fill="#A84129"/>
<path d="M638 0H0.0996094V305.88H638V0Z" fill="#A84129"/>
<path d="M106.98 40.1029C75.1131 62.8085 40.6864 89.6406 37.7367 125.467C36.1068 145.308 44.976 165.099 59.0747 180.723C73.1733 196.348 92.1715 208.116 112.27 217.471C162.525 240.858 220.01 249.922 276.854 252.777C358.986 256.893 443.998 248.029 516.442 213.986C536.9 204.371 556.448 192.612 571.046 176.837C585.645 161.063 594.964 140.861 593.044 120.639C589.865 87.1367 558.328 61.7769 528.99 40.0027C556.548 51.1703 583.205 65.042 603.823 84.5426C624.441 104.033 638.59 129.744 637.87 156.275C637.17 182.206 622.332 206.794 601.584 225.363C580.836 243.923 554.528 257.043 527.451 267.7C408.652 314.473 269.985 316.777 145.357 283.515C108.22 273.599 71.2935 260.198 42.7662 237.182C10.6392 211.251 -9.64888 170.287 4.66977 132.588C17.9885 97.523 46.9758 67.2154 83.9323 49.2973C91.3216 45.7117 99.0309 42.6269 106.98 40.1029Z" fill="black"/>
<path d="M186.863 17.1769C166.865 26.9823 146.117 40.193 141.547 59.8238C138.127 74.5069 144.987 90.0012 156.386 101.199C167.795 112.396 183.263 119.828 199.112 125.577C240.158 140.46 285.363 145.278 329.769 143.675C370.515 142.213 411.802 135.212 447.168 117.474C470.826 105.616 493.324 84.803 489.234 61.2461C485.965 42.3564 466.926 29.0055 448.868 18.2286C469.466 23.9976 489.924 31.1188 507.043 42.6669C524.161 54.215 537.74 70.751 540.679 89.4703C543.839 109.622 534.24 130.214 518.752 145.408C503.263 160.602 482.435 170.928 460.867 178.58C410.322 196.518 354.677 200.915 300.152 199.213C250.177 197.65 199.582 190.909 154.496 172.02C137.577 164.929 121.259 155.955 109.42 143.235C61.9545 92.2747 126.958 27.6033 186.863 17.1769Z" fill="black"/>
<path d="M314.701 99.4761C372.702 99.4761 419.721 77.2076 419.721 49.738C419.721 22.2685 372.702 0 314.701 0C256.7 0 209.681 22.2685 209.681 49.738C209.681 77.2076 256.7 99.4761 314.701 99.4761Z" fill="black"/>
</g>
<defs>
<clipPath id="clip0_115_3182">
<rect width="638" height="306" fill="white"/>
</clipPath>
</defs>
</svg>
