<svg width="486" height="480" viewBox="0 0 486 480" fill="none" xmlns="http://www.w3.org/2000/svg">
<path d="M485.99 0H0V480H485.99V0Z" fill="#469B70"/>
<path d="M224.696 0L243.005 238.815L253.558 0H224.696Z" fill="#F5ECD3"/>
<path d="M142.52 20.5446L243.005 238.815L169.632 10.8624L142.52 20.5446Z" fill="#F5ECD3"/>
<path d="M72.4541 67.4054L243.005 238.815L94.56 49.2212L72.4541 67.4054Z" fill="#F5ECD3"/>
<path d="M22.9551 134.951L243.005 238.815L37.3859 110.445L22.9551 134.951Z" fill="#F5ECD3"/>
<path d="M0 215.019L243.005 238.815L5.0168 187.153L0 215.019Z" fill="#F5ECD3"/>
<path d="M6.35544 297.958L243.004 238.814L1.34863 270.092L6.35544 297.958Z" fill="#F5ECD3"/>
<path d="M41.2531 373.765L243.004 238.814L26.8223 349.25L41.2531 373.765Z" fill="#F5ECD3"/>
<path d="M100.486 433.289L243.005 238.814L78.3799 415.095L100.486 433.289Z" fill="#F5ECD3"/>
<path d="M176.908 469.357L243.005 238.814L149.795 459.685L176.908 469.357Z" fill="#F5ECD3"/>
<path d="M261.303 477.629L243.005 238.814L232.441 477.629H261.303Z" fill="#F5ECD3"/>
<path d="M343.481 457.084L243.005 238.814L316.368 466.767L343.481 457.084Z" fill="#F5ECD3"/>
<path d="M413.546 410.224L243.005 238.814L391.44 428.408L413.546 410.224Z" fill="#F5ECD3"/>
<path d="M463.044 342.678L243.005 238.814L448.614 367.184L463.044 342.678Z" fill="#F5ECD3"/>
<path d="M486 262.61L243.005 238.814L480.983 290.476L486 262.61Z" fill="#F5ECD3"/>
<path d="M479.644 179.671L243.005 238.815L484.651 207.537L479.644 179.671Z" fill="#F5ECD3"/>
<path d="M444.746 103.864L243.005 238.815L459.177 128.369L444.746 103.864Z" fill="#F5ECD3"/>
<path d="M385.514 44.34L243.005 238.815L407.62 62.5242L385.514 44.34Z" fill="#F5ECD3"/>
<path d="M309.093 8.26166L243.005 238.814L336.205 17.9438L309.093 8.26166Z" fill="#F5ECD3"/>
</svg>
