<svg width="313" height="480" viewBox="0 0 313 480" fill="none" xmlns="http://www.w3.org/2000/svg">
<path d="M312.99 0H0V480H312.99V0Z" fill="#469B70"/>
<path d="M299.594 0H285.958V3.21888H299.594V0Z" fill="#261C19"/>
<path d="M299.204 31.6978H285.568V39.028H299.204V31.6978Z" fill="#261C19"/>
<path d="M299.204 68.8909H285.568V77.3343H299.204V68.8909Z" fill="#261C19"/>
<path d="M299.204 106.084H285.568V115.64H299.204V106.084Z" fill="#261C19"/>
<path d="M299.204 143.277H285.568V153.946H299.204V143.277Z" fill="#261C19"/>
<path d="M299.204 180.47H285.568V192.253H299.204V180.47Z" fill="#261C19"/>
<path d="M299.204 217.663H285.568V230.559H299.204V217.663Z" fill="#261C19"/>
<path d="M299.204 254.856H285.568V268.875H299.204V254.856Z" fill="#261C19"/>
<path d="M299.204 292.059H285.568V307.191H299.204V292.059Z" fill="#261C19"/>
<path d="M299.204 329.252H285.568V345.497H299.204V329.252Z" fill="#261C19"/>
<path d="M299.204 366.445H285.568V383.803H299.204V366.445Z" fill="#261C19"/>
<path d="M299.204 403.638H285.568V422.11H299.204V403.638Z" fill="#261C19"/>
<path d="M299.204 440.831H285.568V460.416H299.204V440.831Z" fill="#261C19"/>
<path d="M285.788 13.0261H272.152V20.3563H285.788V13.0261Z" fill="#261C19"/>
<path d="M285.788 50.2192H272.152V58.6627H285.788V50.2192Z" fill="#261C19"/>
<path d="M285.788 87.4121H272.152V96.9686H285.788V87.4121Z" fill="#261C19"/>
<path d="M285.788 124.605H272.152V135.275H285.788V124.605Z" fill="#261C19"/>
<path d="M285.788 161.798H272.152V173.581H285.788V161.798Z" fill="#261C19"/>
<path d="M285.788 198.991H272.152V211.887H285.788V198.991Z" fill="#261C19"/>
<path d="M285.788 236.184H272.152V250.203H285.788V236.184Z" fill="#261C19"/>
<path d="M285.788 273.378H272.152V288.51H285.788V273.378Z" fill="#261C19"/>
<path d="M285.788 310.571H272.152V326.816H285.788V310.571Z" fill="#261C19"/>
<path d="M285.788 347.763H272.152V365.122H285.788V347.763Z" fill="#261C19"/>
<path d="M285.788 384.967H272.152V403.438H285.788V384.967Z" fill="#261C19"/>
<path d="M285.788 422.16H272.152V441.744H285.788V422.16Z" fill="#261C19"/>
<path d="M285.788 460.416H272.152V480H285.788V460.416Z" fill="#261C19"/>
<path d="M272.372 0H258.736V3.21888H272.372V0Z" fill="#261C19"/>
<path d="M271.993 31.6978H258.356V39.028H271.993V31.6978Z" fill="#261C19"/>
<path d="M271.993 68.8909H258.356V77.3343H271.993V68.8909Z" fill="#261C19"/>
<path d="M271.993 106.084H258.356V115.64H271.993V106.084Z" fill="#261C19"/>
<path d="M271.993 143.277H258.356V153.946H271.993V143.277Z" fill="#261C19"/>
<path d="M271.993 180.47H258.356V192.253H271.993V180.47Z" fill="#261C19"/>
<path d="M271.993 217.663H258.356V230.559H271.993V217.663Z" fill="#261C19"/>
<path d="M271.993 254.856H258.356V268.875H271.993V254.856Z" fill="#261C19"/>
<path d="M271.993 292.059H258.356V307.191H271.993V292.059Z" fill="#261C19"/>
<path d="M271.993 329.252H258.356V345.497H271.993V329.252Z" fill="#261C19"/>
<path d="M271.993 366.445H258.356V383.803H271.993V366.445Z" fill="#261C19"/>
<path d="M271.993 403.638H258.356V422.11H271.993V403.638Z" fill="#261C19"/>
<path d="M271.993 440.831H258.356V460.416H271.993V440.831Z" fill="#261C19"/>
<path d="M258.577 13.0261H244.94V20.3563H258.577V13.0261Z" fill="#261C19"/>
<path d="M258.577 50.2192H244.94V58.6627H258.577V50.2192Z" fill="#261C19"/>
<path d="M258.577 87.4121H244.94V96.9686H258.577V87.4121Z" fill="#261C19"/>
<path d="M258.577 124.605H244.94V135.275H258.577V124.605Z" fill="#261C19"/>
<path d="M258.577 161.798H244.94V173.581H258.577V161.798Z" fill="#261C19"/>
<path d="M258.577 198.991H244.94V211.887H258.577V198.991Z" fill="#261C19"/>
<path d="M258.577 236.184H244.94V250.203H258.577V236.184Z" fill="#261C19"/>
<path d="M258.577 273.378H244.94V288.51H258.577V273.378Z" fill="#261C19"/>
<path d="M258.577 310.571H244.94V326.816H258.577V310.571Z" fill="#261C19"/>
<path d="M258.577 347.763H244.94V365.122H258.577V347.763Z" fill="#261C19"/>
<path d="M258.577 384.967H244.94V403.438H258.577V384.967Z" fill="#261C19"/>
<path d="M258.577 422.16H244.94V441.744H258.577V422.16Z" fill="#261C19"/>
<path d="M258.577 460.416H244.94V480H258.577V460.416Z" fill="#261C19"/>
<path d="M245.16 0H231.523V3.21888H245.16V0Z" fill="#261C19"/>
<path d="M244.77 31.6978H231.134V39.028H244.77V31.6978Z" fill="#261C19"/>
<path d="M244.77 68.8909H231.134V77.3343H244.77V68.8909Z" fill="#261C19"/>
<path d="M244.77 106.084H231.134V115.64H244.77V106.084Z" fill="#261C19"/>
<path d="M244.77 143.277H231.134V153.946H244.77V143.277Z" fill="#261C19"/>
<path d="M244.77 180.47H231.134V192.253H244.77V180.47Z" fill="#261C19"/>
<path d="M244.77 217.663H231.134V230.559H244.77V217.663Z" fill="#261C19"/>
<path d="M244.77 254.856H231.134V268.875H244.77V254.856Z" fill="#261C19"/>
<path d="M244.77 292.059H231.134V307.191H244.77V292.059Z" fill="#261C19"/>
<path d="M244.77 329.252H231.134V345.497H244.77V329.252Z" fill="#261C19"/>
<path d="M244.77 366.445H231.134V383.803H244.77V366.445Z" fill="#261C19"/>
<path d="M244.77 403.638H231.134V422.11H244.77V403.638Z" fill="#261C19"/>
<path d="M244.77 440.831H231.134V460.416H244.77V440.831Z" fill="#261C19"/>
<path d="M231.364 13.0261H217.728V20.3563H231.364V13.0261Z" fill="#261C19"/>
<path d="M231.364 50.2192H217.728V58.6627H231.364V50.2192Z" fill="#261C19"/>
<path d="M231.364 87.4121H217.728V96.9686H231.364V87.4121Z" fill="#261C19"/>
<path d="M231.364 124.605H217.728V135.275H231.364V124.605Z" fill="#261C19"/>
<path d="M231.364 161.798H217.728V173.581H231.364V161.798Z" fill="#261C19"/>
<path d="M231.364 198.991H217.728V211.887H231.364V198.991Z" fill="#261C19"/>
<path d="M231.364 236.184H217.728V250.203H231.364V236.184Z" fill="#261C19"/>
<path d="M231.364 273.378H217.728V288.51H231.364V273.378Z" fill="#261C19"/>
<path d="M231.364 310.571H217.728V326.816H231.364V310.571Z" fill="#261C19"/>
<path d="M231.364 347.763H217.728V365.122H231.364V347.763Z" fill="#261C19"/>
<path d="M231.364 384.967H217.728V403.438H231.364V384.967Z" fill="#261C19"/>
<path d="M231.364 422.16H217.728V441.744H231.364V422.16Z" fill="#261C19"/>
<path d="M231.364 460.416H217.728V480H231.364V460.416Z" fill="#261C19"/>
<path d="M217.948 0H204.312V3.21888H217.948V0Z" fill="#261C19"/>
<path d="M217.558 31.6978H203.922V39.028H217.558V31.6978Z" fill="#261C19"/>
<path d="M217.558 68.8909H203.922V77.3343H217.558V68.8909Z" fill="#261C19"/>
<path d="M217.558 106.084H203.922V115.64H217.558V106.084Z" fill="#261C19"/>
<path d="M217.558 143.277H203.922V153.946H217.558V143.277Z" fill="#261C19"/>
<path d="M217.558 180.47H203.922V192.253H217.558V180.47Z" fill="#261C19"/>
<path d="M217.558 217.663H203.922V230.559H217.558V217.663Z" fill="#261C19"/>
<path d="M217.558 254.856H203.922V268.875H217.558V254.856Z" fill="#261C19"/>
<path d="M217.558 292.059H203.922V307.191H217.558V292.059Z" fill="#261C19"/>
<path d="M217.558 329.252H203.922V345.497H217.558V329.252Z" fill="#261C19"/>
<path d="M217.558 366.445H203.922V383.803H217.558V366.445Z" fill="#261C19"/>
<path d="M217.558 403.638H203.922V422.11H217.558V403.638Z" fill="#261C19"/>
<path d="M217.558 440.831H203.922V460.416H217.558V440.831Z" fill="#261C19"/>
<path d="M204.141 13.0261H190.505V20.3563H204.141V13.0261Z" fill="#261C19"/>
<path d="M204.141 50.2192H190.505V58.6627H204.141V50.2192Z" fill="#261C19"/>
<path d="M204.141 87.4121H190.505V96.9686H204.141V87.4121Z" fill="#261C19"/>
<path d="M204.141 124.605H190.505V135.275H204.141V124.605Z" fill="#261C19"/>
<path d="M204.141 161.798H190.505V173.581H204.141V161.798Z" fill="#261C19"/>
<path d="M204.141 198.991H190.505V211.887H204.141V198.991Z" fill="#261C19"/>
<path d="M204.141 236.184H190.505V250.203H204.141V236.184Z" fill="#261C19"/>
<path d="M204.141 273.378H190.505V288.51H204.141V273.378Z" fill="#261C19"/>
<path d="M204.141 310.571H190.505V326.816H204.141V310.571Z" fill="#261C19"/>
<path d="M204.141 347.763H190.505V365.122H204.141V347.763Z" fill="#261C19"/>
<path d="M204.141 384.967H190.505V403.438H204.141V384.967Z" fill="#261C19"/>
<path d="M204.141 422.16H190.505V441.744H204.141V422.16Z" fill="#261C19"/>
<path d="M204.141 460.416H190.505V480H204.141V460.416Z" fill="#261C19"/>
<path d="M190.736 0H177.1V3.21888H190.736V0Z" fill="#261C19"/>
<path d="M190.345 31.6978H176.709V39.028H190.345V31.6978Z" fill="#261C19"/>
<path d="M190.345 68.8909H176.709V77.3343H190.345V68.8909Z" fill="#261C19"/>
<path d="M190.345 106.084H176.709V115.64H190.345V106.084Z" fill="#261C19"/>
<path d="M190.345 143.277H176.709V153.946H190.345V143.277Z" fill="#261C19"/>
<path d="M190.345 180.47H176.709V192.253H190.345V180.47Z" fill="#261C19"/>
<path d="M190.345 217.663H176.709V230.559H190.345V217.663Z" fill="#261C19"/>
<path d="M190.345 254.856H176.709V268.875H190.345V254.856Z" fill="#261C19"/>
<path d="M190.345 292.059H176.709V307.191H190.345V292.059Z" fill="#261C19"/>
<path d="M190.345 329.252H176.709V345.497H190.345V329.252Z" fill="#261C19"/>
<path d="M190.345 366.445H176.709V383.803H190.345V366.445Z" fill="#261C19"/>
<path d="M190.345 403.638H176.709V422.11H190.345V403.638Z" fill="#261C19"/>
<path d="M190.345 440.831H176.709V460.416H190.345V440.831Z" fill="#261C19"/>
<path d="M176.929 13.0261H163.293V20.3563H176.929V13.0261Z" fill="#261C19"/>
<path d="M176.929 50.2192H163.293V58.6627H176.929V50.2192Z" fill="#261C19"/>
<path d="M176.929 87.4121H163.293V96.9686H176.929V87.4121Z" fill="#261C19"/>
<path d="M176.929 124.605H163.293V135.275H176.929V124.605Z" fill="#261C19"/>
<path d="M176.929 161.798H163.293V173.581H176.929V161.798Z" fill="#261C19"/>
<path d="M176.929 198.991H163.293V211.887H176.929V198.991Z" fill="#261C19"/>
<path d="M176.929 236.184H163.293V250.203H176.929V236.184Z" fill="#261C19"/>
<path d="M176.929 273.378H163.293V288.51H176.929V273.378Z" fill="#261C19"/>
<path d="M176.929 310.571H163.293V326.816H176.929V310.571Z" fill="#261C19"/>
<path d="M176.929 347.763H163.293V365.122H176.929V347.763Z" fill="#261C19"/>
<path d="M176.929 384.967H163.293V403.438H176.929V384.967Z" fill="#261C19"/>
<path d="M176.929 422.16H163.293V441.744H176.929V422.16Z" fill="#261C19"/>
<path d="M176.929 460.416H163.293V480H176.929V460.416Z" fill="#261C19"/>
<path d="M163.512 0H149.876V3.21888H163.512V0Z" fill="#261C19"/>
<path d="M163.123 31.6978H149.487V39.028H163.123V31.6978Z" fill="#261C19"/>
<path d="M163.123 68.8909H149.487V77.3343H163.123V68.8909Z" fill="#261C19"/>
<path d="M163.123 106.084H149.487V115.64H163.123V106.084Z" fill="#261C19"/>
<path d="M163.123 143.277H149.487V153.946H163.123V143.277Z" fill="#261C19"/>
<path d="M163.123 180.47H149.487V192.253H163.123V180.47Z" fill="#261C19"/>
<path d="M163.123 217.663H149.487V230.559H163.123V217.663Z" fill="#261C19"/>
<path d="M163.123 254.856H149.487V268.875H163.123V254.856Z" fill="#261C19"/>
<path d="M163.123 292.059H149.487V307.191H163.123V292.059Z" fill="#261C19"/>
<path d="M163.123 329.252H149.487V345.497H163.123V329.252Z" fill="#261C19"/>
<path d="M163.123 366.445H149.487V383.803H163.123V366.445Z" fill="#261C19"/>
<path d="M163.123 403.638H149.487V422.11H163.123V403.638Z" fill="#261C19"/>
<path d="M163.123 440.831H149.487V460.416H163.123V440.831Z" fill="#261C19"/>
<path d="M149.717 13.0261H136.081V20.3563H149.717V13.0261Z" fill="#261C19"/>
<path d="M149.717 50.2192H136.081V58.6627H149.717V50.2192Z" fill="#261C19"/>
<path d="M149.717 87.4121H136.081V96.9686H149.717V87.4121Z" fill="#261C19"/>
<path d="M149.717 124.605H136.081V135.275H149.717V124.605Z" fill="#261C19"/>
<path d="M149.717 161.798H136.081V173.581H149.717V161.798Z" fill="#261C19"/>
<path d="M149.717 198.991H136.081V211.887H149.717V198.991Z" fill="#261C19"/>
<path d="M149.717 236.184H136.081V250.203H149.717V236.184Z" fill="#261C19"/>
<path d="M149.717 273.378H136.081V288.51H149.717V273.378Z" fill="#261C19"/>
<path d="M149.717 310.571H136.081V326.816H149.717V310.571Z" fill="#261C19"/>
<path d="M149.717 347.763H136.081V365.122H149.717V347.763Z" fill="#261C19"/>
<path d="M149.717 384.967H136.081V403.438H149.717V384.967Z" fill="#261C19"/>
<path d="M149.717 422.16H136.081V441.744H149.717V422.16Z" fill="#261C19"/>
<path d="M149.717 460.416H136.081V480H149.717V460.416Z" fill="#261C19"/>
<path d="M136.3 0H122.664V3.21888H136.3V0Z" fill="#261C19"/>
<path d="M135.911 31.6978H122.275V39.028H135.911V31.6978Z" fill="#261C19"/>
<path d="M135.911 68.8909H122.275V77.3343H135.911V68.8909Z" fill="#261C19"/>
<path d="M135.911 106.084H122.275V115.64H135.911V106.084Z" fill="#261C19"/>
<path d="M135.911 143.277H122.275V153.946H135.911V143.277Z" fill="#261C19"/>
<path d="M135.911 180.47H122.275V192.253H135.911V180.47Z" fill="#261C19"/>
<path d="M135.911 217.663H122.275V230.559H135.911V217.663Z" fill="#261C19"/>
<path d="M135.911 254.856H122.275V268.875H135.911V254.856Z" fill="#261C19"/>
<path d="M135.911 292.059H122.275V307.191H135.911V292.059Z" fill="#261C19"/>
<path d="M135.911 329.252H122.275V345.497H135.911V329.252Z" fill="#261C19"/>
<path d="M135.911 366.445H122.275V383.803H135.911V366.445Z" fill="#261C19"/>
<path d="M135.911 403.638H122.275V422.11H135.911V403.638Z" fill="#261C19"/>
<path d="M135.911 440.831H122.275V460.416H135.911V440.831Z" fill="#261C19"/>
<path d="M122.494 13.0261H108.858V20.3563H122.494V13.0261Z" fill="#261C19"/>
<path d="M122.494 50.2192H108.858V58.6627H122.494V50.2192Z" fill="#261C19"/>
<path d="M122.494 87.4121H108.858V96.9686H122.494V87.4121Z" fill="#261C19"/>
<path d="M122.494 124.605H108.858V135.275H122.494V124.605Z" fill="#261C19"/>
<path d="M122.494 161.798H108.858V173.581H122.494V161.798Z" fill="#261C19"/>
<path d="M122.494 198.991H108.858V211.887H122.494V198.991Z" fill="#261C19"/>
<path d="M122.494 236.184H108.858V250.203H122.494V236.184Z" fill="#261C19"/>
<path d="M122.494 273.378H108.858V288.51H122.494V273.378Z" fill="#261C19"/>
<path d="M122.494 310.571H108.858V326.816H122.494V310.571Z" fill="#261C19"/>
<path d="M122.494 347.763H108.858V365.122H122.494V347.763Z" fill="#261C19"/>
<path d="M122.494 384.967H108.858V403.438H122.494V384.967Z" fill="#261C19"/>
<path d="M122.494 422.16H108.858V441.744H122.494V422.16Z" fill="#261C19"/>
<path d="M122.494 460.416H108.858V480H122.494V460.416Z" fill="#261C19"/>
<path d="M109.088 0H95.4521V3.21888H109.088V0Z" fill="#261C19"/>
<path d="M108.699 31.6978H95.0635V39.028H108.699V31.6978Z" fill="#261C19"/>
<path d="M108.699 68.8909H95.0635V77.3343H108.699V68.8909Z" fill="#261C19"/>
<path d="M108.699 106.084H95.0635V115.64H108.699V106.084Z" fill="#261C19"/>
<path d="M108.699 143.277H95.0635V153.946H108.699V143.277Z" fill="#261C19"/>
<path d="M108.699 180.47H95.0635V192.253H108.699V180.47Z" fill="#261C19"/>
<path d="M108.699 217.663H95.0635V230.559H108.699V217.663Z" fill="#261C19"/>
<path d="M108.699 254.856H95.0635V268.875H108.699V254.856Z" fill="#261C19"/>
<path d="M108.699 292.059H95.0635V307.191H108.699V292.059Z" fill="#261C19"/>
<path d="M108.699 329.252H95.0635V345.497H108.699V329.252Z" fill="#261C19"/>
<path d="M108.699 366.445H95.0635V383.803H108.699V366.445Z" fill="#261C19"/>
<path d="M108.699 403.638H95.0635V422.11H108.699V403.638Z" fill="#261C19"/>
<path d="M108.699 440.831H95.0635V460.416H108.699V440.831Z" fill="#261C19"/>
<path d="M95.2826 13.0261H81.6465V20.3563H95.2826V13.0261Z" fill="#261C19"/>
<path d="M95.2826 50.2192H81.6465V58.6627H95.2826V50.2192Z" fill="#261C19"/>
<path d="M95.2826 87.4121H81.6465V96.9686H95.2826V87.4121Z" fill="#261C19"/>
<path d="M95.2826 124.605H81.6465V135.275H95.2826V124.605Z" fill="#261C19"/>
<path d="M95.2826 161.798H81.6465V173.581H95.2826V161.798Z" fill="#261C19"/>
<path d="M95.2826 198.991H81.6465V211.887H95.2826V198.991Z" fill="#261C19"/>
<path d="M95.2826 236.184H81.6465V250.203H95.2826V236.184Z" fill="#261C19"/>
<path d="M95.2826 273.378H81.6465V288.51H95.2826V273.378Z" fill="#261C19"/>
<path d="M95.2826 310.571H81.6465V326.816H95.2826V310.571Z" fill="#261C19"/>
<path d="M95.2826 347.763H81.6465V365.122H95.2826V347.763Z" fill="#261C19"/>
<path d="M95.2826 384.967H81.6465V403.438H95.2826V384.967Z" fill="#261C19"/>
<path d="M95.2826 422.16H81.6465V441.744H95.2826V422.16Z" fill="#261C19"/>
<path d="M95.2826 460.416H81.6465V480H95.2826V460.416Z" fill="#261C19"/>
<path d="M81.8655 0H68.2295V3.21888H81.8655V0Z" fill="#261C19"/>
<path d="M81.4866 31.6978H67.8506V39.028H81.4866V31.6978Z" fill="#261C19"/>
<path d="M81.4866 68.8909H67.8506V77.3343H81.4866V68.8909Z" fill="#261C19"/>
<path d="M81.4866 106.084H67.8506V115.64H81.4866V106.084Z" fill="#261C19"/>
<path d="M81.4866 143.277H67.8506V153.946H81.4866V143.277Z" fill="#261C19"/>
<path d="M81.4866 180.47H67.8506V192.253H81.4866V180.47Z" fill="#261C19"/>
<path d="M81.4866 217.663H67.8506V230.559H81.4866V217.663Z" fill="#261C19"/>
<path d="M81.4866 254.856H67.8506V268.875H81.4866V254.856Z" fill="#261C19"/>
<path d="M81.4866 292.059H67.8506V307.191H81.4866V292.059Z" fill="#261C19"/>
<path d="M81.4866 329.252H67.8506V345.497H81.4866V329.252Z" fill="#261C19"/>
<path d="M81.4866 366.445H67.8506V383.803H81.4866V366.445Z" fill="#261C19"/>
<path d="M81.4866 403.638H67.8506V422.11H81.4866V403.638Z" fill="#261C19"/>
<path d="M81.4866 440.831H67.8506V460.416H81.4866V440.831Z" fill="#261C19"/>
<path d="M68.0707 13.0261H54.4346V20.3563H68.0707V13.0261Z" fill="#261C19"/>
<path d="M68.0707 50.2192H54.4346V58.6627H68.0707V50.2192Z" fill="#261C19"/>
<path d="M68.0707 87.4121H54.4346V96.9686H68.0707V87.4121Z" fill="#261C19"/>
<path d="M68.0707 124.605H54.4346V135.275H68.0707V124.605Z" fill="#261C19"/>
<path d="M68.0707 161.798H54.4346V173.581H68.0707V161.798Z" fill="#261C19"/>
<path d="M68.0707 198.991H54.4346V211.887H68.0707V198.991Z" fill="#261C19"/>
<path d="M68.0707 236.184H54.4346V250.203H68.0707V236.184Z" fill="#261C19"/>
<path d="M68.0707 273.378H54.4346V288.51H68.0707V273.378Z" fill="#261C19"/>
<path d="M68.0707 310.571H54.4346V326.816H68.0707V310.571Z" fill="#261C19"/>
<path d="M68.0707 347.763H54.4346V365.122H68.0707V347.763Z" fill="#261C19"/>
<path d="M68.0707 384.967H54.4346V403.438H68.0707V384.967Z" fill="#261C19"/>
<path d="M68.0707 422.16H54.4346V441.744H68.0707V422.16Z" fill="#261C19"/>
<path d="M68.0707 460.416H54.4346V480H68.0707V460.416Z" fill="#261C19"/>
<path d="M54.6535 0H41.0176V3.21888H54.6535V0Z" fill="#261C19"/>
<path d="M54.265 31.6978H40.6289V39.028H54.265V31.6978Z" fill="#261C19"/>
<path d="M54.265 68.8909H40.6289V77.3343H54.265V68.8909Z" fill="#261C19"/>
<path d="M54.265 106.084H40.6289V115.64H54.265V106.084Z" fill="#261C19"/>
<path d="M54.265 143.277H40.6289V153.946H54.265V143.277Z" fill="#261C19"/>
<path d="M54.265 180.47H40.6289V192.253H54.265V180.47Z" fill="#261C19"/>
<path d="M54.265 217.663H40.6289V230.559H54.265V217.663Z" fill="#261C19"/>
<path d="M54.265 254.856H40.6289V268.875H54.265V254.856Z" fill="#261C19"/>
<path d="M54.265 292.059H40.6289V307.191H54.265V292.059Z" fill="#261C19"/>
<path d="M54.265 329.252H40.6289V345.497H54.265V329.252Z" fill="#261C19"/>
<path d="M54.265 366.445H40.6289V383.803H54.265V366.445Z" fill="#261C19"/>
<path d="M54.265 403.638H40.6289V422.11H54.265V403.638Z" fill="#261C19"/>
<path d="M54.265 440.831H40.6289V460.416H54.265V440.831Z" fill="#261C19"/>
<path d="M27.4416 0H13.8057V3.21888H27.4416V0Z" fill="#261C19"/>
<path d="M27.0531 31.6978H13.417V39.028H27.0531V31.6978Z" fill="#261C19"/>
<path d="M27.0531 68.8909H13.417V77.3343H27.0531V68.8909Z" fill="#261C19"/>
<path d="M27.0531 106.084H13.417V115.64H27.0531V106.084Z" fill="#261C19"/>
<path d="M27.0531 143.277H13.417V153.946H27.0531V143.277Z" fill="#261C19"/>
<path d="M27.0531 180.47H13.417V192.253H27.0531V180.47Z" fill="#261C19"/>
<path d="M27.0531 217.663H13.417V230.559H27.0531V217.663Z" fill="#261C19"/>
<path d="M27.0531 254.856H13.417V268.875H27.0531V254.856Z" fill="#261C19"/>
<path d="M27.0531 292.059H13.417V307.191H27.0531V292.059Z" fill="#261C19"/>
<path d="M27.0531 329.252H13.417V345.497H27.0531V329.252Z" fill="#261C19"/>
<path d="M27.0531 366.445H13.417V383.803H27.0531V366.445Z" fill="#261C19"/>
<path d="M27.0531 403.638H13.417V422.11H27.0531V403.638Z" fill="#261C19"/>
<path d="M27.0531 440.831H13.417V460.416H27.0531V440.831Z" fill="#261C19"/>
<path d="M40.8578 13.0261H27.2217V20.3563H40.8578V13.0261Z" fill="#261C19"/>
<path d="M40.8578 50.2192H27.2217V58.6627H40.8578V50.2192Z" fill="#261C19"/>
<path d="M40.8578 87.4121H27.2217V96.9686H40.8578V87.4121Z" fill="#261C19"/>
<path d="M40.8578 124.605H27.2217V135.275H40.8578V124.605Z" fill="#261C19"/>
<path d="M40.8578 161.798H27.2217V173.581H40.8578V161.798Z" fill="#261C19"/>
<path d="M40.8578 198.991H27.2217V211.887H40.8578V198.991Z" fill="#261C19"/>
<path d="M40.8578 236.184H27.2217V250.203H40.8578V236.184Z" fill="#261C19"/>
<path d="M40.8578 273.378H27.2217V288.51H40.8578V273.378Z" fill="#261C19"/>
<path d="M40.8578 310.571H27.2217V326.816H40.8578V310.571Z" fill="#261C19"/>
<path d="M40.8578 347.763H27.2217V365.122H40.8578V347.763Z" fill="#261C19"/>
<path d="M40.8578 384.967H27.2217V403.438H40.8578V384.967Z" fill="#261C19"/>
<path d="M40.8578 422.16H27.2217V441.744H40.8578V422.16Z" fill="#261C19"/>
<path d="M40.8578 460.416H27.2217V480H40.8578V460.416Z" fill="#261C19"/>
<path d="M13.6361 13.0261H0V20.3563H13.6361V13.0261Z" fill="#261C19"/>
<path d="M13.6361 50.2192H0V58.6627H13.6361V50.2192Z" fill="#261C19"/>
<path d="M13.6361 87.4121H0V96.9686H13.6361V87.4121Z" fill="#261C19"/>
<path d="M13.6361 124.605H0V135.275H13.6361V124.605Z" fill="#261C19"/>
<path d="M13.6361 161.798H0V173.581H13.6361V161.798Z" fill="#261C19"/>
<path d="M13.6361 198.991H0V211.887H13.6361V198.991Z" fill="#261C19"/>
<path d="M13.6361 236.184H0V250.203H13.6361V236.184Z" fill="#261C19"/>
<path d="M13.6361 273.378H0V288.51H13.6361V273.378Z" fill="#261C19"/>
<path d="M13.6361 310.571H0V326.816H13.6361V310.571Z" fill="#261C19"/>
<path d="M13.6361 347.763H0V365.122H13.6361V347.763Z" fill="#261C19"/>
<path d="M13.6361 384.967H0V403.438H13.6361V384.967Z" fill="#261C19"/>
<path d="M13.6361 422.16H0V441.744H13.6361V422.16Z" fill="#261C19"/>
<path d="M13.6361 460.416H0V480H13.6361V460.416Z" fill="#261C19"/>
<path d="M313 13.0261H299.364V20.3563H313V13.0261Z" fill="#261C19"/>
<path d="M313 50.2192H299.364V58.6627H313V50.2192Z" fill="#261C19"/>
<path d="M313 87.4121H299.364V96.9686H313V87.4121Z" fill="#261C19"/>
<path d="M313 124.605H299.364V135.275H313V124.605Z" fill="#261C19"/>
<path d="M313 161.798H299.364V173.581H313V161.798Z" fill="#261C19"/>
<path d="M313 198.991H299.364V211.887H313V198.991Z" fill="#261C19"/>
<path d="M313 236.184H299.364V250.203H313V236.184Z" fill="#261C19"/>
<path d="M313 273.378H299.364V288.51H313V273.378Z" fill="#261C19"/>
<path d="M313 310.571H299.364V326.816H313V310.571Z" fill="#261C19"/>
<path d="M313 347.763H299.364V365.122H313V347.763Z" fill="#261C19"/>
<path d="M313 384.967H299.364V403.438H313V384.967Z" fill="#261C19"/>
<path d="M313 422.16H299.364V441.744H313V422.16Z" fill="#261C19"/>
<path d="M313 460.416H299.364V480H313V460.416Z" fill="#261C19"/>
</svg>
