<svg width="1920" height="367" viewBox="0 0 1920 367" fill="none" xmlns="http://www.w3.org/2000/svg">
<path d="M1920 0H0V367H1920V0Z" fill="#261C19"/>
<path d="M1876.62 319.33H31.7471V324.02H1876.62V319.33Z" fill="#F5ECD3"/>
<path d="M736.635 163.69H31.7471V168.38H736.635V163.69Z" fill="#F5ECD3"/>
<path d="M331.594 151.26L331.694 150.53C332.22 146.683 332.46 142.803 332.414 138.92V122.64C332.482 119.326 332.281 116.012 331.814 112.73L331.684 111.9L332.524 112C335.706 112.353 338.906 112.514 342.107 112.48H360.461C365.692 112.48 366.932 112.48 369.053 112.13L369.873 111.99L369.803 112.82C369.521 115.925 369.401 119.043 369.443 122.16V139.52C369.448 142.679 369.645 145.835 370.033 148.97L370.123 149.69H361.271V143.69H340.816V151.29L331.594 151.26ZM361.271 136.07V119.87H340.696V136.07H361.271ZM403.82 146.88C393.818 146.88 387.667 146.42 383.816 145.41C379.665 144.07 378.275 141.73 378.275 136.11V95.6401C378.381 91.8003 378.18 87.958 377.675 84.1501L377.555 83.3401L378.375 83.4201C382.244 83.7927 386.131 83.9529 390.017 83.9001H419.774V54.2001H387.637C383.959 54.1059 380.28 54.3032 376.634 54.7901L375.894 54.9001V44.9801L376.624 45.0901C380.27 45.5862 383.947 45.8235 387.627 45.8001H416.843C420.654 45.8556 424.464 45.6954 428.256 45.3201L429.016 45.2401L428.956 46.0101C428.726 49.0101 428.596 51.0101 428.596 57.7801V80.6901C428.538 84.4096 428.699 88.1293 429.076 91.8301L429.166 92.6101L428.376 92.5401C424.463 92.1704 420.533 92.0102 416.603 92.0601H387.547V134.46C387.547 136.57 387.947 137.04 390.197 137.57C392.138 138.03 397.109 138.28 404.2 138.28C416.483 138.28 420.444 137.72 422.595 135.68C424.285 133.88 425.445 127.44 426.015 116.58L426.075 115.58L426.986 116.11C429.456 117.641 432.12 118.835 434.907 119.66L435.447 119.8L435.387 120.35C434.007 132.51 432.477 138.52 429.946 141.78C426.906 145.75 421.044 146.92 403.82 146.92V146.88ZM331.084 94.8801L331.814 94.9801C334.664 95.3695 337.541 95.53 340.416 95.4601H360.421C363.256 95.5359 366.094 95.3753 368.903 94.9801L369.643 94.8701V103.81L368.933 103.73C366.11 103.372 363.266 103.211 360.421 103.25H340.416C337.541 103.188 334.665 103.348 331.814 103.73L331.084 103.83V94.8801ZM331.084 78.3601L331.814 78.4601C334.664 78.8495 337.541 79.01 340.416 78.9401H360.421C363.256 79.0178 366.094 78.8573 368.903 78.4601L369.643 78.3501V87.3001L368.923 87.2101C366.104 86.8467 363.262 86.6863 360.421 86.7301H340.416C337.541 86.6673 334.665 86.8278 331.814 87.2101L331.084 87.3101V78.3601ZM373.294 70.3601C370.404 69.9605 367.487 69.8 364.572 69.8801H336.675C333.474 69.8273 330.273 69.9877 327.093 70.3601L326.373 70.4501V61.0701L327.123 61.2001C330.28 61.7079 333.479 61.9088 336.675 61.8001H363.681C366.874 61.9266 370.071 61.7289 373.224 61.2101L373.984 61.0601V70.4201L373.294 70.3601ZM368.472 53.3601C365.457 52.9881 362.419 52.8278 359.38 52.8801H340.376C337.338 52.8357 334.301 52.9961 331.284 53.3601L330.564 53.4501V44.3701L331.304 44.4901C334.302 44.9834 337.34 45.1844 340.376 45.0901H359.38C362.417 45.1758 365.454 44.9749 368.452 44.4901L369.193 44.3801V53.4601L368.472 53.3601Z" fill="#F5ECD3"/>
<path d="M480.967 152.07L481.067 151.34C481.619 146.973 481.86 142.571 481.788 138.17V108.87C481.788 104.61 481.888 101.19 482.058 96.93C478.823 101.074 475.03 104.749 470.785 107.85L470.175 108.32L469.825 107.64C468.718 105.278 467.205 103.128 465.354 101.29L464.804 100.74L465.444 100.3C474.298 94.1968 481.886 86.4373 487.789 77.45C489.96 74.2695 491.725 70.8293 493.04 67.21L493.32 66.47L501.512 71.69L501.192 72.23C497.989 77.5082 494.517 82.6182 490.79 87.54V137.97C490.656 142.449 490.897 146.931 491.51 151.37L491.62 152.11L480.967 152.07ZM545.702 150.38C541.571 150.38 537.83 150.24 533.579 149.9H533.049L532.989 149.37C532.827 146.647 532.191 143.974 531.109 141.47L530.658 140.4L531.799 140.59C536.423 141.429 541.104 141.924 545.802 142.07C550.603 142.07 550.603 141.5 550.603 139.82V116.67H507.593C503.916 116.602 500.239 116.799 496.591 117.26L495.871 117.36V108.07L496.601 108.19C500.244 108.715 503.923 108.952 507.603 108.9H550.613V100.3H508.994C505.317 100.226 501.639 100.423 497.991 100.89L497.261 101V91.79L498.001 91.91C501.686 92.4162 505.406 92.6136 509.124 92.5H562.746C566.466 92.5735 570.187 92.3361 573.868 91.79L574.618 91.66V101L573.888 100.89C570.239 100.433 566.563 100.236 562.886 100.3H559.415V108.9H563.366C567.046 108.952 570.725 108.715 574.368 108.19L575.108 108.07V117.4L574.378 117.29C570.73 116.822 567.053 116.625 563.376 116.7H559.425V141.07C559.385 148.42 556.444 150.42 545.702 150.42V150.38ZM526.207 141.38C522.035 134.472 516.861 128.221 510.854 122.83L510.294 122.31L517.125 117.05L517.526 117.43C523.403 122.848 528.761 128.804 533.529 135.22L533.909 135.7L526.608 142.01L526.207 141.38ZM508.353 84.8C508.604 81.7 508.714 79.33 508.714 73.52V57.91C508.714 52.12 508.604 50.04 508.353 46.99L508.293 46.21L509.074 46.3C512.937 46.7037 516.822 46.864 520.706 46.78H554.804C558.648 46.8694 562.493 46.7091 566.316 46.3L567.137 46.19L567.027 47.02C566.633 50.7162 566.476 54.4338 566.557 58.15V73.7C566.476 77.4195 566.633 81.1405 567.027 84.84L567.137 85.65L566.316 85.55C562.612 85.1713 558.887 85.0143 555.164 85.08H520.346C516.586 84.9939 512.824 85.1509 509.084 85.55L508.293 85.66L508.353 84.8ZM557.865 77.7V69.34H517.245V77.7H557.865ZM557.865 61.91V54.15H517.245V61.91H557.865ZM472.225 74.35C470.913 72.2362 469.24 70.3681 467.284 68.83L466.604 68.26L467.364 67.79C478.807 60.7 487.829 51.17 492.11 41.67L492.42 40.98L500.372 46.23L499.972 46.78C493.56 55.47 493.56 55.47 490.77 58.78C485.642 64.8226 479.709 70.1322 473.136 74.56L472.585 74.94L472.225 74.35Z" fill="#F5ECD3"/>
<path d="M612.567 129.71V116.49H625.82V129.71H612.567ZM612.567 76.7099V63.4399H625.82V76.6599L612.567 76.7099Z" fill="#F5ECD3"/>
<path d="M121.457 309.92V305.22H69.6952V309.92H60.1331L60.2331 309.2C60.714 305.791 60.9546 302.353 60.9533 298.91V282.28C60.9533 280.06 60.8633 278.28 60.7532 276.16C55.2911 278.002 49.7395 279.567 44.1195 280.85L43.5594 280.99L43.3593 280.44C42.5285 277.905 41.2139 275.555 39.4885 273.52L38.7783 272.67L39.8686 272.48C58.6928 269.17 73.276 263.96 88.4294 255.07C83.0825 251.302 78.1445 246.985 73.6961 242.19C67.0547 248.43 62.0135 252.01 50.851 258.47L50.3309 258.78L50.0008 258.27C48.7016 256.075 46.9817 254.158 44.9397 252.63L44.1495 251.99L45.0697 251.55C55.4721 246.55 61.4034 242.79 68.585 236.46C74.0762 231.58 80.0576 224.3 82.198 219.9L82.3381 219.62H53.0615V235.89H43.9595L44.0495 235.17C44.4106 232.398 44.571 229.604 44.5296 226.81V220.07C44.5723 217.319 44.4119 214.568 44.0495 211.84L43.9395 211.02L44.7597 211.11C48.9887 211.557 53.2402 211.758 57.4925 211.71H89.6997V209.22C89.6792 206.343 89.4418 203.471 88.9896 200.63L88.8795 199.9H99.702L99.5419 200.66C99.0113 203.483 98.7334 206.348 98.7117 209.22V211.71H131.889C136.381 211.775 140.874 211.574 145.342 211.11L146.162 211.03L146.042 211.84C145.672 214.567 145.512 217.318 145.562 220.07V226.94C145.51 229.731 145.67 232.523 146.042 235.29L146.152 236.03H136.91V219.63H83.0482L91.7502 222.7L91.03 223.42L90.5199 223.91C90.1439 224.247 89.8083 224.626 89.5197 225.04C89.4197 225.18 89.2596 225.38 89.0496 225.63C88.8395 225.88 88.5295 226.26 88.1994 226.71C87.6593 227.36 87.5792 227.46 86.1989 229.07H111.105C114.748 229.139 118.393 228.982 122.017 228.6H122.317L127.478 233.6L127.018 234.06C126.178 234.89 125.938 235.13 124.868 236.33C118.219 243.153 111.024 249.421 103.353 255.07C117.596 263.07 131.359 267.71 150.693 270.9L151.624 271.06L151.143 271.86C149.552 274.303 148.351 276.978 147.583 279.79L147.413 280.39L146.813 280.23C139.161 278.32 136.5 277.6 130.539 275.77V276.46C130.449 278.29 130.369 279.88 130.369 282.27V298.9C130.343 302.34 130.584 305.777 131.089 309.18L131.199 309.91L121.457 309.92ZM121.457 297.31V280.38H69.6952V297.31H121.457ZM121.357 272.59C112.42 269.418 103.876 265.234 95.8911 260.12C87.9173 265.084 79.479 269.261 70.6955 272.59H121.357ZM79.2774 236.71C84.2478 241.953 89.825 246.585 95.8911 250.51C101.892 246.41 105.543 243.45 112.985 236.51H79.4874L79.2774 236.71Z" fill="#F5ECD3"/>
<path d="M187.441 308.4C185.528 306.333 183.337 304.543 180.93 303.08L180.38 302.74L180.72 302.19C185.621 294.43 187.662 289.63 189.452 281.65C191.632 271.97 192.703 255.25 192.703 230.55C192.703 221.83 192.573 217.68 192.223 214.1L192.143 213.3L192.933 213.4C196.916 213.862 200.926 214.059 204.935 213.99H236.052V209.57C236.094 206.418 235.853 203.269 235.332 200.16L235.202 199.4H246.065L245.895 200.19C245.292 203.238 245.054 206.346 245.184 209.45V213.99H277.502C281.847 214.043 286.191 213.805 290.505 213.28L291.225 213.18V223.07L290.475 222.94C286.924 222.33 283.623 222.23 277.542 222.23H201.825C201.695 255.23 201.065 267.79 198.924 280.41C196.974 291.7 194.233 298.99 188.452 308.26L188.012 308.96L187.441 308.4ZM291.655 305.7C287.29 305.068 282.882 304.787 278.472 304.86H213.867C209.535 304.832 205.207 305.112 200.914 305.7L200.184 305.81V295.64L200.924 295.75C205.219 296.256 209.545 296.453 213.867 296.34H239.433V261.07H220.429C216.628 260.963 212.825 261.164 209.056 261.67L208.316 261.78V251.87L209.056 251.98C212.824 252.493 216.628 252.693 220.429 252.58H239.433V238.15C239.485 234.227 239.245 230.307 238.713 226.42L238.603 225.69H249.535L249.395 226.45C248.815 230.294 248.594 234.184 248.735 238.07V252.62H273.641C277.527 252.665 281.412 252.424 285.263 251.9L285.994 251.8V261.95L285.273 261.85C281.378 261.335 277.45 261.094 273.521 261.13H248.735V296.38H278.402C282.854 296.432 287.304 296.191 291.725 295.66L292.445 295.57V305.85L291.655 305.7Z" fill="#F5ECD3"/>
<path d="M342.806 309.8L342.926 309.06C343.488 304.978 343.729 300.859 343.646 296.74V261.63C339.79 266.001 335.578 270.045 331.054 273.72L330.483 274.2L330.093 273.57C328.636 271.211 326.717 269.17 324.452 267.57L323.752 267.07L324.412 266.56C331.484 261.354 337.922 255.34 343.596 248.64C343.576 246.162 343.379 243.689 343.006 241.24L342.896 240.51H349.948C353.432 235.714 356.545 230.659 359.26 225.39H341.256C336.844 225.345 332.433 225.545 328.043 225.99L327.333 226.07V216.17L328.073 216.29C332.442 216.869 336.85 217.109 341.256 217.01H363.261C366.522 209.63 368.372 204.01 369.082 199.47L369.182 198.8L379.624 200.92L379.214 201.68C378.363 203.319 377.647 205.024 377.074 206.78C376.574 207.93 375.874 209.63 375.143 211.38C374.273 213.46 373.383 215.6 372.763 217.01H420.314C424.677 217.107 429.041 216.867 433.366 216.29L434.117 216.17V226.07L433.407 225.99C429.056 225.553 424.686 225.353 420.314 225.39H368.822C364.189 234.404 358.777 242.997 352.648 251.07V296.79C352.595 300.912 352.836 305.032 353.369 309.12L353.479 309.85L342.806 309.8ZM355.959 295.31L356.669 295.38C360.657 295.792 364.663 295.992 368.672 295.98H388.566V263.14H373.023C369.176 263.077 365.329 263.237 361.5 263.62L360.79 263.7V254.15L361.53 254.27C365.332 254.856 369.178 255.097 373.023 254.99H388.566V245.38C388.68 241.144 388.44 236.906 387.846 232.71L387.726 231.96H398.669L398.529 232.72C398.019 235.53 397.819 239.12 397.819 245.5V254.99H416.133C419.937 255.086 423.743 254.845 427.505 254.27L428.245 254.15V263.7L427.535 263.62C423.747 263.239 419.94 263.078 416.133 263.14H397.819V295.98H421.204C427.475 295.98 430.356 295.84 433.056 295.39L433.797 295.26V305.07L433.096 305C429.112 304.532 425.105 304.292 421.094 304.28H368.682C364.67 304.238 360.659 304.475 356.679 304.99L355.949 305.09L355.959 295.31Z" fill="#F5ECD3"/>
<path d="M542.801 306.91C518.726 306.91 512.214 305.43 512.214 295.06V251.68L510.384 252.26C503.733 254.52 503.242 254.75 500.522 256.05L499.822 256.39L499.552 255.67L497.191 246.75L497.931 246.67C501.466 246.281 504.944 245.483 508.294 244.29L512.214 242.99V224.52C512.258 220.438 512.017 216.358 511.494 212.31L511.394 211.58H521.917L521.817 212.31C521.304 216.239 521.064 220.198 521.096 224.16V240.16L537.1 234.8V212.95C537.132 209.227 536.891 205.507 536.38 201.82L536.28 201.09H546.682L546.582 201.82C546.074 205.548 545.833 209.307 545.862 213.07V231.95L563.616 226.07C566.846 225.02 570.013 223.781 573.098 222.36L574.038 221.94V222.94C573.538 235.48 573.038 243.94 572.108 255.28C571.228 266.38 569.587 271.46 566.237 273.39C563.896 274.68 561.455 275.16 557.234 275.16C556.124 275.16 554.624 275.04 551.863 274.8H551.343L551.283 274.28C551.046 271.729 550.45 269.224 549.513 266.84L549.093 265.73L550.253 265.98C553.259 266.668 556.331 267.026 559.415 267.05C561.775 267.05 562.186 266.81 562.766 263.49C563.616 259.01 564.196 249.9 564.666 234L545.922 240.42V273.24C545.877 277.082 546.118 280.923 546.642 284.73L546.742 285.46H536.27L536.38 284.73C536.912 280.867 537.153 276.969 537.1 273.07V243.38L521.096 248.74V293.49C521.096 296.1 521.657 296.8 524.237 297.49C526.818 298.18 531.989 298.55 543.521 298.55C560.215 298.55 565.266 297.86 567.027 295.33C568.027 293.91 569.297 290.01 569.447 279.41V278.29L570.447 278.87C572.746 280.362 575.31 281.401 577.999 281.93L578.519 282.06V282.6C576.989 305.32 574.658 306.91 542.801 306.91ZM466.534 286.34L467.224 286.22C471.355 285.54 474.326 284.55 482.868 281V240.84H479.037C475.687 240.705 472.332 240.943 469.035 241.55L468.275 241.7V231.93L469.055 232.09C471.865 232.7 474.306 232.8 479.057 232.8H482.888V215.36C482.949 210.915 482.709 206.472 482.168 202.06L482.068 201.33H492.46L492.37 202.05C491.827 206.505 491.587 210.992 491.65 215.48V232.8H494.39C499.612 232.8 501.752 232.67 503.923 232.21L504.693 232.05V241.4L503.983 241.32C500.759 240.947 497.515 240.786 494.27 240.84H491.65V277.07C496.231 274.94 498.471 273.79 504.343 270.52L505.203 270.05L506.063 278.79L505.693 279C493.76 285.63 488.019 288.23 474.466 293.74C472.946 294.28 471.355 295.01 470.075 295.59L468.965 296.1L466.534 286.34Z" fill="#F5ECD3"/>
<path d="M616.578 311.01L616.678 310.28C617.204 306.433 617.444 302.552 617.398 298.67V282.4C617.466 279.086 617.265 275.772 616.798 272.49L616.668 271.66L617.508 271.75C620.689 272.103 623.889 272.263 627.09 272.23H645.454C650.675 272.23 651.916 272.23 654.036 271.88L654.856 271.74L654.786 272.57C654.504 275.675 654.384 278.792 654.426 281.91V299.28C654.429 302.436 654.629 305.589 655.026 308.72L655.106 309.44H646.254V303.44H625.82V311.04L616.578 311.01ZM646.254 295.86V279.66H625.68V295.86H646.254ZM688.834 306.67C678.832 306.67 672.68 306.22 668.829 305.2C664.678 303.86 663.288 301.52 663.288 295.9V255.39C663.395 251.55 663.194 247.708 662.688 243.9L662.568 243.09L663.388 243.18C667.258 243.543 671.144 243.7 675.031 243.65H704.707V213.95H672.62C668.942 213.853 665.263 214.054 661.618 214.55L660.878 214.66V204.73L661.608 204.84C665.253 205.341 668.93 205.578 672.61 205.55H701.837C705.643 205.603 709.45 205.446 713.239 205.08L713.999 205L713.939 205.76C713.709 208.76 713.579 210.76 713.579 217.53V240.44C713.522 244.159 713.682 247.879 714.059 251.58L714.149 252.36L713.359 252.29C709.446 251.92 705.517 251.76 701.587 251.81H672.58V294.21C672.58 296.32 672.97 296.79 675.221 297.33C677.161 297.78 682.132 298.03 689.224 298.03C701.507 298.03 705.468 297.47 707.618 295.43C709.308 293.63 710.469 287.2 711.039 276.33L711.099 275.28L712.009 275.82C714.48 277.348 717.144 278.539 719.931 279.36L720.471 279.5L720.411 280.06C719.031 292.22 717.5 298.22 714.97 301.48C711.889 305.5 706.028 306.67 688.834 306.67ZM616.098 254.67L616.828 254.77C619.678 255.159 622.554 255.32 625.43 255.25H645.434C648.266 255.325 651.1 255.165 653.906 254.77L654.646 254.66V263.6L653.936 263.52C651.116 263.167 648.276 263.007 645.434 263.04H625.43C622.554 262.983 619.679 263.143 616.828 263.52L616.098 263.62V254.67ZM616.098 238.15L616.828 238.25C619.678 238.639 622.554 238.8 625.43 238.73H645.434C648.266 238.804 651.1 238.647 653.906 238.26L654.646 238.14V247.07L653.926 246.98C651.111 246.616 648.273 246.456 645.434 246.5H625.43C622.554 246.436 619.678 246.597 616.828 246.98L616.098 247.08V238.15ZM658.307 230.15C655.417 229.755 652.501 229.595 649.585 229.67H621.659C618.458 229.617 615.256 229.777 612.077 230.15L611.356 230.24V220.87L612.107 221C615.265 221.498 618.463 221.695 621.659 221.59H648.665C651.857 221.716 655.054 221.519 658.207 221L658.967 220.85V230.21L658.307 230.15ZM653.486 213.15C650.47 212.778 647.432 212.617 644.394 212.67H625.39C622.352 212.625 619.314 212.786 616.298 213.15L615.577 213.24V204.07L616.318 204.2C619.316 204.684 622.354 204.882 625.39 204.79H644.394C647.43 204.873 650.467 204.676 653.466 204.2L654.216 204.08V213.16L653.486 213.15Z" fill="#F5ECD3"/>
<path d="M765.472 310.27L765.572 309.54C766.14 304.688 766.38 299.804 766.292 294.92V214.25C766.43 209.571 766.189 204.889 765.572 200.25L765.462 199.52H775.854L775.734 200.26C775.124 204.15 775.024 207.31 775.024 214.26V295.07C774.928 299.914 775.165 304.759 775.734 309.57L775.834 310.3L765.472 310.27ZM821.274 308.22C806.991 308.22 803.12 307.22 803.12 299.98V288.77C803.146 285.493 802.946 282.219 802.52 278.97L802.41 278.24H812.412L812.262 279C811.754 282.19 811.557 285.422 811.672 288.65V297.93C811.672 299.51 811.882 299.79 813.322 300.07C816.609 300.444 819.917 300.601 823.225 300.54C830.056 300.54 832.937 300.11 834.227 298.9C834.847 298.35 835.587 296.25 835.587 289.37V288.37L836.488 288.79C838.7 289.849 841.061 290.564 843.489 290.91L844.089 291.01L844.029 291.6C843.029 301.36 842.459 304.06 839.638 305.94C836.978 307.52 831.336 308.22 821.274 308.22ZM778.665 302.45L779.105 301.88C785.506 293.55 787.947 288.63 789.977 279.94L790.137 279.23L798.139 282.23L797.979 282.8C795.715 291.366 791.827 299.419 786.526 306.52L786.186 306.99L778.665 302.45ZM855.582 305.66C850.971 295.16 848.21 290.53 842.149 283.14L841.659 282.54L848.87 278.67L849.211 279.08C854.823 285.718 859.557 293.052 863.294 300.9L863.554 301.41L855.872 306.35L855.582 305.66ZM827.526 292.89C822.755 286.67 819.284 283.13 814.243 279.39L813.542 278.87L819.674 274.46H803.16C799.07 274.387 794.979 274.547 790.907 274.94L790.127 275.02L790.197 274.24C790.591 270.213 790.755 266.166 790.687 262.12V250.42C790.755 246.903 790.595 243.386 790.207 239.89L790.107 239.09L790.907 239.18C794.815 239.58 798.743 239.74 802.67 239.66H840.959C844.886 239.737 848.814 239.577 852.721 239.18L853.531 239.09L853.421 239.9C853.027 243.392 852.866 246.906 852.941 250.42V262.12C852.865 266.166 853.025 270.213 853.421 274.24L853.501 275.02L852.721 274.94C848.65 274.546 844.559 274.386 840.469 274.46H819.974L820.204 274.63C825.237 278.34 829.822 282.622 833.867 287.39L834.277 287.86L827.976 293.44L827.526 292.89ZM844.659 267.27V260.47H798.969V267.27H844.659ZM844.659 253.4V246.85H798.969V253.4H844.659ZM750.278 254.87L750.518 254.28C753.579 246.76 755.299 236.77 755.78 223.76V222.94L763.351 225.11V225.63C762.261 241.17 761.161 247.7 758.01 257.38L757.79 258.04L750.278 254.87ZM780.545 246.65C779.345 237.89 778.265 233.49 775.754 227.03L775.534 226.47L781.775 223.47L782.015 224.12C783.31 227.391 784.429 230.729 785.366 234.12V225.27L786.116 225.39C789.842 225.886 793.602 226.083 797.359 225.98H804.911C803.62 222.375 802.097 218.857 800.35 215.45C796.433 215.391 792.516 215.552 788.617 215.93L787.907 216V207.55L788.637 207.66C792.57 208.167 796.536 208.367 800.5 208.26H817.503V207.69C817.521 205.061 817.32 202.435 816.903 199.84L816.783 199.09H827.016L826.855 199.86C826.382 202.442 826.184 205.066 826.265 207.69V208.26H844.269C848.28 208.37 852.293 208.169 856.272 207.66L857.002 207.55V216.07L856.292 216C852.243 215.61 848.176 215.45 844.109 215.52C842.664 219.131 840.994 222.648 839.108 226.05H850.371C854.457 226.174 858.548 225.976 862.603 225.46L863.334 225.35V234.42L862.603 234.32C858.547 233.816 854.458 233.615 850.371 233.72H797.479C793.675 233.659 789.871 233.819 786.086 234.2L785.396 234.28C786.136 237.07 786.746 239.95 787.487 243.81L787.577 244.3L780.665 247.54L780.545 246.65ZM830.186 226.07C832.054 222.675 833.688 219.157 835.077 215.54H809.142C810.806 218.96 812.266 222.476 813.513 226.07H830.186Z" fill="#F5ECD3"/>
<path d="M1058.55 310.33L1058.65 309.6C1059.17 305.512 1059.41 301.392 1059.37 297.27V259.62C1056.17 259.88 1050.51 260.31 1046.88 260.53C1044.6 260.559 1042.31 260.76 1040.05 261.13L1039.41 261.23L1038.12 251.95L1038.93 252.02C1040.96 252.218 1043 252.298 1045.03 252.26H1048.71C1051.63 248.82 1052.53 247.65 1056.51 242.47L1057.01 241.82C1050.8 234.39 1048.19 231.82 1039.17 223.97L1038.74 223.59L1043.45 216.59L1044 217.07C1046.23 219.07 1047.39 220.12 1048.63 221.28L1049.26 221.87C1055.55 212.46 1059.89 204.43 1061.2 199.78L1061.4 199.06L1070.27 203.06L1069.83 203.69C1068.77 205.22 1068.33 205.98 1064.67 212.44C1061.67 217.605 1058.37 222.597 1054.81 227.39C1057.74 230.44 1059.47 232.47 1061.81 235.21C1067.81 227.01 1072.94 218.81 1074.9 214.21L1075.18 213.54L1083.55 218.36L1082.84 219.36C1082.01 220.5 1081.29 221.49 1079.84 223.64C1073.19 233.47 1066.03 242.95 1058.4 252.04C1064.96 251.9 1069.8 251.49 1076.78 250.72C1075.31 247.48 1074.54 245.86 1072.34 241.8L1072 241.16L1078.74 238.53L1079.02 239.01C1083.23 246.47 1086.76 254.291 1089.57 262.38L1089.77 262.96L1082.42 265.96C1082.42 265.96 1081.52 263.28 1081.27 262.48C1080.66 260.62 1080.27 259.48 1079.61 257.72C1077.7 257.95 1075.67 258.17 1073.33 258.39C1069.76 258.72 1069.39 258.75 1067.87 258.93V297.27C1067.82 301.392 1068.06 305.512 1068.59 309.6L1068.69 310.33H1058.55ZM1114.35 307.8C1104.59 307.8 1099.12 307.09 1096.05 305.43C1093.66 304.11 1092.69 301.71 1092.69 297.15V255.31C1092.81 251.473 1092.61 247.634 1092.09 243.83L1091.97 243.02L1092.78 243.1C1096.7 243.464 1100.63 243.624 1104.57 243.58H1131.69V215.2H1100.22C1096.37 215.173 1092.53 215.374 1088.7 215.8L1087.98 215.88V205.99L1088.71 206.09C1092.53 206.595 1096.37 206.832 1100.22 206.8H1128.93C1132.74 206.853 1136.55 206.696 1140.35 206.33L1141.11 206.25L1141.05 207.01C1140.83 209.92 1140.69 212.17 1140.69 218.78V240.36C1140.64 244.083 1140.8 247.805 1141.17 251.51L1141.25 252.3L1140.46 252.21C1136.59 251.832 1132.7 251.672 1128.81 251.73H1101.69V295.34C1101.69 297.45 1102.28 297.99 1103.52 298.34C1105.52 298.91 1110.68 299.16 1120.12 299.16C1128.02 299.16 1131.58 298.46 1133.18 297.87C1135.12 297.1 1136.18 295.71 1137.24 289.93C1137.89 285.835 1138.33 281.71 1138.56 277.57L1138.63 276.39L1139.63 277.11C1141.92 278.871 1144.56 280.107 1147.38 280.73L1147.92 280.87L1147.86 281.43C1146.12 296.43 1144.36 301.9 1140.35 304.78C1137.07 307.15 1131.49 307.8 1114.35 307.8ZM1037.91 300.24L1038.17 299.65C1042.29 290.72 1043.93 283.53 1045.85 266.21L1045.92 265.52L1053.93 267.1L1053.85 267.69C1051.33 287.28 1050.1 292.93 1046.2 303.28L1045.96 303.92L1037.91 300.24ZM1080.03 298.24C1077.13 282.16 1076.03 277.97 1072.22 268.34L1071.96 267.69L1079.23 265.51L1079.45 266.06C1083.04 275.16 1084.84 281.51 1087.81 295.58L1087.92 296.12L1080.17 298.99L1080.03 298.24Z" fill="#F5ECD3"/>
<path d="M1233.41 308.6C1222.4 308.6 1217.07 307.99 1213.69 306.36C1210.69 304.92 1209.58 302.46 1209.58 296.99V283.72C1209.69 280.125 1209.45 276.529 1208.87 272.98L1208.74 272.23H1219.34L1219.18 273C1218.58 276.257 1218.35 279.57 1218.47 282.88V295.66C1218.47 300.04 1218.92 300.44 1234.74 300.44C1249.74 300.44 1253.74 299.8 1255.06 297.18C1256 295.29 1256.34 291.44 1256.68 284.54V283.54L1257.56 283.96C1259.82 285.188 1262.26 286.065 1264.78 286.56L1265.33 286.69L1265.28 287.25C1264.28 298.16 1263.28 302.01 1260.74 304.41C1257.59 307.62 1251.2 308.6 1233.41 308.6ZM1179.47 301.44L1179.9 300.92C1187.55 291.62 1190.99 285.08 1194.64 272.92L1194.84 272.23L1202.84 275.64L1202.67 276.19C1198.29 289.91 1195.02 296.43 1187.48 306.52L1187.09 307.03L1179.47 301.44ZM1281.74 305.33C1276.37 293.53 1272.82 287.71 1264.54 277L1264.09 276.43L1271.23 272.15L1271.58 272.59C1278.44 281.014 1284.44 290.091 1289.52 299.69L1289.79 300.17L1282.07 306.07L1281.74 305.33ZM1242.23 288.73C1234.96 280.5 1229.75 275.91 1221.58 270.51L1220.89 270.06L1227.07 264.46L1227.49 264.74C1235.13 269.878 1242.24 275.76 1248.71 282.3L1249.17 282.75L1242.68 289.24L1242.23 288.73ZM1241.61 268.65L1242.34 268.13C1245.07 266.191 1247.59 263.958 1249.84 261.47L1258.84 251.57H1204.75C1198.52 251.57 1195.92 251.7 1193.14 252.16L1192.4 252.29V242.92L1193.15 243.06C1195.72 243.53 1198 243.65 1203.79 243.65H1257.4C1260.6 243.726 1263.8 243.569 1266.97 243.18L1267.29 243.13L1272.97 249.08L1272.39 249.51C1271.02 250.557 1269.75 251.743 1268.61 253.05L1256.67 266.19C1253.38 269.82 1252.4 271.03 1250.05 273.99L1249.67 274.47L1241.61 268.65ZM1183.59 241.04C1182.77 238.648 1181.48 236.447 1179.78 234.57L1179.21 233.85L1180.08 233.56C1191.77 229.656 1202.75 223.918 1212.63 216.56C1219.11 212.043 1224.82 206.509 1229.53 200.17L1229.72 199.92H1238.55L1238.74 200.14C1244.5 206.972 1251.33 212.824 1258.96 217.47C1268.87 223.772 1279.54 228.811 1290.7 232.47L1291.53 232.75L1291.02 233.46C1289.21 235.724 1287.8 238.285 1286.87 241.03L1286.63 241.64L1286.03 241.39C1276.55 237.429 1267.4 232.749 1258.64 227.39L1258.41 227.25V235.52L1257.7 235.44C1254.38 235.067 1251.04 234.907 1247.7 234.96H1222.22C1218.86 234.913 1215.49 235.074 1212.14 235.44L1211.43 235.51V227.64C1202.98 233.307 1193.97 238.086 1184.55 241.9L1183.96 242.15L1183.59 241.04ZM1212.81 226.74C1216 227.174 1219.22 227.348 1222.43 227.26H1247.79C1251.06 227.344 1254.34 227.15 1257.58 226.68C1248.9 221.511 1241.01 215.112 1234.17 207.68C1228.87 214.084 1222.74 219.76 1215.95 224.56C1214.87 225.31 1213.84 226.07 1212.8 226.74H1212.81Z" fill="#F5ECD3"/>
<path d="M1327.6 309.07C1325.83 306.95 1323.72 305.153 1321.34 303.76L1320.66 303.32L1321.24 302.76C1334.15 290.35 1339.43 275.76 1339.99 250.94H1335.69C1332.05 250.896 1328.4 251.133 1324.8 251.65L1324.07 251.77V241.61L1324.81 241.73C1328.41 242.266 1332.05 242.506 1335.69 242.45H1339.98V213.83H1337.36C1333.92 213.731 1330.48 213.932 1327.08 214.43L1326.34 214.54V204.74L1327.07 204.84C1330.68 205.341 1334.32 205.579 1337.96 205.55H1375.89C1379.49 205.582 1383.09 205.345 1386.66 204.84L1387.39 204.74V214.54L1386.65 214.43C1383.29 213.928 1379.89 213.727 1376.49 213.83H1374.49V242.45H1377.59C1381.11 242.561 1384.64 242.36 1388.12 241.85L1388.86 241.74V251.68L1388.12 251.56C1384.63 251.06 1381.11 250.862 1377.59 250.97H1374.49V295.54C1374.42 299.702 1374.66 303.863 1375.21 307.99L1375.31 308.71L1364.89 308.85L1365.01 308.1C1365.59 303.98 1365.83 299.819 1365.73 295.66V250.97H1348.72C1348.35 260.82 1347.85 266.11 1346.72 272.5C1343.92 287.22 1338.72 297.82 1328.58 309.11L1328.09 309.66L1327.6 309.07ZM1365.73 242.42V213.83H1348.72V242.45L1365.73 242.42ZM1384.39 308.71C1383.11 306.245 1381.56 303.934 1379.76 301.82L1379.2 301.15L1380.01 300.82C1394.53 295 1407.37 286.1 1419.27 273.6C1422.53 270.182 1425.37 266.389 1427.74 262.3L1428.11 261.59L1436.11 268.35L1435.59 268.84C1432.96 271.36 1432.96 271.36 1427.31 277.84C1421.12 284.748 1414.19 290.968 1406.67 296.39C1399.95 301.29 1392.76 305.511 1385.2 308.99L1384.64 309.25L1384.39 308.71ZM1388.25 270C1387.02 267.472 1385.47 265.118 1383.62 263L1383.06 262.33L1383.87 261.99C1395.68 256.99 1404.62 251.1 1414.71 241.62C1418.16 238.526 1421.21 235.004 1423.78 231.14L1424.17 230.51L1432.11 237.16L1431.48 237.65C1429.68 239.051 1428.01 240.604 1426.48 242.29C1415.72 253.692 1403.08 263.163 1389.11 270.29L1388.55 270.58L1388.25 270ZM1387.89 236C1386.69 233.52 1385.09 231.248 1383.17 229.27L1382.53 228.61L1383.38 228.24C1393.68 223.8 1401.97 218.24 1411.09 209.8C1416.03 205.11 1417.7 203.3 1419.2 200.99L1419.58 200.42L1427.77 206.62L1427.15 207.14C1426.09 208.03 1425.29 208.78 1423.36 210.6L1420.9 212.9C1408.7 224.35 1400.58 230.25 1388.75 236.28L1388.19 236.56L1387.89 236Z" fill="#F5ECD3"/>
<path d="M1562.03 308.12C1557.38 308.12 1551.91 304.01 1547.03 296.87C1541.13 288.21 1536.02 273.28 1533.28 256.94C1531.97 248.661 1531.13 240.314 1530.76 231.94H1480.9C1476.77 231.915 1472.64 232.152 1468.54 232.65L1467.82 232.74V222.58L1468.55 222.68C1472.64 223.217 1476.77 223.458 1480.9 223.4H1530.47C1530.37 220.28 1530.36 219.79 1530.25 211.87C1530.28 208.748 1530.04 205.63 1529.53 202.55L1529.43 201.82H1540.25L1540.1 202.58C1539.54 206.249 1539.3 209.96 1539.39 213.67C1539.39 216.11 1539.39 218.42 1539.6 223.4H1561.69C1565.57 223.47 1569.45 223.23 1573.29 222.68L1574.04 222.56V232.73L1573.31 232.63C1569.22 232.11 1565.09 231.873 1560.96 231.92H1540.03C1540.73 244.99 1541.09 247.92 1542.52 256.49C1544.36 266.44 1545.93 272.34 1548.52 279.03C1551.6 287.2 1554.82 292.72 1558.37 295.9C1559.31 296.905 1560.49 297.641 1561.81 298.03C1563.32 298.03 1565.62 294.7 1567.93 278.81L1568.11 277.61L1569 278.42C1570.97 280.412 1573.34 281.974 1575.94 283.01L1576.43 283.22L1576.32 283.73C1574.05 294.42 1572.59 299.04 1570.32 302.73C1568.13 306.26 1565.26 308.12 1562.03 308.12ZM1468.38 293.69H1469.17C1474.75 293.69 1477.67 293.23 1494.98 290.06V257.23H1484.14C1480.54 257.144 1476.94 257.344 1473.37 257.83L1472.63 257.95V248.36L1473.38 248.49C1476.98 248.999 1480.63 249.196 1484.26 249.08H1515.54C1519.14 249.19 1522.74 248.989 1526.3 248.48L1527.04 248.37V257.95L1526.3 257.83C1522.78 257.346 1519.22 257.146 1515.66 257.23H1503.98V288.36C1512.62 286.6 1517.98 285.22 1530.34 281.9L1531.15 281.68V290.37L1530.67 290.49C1513.23 295.08 1497.04 298.62 1476.52 302.32L1475.9 302.45C1474.31 302.79 1472.4 303.2 1471.13 303.51L1470.49 303.68L1468.38 293.69ZM1559.26 221.57C1554.83 216.462 1549.75 211.957 1544.15 208.17L1543.43 207.65L1550.07 202.75L1550.45 203.02C1556.02 206.851 1561.18 211.24 1565.86 216.12L1566.36 216.62L1559.66 222.03L1559.26 221.57Z" fill="#F5ECD3"/>
<path d="M1617.17 310.89L1617.26 310.17C1617.8 305.473 1618.04 300.747 1617.98 296.02V268.53C1617.98 263.68 1617.98 260.69 1618.2 256.91C1615.41 260.353 1612.3 263.517 1608.9 266.36L1608.27 266.9L1607.91 266.16C1606.9 263.901 1605.51 261.833 1603.79 260.05L1603.3 259.53L1603.86 259.1C1611.59 253.371 1618.18 246.236 1623.27 238.07C1625.41 234.915 1627.1 231.475 1628.27 227.85L1628.52 227.1L1636.69 231.81L1636.31 232.38C1635.76 233.2 1635.38 233.85 1634.99 234.51C1634.69 235.02 1634.39 235.51 1633.99 236.11C1631.79 240.184 1629.23 244.056 1626.35 247.68V296.17C1626.23 300.845 1626.43 305.523 1626.95 310.17L1627.06 310.91L1617.17 310.89ZM1671.09 308.89C1669.81 306.704 1668.11 304.792 1666.09 303.26L1665.41 302.72L1666.12 302.22C1673.86 296.88 1677.89 293.36 1682.67 287.75C1685.82 284.018 1688.61 280.001 1691.02 275.75C1687.02 266.39 1684.77 258.07 1683.02 245.75C1682.57 246.49 1682.02 247.27 1681.27 248.43L1680.8 249.12L1680.26 248.48C1679.43 247.481 1678.47 246.605 1677.4 245.88V249.64L1676.68 249.54C1673.66 249.179 1670.61 249.021 1667.57 249.07H1642.82C1639.63 248.977 1636.44 249.174 1633.29 249.66L1632.53 249.8V240.8L1633.29 240.94C1636.4 241.447 1639.55 241.645 1642.7 241.53H1666.85C1669.93 241.63 1673.01 241.476 1676.06 241.07C1682.6 231.07 1688.37 213.07 1688.96 200.88V200.15L1698.5 201.86L1698.27 202.56C1697.87 203.749 1697.53 204.962 1697.27 206.19L1696.94 207.57C1695.94 212.48 1695.09 215.39 1693.56 220.52H1708.15C1712.96 220.52 1715.74 220.42 1718.52 219.82L1719.29 219.65V229.26L1718.57 229.16C1716.08 228.831 1713.56 228.637 1711.04 228.58C1709.71 248.67 1706.91 260.66 1700.04 275.65C1701.73 278.754 1703.64 281.732 1705.76 284.56C1709.58 289.89 1712.83 293.34 1720.89 300.63L1721.41 301.09L1720.9 301.57C1718.78 303.532 1716.98 305.809 1715.56 308.32L1715.13 309L1714.57 308.43C1705.76 299.64 1700.63 293.21 1695.33 284.26C1689.33 293.93 1682.68 300.97 1671.94 309.09L1671.39 309.5L1671.09 308.89ZM1688.71 234.25C1689.14 239.933 1689.98 245.578 1691.22 251.14C1692.21 256.145 1693.66 261.049 1695.55 265.79C1699.55 255.47 1701.97 242.64 1702.55 228.52H1690.87C1690.19 230.51 1689.8 231.54 1688.71 234.27V234.25ZM1632.49 292.07L1633.34 292.21C1633.9 292.299 1634.47 292.336 1635.05 292.32C1637.53 292.32 1644.85 291.61 1651.55 290.72V279.62H1639.76C1636.64 279.577 1633.52 279.737 1630.42 280.1L1629.69 280.2V271.46L1630.44 271.6C1633.56 272.098 1636.72 272.296 1639.88 272.19H1651.55V263.75C1649.55 263.89 1646.29 264.03 1642.63 264.19C1640.14 264.29 1637.4 264.41 1634.63 264.55H1634.07L1633.96 264C1633.55 261.72 1632.88 259.495 1631.96 257.37L1631.58 256.45H1632.58C1635.58 256.57 1637.9 256.57 1639.43 256.57C1653.02 256.57 1666.97 254.8 1673.36 252.27L1673.84 252.08L1679.03 259.56L1678.09 259.76C1672.03 261.178 1665.89 262.24 1659.71 262.94H1659.63V272.1H1671.05C1674.3 272.166 1677.54 272.006 1680.76 271.62L1681.48 271.53V280.07L1680.78 280.01C1677.71 279.75 1674.89 279.65 1671.05 279.65H1659.61V289.45L1660.78 289.23C1664.92 288.54 1668.16 287.96 1675.24 286.23L1676.06 286.04L1675.91 293.76L1675.42 293.87C1662.78 296.87 1652.85 298.77 1638.78 300.87C1636.5 301.23 1636.5 301.23 1634.46 301.6L1633.8 301.71L1632.49 292.07ZM1676.79 235.13C1672.94 234.89 1672.31 234.89 1668.85 234.89H1644.95C1642.75 234.89 1640.52 234.99 1638.16 235.1L1636.74 235.16L1636.83 234.41C1637.06 232.476 1637.18 230.529 1637.18 228.58V218.01C1637.18 215.293 1637.02 212.578 1636.71 209.88L1636.63 209.17H1645.32L1645.22 209.9C1644.97 212.559 1644.89 215.231 1644.98 217.9V227.51H1653.24V211.07C1653.31 208.282 1653.15 205.493 1652.77 202.73L1652.65 201.99H1661.65L1661.57 202.7C1661.3 205.441 1661.18 208.195 1661.21 210.95V227.55H1669.35V217.94C1669.41 215.268 1669.29 212.596 1668.99 209.94L1668.91 209.22H1677.61L1677.52 209.94C1677.23 212.637 1677.11 215.349 1677.16 218.06V227.83C1677.07 230.046 1677.18 232.266 1677.51 234.46L1677.66 235.27L1676.79 235.13ZM1610.46 233.24C1609.25 230.953 1607.61 228.917 1605.64 227.24L1605.04 226.71L1605.69 226.24C1616.55 218.38 1625.09 208.66 1628.53 200.24L1628.82 199.52L1636.93 204.77L1636.53 205.32C1635.2 207.13 1635.2 207.13 1631.95 211.7C1626.01 219.746 1619.12 227.037 1611.42 233.41L1610.83 233.89L1610.46 233.24Z" fill="#F5ECD3"/>
<path d="M1763.64 310.41L1763.73 309.68C1764.32 304.91 1764.56 300.105 1764.45 295.3V255.63C1764.45 251.41 1764.54 247.94 1764.76 244.01C1761.53 249.824 1757.68 255.272 1753.27 260.26L1752.65 261L1751.95 259.65C1750.88 257.264 1749.36 255.105 1747.48 253.29L1747.08 252.86L1747.47 252.43C1757.56 241.404 1765.44 228.536 1770.66 214.53C1773.02 208.09 1774.39 203.05 1774.85 199.13L1774.94 198.37L1784.77 201.31L1783.98 203.55C1783.62 204.55 1783.25 205.63 1782.61 207.38C1780.1 215.079 1777.05 222.588 1773.47 229.85V295.66C1773.47 300.66 1773.66 305.07 1774.07 309.71L1774.14 310.41H1763.64ZM1815.8 310.05L1815.91 309.31C1816.51 305.188 1816.79 301.026 1816.75 296.86V268.57H1793.23C1789.07 268.515 1784.9 268.752 1780.77 269.28L1780.04 269.4V259.34L1780.78 259.46C1784.91 260.002 1789.07 260.24 1793.23 260.17H1816.75V235.17H1797.63C1794.69 241.739 1791.09 247.991 1786.88 253.83L1786.44 254.45L1785.9 253.91C1783.95 252 1781.67 250.449 1779.18 249.33L1778.49 248.97L1778.97 248.36C1785.28 240.475 1790.19 231.561 1793.48 222.01C1795.52 216.916 1796.89 211.578 1797.55 206.13L1797.62 205.37L1807.34 208.18L1807.12 208.82C1806.67 210.08 1806.36 211.03 1805.94 212.33C1805.67 213.13 1805.36 214.08 1804.94 215.33C1803.29 220.72 1802.43 223.11 1801.03 226.9H1816.74V214.07C1816.78 210.028 1816.5 205.988 1815.9 201.99L1815.79 201.25H1826.79L1826.67 201.99C1826.06 205.988 1825.79 210.028 1825.84 214.07V226.93H1842.84C1846.93 227.024 1851.02 226.786 1855.07 226.22L1855.81 226.11V236.01L1855.1 235.93C1851.07 235.467 1847.02 235.227 1842.96 235.21H1825.86V260.21H1847.86C1852.04 260.269 1856.21 260.029 1860.35 259.49L1861.07 259.4V269.4L1860.34 269.31C1856.24 268.811 1852.11 268.57 1847.98 268.59H1825.81V296.88C1825.75 301.046 1826.03 305.209 1826.64 309.33L1826.76 310.07L1815.8 310.05Z" fill="#F5ECD3"/>
<path d="M52.4514 149.26L52.5314 148.55C53.048 143.902 53.2818 139.227 53.2316 134.55V95.7202C53.2316 91.2002 53.3116 88.2802 53.4716 84.3402C50.3448 89.9021 46.6798 95.1439 42.5292 99.9902L41.939 100.71L41.4789 99.9102C39.2985 96.1202 38.4183 95.0202 36.4778 93.6702L35.8877 93.2602L36.3678 92.7202C45.1518 83.1834 52.2117 72.1934 57.2325 60.2402C59.9766 54.0724 61.9907 47.6053 63.2338 40.9702L63.3538 40.2402L73.166 43.2402L72.906 43.8902C71.3856 47.6302 71.3856 47.6302 68.8151 54.7502C67.4848 58.4702 64.9642 64.5602 62.0536 71.0602V134.82C62.0536 139.77 62.2336 144.01 62.6337 148.58L62.6937 149.27L52.4514 149.26Z" fill="#F5ECD3"/>
<path d="M73.6963 149.15C71.8926 147.024 69.6689 145.295 67.1649 144.07L66.5947 143.74L66.9448 143.17C71.2458 136.17 73.2562 131.89 75.2167 125.35C78.2173 115.75 80.2178 100.19 80.4978 85.6998L80.9879 63.6198V62.5698C80.9879 58.7598 80.6079 51.5698 80.2578 46.8098V46.0098L81.048 46.1298C84.7796 46.6348 88.5465 46.8321 92.3105 46.7198H140.111C144.361 46.8287 148.613 46.6316 152.834 46.1298L153.564 46.0298V55.5498L152.864 55.4898C148.273 55.0798 144.142 54.8898 140.231 54.8898H89.6399V67.9998C89.6399 93.3898 87.8895 112.35 84.2987 126C82.2822 134.131 79.0447 141.909 74.6965 149.07L74.2564 149.83L73.6963 149.15Z" fill="#F5ECD3"/>
<path d="M84.4893 137.26L85.2094 137.34C89.0751 137.768 92.9627 137.969 96.852 137.94H115.066V121.49H103.133C99.4062 121.413 95.6779 121.574 91.9709 121.97L91.2608 122.05V112.55L92.0509 112.74C94.5715 113.34 97.5922 113.45 103.053 113.45H115.056V112.76C115.109 108.838 114.908 104.916 114.456 101.02L114.356 100.3H124.158L124.068 101.02C123.66 104.879 123.499 108.76 123.588 112.64V113.45H136.591C141.832 113.45 144.513 113.35 147.593 112.74L148.354 112.58V122.07L147.643 121.99C143.989 121.604 140.315 121.443 136.641 121.51H123.638V137.96H141.712C145.639 138.076 149.569 137.879 153.465 137.37L154.195 137.25V146.69L153.475 146.6C149.533 146.114 145.564 145.873 141.592 145.88H96.972C93.0423 145.836 89.1145 146.077 85.2194 146.6L84.4893 146.7V137.26Z" fill="#F5ECD3"/>
<path d="M90.8906 89.3399L91.6208 89.4399C95.2706 89.8871 98.9464 90.0875 102.623 90.0399H115.036V76.3599H104.704C101.18 76.3111 97.6562 76.4714 94.1513 76.8399L93.4312 76.9199V67.6899L94.2114 67.8499C96.982 68.4599 99.8026 68.5599 104.704 68.5599H115.066V68.2399C115.099 64.6806 114.899 61.1229 114.466 57.5899L114.356 56.8599H124.178L124.078 57.5899C123.683 61.1254 123.522 64.6832 123.598 68.2399V68.5599H137.211C142.372 68.5599 145.023 68.4599 148.083 67.8499L148.854 67.6999V76.9199L148.143 76.8399C144.512 76.466 140.861 76.3057 137.211 76.3599H123.598V90.0699H140.482C144.199 90.2004 147.921 90.0029 151.604 89.4799L152.354 89.3499V98.6599L151.654 98.5899C147.819 98.1943 143.967 97.994 140.112 97.9899H102.533C98.8812 98.0027 95.2323 98.203 91.6008 98.5899L90.8906 98.6599V89.3399Z" fill="#F5ECD3"/>
<path d="M253.296 151.31C249.746 151.31 245.525 151.18 241.424 150.94H240.904L240.824 150.42C240.47 147.848 239.753 145.34 238.693 142.97L238.273 141.97L239.363 142.12C244.541 142.822 249.762 143.156 254.987 143.12C259.668 143.12 259.908 142.48 259.908 140.62V120.9H201.895C197.719 120.855 193.545 121.096 189.402 121.62L188.682 121.72V112.29L189.412 112.39C193.508 112.911 197.636 113.148 201.765 113.1H259.858V102.56H201.725C197.552 102.516 193.382 102.756 189.242 103.28L188.522 103.38V93.93L189.262 94.05C193.353 94.5953 197.479 94.8326 201.605 94.76H235.612V84.07H211.967C207.917 84.0153 203.869 84.256 199.854 84.79L199.124 84.89V75.45L199.864 75.56C203.875 76.1041 207.921 76.3414 211.967 76.27H235.602C235.584 74.0161 235.35 71.7691 234.902 69.56L234.752 68.79H241.754C240.344 67.4255 238.701 66.3247 236.903 65.54L236.043 65.11L236.763 64.49C244.05 58.2191 249.558 50.1422 252.736 41.07L252.936 40.48L261.478 43.18L261.168 43.85C260.398 45.48 259.808 46.56 258.628 48.72L257.277 51.07H282.183C286.432 51.1367 290.681 50.8961 294.896 50.35L295.636 50.24V59.44L294.906 59.34C290.722 58.8729 286.512 58.6725 282.303 58.74H270.07C272.277 62.1729 274.281 65.7324 276.072 69.4L276.382 70.02L268.26 73.29L268.01 72.7C266.097 67.8109 263.709 63.1216 260.878 58.7H252.636C250.242 62.2996 247.516 65.6676 244.494 68.76H244.985L244.825 69.54C244.374 71.7451 244.143 73.9894 244.134 76.24H272.351C276.4 76.3114 280.45 76.074 284.463 75.53L285.194 75.42V84.87L284.463 84.76C280.485 84.2314 276.474 83.9908 272.461 84.04H244.154V94.7H282.543C286.673 94.7722 290.802 94.5349 294.896 93.99L295.636 93.87V103.32L294.906 103.22C290.807 102.688 286.676 102.447 282.543 102.5H268.8V113.07H282.183C286.312 113.118 290.439 112.881 294.536 112.36L295.266 112.26V121.69L294.536 121.59C290.44 121.066 286.312 120.825 282.183 120.87H268.8V141.87C268.8 149.88 264.739 151.31 253.296 151.31ZM228.881 144.93C221.309 136.04 219.269 134.13 210.747 127.93L210.117 127.47L216.518 121.47L216.948 121.79C225.89 128.46 227.311 129.71 235.873 138.51L236.333 138.98L229.331 145.43L228.881 144.93ZM192.023 74.34C190.467 72.3976 188.556 70.7687 186.391 69.54L185.571 69.06L186.321 68.48C195.924 60.93 202.705 51.65 205.926 41.64L206.116 41.04L215.208 43.74L214.828 44.43C213.768 46.43 213.127 47.6 212.427 48.88L211.237 51.07H228.531C232.498 51.1483 236.465 50.9075 240.394 50.35L241.134 50.24V59.42L240.424 59.34C236.751 58.9743 233.061 58.8174 229.371 58.87H222.94C225.171 62.475 227.107 66.2539 228.731 70.17L229.011 70.8L220.739 73.8L220.529 73.18C218.875 68.2176 216.727 63.4337 214.118 58.9H206.366C202.586 64.6382 198.066 69.8531 192.923 74.41L192.433 74.87L192.023 74.34Z" fill="#F5ECD3"/>
<path d="M983.12 307.35C978.619 307.35 975.319 307.1 967.597 306.5H967.047V305.95C966.95 303.06 966.269 300.22 965.046 297.6L964.546 296.47L965.756 296.71C971.349 297.907 977.042 298.576 982.76 298.71C986.981 298.71 988.422 297.77 989.762 294.17C991.762 288.71 993.363 276.95 994.203 261.06C994.803 251.42 994.923 242.9 995.043 226.06H961.276C957.505 233.788 952.882 241.07 947.492 247.77L946.982 248.42L946.472 247.76C945.045 245.913 943.361 244.28 941.471 242.91V290.07C941.43 294.191 941.63 298.312 942.071 302.41L942.161 303.14H932.819V295.41H910.524V306.07H901.042L901.162 305.33C901.682 300.475 901.879 295.591 901.752 290.71V229.49C901.839 225.687 901.678 221.882 901.272 218.1L901.172 217.27L902.002 217.39C904.382 217.634 906.772 217.754 909.164 217.75H914.645C916.956 212.054 918.633 206.122 919.646 200.06L919.756 199.42L929.698 201.24L929.468 201.94C927.228 208.66 925.738 212.89 923.667 217.75H930.549C937.55 217.49 940.711 217.38 941.181 217.38H941.891L941.841 218.07C941.591 221.36 941.481 224.52 941.481 228.64V240.64C948.353 233.07 954.034 223.19 958.365 211.26C959.828 207.541 960.871 203.67 961.476 199.72L961.536 199.01L971.408 200.87L971.018 201.63C970.386 203.098 969.835 204.601 969.367 206.13C967.847 210.46 966.787 213.21 965.316 217.02L965.096 217.59H993.413C996.93 217.674 1000.45 217.517 1003.95 217.12L1004.83 216.99L1004.68 217.86C1004.35 220.014 1004.2 222.191 1004.23 224.37V225.37C1003.14 272.9 1001.56 289.46 997.164 299.22C994.613 305 990.552 307.35 983.12 307.35ZM932.809 287.35V259.21H910.524V287.36L932.809 287.35ZM932.809 251.28V225.66H910.524V251.29L932.809 251.28ZM973.598 275.37C966.907 261.06 962.296 253.37 955.314 244.98L954.834 244.41L962.106 239.99L962.466 240.42C970.188 249.72 975.199 257.62 981.64 270.59L981.9 271.11L973.898 276.07L973.598 275.37Z" fill="#F5ECD3"/>
<path d="M1123.53 86.6699H1107.28V34.0226H1124.25C1129.35 34.0226 1133.73 35.0766 1137.36 37.1846C1140.99 39.2754 1143.78 42.2831 1145.71 46.2076C1147.65 50.115 1148.62 54.7936 1148.62 60.2435C1148.62 65.7275 1147.64 70.449 1145.69 74.4078C1143.73 78.3495 1140.89 81.3829 1137.15 83.508C1133.42 85.6159 1128.88 86.6699 1123.53 86.6699ZM1113.66 81.0145H1123.12C1127.47 81.0145 1131.08 80.1747 1133.94 78.4952C1136.8 76.8157 1138.93 74.425 1140.34 71.323C1141.75 68.2211 1142.45 64.5279 1142.45 60.2435C1142.45 55.9933 1141.75 52.3344 1140.37 49.2667C1138.98 46.1819 1136.9 43.8169 1134.14 42.1717C1131.39 40.5093 1127.95 39.6781 1123.84 39.6781H1113.66V81.0145ZM1175.04 87.4925C1171.24 87.4925 1167.96 86.6528 1165.2 84.9733C1162.46 83.2766 1160.34 80.9116 1158.85 77.8782C1157.38 74.8277 1156.64 71.2802 1156.64 67.2357C1156.64 63.1912 1157.38 59.6265 1158.85 56.5417C1160.34 53.4398 1162.41 51.0233 1165.07 49.2924C1167.74 47.5444 1170.86 46.6703 1174.43 46.6703C1176.48 46.6703 1178.51 47.0131 1180.52 47.6986C1182.52 48.3841 1184.35 49.4981 1186 51.0405C1187.64 52.5657 1188.95 54.588 1189.93 57.1072C1190.91 59.6265 1191.39 62.7284 1191.39 66.4131V68.9837H1160.96V63.7396H1185.22C1185.22 61.5117 1184.78 59.5237 1183.89 57.7756C1183.01 56.0276 1181.76 54.648 1180.13 53.6368C1178.52 52.6257 1176.62 52.1201 1174.43 52.1201C1172.01 52.1201 1169.92 52.72 1168.15 53.9196C1166.41 55.1021 1165.06 56.6445 1164.12 58.5468C1163.18 60.4491 1162.71 62.4885 1162.71 64.665V68.1611C1162.71 71.1431 1163.22 73.6709 1164.25 75.7446C1165.29 77.8011 1166.74 79.3692 1168.59 80.4489C1170.44 81.5114 1172.59 82.0427 1175.04 82.0427C1176.64 82.0427 1178.08 81.8199 1179.36 81.3743C1180.67 80.9116 1181.79 80.2261 1182.73 79.3178C1183.67 78.3924 1184.4 77.2441 1184.92 75.8731L1190.78 77.5183C1190.16 79.5063 1189.12 81.2544 1187.67 82.7625C1186.21 84.2535 1184.41 85.4189 1182.27 86.2586C1180.13 87.0812 1177.72 87.4925 1175.04 87.4925ZM1228.59 56.0276L1223.14 57.57C1222.8 56.6617 1222.29 55.7791 1221.62 54.9222C1220.97 54.0481 1220.08 53.3284 1218.95 52.7628C1217.82 52.1973 1216.37 51.9145 1214.61 51.9145C1212.19 51.9145 1210.18 52.4715 1208.57 53.5854C1206.97 54.6822 1206.18 56.079 1206.18 57.7756C1206.18 59.2837 1206.72 60.4748 1207.82 61.3488C1208.92 62.2229 1210.63 62.9512 1212.96 63.5339L1218.82 64.9735C1222.35 65.8304 1224.98 67.1414 1226.71 68.9066C1228.45 70.6547 1229.31 72.9083 1229.31 75.6675C1229.31 77.9297 1228.66 79.9519 1227.36 81.7342C1226.07 83.5166 1224.27 84.9219 1221.96 85.9501C1219.65 86.9784 1216.95 87.4925 1213.89 87.4925C1209.86 87.4925 1206.53 86.6185 1203.89 84.8705C1201.25 83.1224 1199.58 80.5689 1198.87 77.2099L1204.63 75.7703C1205.18 77.8954 1206.22 79.4892 1207.74 80.5517C1209.29 81.6143 1211.3 82.1455 1213.78 82.1455C1216.61 82.1455 1218.86 81.5457 1220.52 80.3461C1222.2 79.1293 1223.04 77.6726 1223.04 75.9759C1223.04 74.6049 1222.56 73.4567 1221.6 72.5313C1220.64 71.5887 1219.17 70.886 1217.18 70.4233L1210.6 68.8809C1206.98 68.024 1204.32 66.6958 1202.63 64.8964C1200.95 63.0798 1200.11 60.809 1200.11 58.0841C1200.11 55.8562 1200.73 53.8853 1201.98 52.1716C1203.25 50.4578 1204.98 49.1125 1207.15 48.1356C1209.35 47.1588 1211.83 46.6703 1214.61 46.6703C1218.51 46.6703 1221.58 47.5272 1223.81 49.241C1226.05 50.9548 1227.65 53.217 1228.59 56.0276ZM1238.44 86.6699V47.1845H1244.51V86.6699H1238.44ZM1241.53 40.6036C1240.35 40.6036 1239.33 40.2008 1238.47 39.3953C1237.63 38.5899 1237.21 37.6216 1237.21 36.4905C1237.21 35.3594 1237.63 34.3911 1238.47 33.5856C1239.33 32.7802 1240.35 32.3774 1241.53 32.3774C1242.71 32.3774 1243.72 32.7802 1244.56 33.5856C1245.42 34.3911 1245.85 35.3594 1245.85 36.4905C1245.85 37.6216 1245.42 38.5899 1244.56 39.3953C1243.72 40.2008 1242.71 40.6036 1241.53 40.6036ZM1271.56 102.3C1268.63 102.3 1266.11 101.923 1264 101.168C1261.89 100.432 1260.14 99.4547 1258.73 98.2379C1257.34 97.0383 1256.24 95.7529 1255.42 94.3819L1260.25 90.9886C1260.8 91.7084 1261.49 92.531 1262.33 93.4565C1263.17 94.3991 1264.32 95.2131 1265.78 95.8986C1267.25 96.6013 1269.18 96.9526 1271.56 96.9526C1274.75 96.9526 1277.38 96.1814 1279.45 94.639C1281.53 93.0966 1282.56 90.6802 1282.56 87.3897V79.3692H1282.05C1281.6 80.089 1280.97 80.9802 1280.15 82.0427C1279.34 83.0881 1278.18 84.0221 1276.65 84.8447C1275.14 85.6502 1273.1 86.053 1270.53 86.053C1267.34 86.053 1264.48 85.2989 1261.95 83.7908C1259.43 82.2826 1257.43 80.089 1255.96 77.2099C1254.5 74.3307 1253.77 70.8346 1253.77 66.7215C1253.77 62.677 1254.48 59.1552 1255.9 56.1561C1257.33 53.1398 1259.31 50.8091 1261.84 49.1639C1264.38 47.5015 1267.31 46.6703 1270.63 46.6703C1273.21 46.6703 1275.24 47.0988 1276.75 47.9557C1278.28 48.7954 1279.44 49.7551 1280.25 50.8348C1281.07 51.8974 1281.71 52.7714 1282.15 53.4569H1282.77V47.1845H1288.63V87.801C1288.63 91.1943 1287.86 93.9535 1286.32 96.0786C1284.79 98.2208 1282.73 99.7889 1280.15 100.783C1277.58 101.794 1274.71 102.3 1271.56 102.3ZM1271.35 80.6031C1273.79 80.6031 1275.84 80.0462 1277.52 78.9322C1279.2 77.8183 1280.48 76.2159 1281.35 74.1251C1282.23 72.0343 1282.67 69.5321 1282.67 66.6187C1282.67 63.7738 1282.24 61.2632 1281.38 59.0867C1280.52 56.9102 1279.25 55.2049 1277.58 53.971C1275.9 52.7371 1273.82 52.1201 1271.35 52.1201C1268.78 52.1201 1266.64 52.7714 1264.93 54.0739C1263.23 55.3763 1261.95 57.1244 1261.1 59.318C1260.26 61.5117 1259.84 63.9452 1259.84 66.6187C1259.84 69.3608 1260.27 71.7858 1261.12 73.8937C1262 75.9845 1263.28 77.6297 1264.98 78.8294C1266.69 80.0119 1268.82 80.6031 1271.35 80.6031ZM1305.8 62.917V86.6699H1299.73V47.1845H1305.6V53.3541H1306.11C1307.04 51.3489 1308.44 49.738 1310.33 48.5212C1312.21 47.2873 1314.64 46.6703 1317.63 46.6703C1320.3 46.6703 1322.64 47.2187 1324.64 48.3156C1326.65 49.3952 1328.21 51.0405 1329.32 53.2512C1330.44 55.4449 1330.99 58.2212 1330.99 61.5802V86.6699H1324.93V61.9915C1324.93 58.8896 1324.12 56.4731 1322.51 54.7422C1320.9 52.9942 1318.69 52.1201 1315.88 52.1201C1313.94 52.1201 1312.21 52.54 1310.69 53.3798C1309.18 54.2195 1307.99 55.4449 1307.11 57.0558C1306.24 58.6668 1305.8 60.6205 1305.8 62.917ZM1405.63 50.4749H1399.25C1398.87 48.6412 1398.21 47.0302 1397.27 45.6421C1396.35 44.2539 1395.22 43.0885 1393.88 42.146C1392.56 41.1862 1391.09 40.4665 1389.48 39.9866C1387.87 39.5067 1386.19 39.2668 1384.44 39.2668C1381.26 39.2668 1378.37 40.0723 1375.78 41.6832C1373.21 43.2942 1371.16 45.6678 1369.64 48.804C1368.13 51.9402 1367.38 55.7876 1367.38 60.3463C1367.38 64.9049 1368.13 68.7524 1369.64 71.8886C1371.16 75.0248 1373.21 77.3984 1375.78 79.0093C1378.37 80.6203 1381.26 81.4258 1384.44 81.4258C1386.19 81.4258 1387.87 81.1858 1389.48 80.706C1391.09 80.2261 1392.56 79.5149 1393.88 78.5723C1395.22 77.6126 1396.35 76.4387 1397.27 75.0505C1398.21 73.6452 1398.87 72.0343 1399.25 70.2176H1405.63C1405.15 72.9083 1404.27 75.3161 1403 77.4412C1401.74 79.5663 1400.16 81.3743 1398.27 82.8653C1396.39 84.3392 1394.27 85.4617 1391.93 86.2329C1389.59 87.0041 1387.1 87.3897 1384.44 87.3897C1379.95 87.3897 1375.96 86.2929 1372.47 84.0993C1368.97 81.9056 1366.22 78.7865 1364.21 74.742C1362.21 70.6975 1361.21 65.8989 1361.21 60.3463C1361.21 54.7936 1362.21 49.9951 1364.21 45.9505C1366.22 41.906 1368.97 38.787 1372.47 36.5933C1375.96 34.3997 1379.95 33.3029 1384.44 33.3029C1387.1 33.3029 1389.59 33.6885 1391.93 34.4597C1394.27 35.2309 1396.39 36.362 1398.27 37.8529C1400.16 39.3268 1401.74 41.1263 1403 43.2513C1404.27 45.3593 1405.15 47.7672 1405.63 50.4749ZM1431.15 87.4925C1427.58 87.4925 1424.45 86.6442 1421.76 84.9476C1419.09 83.2509 1417 80.8774 1415.49 77.8268C1414 74.7763 1413.26 71.2116 1413.26 67.1328C1413.26 63.0198 1414 59.4294 1415.49 56.3617C1417 53.2941 1419.09 50.9119 1421.76 49.2153C1424.45 47.5187 1427.58 46.6703 1431.15 46.6703C1434.71 46.6703 1437.83 47.5187 1440.5 49.2153C1443.19 50.9119 1445.29 53.2941 1446.78 56.3617C1448.28 59.4294 1449.04 63.0198 1449.04 67.1328C1449.04 71.2116 1448.28 74.7763 1446.78 77.8268C1445.29 80.8774 1443.19 83.2509 1440.5 84.9476C1437.83 86.6442 1434.71 87.4925 1431.15 87.4925ZM1431.15 82.0427C1433.85 82.0427 1436.08 81.3486 1437.83 79.9605C1439.58 78.5723 1440.87 76.7471 1441.71 74.485C1442.55 72.2228 1442.97 69.7721 1442.97 67.1328C1442.97 64.4936 1442.55 62.0344 1441.71 59.755C1440.87 57.4757 1439.58 55.6334 1437.83 54.2281C1436.08 52.8228 1433.85 52.1201 1431.15 52.1201C1428.44 52.1201 1426.21 52.8228 1424.46 54.2281C1422.72 55.6334 1421.42 57.4757 1420.58 59.755C1419.74 62.0344 1419.32 64.4936 1419.32 67.1328C1419.32 69.7721 1419.74 72.2228 1420.58 74.485C1421.42 76.7471 1422.72 78.5723 1424.46 79.9605C1426.21 81.3486 1428.44 82.0427 1431.15 82.0427ZM1464.37 62.917V86.6699H1458.3V47.1845H1464.16V53.3541H1464.67C1465.6 51.3489 1467.01 49.738 1468.89 48.5212C1470.78 47.2873 1473.21 46.6703 1476.19 46.6703C1478.87 46.6703 1481.2 47.2187 1483.21 48.3156C1485.21 49.3952 1486.77 51.0405 1487.89 53.2512C1489 55.4449 1489.56 58.2212 1489.56 61.5802V86.6699H1483.49V61.9915C1483.49 58.8896 1482.69 56.4731 1481.08 54.7422C1479.46 52.9942 1477.25 52.1201 1474.44 52.1201C1472.51 52.1201 1470.78 52.54 1469.25 53.3798C1467.74 54.2195 1466.55 55.4449 1465.68 57.0558C1464.8 58.6668 1464.37 60.6205 1464.37 62.917ZM1517.82 47.1845V52.3258H1497.35V47.1845H1517.82ZM1503.32 37.7244H1509.39V75.359C1509.39 77.0728 1509.63 78.3581 1510.13 79.215C1510.64 80.0547 1511.3 80.6203 1512.08 80.9116C1512.89 81.1858 1513.74 81.3229 1514.63 81.3229C1515.3 81.3229 1515.85 81.2887 1516.27 81.2201C1516.7 81.1344 1517.05 81.0659 1517.3 81.0145L1518.54 86.4643C1518.13 86.6185 1517.55 86.7727 1516.81 86.927C1516.08 87.0984 1515.14 87.1841 1514.01 87.1841C1512.3 87.1841 1510.62 86.8156 1508.97 86.0787C1507.35 85.3417 1505.99 84.2192 1504.91 82.7111C1503.85 81.203 1503.32 79.3007 1503.32 77.0042V37.7244ZM1543.07 87.4925C1539.27 87.4925 1535.99 86.6528 1533.23 84.9733C1530.49 83.2766 1528.37 80.9116 1526.88 77.8782C1525.4 74.8277 1524.67 71.2802 1524.67 67.2357C1524.67 63.1912 1525.4 59.6265 1526.88 56.5417C1528.37 53.4398 1530.44 51.0233 1533.1 49.2924C1535.77 47.5444 1538.89 46.6703 1542.46 46.6703C1544.51 46.6703 1546.54 47.0131 1548.55 47.6986C1550.55 48.3841 1552.38 49.4981 1554.02 51.0405C1555.67 52.5657 1556.98 54.588 1557.96 57.1072C1558.93 59.6265 1559.42 62.7284 1559.42 66.4131V68.9837H1528.99V63.7396H1553.25C1553.25 61.5117 1552.81 59.5237 1551.92 57.7756C1551.04 56.0276 1549.79 54.648 1548.16 53.6368C1546.55 52.6257 1544.65 52.1201 1542.46 52.1201C1540.04 52.1201 1537.95 52.72 1536.18 53.9196C1534.44 55.1021 1533.09 56.6445 1532.15 58.5468C1531.21 60.4491 1530.73 62.4885 1530.73 64.665V68.1611C1530.73 71.1431 1531.25 73.6709 1532.28 75.7446C1533.32 77.8011 1534.77 79.3692 1536.62 80.4489C1538.47 81.5114 1540.62 82.0427 1543.07 82.0427C1544.67 82.0427 1546.11 81.8199 1547.39 81.3743C1548.7 80.9116 1549.82 80.2261 1550.76 79.3178C1551.7 78.3924 1552.43 77.2441 1552.95 75.8731L1558.81 77.5183C1558.19 79.5063 1557.15 81.2544 1555.7 82.7625C1554.24 84.2535 1552.44 85.4189 1550.3 86.2586C1548.16 87.0812 1545.75 87.4925 1543.07 87.4925ZM1596.62 56.0276L1591.17 57.57C1590.83 56.6617 1590.32 55.7791 1589.65 54.9222C1589 54.0481 1588.11 53.3284 1586.98 52.7628C1585.85 52.1973 1584.4 51.9145 1582.64 51.9145C1580.22 51.9145 1578.21 52.4715 1576.6 53.5854C1575 54.6822 1574.2 56.079 1574.2 57.7756C1574.2 59.2837 1574.75 60.4748 1575.85 61.3488C1576.95 62.2229 1578.66 62.9512 1580.99 63.5339L1586.85 64.9735C1590.38 65.8304 1593.01 67.1414 1594.74 68.9066C1596.48 70.6547 1597.34 72.9083 1597.34 75.6675C1597.34 77.9297 1596.69 79.9519 1595.39 81.7342C1594.1 83.5166 1592.3 84.9219 1589.99 85.9501C1587.68 86.9784 1584.98 87.4925 1581.92 87.4925C1577.89 87.4925 1574.56 86.6185 1571.92 84.8705C1569.28 83.1224 1567.61 80.5689 1566.9 77.2099L1572.66 75.7703C1573.21 77.8954 1574.25 79.4892 1575.77 80.5517C1577.32 81.6143 1579.33 82.1455 1581.81 82.1455C1584.64 82.1455 1586.89 81.5457 1588.55 80.3461C1590.23 79.1293 1591.07 77.6726 1591.07 75.9759C1591.07 74.6049 1590.59 73.4567 1589.63 72.5313C1588.67 71.5887 1587.2 70.886 1585.21 70.4233L1578.63 68.8809C1575.01 68.024 1572.35 66.6958 1570.66 64.8964C1568.98 63.0798 1568.14 60.809 1568.14 58.0841C1568.14 55.8562 1568.76 53.8853 1570.01 52.1716C1571.28 50.4578 1573.01 49.1125 1575.18 48.1356C1577.38 47.1588 1579.86 46.6703 1582.64 46.6703C1586.54 46.6703 1589.61 47.5272 1591.84 49.241C1594.08 50.9548 1595.68 53.217 1596.62 56.0276ZM1623.65 47.1845V52.3258H1603.18V47.1845H1623.65ZM1609.15 37.7244H1615.21V75.359C1615.21 77.0728 1615.46 78.3581 1615.96 79.215C1616.47 80.0547 1617.12 80.6203 1617.91 80.9116C1618.72 81.1858 1619.57 81.3229 1620.46 81.3229C1621.13 81.3229 1621.67 81.2887 1622.1 81.2201C1622.53 81.1344 1622.87 81.0659 1623.13 81.0145L1624.36 86.4643C1623.95 86.6185 1623.38 86.7727 1622.64 86.927C1621.91 87.0984 1620.97 87.1841 1619.84 87.1841C1618.13 87.1841 1616.45 86.8156 1614.8 86.0787C1613.17 85.3417 1611.82 84.2192 1610.74 82.7111C1609.68 81.203 1609.15 79.3007 1609.15 77.0042V37.7244ZM1669.17 87.4925C1665.61 87.4925 1662.48 86.6442 1659.79 84.9476C1657.12 83.2509 1655.02 80.8774 1653.52 77.8268C1652.03 74.7763 1651.28 71.2116 1651.28 67.1328C1651.28 63.0198 1652.03 59.4294 1653.52 56.3617C1655.02 53.2941 1657.12 50.9119 1659.79 49.2153C1662.48 47.5187 1665.61 46.6703 1669.17 46.6703C1672.74 46.6703 1675.86 47.5187 1678.53 49.2153C1681.22 50.9119 1683.31 53.2941 1684.8 56.3617C1686.31 59.4294 1687.06 63.0198 1687.06 67.1328C1687.06 71.2116 1686.31 74.7763 1684.8 77.8268C1683.31 80.8774 1681.22 83.2509 1678.53 84.9476C1675.86 86.6442 1672.74 87.4925 1669.17 87.4925ZM1669.17 82.0427C1671.88 82.0427 1674.11 81.3486 1675.86 79.9605C1677.6 78.5723 1678.9 76.7471 1679.74 74.485C1680.58 72.2228 1681 69.7721 1681 67.1328C1681 64.4936 1680.58 62.0344 1679.74 59.755C1678.9 57.4757 1677.6 55.6334 1675.86 54.2281C1674.11 52.8228 1671.88 52.1201 1669.17 52.1201C1666.46 52.1201 1664.24 52.8228 1662.49 54.2281C1660.74 55.6334 1659.45 57.4757 1658.61 59.755C1657.77 62.0344 1657.35 64.4936 1657.35 67.1328C1657.35 69.7721 1657.77 72.2228 1658.61 74.485C1659.45 76.7471 1660.74 78.5723 1662.49 79.9605C1664.24 81.3486 1666.46 82.0427 1669.17 82.0427ZM1713.91 47.1845V52.3258H1692.62V47.1845H1713.91ZM1699 86.6699V41.7347C1699 39.4725 1699.53 37.5873 1700.59 36.0792C1701.65 34.5711 1703.03 33.44 1704.73 32.6859C1706.43 31.9318 1708.22 31.5548 1710.1 31.5548C1711.59 31.5548 1712.81 31.6748 1713.75 31.9147C1714.7 32.1546 1715.4 32.3774 1715.86 32.5831L1714.11 37.8272C1713.8 37.7244 1713.38 37.5959 1712.83 37.4416C1712.3 37.2874 1711.59 37.2103 1710.72 37.2103C1708.71 37.2103 1707.27 37.7158 1706.38 38.727C1705.5 39.7381 1705.06 41.2205 1705.06 43.1742V86.6699H1699Z" fill="#F5ECD3"/>
<path d="M979.333 166.6V113.953H985.709V160.945H1010.18V166.6H979.333ZM1035.27 167.423C1031.71 167.423 1028.58 166.574 1025.89 164.878C1023.21 163.181 1021.12 160.807 1019.62 157.757C1018.12 154.706 1017.38 151.142 1017.38 147.063C1017.38 142.95 1018.12 139.359 1019.62 136.292C1021.12 133.224 1023.21 130.842 1025.89 129.145C1028.58 127.449 1031.71 126.6 1035.27 126.6C1038.84 126.6 1041.95 127.449 1044.63 129.145C1047.32 130.842 1049.41 133.224 1050.9 136.292C1052.41 139.359 1053.16 142.95 1053.16 147.063C1053.16 151.142 1052.41 154.706 1050.9 157.757C1049.41 160.807 1047.32 163.181 1044.63 164.878C1041.95 166.574 1038.84 167.423 1035.27 167.423ZM1035.27 161.973C1037.98 161.973 1040.21 161.279 1041.95 159.891C1043.7 158.502 1045 156.677 1045.84 154.415C1046.68 152.153 1047.1 149.702 1047.1 147.063C1047.1 144.424 1046.68 141.964 1045.84 139.685C1045 137.406 1043.7 135.563 1041.95 134.158C1040.21 132.753 1037.98 132.05 1035.27 132.05C1032.56 132.05 1030.34 132.753 1028.59 134.158C1026.84 135.563 1025.55 137.406 1024.71 139.685C1023.87 141.964 1023.45 144.424 1023.45 147.063C1023.45 149.702 1023.87 152.153 1024.71 154.415C1025.55 156.677 1026.84 158.502 1028.59 159.891C1030.34 161.279 1032.56 161.973 1035.27 161.973ZM1078.46 167.423C1074.76 167.423 1071.58 166.549 1068.9 164.801C1066.23 163.052 1064.17 160.645 1062.73 157.577C1061.29 154.509 1060.57 151.005 1060.57 147.063C1060.57 143.053 1061.31 139.514 1062.78 136.446C1064.27 133.361 1066.35 130.953 1069 129.222C1071.68 127.474 1074.8 126.6 1078.36 126.6C1081.14 126.6 1083.64 127.115 1085.87 128.143C1088.1 129.171 1089.92 130.611 1091.34 132.462C1092.77 134.312 1093.65 136.472 1093.99 138.94H1087.92C1087.46 137.14 1086.43 135.546 1084.84 134.158C1083.26 132.753 1081.14 132.05 1078.46 132.05C1076.1 132.05 1074.03 132.667 1072.24 133.901C1070.48 135.118 1069.1 136.84 1068.1 139.068C1067.13 141.279 1066.64 143.875 1066.64 146.857C1066.64 149.908 1067.12 152.564 1068.08 154.826C1069.06 157.089 1070.43 158.845 1072.19 160.096C1073.97 161.347 1076.07 161.973 1078.46 161.973C1080.04 161.973 1081.47 161.699 1082.76 161.15C1084.04 160.602 1085.13 159.813 1086.02 158.785C1086.91 157.757 1087.55 156.523 1087.92 155.083H1093.99C1093.65 157.414 1092.8 159.514 1091.45 161.382C1090.11 163.232 1088.34 164.706 1086.13 165.803C1083.93 166.883 1081.38 167.423 1078.46 167.423ZM1114.48 167.525C1111.98 167.525 1109.71 167.054 1107.67 166.112C1105.63 165.152 1104.01 163.772 1102.81 161.973C1101.61 160.156 1101.01 157.963 1101.01 155.392C1101.01 153.13 1101.45 151.296 1102.35 149.891C1103.24 148.468 1104.43 147.354 1105.92 146.549C1107.41 145.743 1109.06 145.143 1110.86 144.749C1112.67 144.338 1114.5 144.012 1116.33 143.772C1118.73 143.464 1120.67 143.233 1122.17 143.078C1123.67 142.907 1124.77 142.624 1125.46 142.23C1126.16 141.836 1126.51 141.15 1126.51 140.174V139.968C1126.51 137.431 1125.82 135.461 1124.43 134.055C1123.06 132.65 1120.97 131.947 1118.18 131.947C1115.29 131.947 1113.01 132.581 1111.37 133.85C1109.72 135.118 1108.57 136.472 1107.9 137.911L1102.14 135.855C1103.17 133.455 1104.54 131.587 1106.25 130.251C1107.98 128.897 1109.87 127.954 1111.91 127.423C1113.97 126.875 1115.99 126.6 1117.98 126.6C1119.24 126.6 1120.7 126.755 1122.35 127.063C1124.01 127.354 1125.61 127.963 1127.15 128.888C1128.71 129.814 1130.01 131.21 1131.03 133.078C1132.06 134.946 1132.58 137.449 1132.58 140.585V166.6H1126.51V161.253H1126.2C1125.79 162.11 1125.11 163.027 1124.15 164.004C1123.19 164.98 1121.91 165.812 1120.32 166.497C1118.72 167.183 1116.78 167.525 1114.48 167.525ZM1115.41 162.076C1117.8 162.076 1119.83 161.604 1121.47 160.662C1123.13 159.719 1124.39 158.502 1125.23 157.011C1126.08 155.52 1126.51 153.952 1126.51 152.307V146.754C1126.25 147.063 1125.69 147.346 1124.81 147.603C1123.96 147.843 1122.96 148.057 1121.83 148.245C1120.72 148.417 1119.63 148.571 1118.57 148.708C1117.52 148.828 1116.67 148.931 1116.02 149.017C1114.45 149.222 1112.97 149.556 1111.6 150.019C1110.25 150.465 1109.15 151.142 1108.31 152.05C1107.49 152.941 1107.08 154.158 1107.08 155.7C1107.08 157.808 1107.86 159.402 1109.42 160.482C1110.99 161.544 1112.99 162.076 1115.41 162.076ZM1149.72 113.953V166.6H1143.65V113.953H1149.72ZM1182.01 166.6V113.953H1188.39V137.397H1216.46V113.953H1222.83V166.6H1216.46V143.053H1188.39V166.6H1182.01ZM1246.39 167.525C1243.89 167.525 1241.62 167.054 1239.58 166.112C1237.54 165.152 1235.92 163.772 1234.72 161.973C1233.52 160.156 1232.92 157.963 1232.92 155.392C1232.92 153.13 1233.37 151.296 1234.26 149.891C1235.15 148.468 1236.34 147.354 1237.83 146.549C1239.32 145.743 1240.97 145.143 1242.77 144.749C1244.59 144.338 1246.41 144.012 1248.24 143.772C1250.64 143.464 1252.59 143.233 1254.08 143.078C1255.59 142.907 1256.68 142.624 1257.37 142.23C1258.07 141.836 1258.42 141.15 1258.42 140.174V139.968C1258.42 137.431 1257.73 135.461 1256.34 134.055C1254.97 132.65 1252.89 131.947 1250.1 131.947C1247.2 131.947 1244.93 132.581 1243.28 133.85C1241.64 135.118 1240.48 136.472 1239.81 137.911L1234.05 135.855C1235.08 133.455 1236.45 131.587 1238.17 130.251C1239.9 128.897 1241.78 127.954 1243.82 127.423C1245.88 126.875 1247.9 126.6 1249.89 126.6C1251.16 126.6 1252.61 126.755 1254.26 127.063C1255.92 127.354 1257.52 127.963 1259.07 128.888C1260.63 129.814 1261.92 131.21 1262.95 133.078C1263.98 134.946 1264.49 137.449 1264.49 140.585V166.6H1258.42V161.253H1258.12C1257.7 162.11 1257.02 163.027 1256.06 164.004C1255.1 164.98 1253.82 165.812 1252.23 166.497C1250.64 167.183 1248.69 167.525 1246.39 167.525ZM1247.32 162.076C1249.72 162.076 1251.74 161.604 1253.39 160.662C1255.05 159.719 1256.3 158.502 1257.14 157.011C1258 155.52 1258.42 153.952 1258.42 152.307V146.754C1258.17 147.063 1257.6 147.346 1256.73 147.603C1255.87 147.843 1254.88 148.057 1253.75 148.245C1252.63 148.417 1251.54 148.571 1250.48 148.708C1249.44 148.828 1248.59 148.931 1247.94 149.017C1246.36 149.222 1244.89 149.556 1243.51 150.019C1242.16 150.465 1241.06 151.142 1240.22 152.05C1239.4 152.941 1238.99 154.158 1238.99 155.7C1238.99 157.808 1239.77 159.402 1241.33 160.482C1242.91 161.544 1244.9 162.076 1247.32 162.076ZM1281.22 152.204L1281.12 144.698H1282.35L1299.63 127.115H1307.13L1288.73 145.726H1288.21L1281.22 152.204ZM1275.56 166.6V113.953H1281.63V166.6H1275.56ZM1300.65 166.6L1285.23 147.063L1289.55 142.847L1308.37 166.6H1300.65ZM1320.6 152.204L1320.49 144.698H1321.73L1339 127.115H1346.51L1328.1 145.726H1327.59L1320.6 152.204ZM1314.94 166.6V113.953H1321.01V166.6H1314.94ZM1340.03 166.6L1324.61 147.063L1328.92 142.847L1347.74 166.6H1340.03ZM1365.94 167.525C1363.43 167.525 1361.16 167.054 1359.12 166.112C1357.08 165.152 1355.46 163.772 1354.27 161.973C1353.07 160.156 1352.47 157.963 1352.47 155.392C1352.47 153.13 1352.91 151.296 1353.8 149.891C1354.69 148.468 1355.88 147.354 1357.38 146.549C1358.87 145.743 1360.51 145.143 1362.31 144.749C1364.13 144.338 1365.95 144.012 1367.79 143.772C1370.19 143.464 1372.13 143.233 1373.62 143.078C1375.13 142.907 1376.23 142.624 1376.91 142.23C1377.62 141.836 1377.97 141.15 1377.97 140.174V139.968C1377.97 137.431 1377.27 135.461 1375.88 134.055C1374.51 132.65 1372.43 131.947 1369.64 131.947C1366.74 131.947 1364.47 132.581 1362.83 133.85C1361.18 135.118 1360.02 136.472 1359.36 137.911L1353.6 135.855C1354.63 133.455 1356 131.587 1357.71 130.251C1359.44 128.897 1361.33 127.954 1363.37 127.423C1365.42 126.875 1367.44 126.6 1369.43 126.6C1370.7 126.6 1372.16 126.755 1373.8 127.063C1375.46 127.354 1377.07 127.963 1378.61 128.888C1380.17 129.814 1381.46 131.21 1382.49 133.078C1383.52 134.946 1384.03 137.449 1384.03 140.585V166.6H1377.97V161.253H1377.66C1377.25 162.11 1376.56 163.027 1375.6 164.004C1374.64 164.98 1373.37 165.812 1371.77 166.497C1370.18 167.183 1368.23 167.525 1365.94 167.525ZM1366.86 162.076C1369.26 162.076 1371.28 161.604 1372.93 160.662C1374.59 159.719 1375.84 158.502 1376.68 157.011C1377.54 155.52 1377.97 153.952 1377.97 152.307V146.754C1377.71 147.063 1377.14 147.346 1376.27 147.603C1375.41 147.843 1374.42 148.057 1373.29 148.245C1372.17 148.417 1371.09 148.571 1370.02 148.708C1368.98 148.828 1368.13 148.931 1367.48 149.017C1365.9 149.222 1364.43 149.556 1363.06 150.019C1361.7 150.465 1360.61 151.142 1359.77 152.05C1358.94 152.941 1358.53 154.158 1358.53 155.7C1358.53 157.808 1359.31 159.402 1360.87 160.482C1362.45 161.544 1364.44 162.076 1366.86 162.076ZM1416.29 113.953H1423.9L1441.79 157.654H1442.41L1460.3 113.953H1467.91V166.6H1461.94V126.6H1461.43L1444.98 166.6H1439.22L1422.77 126.6H1422.25V166.6H1416.29V113.953ZM1496.42 167.423C1492.62 167.423 1489.34 166.583 1486.58 164.903C1483.84 163.207 1481.72 160.842 1480.23 157.808C1478.75 154.758 1478.02 151.21 1478.02 147.166C1478.02 143.121 1478.75 139.557 1480.23 136.472C1481.72 133.37 1483.79 130.953 1486.45 129.222C1489.12 127.474 1492.24 126.6 1495.81 126.6C1497.86 126.6 1499.89 126.943 1501.9 127.629C1503.9 128.314 1505.73 129.428 1507.37 130.971C1509.02 132.496 1510.33 134.518 1511.31 137.037C1512.28 139.557 1512.77 142.658 1512.77 146.343V148.914H1482.34V143.67H1506.6C1506.6 141.442 1506.16 139.454 1505.27 137.706C1504.39 135.958 1503.14 134.578 1501.51 133.567C1499.9 132.556 1498 132.05 1495.81 132.05C1493.39 132.05 1491.3 132.65 1489.53 133.85C1487.79 135.032 1486.44 136.575 1485.5 138.477C1484.56 140.379 1484.08 142.419 1484.08 144.595V148.091C1484.08 151.073 1484.6 153.601 1485.63 155.675C1486.67 157.731 1488.12 159.299 1489.97 160.379C1491.82 161.442 1493.97 161.973 1496.42 161.973C1498.02 161.973 1499.46 161.75 1500.74 161.304C1502.04 160.842 1503.17 160.156 1504.11 159.248C1505.05 158.322 1505.78 157.174 1506.29 155.803L1512.16 157.448C1511.54 159.436 1510.5 161.184 1509.05 162.693C1507.59 164.184 1505.79 165.349 1503.65 166.189C1501.5 167.011 1499.1 167.423 1496.42 167.423ZM1522 166.6V127.115H1527.86V133.284H1528.38C1529.2 131.176 1530.53 129.54 1532.36 128.374C1534.19 127.192 1536.4 126.6 1538.97 126.6C1541.57 126.6 1543.74 127.192 1545.47 128.374C1547.22 129.54 1548.58 131.176 1549.56 133.284H1549.97C1550.98 131.245 1552.5 129.625 1554.52 128.426C1556.54 127.209 1558.97 126.6 1561.8 126.6C1565.33 126.6 1568.21 127.706 1570.46 129.917C1572.7 132.11 1573.83 135.529 1573.83 140.174V166.6H1567.76V140.174C1567.76 137.26 1566.96 135.178 1565.37 133.927C1563.77 132.676 1561.9 132.05 1559.74 132.05C1556.96 132.05 1554.81 132.89 1553.29 134.569C1551.76 136.232 1551 138.34 1551 140.893V166.6H1544.83V139.557C1544.83 137.312 1544.1 135.503 1542.64 134.132C1541.19 132.744 1539.31 132.05 1537.01 132.05C1535.44 132.05 1533.96 132.47 1532.59 133.31C1531.24 134.15 1530.14 135.315 1529.3 136.806C1528.48 138.28 1528.07 139.985 1528.07 141.922V166.6H1522ZM1600.96 167.423C1597.39 167.423 1594.27 166.574 1591.58 164.878C1588.9 163.181 1586.81 160.807 1585.3 157.757C1583.81 154.706 1583.07 151.142 1583.07 147.063C1583.07 142.95 1583.81 139.359 1585.3 136.292C1586.81 133.224 1588.9 130.842 1591.58 129.145C1594.27 127.449 1597.39 126.6 1600.96 126.6C1604.52 126.6 1607.64 127.449 1610.32 129.145C1613.01 130.842 1615.1 133.224 1616.59 136.292C1618.1 139.359 1618.85 142.95 1618.85 147.063C1618.85 151.142 1618.1 154.706 1616.59 157.757C1615.1 160.807 1613.01 163.181 1610.32 164.878C1607.64 166.574 1604.52 167.423 1600.96 167.423ZM1600.96 161.973C1603.67 161.973 1605.89 161.279 1607.64 159.891C1609.39 158.502 1610.68 156.677 1611.52 154.415C1612.36 152.153 1612.78 149.702 1612.78 147.063C1612.78 144.424 1612.36 141.964 1611.52 139.685C1610.68 137.406 1609.39 135.563 1607.64 134.158C1605.89 132.753 1603.67 132.05 1600.96 132.05C1598.25 132.05 1596.02 132.753 1594.28 134.158C1592.53 135.563 1591.23 137.406 1590.39 139.685C1589.55 141.964 1589.13 144.424 1589.13 147.063C1589.13 149.702 1589.55 152.153 1590.39 154.415C1591.23 156.677 1592.53 158.502 1594.28 159.891C1596.02 161.279 1598.25 161.973 1600.96 161.973ZM1628.11 166.6V127.115H1633.97V133.078H1634.38C1635.1 131.125 1636.41 129.54 1638.29 128.323C1640.18 127.106 1642.3 126.498 1644.67 126.498C1645.11 126.498 1645.67 126.506 1646.34 126.523C1647.01 126.54 1647.51 126.566 1647.85 126.6V132.77C1647.65 132.719 1647.18 132.641 1646.44 132.539C1645.72 132.419 1644.96 132.359 1644.15 132.359C1642.23 132.359 1640.52 132.761 1639.01 133.567C1637.52 134.355 1636.34 135.452 1635.46 136.857C1634.61 138.246 1634.18 139.831 1634.18 141.613V166.6H1628.11ZM1655.05 166.6V127.115H1661.11V166.6H1655.05ZM1658.13 120.534C1656.95 120.534 1655.93 120.131 1655.07 119.325C1654.23 118.52 1653.81 117.552 1653.81 116.421C1653.81 115.289 1654.23 114.321 1655.07 113.516C1655.93 112.71 1656.95 112.307 1658.13 112.307C1659.31 112.307 1660.32 112.71 1661.16 113.516C1662.02 114.321 1662.45 115.289 1662.45 116.421C1662.45 117.552 1662.02 118.52 1661.16 119.325C1660.32 120.131 1659.31 120.534 1658.13 120.534ZM1683.84 167.525C1681.34 167.525 1679.07 167.054 1677.03 166.112C1674.99 165.152 1673.37 163.772 1672.17 161.973C1670.97 160.156 1670.37 157.963 1670.37 155.392C1670.37 153.13 1670.82 151.296 1671.71 149.891C1672.6 148.468 1673.79 147.354 1675.28 146.549C1676.77 145.743 1678.42 145.143 1680.22 144.749C1682.04 144.338 1683.86 144.012 1685.69 143.772C1688.09 143.464 1690.04 143.233 1691.53 143.078C1693.04 142.907 1694.14 142.624 1694.82 142.23C1695.52 141.836 1695.87 141.15 1695.87 140.174V139.968C1695.87 137.431 1695.18 135.461 1693.79 134.055C1692.42 132.65 1690.34 131.947 1687.55 131.947C1684.65 131.947 1682.38 132.581 1680.73 133.85C1679.09 135.118 1677.93 136.472 1677.26 137.911L1671.5 135.855C1672.53 133.455 1673.9 131.587 1675.62 130.251C1677.35 128.897 1679.23 127.954 1681.27 127.423C1683.33 126.875 1685.35 126.6 1687.34 126.6C1688.61 126.6 1690.07 126.755 1691.71 127.063C1693.37 127.354 1694.97 127.963 1696.52 128.888C1698.08 129.814 1699.37 131.21 1700.4 133.078C1701.43 134.946 1701.94 137.449 1701.94 140.585V166.6H1695.87V161.253H1695.57C1695.15 162.11 1694.47 163.027 1693.51 164.004C1692.55 164.98 1691.27 165.812 1689.68 166.497C1688.09 167.183 1686.14 167.525 1683.84 167.525ZM1684.77 162.076C1687.17 162.076 1689.19 161.604 1690.84 160.662C1692.5 159.719 1693.75 158.502 1694.59 157.011C1695.45 155.52 1695.87 153.952 1695.87 152.307V146.754C1695.62 147.063 1695.05 147.346 1694.18 147.603C1693.32 147.843 1692.33 148.057 1691.2 148.245C1690.08 148.417 1688.99 148.571 1687.93 148.708C1686.89 148.828 1686.04 148.931 1685.39 149.017C1683.81 149.222 1682.34 149.556 1680.96 150.019C1679.61 150.465 1678.51 151.142 1677.67 152.05C1676.85 152.941 1676.44 154.158 1676.44 155.7C1676.44 157.808 1677.22 159.402 1678.78 160.482C1680.36 161.544 1682.35 162.076 1684.77 162.076ZM1719.08 113.953V166.6H1713.01V113.953H1719.08Z" fill="#F5ECD3"/>
<g clip-path="url(#clip0_115_1833)">
<path d="M1805.62 168.96C1771.09 168.96 1743 140.48 1743 105.48C1743 70.48 1771.09 42 1805.62 42C1840.15 42 1868.25 70.48 1868.25 105.48C1868.25 140.48 1840.16 168.96 1805.62 168.96ZM1805.62 43.51C1771.91 43.51 1744.48 71.31 1744.48 105.48C1744.48 139.65 1771.91 167.45 1805.62 167.45C1839.33 167.45 1866.76 139.65 1866.76 105.48C1866.76 71.31 1839.34 43.51 1805.62 43.51Z" fill="#F5ECD3"/>
<path d="M1867.5 104.73H1743.74V106.24H1867.5V104.73Z" fill="#F5ECD3"/>
<path d="M1806.37 42.75H1804.88V168.2H1806.37V42.75Z" fill="#F5ECD3"/>
</g>
<defs>
<clipPath id="clip0_115_1833">
<rect width="125.25" height="126.96" fill="white" transform="translate(1743 42)"/>
</clipPath>
</defs>
</svg>
