<svg width="410" height="410" viewBox="0 0 410 410" fill="none" xmlns="http://www.w3.org/2000/svg">
<g clip-path="url(#clip0_1199_6150)">
<path d="M410.288 0H0V410.487H410.288V0Z" fill="#CECECE"/>
<path d="M410.001 374.572H407.246V392.432H410.001V374.572Z" fill="black"/>
<path d="M382.923 374.063H376.666V391.923H382.923V374.063Z" fill="black"/>
<path d="M351.154 374.063H343.945V391.923H351.154V374.063Z" fill="black"/>
<path d="M319.386 374.063H311.225V391.923H319.386V374.063Z" fill="black"/>
<path d="M287.617 374.063H278.504V391.923H287.617V374.063Z" fill="black"/>
<path d="M255.849 374.063H245.783V391.923H255.849V374.063Z" fill="black"/>
<path d="M224.08 374.063H213.062V391.923H224.08V374.063Z" fill="black"/>
<path d="M192.305 374.063H180.335V391.923H192.305V374.063Z" fill="black"/>
<path d="M160.536 374.063H147.614V391.923H160.536V374.063Z" fill="black"/>
<path d="M128.768 374.063H114.894V391.923H128.768V374.063Z" fill="black"/>
<path d="M96.9994 374.063H82.1729V391.923H96.9994V374.063Z" fill="black"/>
<path d="M65.231 374.063H49.4521V391.923H65.231V374.063Z" fill="black"/>
<path d="M33.4625 374.063H16.7314V391.923H33.4625V374.063Z" fill="black"/>
<path d="M398.874 356.496H392.617V374.356H398.874V356.496Z" fill="black"/>
<path d="M367.105 356.496H359.896V374.356H367.105V356.496Z" fill="black"/>
<path d="M335.337 356.496H327.176V374.356H335.337V356.496Z" fill="black"/>
<path d="M303.568 356.496H294.455V374.356H303.568V356.496Z" fill="black"/>
<path d="M271.8 356.496H261.734V374.356H271.8V356.496Z" fill="black"/>
<path d="M240.031 356.496H229.014V374.356H240.031V356.496Z" fill="black"/>
<path d="M208.256 356.496H196.286V374.356H208.256V356.496Z" fill="black"/>
<path d="M176.488 356.496H163.565V374.356H176.488V356.496Z" fill="black"/>
<path d="M144.719 356.496H130.845V374.356H144.719V356.496Z" fill="black"/>
<path d="M112.951 356.496H98.124V374.356H112.951V356.496Z" fill="black"/>
<path d="M81.1821 356.496H65.4033V374.356H81.1821V356.496Z" fill="black"/>
<path d="M49.4137 356.496H32.6826V374.356H49.4137V356.496Z" fill="black"/>
<path d="M16.731 356.496H0V374.356H16.731V356.496Z" fill="black"/>
<path d="M410.001 338.917H407.246V356.777H410.001V338.917Z" fill="black"/>
<path d="M382.923 338.408H376.666V356.268H382.923V338.408Z" fill="black"/>
<path d="M351.154 338.408H343.945V356.268H351.154V338.408Z" fill="black"/>
<path d="M319.386 338.408H311.225V356.268H319.386V338.408Z" fill="black"/>
<path d="M287.617 338.408H278.504V356.268H287.617V338.408Z" fill="black"/>
<path d="M255.849 338.408H245.783V356.268H255.849V338.408Z" fill="black"/>
<path d="M224.08 338.408H213.062V356.268H224.08V338.408Z" fill="black"/>
<path d="M192.305 338.408H180.335V356.268H192.305V338.408Z" fill="black"/>
<path d="M160.536 338.408H147.614V356.268H160.536V338.408Z" fill="black"/>
<path d="M128.768 338.408H114.894V356.268H128.768V338.408Z" fill="black"/>
<path d="M96.9994 338.408H82.1729V356.268H96.9994V338.408Z" fill="black"/>
<path d="M65.231 338.408H49.4521V356.268H65.231V338.408Z" fill="black"/>
<path d="M33.4625 338.408H16.7314V356.268H33.4625V338.408Z" fill="black"/>
<path d="M398.874 320.841H392.617V338.701H398.874V320.841Z" fill="black"/>
<path d="M367.105 320.841H359.896V338.701H367.105V320.841Z" fill="black"/>
<path d="M335.337 320.841H327.176V338.701H335.337V320.841Z" fill="black"/>
<path d="M303.568 320.841H294.455V338.701H303.568V320.841Z" fill="black"/>
<path d="M271.8 320.841H261.734V338.701H271.8V320.841Z" fill="black"/>
<path d="M240.031 320.841H229.014V338.701H240.031V320.841Z" fill="black"/>
<path d="M208.256 320.841H196.286V338.701H208.256V320.841Z" fill="black"/>
<path d="M176.488 320.841H163.565V338.701H176.488V320.841Z" fill="black"/>
<path d="M144.719 320.841H130.845V338.701H144.719V320.841Z" fill="black"/>
<path d="M112.951 320.841H98.124V338.701H112.951V320.841Z" fill="black"/>
<path d="M81.1821 320.841H65.4033V338.701H81.1821V320.841Z" fill="black"/>
<path d="M49.4137 320.841H32.6826V338.701H49.4137V320.841Z" fill="black"/>
<path d="M16.731 320.841H0V338.701H16.731V320.841Z" fill="black"/>
<path d="M410.001 303.273H407.246V321.133H410.001V303.273Z" fill="black"/>
<path d="M382.923 302.764H376.666V320.624H382.923V302.764Z" fill="black"/>
<path d="M351.154 302.764H343.945V320.624H351.154V302.764Z" fill="black"/>
<path d="M319.386 302.764H311.225V320.624H319.386V302.764Z" fill="black"/>
<path d="M287.617 302.764H278.504V320.624H287.617V302.764Z" fill="black"/>
<path d="M255.849 302.764H245.783V320.624H255.849V302.764Z" fill="black"/>
<path d="M224.08 302.764H213.062V320.624H224.08V302.764Z" fill="black"/>
<path d="M192.305 302.764H180.335V320.624H192.305V302.764Z" fill="black"/>
<path d="M160.536 302.764H147.614V320.624H160.536V302.764Z" fill="black"/>
<path d="M128.768 302.764H114.894V320.624H128.768V302.764Z" fill="black"/>
<path d="M96.9994 302.764H82.1729V320.624H96.9994V302.764Z" fill="black"/>
<path d="M65.231 302.764H49.4521V320.624H65.231V302.764Z" fill="black"/>
<path d="M33.4625 302.764H16.7314V320.624H33.4625V302.764Z" fill="black"/>
<path d="M398.874 285.197H392.617V303.057H398.874V285.197Z" fill="black"/>
<path d="M367.105 285.197H359.896V303.057H367.105V285.197Z" fill="black"/>
<path d="M335.337 285.197H327.176V303.057H335.337V285.197Z" fill="black"/>
<path d="M303.568 285.197H294.455V303.057H303.568V285.197Z" fill="black"/>
<path d="M271.8 285.197H261.734V303.057H271.8V285.197Z" fill="black"/>
<path d="M240.031 285.197H229.014V303.057H240.031V285.197Z" fill="black"/>
<path d="M208.256 285.197H196.286V303.057H208.256V285.197Z" fill="black"/>
<path d="M176.488 285.197H163.565V303.057H176.488V285.197Z" fill="black"/>
<path d="M144.719 285.197H130.845V303.057H144.719V285.197Z" fill="black"/>
<path d="M112.951 285.197H98.124V303.057H112.951V285.197Z" fill="black"/>
<path d="M81.1821 285.197H65.4033V303.057H81.1821V285.197Z" fill="black"/>
<path d="M49.4137 285.197H32.6826V303.057H49.4137V285.197Z" fill="black"/>
<path d="M16.731 285.197H0V303.057H16.731V285.197Z" fill="black"/>
<path d="M410.001 267.618H407.246V285.478H410.001V267.618Z" fill="black"/>
<path d="M382.923 267.12H376.666V284.98H382.923V267.12Z" fill="black"/>
<path d="M351.154 267.12H343.945V284.98H351.154V267.12Z" fill="black"/>
<path d="M319.386 267.12H311.225V284.98H319.386V267.12Z" fill="black"/>
<path d="M287.617 267.12H278.504V284.98H287.617V267.12Z" fill="black"/>
<path d="M255.849 267.12H245.783V284.98H255.849V267.12Z" fill="black"/>
<path d="M224.08 267.12H213.062V284.98H224.08V267.12Z" fill="black"/>
<path d="M192.312 267.12H180.342V284.98H192.312V267.12Z" fill="black"/>
<path d="M160.536 267.12H147.614V284.98H160.536V267.12Z" fill="black"/>
<path d="M128.768 267.12H114.894V284.98H128.768V267.12Z" fill="black"/>
<path d="M96.9994 267.12H82.1729V284.98H96.9994V267.12Z" fill="black"/>
<path d="M65.231 267.12H49.4521V284.98H65.231V267.12Z" fill="black"/>
<path d="M33.4625 267.12H16.7314V284.98H33.4625V267.12Z" fill="black"/>
<path d="M398.874 249.542H392.617V267.402H398.874V249.542Z" fill="black"/>
<path d="M367.105 249.542H359.896V267.402H367.105V249.542Z" fill="black"/>
<path d="M335.337 249.542H327.176V267.402H335.337V249.542Z" fill="black"/>
<path d="M303.568 249.542H294.455V267.402H303.568V249.542Z" fill="black"/>
<path d="M271.8 249.542H261.734V267.402H271.8V249.542Z" fill="black"/>
<path d="M240.031 249.542H229.014V267.402H240.031V249.542Z" fill="black"/>
<path d="M208.256 249.542H196.286V267.402H208.256V249.542Z" fill="black"/>
<path d="M176.488 249.542H163.565V267.402H176.488V249.542Z" fill="black"/>
<path d="M144.719 249.542H130.845V267.402H144.719V249.542Z" fill="black"/>
<path d="M112.951 249.542H98.124V267.402H112.951V249.542Z" fill="black"/>
<path d="M81.1821 249.542H65.4033V267.402H81.1821V249.542Z" fill="black"/>
<path d="M49.4137 249.542H32.6826V267.402H49.4137V249.542Z" fill="black"/>
<path d="M16.731 249.542H0V267.402H16.731V249.542Z" fill="black"/>
<path d="M410.001 231.974H407.246V249.834H410.001V231.974Z" fill="black"/>
<path d="M382.923 231.465H376.666V249.325H382.923V231.465Z" fill="black"/>
<path d="M351.154 231.465H343.945V249.325H351.154V231.465Z" fill="black"/>
<path d="M319.386 231.465H311.225V249.325H319.386V231.465Z" fill="black"/>
<path d="M287.617 231.465H278.504V249.325H287.617V231.465Z" fill="black"/>
<path d="M255.849 231.465H245.783V249.325H255.849V231.465Z" fill="black"/>
<path d="M224.08 231.465H213.062V249.325H224.08V231.465Z" fill="black"/>
<path d="M192.312 231.465H180.342V249.325H192.312V231.465Z" fill="black"/>
<path d="M160.536 231.465H147.614V249.325H160.536V231.465Z" fill="black"/>
<path d="M128.768 231.465H114.894V249.325H128.768V231.465Z" fill="black"/>
<path d="M96.9994 231.465H82.1729V249.325H96.9994V231.465Z" fill="black"/>
<path d="M65.231 231.465H49.4521V249.325H65.231V231.465Z" fill="black"/>
<path d="M33.4625 231.465H16.7314V249.325H33.4625V231.465Z" fill="black"/>
<path d="M398.874 213.898H392.617V231.758H398.874V213.898Z" fill="black"/>
<path d="M367.105 213.898H359.896V231.758H367.105V213.898Z" fill="black"/>
<path d="M335.337 213.898H327.176V231.758H335.337V213.898Z" fill="black"/>
<path d="M303.568 213.898H294.455V231.758H303.568V213.898Z" fill="black"/>
<path d="M271.8 213.898H261.734V231.758H271.8V213.898Z" fill="black"/>
<path d="M240.031 213.898H229.014V231.758H240.031V213.898Z" fill="black"/>
<path d="M208.256 213.898H196.286V231.758H208.256V213.898Z" fill="black"/>
<path d="M176.488 213.898H163.565V231.758H176.488V213.898Z" fill="black"/>
<path d="M144.719 213.898H130.845V231.758H144.719V213.898Z" fill="black"/>
<path d="M112.951 213.898H98.124V231.758H112.951V213.898Z" fill="black"/>
<path d="M81.1821 213.898H65.4033V231.758H81.1821V213.898Z" fill="black"/>
<path d="M49.4137 213.898H32.6826V231.758H49.4137V213.898Z" fill="black"/>
<path d="M16.731 213.898H0V231.758H16.731V213.898Z" fill="black"/>
<path d="M410.001 196.319H407.246V214.179H410.001V196.319Z" fill="black"/>
<path d="M382.923 195.821H376.666V213.681H382.923V195.821Z" fill="black"/>
<path d="M351.154 195.821H343.945V213.681H351.154V195.821Z" fill="black"/>
<path d="M319.386 195.821H311.225V213.681H319.386V195.821Z" fill="black"/>
<path d="M287.617 195.821H278.504V213.681H287.617V195.821Z" fill="black"/>
<path d="M255.849 195.821H245.783V213.681H255.849V195.821Z" fill="black"/>
<path d="M224.08 195.821H213.062V213.681H224.08V195.821Z" fill="black"/>
<path d="M192.312 195.821H180.342V213.681H192.312V195.821Z" fill="black"/>
<path d="M160.536 195.821H147.614V213.681H160.536V195.821Z" fill="black"/>
<path d="M128.768 195.821H114.894V213.681H128.768V195.821Z" fill="black"/>
<path d="M96.9994 195.821H82.1729V213.681H96.9994V195.821Z" fill="black"/>
<path d="M65.231 195.821H49.4521V213.681H65.231V195.821Z" fill="black"/>
<path d="M33.4625 195.821H16.7314V213.681H33.4625V195.821Z" fill="black"/>
<path d="M398.874 178.243H392.617V196.103H398.874V178.243Z" fill="black"/>
<path d="M367.105 178.243H359.896V196.103H367.105V178.243Z" fill="black"/>
<path d="M335.337 178.243H327.176V196.103H335.337V178.243Z" fill="black"/>
<path d="M303.568 178.243H294.455V196.103H303.568V178.243Z" fill="black"/>
<path d="M271.8 178.243H261.734V196.103H271.8V178.243Z" fill="black"/>
<path d="M240.031 178.243H229.014V196.103H240.031V178.243Z" fill="black"/>
<path d="M208.256 178.243H196.286V196.103H208.256V178.243Z" fill="black"/>
<path d="M176.488 178.243H163.565V196.103H176.488V178.243Z" fill="black"/>
<path d="M144.719 178.243H130.845V196.103H144.719V178.243Z" fill="black"/>
<path d="M112.951 178.243H98.124V196.103H112.951V178.243Z" fill="black"/>
<path d="M81.1821 178.243H65.4033V196.103H81.1821V178.243Z" fill="black"/>
<path d="M49.4137 178.243H32.6826V196.103H49.4137V178.243Z" fill="black"/>
<path d="M16.731 178.243H0V196.103H16.731V178.243Z" fill="black"/>
<path d="M410.001 160.675H407.246V178.535H410.001V160.675Z" fill="black"/>
<path d="M382.923 160.166H376.666V178.026H382.923V160.166Z" fill="black"/>
<path d="M351.154 160.166H343.945V178.026H351.154V160.166Z" fill="black"/>
<path d="M319.386 160.166H311.225V178.026H319.386V160.166Z" fill="black"/>
<path d="M287.617 160.166H278.504V178.026H287.617V160.166Z" fill="black"/>
<path d="M255.849 160.166H245.783V178.026H255.849V160.166Z" fill="black"/>
<path d="M224.08 160.166H213.062V178.026H224.08V160.166Z" fill="black"/>
<path d="M192.312 160.166H180.342V178.026H192.312V160.166Z" fill="black"/>
<path d="M160.536 160.166H147.614V178.026H160.536V160.166Z" fill="black"/>
<path d="M128.768 160.166H114.894V178.026H128.768V160.166Z" fill="black"/>
<path d="M96.9994 160.166H82.1729V178.026H96.9994V160.166Z" fill="black"/>
<path d="M65.231 160.166H49.4521V178.026H65.231V160.166Z" fill="black"/>
<path d="M33.4625 160.166H16.7314V178.026H33.4625V160.166Z" fill="black"/>
<path d="M398.874 142.598H392.617V160.458H398.874V142.598Z" fill="black"/>
<path d="M367.105 142.598H359.896V160.458H367.105V142.598Z" fill="black"/>
<path d="M335.337 142.598H327.176V160.458H335.337V142.598Z" fill="black"/>
<path d="M303.568 142.598H294.455V160.458H303.568V142.598Z" fill="black"/>
<path d="M271.8 142.598H261.734V160.458H271.8V142.598Z" fill="black"/>
<path d="M240.031 142.598H229.014V160.458H240.031V142.598Z" fill="black"/>
<path d="M208.256 142.598H196.286V160.458H208.256V142.598Z" fill="black"/>
<path d="M176.488 142.598H163.565V160.458H176.488V142.598Z" fill="black"/>
<path d="M144.719 142.598H130.845V160.458H144.719V142.598Z" fill="black"/>
<path d="M112.951 142.598H98.124V160.458H112.951V142.598Z" fill="black"/>
<path d="M81.1821 142.598H65.4033V160.458H81.1821V142.598Z" fill="black"/>
<path d="M49.4137 142.598H32.6826V160.458H49.4137V142.598Z" fill="black"/>
<path d="M16.731 142.598H0V160.458H16.731V142.598Z" fill="black"/>
<path d="M410.001 125.031H407.246V142.891H410.001V125.031Z" fill="black"/>
<path d="M382.923 124.522H376.666V142.382H382.923V124.522Z" fill="black"/>
<path d="M351.154 124.522H343.945V142.382H351.154V124.522Z" fill="black"/>
<path d="M319.386 124.522H311.225V142.382H319.386V124.522Z" fill="black"/>
<path d="M287.617 124.522H278.504V142.382H287.617V124.522Z" fill="black"/>
<path d="M255.849 124.522H245.783V142.382H255.849V124.522Z" fill="black"/>
<path d="M224.08 124.522H213.062V142.382H224.08V124.522Z" fill="black"/>
<path d="M192.312 124.522H180.342V142.382H192.312V124.522Z" fill="black"/>
<path d="M160.536 124.522H147.614V142.382H160.536V124.522Z" fill="black"/>
<path d="M128.768 124.522H114.894V142.382H128.768V124.522Z" fill="black"/>
<path d="M96.9994 124.522H82.1729V142.382H96.9994V124.522Z" fill="black"/>
<path d="M65.231 124.522H49.4521V142.382H65.231V124.522Z" fill="black"/>
<path d="M33.4625 124.522H16.7314V142.382H33.4625V124.522Z" fill="black"/>
<path d="M398.874 106.943H392.617V124.803H398.874V106.943Z" fill="black"/>
<path d="M367.105 106.943H359.896V124.803H367.105V106.943Z" fill="black"/>
<path d="M335.337 106.943H327.176V124.803H335.337V106.943Z" fill="black"/>
<path d="M303.568 106.943H294.455V124.803H303.568V106.943Z" fill="black"/>
<path d="M271.8 106.943H261.734V124.803H271.8V106.943Z" fill="black"/>
<path d="M240.031 106.943H229.014V124.803H240.031V106.943Z" fill="black"/>
<path d="M208.256 106.943H196.286V124.803H208.256V106.943Z" fill="black"/>
<path d="M176.488 106.943H163.565V124.803H176.488V106.943Z" fill="black"/>
<path d="M144.719 106.943H130.845V124.803H144.719V106.943Z" fill="black"/>
<path d="M112.951 106.943H98.124V124.803H112.951V106.943Z" fill="black"/>
<path d="M81.1821 106.943H65.4033V124.803H81.1821V106.943Z" fill="black"/>
<path d="M49.4137 106.943H32.6826V124.803H49.4137V106.943Z" fill="black"/>
<path d="M16.731 106.943H0V124.803H16.731V106.943Z" fill="black"/>
<path d="M410.001 89.3758H407.246V107.236H410.001V89.3758Z" fill="black"/>
<path d="M382.923 88.8668H376.666V106.727H382.923V88.8668Z" fill="black"/>
<path d="M351.154 88.8668H343.945V106.727H351.154V88.8668Z" fill="black"/>
<path d="M319.386 88.8668H311.225V106.727H319.386V88.8668Z" fill="black"/>
<path d="M287.617 88.8668H278.504V106.727H287.617V88.8668Z" fill="black"/>
<path d="M255.849 88.8668H245.783V106.727H255.849V88.8668Z" fill="black"/>
<path d="M224.08 88.8668H213.062V106.727H224.08V88.8668Z" fill="black"/>
<path d="M192.312 88.8668H180.342V106.727H192.312V88.8668Z" fill="black"/>
<path d="M160.536 88.8668H147.614V106.727H160.536V88.8668Z" fill="black"/>
<path d="M128.768 88.8668H114.894V106.727H128.768V88.8668Z" fill="black"/>
<path d="M96.9994 88.8668H82.1729V106.727H96.9994V88.8668Z" fill="black"/>
<path d="M65.231 88.8668H49.4521V106.727H65.231V88.8668Z" fill="black"/>
<path d="M33.4625 88.8668H16.7314V106.727H33.4625V88.8668Z" fill="black"/>
<path d="M398.874 71.2992H392.617V89.1592H398.874V71.2992Z" fill="black"/>
<path d="M367.105 71.2992H359.896V89.1592H367.105V71.2992Z" fill="black"/>
<path d="M335.337 71.2992H327.176V89.1592H335.337V71.2992Z" fill="black"/>
<path d="M303.568 71.2992H294.455V89.1592H303.568V71.2992Z" fill="black"/>
<path d="M271.8 71.2992H261.734V89.1592H271.8V71.2992Z" fill="black"/>
<path d="M240.031 71.2992H229.014V89.1592H240.031V71.2992Z" fill="black"/>
<path d="M208.256 71.2992H196.286V89.1592H208.256V71.2992Z" fill="black"/>
<path d="M176.488 71.2992H163.565V89.1592H176.488V71.2992Z" fill="black"/>
<path d="M144.719 71.2992H130.845V89.1592H144.719V71.2992Z" fill="black"/>
<path d="M112.951 71.2992H98.124V89.1592H112.951V71.2992Z" fill="black"/>
<path d="M81.1821 71.2992H65.4033V89.1592H81.1821V71.2992Z" fill="black"/>
<path d="M49.4137 71.2992H32.6826V89.1592H49.4137V71.2992Z" fill="black"/>
<path d="M16.731 71.2992H0V89.1592H16.731V71.2992Z" fill="black"/>
<path d="M410.001 53.7316H407.246V71.5916H410.001V53.7316Z" fill="black"/>
<path d="M382.923 53.2225H376.666V71.0825H382.923V53.2225Z" fill="black"/>
<path d="M351.154 53.2225H343.945V71.0825H351.154V53.2225Z" fill="black"/>
<path d="M319.386 53.2225H311.225V71.0825H319.386V53.2225Z" fill="black"/>
<path d="M287.617 53.2225H278.504V71.0825H287.617V53.2225Z" fill="black"/>
<path d="M255.849 53.2225H245.783V71.0825H255.849V53.2225Z" fill="black"/>
<path d="M224.08 53.2225H213.062V71.0825H224.08V53.2225Z" fill="black"/>
<path d="M192.312 53.2225H180.342V71.0825H192.312V53.2225Z" fill="black"/>
<path d="M160.536 53.2225H147.614V71.0825H160.536V53.2225Z" fill="black"/>
<path d="M128.768 53.2225H114.894V71.0825H128.768V53.2225Z" fill="black"/>
<path d="M96.9994 53.2225H82.1729V71.0825H96.9994V53.2225Z" fill="black"/>
<path d="M65.231 53.2225H49.4521V71.0825H65.231V53.2225Z" fill="black"/>
<path d="M33.4625 53.2225H16.7314V71.0825H33.4625V53.2225Z" fill="black"/>
<path d="M410.001 18.0766H407.246V35.9366H410.001V18.0766Z" fill="black"/>
<path d="M382.923 17.5676H376.666V35.4276H382.923V17.5676Z" fill="black"/>
<path d="M351.154 17.5676H343.945V35.4276H351.154V17.5676Z" fill="black"/>
<path d="M319.386 17.5676H311.225V35.4276H319.386V17.5676Z" fill="black"/>
<path d="M287.617 17.5676H278.504V35.4276H287.617V17.5676Z" fill="black"/>
<path d="M255.849 17.5676H245.783V35.4276H255.849V17.5676Z" fill="black"/>
<path d="M224.08 17.5676H213.062V35.4276H224.08V17.5676Z" fill="black"/>
<path d="M192.312 17.5676H180.342V35.4276H192.312V17.5676Z" fill="black"/>
<path d="M160.536 17.5676H147.614V35.4276H160.536V17.5676Z" fill="black"/>
<path d="M128.768 17.5676H114.894V35.4276H128.768V17.5676Z" fill="black"/>
<path d="M96.9994 17.5676H82.1729V35.4276H96.9994V17.5676Z" fill="black"/>
<path d="M65.231 17.5676H49.4521V35.4276H65.231V17.5676Z" fill="black"/>
<path d="M33.4625 17.5676H16.7314V35.4276H33.4625V17.5676Z" fill="black"/>
<path d="M398.874 35.6442H392.617V53.5042H398.874V35.6442Z" fill="black"/>
<path d="M367.105 35.6442H359.896V53.5042H367.105V35.6442Z" fill="black"/>
<path d="M335.337 35.6442H327.176V53.5042H335.337V35.6442Z" fill="black"/>
<path d="M303.568 35.6442H294.455V53.5042H303.568V35.6442Z" fill="black"/>
<path d="M271.8 35.6442H261.734V53.5042H271.8V35.6442Z" fill="black"/>
<path d="M240.031 35.6442H229.014V53.5042H240.031V35.6442Z" fill="black"/>
<path d="M208.256 35.6442H196.286V53.5042H208.256V35.6442Z" fill="black"/>
<path d="M176.488 35.6442H163.565V53.5042H176.488V35.6442Z" fill="black"/>
<path d="M144.719 35.6442H130.845V53.5042H144.719V35.6442Z" fill="black"/>
<path d="M112.951 35.6442H98.124V53.5042H112.951V35.6442Z" fill="black"/>
<path d="M81.1821 35.6442H65.4033V53.5042H81.1821V35.6442Z" fill="black"/>
<path d="M49.4137 35.6442H32.6826V53.5042H49.4137V35.6442Z" fill="black"/>
<path d="M16.731 35.6442H0V53.5042H16.731V35.6442Z" fill="black"/>
<path d="M398.874 0H392.617V17.86H398.874V0Z" fill="black"/>
<path d="M367.105 0H359.896V17.86H367.105V0Z" fill="black"/>
<path d="M335.337 0H327.176V17.86H335.337V0Z" fill="black"/>
<path d="M303.568 0H294.455V17.86H303.568V0Z" fill="black"/>
<path d="M271.8 0H261.734V17.86H271.8V0Z" fill="black"/>
<path d="M240.031 0H229.014V17.86H240.031V0Z" fill="black"/>
<path d="M208.256 0H196.286V17.86H208.256V0Z" fill="black"/>
<path d="M176.488 0H163.565V17.86H176.488V0Z" fill="black"/>
<path d="M144.719 0H130.845V17.86H144.719V0Z" fill="black"/>
<path d="M112.951 0H98.124V17.86H112.951V0Z" fill="black"/>
<path d="M81.1821 0H65.4033V17.86H81.1821V0Z" fill="black"/>
<path d="M49.4137 0H32.6826V17.86H49.4137V0Z" fill="black"/>
<path d="M16.731 0H0V17.86H16.731V0Z" fill="black"/>
<path d="M398.874 392.14H392.617V410H398.874V392.14Z" fill="black"/>
<path d="M367.105 392.14H359.896V410H367.105V392.14Z" fill="black"/>
<path d="M335.337 392.14H327.176V410H335.337V392.14Z" fill="black"/>
<path d="M303.568 392.14H294.455V410H303.568V392.14Z" fill="black"/>
<path d="M271.8 392.14H261.734V410H271.8V392.14Z" fill="black"/>
<path d="M240.031 392.14H229.014V410H240.031V392.14Z" fill="black"/>
<path d="M208.256 392.14H196.286V410H208.256V392.14Z" fill="black"/>
<path d="M176.488 392.14H163.565V410H176.488V392.14Z" fill="black"/>
<path d="M144.719 392.14H130.845V410H144.719V392.14Z" fill="black"/>
<path d="M112.951 392.14H98.124V410H112.951V392.14Z" fill="black"/>
<path d="M81.1821 392.14H65.4033V410H81.1821V392.14Z" fill="black"/>
<path d="M49.4137 392.14H32.6826V410H49.4137V392.14Z" fill="black"/>
<path d="M16.731 392.14H0V410H16.731V392.14Z" fill="black"/>
</g>
<defs>
<clipPath id="clip0_1199_6150">
<rect width="410" height="410" fill="white"/>
</clipPath>
</defs>
</svg>
