<svg width="130" height="39" viewBox="0 0 130 39" fill="none" xmlns="http://www.w3.org/2000/svg">
<g clip-path="url(#clip0_870_3685)">
<path d="M22.4057 9.77551C23.2815 9.8259 23.9413 10.3442 23.9413 10.3442L30.2735 15.8653C31.2428 17.329 30.2447 18.1232 30.2447 18.1232C30.2447 18.1232 29.4337 18.831 28.3467 19.7764C28.3467 19.7764 26.6455 21.1465 28.3179 22.6558L32.4378 26.2478C34.2014 27.9802 36.0178 26.4901 36.0178 26.4901L38.2325 25.0624C38.2325 25.0624 38.2325 25.0624 41.2942 23.0901C44.3535 21.1177 44.0391 17.5449 44.0391 17.5449C44.0127 11.9422 38.0213 10.9392 38.0213 10.9392C38.0213 10.9392 33.5583 10.8409 31.2644 5.96038C28.685 0.465633 22.4368 0.753568 22.4368 0.753568H22.3625C22.3625 0.753568 16.1167 0.465633 13.5349 5.96038C11.2482 10.8457 6.78281 10.944 6.78281 10.944C6.78281 10.944 0.791375 11.947 0.764981 17.5497C0.764981 17.5497 0.450653 21.1225 3.51236 23.0949C6.57406 25.0672 6.57406 25.0672 6.57406 25.0672L8.78875 26.4949C8.78875 26.4949 10.6027 27.985 12.3687 26.2526L16.4886 22.6606C18.161 21.1489 16.4598 19.7812 16.4598 19.7812C15.3753 18.8358 14.5618 18.128 14.5618 18.128C14.5618 18.128 13.5637 17.3338 14.5354 15.8701L20.8652 10.3418C20.8652 10.3418 21.5299 9.8259 22.4057 9.77551Z" stroke="#EBE0CF" stroke-width="1.51298"/>
<path d="M22.9761 34.823C22.9977 34.7966 23.0193 34.7702 23.0385 34.7463C23.1825 34.7798 23.2497 34.6239 23.3792 34.6095C23.36 34.6095 23.3408 34.6071 23.3241 34.6071C23.3336 34.5975 23.3432 34.5879 23.3504 34.5807C23.3888 34.5783 23.4248 34.5735 23.4848 34.5687C23.5112 34.5519 23.5592 34.5207 23.6048 34.4895C23.6024 34.4847 23.5976 34.4799 23.5952 34.4751C23.6312 34.4799 23.6696 34.4847 23.7272 34.4919C23.6888 34.4679 23.672 34.4559 23.6456 34.4391C23.8039 34.4319 23.8111 34.4151 23.8399 34.3935C23.8999 34.3455 23.9743 34.3143 23.9863 34.2184C23.9959 34.24 24.0055 34.2616 24.0199 34.2952C24.0319 34.2616 24.0391 34.24 24.0439 34.2232C24.1303 34.1872 24.2094 34.1536 24.2934 34.12C24.2934 34.1128 24.2886 34.0984 24.291 34.1008C24.387 34.0552 24.4782 34.0144 24.5646 33.9664C24.5886 33.952 24.627 33.94 24.6174 33.88C24.6126 33.8561 24.6917 33.8153 24.7421 33.7913C24.7565 33.7649 24.7637 33.7289 24.7853 33.7169C24.8453 33.6857 24.8909 33.6185 24.9725 33.6305C24.9941 33.5441 25.138 33.5849 25.138 33.4697C25.138 33.4457 25.1836 33.4218 25.2196 33.3882C25.2196 33.3882 25.2364 33.3978 25.2484 33.4074C25.2724 33.3882 25.2964 33.3666 25.3228 33.3498C25.3876 33.3066 25.438 33.2418 25.4932 33.2058C25.5627 33.1602 25.5555 33.1218 25.5507 33.0594C25.6347 33.0522 25.6131 32.9899 25.6107 32.9515C25.6731 32.8891 25.7283 32.8363 25.7931 32.7739C25.7787 32.6707 26.0498 32.426 26.1242 32.3972C26.1578 32.3444 26.177 32.3108 26.2058 32.2652C26.2106 32.27 26.201 32.258 26.201 32.258C26.2322 32.1788 26.261 32.1093 26.2922 32.0325C26.2874 32.0229 26.2346 32.0013 26.3042 31.9797C26.3138 31.9773 26.3234 31.9629 26.3258 31.9533C26.357 31.8261 26.3882 31.6989 26.4145 31.5718C26.4289 31.507 26.4049 31.4302 26.4673 31.3798C26.4553 31.3678 26.4433 31.3534 26.4289 31.339C26.4433 31.3342 26.4625 31.327 26.4841 31.3222C26.4529 31.243 26.4889 30.8015 26.5249 30.7752C26.5177 30.7512 26.5057 30.732 26.5057 30.7104C26.5033 30.6288 26.5057 30.5448 26.5033 30.4632C26.5009 30.408 26.4937 30.3529 26.4889 30.2977C26.4817 30.2209 26.4793 30.1441 26.4673 30.0673C26.4625 30.0337 26.4433 30.0025 26.4361 29.9713C26.4313 29.9569 26.4433 29.9377 26.4409 29.9233C26.4217 29.8106 26.4145 29.6954 26.3738 29.5898C26.3474 29.5202 26.3762 29.4435 26.3138 29.3787C26.273 29.3379 26.273 29.2611 26.2538 29.1987C26.237 29.1459 26.2442 29.0859 26.1938 29.038C26.1626 29.0068 26.1698 28.9372 26.153 28.8892C26.1362 28.846 26.105 28.81 26.0858 28.7692C26.0714 28.7428 26.0714 28.7068 26.0594 28.6804C26.0114 28.5845 25.9635 28.4885 25.9059 28.3997C25.8507 28.3109 25.7835 28.2269 25.7211 28.1406C25.7067 28.119 25.6995 28.0926 25.6851 28.071C25.6731 28.0518 25.6563 28.0374 25.6395 28.023C25.6131 27.999 25.5867 27.975 25.5627 27.9486C25.4788 27.8502 25.4068 27.7398 25.3084 27.6583C25.2508 27.6103 25.2316 27.5095 25.1308 27.5143C25.126 27.5143 25.1236 27.4855 25.114 27.4783C25.0373 27.4159 24.9557 27.3535 24.8789 27.2911C24.8357 27.2576 24.7997 27.212 24.7565 27.1832C24.7205 27.1592 24.6749 27.1472 24.6486 27.1352C24.6126 27.104 24.5886 27.0824 24.5598 27.0608C24.531 27.0368 24.5022 27.0128 24.471 26.996C24.4518 26.984 24.423 26.9888 24.4014 26.9792C24.3054 26.9312 24.2023 26.8976 24.1231 26.8185C24.1207 26.8161 24.1183 26.8137 24.1159 26.8137C24.0391 26.8257 23.9839 26.7945 23.9263 26.7465C23.8951 26.7201 23.8375 26.7201 23.7919 26.7105C23.7344 26.6961 23.6552 26.7033 23.6192 26.6673C23.5472 26.5977 23.456 26.6145 23.3768 26.5833C23.2977 26.5521 23.2065 26.5569 23.1201 26.5425C23.0073 26.5233 22.8945 26.4897 22.7794 26.4777C22.6474 26.4633 22.513 26.4609 22.3787 26.4609C22.2299 26.4633 22.0787 26.4705 21.93 26.4873C21.8268 26.4969 21.7236 26.5257 21.6204 26.5449C21.5437 26.5593 21.4645 26.5617 21.3877 26.5785C21.3469 26.5881 21.3109 26.6193 21.2725 26.6385C21.2461 26.6505 21.2173 26.6529 21.2101 26.6553C21.1381 26.6889 21.083 26.7057 21.0446 26.7393C21.0206 26.7609 20.9966 26.7633 20.975 26.7753C20.8646 26.8329 20.7494 26.8928 20.6511 26.9696C20.5767 27.0272 20.5263 27.116 20.4543 27.1784C20.3487 27.2696 20.2863 27.3871 20.224 27.5071C20.1952 27.5647 20.176 27.6271 20.1448 27.6847C20.128 27.7183 20.0872 27.7446 20.08 27.7806C20.0584 27.8694 20.0536 27.9606 20.0368 28.0494C20.0272 28.1118 20.0368 28.1789 19.9912 28.2341C19.9768 28.2533 19.9888 28.2965 19.9936 28.3253C20.0128 28.4501 20.0248 28.5773 20.0536 28.6996C20.0704 28.7668 20.0944 28.834 20.14 28.8964C20.1784 28.9468 20.1832 29.026 20.1952 29.0691C20.4327 29.3835 20.7206 29.5922 21.1118 29.6498C21.107 29.6594 21.1142 29.6474 21.119 29.6354C21.1861 29.6882 21.2533 29.7002 21.3421 29.693C21.4597 29.681 21.582 29.7098 21.6948 29.7194C21.6828 29.765 21.654 29.8202 21.666 29.8346C21.6948 29.8634 21.7452 29.8754 21.7884 29.8898C21.8172 29.8994 21.8508 29.8994 21.882 29.9042C21.8916 29.9042 21.9036 29.9066 21.9108 29.9018C22.0283 29.825 22.1363 29.8946 22.2443 29.9257C22.3715 29.9617 22.4003 30.0793 22.4482 30.1825C22.4866 30.2665 22.5442 30.3409 22.5802 30.4224C22.6138 30.5016 22.6354 30.5856 22.657 30.6696C22.6714 30.7272 22.6738 30.7872 22.6834 30.8471C22.6858 30.8543 22.7074 30.8591 22.729 30.8687C22.7122 30.8831 22.6978 30.8951 22.6906 30.9023C22.705 30.9287 22.729 30.9503 22.729 30.9719C22.7362 31.0751 22.7458 31.1807 22.7362 31.2838C22.7266 31.4062 22.7362 31.531 22.669 31.6462C22.6426 31.6941 22.6498 31.7613 22.633 31.8165C22.6186 31.8621 22.5826 31.8981 22.5706 31.9437C22.537 32.0709 22.4387 32.1572 22.3643 32.2556C22.3019 32.3372 22.1939 32.3804 22.1051 32.438C22.0451 32.4788 21.9876 32.5268 21.9228 32.558C21.8172 32.6083 21.7044 32.6419 21.5988 32.6923C21.4621 32.7595 21.3133 32.7667 21.1669 32.7811C21.0902 32.7883 21.011 32.8027 20.9366 32.7979C20.759 32.7835 20.5815 32.7451 20.4039 32.7451C20.3055 32.7451 20.2432 32.6803 20.1592 32.6683C20.0824 32.6563 20.0056 32.6515 19.9312 32.6347C19.8592 32.6179 19.7873 32.5915 19.7153 32.5723C19.6265 32.5484 19.5377 32.5268 19.4489 32.498C19.3386 32.4644 19.2258 32.4332 19.1202 32.3876C18.9067 32.294 18.6811 32.2268 18.4844 32.1069C18.4292 32.0733 18.3596 32.0517 18.3068 31.9941C18.2684 31.9509 18.182 31.9317 18.1244 31.8837C18.0525 31.8237 17.9709 31.7709 17.8989 31.7085C17.8149 31.6318 17.7381 31.5502 17.6613 31.4662C17.6086 31.411 17.5654 31.3462 17.515 31.2886C17.4454 31.2095 17.3686 31.1351 17.3038 31.0511C17.2078 30.9263 17.1023 30.8039 17.0351 30.6624C16.9991 30.588 16.9607 30.5136 16.9151 30.444C16.9007 30.42 16.8839 30.3984 16.8575 30.36C16.8575 30.3648 16.8647 30.3457 16.8599 30.3313C16.8335 30.2665 16.8167 30.1945 16.7759 30.1417C16.668 30.0145 16.6488 29.849 16.5792 29.705C16.5048 29.5514 16.4664 29.3787 16.4208 29.2131C16.4112 29.1771 16.4232 29.1315 16.4256 29.0931C16.4256 29.0835 16.428 29.0691 16.4232 29.0619C16.3008 28.9084 16.344 28.7188 16.3152 28.5461C16.2913 28.4069 16.2745 28.2653 16.2625 28.1214C16.2529 28.0086 16.2577 27.8958 16.2601 27.7854C16.2601 27.7614 16.2769 27.7398 16.2865 27.7159C16.2745 27.7111 16.2601 27.7063 16.2433 27.6991C16.2673 27.6775 16.2865 27.6607 16.3104 27.6367C16.2913 27.6271 16.2769 27.6223 16.2697 27.6175C16.2769 27.5791 16.3009 27.5383 16.2889 27.5095C16.2577 27.4279 16.32 27.3631 16.3176 27.2911C16.3152 27.1592 16.3344 27.0296 16.3776 26.9024C16.4088 26.8065 16.4232 26.7057 16.4568 26.6097C16.4784 26.5449 16.4544 26.4489 16.5456 26.4369C16.5504 26.389 16.5528 26.3506 16.56 26.3122C16.5672 26.2738 16.584 26.2378 16.596 26.1922C16.608 26.1898 16.6296 26.1874 16.644 26.1874C16.656 26.1322 16.6632 26.0794 16.6824 26.029C16.6968 25.9906 16.7232 25.9571 16.7447 25.9211C16.7543 25.9043 16.7711 25.8851 16.7735 25.8659C16.7783 25.8155 16.7711 25.7603 16.8407 25.7483C16.8359 25.7315 16.8335 25.7147 16.8335 25.7147C16.9127 25.5875 16.9871 25.4628 17.0663 25.3452C17.1527 25.2204 17.2486 25.1004 17.3398 24.9781C17.3326 24.9757 17.3254 24.9709 17.3206 24.9685C17.3374 24.9685 17.371 24.9709 17.3734 24.9685C17.3878 24.8605 17.5246 24.8437 17.5462 24.7381C17.5486 24.7261 17.5846 24.7261 17.5966 24.7117C17.6517 24.6517 17.6973 24.5846 17.7573 24.5318C17.8053 24.4862 17.8677 24.4574 17.9085 24.4286C17.9565 24.371 17.9949 24.3278 18.0333 24.2822C18.0716 24.2702 18.1148 24.2558 18.1604 24.2414C18.1484 24.2055 18.206 24.1479 18.254 24.1407C18.2684 24.1383 18.2852 24.1239 18.2972 24.1119C18.3572 24.0519 18.4172 23.9991 18.5107 23.9871C18.5587 23.9799 18.5851 23.9079 18.6475 23.8863C18.7003 23.8695 18.7387 23.8143 18.7915 23.7879C18.8899 23.7352 18.9954 23.6944 19.0962 23.644C19.1562 23.6128 19.2114 23.5744 19.2714 23.5408C19.2882 23.5312 19.3122 23.5312 19.3338 23.5264C19.3674 23.5192 19.4177 23.524 19.4345 23.5024C19.4873 23.4376 19.5569 23.4304 19.6289 23.4136C19.6769 23.404 19.7249 23.3488 19.7633 23.356C19.852 23.3776 19.9024 23.3033 19.9792 23.2961C20.0488 23.2913 20.1136 23.2505 20.1832 23.2289C20.2144 23.2193 20.248 23.2241 20.2791 23.2169C20.4135 23.1953 20.5455 23.1713 20.6799 23.1473C20.711 23.1425 20.7398 23.1377 20.7806 23.1329C20.7782 23.1425 20.7806 23.1329 20.783 23.1257C20.7854 23.1185 20.7854 23.1089 20.7878 23.0969C20.8046 23.1041 20.8214 23.1209 20.8358 23.1185C21.0086 23.0897 21.1813 23.0561 21.3565 23.0273C21.4213 23.0177 21.4861 23.0201 21.5509 23.0201C21.8892 23.0201 22.2251 23.0153 22.5634 23.0225C22.6882 23.0249 22.8106 23.0537 22.9353 23.0681C22.9953 23.0753 23.0553 23.0801 23.1153 23.0849C23.2065 23.0921 23.2953 23.0945 23.3864 23.1065C23.4176 23.1113 23.4464 23.1401 23.4776 23.1449C23.6192 23.1713 23.7656 23.1881 23.9071 23.2193C24.0055 23.2409 24.1015 23.2793 24.1975 23.3105C24.2071 23.3129 24.2238 23.3033 24.2334 23.3081C24.2622 23.3177 24.291 23.3321 24.339 23.3536C24.3798 23.3584 24.4446 23.3608 24.5046 23.38C24.5982 23.4064 24.6869 23.44 24.7781 23.476C24.8813 23.5144 24.9821 23.5576 25.0853 23.5984C25.1548 23.6248 25.222 23.6488 25.2916 23.6752C25.3972 23.716 25.5172 23.7376 25.6011 23.8047C25.6707 23.8623 25.7547 23.8551 25.8219 23.9007C25.9179 23.9631 26.021 24.0135 26.1218 24.0687C26.2466 24.1383 26.3786 24.1983 26.4913 24.2846C26.5513 24.3302 26.6113 24.3518 26.6737 24.383C26.7433 24.419 26.7985 24.479 26.8608 24.527C26.8872 24.5486 26.916 24.5654 26.9424 24.587C26.9664 24.6062 26.9856 24.6278 27.0072 24.6494C27.0168 24.6589 27.0216 24.6757 27.0312 24.6781C27.1224 24.7021 27.1824 24.7669 27.252 24.8221C27.3263 24.8821 27.3959 24.9469 27.4679 25.0093C27.5351 25.0669 27.6095 25.1196 27.6743 25.1796C27.739 25.2396 27.799 25.3068 27.8638 25.3692C27.8902 25.3956 27.9214 25.4124 27.9478 25.4388C28.0222 25.5156 28.0846 25.6115 28.1709 25.6691C28.2261 25.7075 28.2405 25.7507 28.2645 25.7987C28.2861 25.8419 28.3437 25.8275 28.3725 25.8779C28.4493 26.005 28.5741 26.0962 28.6364 26.2378C28.6628 26.2978 28.742 26.3338 28.79 26.3866C28.814 26.4129 28.8212 26.4561 28.8428 26.4873C28.9148 26.5929 29.0132 26.6889 29.0563 26.8065C29.0971 26.9144 29.2123 26.972 29.2195 27.0968C29.2219 27.128 29.2651 27.1544 29.2843 27.188C29.3491 27.3055 29.4139 27.4231 29.4739 27.5431C29.4762 27.5479 29.4595 27.5599 29.4499 27.5719C29.481 27.6007 29.5146 27.6295 29.5482 27.6607C29.5338 27.6799 29.5194 27.6943 29.5026 27.7135C29.5098 27.7183 29.5122 27.7207 29.517 27.7231C29.5362 27.735 29.5698 27.7446 29.577 27.7614C29.6106 27.8502 29.637 27.939 29.6682 28.0278C29.6802 28.0614 29.7018 28.0902 29.7114 28.1214C29.733 28.1837 29.7522 28.2485 29.7738 28.3109C29.793 28.3613 29.8146 28.4117 29.8386 28.4597C29.8458 28.4765 29.8674 28.4933 29.865 28.5053C29.8338 28.6204 29.913 28.7092 29.9465 28.8052C29.9825 28.9108 29.9777 29.0284 30.0305 29.1291C30.0377 29.1411 30.0161 29.1675 30.0089 29.1819C30.0305 29.2251 30.0497 29.2683 30.0713 29.3139C30.0185 29.3643 30.1601 29.4291 30.0665 29.489C30.0881 29.5082 30.1097 29.525 30.1145 29.5322C30.1241 29.6306 30.1313 29.7146 30.1409 29.7986C30.1697 30.0385 30.2081 30.2809 30.2297 30.5208C30.2417 30.648 30.2249 30.7776 30.2201 30.9071C30.2153 31.0391 30.2057 31.1735 30.2009 31.3054C30.1985 31.3654 30.2105 31.4254 30.2057 31.4854C30.1985 31.5526 30.1793 31.6174 30.1673 31.6821C30.1505 31.7685 30.1361 31.8573 30.1169 31.9437C30.1001 32.0253 30.1049 32.1093 30.0785 32.1932C30.0329 32.3348 30.0161 32.486 29.9825 32.6323C29.9705 32.6875 29.9465 32.7427 29.9297 32.7979C29.9177 32.8387 29.9106 32.8795 29.8986 32.9203C29.8818 32.9755 29.8602 33.0306 29.8434 33.0858C29.805 33.1986 29.7714 33.3138 29.7306 33.4266C29.7138 33.4721 29.6826 33.5153 29.661 33.5609C29.613 33.6569 29.553 33.7505 29.5266 33.8537C29.5026 33.9472 29.4379 34.012 29.4091 34.0984C29.3491 34.2784 29.2507 34.4367 29.1499 34.5951C29.0827 34.6983 29.0419 34.8206 28.9412 34.9046C28.9292 34.9142 28.9364 34.9478 28.9364 34.955C28.9076 34.9886 28.8788 35.0126 28.862 35.0438C28.8308 35.099 28.7852 35.1446 28.754 35.1949C28.7084 35.2717 28.6508 35.3365 28.5981 35.4037C28.5381 35.4829 28.4733 35.5597 28.4109 35.6364C28.4037 35.6436 28.3941 35.6484 28.3893 35.658C28.3245 35.7636 28.2357 35.8428 28.1494 35.9292C28.1086 35.9724 28.087 36.0348 28.0318 36.0731C27.9982 36.0971 27.9646 36.1259 27.9382 36.1571C27.8206 36.2987 27.6767 36.4115 27.5375 36.529C27.4799 36.577 27.4103 36.613 27.3527 36.6586C27.2927 36.709 27.24 36.7666 27.18 36.817C27.1488 36.8434 27.108 36.8578 27.0696 36.8794C27.0048 36.9178 26.9304 36.9441 26.88 36.9945C26.8273 37.0521 26.7385 37.0593 26.7025 37.1121C26.6473 37.1985 26.5537 37.1913 26.4865 37.2393C26.4169 37.2897 26.3402 37.3353 26.2634 37.3737C26.1266 37.4432 25.9874 37.5056 25.8507 37.5752C25.7499 37.6256 25.6539 37.6832 25.5555 37.736C25.5435 37.7432 25.5315 37.7528 25.5196 37.7528C25.3636 37.7768 25.2388 37.8727 25.0924 37.9207C24.9557 37.9663 24.8189 38.0119 24.6845 38.0599C24.5862 38.0935 24.4902 38.1343 24.3918 38.1655C24.279 38.2015 24.1639 38.2303 24.0487 38.2615C24.0127 38.271 23.9719 38.2758 23.9359 38.2854C23.8159 38.3166 23.696 38.3526 23.5736 38.379C23.4824 38.3982 23.3912 38.4006 23.3001 38.415C23.2473 38.4222 23.1993 38.4462 23.1465 38.4534C22.9881 38.475 22.825 38.4846 22.669 38.5206C22.6186 38.5326 22.5706 38.5638 22.5106 38.5662C22.3955 38.571 22.2803 38.5854 22.1675 38.595C22.0643 38.6022 21.9588 38.607 21.8556 38.6094C21.6324 38.6142 21.4069 38.6214 21.1837 38.6238C21.0542 38.6262 20.9222 38.6262 20.7926 38.6214C20.6223 38.6166 20.4543 38.6094 20.2863 38.5974C20.1352 38.5878 19.9792 38.5854 19.8304 38.5566C19.7561 38.5422 19.6793 38.5278 19.6025 38.5158C19.5713 38.511 19.5401 38.5062 19.5089 38.5014C19.3841 38.4846 19.257 38.4726 19.1322 38.4486C18.9858 38.4198 18.8395 38.3814 18.6931 38.3478C18.6619 38.3406 18.6259 38.3454 18.5947 38.3382C18.4652 38.307 18.3332 38.2758 18.2036 38.2423C18.0549 38.2039 17.9037 38.1679 17.7573 38.1247C17.6973 38.1079 17.6421 38.0719 17.5918 38.0383C17.4814 37.9687 17.3638 37.9231 17.239 37.8871C17.1743 37.8679 17.1119 37.8319 17.0615 37.7864C16.9823 37.7168 16.8887 37.6832 16.7927 37.6472C16.6896 37.6064 16.5816 37.568 16.4832 37.5128C16.3992 37.4672 16.3296 37.3976 16.2505 37.3449C16.2169 37.3209 16.1737 37.3113 16.1329 37.2945C16.1137 37.2777 16.0969 37.2513 16.0729 37.2393C15.9961 37.2033 15.9241 37.1481 15.8498 37.1169C15.7946 37.0953 15.7442 37.0641 15.6962 37.0353C15.593 36.9753 15.4682 36.9442 15.4035 36.829C15.3963 36.817 15.3771 36.8098 15.3627 36.8026C15.3531 36.7978 15.3315 36.8026 15.3315 36.8002C15.3267 36.7066 15.2307 36.7234 15.1875 36.6754C15.1539 36.6394 15.1371 36.5938 15.0747 36.5818C15.0291 36.5722 14.9835 36.517 14.9596 36.4715C14.9116 36.3803 14.8132 36.3611 14.746 36.2963C14.6668 36.2171 14.59 36.1331 14.5061 36.0611C14.3981 35.9652 14.3189 35.8404 14.1917 35.766C14.1821 35.7612 14.1749 35.754 14.1701 35.7444C14.1389 35.6988 14.1125 35.6484 14.0766 35.6077C14.0286 35.5549 13.9662 35.5141 13.923 35.4589C13.9014 35.4301 13.8966 35.3773 13.9038 35.3365C13.9278 35.1997 13.9062 35.1542 13.7982 35.0774C13.7454 35.039 13.7094 34.9718 13.6687 34.9166C13.6543 34.8974 13.6399 34.8758 13.6255 34.8542C13.5871 34.799 13.5391 34.7463 13.5079 34.6863C13.4575 34.5903 13.4167 34.5519 13.3303 34.5423C13.3471 34.5279 13.3735 34.5159 13.3759 34.4991C13.3807 34.4655 13.3615 34.4463 13.3255 34.4631C13.3159 34.4247 13.3063 34.3887 13.2991 34.3503C13.2967 34.3359 13.2991 34.3143 13.2943 34.3119C13.184 34.264 13.1888 34.132 13.1072 34.06C13.0664 34.024 13.0712 33.9424 13.0424 33.892C13.0016 33.8225 12.956 33.7433 12.8912 33.7001C12.8288 33.6569 12.824 33.5849 12.8168 33.5417C12.7976 33.4313 12.7329 33.3426 12.7113 33.2442C12.6873 33.1338 12.5889 33.0522 12.6057 32.9275C12.6129 32.8675 12.5745 32.8027 12.5601 32.7379C12.5553 32.7163 12.5577 32.6923 12.5577 32.6683C12.5577 32.6587 12.5601 32.6395 12.5577 32.6395C12.4929 32.6203 12.5217 32.5651 12.5121 32.5268C12.4833 32.3972 12.4545 32.2676 12.4329 32.138C12.4113 32.0037 12.3969 31.8693 12.3777 31.7349C12.3681 31.6749 12.349 31.6174 12.3442 31.5574C12.3394 31.471 12.3298 31.387 12.3178 31.3006C12.3058 31.2263 12.3298 31.1495 12.337 31.0727C12.3394 31.0463 12.3513 31.0151 12.3418 30.9959C12.289 30.8975 12.3585 30.8039 12.3418 30.7056C12.3298 30.636 12.3466 30.564 12.3513 30.492C12.3561 30.4416 12.3657 30.3912 12.3657 30.3409C12.3657 30.2953 12.4113 30.2545 12.3753 30.2041C12.3657 30.1897 12.3825 30.1537 12.3897 30.1297C12.3969 30.1297 12.4041 30.1273 12.4137 30.1273C12.3993 30.1105 12.3873 30.0937 12.3777 30.0841C12.3969 30.0577 12.4137 30.0313 12.4377 30.0121C12.4497 30.0025 12.4857 30.0025 12.4905 30.0097C12.5121 30.0481 12.5361 30.0913 12.5457 30.1345C12.5577 30.2017 12.5625 30.2713 12.5601 30.3385C12.5577 30.3744 12.5289 30.4056 12.5193 30.4416C12.4977 30.5184 12.4833 30.5928 12.5025 30.6744C12.5169 30.7344 12.4881 30.8016 12.4953 30.8639C12.5025 30.9143 12.4929 30.9743 12.5433 31.0175C12.5625 31.0343 12.5601 31.0775 12.5745 31.1063C12.6033 31.1711 12.6369 31.2263 12.6129 31.3102C12.5985 31.3582 12.6561 31.4254 12.6777 31.483C12.6921 31.5262 12.7089 31.5718 12.7089 31.615C12.7089 31.663 12.6945 31.7085 12.7401 31.7421C12.7497 31.7493 12.7305 31.8477 12.7305 31.8549C12.7353 31.9077 12.7377 31.9629 12.7521 32.0133C12.7617 32.0421 12.7952 32.0613 12.8168 32.0877C12.8408 32.1164 12.8648 32.1476 12.8912 32.1812C12.8792 32.1836 12.86 32.1908 12.836 32.1956C12.8576 32.2292 12.8696 32.27 12.8984 32.2964C12.9776 32.3732 12.968 32.2364 13.0256 32.2508C12.944 32.1476 12.9488 32.0349 13.0304 32.0109C13.0112 31.9893 12.992 31.9701 12.9728 31.9461C12.9896 31.9341 13.004 31.9221 13.0232 31.9077C12.9584 31.8309 12.9224 31.7469 12.9848 31.651C13.0304 31.6965 13.0496 31.7733 13.0544 31.8309C13.0592 31.8957 13.0832 31.9605 13.1024 32.0253C13.1096 32.0469 13.1216 32.0685 13.1336 32.0949C13.0664 32.1212 13.1168 32.1692 13.1336 32.2124C13.1408 32.234 13.1432 32.258 13.1504 32.282C13.184 32.3996 13.1744 32.5316 13.2799 32.6203C13.2511 32.6971 13.3087 32.7499 13.3375 32.8099C13.3567 32.8507 13.3999 32.8963 13.3927 32.9299C13.3711 33.021 13.4527 33.069 13.4623 33.1482C13.4719 33.2178 13.5343 33.2826 13.5679 33.3498C13.6111 33.4338 13.6471 33.5225 13.6902 33.6065C13.7166 33.6569 13.755 33.7001 13.779 33.7505C13.7958 33.7841 13.7982 33.8249 13.8078 33.8609C13.8102 33.8657 13.8078 33.8752 13.8126 33.8752C13.9062 33.9112 13.9086 34.0168 13.9734 34.0792C14.0382 34.144 14.0766 34.2352 14.1293 34.3119C14.1461 34.3335 14.1941 34.3455 14.1941 34.3623C14.1965 34.4343 14.2469 34.4199 14.2853 34.4223C14.3021 34.4223 14.3213 34.4055 14.3381 34.3959C14.3333 34.3887 14.3309 34.3791 14.3261 34.3719C14.3045 34.3719 14.2805 34.3719 14.2589 34.3719C14.3501 34.3287 14.2997 34.288 14.2637 34.24C14.2469 34.216 14.2445 34.1824 14.2301 34.156C14.1917 34.0864 14.1533 34.0192 14.1125 33.952C14.103 33.9376 14.0934 33.9184 14.0766 33.9112C14.0046 33.8705 14.0094 33.7889 13.9782 33.7265C13.947 33.6617 13.911 33.5993 13.8774 33.5345C13.8246 33.4289 13.7694 33.3258 13.719 33.2202C13.6686 33.1146 13.6183 33.009 13.5727 32.9011C13.5487 32.8435 13.5367 32.7811 13.5175 32.7211C13.5079 32.6899 13.4959 32.6587 13.4839 32.6275C13.4671 32.5867 13.4383 32.5484 13.4335 32.5052C13.4191 32.4212 13.4119 32.3372 13.3423 32.2748C13.3327 32.2652 13.3447 32.234 13.3399 32.2124C13.3327 32.1644 13.3207 32.114 13.3111 32.0661C13.2919 31.9797 13.2751 31.8933 13.2559 31.8069C13.2487 31.7733 13.2343 31.7397 13.2224 31.7037C13.2367 31.6965 13.2583 31.6845 13.2775 31.6726C13.2655 31.651 13.2511 31.6294 13.2487 31.6246C13.2535 31.5838 13.2631 31.555 13.2559 31.5334C13.2343 31.4662 13.2008 31.4038 13.1792 31.3366C13.1648 31.2886 13.2871 31.1375 13.3375 31.1303C13.3831 31.1255 13.4191 31.1687 13.4215 31.2143C13.4215 31.3222 13.4287 31.4278 13.4335 31.5358C13.4383 31.6102 13.4431 31.6869 13.4575 31.7613C13.4767 31.8669 13.5055 31.9701 13.5319 32.0757C13.5463 32.1356 13.5631 32.1956 13.5775 32.2556C13.5799 32.2628 13.5727 32.27 13.5703 32.2772C13.6663 32.3132 13.6447 32.4116 13.6591 32.4788C13.6782 32.5771 13.6998 32.6683 13.7526 32.7547C13.7766 32.7931 13.7766 32.8459 13.791 32.8891C13.7982 32.9107 13.815 32.9275 13.815 32.9299C13.8246 32.9683 13.8294 32.9875 13.8366 33.0066C13.8462 33.0282 13.8678 33.045 13.8726 33.0666C13.8798 33.105 13.8918 33.1314 13.9206 33.1626C13.9902 33.2466 13.995 33.3714 14.0526 33.4553C14.0982 33.5225 14.079 33.5969 14.1245 33.6521C14.1701 33.7073 14.2277 33.7553 14.2781 33.8081C14.3189 33.8537 14.3621 33.8992 14.3933 33.952C14.4293 34.012 14.4509 34.0792 14.4821 34.1416C14.4917 34.1608 14.5157 34.1728 14.5325 34.1848C14.5373 34.1872 14.5492 34.1848 14.5492 34.1872C14.554 34.288 14.6836 34.2904 14.7004 34.3815C14.7028 34.3935 14.7148 34.4055 14.7244 34.4151C14.806 34.4943 14.8876 34.5735 14.9692 34.6527C15.0195 34.7007 15.0723 34.7439 15.1203 34.7894C15.1443 34.8134 15.1635 34.8422 15.1875 34.8686C15.2619 34.9478 15.3219 35.0534 15.4131 35.0918C15.4946 35.1254 15.5138 35.2237 15.6026 35.2333C15.6146 35.2357 15.6194 35.2837 15.6362 35.2933C15.7226 35.3365 15.7442 35.4589 15.8642 35.4637C15.9073 35.4661 15.9481 35.5093 16.0009 35.5405C15.9961 35.4829 15.9937 35.4469 15.9913 35.4205C15.8402 35.2909 15.689 35.1614 15.5426 35.039C15.5162 35.003 15.4946 34.9694 15.4634 34.9262C15.4634 34.9262 15.5282 34.9142 15.4538 34.8854C15.3147 34.8302 15.2331 34.7127 15.1515 34.5927C15.1179 34.5447 15.0723 34.5039 15.0267 34.4679C14.95 34.4055 14.9044 34.3311 14.9212 34.228C14.9236 34.2136 14.9212 34.192 14.9116 34.1824C14.8636 34.1392 14.8084 34.1008 14.7604 34.0552C14.7148 34.0096 14.6692 33.9568 14.6356 33.9016C14.5852 33.8177 14.5444 33.7313 14.4965 33.6449C14.4941 33.6401 14.4869 33.6329 14.4797 33.6305C14.3765 33.5873 14.3645 33.4937 14.3525 33.4002C14.3501 33.3858 14.3549 33.369 14.3477 33.3618C14.2949 33.3042 14.2805 33.2274 14.2421 33.1674C14.2133 33.1242 14.2397 33.0858 14.2157 33.0546C14.1893 33.021 14.1437 32.9923 14.1389 32.9563C14.1293 32.9011 14.0766 32.8579 14.1054 32.7907C14.1149 32.7643 14.079 32.7187 14.0646 32.6827C14.1221 32.6659 14.1581 32.6899 14.1629 32.7595C14.1653 32.8027 14.1605 32.8459 14.1605 32.8891C14.1605 32.8963 14.1725 32.9035 14.1797 32.9107C14.2205 32.9419 14.2493 32.9755 14.2373 33.0354C14.2325 33.0618 14.2589 33.1074 14.2829 33.1242C14.3813 33.1914 14.4101 33.2994 14.4629 33.393C14.5229 33.5009 14.5804 33.6113 14.6596 33.7097C14.7052 33.7673 14.7196 33.8537 14.7508 33.9232C14.7604 33.9424 14.7844 33.952 14.8036 33.9568C14.842 34.0192 14.8756 34.0864 14.9236 34.144C15.0171 34.2544 15.1107 34.3647 15.2139 34.4655C15.2955 34.5447 15.3435 34.6575 15.4226 34.7271C15.5114 34.8038 15.5594 34.931 15.6914 34.955C15.7058 34.9574 15.7202 34.9742 15.7274 34.9886C15.773 35.0822 15.8522 35.1374 15.9337 35.1949C15.9841 35.2309 16.0225 35.2813 16.0705 35.3197C16.1137 35.3533 16.1641 35.3965 16.2121 35.3989C16.3176 35.4037 16.3057 35.5501 16.4136 35.5453C16.4328 35.5453 16.4544 35.5981 16.4784 35.6316C16.4904 35.6245 16.5072 35.6149 16.5048 35.6149C16.608 35.6868 16.6992 35.7564 16.7975 35.814C16.8743 35.8596 16.9583 35.8908 17.0375 35.9316C17.0495 35.9388 17.0543 35.9604 17.0615 35.9772C17.0855 36.03 17.1479 36.0396 17.1958 36.0084C17.2174 35.994 17.2534 36.0012 17.2894 35.9988C17.2942 35.9532 17.3038 35.9172 17.227 35.898C17.1647 35.8812 17.1143 35.8188 17.0567 35.778C17.0495 35.7732 17.0423 35.7612 17.0375 35.7636C16.9391 35.7732 16.8983 35.6844 16.8359 35.6364C16.7567 35.5765 16.7016 35.4877 16.6872 35.3821C16.6848 35.3653 16.6728 35.3461 16.6584 35.3341C16.5912 35.2765 16.5192 35.2237 16.452 35.1686C16.416 35.1398 16.38 35.111 16.3464 35.0822C16.3344 35.0726 16.3248 35.051 16.3176 35.0534C16.2337 35.0702 16.1545 35.0822 16.1065 34.9742C16.0993 34.9814 16.0945 34.9886 16.0873 34.9958C16.0945 35.015 16.1017 35.0318 16.1089 35.051C16.0849 35.0486 16.0609 35.0486 16.0081 35.0462C16.0321 35.0102 16.0441 34.9814 16.0657 34.9646C16.0993 34.9358 16.0897 34.895 16.0441 34.871C16.0561 34.8446 16.0705 34.8182 16.0849 34.7846C16.0537 34.7822 16.0345 34.7798 16.0273 34.7798C16.0177 34.7582 16.0153 34.7367 16.0033 34.7271C15.8785 34.6119 15.7466 34.4991 15.6266 34.3791C15.581 34.3359 15.5594 34.2688 15.5258 34.2136C15.4922 34.1632 15.4682 34.0984 15.4202 34.0648C15.3243 34 15.2643 33.9136 15.2043 33.8201C15.1515 33.7361 15.1011 33.6425 15.0123 33.5801C14.9644 33.5465 14.8972 33.4697 14.9092 33.4385C14.9404 33.3594 14.9068 33.3042 14.878 33.2466C14.8396 33.1746 14.8036 33.1026 14.8084 33.0186C14.8084 32.9994 14.7796 32.9803 14.7676 32.9587C14.746 32.9227 14.71 32.8819 14.71 32.8459C14.7124 32.7931 14.6356 32.7619 14.674 32.7043C14.6668 32.6995 14.6572 32.6947 14.65 32.6875C14.6236 32.6659 14.614 32.6467 14.614 32.6011C14.614 32.5244 14.566 32.45 14.5373 32.3756C14.5301 32.3588 14.5157 32.3468 14.5109 32.3324C14.4989 32.2676 14.4797 32.2004 14.4773 32.1332C14.4749 31.9437 14.3909 31.7733 14.3621 31.591C14.3573 31.5622 14.3597 31.531 14.3717 31.5046C14.3981 31.4398 14.3813 31.387 14.3453 31.3318C14.3309 31.3078 14.2829 31.2622 14.3477 31.2311C14.3477 31.2311 14.3357 31.2119 14.3357 31.1999C14.3333 31.1663 14.3381 31.1303 14.3357 31.0967C14.3333 31.0583 14.3261 31.0199 14.3189 30.9815C14.3045 30.9095 14.2445 30.8471 14.3045 30.7656C14.3285 30.7296 14.3141 30.6672 14.3141 30.6168C14.3141 30.612 14.2901 30.6072 14.2565 30.5952C14.3357 30.5832 14.3381 30.5472 14.3165 30.4992C14.3117 30.4896 14.3117 30.468 14.3189 30.4632C14.3933 30.3888 14.3381 30.2977 14.3549 30.2161C14.3645 30.1705 14.3765 30.1249 14.3909 30.0817C14.3933 30.0745 14.4221 30.0649 14.4245 30.0673C14.4437 30.0889 14.4749 30.1153 14.4749 30.1417C14.4725 30.2353 14.4629 30.3289 14.4509 30.4224C14.4485 30.4416 14.4221 30.4584 14.4125 30.468C14.4293 30.6312 14.4485 30.7848 14.4653 30.9407C14.4629 30.9407 14.4605 30.9383 14.4581 30.9383C14.4557 31.0055 14.4509 31.0751 14.4485 31.1423C14.4485 31.1879 14.4581 31.2358 14.4533 31.2814C14.4413 31.3966 14.4773 31.4998 14.5205 31.603C14.5516 31.6774 14.5852 31.7661 14.5708 31.8381C14.5492 31.9317 14.5684 32.0013 14.602 32.0829C14.6188 32.1236 14.6068 32.174 14.6164 32.2196C14.6188 32.2388 14.638 32.2532 14.65 32.2724C14.6644 32.294 14.6812 32.3156 14.6932 32.3396C14.746 32.4236 14.7964 32.51 14.8492 32.5963C14.962 32.5627 14.95 32.6995 15.0339 32.7427C15.0243 32.6611 15.0171 32.5915 15.0099 32.5196C15.0291 32.5388 15.0627 32.5555 15.0699 32.5795C15.0963 32.6635 15.1563 32.7307 15.1515 32.8315C15.1491 32.8915 15.2043 32.9539 15.2355 33.021C15.2379 33.0186 15.2235 33.0282 15.2091 33.0354C15.1899 33.0306 15.1707 33.0234 15.1347 33.0138C15.1635 33.105 15.1851 33.1794 15.2139 33.2658C15.2355 33.249 15.2763 33.2274 15.2739 33.2178C15.2643 33.1746 15.2379 33.1338 15.2163 33.0858C15.2211 33.0834 15.2331 33.0714 15.2475 33.0594C15.2547 33.0618 15.2667 33.0594 15.2715 33.0642C15.3147 33.105 15.3723 33.1386 15.3939 33.189C15.4155 33.2442 15.4514 33.2874 15.4802 33.3378C15.5138 33.4002 15.5762 33.4505 15.6098 33.5129C15.6338 33.5585 15.6914 33.5729 15.7058 33.6041C15.7418 33.6785 15.8689 33.6689 15.8546 33.7937C15.8498 33.8417 15.9241 33.8992 15.9625 33.952C16.0369 34.0504 16.1305 34.1224 16.2289 34.1968C16.2625 34.2232 16.2865 34.2616 16.3152 34.2904C16.3248 34.2976 16.3416 34.2976 16.3608 34.3024C16.3608 34.3431 16.3632 34.3743 16.4376 34.3791C16.4904 34.3815 16.5504 34.4367 16.5888 34.4847C16.6704 34.5855 16.7591 34.6767 16.8647 34.751C16.9271 34.7942 16.9775 34.859 17.0327 34.9094C17.0495 34.9262 17.0735 34.9382 17.0951 34.9478C17.1431 34.967 17.1934 34.979 17.2366 35.0006C17.2486 35.0054 17.3206 35.003 17.2702 35.0558C17.2942 35.063 17.3206 35.075 17.3446 35.0726C17.359 35.0702 17.3734 35.0486 17.3878 35.0342C17.3614 35.015 17.3734 34.9742 17.3254 34.9574C17.2774 34.9406 17.2414 34.883 17.2006 34.8446C17.1743 34.8206 17.1407 34.8014 17.1119 34.7774C17.0855 34.7534 17.0615 34.7223 17.0327 34.7031C17.0183 34.6935 16.9943 34.6959 16.9703 34.6935C16.9463 34.6215 16.9175 34.5519 16.8119 34.5399C16.7639 34.5351 16.704 34.4943 16.68 34.4535C16.644 34.3911 16.5312 34.3935 16.5456 34.288C16.548 34.2736 16.4976 34.2496 16.4688 34.2328C16.3872 34.1776 16.3704 34.0696 16.2745 34.0192C16.2121 33.9856 16.1761 33.8968 16.1281 33.8345C16.1065 33.8057 16.0753 33.7841 16.0537 33.7553C15.9865 33.6689 15.9241 33.5801 15.857 33.4961C15.8378 33.4721 15.8066 33.4601 15.7874 33.4385C15.749 33.3954 15.7082 33.3498 15.6818 33.2994C15.641 33.2178 15.6098 33.129 15.5762 33.0402C15.5666 33.045 15.5762 33.0402 15.5882 33.0354C15.5834 33.0306 15.5786 33.0258 15.5762 33.0258C15.4922 33.0162 15.4874 33.0114 15.4922 32.9155C15.4922 32.9083 15.4898 32.8987 15.485 32.8939C15.4035 32.8003 15.3795 32.7499 15.3747 32.6467C15.3747 32.6395 15.3723 32.6251 15.3675 32.6251C15.2883 32.6059 15.3075 32.5268 15.2835 32.4764C15.2571 32.426 15.2619 32.3588 15.2427 32.306C15.2283 32.2652 15.1707 32.246 15.1803 32.1884C15.1851 32.162 15.1827 32.1284 15.1707 32.1093C15.1443 32.0685 15.1083 32.0325 15.0819 32.0037C15.0819 31.9413 15.0891 31.8789 15.0795 31.8189C15.0651 31.7349 15.0267 31.651 15.0843 31.567C15.0915 31.5574 15.0891 31.5262 15.0795 31.5166C15.0051 31.447 15.0315 31.3558 15.0243 31.2718C15.1323 31.291 15.1707 31.3342 15.1419 31.4326C15.1179 31.5214 15.1539 31.5934 15.1707 31.6702C15.1851 31.7325 15.2163 31.7877 15.2355 31.8501C15.2403 31.8693 15.2259 31.8957 15.2187 31.9269C15.2547 32.0157 15.2931 32.114 15.3339 32.2148C15.3411 32.2124 15.3267 32.2172 15.3099 32.2268C15.4011 32.3036 15.4227 32.3996 15.4083 32.5076C15.4059 32.5172 15.4107 32.5388 15.4131 32.5388C15.4994 32.5532 15.4706 32.6323 15.497 32.6803C15.5474 32.7739 15.6026 32.8675 15.6506 32.9611C15.6626 32.9827 15.6602 33.0114 15.6674 33.0594C15.701 33.0858 15.7754 33.1146 15.7778 33.201C15.7778 33.2154 15.7994 33.237 15.8162 33.2418C15.8594 33.2562 15.9049 33.2658 15.8785 33.3306C15.8761 33.3354 15.9097 33.3474 15.9193 33.3618C15.9889 33.4601 16.0489 33.5633 16.1233 33.6569C16.1665 33.7097 16.2313 33.7457 16.2793 33.7961C16.3152 33.8345 16.3368 33.8872 16.3656 33.9304C16.3824 33.9544 16.4064 33.9712 16.4256 33.9904C16.4328 33.9856 16.44 33.9808 16.4472 33.976C16.4472 33.988 16.4448 34.0072 16.4496 34.012C16.5288 34.0576 16.548 34.1728 16.6512 34.192C16.6656 34.1944 16.6752 34.2184 16.6848 34.2328C16.6992 34.2544 16.7088 34.2832 16.7304 34.2952C16.8191 34.3503 16.8983 34.4127 16.9559 34.5063C16.9751 34.5399 17.0375 34.5471 17.0783 34.5711C17.1455 34.6143 17.2078 34.6599 17.2726 34.7055C17.3446 34.7534 17.4166 34.8014 17.4862 34.8518C17.5102 34.8686 17.527 34.895 17.551 34.9094C17.587 34.931 17.6253 34.943 17.6637 34.9622C17.7669 35.0078 17.8701 35.0582 17.9733 35.1014C18.0165 35.1182 18.0716 35.111 18.0812 35.1758C18.0812 35.1806 18.1052 35.1925 18.1076 35.1902C18.1508 35.1542 18.182 35.1925 18.218 35.2069C18.29 35.2357 18.3596 35.2669 18.4316 35.2885C18.5395 35.3197 18.6499 35.3389 18.7603 35.3701C18.8707 35.4013 18.9786 35.4445 19.0914 35.4781C19.1634 35.4997 19.2378 35.5141 19.3122 35.5261C19.3242 35.5285 19.3386 35.4997 19.341 35.4997C19.3817 35.5165 19.4177 35.5429 19.4537 35.5405C19.6025 35.5261 19.7489 35.5405 19.8976 35.5597C19.996 35.5717 20.0968 35.5693 20.1976 35.5717C20.2983 35.5741 20.3991 35.5717 20.4927 35.6125C20.5167 35.6221 20.5335 35.646 20.5479 35.658C20.6871 35.6484 20.8214 35.5717 20.9558 35.6316C21.0326 35.6077 21.0998 35.5741 21.1693 35.5645C21.2845 35.5477 21.4021 35.5501 21.5197 35.5357C21.5461 35.5333 21.5629 35.4877 21.5892 35.4805C21.6828 35.4565 21.7764 35.4397 21.87 35.4181C21.9348 35.4037 22.002 35.3893 22.0667 35.3749C22.1675 35.3485 22.2683 35.3221 22.3667 35.2933C22.3811 35.2885 22.3883 35.2645 22.3979 35.2501C22.4171 35.2837 22.4267 35.2837 22.4554 35.2597C22.4722 35.2453 22.4962 35.2381 22.5202 35.2333C22.6138 35.2189 22.7122 35.2165 22.8034 35.1902C22.8682 35.1734 22.9233 35.123 22.9857 35.0942C23.0265 35.075 23.0721 35.0678 23.1033 35.0414C23.1297 35.0126 23.1561 34.9862 23.1801 34.9574C23.2641 34.8614 23.4008 34.8662 23.4944 34.7894C23.504 34.7822 23.5064 34.7678 23.5136 34.7582C23.5232 34.763 23.5376 34.775 23.5424 34.7726C23.6312 34.7175 23.7176 34.6599 23.8063 34.6071C23.8591 34.5759 23.9215 34.5183 23.9695 34.5279C24.0775 34.5471 24.1015 34.4583 24.1759 34.4223C24.2142 34.4367 24.3174 34.3671 24.3342 34.3071C24.3558 34.3095 24.3822 34.3215 24.399 34.3143C24.4614 34.2832 24.5214 34.2448 24.579 34.2088C24.6246 34.18 24.6533 34.0696 24.6222 34.0408C24.6054 34.0456 24.5862 34.0504 24.5526 34.0576C24.5814 34.072 24.5934 34.0768 24.6054 34.0816C24.6054 34.0864 24.603 34.0936 24.603 34.0984C24.5694 34.0984 24.5358 34.0984 24.519 34.0984C24.4758 34.1584 24.4374 34.2112 24.4062 34.252C24.3726 34.264 24.3414 34.2736 24.3126 34.2856C24.2478 34.3191 24.1855 34.3647 24.0967 34.3407C24.0991 34.3623 24.1015 34.3839 24.1039 34.4079C24.0847 34.3959 24.0703 34.3863 24.0631 34.3815C24.0415 34.3983 24.0271 34.4127 24.0079 34.4247C23.9815 34.4391 23.9479 34.4463 23.9287 34.4655C23.8591 34.5375 23.7608 34.5639 23.6792 34.6191C23.6216 34.6575 23.5616 34.7079 23.4944 34.7367C23.4224 34.7463 23.3576 34.7846 23.2785 34.7654C23.2593 34.7606 23.2305 34.799 23.1897 34.8302C23.1537 34.835 23.0889 34.8446 23.0265 34.8518C22.9977 34.8422 22.9857 34.8326 22.9761 34.823ZM16.0417 35.5645C16.0945 35.7084 16.2121 35.7516 16.2889 35.8308C16.3656 35.9124 16.4616 35.9316 16.5408 35.9892C16.5552 35.9652 16.5696 35.9436 16.5864 35.9172C16.56 35.9028 16.5384 35.8956 16.5192 35.8812C16.4568 35.8308 16.3944 35.7804 16.332 35.7252C16.2769 35.6772 16.1833 35.6916 16.1521 35.6005C16.1449 35.5789 16.0849 35.5765 16.0417 35.5645ZM14.5804 34.8638C14.6452 34.6911 14.5349 34.6167 14.4125 34.5447C14.4821 34.6023 14.3573 34.6671 14.4317 34.7271C14.4845 34.7702 14.5325 34.8206 14.5804 34.8638Z" fill="#EBE0CF"/>
<path d="M15.1279 36.913C15.0655 36.8722 15.0031 36.8338 14.9431 36.793C14.8232 36.7115 14.7008 36.6299 14.5856 36.5411C14.4704 36.4523 14.3625 36.3563 14.2521 36.2628C14.2089 36.2268 14.1537 36.2172 14.1129 36.1668C14.0217 36.0492 13.873 35.9844 13.8178 35.8333C13.813 35.8213 13.7938 35.8141 13.7794 35.8069C13.765 35.7997 13.741 35.7973 13.7362 35.7877C13.705 35.7349 13.6786 35.6797 13.6474 35.6293C13.6306 35.6029 13.597 35.5837 13.5778 35.5573C13.5107 35.4589 13.3787 35.4086 13.3619 35.2718C13.3595 35.2574 13.3259 35.2454 13.3235 35.231C13.3067 35.1398 13.2083 35.1134 13.1723 35.0414C13.1124 34.9263 13.062 34.8063 12.9516 34.7271C12.9372 34.7175 12.9252 34.6983 12.9204 34.6815C12.9084 34.6359 12.9012 34.5879 12.8916 34.5352C12.9804 34.5616 13.0236 34.6359 13.0644 34.7103C13.0716 34.7223 13.0668 34.7415 13.0668 34.7535C13.11 34.8063 13.1555 34.8615 13.1963 34.9215C13.2347 34.9767 13.2587 35.0414 13.2995 35.0942C13.3427 35.147 13.4051 35.1878 13.4555 35.2382C13.4795 35.2622 13.4939 35.2934 13.5155 35.3198C13.5922 35.4182 13.669 35.5165 13.7482 35.6125C13.8154 35.6941 13.8898 35.7709 13.9594 35.8525C13.9882 35.886 13.9954 35.946 14.0625 35.934C14.0745 36.0252 14.2233 36.0084 14.2113 36.1212C14.2113 36.1236 14.2185 36.1284 14.2209 36.1308C14.3289 36.1716 14.3745 36.2796 14.4512 36.3515C14.516 36.4115 14.5952 36.4547 14.6672 36.5075C14.6744 36.5123 14.684 36.5171 14.6864 36.5243C14.7344 36.6419 14.8807 36.6395 14.9455 36.7403C14.9791 36.7906 15.0559 36.8122 15.1111 36.8506C15.1255 36.8602 15.1303 36.8818 15.1399 36.8986C15.1351 36.901 15.1303 36.9082 15.1279 36.913Z" fill="#EBE0CF"/>
<path d="M22.2849 35.0772C22.2729 35.0484 22.2633 35.0268 22.2513 34.998C22.3257 35.0292 22.3857 35.0364 22.4361 34.9644C22.4457 34.95 22.5057 34.9716 22.5417 34.9884C22.5872 34.9524 22.6304 34.8876 22.7096 34.9068C22.7312 34.9116 22.7456 34.9476 22.7552 34.9596C22.6904 34.9812 22.6376 35.0028 22.5824 35.0196C22.4745 35.0508 22.3641 35.082 22.2561 35.1132C22.2249 35.1228 22.1913 35.13 22.1601 35.1443C22.0714 35.1899 21.9922 35.2067 21.8794 35.1971C21.8602 35.1947 21.8266 35.2451 21.8242 35.1875C21.8242 35.1659 21.8578 35.1324 21.8842 35.1228C21.9778 35.0892 22.0714 35.058 22.1673 35.034C22.1865 35.0292 22.2105 35.0532 22.2345 35.0628C22.2489 35.0652 22.2657 35.07 22.2849 35.0772Z" fill="#EBE0CF"/>
<path d="M11.9988 32.4043C12.0276 32.4451 12.0564 32.4811 12.0828 32.5171C12.078 32.5195 12.0708 32.5219 12.066 32.5243C12.0852 32.5651 12.1068 32.6035 12.1188 32.6466C12.138 32.7138 12.1476 32.7834 12.162 32.8602C12.2388 32.865 12.2604 33.0066 12.1884 33.0929C12.1332 32.9778 12.078 32.8722 12.03 32.7618C12.0156 32.7306 12.0228 32.6922 12.0156 32.6562C12.0036 32.5843 11.9868 32.5123 11.9748 32.4403C11.9724 32.4307 11.9892 32.4163 11.9988 32.4043Z" fill="#EBE0CF"/>
<path d="M12.9778 31.2093C12.9586 31.2213 12.9442 31.3076 12.973 31.3388C13.0449 31.418 13.0209 31.4756 12.8914 31.5068C12.9034 31.4132 12.9226 31.3268 12.9202 31.2404C12.9202 31.2045 12.8722 31.1709 12.8506 31.1397C12.8794 31.1013 12.9034 31.0653 12.9274 31.0293C12.9442 31.0821 12.961 31.1421 12.9778 31.2093Z" fill="#EBE0CF"/>
<path d="M13.5197 29.4365C13.606 29.4917 13.5245 29.5301 13.5149 29.5781C13.5341 29.5829 13.5485 29.5877 13.5509 29.5877C13.5341 29.6261 13.5173 29.6645 13.5005 29.7029C13.4837 29.7413 13.4693 29.7796 13.4525 29.818C13.3709 29.7533 13.4117 29.6597 13.4189 29.5709C13.4093 29.5709 13.3973 29.5685 13.3877 29.5685C13.4309 29.5253 13.4765 29.4797 13.5197 29.4365Z" fill="#EBE0CF"/>
<path d="M13.7789 28.6416C13.7981 28.6776 13.8125 28.704 13.8269 28.7304C13.8365 28.7208 13.8485 28.7136 13.8581 28.704C13.8509 28.7064 13.8437 28.7088 13.8413 28.7136C13.8101 28.7712 13.7693 28.8288 13.7525 28.8887C13.7357 28.9583 13.7117 29.0111 13.6182 29.0447C13.6494 28.9607 13.671 28.8935 13.6973 28.8264C13.7237 28.7616 13.7525 28.6992 13.7789 28.6416Z" fill="#EBE0CF"/>
<path d="M12.889 30.936C12.9226 30.8808 12.7906 30.8592 12.8842 30.8016C12.8674 30.7896 12.853 30.7776 12.8242 30.756C12.8578 30.756 12.8746 30.756 12.8914 30.756C12.8914 30.6937 12.8914 30.6337 12.8914 30.5761C12.8986 30.5737 12.9082 30.5713 12.9154 30.5713C12.937 30.6361 12.9586 30.7009 12.9826 30.7728C12.985 30.8016 12.9898 30.84 12.9922 30.8664C12.961 30.8856 12.9346 30.9048 12.889 30.936Z" fill="#EBE0CF"/>
<path d="M12.7306 34.2041C12.7882 34.2785 12.8482 34.3529 12.9058 34.4272C12.9154 34.4416 12.9106 34.4656 12.9106 34.4896C12.769 34.4368 12.685 34.3289 12.6826 34.2161C12.6994 34.2137 12.7138 34.2089 12.7306 34.2041Z" fill="#EBE0CF"/>
<path d="M18.6865 35.0872C18.7105 35.0824 18.7369 35.0776 18.7608 35.0752C18.7704 35.0752 18.78 35.0824 18.7896 35.0848C18.8976 35.1136 19.0056 35.1448 19.1304 35.1784C19.0392 35.2528 19.0032 35.1688 18.9504 35.1616C18.9384 35.1592 18.9264 35.1592 18.9144 35.1616C18.8976 35.164 18.8784 35.176 18.8616 35.1736C18.804 35.1688 18.7561 35.116 18.6913 35.1376C18.6841 35.14 18.6673 35.104 18.6553 35.0848C18.6649 35.0824 18.6745 35.0848 18.6865 35.0872Z" fill="#EBE0CF"/>
<path d="M12.7303 34.2042C12.7159 34.209 12.6991 34.2138 12.6847 34.2186C12.6055 34.1514 12.5599 34.0722 12.5767 33.957C12.6871 34.0098 12.7063 34.1082 12.7303 34.2042Z" fill="#EBE0CF"/>
<path d="M12.9107 30.4997C12.8747 30.4517 12.9035 30.2669 12.9515 30.2285C13.0163 30.3293 13.0283 30.4229 12.9107 30.4997Z" fill="#EBE0CF"/>
<path d="M21.0084 35.2497C21.018 35.2641 21.03 35.2785 21.0396 35.2929C21.0516 35.2737 21.0636 35.2545 21.0756 35.2354C21.0876 35.2881 21.2027 35.2282 21.1763 35.3361C21.1163 35.3073 21.0564 35.4153 20.994 35.3361C20.9796 35.3169 20.9868 35.2833 20.9844 35.2545C20.9916 35.2521 21.0012 35.2497 21.0084 35.2497Z" fill="#EBE0CF"/>
<path d="M20.0922 35.2913C20.0946 35.2722 20.0946 35.2506 20.097 35.2266C20.1282 35.2362 20.1738 35.2602 20.1858 35.2506C20.2265 35.2074 20.2409 35.2506 20.2601 35.2674C20.2649 35.2722 20.2505 35.3057 20.2433 35.3057C20.1762 35.3105 20.109 35.3129 20.0418 35.3081C20.0298 35.3081 20.0154 35.2842 20.0082 35.2698C20.0058 35.265 20.0154 35.253 20.0178 35.2458C20.0298 35.253 20.0442 35.2578 20.0562 35.2674C20.0634 35.2722 20.0682 35.2842 20.073 35.2913C20.0802 35.2913 20.085 35.2913 20.0922 35.2913Z" fill="#EBE0CF"/>
<path d="M19.6414 35.2715C19.5863 35.3339 19.5143 35.2955 19.4519 35.3003C19.4471 35.3003 19.4327 35.2619 19.4375 35.2451C19.4423 35.2307 19.4687 35.2068 19.4807 35.2092C19.5023 35.214 19.5239 35.2331 19.5431 35.2499C19.5503 35.2571 19.5455 35.2739 19.5479 35.2907C19.5719 35.2715 19.5935 35.2547 19.6126 35.2403C19.6222 35.2523 19.6318 35.2619 19.6414 35.2715Z" fill="#EBE0CF"/>
<path d="M20.6605 35.3679C20.6102 35.3822 20.5718 35.399 20.531 35.4014C20.507 35.4014 20.483 35.3798 20.459 35.3679C20.4734 35.3559 20.4878 35.3391 20.5046 35.3367C20.5478 35.3271 20.591 35.3223 20.6341 35.3223C20.6413 35.3223 20.6509 35.3511 20.6605 35.3679Z" fill="#EBE0CF"/>
<path d="M21.7673 35.2308C21.6714 35.238 21.573 35.2452 21.477 35.2524C21.477 35.2428 21.4746 35.2308 21.4746 35.2212C21.5706 35.2116 21.6666 35.202 21.7625 35.1924C21.7649 35.2044 21.7649 35.2188 21.7673 35.2308Z" fill="#EBE0CF"/>
<path d="M22.9762 34.8227C22.9858 34.8323 22.9978 34.8419 23.0074 34.8515C22.9954 34.8611 22.981 34.8707 22.9738 34.8827C22.9282 34.9571 22.8802 34.9067 22.8418 34.8995C22.861 34.8779 22.8802 34.8563 22.897 34.8347C22.8922 34.8299 22.8874 34.8251 22.8826 34.8203C22.9138 34.8227 22.945 34.8227 22.9762 34.8227Z" fill="#EBE0CF"/>
<path d="M19.6415 35.2722C19.6319 35.2626 19.6223 35.253 19.6104 35.241C19.6703 35.2362 19.7303 35.2314 19.7903 35.2314C19.7999 35.2314 19.8071 35.2578 19.8143 35.2722C19.8167 35.2746 19.8095 35.2818 19.8047 35.2866C19.7951 35.277 19.7879 35.2602 19.7759 35.2578C19.7591 35.253 19.7279 35.253 19.7255 35.2578C19.7087 35.3346 19.6751 35.2938 19.6415 35.2722Z" fill="#EBE0CF"/>
<path d="M15.061 31.0731C15.0274 31.0371 14.9938 31.0011 14.9482 30.9532C14.9866 30.9436 15.0178 30.934 15.049 30.9268C15.0586 30.9747 15.0658 31.0203 15.0754 31.0683C15.0706 31.0707 15.0658 31.0707 15.061 31.0731Z" fill="#EBE0CF"/>
<path d="M13.3667 30.4365C13.3667 30.4965 13.3667 30.5493 13.3667 30.6117C13.3451 30.6165 13.3211 30.6213 13.2803 30.6309C13.3067 30.5901 13.3259 30.5637 13.3451 30.5349C13.2899 30.4677 13.2947 30.4533 13.3667 30.4365Z" fill="#EBE0CF"/>
<path d="M12.3135 33.4287C12.4119 33.4311 12.3999 33.5199 12.4311 33.5727C12.4239 33.5799 12.4167 33.5847 12.4095 33.5919C12.3927 33.5751 12.3711 33.5607 12.3615 33.5391C12.3423 33.5079 12.3303 33.4719 12.3135 33.4287Z" fill="#EBE0CF"/>
<path d="M12.3566 33.3191C12.3446 33.3406 12.3326 33.3574 12.3206 33.3766C12.3206 33.3766 12.3158 33.3766 12.3134 33.3742C12.2918 33.3382 12.2726 33.3023 12.251 33.2663C12.2606 33.2591 12.2678 33.2543 12.2774 33.2471C12.3014 33.2687 12.3278 33.2927 12.3566 33.3191Z" fill="#EBE0CF"/>
<path d="M15.0583 30.54C15.1207 30.5568 15.1207 30.5568 15.0439 30.6648C15.0487 30.624 15.0535 30.5856 15.0583 30.54Z" fill="#EBE0CF"/>
<path d="M19.3514 35.2617L19.3541 35.2672H19.3486L19.3514 35.2617Z" fill="#EBE0CF"/>
<path d="M106.197 26.4978L105.83 27.2248C105.631 27.0305 105.311 26.9321 104.87 26.9321C104.452 26.9321 104.109 27.1048 103.843 27.4504C103.577 27.7959 103.442 28.235 103.442 28.7629C103.442 29.2931 103.565 29.713 103.814 30.025C104.061 30.3369 104.392 30.4905 104.805 30.4905C105.278 30.4905 105.647 30.3225 105.914 29.989L106.326 30.6992C105.964 31.0807 105.431 31.2727 104.731 31.2727C104.03 31.2727 103.485 31.0447 103.097 30.5888C102.708 30.133 102.514 29.5115 102.514 28.7245C102.514 27.9926 102.73 27.3784 103.159 26.8865C103.591 26.3946 104.141 26.1475 104.812 26.1475C105.391 26.1499 105.851 26.265 106.197 26.4978Z" fill="#EBE0CF"/>
<path d="M106.758 29.3667C106.758 28.8148 106.919 28.3637 107.243 28.0158C107.566 27.6679 107.994 27.4951 108.526 27.4951C109.085 27.4951 109.52 27.6631 109.827 27.9966C110.136 28.3301 110.29 28.7884 110.29 29.3667C110.29 29.945 110.131 30.4033 109.817 30.744C109.503 31.0847 109.071 31.2551 108.524 31.2551C107.965 31.2551 107.53 31.0823 107.221 30.7392C106.914 30.3937 106.758 29.9378 106.758 29.3667ZM107.653 29.3667C107.653 30.1681 107.943 30.5688 108.526 30.5688C108.795 30.5688 109.006 30.4656 109.162 30.2569C109.318 30.0481 109.397 29.753 109.397 29.3667C109.397 28.5773 109.107 28.1814 108.526 28.1814C108.26 28.1814 108.046 28.2845 107.888 28.4933C107.732 28.702 107.653 28.9924 107.653 29.3667Z" fill="#EBE0CF"/>
<path d="M113.337 31.1862V30.8815C113.215 30.9823 113.05 31.071 112.836 31.1454C112.622 31.2198 112.426 31.2558 112.248 31.2558C111.394 31.2558 110.967 30.8095 110.967 29.9169V27.5654H111.826V29.8545C111.826 30.32 112.037 30.5528 112.462 30.5528C112.656 30.5528 112.836 30.5024 113.004 30.404C113.172 30.3056 113.282 30.1904 113.337 30.0585V27.5654H114.196V31.1862H113.337Z" fill="#EBE0CF"/>
<path d="M117.479 31.1855V29.0884C117.479 28.7788 117.419 28.5533 117.299 28.4117C117.179 28.2701 116.984 28.1982 116.711 28.1982C116.586 28.1982 116.452 28.2341 116.308 28.3037C116.166 28.3733 116.053 28.4597 115.974 28.5653V31.1855H115.115V27.5647H115.732L115.89 27.903C116.123 27.6319 116.469 27.4951 116.922 27.4951C117.359 27.4951 117.704 27.6247 117.956 27.8814C118.208 28.1406 118.335 28.5005 118.335 28.9612V31.1831H117.479V31.1855Z" fill="#EBE0CF"/>
<path d="M122.153 27.8508L121.786 28.4843C121.585 28.2923 121.314 28.1987 120.975 28.1987C120.649 28.1987 120.392 28.3067 120.205 28.5203C120.015 28.7338 119.922 29.0313 119.922 29.408C119.922 30.1711 120.289 30.5526 121.023 30.5526C121.342 30.5526 121.621 30.4494 121.863 30.2407L122.18 30.9101C121.93 31.0613 121.712 31.1573 121.525 31.198C121.338 31.2388 121.117 31.258 120.865 31.258C120.296 31.258 119.85 31.0949 119.521 30.7685C119.192 30.4422 119.029 29.9887 119.029 29.4104C119.029 28.8394 119.209 28.3787 119.569 28.026C119.929 27.6732 120.419 27.4981 121.04 27.4981C121.465 27.4957 121.837 27.6133 122.153 27.8508Z" fill="#EBE0CF"/>
<path d="M123.082 31.186V28.2587H122.614V27.5653H123.951V31.186H123.082ZM123.521 26.1592C123.658 26.1592 123.776 26.2072 123.874 26.3031C123.972 26.3991 124.02 26.5143 124.02 26.6511C124.02 26.7854 123.972 26.903 123.874 26.9966C123.776 27.0926 123.658 27.1406 123.521 27.1406C123.384 27.1406 123.265 27.0926 123.169 26.9966C123.07 26.9006 123.022 26.7854 123.022 26.6511C123.022 26.5167 123.07 26.4015 123.169 26.3031C123.265 26.2072 123.382 26.1592 123.521 26.1592Z" fill="#EBE0CF"/>
<path d="M125.098 26.2215L125.957 26.0176V30.0823C125.957 30.5286 126.091 30.7925 126.357 30.8789C126.225 31.1284 126 31.2532 125.681 31.2532C125.292 31.2532 125.1 30.9868 125.1 30.4566V26.2215H125.098Z" fill="#EBE0CF"/>
<path d="M56.4949 31.203V28.9715H54.4985V31.203H53.6035V26.2529H54.4985V28.1893H56.4949V26.2529H57.3803V31.203H56.4949Z" fill="#EBE0CF"/>
<path d="M60.401 30.8451C60.3242 30.9699 60.1875 31.073 59.9955 31.1522C59.8012 31.2314 59.5996 31.2722 59.3909 31.2722C58.9949 31.2722 58.6854 31.1738 58.4575 30.9795C58.2319 30.7851 58.1191 30.5068 58.1191 30.1492C58.1191 29.7293 58.2775 29.4006 58.599 29.1631C58.9182 28.9255 59.3717 28.808 59.9595 28.808C60.0603 28.808 60.1779 28.8247 60.317 28.8607C60.317 28.4336 60.0435 28.2177 59.4964 28.2177C59.1749 28.2177 58.9038 28.2729 58.6878 28.3833L58.5031 27.7234C58.7982 27.5842 59.1485 27.5146 59.5564 27.5146C60.1155 27.5146 60.5258 27.6394 60.7873 27.8914C61.0489 28.1433 61.1784 28.6184 61.1784 29.3214V30.0965C61.1784 30.5788 61.2768 30.8811 61.4736 31.0059C61.4016 31.1282 61.3248 31.205 61.236 31.2314C61.1497 31.2602 61.0489 31.2746 60.9361 31.2746C60.8113 31.2746 60.701 31.229 60.6026 31.1402C60.5018 31.049 60.437 30.9507 60.401 30.8451ZM60.3242 29.5014C60.1779 29.4678 60.0675 29.4486 59.9955 29.4486C59.3189 29.4486 58.9781 29.6694 58.9781 30.1109C58.9781 30.4396 59.1701 30.6027 59.5516 30.6027C60.0675 30.6027 60.3242 30.3484 60.3242 29.8397V29.5014Z" fill="#EBE0CF"/>
<path d="M64.4466 31.2026L63.3645 29.5638L62.9518 29.9933V31.2026H62.0928V26.2381L62.9518 26.0342V28.9663L64.1755 27.5794H65.2097L63.9667 28.9519L65.4616 31.2002H64.4466V31.2026Z" fill="#EBE0CF"/>
<path d="M68.2929 31.2026L67.2107 29.5638L66.8004 29.9933V31.2026H65.9414V26.2381L66.8004 26.0342V28.9663L68.0241 27.5794H69.0583L67.8154 28.9519L69.3102 31.2002H68.2929V31.2026Z" fill="#EBE0CF"/>
<path d="M71.6188 30.8451C71.542 30.9699 71.4052 31.073 71.2133 31.1522C71.0213 31.2314 70.8198 31.2722 70.6086 31.2722C70.2127 31.2722 69.9032 31.1738 69.6752 30.9795C69.4497 30.7851 69.3369 30.5068 69.3369 30.1492C69.3369 29.7293 69.4977 29.4006 69.8144 29.1631C70.1335 28.9255 70.587 28.808 71.1749 28.808C71.2757 28.808 71.3956 28.8247 71.5324 28.8607C71.5324 28.4336 71.2589 28.2177 70.7118 28.2177C70.3903 28.2177 70.1191 28.2729 69.9008 28.3833L69.716 27.7234C70.0112 27.5842 70.3615 27.5146 70.7694 27.5146C71.3285 27.5146 71.7388 27.6394 72.0003 27.8914C72.2618 28.1433 72.3914 28.6184 72.3914 29.3214V30.0965C72.3914 30.5788 72.4898 30.8811 72.6865 31.0059C72.6146 31.1282 72.5354 31.205 72.449 31.2314C72.3626 31.2602 72.2619 31.2746 72.1515 31.2746C72.0267 31.2746 71.9163 31.229 71.8179 31.1402C71.7196 31.049 71.6524 30.9507 71.6188 30.8451ZM71.5396 29.5014C71.3932 29.4678 71.2829 29.4486 71.2085 29.4486C70.5318 29.4486 70.1935 29.6694 70.1935 30.1109C70.1935 30.4396 70.3855 30.6027 70.767 30.6027C71.2829 30.6027 71.5396 30.3484 71.5396 29.8397V29.5014Z" fill="#EBE0CF"/>
<path d="M80.8705 31.2023L80.501 30.1945H78.771L78.4207 31.2023H77.4297L79.4356 26.1826H79.8267L81.8495 31.2023H80.8705ZM79.6348 27.6943L79.0301 29.5275H80.2418L79.6348 27.6943Z" fill="#EBE0CF"/>
<path d="M84.3712 26.8737C84.1841 26.8137 84.0401 26.7825 83.9393 26.7825C83.7762 26.7825 83.6394 26.8521 83.5266 26.9888C83.4138 27.1256 83.3562 27.2936 83.3562 27.4951C83.3562 27.5239 83.3562 27.5527 83.3562 27.5839H84.1193V28.2773H83.373V31.2047H82.514V28.2773H81.9766V27.5839H82.514C82.5332 27.14 82.6652 26.7825 82.9147 26.5089C83.1643 26.2354 83.4858 26.0986 83.8793 26.0986C84.0833 26.0986 84.3304 26.1418 84.6256 26.2306L84.3712 26.8737Z" fill="#EBE0CF"/>
<path d="M86.9679 26.8737C86.7807 26.8137 86.6368 26.7825 86.536 26.7825C86.3728 26.7825 86.2361 26.8521 86.1233 26.9888C86.0105 27.1256 85.9529 27.2936 85.9529 27.4951C85.9529 27.5239 85.9529 27.5527 85.9529 27.5839H86.716V28.2773H85.9697V31.2047H85.1107V28.2773H84.5732V27.5839H85.1107C85.1299 27.14 85.2619 26.7825 85.5114 26.5089C85.761 26.2354 86.0825 26.0986 86.476 26.0986C86.68 26.0986 86.9295 26.1418 87.2222 26.2306L86.9679 26.8737Z" fill="#EBE0CF"/>
<path d="M89.5641 30.8451C89.4873 30.9699 89.3505 31.073 89.1586 31.1522C88.9666 31.2314 88.7651 31.2722 88.5539 31.2722C88.158 31.2722 87.8485 31.1738 87.6206 30.9795C87.395 30.7851 87.2822 30.5068 87.2822 30.1492C87.2822 29.7293 87.4406 29.4006 87.7597 29.1631C88.0788 28.9255 88.5323 28.808 89.1202 28.808C89.221 28.808 89.341 28.8247 89.4777 28.8607C89.4777 28.4336 89.2042 28.2177 88.6571 28.2177C88.3356 28.2177 88.0644 28.2729 87.8485 28.3833L87.6637 27.7234C87.9589 27.5842 88.3092 27.5146 88.7171 27.5146C89.2762 27.5146 89.6865 27.6394 89.948 27.8914C90.2096 28.1433 90.3391 28.6184 90.3391 29.3214V30.0965C90.3391 30.5788 90.4375 30.8811 90.6343 31.0059C90.5623 31.1282 90.4831 31.205 90.3967 31.2314C90.3103 31.2602 90.2096 31.2746 90.0968 31.2746C89.972 31.2746 89.8616 31.229 89.7633 31.1402C89.6649 31.049 89.6001 30.9507 89.5641 30.8451ZM89.4873 29.5014C89.341 29.4678 89.2306 29.4486 89.1586 29.4486C88.4819 29.4486 88.1412 29.6694 88.1412 30.1109C88.1412 30.4396 88.3332 30.6027 88.7147 30.6027C89.2306 30.6027 89.4873 30.3484 89.4873 29.8397V29.5014Z" fill="#EBE0CF"/>
<path d="M91.4806 31.2026V28.2753H91.0127V27.5819H92.3492V31.2026H91.4806ZM91.9197 26.1758C92.0565 26.1758 92.174 26.2238 92.2724 26.3197C92.3708 26.4157 92.4188 26.5309 92.4188 26.6677C92.4188 26.802 92.3708 26.9196 92.2724 27.0132C92.174 27.1092 92.0565 27.1572 91.9197 27.1572C91.7829 27.1572 91.6629 27.1092 91.567 27.0132C91.4686 26.9172 91.4206 26.802 91.4206 26.6677C91.4206 26.5333 91.4686 26.4181 91.567 26.3197C91.6653 26.2238 91.7829 26.1758 91.9197 26.1758Z" fill="#EBE0CF"/>
<path d="M95.4779 28.3635C95.3244 28.2651 95.1564 28.2148 94.9716 28.2148C94.7725 28.2148 94.5949 28.3035 94.4414 28.4811C94.2878 28.6587 94.2086 28.877 94.2086 29.1337V31.1997H93.3496V27.5789H94.2086V27.91C94.4486 27.6437 94.7701 27.5117 95.1684 27.5117C95.4611 27.5117 95.6867 27.5549 95.8426 27.6437L95.4779 28.3635Z" fill="#EBE0CF"/>
<path d="M96.1359 30.9718L96.4407 30.3C96.695 30.5015 96.9829 30.6047 97.3045 30.6047C97.6356 30.6047 97.8036 30.4871 97.8036 30.252C97.8036 30.1128 97.7532 30 97.6524 29.9113C97.5516 29.8225 97.3573 29.7193 97.0669 29.5993C96.4335 29.3402 96.1191 28.9755 96.1191 28.51C96.1191 28.1956 96.2391 27.9509 96.4839 27.7781C96.7262 27.603 97.0357 27.5166 97.4124 27.5166C97.794 27.5166 98.1539 27.6006 98.4898 27.7709L98.2427 28.4284C98.0555 28.2676 97.794 28.186 97.4628 28.186C97.1629 28.186 97.0141 28.3036 97.0141 28.5388C97.0141 28.6323 97.0621 28.7163 97.1605 28.7907C97.2589 28.8651 97.4676 28.9659 97.7916 29.0906C98.1131 29.2154 98.3458 29.369 98.4874 29.5465C98.629 29.7241 98.701 29.94 98.701 30.192C98.701 30.5279 98.5738 30.7919 98.3218 30.9862C98.0699 31.1782 97.7268 31.2765 97.2925 31.2765C97.0477 31.2765 96.8534 31.2574 96.7046 31.2166C96.5534 31.1734 96.3663 31.0918 96.1359 30.9718Z" fill="#EBE0CF"/>
<path d="M59.192 11.6255C59.1704 11.4983 59.1441 11.3663 59.1129 11.2296C59.0073 10.8912 59.0385 10.6537 59.2088 10.5169C59.3888 10.3586 59.6263 10.301 59.9215 10.3418C60.2598 10.3946 60.4805 10.5217 60.5861 10.7233C60.6821 10.9248 60.6773 11.0928 60.5717 11.2296C60.5189 11.3783 60.4877 11.5055 60.4757 11.6111C61.8698 11.6015 63.0168 11.6111 63.9166 11.6423C64.5092 11.6639 65.0107 11.7838 65.4234 12.007C65.7402 12.1869 65.9465 12.3765 66.0425 12.5781C66.1169 12.7676 66.1481 12.9788 66.1385 13.2115C66.1073 13.3699 66.1217 13.6074 66.1864 13.9241C66.2392 14.0729 66.2608 14.2409 66.2488 14.4304C66.2392 14.8647 66.1649 15.1599 66.0281 15.3182C65.9009 15.4766 65.7593 15.5606 65.601 15.5726C65.1883 15.6158 64.8979 15.0807 64.73 13.9721C64.646 13.4443 64.5188 13.1419 64.3509 13.0675C64.1613 12.9308 63.5998 12.8396 62.6713 12.7988C62.2585 12.7676 61.7787 12.7508 61.2292 12.7508C58.5442 12.6764 56.7422 12.7556 55.8232 12.9884C55.1898 13.0939 54.9042 13.533 54.9666 14.3033C55.0074 14.8623 54.9354 15.2271 54.7435 15.3974C54.5419 15.5558 54.3427 15.6302 54.1412 15.6206C53.93 15.5774 53.7717 15.4622 53.6661 15.2726C53.5605 15.0927 53.5293 14.728 53.5701 14.1785C53.6013 13.9457 53.6541 13.665 53.7285 13.3387C53.8341 12.6836 53.9564 12.2709 54.0932 12.103C54.326 11.8702 54.8394 11.7334 55.6313 11.6903C56.6726 11.6471 57.8603 11.6255 59.192 11.6255ZM61.1116 22.7061C60.0223 22.5574 59.1081 22.5694 58.369 22.7373C57.9251 22.8645 57.5868 22.8597 57.3541 22.7205C57.1117 22.5622 56.9677 22.0391 56.927 21.1513C56.8838 20.0739 56.927 19.4237 57.0541 19.2005C56.2719 19.654 55.5737 20.014 54.9618 20.2779C54.0116 20.669 53.323 20.621 52.9007 20.1363C52.4472 19.5869 52.5887 19.2269 53.3278 19.059C55.125 18.6247 57.0373 17.8017 59.0673 16.5851C58.5394 16.3428 58.0787 16.2036 57.6876 16.1724C57.486 16.1412 57.3325 16.0933 57.2269 16.0309C57.0901 16.1148 56.951 16.2108 56.8142 16.3164C56.0632 16.7291 55.5401 16.7771 55.2449 16.458C54.9594 16.1101 55.0914 15.8029 55.6409 15.539C57.1741 14.704 58.2467 13.9649 58.8585 13.3195C59.324 12.77 59.7295 12.7964 60.0798 13.3987C60.2694 13.6746 60.4973 13.8954 60.7613 14.0633C61.0036 14.1785 61.4475 14.3225 62.093 14.4904C62.4529 14.5864 62.6641 14.7448 62.7264 14.9655C62.7264 15.0279 62.7096 15.0927 62.6784 15.1551C62.6161 15.239 62.0546 15.7141 60.9988 16.5827C63.6526 17.9048 65.6274 18.771 66.9279 19.1838C67.4462 19.3325 67.7269 19.5005 67.7677 19.69C67.7989 19.8796 67.6189 20.0763 67.2278 20.2755C66.508 20.561 65.9129 20.7242 65.4354 20.7674C64.8955 20.7458 64.3581 20.4123 63.8182 19.7692C62.7504 18.6703 61.5627 17.7993 60.2502 17.1538C59.552 17.6505 58.8969 18.0896 58.285 18.4687C58.0739 18.5839 57.8723 18.7063 57.6828 18.8334C57.9899 18.8766 58.2419 18.903 58.4434 18.9126C60.8741 18.7638 62.2801 18.7902 62.6617 18.9918C63.0312 19.1933 63.1463 19.5053 63.0096 19.9276C62.9664 20.1171 62.952 20.3283 62.9616 20.561C62.94 21.2257 62.8512 21.7344 62.6928 22.0823C62.5657 22.3366 62.3761 22.5166 62.1218 22.6222C61.8074 22.7541 61.4691 22.7805 61.1116 22.7061ZM59.6839 19.8052C58.8801 19.8268 58.4002 19.8892 58.2419 19.9948C58.1675 20.0572 58.1363 20.2851 58.1459 20.6762C58.1555 21.0361 58.1819 21.2473 58.2251 21.3097C58.2994 21.3936 58.525 21.432 58.9065 21.42C59.7415 21.3888 60.4446 21.3769 61.0156 21.3888C61.1836 21.3793 61.3228 21.3673 61.4283 21.3577C61.5459 21.2737 61.5963 21.0025 61.5867 20.549C61.5867 20.2323 61.5507 20.0428 61.4763 19.978C61.3372 19.8532 60.7397 19.7932 59.6839 19.8052ZM58.8273 15.3806C59.0169 15.539 59.372 15.7501 59.8903 16.0141C59.9647 15.9517 60.0391 15.8989 60.111 15.8557C60.471 15.5822 60.6437 15.3422 60.6341 15.1431C60.5909 15.0471 60.5165 14.9847 60.4134 14.9535C60.0319 14.7208 59.7151 14.5672 59.4632 14.4928C59.2424 14.5024 58.8609 14.7304 58.321 15.1743C58.5202 15.2079 58.6906 15.275 58.8273 15.3806Z" fill="#EBE0CF"/>
<path d="M75.7698 11.6283C75.7482 11.5323 75.7219 11.4219 75.6907 11.2947C75.5851 10.9564 75.6163 10.7189 75.7866 10.5821C75.9666 10.4237 76.2041 10.3614 76.4993 10.3926C76.8376 10.4549 77.0584 10.5893 77.1663 10.7885C77.2623 10.9684 77.2551 11.1364 77.1495 11.2947C77.0967 11.4315 77.0656 11.5371 77.0536 11.6115C78.2677 11.6019 79.2778 11.6019 80.0817 11.6115C80.6743 11.6331 81.1758 11.7602 81.5885 11.993C81.9052 12.1729 82.1116 12.3625 82.2076 12.5641C82.2916 12.7536 82.318 12.9648 82.2868 13.1975C82.2436 13.2287 82.2076 13.3391 82.1764 13.531C82.1668 13.9437 82.0924 14.2293 81.9556 14.3876C81.8381 14.5364 81.7013 14.6156 81.5429 14.6252C81.3942 14.6348 81.267 14.5772 81.1638 14.45C80.9959 14.0061 80.8303 13.579 80.6719 13.1663C80.5352 12.9768 79.9857 12.8592 79.0235 12.8184C77.2911 12.756 75.8058 12.7704 74.5677 12.8664C72.6961 12.9624 71.8251 13.2479 71.9523 13.723C71.9955 14.2629 71.9211 14.6108 71.7316 14.7692C71.542 14.9275 71.3501 15.0019 71.1605 14.9923C70.9589 14.9395 70.8054 14.8291 70.6998 14.6588C70.6038 14.4908 70.5726 14.1357 70.6038 13.5958C70.6254 13.543 70.6398 13.4687 70.6518 13.3751C70.7574 12.7296 70.8798 12.3241 71.0165 12.1538C71.2493 11.9114 71.7604 11.7674 72.5546 11.7266C73.4928 11.6715 74.5653 11.6379 75.7698 11.6283ZM78.3852 18.3803C78.4284 18.5603 78.4548 18.7451 78.4644 18.9346C78.486 19.5057 78.3949 20.0336 78.1957 20.5206C77.8574 21.2501 77.5142 21.7636 77.1663 22.0587C76.3529 22.7449 75.7507 23.0833 75.3595 23.0737C74.894 23.0521 74.6253 22.9153 74.5509 22.661C74.4453 22.3658 74.5869 22.1019 74.978 21.8691C75.7602 21.382 76.2977 20.9286 76.5953 20.5062C77.0392 19.808 77.2407 19.2009 77.1975 18.6827C77.0392 18.8098 76.8592 18.9586 76.6576 19.1266C73.6559 21.3365 71.8059 22.4234 71.1101 22.3922C70.9301 22.3706 70.7454 22.2507 70.5558 22.0275C70.3975 21.8164 70.3855 21.6268 70.5246 21.4564C70.683 21.2549 71.0045 21.0701 71.4916 20.9022C72.2427 20.6382 73.6007 19.9184 75.5659 18.7451C75.7866 18.5867 76.2161 18.2652 76.8496 17.7781C76.7008 17.5453 76.5281 17.3654 76.3265 17.2382C76.2737 17.2694 76.2161 17.3174 76.1514 17.3798C73.3824 19.3761 71.5852 20.3551 70.7622 20.3119C70.5942 20.2807 70.4239 20.1535 70.2559 19.9304C70.1191 19.7288 70.1191 19.5441 70.2559 19.3761C70.4047 19.2081 70.7214 19.0426 71.2061 18.8842C72.2954 18.5675 73.6991 17.8956 75.4219 16.8711C75.0932 16.7655 74.7237 16.7127 74.311 16.7127C72.6937 17.6221 71.6644 18.0444 71.2205 17.982C71.0405 17.9388 70.8654 17.8021 70.6974 17.5693C70.5486 17.3582 70.5558 17.1686 70.7142 16.9982C70.8726 16.8183 71.2061 16.6599 71.7124 16.5232C72.5042 16.312 73.8839 15.7001 75.849 14.6852C75.3835 14.6948 74.8437 14.8123 74.2318 15.0331C73.5336 15.297 73.0897 15.297 72.9001 15.0331C72.7513 14.8003 72.7465 14.5532 72.8857 14.2893C73.0225 14.0349 73.2384 13.855 73.536 13.7494C73.6847 13.675 75.6115 13.639 79.321 13.639C79.8393 13.639 80.0769 13.735 80.0337 13.9245C79.9809 14.1357 79.7577 14.3732 79.369 14.6372C79.1579 14.786 78.81 14.8219 78.3229 14.7476C77.9749 14.7044 77.651 14.6852 77.3559 14.6852C77.0488 14.9491 76.5113 15.3354 75.7386 15.8417C75.7602 15.8417 75.7866 15.8585 75.8178 15.8897C76.96 16.408 77.6462 16.8399 77.879 17.1902C78.7884 16.7559 79.501 16.2232 80.0193 15.5898C80.24 15.3162 80.48 15.3042 80.7319 15.5586C80.9335 15.7793 81.0534 16.0721 81.0966 16.4296C81.1278 16.7247 80.9383 16.9431 80.5256 17.0798C80.42 17.111 80.2712 17.1758 80.0817 17.2694C79.8705 17.3534 79.537 17.4661 79.0835 17.6029C79.6114 18.1308 80.1608 18.5219 80.7319 18.7762C81.946 19.2825 82.9034 19.5321 83.6017 19.5201C84.2039 19.5513 84.3719 19.7312 84.1079 20.0599C83.8968 20.3455 83.2681 20.6622 82.222 21.0101C81.7253 21.1901 81.2334 21.0365 80.7487 20.5494C79.501 19.1362 78.714 18.4139 78.3852 18.3803Z" fill="#EBE0CF"/>
<path d="M89.7219 14.8509C89.9018 14.6397 90.1826 14.6181 90.5617 14.7885C90.9096 14.9684 91.0152 15.2156 90.8784 15.5323C90.7297 15.8394 90.4297 16.0386 89.9762 16.1346C89.6067 16.2401 89.2108 16.3769 88.7861 16.5473C88.4262 16.696 88.1047 16.7896 87.8191 16.8328C87.6512 16.8424 87.56 16.7632 87.5504 16.5953C87.5408 16.4273 87.7447 16.2137 88.1694 15.9618C88.6973 15.7075 89.2156 15.3379 89.7219 14.8509ZM94.288 14.5341C95.3654 14.9348 96.1956 15.2156 96.7763 15.3739C97.1026 15.5107 97.1506 15.6763 96.9179 15.8658C96.7379 16.0338 96.4835 16.1993 96.1572 16.3577C95.8501 16.4633 95.5334 16.3841 95.207 16.1202C94.6792 15.7195 94.2233 15.3211 93.8441 14.93C93.6642 14.7285 93.6114 14.5821 93.6858 14.4861C93.7602 14.3806 93.9617 14.3974 94.288 14.5341ZM91.5767 20.5112C91.3559 20.396 91.1496 20.288 90.9576 20.1944C89.7939 19.6018 89.2132 19.2275 89.2132 19.0691C88.3782 19.2179 87.5 19.5346 86.581 20.0193C86.0627 20.2832 85.662 20.2688 85.3765 19.9713C85.1221 19.6642 85.1701 19.273 85.518 18.798C85.7508 18.4908 86.0723 18.3445 86.485 18.3541C86.8329 18.3445 87.6152 18.2701 88.8317 18.1309C89.074 18.0997 89.3116 18.0781 89.5443 18.0685C89.6499 17.9102 90.0362 17.5622 90.7009 17.0224C91.1352 16.7056 91.4039 16.4513 91.5095 16.2617C91.699 15.9762 91.927 15.8274 92.1909 15.8178C92.2221 15.8178 92.2437 15.8226 92.2533 15.8346C91.915 15.4747 91.783 14.7669 91.8574 13.7111C91.1927 13.7111 90.4633 13.8527 89.6691 14.1382C88.9085 14.4238 88.4262 14.4238 88.227 14.1382C88.0471 13.8959 88.0375 13.6247 88.1958 13.3296C88.3974 13.0033 88.7237 12.7849 89.1796 12.6793C89.5803 12.5954 90.2954 12.5834 91.3199 12.6482C91.4999 12.6386 91.6846 12.6386 91.8742 12.6482C91.8526 12.4466 91.8214 12.2834 91.7782 12.1563C90.6049 12.0411 89.9066 11.9355 89.6859 11.8395C89.338 11.7436 89.1844 11.6332 89.2252 11.506C89.266 11.3908 89.4675 11.3165 89.8275 11.2853C89.8371 11.2757 89.8587 11.2757 89.8898 11.2853C92.0134 11.0525 93.1867 10.8846 93.4098 10.779C93.7362 10.5678 93.9545 10.4838 94.0601 10.5246C94.2089 10.599 94.36 10.7838 94.5208 11.0789C94.7008 11.4388 94.7583 11.7196 94.696 11.9187C94.6432 12.0867 94.396 12.1947 93.9521 12.2354C93.6666 12.2259 93.3978 12.2187 93.1435 12.2187C93.0907 12.3458 93.0595 12.4874 93.0475 12.6458C94.0409 12.6362 95.0607 12.629 96.1068 12.629C96.6563 12.6194 96.9106 12.7249 96.8675 12.9457C96.8147 13.1688 96.5771 13.4208 96.1548 13.7063C95.9341 13.8551 95.5526 13.8911 95.0127 13.8167C94.2928 13.7327 93.645 13.6895 93.0619 13.6895C93.0715 13.9655 93.0931 14.2966 93.1243 14.6877C93.1243 15.0356 93.0619 15.3427 92.9348 15.6067C92.8172 15.8298 92.6804 15.9402 92.5221 15.9402C92.5532 15.9618 92.5844 15.993 92.618 16.0362V16.053C92.6708 16.0626 92.7284 16.0842 92.7932 16.1154C94.1249 16.792 94.9815 17.4471 95.3606 18.0805C96.5435 18.1957 97.9184 18.3565 99.4829 18.5556C99.8212 18.5988 99.91 18.762 99.7516 19.0475C99.5932 19.2586 99.4445 19.4602 99.3077 19.6498C98.811 20.2424 98.2567 20.3888 97.6425 20.0937C96.5843 19.501 95.7565 19.2059 95.1543 19.2059C94.9335 19.5226 94.5952 19.8777 94.1393 20.2688C95.387 20.7127 96.1356 21.1734 96.39 21.6485C96.4955 21.8813 96.5123 22.0756 96.438 22.234C96.2892 22.4571 96.0564 22.5891 95.7397 22.6299C95.4638 22.6731 94.9311 22.4187 94.1393 21.8693C93.717 21.6269 93.3091 21.4038 92.918 21.2046C92.0614 21.7853 91.2215 22.2508 90.3961 22.5987C89.5923 22.9154 89.0284 23.0114 88.6997 22.8842C88.3926 22.769 88.2342 22.5939 88.2246 22.3611C88.1934 22.054 88.2774 21.7853 88.479 21.5525C88.6781 21.3102 89.2708 21.087 90.2546 20.8855C90.5929 20.8231 90.7609 20.7895 90.7609 20.7895C90.7609 20.7895 91.0392 20.7007 91.5767 20.5112ZM93.7338 17.9581C93.3739 17.6726 92.9875 17.3823 92.5772 17.0871C92.4405 17.2671 92.2293 17.4039 91.9438 17.4998C91.6151 17.6366 91.4159 17.7854 91.3415 17.9437C92.1333 17.9126 92.93 17.9174 93.7338 17.9581ZM93.4003 19.5274C93.6642 19.285 93.8489 19.1099 93.9545 19.0043C93.0667 18.8555 92.0781 18.8147 90.9888 18.8771C91.2095 19.1939 91.7806 19.4842 92.6996 19.7481C92.7956 19.7697 92.8796 19.8009 92.9539 19.8441C93.1147 19.7409 93.2635 19.6354 93.4003 19.5274Z" fill="#EBE0CF"/>
<path d="M105.558 20.1364C104.882 20.146 104.364 20.1724 104.006 20.2156C103.541 20.2588 103.207 20.1148 103.008 19.7885C102.818 19.5341 102.718 19.1334 102.706 18.584C102.662 16.3237 102.658 15.0592 102.689 14.7952C102.763 14.5001 102.885 14.2985 103.053 14.193C103.308 14.013 103.598 13.9458 103.924 13.9866C104.179 14.0298 104.755 14.0298 105.652 13.9866C109.362 13.8714 111.358 13.9866 111.643 14.3345C111.823 14.5241 111.891 14.8408 111.85 15.2847C111.84 15.5606 111.84 15.887 111.85 16.2685C111.859 16.9331 111.859 17.4946 111.85 17.9481C111.85 18.1377 111.855 18.344 111.867 18.5672C111.876 19.2222 111.756 19.6517 111.502 19.8509C111.185 20.1052 110.782 20.2156 110.297 20.1844C108.86 20.1316 107.644 20.11 106.65 20.122C106.641 20.1316 106.633 20.1436 106.633 20.1532C105.882 21.3265 104.906 22.1663 103.701 22.6726C102.962 22.8838 102.475 22.8622 102.242 22.6102C102 22.3463 101.93 22.0824 102.036 21.8184C102.142 21.5425 102.432 21.3529 102.907 21.2473C103.977 21.0146 104.86 20.6427 105.558 20.1364ZM107.192 18.2024C105.566 18.212 104.476 18.2552 103.927 18.3296C103.958 18.6151 103.996 18.7735 104.037 18.8047C104.217 18.9847 105.273 19.0686 107.207 19.059C109.088 19.0374 110.161 18.9487 110.425 18.7903C110.487 18.7375 110.525 18.584 110.535 18.3296C110.093 18.2336 108.978 18.1928 107.192 18.2024ZM107.192 17.377C108.925 17.3554 110.045 17.3242 110.554 17.281C110.554 17.0915 110.554 16.9115 110.554 16.7412C110.3 16.6668 109.904 16.6308 109.364 16.6308C106.691 16.5684 104.846 16.6044 103.831 16.7412C103.831 16.7508 103.836 16.7724 103.848 16.8036C103.848 16.9715 103.852 17.1371 103.864 17.2954C104.517 17.3626 105.628 17.389 107.192 17.377ZM107.159 15.7934C108.903 15.7718 110.033 15.7406 110.552 15.6974C110.542 15.4023 110.499 15.2319 110.425 15.1911C110.17 15.0016 108.944 14.9104 106.746 14.9224C104.98 14.932 104.047 15.0064 103.941 15.1431C103.888 15.1743 103.857 15.3639 103.845 15.7142C104.469 15.7766 105.575 15.803 107.159 15.7934ZM108.935 21.7368C108.565 21.6624 108.399 21.4993 108.443 21.2449C108.486 20.9498 108.649 20.7171 108.935 20.5467C109.273 20.326 109.585 20.326 109.87 20.5467C110.029 20.7051 110.621 21.101 111.646 21.7368C111.931 21.9264 112.143 22.1015 112.279 22.2599C112.438 22.4303 112.438 22.5502 112.279 22.6246C112.152 22.6678 111.831 22.603 111.312 22.4351C110.331 22.1087 109.537 21.876 108.935 21.7368ZM105.686 11.0521C109.057 10.9681 110.868 11.0689 111.123 11.3544C111.356 11.5751 111.435 11.8343 111.36 12.1318C111.159 12.7125 110.885 13.1156 110.535 13.3363C110.333 13.4635 110.021 13.5067 109.599 13.4635C108.954 13.4203 107.951 13.4323 106.588 13.4947C105.489 13.5475 104.781 13.6051 104.464 13.6699C104.253 13.7323 104.095 13.7179 103.989 13.6219C103.852 13.4851 103.752 13.2668 103.689 12.9716C103.637 12.6549 103.557 12.379 103.452 12.1462C103.346 11.9135 103.377 11.6711 103.548 11.4168C103.675 11.2152 103.934 11.1097 104.325 11.1001C104.68 11.0785 105.136 11.0641 105.686 11.0521ZM104.987 12.6693C106.921 12.6045 108.476 12.5685 109.647 12.5589C109.806 12.4965 109.88 12.4438 109.868 12.4006C109.877 12.2734 109.885 12.1414 109.885 12.0046C109.906 11.9519 109.868 11.9039 109.774 11.8631C107.924 11.6951 106.312 11.7047 104.939 11.8943C104.918 11.9567 104.913 11.9951 104.923 12.0046C104.87 12.1942 104.865 12.3694 104.906 12.5277C104.887 12.5589 104.913 12.6069 104.987 12.6693Z" fill="#EBE0CF"/>
<path d="M118.871 14.2813C119.495 14.2165 120.107 14.1853 120.709 14.1853C124.248 13.9814 126.257 14.2021 126.734 14.8476C126.83 15.0203 126.792 15.2579 126.624 15.5578C126.549 15.7306 126.492 15.9825 126.449 16.3184C126.281 17.3526 125.983 17.9669 125.561 18.1612C125.307 18.2908 124.99 18.3076 124.611 18.2092C123.946 18.0268 123.099 17.9405 122.074 17.9501C120.932 17.9932 120.15 18.1012 119.728 18.274C119.433 18.4251 119.2 18.4347 119.03 18.3052C118.797 18.1444 118.629 17.7989 118.523 17.271C118.334 16.1505 118.207 15.493 118.142 15.2987C118.005 14.9963 117.971 14.7756 118.046 14.6364C118.175 14.4421 118.449 14.3245 118.871 14.2813ZM121.837 15.9945C121.827 15.553 121.815 15.2771 121.806 15.1715C120.875 15.1811 120.184 15.2195 119.73 15.2843C119.519 15.3394 119.397 15.4018 119.365 15.4786C119.27 15.6178 119.303 16.0329 119.461 16.7239C119.514 16.9183 119.593 17.0359 119.699 17.0791C119.795 17.1222 120.006 17.1222 120.332 17.0791C120.851 17.0359 121.335 17.0143 121.791 17.0143C121.801 16.9399 121.813 16.8679 121.823 16.8031C121.842 16.6951 121.847 16.424 121.837 15.9945ZM123.104 16.9303C123.104 16.9519 123.104 16.9687 123.104 16.9783C124.383 16.9687 125.038 16.9567 125.069 16.9471C125.165 16.8823 125.232 16.7791 125.275 16.64C125.403 15.8961 125.403 15.4594 125.275 15.3299C124.968 15.1691 124.239 15.1091 123.087 15.1523C123.025 15.8217 123.029 16.4144 123.104 16.9303ZM119.934 16.3808C119.797 16.2728 119.733 16.1169 119.745 15.9129C119.766 15.6442 119.877 15.5026 120.078 15.493C120.227 15.4618 120.385 15.4834 120.553 15.5578C120.712 15.6442 120.844 15.6922 120.949 15.7042C121.244 15.8001 121.393 15.9033 121.393 16.0113C121.393 16.1505 121.283 16.244 121.059 16.2872C120.805 16.3304 120.594 16.3832 120.426 16.448C120.236 16.4792 120.071 16.4576 119.934 16.3808ZM124.786 15.6394C124.923 15.7042 124.997 15.8217 125.007 15.9945C125.028 16.232 124.954 16.3712 124.786 16.4144C124.606 16.4912 124.4 16.5056 124.167 16.4624C123.946 16.4096 123.766 16.388 123.627 16.3976C123.351 16.376 123.209 16.316 123.2 16.22C123.2 16.0905 123.284 15.9945 123.454 15.9297C123.74 15.8337 123.982 15.7354 124.184 15.6394C124.416 15.541 124.615 15.541 124.786 15.6394ZM124.721 13.1487C124.743 13.2231 124.738 13.3167 124.704 13.4223C124.651 13.595 124.428 13.6814 124.037 13.6814C122.42 13.6502 121.338 13.6814 120.788 13.7774C120.282 13.8854 119.958 13.811 119.821 13.5519C119.79 13.4655 119.769 13.4007 119.759 13.3575C119.685 13.3887 119.627 13.4271 119.584 13.4703C117.724 14.6556 116.477 15.1499 115.843 14.9579C115.601 14.8836 115.394 14.6988 115.224 14.4085C115.075 14.1181 115.07 13.8854 115.207 13.7126C115.366 13.5519 115.673 13.4487 116.126 13.4055C116.412 13.3743 117.062 13.1943 118.077 12.8728C119.915 12.1626 121.079 11.5435 121.566 11.0156C121.628 10.9197 121.698 10.8477 121.772 10.8045C121.847 10.6533 121.93 10.5789 122.026 10.5789C122.228 10.471 122.444 10.5357 122.677 10.7733C123.289 11.4091 124.198 11.9418 125.403 12.3737C127.2 13.0096 128.527 13.2951 129.381 13.2303C129.94 13.1871 130.12 13.3335 129.921 13.667C129.762 13.9694 129.222 14.3509 128.303 14.814C127.881 15.0395 127.411 14.9603 126.893 14.5716C126.048 13.9574 125.323 13.4847 124.721 13.1487ZM122.581 12.0666C122.317 11.9706 122.101 11.9058 121.93 11.8722C121.645 12.0762 121.227 12.3737 120.678 12.76C120.805 12.7384 120.952 12.7336 121.122 12.7432C123.109 12.7864 124.119 12.808 124.15 12.808C123.74 12.5201 123.217 12.2705 122.581 12.0666ZM123.912 22.9745C122.677 22.8665 121.657 22.9145 120.853 23.1209C120.239 23.2504 119.833 23.2504 119.632 23.1209C119.325 22.9265 119.171 22.5498 119.171 21.9907C119.128 21.3021 119.102 20.6158 119.092 19.9392C119.018 19.2937 119.097 18.857 119.329 18.6315C119.488 18.4923 119.73 18.4203 120.059 18.4203C123.262 18.2812 125.052 18.3556 125.434 18.6459C125.741 18.893 125.856 19.265 125.782 19.7616C125.698 20.2559 125.65 20.7862 125.64 21.3453C125.662 22.0339 125.53 22.4922 125.244 22.7178C124.927 22.9961 124.484 23.0825 123.912 22.9745ZM124.263 21.65C124.337 21.5636 124.378 21.3693 124.39 21.0693C124.061 21.0046 123.392 20.9782 122.377 20.9878C121.331 20.9878 120.644 21.019 120.316 21.0837C120.368 21.5156 120.431 21.7508 120.505 21.794C120.589 21.8492 120.748 21.8708 120.98 21.8588C123.157 21.7196 124.251 21.65 124.263 21.65ZM122.058 19.3537C121.021 19.3969 120.45 19.4665 120.344 19.5649C120.282 19.5961 120.248 19.764 120.248 20.0664C121.105 20.1528 122.485 20.1575 124.385 20.0832C124.376 19.7161 124.332 19.5121 124.258 19.4689C124.104 19.3609 123.368 19.3225 122.058 19.3537Z" fill="#EBE0CF"/>
</g>
<defs>
<clipPath id="clip0_870_3685">
<rect width="130" height="38.6288" fill="white"/>
</clipPath>
</defs>
</svg>
