<svg width="113" height="39" viewBox="0 0 113 39" fill="none" xmlns="http://www.w3.org/2000/svg">
<g clip-path="url(#clip0_870_3646)">
<path d="M3.61833 35.8358C3.40572 35.8358 3.29056 35.8402 3.16211 35.8623V35.5754C3.28613 35.5975 3.40129 35.6019 3.63161 35.6019H3.92838C3.98153 35.3548 3.99924 35.24 3.99924 35.0856C4.13212 35.0988 4.25171 35.0988 4.4466 35.0988H6.77198C7.01116 35.0988 7.12632 35.0944 7.25034 35.0856C7.23706 35.1562 7.23263 35.1694 7.21934 35.2621C7.21491 35.3106 7.19719 35.421 7.17062 35.6019H7.45409C7.67998 35.6019 7.79957 35.5975 7.93245 35.5754V35.8623C7.79515 35.8402 7.67555 35.8358 7.45852 35.8358H7.13518C7.10861 35.9903 7.10861 35.9903 7.07317 36.211C7.06431 36.2595 7.06431 36.2727 7.05545 36.3522C6.90486 36.3389 6.75426 36.3345 6.5328 36.3345H4.14541C3.96381 36.3345 3.84422 36.3389 3.70248 36.3522C3.77335 36.1801 3.80879 36.0653 3.8708 35.8358H3.61833ZM4.9604 38.5367C4.4466 38.7751 4.07011 38.881 3.36586 38.9913C3.29056 38.8501 3.25512 38.7971 3.1754 38.7C3.88851 38.6294 4.26943 38.5412 4.72565 38.3293L4.9604 38.5367ZM7.28578 34.5648C7.53825 34.5648 7.65341 34.5604 7.81729 34.5427C7.804 34.6266 7.79515 34.7016 7.79515 34.8252V35.0414C7.79515 35.1959 7.79957 35.2842 7.81729 35.3768H7.47624V34.834H3.61833V35.3636H3.27284C3.29499 35.2709 3.29942 35.1915 3.29942 35.0238V34.8208C3.29942 34.7104 3.29056 34.6354 3.27727 34.5383C3.44115 34.556 3.56517 34.5604 3.81321 34.5604H5.3236V34.503C5.3236 34.353 5.31917 34.2559 5.2926 34.1367H5.69566C5.67352 34.2471 5.66023 34.3486 5.66023 34.503V34.5604H7.28578V34.5648ZM3.83536 37.0671C3.83536 36.8509 3.83093 36.7052 3.81764 36.5464C3.98596 36.5596 4.10112 36.564 4.37131 36.564H6.68339C6.96687 36.564 7.09532 36.5596 7.23706 36.5419C7.2282 36.6788 7.21934 36.8553 7.21934 37.076V37.8262C7.21934 38.0998 7.22377 38.2278 7.24148 38.3293C7.08646 38.3117 6.91815 38.3073 6.64353 38.3073H4.41117C4.13655 38.3073 3.96824 38.3117 3.81321 38.3293C3.83093 38.2234 3.83536 38.091 3.83536 37.835V37.0671ZM4.1897 35.8358C4.16313 35.9373 4.15427 35.9726 4.11441 36.105H5.22616C5.26159 35.9991 5.27045 35.955 5.30146 35.8358H4.1897ZM6.91815 36.8067H4.14541V37.0715H6.91815V36.8067ZM6.91815 37.301H4.14541V37.5658H6.91815V37.301ZM6.91815 37.7953H4.14541V38.0733H6.91815V37.7953ZM5.35018 35.6019C5.3679 35.496 5.37675 35.443 5.39004 35.3327H4.29601C4.27386 35.4563 4.26943 35.496 4.24729 35.6019H5.35018ZM5.60265 35.8358C5.56721 35.9638 5.55835 36.0168 5.53178 36.105H6.77198C6.80741 35.9815 6.81184 35.9373 6.83399 35.8358H5.60265ZM5.69123 35.3327C5.67352 35.443 5.67352 35.443 5.64251 35.6019H6.86499C6.87828 35.5269 6.87828 35.5269 6.90486 35.3327H5.69123ZM6.33348 38.3426C6.85614 38.55 7.22377 38.6338 7.92802 38.6912C7.84387 38.7839 7.79957 38.8545 7.72428 38.9913C6.99344 38.8721 6.63024 38.7662 6.11645 38.5367L6.33348 38.3426Z" fill="#EBE0CF"/>
<path d="M10.5458 35.5003C10.6919 35.924 10.8425 36.1888 11.095 36.4713C11.0153 36.5551 10.971 36.6037 10.8912 36.7316C10.7229 36.4889 10.6299 36.3036 10.497 35.9549C10.5148 36.2021 10.528 36.5286 10.528 36.7758V38.3822C10.528 38.6691 10.5325 38.8544 10.559 39.0001H10.187C10.2091 38.85 10.218 38.6558 10.218 38.3822V36.8949C10.218 36.639 10.2269 36.3433 10.249 36.0652C10.0718 36.661 10.0364 36.7758 9.92123 37.0317C9.81936 37.2524 9.73963 37.398 9.61118 37.5966C9.54031 37.4863 9.50931 37.451 9.38086 37.3318C9.7352 36.8464 10.001 36.2329 10.1648 35.4959H9.90352C9.74406 35.4959 9.6289 35.5003 9.53588 35.518V35.1826C9.63333 35.2002 9.7352 35.2047 9.90352 35.2047H10.2136V34.7015C10.2136 34.4014 10.2047 34.2646 10.187 34.1543H10.5546C10.5325 34.2867 10.528 34.4367 10.528 34.7015V35.2047H10.7141C10.8691 35.2047 10.9621 35.2002 11.064 35.1826V35.518C10.9577 35.5003 10.8558 35.4959 10.7185 35.4959H10.5458V35.5003ZM11.4538 36.1447C11.219 36.1447 11.0906 36.1491 10.9355 36.1712V35.849C11.0728 35.8711 11.2013 35.8755 11.4405 35.8755H11.786V35.5003H11.6531C11.4582 35.5003 11.343 35.5048 11.2102 35.5224V35.2223C11.3342 35.24 11.4582 35.2444 11.6531 35.2444H11.786V34.8869H11.4936C11.2987 34.8869 11.1659 34.8913 11.0286 34.909V34.6089C11.1526 34.6265 11.281 34.6353 11.4936 34.6353H11.786C11.7815 34.3882 11.7771 34.2867 11.755 34.172H12.1137C12.0872 34.2823 12.0827 34.3794 12.0827 34.6353H12.9819C12.9774 34.3397 12.9774 34.2823 12.9509 34.172H13.3141C13.2919 34.3043 13.2875 34.4235 13.2875 34.6353H13.7127C13.9209 34.6353 14.0405 34.6265 14.1822 34.6045V34.9178C14.0316 34.8957 13.9253 34.8913 13.7127 34.8913H13.2875V35.2488H13.5621C13.7526 35.2488 13.881 35.2444 14.0095 35.2223V35.5312C13.8854 35.5092 13.7614 35.5048 13.5621 35.5048H13.2875V35.8799H13.7659C14.005 35.8799 14.1335 35.8755 14.2841 35.849V36.18C14.1246 36.1491 14.0095 36.1491 13.7614 36.1491H12.632V36.4933H13.3761C13.5843 36.4933 13.7614 36.4845 13.8899 36.4668C13.8722 36.5904 13.8677 36.7449 13.8677 37.0097V37.8438H13.912C14.0981 37.8438 14.1778 37.8394 14.3107 37.8129V38.1351C14.1645 38.1174 14.0538 38.113 13.912 38.113H13.8677V38.5278C13.8677 38.8588 13.7659 38.9383 13.3628 38.9383C13.1989 38.9383 13.0527 38.9339 12.8446 38.925C12.8313 38.8235 12.8136 38.7176 12.7781 38.6205C13.0084 38.6514 13.1679 38.6647 13.3451 38.6647C13.5178 38.6647 13.5577 38.6426 13.5577 38.5146V38.1174H11.5113V38.4307C11.5113 38.7706 11.5113 38.8632 11.5335 39.0133H11.1747C11.1969 38.8412 11.2013 38.7044 11.2013 38.4307V38.1174C11.0507 38.1174 10.94 38.1262 10.8292 38.1439V37.8217C10.94 37.8438 11.0374 37.8482 11.2013 37.8482V37.0008C11.2013 36.789 11.1969 36.661 11.1792 36.4933C11.312 36.4977 11.4892 36.5022 11.7594 36.5022H12.3396V36.1447H11.4538ZM12.3396 36.7405H11.5113V37.1509H12.3396V36.7405ZM12.3396 37.4025H11.5113V37.835H12.3396V37.4025ZM12.9907 34.8913H12.0916V35.2488H12.9907V34.8913ZM12.9907 35.5003H12.0916V35.8755H12.9907V35.5003ZM13.5621 36.7405H12.632V37.1509H13.5621V36.7405ZM13.5621 37.4025H12.632V37.835H13.5621V37.4025Z" fill="#EBE0CF"/>
<path d="M20.0465 37.3586C20.3344 37.3586 20.4939 37.3453 20.6489 37.3277V37.6719C20.4629 37.6498 20.2946 37.6366 20.0465 37.6366H18.6424C19.1429 38.0603 19.8516 38.3692 20.7375 38.5545C20.6268 38.6914 20.5913 38.7487 20.5293 38.89C20.0332 38.7487 19.732 38.6296 19.3998 38.4663C18.9879 38.2633 18.6734 38.047 18.3811 37.7557C18.3988 37.9323 18.4033 38.0691 18.4033 38.1662V38.4663C18.4033 38.7355 18.4077 38.8811 18.4298 39.0047H18.0489C18.0711 38.8635 18.0799 38.7223 18.0799 38.4663V38.1662C18.0799 38.0603 18.0843 37.9499 18.1021 37.7557C17.8186 38.0117 17.5661 38.1927 17.1852 38.3957C16.8486 38.5766 16.5385 38.6958 16.0114 38.8679C15.9494 38.7311 15.883 38.634 15.7988 38.5545C16.6094 38.3736 17.3181 38.0558 17.8496 37.641H16.5562C16.3171 37.641 16.1487 37.6498 15.9627 37.6763V37.3321C16.1045 37.3541 16.2728 37.363 16.5562 37.363H18.0799C18.0799 37.182 18.0711 37.107 18.0578 36.9967C17.9736 37.0585 17.9337 37.0849 17.8186 37.1555C17.7433 37.0496 17.6946 37.0011 17.5794 36.9216C18.1109 36.6613 18.2571 36.4362 18.2571 35.8183C18.2571 35.6859 18.2527 35.6109 18.2349 35.505C18.3457 35.5226 18.4608 35.527 18.6734 35.527H19.4618C19.6523 35.527 19.794 35.5226 19.9136 35.505C19.9003 35.6594 19.8915 35.7918 19.8915 36.0213V36.6215C19.8915 36.7186 19.9092 36.723 20.0952 36.723C20.299 36.723 20.3433 36.7098 20.361 36.6524C20.3787 36.5818 20.4009 36.3303 20.4009 36.0522C20.5116 36.1273 20.578 36.1581 20.6888 36.1979C20.6799 36.5289 20.64 36.7451 20.5869 36.8422C20.5249 36.9702 20.4053 37.0055 20.0598 37.0055C19.6656 37.0055 19.5814 36.9481 19.5814 36.701V35.7918H18.5538C18.5361 36.445 18.4343 36.6921 18.0711 36.9878H18.421C18.4077 37.1026 18.4033 37.1732 18.4033 37.363H20.0465V37.3586ZM16.6891 34.8915C16.5031 35.1519 16.3658 35.3152 16.1532 35.5094C16.069 35.4123 16.0114 35.3726 15.8874 35.2976C16.3348 34.9313 16.6094 34.5605 16.7644 34.106L17.1055 34.2075C17.0213 34.3664 16.9814 34.4414 16.8796 34.6091H17.7167C17.9736 34.6091 18.1109 34.5958 18.2438 34.5782V34.9136C18.1153 34.896 17.9559 34.8915 17.7521 34.8915H17.4067C17.513 35.0548 17.5705 35.1475 17.6857 35.3549L17.3934 35.4608C17.2826 35.2181 17.2118 35.0769 17.0922 34.8915H16.6891ZM16.5518 35.858C16.3525 35.858 16.2462 35.8625 16.1133 35.8845V35.5624C16.2418 35.5844 16.3303 35.5888 16.5518 35.5888H17.4731C17.7034 35.5888 17.792 35.5844 17.916 35.5624V35.8845C17.7876 35.8669 17.6813 35.858 17.4864 35.858H17.1808V36.4891C17.4288 36.4185 17.5573 36.3832 17.916 36.2641L17.9426 36.5244C17.3978 36.7098 16.9504 36.8466 16.3746 36.9746C16.2108 37.0187 16.1797 37.0231 16.0557 37.0629L15.9583 36.7275C16.193 36.7142 16.3613 36.6789 16.8707 36.5642V35.858H16.5518ZM18.7 34.8915C18.5716 35.0901 18.483 35.2137 18.3058 35.4079C18.2217 35.324 18.1774 35.2887 18.0489 35.2225C18.3855 34.896 18.5893 34.565 18.7266 34.1016L19.0499 34.2031C18.9658 34.4017 18.9436 34.4458 18.855 34.6135H20.0864C20.3477 34.6135 20.4894 34.6091 20.6578 34.5826V34.9224C20.485 34.9004 20.3211 34.896 20.0997 34.896H19.5061C19.6257 35.0548 19.6833 35.1431 19.7719 35.2976L19.4929 35.4476C19.3998 35.2578 19.3245 35.1078 19.1784 34.896H18.7V34.8915ZM18.8595 35.9551C19.0898 36.2155 19.1961 36.3567 19.3733 36.6127L19.1385 36.7981C18.9658 36.5068 18.8462 36.3303 18.6424 36.114L18.8595 35.9551Z" fill="#EBE0CF"/>
<path d="M23.7587 34.1367H23.5195V38.9869H23.7587V34.1367Z" fill="#EBE0CF"/>
<path d="M28.1965 35.0371L29.8531 38.5765H29.4677L28.9096 37.4114H27.3771L26.8234 38.5765H26.4248L28.1035 35.0371H28.1965ZM28.1522 35.7918L27.541 37.0716H28.7546L28.1522 35.7918Z" fill="#EBE0CF"/>
<path d="M30.7168 35.9637H31.0623V36.3476C31.1642 36.1976 31.2705 36.0828 31.3901 36.0122C31.5052 35.9372 31.6248 35.8975 31.7488 35.8975C31.8418 35.8975 31.9393 35.9284 32.0456 35.9857L31.8684 36.2726C31.7975 36.2417 31.7355 36.2285 31.6912 36.2285C31.5761 36.2285 31.4698 36.2726 31.3635 36.3653C31.2572 36.4579 31.1774 36.5992 31.1243 36.7934C31.0844 36.9434 31.0623 37.2479 31.0623 37.6981V38.5807H30.7168V35.9637Z" fill="#EBE0CF"/>
<path d="M35.3457 36.5065L35.0755 36.6742C34.8452 36.3653 34.5307 36.2108 34.1276 36.2108C33.8087 36.2108 33.5429 36.3167 33.3303 36.5197C33.1177 36.7272 33.0114 36.9743 33.0114 37.27C33.0114 37.4598 33.0602 37.6407 33.1576 37.8084C33.255 37.9761 33.3879 38.1085 33.5607 38.2012C33.729 38.2939 33.9194 38.338 34.1276 38.338C34.513 38.338 34.8319 38.1835 35.0711 37.879L35.3412 38.0555C35.2128 38.2453 35.0445 38.391 34.8363 38.4925C34.6281 38.5984 34.3845 38.6513 34.1143 38.6513C33.698 38.6513 33.3525 38.5189 33.0823 38.2541C32.8077 37.9938 32.6748 37.6716 32.6748 37.2965C32.6748 37.0449 32.7368 36.8066 32.8653 36.5903C32.9981 36.3741 33.1709 36.202 33.3924 36.0828C33.6182 35.9592 33.8663 35.8975 34.1453 35.8975C34.3181 35.8975 34.4864 35.9239 34.6503 35.9769C34.8097 36.0343 34.9515 36.1005 35.0622 36.1843C35.1685 36.2682 35.2615 36.3741 35.3457 36.5065Z" fill="#EBE0CF"/>
<path d="M36.4844 34.9482H36.8211V36.4267C36.9584 36.2457 37.109 36.1133 37.2729 36.0251C37.4367 35.9368 37.6139 35.8927 37.8044 35.8927C38.0037 35.8927 38.1764 35.9412 38.327 36.0427C38.4776 36.1398 38.5928 36.2766 38.6637 36.4443C38.7345 36.612 38.7744 36.8768 38.7744 37.2343V38.5804H38.4333V37.3314C38.4333 37.0313 38.4245 36.8283 38.3979 36.7268C38.358 36.5547 38.2783 36.4223 38.1676 36.3384C38.0568 36.2546 37.9107 36.206 37.7335 36.206C37.5298 36.206 37.3437 36.2722 37.1843 36.409C37.0204 36.5458 36.9141 36.7091 36.8609 36.9077C36.8299 37.0401 36.8122 37.274 36.8122 37.6227V38.5804H36.4756V34.9482H36.4844Z" fill="#EBE0CF"/>
<path d="M40.116 34.8828C40.1957 34.8828 40.2577 34.9093 40.3108 34.9667C40.364 35.0196 40.395 35.0858 40.395 35.1653C40.395 35.2403 40.3684 35.3065 40.3108 35.3594C40.2577 35.4124 40.1913 35.4389 40.116 35.4389C40.0407 35.4389 39.9742 35.4124 39.9211 35.3594C39.8679 35.3065 39.8369 35.2403 39.8369 35.1653C39.8369 35.0858 39.8635 35.0196 39.9211 34.9667C39.9742 34.9137 40.0407 34.8828 40.116 34.8828ZM39.9476 35.9641H40.2843V38.5811H39.9476V35.9641Z" fill="#EBE0CF"/>
<path d="M41.7771 34.9883H42.1137V35.9636H42.6541V36.2505H42.1137V38.5807H41.7771V36.2505H41.3164V35.9636H41.7771V34.9883Z" fill="#EBE0CF"/>
<path d="M45.8656 37.7113L46.149 37.857C46.056 38.0423 45.9497 38.1879 45.8301 38.3027C45.7061 38.413 45.5688 38.4969 45.4138 38.5587C45.2587 38.616 45.086 38.6469 44.8911 38.6469C44.4659 38.6469 44.1293 38.5057 43.8857 38.2277C43.6465 37.9496 43.5225 37.6319 43.5225 37.2788C43.5225 36.9478 43.6243 36.6521 43.8281 36.3917C44.0894 36.0652 44.4349 35.8975 44.869 35.8975C45.3163 35.8975 45.6751 36.0652 45.9453 36.4094C46.1357 36.6477 46.2288 36.9434 46.2332 37.3053H43.8679C43.8724 37.6098 43.9698 37.857 44.1603 38.0511C44.3507 38.2453 44.5811 38.3424 44.8601 38.3424C44.993 38.3424 45.1214 38.3203 45.2499 38.2718C45.3739 38.2277 45.4846 38.1659 45.5732 38.0864C45.6662 38.007 45.7637 37.8834 45.8656 37.7113ZM45.8656 37.0096C45.8213 36.8287 45.7548 36.683 45.6662 36.5771C45.5821 36.4712 45.4669 36.3829 45.3252 36.3167C45.1834 36.2505 45.0328 36.2196 44.8734 36.2196C44.6165 36.2196 44.395 36.3035 44.209 36.4668C44.0717 36.5859 43.9698 36.7669 43.8989 37.0096H45.8656Z" fill="#EBE0CF"/>
<path d="M49.914 36.5065L49.6438 36.6742C49.4135 36.3653 49.099 36.2108 48.696 36.2108C48.3726 36.2108 48.1113 36.3167 47.8987 36.5197C47.6861 36.7272 47.5798 36.9743 47.5798 37.27C47.5798 37.4598 47.6285 37.6407 47.726 37.8084C47.8234 37.9761 47.9563 38.1085 48.129 38.2012C48.3018 38.2939 48.4878 38.338 48.7004 38.338C49.0902 38.338 49.4047 38.1835 49.6438 37.879L49.914 38.0555C49.79 38.2453 49.6217 38.391 49.4091 38.4925C49.1965 38.5984 48.9573 38.6513 48.6871 38.6513C48.2708 38.6513 47.9253 38.5189 47.6551 38.2541C47.3805 37.9938 47.2432 37.6716 47.2432 37.2965C47.2432 37.0449 47.3096 36.8066 47.4381 36.5903C47.5665 36.3741 47.7437 36.202 47.9651 36.0828C48.191 35.9592 48.4391 35.8975 48.7181 35.8975C48.8909 35.8975 49.0592 35.9239 49.2231 35.9769C49.3869 36.0343 49.5242 36.1005 49.635 36.1843C49.7369 36.2682 49.8343 36.3741 49.914 36.5065Z" fill="#EBE0CF"/>
<path d="M51.3483 34.9883H51.6894V35.9636H52.2253V36.2505H51.6894V38.5807H51.3483V36.2505H50.8877V35.9636H51.3483V34.9883Z" fill="#EBE0CF"/>
<path d="M53.1826 35.9634H53.5192V37.1859C53.5192 37.486 53.5325 37.689 53.568 37.7993C53.6167 37.9582 53.7097 38.0862 53.847 38.1789C53.9843 38.2715 54.1438 38.3157 54.3342 38.3157C54.5247 38.3157 54.6841 38.2715 54.8126 38.1789C54.9455 38.0906 55.0341 37.9714 55.0828 37.8258C55.1182 37.7243 55.1315 37.508 55.1315 37.1815V35.959H55.477V37.2477C55.477 37.6095 55.4371 37.8788 55.353 38.0597C55.2688 38.2451 55.1404 38.3863 54.9721 38.4878C54.7993 38.5893 54.5867 38.6422 54.3342 38.6422C54.0773 38.6422 53.8647 38.5893 53.692 38.4878C53.5192 38.3819 53.3952 38.2406 53.3066 38.0553C53.2269 37.8699 53.1826 37.5919 53.1826 37.2168V35.9634Z" fill="#EBE0CF"/>
<path d="M56.6016 35.9637H56.947V36.3476C57.0489 36.1976 57.1597 36.0828 57.2704 36.0122C57.3855 35.9372 57.5051 35.8975 57.6292 35.8975C57.7222 35.8975 57.824 35.9284 57.9303 35.9857L57.7576 36.2726C57.6867 36.2417 57.6247 36.2285 57.576 36.2285C57.4653 36.2285 57.3545 36.2726 57.2527 36.3653C57.1464 36.4579 57.0666 36.5992 57.0135 36.7934C56.9736 36.9434 56.9515 37.2479 56.9515 37.6981V38.5807H56.606V35.9637H56.6016Z" fill="#EBE0CF"/>
<path d="M60.9031 37.7113L61.1866 37.857C61.0936 38.0423 60.9828 38.1879 60.8633 38.3027C60.7437 38.413 60.6019 38.4969 60.4513 38.5587C60.2963 38.616 60.128 38.6469 59.9331 38.6469C59.5079 38.6469 59.1713 38.5057 58.9277 38.2277C58.684 37.9496 58.5645 37.6319 58.5645 37.2788C58.5645 36.9478 58.6663 36.6521 58.8701 36.3917C59.1314 36.0652 59.4769 35.8975 59.911 35.8975C60.3583 35.8975 60.7171 36.0652 60.9828 36.4094C61.1733 36.6477 61.2707 36.9434 61.2752 37.3053H58.9099C58.9144 37.6098 59.0162 37.857 59.2023 38.0511C59.3927 38.2453 59.6231 38.3424 59.9021 38.3424C60.035 38.3424 60.1679 38.3203 60.2919 38.2718C60.4203 38.2277 60.5266 38.1659 60.6152 38.0864C60.7082 38.007 60.8012 37.8834 60.9031 37.7113ZM60.9031 37.0096C60.8588 36.8287 60.7924 36.683 60.7038 36.5771C60.6196 36.4712 60.5045 36.3829 60.3627 36.3167C60.221 36.2505 60.0748 36.2196 59.9154 36.2196C59.6585 36.2196 59.437 36.3035 59.251 36.4668C59.1137 36.5859 59.0118 36.7669 58.9454 37.0096H60.9031Z" fill="#EBE0CF"/>
<path d="M63.3565 36.6431V35.6016H63.6842V36.6431H64.7428V36.9741H63.6842V38.02H63.3565V36.9741H62.2979V36.6431H63.3565Z" fill="#EBE0CF"/>
<path d="M65.5938 35.3902V35.0371H67.5426V35.3902H66.7498V38.581H66.3866V35.3902H65.5938Z" fill="#EBE0CF"/>
<path d="M70.4651 37.7113L70.7486 37.857C70.6511 38.0423 70.5448 38.1879 70.4252 38.3027C70.3056 38.413 70.1639 38.4969 70.0133 38.5587C69.8627 38.616 69.6855 38.6469 69.4951 38.6469C69.0654 38.6469 68.7332 38.5057 68.4896 38.2277C68.246 37.9496 68.1309 37.6319 68.1309 37.2788C68.1309 36.9478 68.2327 36.6521 68.4365 36.3917C68.6978 36.0652 69.0433 35.8975 69.4774 35.8975C69.9247 35.8975 70.2835 36.0652 70.5537 36.4094C70.7397 36.6477 70.8416 36.9434 70.8416 37.3053H68.4763C68.4852 37.6098 68.5782 37.857 68.7687 38.0511C68.9591 38.2453 69.1939 38.3424 69.4685 38.3424C69.6014 38.3424 69.7298 38.3203 69.8583 38.2718C69.9823 38.2277 70.093 38.1659 70.1816 38.0864C70.2658 38.007 70.3588 37.8834 70.4651 37.7113ZM70.4651 37.0096C70.4208 36.8287 70.3499 36.683 70.2658 36.5771C70.1772 36.4712 70.0665 36.3829 69.9247 36.3167C69.783 36.2505 69.6324 36.2196 69.4774 36.2196C69.216 36.2196 68.9946 36.3035 68.8085 36.4668C68.6712 36.5859 68.5694 36.7669 68.5029 37.0096H70.4651Z" fill="#EBE0CF"/>
<path d="M74.5092 36.5065L74.239 36.6742C74.0087 36.3653 73.6942 36.2108 73.2912 36.2108C72.9722 36.2108 72.7065 36.3167 72.4939 36.5197C72.2813 36.7272 72.1794 36.9743 72.1794 37.27C72.1794 37.4598 72.2281 37.6407 72.3256 37.8084C72.423 37.9761 72.5559 38.1085 72.7286 38.2012C72.8969 38.2939 73.0874 38.338 73.3 38.338C73.6854 38.338 73.9998 38.1835 74.2434 37.879L74.5136 38.0555C74.3852 38.2453 74.2169 38.391 74.0087 38.4925C73.7961 38.5984 73.5525 38.6513 73.2867 38.6513C72.8704 38.6513 72.5249 38.5189 72.2547 38.2541C71.9801 37.9938 71.8428 37.6716 71.8428 37.2965C71.8428 37.0449 71.9048 36.8066 72.0332 36.5903C72.1617 36.3741 72.3344 36.202 72.5603 36.0828C72.7862 35.9592 73.0343 35.8975 73.3133 35.8975C73.486 35.8975 73.6544 35.9239 73.8138 35.9769C73.9733 36.0343 74.115 36.1005 74.2257 36.1843C74.332 36.2682 74.4295 36.3741 74.5092 36.5065Z" fill="#EBE0CF"/>
<path d="M75.9495 34.9883H76.2861V35.9636H76.822V36.2505H76.2861V38.5807H75.9495V36.2505H75.4844V35.9636H75.9495V34.9883Z" fill="#EBE0CF"/>
<path d="M79.067 35.8926C79.47 35.8926 79.8067 36.0382 80.0724 36.3295C80.316 36.5943 80.4356 36.912 80.4356 37.2739C80.4356 37.6402 80.3116 37.9624 80.0503 38.2316C79.7934 38.5052 79.4656 38.642 79.0625 38.642C78.6595 38.642 78.3317 38.5052 78.0748 38.2316C77.8179 37.958 77.6895 37.6402 77.6895 37.2739C77.6895 36.912 77.809 36.5987 78.0527 36.3339C78.3228 36.0426 78.6595 35.8926 79.067 35.8926ZM79.067 36.2236C78.7835 36.2236 78.5443 36.3251 78.3406 36.5325C78.1412 36.7399 78.0394 36.9915 78.0394 37.2828C78.0394 37.4725 78.0837 37.6491 78.1767 37.8123C78.2697 37.9756 78.3937 38.1036 78.5487 38.1919C78.7082 38.2802 78.8809 38.3243 79.067 38.3243C79.253 38.3243 79.4257 38.2802 79.5852 38.1919C79.7402 38.0992 79.8642 37.9756 79.9573 37.8123C80.0503 37.6491 80.0946 37.4725 80.0946 37.2828C80.0946 36.9915 79.9927 36.7399 79.7934 36.5325C79.5852 36.3295 79.346 36.2236 79.067 36.2236Z" fill="#EBE0CF"/>
<path d="M81.5566 35.9637H81.8933V36.4315C82.0261 36.2549 82.1767 36.1181 82.3451 36.0299C82.5089 35.9416 82.6861 35.8975 82.881 35.8975C83.0803 35.8975 83.2531 35.946 83.4037 36.0475C83.5542 36.1446 83.665 36.2814 83.7403 36.4491C83.8156 36.6168 83.8466 36.8816 83.8466 37.2347V38.5807H83.51V37.3318C83.51 37.0317 83.5011 36.8287 83.4745 36.7272C83.4347 36.555 83.3594 36.4226 83.2486 36.3344C83.1379 36.2505 82.9917 36.2064 82.8101 36.2064C82.6064 36.2064 82.4204 36.2726 82.2609 36.405C82.097 36.5418 81.9907 36.7051 81.942 36.9081C81.911 37.0405 81.8933 37.2744 81.8933 37.623V38.5807H81.5566V35.9637Z" fill="#EBE0CF"/>
<path d="M85.1843 34.8828C85.264 34.8828 85.3261 34.9093 85.3836 34.9667C85.4368 35.0196 85.4634 35.0858 85.4634 35.1653C85.4634 35.2403 85.4412 35.3065 85.3836 35.3594C85.3261 35.4124 85.264 35.4389 85.1843 35.4389C85.109 35.4389 85.047 35.4124 84.9894 35.3594C84.9363 35.3065 84.9053 35.2403 84.9053 35.1653C84.9053 35.0858 84.9319 35.0196 84.9894 34.9667C85.047 34.9137 85.109 34.8828 85.1843 34.8828ZM85.0204 35.9641H85.3571V38.5811H85.0204V35.9641Z" fill="#EBE0CF"/>
<path d="M89.1045 36.5065L88.8387 36.6742C88.6039 36.3653 88.2895 36.2108 87.8908 36.2108C87.5719 36.2108 87.3062 36.3167 87.0936 36.5197C86.881 36.7272 86.7747 36.9743 86.7747 37.27C86.7747 37.4598 86.8234 37.6407 86.9208 37.8084C87.0183 37.9761 87.1511 38.1085 87.3239 38.2012C87.4966 38.2939 87.6827 38.338 87.8908 38.338C88.2762 38.338 88.5951 38.1835 88.8387 37.879L89.1045 38.0555C88.9804 38.2453 88.8077 38.391 88.5995 38.4925C88.3913 38.5984 88.1477 38.6513 87.8775 38.6513C87.4656 38.6513 87.1157 38.5189 86.8455 38.2541C86.5709 37.9938 86.4336 37.6716 86.4336 37.2965C86.4336 37.0449 86.5 36.8066 86.6285 36.5903C86.7569 36.3741 86.9297 36.202 87.1556 36.0828C87.3815 35.9592 87.6295 35.8975 87.9085 35.8975C88.0813 35.8975 88.2496 35.9239 88.4135 35.9769C88.5774 36.0343 88.7147 36.1005 88.8254 36.1843C88.9273 36.2682 89.0247 36.3741 89.1045 36.5065Z" fill="#EBE0CF"/>
<path d="M91.5665 36.2506L91.3494 36.4756C91.1678 36.2991 90.9951 36.2108 90.8179 36.2108C90.7116 36.2108 90.6142 36.2461 90.5389 36.3212C90.4591 36.3918 90.4193 36.4801 90.4193 36.5727C90.4193 36.6566 90.4503 36.7404 90.5167 36.8155C90.5832 36.8949 90.7205 36.9876 90.9242 37.0935C91.1767 37.2215 91.345 37.3495 91.438 37.4686C91.5266 37.5878 91.5709 37.7246 91.5709 37.8791C91.5709 38.0909 91.4956 38.2762 91.345 38.4219C91.1944 38.5719 91.0039 38.647 90.7781 38.647C90.6275 38.647 90.4813 38.6161 90.3484 38.5455C90.2111 38.4837 90.0959 38.391 90.0029 38.2762L90.2155 38.0335C90.3883 38.2277 90.5699 38.3248 90.7648 38.3248C90.9021 38.3248 91.0128 38.2807 91.1103 38.1924C91.2077 38.1085 91.252 38.0026 91.252 37.8879C91.252 37.7908 91.221 37.7069 91.159 37.6319C91.097 37.5569 90.9552 37.4642 90.7293 37.3495C90.4902 37.2303 90.3307 37.1067 90.2465 36.9876C90.1624 36.8684 90.1181 36.736 90.1181 36.5816C90.1181 36.383 90.189 36.2197 90.3218 36.0873C90.4591 35.9549 90.6275 35.8887 90.8401 35.8887C91.0792 35.8931 91.3229 36.0122 91.5665 36.2506Z" fill="#EBE0CF"/>
<path d="M94.2285 35.3902V35.0371H96.1774V35.3902H95.3846V38.581H95.0214V35.3902H94.2285Z" fill="#EBE0CF"/>
<path d="M99.4858 35.9592V38.5763H99.1536V38.1306C99.0119 38.3027 98.8524 38.4351 98.6752 38.5189C98.4981 38.6072 98.3076 38.6513 98.0994 38.6513C97.7274 38.6513 97.4085 38.5189 97.1471 38.2497C96.8814 37.9805 96.7529 37.6539 96.7529 37.2656C96.7529 36.8904 96.8858 36.5683 97.1516 36.2991C97.4173 36.0299 97.7362 35.8975 98.1127 35.8975C98.3298 35.8975 98.5246 35.9416 98.6974 36.0343C98.8701 36.127 99.0252 36.2638 99.158 36.4447V35.9637H99.4858V35.9592ZM98.1349 36.2196C97.9488 36.2196 97.7717 36.2638 97.6122 36.3564C97.4528 36.4491 97.3287 36.5771 97.2357 36.7448C97.1427 36.9125 97.094 37.089 97.094 37.2744C97.094 37.4598 97.1427 37.6363 97.2357 37.804C97.3287 37.9717 97.4572 38.1041 97.6166 38.1968C97.7761 38.2895 97.9488 38.338 98.1304 38.338C98.3165 38.338 98.4936 38.2939 98.6575 38.2012C98.8214 38.1085 98.9499 37.9805 99.0384 37.8216C99.127 37.6628 99.1713 37.4862 99.1713 37.2832C99.1713 36.9831 99.0694 36.7272 98.8701 36.5241C98.6752 36.3211 98.4272 36.2196 98.1349 36.2196Z" fill="#EBE0CF"/>
<path d="M100.859 34.8828C100.934 34.8828 101.001 34.9093 101.058 34.9667C101.116 35.0196 101.143 35.0858 101.143 35.1653C101.143 35.2403 101.116 35.3065 101.058 35.3594C101.005 35.4124 100.939 35.4389 100.859 35.4389C100.784 35.4389 100.717 35.4124 100.664 35.3594C100.607 35.3065 100.58 35.2403 100.58 35.1653C100.58 35.0858 100.607 35.0196 100.664 34.9667C100.722 34.9137 100.784 34.8828 100.859 34.8828ZM100.691 35.9641H101.027V38.5811H100.691V35.9641Z" fill="#EBE0CF"/>
<path d="M101.874 35.9639H102.22L103.026 37.866L103.863 35.9639H103.925L104.771 37.866L105.59 35.9639H105.94L104.802 38.5809H104.735L103.898 36.7053L103.057 38.5809H102.999L101.874 35.9639Z" fill="#EBE0CF"/>
<path d="M109.452 35.9592V38.5763H109.12V38.1306C108.978 38.3027 108.819 38.4351 108.642 38.5189C108.469 38.6072 108.27 38.6513 108.061 38.6513C107.689 38.6513 107.37 38.5189 107.109 38.2497C106.848 37.9805 106.715 37.6539 106.715 37.2656C106.715 36.8904 106.848 36.5683 107.113 36.2991C107.379 36.0299 107.698 35.8975 108.07 35.8975C108.287 35.8975 108.482 35.9416 108.655 36.0343C108.832 36.127 108.983 36.2638 109.116 36.4447V35.9637H109.452V35.9592ZM108.097 36.2196C107.911 36.2196 107.734 36.2638 107.579 36.3564C107.419 36.4491 107.291 36.5771 107.198 36.7448C107.105 36.9125 107.056 37.089 107.056 37.2744C107.056 37.4598 107.1 37.6363 107.198 37.804C107.295 37.9717 107.419 38.1041 107.579 38.1968C107.738 38.2895 107.911 38.338 108.097 38.338C108.283 38.338 108.46 38.2939 108.624 38.2012C108.788 38.1085 108.916 37.9805 109.005 37.8216C109.093 37.6628 109.142 37.4862 109.142 37.2832C109.142 36.9831 109.04 36.7272 108.841 36.5241C108.637 36.3211 108.394 36.2196 108.097 36.2196Z" fill="#EBE0CF"/>
<path d="M110.706 35.9637H111.047V36.4315C111.18 36.2549 111.331 36.1181 111.494 36.0299C111.658 35.9416 111.836 35.8975 112.035 35.8975C112.23 35.8975 112.402 35.946 112.553 36.0475C112.708 36.1446 112.819 36.2814 112.894 36.4491C112.965 36.6168 113 36.8816 113 37.2347V38.5807H112.659V37.3318C112.659 37.0317 112.646 36.8287 112.624 36.7272C112.584 36.555 112.509 36.4226 112.398 36.3344C112.287 36.2505 112.141 36.2064 111.968 36.2064C111.765 36.2064 111.579 36.2726 111.419 36.405C111.26 36.5418 111.149 36.7051 111.1 36.9081C111.065 37.0405 111.052 37.2744 111.052 37.623V38.5807H110.71V35.9637H110.706Z" fill="#EBE0CF"/>
<path d="M16.1536 27.0088V29.2684H21.5352V22.7633H24.2946V7.88174H18.9086V10.2384C17.9475 9.2675 16.9022 8.53931 15.7727 8.05827C14.6432 7.57281 13.434 7.33008 12.1495 7.33008C9.35023 7.33008 6.9717 8.38485 5.01395 10.4944C3.05621 12.6039 2.07734 15.3093 2.07734 18.6148C2.07734 20.1153 2.30766 21.4967 2.75502 22.7633H0C0.504939 24.1887 1.28892 25.4686 2.36081 26.6028C4.38057 28.7432 6.78124 29.8156 9.55397 29.8156C10.7897 29.8156 11.9369 29.595 12.9911 29.1581C14.0497 28.7212 15.0994 28.0062 16.1536 27.0088ZM6.36932 23.1163C6.26301 23.0016 6.16114 22.8824 6.0637 22.7633H8.81871C7.90628 21.629 7.44563 20.2256 7.44563 18.553C7.44563 16.7171 7.99487 15.2122 9.09776 14.0427C10.2007 12.8687 11.5826 12.2818 13.2436 12.2818C14.9488 12.2818 16.3574 12.8599 17.4735 14.0118C18.5897 15.1636 19.1434 16.673 19.1434 18.5354C19.1434 20.2345 18.696 21.6423 17.8013 22.7633H15.0463C14.94 22.8912 14.8293 23.0236 14.7141 23.1428C13.5979 24.3167 12.1983 24.9037 10.5063 24.9037C8.87186 24.9037 7.49436 24.3079 6.36932 23.1163Z" fill="#EBE0CF"/>
<path d="M96.8246 8.82621C94.9643 9.82361 93.5115 11.1917 92.4751 12.935C91.4342 14.6782 90.916 16.5847 90.916 18.6545C90.916 20.1153 91.1729 21.4879 91.6867 22.7633H88.9316C89.4676 24.1005 90.2781 25.3362 91.3677 26.4748C93.5071 28.7035 96.4614 29.8157 100.24 29.8157C104.434 29.8157 107.685 28.3284 109.984 25.3406L106.201 22.7589L105.741 22.4411C105.648 22.5515 105.555 22.6574 105.462 22.7589C104.137 24.1844 102.357 24.8993 100.107 24.8993C98.1578 24.8993 96.5855 24.3212 95.3895 23.1737C95.2478 23.0413 95.1194 22.9001 94.9953 22.7589H97.7504C96.8158 21.6732 96.3418 20.3228 96.3418 18.7163C96.3418 16.8451 96.9664 15.3093 98.211 14.1133C99.4556 12.9173 101.086 12.3171 103.097 12.3171C104.204 12.3171 105.169 12.4892 105.989 12.8246C106.813 13.1689 107.645 13.7779 108.491 14.6517L112.974 12.1935C111.893 10.6356 110.507 9.43083 108.81 8.58789C107.114 7.74496 105.2 7.32129 103.07 7.32129C100.767 7.33012 98.6849 7.82881 96.8246 8.82621Z" fill="#EBE0CF"/>
<path d="M65.093 18.6942C65.093 20.1682 65.3233 21.5231 65.7751 22.7676H63.0156C63.5427 24.2152 64.3754 25.5127 65.5137 26.6469C67.6309 28.7608 70.3727 29.82 73.7389 29.82C75.9093 29.82 77.7829 29.4361 79.3641 28.6726C80.941 27.9091 82.2963 26.7219 83.4258 25.1243L78.8902 23.0015C77.4418 24.405 75.71 25.1067 73.6991 25.1067C72.0159 25.1067 70.634 24.6565 69.5488 23.7606C69.1901 23.4649 68.8844 23.1339 68.6142 22.772H71.3693C70.8289 22.0306 70.4657 21.1568 70.2974 20.1373H87.5982L87.6203 19.1135C87.6203 15.574 86.5617 12.7275 84.4445 10.5738C82.3273 8.42012 79.5812 7.33887 76.1972 7.33887C73.017 7.33887 70.3682 8.42012 68.2555 10.5738C66.1471 12.7186 65.093 15.4284 65.093 18.6942ZM80.1127 12.9923C81.158 13.7381 81.8622 14.709 82.2166 15.9006H70.5366C71.1434 14.5766 71.8033 13.6542 72.512 13.1291C73.6459 12.2905 74.9614 11.8713 76.4674 11.8713C77.8493 11.8713 79.0629 12.2464 80.1127 12.9923Z" fill="#EBE0CF"/>
<path d="M54.6354 7.88209H51.876V12.5028H54.6354V22.7636H51.8804V29.2688H57.2664V22.7636H60.0214V12.5028H63.2194V7.88209H60.0214V0H54.6354V7.88209Z" fill="#EBE0CF"/>
<path d="M48.9743 14.9561H41.5951V7.58594H36.6609V14.9561H29.2861V19.8725H36.6609V22.7631H33.9059V27.225H38.8401V22.7631H41.5951V19.8725H48.9743V14.9561Z" fill="#EBE0CF"/>
</g>
<defs>
<clipPath id="clip0_870_3646">
<rect width="113" height="39" fill="white"/>
</clipPath>
</defs>
</svg>
