<svg width="145" height="46" viewBox="0 0 145 46" fill="none" xmlns="http://www.w3.org/2000/svg">
<g clip-path="url(#clip0_870_3782)">
<path d="M14.5113 40.9613L13.0448 40.4189L13.3863 39.4949C13.4131 39.4212 13.3796 39.3342 13.2993 39.3074C13.2323 39.2739 13.152 39.3007 13.1051 39.3676L10.4601 43.7671L11.3038 38.6913C11.3172 38.611 11.2703 38.544 11.19 38.5172C11.1096 38.5038 11.036 38.544 11.0092 38.611L10.6677 39.535L9.20119 38.9993C9.14093 38.9793 9.09405 38.986 9.04718 39.0194C9.0137 39.0529 8.99361 39.1132 9.00031 39.1601L9.74359 45.3139C9.74359 45.3742 9.78376 45.421 9.83733 45.4411C9.85073 45.4411 9.85742 45.4411 9.86412 45.4411C9.91099 45.4478 9.95787 45.4411 9.99135 45.4076L14.5582 41.2158C14.5983 41.1823 14.6117 41.1287 14.6117 41.0752C14.5983 41.0216 14.5649 40.9747 14.5113 40.9613Z" fill="#EBE0CF"/>
<path d="M28.131 39.3339L24.7695 7.09156C24.7628 7.0112 24.7025 6.93085 24.6221 6.90406C24.5418 6.87058 24.448 6.89067 24.3811 6.94424L0.0804752 28.4994C0.0202092 28.553 -0.0132719 28.6333 0.00681678 28.7137C0.0269055 28.7941 0.0804752 28.861 0.154134 28.8878L5.10934 30.8096C5.13612 30.8163 7.21195 31.5529 7.71417 32.7047C7.86149 33.0261 7.86149 33.3475 7.70747 33.6756L6.26779 37.3853C6.22091 37.4992 6.26779 37.6264 6.37493 37.68C6.48207 37.7335 6.61599 37.7 6.67626 37.5929L22.5396 12.2477L17.109 41.6441C17.0889 41.758 17.1625 41.8718 17.2764 41.912C17.2898 41.912 17.2965 41.912 17.3099 41.9187C17.4103 41.9321 17.5174 41.8718 17.5643 41.7714L19.0107 38.0482C19.2585 37.3184 20.0017 37.0371 21.2071 37.2313C22.0776 37.3585 22.8543 37.6867 22.8744 37.6933L27.8229 39.6219C27.843 39.6286 27.8631 39.6286 27.8765 39.6353C28.0037 39.6553 28.1243 39.5683 28.1376 39.4478C28.1443 39.4076 28.1443 39.3741 28.131 39.3339Z" fill="#EBE0CF"/>
<path d="M16.5937 34.9878C16.2053 36.4744 14.6852 37.3583 13.1987 36.9699C11.7054 36.5815 10.8148 35.0548 11.2099 33.5749C11.5983 32.0883 13.1183 31.1977 14.6049 31.5861C16.1048 31.9812 16.9954 33.5012 16.5937 34.9878Z" fill="#EBE0CF"/>
<path d="M29.2899 0.998047L29.3368 4.02475L31.9952 5.49122L28.9685 5.55149L27.4886 8.2032L27.435 5.1765L24.79 3.69663L27.8167 3.64306L29.2899 0.998047Z" fill="#EBE0CF"/>
<path d="M34.3522 0L34.3857 1.7745L35.9392 2.63832L34.158 2.6718L33.2942 4.22532L33.2607 2.45082L31.7139 1.5937L33.4884 1.55353L34.3522 0Z" fill="#EBE0CF"/>
<path d="M46.7666 30.0522C46.5657 29.8714 46.3313 29.704 46.0769 29.5567C45.8224 29.4027 45.5613 29.2553 45.3001 29.1147C45.0323 28.9808 44.7778 28.8402 44.5167 28.6995C44.2622 28.5656 44.0345 28.425 43.827 28.2777C43.6261 28.1304 43.4654 27.9764 43.3448 27.8156C43.2243 27.6482 43.1573 27.4674 43.1573 27.2666C43.1573 27.1259 43.1841 26.9853 43.2511 26.8447C43.3113 26.7108 43.3984 26.5902 43.5189 26.4831C43.6395 26.376 43.7868 26.2889 43.9676 26.2219C44.1417 26.155 44.3493 26.1215 44.5903 26.1215C44.8582 26.1215 45.0992 26.1617 45.3135 26.2286C45.5278 26.3023 45.7153 26.4094 45.876 26.5501C46.0434 26.684 46.184 26.8447 46.3046 27.0389C46.4184 27.2331 46.5188 27.4474 46.5925 27.675L47.242 27.3737C47.0612 26.8112 46.7599 26.376 46.3514 26.0746C45.9363 25.7733 45.3671 25.626 44.6506 25.626C44.2555 25.626 43.9073 25.6728 43.5993 25.78C43.2913 25.8804 43.0368 26.0211 42.8292 26.2085C42.6149 26.396 42.4542 26.6103 42.3471 26.8514C42.24 27.1058 42.1864 27.367 42.1864 27.6549C42.1864 27.9362 42.2466 28.1973 42.3672 28.4183C42.481 28.6393 42.635 28.8402 42.8292 29.021C43.0234 29.1951 43.2444 29.3625 43.4921 29.5098C43.7399 29.6571 43.9944 29.7977 44.2555 29.9317C44.5167 30.0656 44.7778 30.1995 45.0189 30.3334C45.2666 30.4607 45.4876 30.608 45.6818 30.7553C45.8693 30.9093 46.03 31.07 46.1505 31.2508C46.2711 31.4316 46.3246 31.6392 46.3246 31.8669C46.3246 32.0611 46.2845 32.2218 46.1974 32.3691C46.1104 32.5164 45.9965 32.6436 45.8492 32.7441C45.7086 32.8445 45.5412 32.9182 45.3604 32.9717C45.1796 33.0186 44.9988 33.0454 44.8113 33.0454C44.3091 33.0454 43.8805 32.9048 43.5122 32.6302C43.1439 32.3557 42.8761 31.9673 42.7221 31.4718L42.0391 31.753C42.1395 32.0343 42.2734 32.2887 42.4274 32.503C42.5815 32.724 42.7623 32.9115 42.9832 33.0588C43.1975 33.2128 43.452 33.3266 43.7399 33.407C44.0278 33.4874 44.3493 33.5275 44.7109 33.5275C45.1662 33.5275 45.5546 33.4673 45.8961 33.3601C46.2309 33.2396 46.5188 33.0856 46.7465 32.8981C46.9675 32.7039 47.1349 32.4695 47.2554 32.2084C47.3693 31.9472 47.4228 31.6593 47.4228 31.3646C47.4228 31.1035 47.3626 30.8624 47.2353 30.6482C47.1282 30.4272 46.9675 30.233 46.7666 30.0522Z" fill="#EBE0CF"/>
<path d="M55.8602 25.7998H54.5879V33.3532H55.8602V25.7998Z" fill="#EBE0CF"/>
<path d="M50.7841 25.7998H49.5186V33.3532H50.7841V25.7998Z" fill="#EBE0CF"/>
<path d="M64.2368 30.6946C64.2368 31.016 64.1833 31.3174 64.0761 31.612C63.9623 31.8999 63.8083 32.141 63.6074 32.3553C63.4065 32.5696 63.1521 32.737 62.8708 32.8642C62.5762 32.9847 62.2481 33.045 61.8932 33.045C61.5316 33.045 61.2102 32.9847 60.9222 32.8642C60.6343 32.737 60.3932 32.5696 60.1789 32.3553C59.978 32.141 59.8173 31.8932 59.7102 31.612C59.6031 31.3241 59.5428 31.0227 59.5428 30.6946V25.793H58.2705V30.6678C58.2705 31.0629 58.3442 31.4312 58.4848 31.7727C58.6187 32.1209 58.8196 32.4222 59.1008 32.6901C59.3754 32.9445 59.7102 33.1521 60.112 33.2994C60.507 33.4535 60.9758 33.5271 61.4914 33.5271C62.0807 33.5271 62.5829 33.4535 62.998 33.2994C63.4199 33.1521 63.7547 32.9445 64.0293 32.6901C64.2971 32.4289 64.4846 32.1343 64.6118 31.7928C64.7324 31.4513 64.7993 31.083 64.7993 30.6946V25.793H64.2368V30.6946Z" fill="#EBE0CF"/>
<path d="M74.3219 25.7998H66.4873V26.2886H69.2261V33.3532H70.4983V26.2886H74.3219H74.6299H77.0606V33.3532H78.3329V26.2886H81.065V25.7998H74.6299H74.3219Z" fill="#EBE0CF"/>
<path d="M84.158 25.7998H82.8857V33.3532H87.9548V32.8643H84.158V25.7998Z" fill="#EBE0CF"/>
<path d="M89.6621 33.3532H94.9186V32.8643H90.9344V26.2886H94.9186V25.7998H89.6621V33.3532Z" fill="#EBE0CF"/>
<path d="M51.7354 30.9225L53.6505 29.8176L51.7354 28.7061V30.9225Z" fill="#EBE0CF"/>
<path d="M94.2089 29.8176L92.2871 28.7061V30.9225L94.2089 29.8176Z" fill="#EBE0CF"/>
<path d="M108.68 26.5297C108.311 26.2083 107.842 25.9739 107.287 25.8266C106.731 25.686 106.055 25.6123 105.285 25.6123H102.773V33.1657H105.599C106.296 33.1657 106.925 33.0652 107.467 32.8643C108.017 32.6634 108.472 32.3889 108.84 32.0407C109.215 31.6925 109.49 31.284 109.691 30.8153C109.885 30.3465 109.979 29.851 109.979 29.3153C109.979 28.7528 109.878 28.2372 109.657 27.7685C109.436 27.3065 109.121 26.8913 108.68 26.5297ZM108.244 30.755C108.084 31.1635 107.863 31.505 107.588 31.7795C107.307 32.0541 106.979 32.2684 106.604 32.409C106.229 32.5429 105.82 32.6166 105.392 32.6166H104.052V26.1815H105.412C105.86 26.1815 106.269 26.2618 106.651 26.4159C107.026 26.5699 107.354 26.7908 107.628 27.0721C107.903 27.3466 108.11 27.6814 108.264 28.0765C108.418 28.4649 108.492 28.8935 108.492 29.3555C108.479 29.8778 108.405 30.3465 108.244 30.755Z" fill="#EBE0CF"/>
<path d="M116.454 29.2223C116.675 29.095 116.876 28.9544 117.037 28.7937C117.204 28.6263 117.325 28.4455 117.418 28.2379C117.512 28.0303 117.546 27.8161 117.546 27.575C117.546 27.2938 117.492 27.0259 117.378 26.7848C117.264 26.5438 117.09 26.3362 116.856 26.1554C116.628 25.9813 116.34 25.8474 115.999 25.7469C115.657 25.6532 115.255 25.5996 114.807 25.5996H112.195V33.153H113.468V29.604H114.358L116.983 33.153H118.45L115.704 29.4834C115.972 29.4432 116.226 29.3428 116.454 29.2223ZM114.988 29.1285C114.747 29.2022 114.485 29.2424 114.197 29.2424H113.468V26.0884H114.579C114.814 26.0884 115.035 26.1286 115.229 26.209C115.423 26.2826 115.597 26.3898 115.731 26.5237C115.872 26.6643 115.985 26.825 116.066 27.0125C116.139 27.2 116.18 27.4009 116.18 27.6286C116.18 27.8763 116.139 28.104 116.032 28.2982C115.932 28.4991 115.784 28.6732 115.617 28.8071C115.443 28.9477 115.229 29.0549 114.988 29.1285Z" fill="#EBE0CF"/>
<path d="M120.063 33.1657H125.313V32.6835H121.336V26.1011H125.313V25.6123H120.063V33.1657Z" fill="#EBE0CF"/>
<path d="M130.094 25.4453L126.451 33.1661H127.087L129.92 27.1729L132.672 33.1661H133.964L130.415 25.4453H130.094Z" fill="#EBE0CF"/>
<path d="M139.891 31.4112H139.844L136.898 25.6123H135.605V33.1657H136.155V27.0252H136.248L139.382 33.1657H139.637L142.73 26.9783H142.777V33.1657H144.056V25.6123H142.777L139.891 31.4112Z" fill="#EBE0CF"/>
<path d="M124.603 29.6303L122.688 28.5254V30.7352L124.603 29.6303Z" fill="#EBE0CF"/>
<path d="M51.3677 20.2031C50.1891 19.7209 49.2651 19.1919 48.5285 18.5893C49.2918 17.8996 49.9012 17.0157 50.3498 15.951L50.3565 15.3081H47.2361C47.5374 14.7992 47.8053 14.2434 48.0129 13.6675L48.0463 13.5872L47.4705 13.3662L47.437 13.4466C47.1423 14.2099 46.7406 14.9599 46.225 15.663C45.7361 16.3527 45.1134 17.0023 44.3165 17.6585L44.263 17.7121L44.6514 18.2679L44.7183 18.2143C45.2741 17.779 45.8031 17.2567 46.2785 16.6742C46.5933 17.3773 46.995 18.0067 47.4705 18.5491C46.6066 19.1919 45.5286 19.7477 44.1692 20.2432L44.0889 20.27L44.3701 21.0133L44.4438 20.9798C45.8299 20.4508 47.0084 19.808 47.9593 19.0647C47.9928 19.0982 48.0196 19.1183 48.0463 19.1317C48.9369 19.9151 49.9615 20.5178 51.0931 20.933L51.1735 20.9597L51.448 20.2232L51.3677 20.2031ZM49.5865 16.0045C49.245 16.7813 48.716 17.4911 48.0129 18.1004C47.4571 17.5112 47.0218 16.8416 46.7138 16.105C46.7406 16.0782 46.7607 16.0447 46.7874 16.0045H49.5865Z" fill="#EBE0CF"/>
<path d="M44.6241 15.8905L44.6575 16.0245L45.2267 15.5356L45.2133 15.4888C45.1464 15.2477 45.0593 15.0133 44.9857 14.7656L45.4276 15.2477L45.4879 15.1941C46.0102 14.7388 46.4454 14.2433 46.807 13.6741C47.1351 13.1585 47.3561 12.596 47.4967 11.9665C47.8382 11.9264 48.1664 11.8862 48.4945 11.8259V13.808C48.4945 14.3839 48.7489 14.6785 49.2578 14.6785H50.9453L51.1997 13.9821H49.2578C49.1842 13.9821 49.1306 13.9687 49.1306 13.808V11.7121C49.4186 11.6652 49.7065 11.6049 49.9944 11.5313C50.3158 11.8929 50.6373 12.288 50.9721 12.7366L51.0457 12.8304L51.4475 12.2009L51.414 12.154C50.6774 11.1697 49.8739 10.3327 48.9766 9.58269L48.9029 9.52242L48.5547 10.0782L48.6083 10.1251C48.8829 10.3728 49.1574 10.6206 49.4252 10.8951C48.4811 11.0826 47.49 11.2367 46.6597 11.3237C46.7133 11.2567 46.7668 11.1898 46.8204 11.1228C47.0481 10.855 47.2959 10.5469 47.4566 10.2322L47.5302 10.0983C47.8048 9.62286 47.9722 9.32823 48.1597 8.83271L48.1731 8.79253L47.6173 8.11621L47.5168 8.37067C47.3159 8.90637 47.1151 9.46215 46.7936 9.95768C46.5392 10.3327 45.9432 11.0693 45.3874 11.4509L45.3472 11.4777L45.3874 12.1875H45.4745C45.6754 12.1741 46.1173 12.1206 46.4789 12.0804C46.5994 12.0603 46.7133 12.0536 46.807 12.0402C46.6999 12.4353 46.5258 12.8438 46.2847 13.2455C45.9767 13.721 45.5481 14.1897 44.999 14.6383L44.9656 14.6651C44.7781 14.0893 44.5705 13.5201 44.316 12.971L44.2692 12.8705L43.8138 13.2656V11.6518H44.8852L45.0861 10.9554H43.8071V8.65191L43.1777 8.38406V10.9554H41.8451L41.6375 11.6518H43.1241C42.9902 12.6362 42.7692 13.6205 42.4679 14.5781C42.0996 15.7231 41.6911 16.7008 41.2358 17.4709L41.209 17.5244L41.7112 18.0936L41.7648 17.9932C42.2067 17.1494 42.5482 16.3057 42.8161 15.4352C42.9433 15.0468 43.0571 14.6116 43.1777 14.1361V20.9261L43.8071 20.7118V13.433C44.1419 14.2232 44.4165 15.0468 44.6241 15.8905Z" fill="#EBE0CF"/>
<path d="M57.8154 13.9412H65.5362V11.1689H57.8154V13.9412ZM64.9134 11.8587V13.2448H63.1322V11.8587H64.9134ZM62.4961 11.8587V13.2448H60.7886V11.8587H62.4961ZM60.1591 11.8587V13.2448H58.4449V11.8587H60.1591Z" fill="#EBE0CF"/>
<path d="M57.0859 14.6113V16.6604L57.7154 16.4461V15.3077H60.6818C60.4207 15.7162 60.0925 16.1113 59.6975 16.4997C59.2019 16.9684 58.5658 17.4371 57.8158 17.8724L57.6551 17.9661L58.4721 18.2407L58.5055 18.2206C59.1082 17.8925 59.4564 17.6916 59.9184 17.2697L59.7042 17.8791L59.7778 17.9126C60.2934 18.1402 60.7823 18.4215 61.2577 18.7764C60.2399 19.2853 59.2019 19.7139 57.5882 20.0955L57.5346 20.1089L57.4141 20.9192L57.5346 20.8857C59.4095 20.4036 60.876 19.8612 62.0344 19.2183C63.146 18.609 64.0165 17.8188 64.6326 16.868L64.6393 16.8412V16.2117H60.8961C61.1104 15.9238 61.2979 15.6292 61.4653 15.3144H65.5433V16.6671L66.1727 16.4528V14.618H57.0859V14.6113ZM60.1193 17.0889C60.1796 17.0354 60.2466 16.9751 60.3068 16.9081H63.7353C63.3335 17.4572 62.7242 17.9728 61.9273 18.4349C61.3849 18.013 60.7354 17.6246 60.0122 17.2898L59.9385 17.2563C59.9988 17.2028 60.0591 17.1425 60.1193 17.0889Z" fill="#EBE0CF"/>
<path d="M59.5096 11.0086L60.1457 10.7407V10.1046H63.2126V11.0086L63.8487 10.7407V10.1046H65.8174L66.0183 9.40817H63.8487V8.464L63.2126 8.18945V9.40817H60.1457V8.4573L59.5096 8.18945V9.40817H57.5476L57.3467 10.1046H59.5096V11.0086Z" fill="#EBE0CF"/>
<path d="M75.2527 8.672L74.7772 8.35059L74.7371 8.42424C74.3621 9.01351 73.9402 9.576 73.4179 10.1854C72.7148 10.9755 72.1054 11.5313 71.5564 11.8996L71.5028 11.9331L71.8242 12.6362L71.9113 12.5759C72.2193 12.3348 72.5407 12.0469 72.8889 11.7121V15.2142C72.8889 15.9106 72.7818 16.6204 72.5876 17.3771C72.3867 18.0133 72.0184 18.7164 71.4961 19.4663L71.4023 19.6003L72.0519 19.5668L72.0787 19.54C72.1657 19.4128 72.2528 19.2922 72.3331 19.1918C72.6813 18.7231 72.9157 18.415 73.1032 17.8659C73.2103 17.5445 73.2907 17.2298 73.3576 16.9017V20.5444L73.9871 20.3368V19.6003H76.7526V20.3837L77.3821 20.1694V16.5602H73.4179C73.4648 16.2521 73.4983 15.9374 73.5184 15.6093H77.2548V11.625H72.9693C73.2505 11.3505 73.5317 11.0559 73.8331 10.7211C74.2884 10.1987 74.6433 9.73671 74.9513 9.28806C75.8152 9.9175 76.6656 10.6809 77.4959 11.5581L77.5696 11.6317L77.9579 11.009L77.9178 10.9621C77.0941 10.105 76.2035 9.32824 75.2527 8.672ZM76.7459 17.2566V18.9039H73.9804V17.2566H76.7459ZM76.6187 13.9085V14.9129H73.5184V13.9085H76.6187ZM76.6187 12.3215V13.2187H73.5184V12.3215H76.6187Z" fill="#EBE0CF"/>
<path d="M80.4016 9.09402V19.0915C80.4016 19.6473 80.1471 19.6473 80.0601 19.6473C79.6918 19.6473 79.3168 19.5736 78.8949 19.433L78.7744 19.3928L78.8347 20.2098L78.8882 20.2299C79.2365 20.3437 79.6315 20.3973 80.0534 20.3973C80.4953 20.3973 81.0243 20.1964 81.0243 19.2522V8.7793L80.4016 9.09402Z" fill="#EBE0CF"/>
<path d="M79.0298 10.2988L78.4004 10.5667V18.4481L79.0298 18.1803V10.2988Z" fill="#EBE0CF"/>
<path d="M75.801 11.25L74.9908 9.84375L74.1738 11.25H75.801Z" fill="#EBE0CF"/>
<path d="M93.9626 13.1914H87.6279V17.015H93.9626V13.1914ZM88.2641 14.7315V13.8878H93.3331V14.7315H88.2641ZM88.2641 16.3185V15.4213H93.3331V16.3185H88.2641Z" fill="#EBE0CF"/>
<path d="M87.2991 17.3903C87.0312 18.5086 86.7031 19.4327 86.3415 20.1425L86.2812 20.263L87.0312 20.2563L87.0647 20.2095C87.5468 19.272 87.7343 18.522 87.9285 17.7319L87.9419 17.6783L87.3192 17.2832L87.2991 17.3903Z" fill="#EBE0CF"/>
<path d="M92.9111 18.1338C92.8843 19.3123 92.8174 19.8413 92.7638 19.9484C92.7169 20.0623 92.5161 20.1292 92.2147 20.1292C91.8129 20.1359 91.4179 20.1359 91.063 20.1359C89.2952 20.1359 89.0742 20.0757 89.0407 20.0556C88.9604 20.0221 88.8532 19.9418 88.8465 19.5668L88.8197 17.6382L88.1836 17.3838L88.2104 19.6873C88.2171 20.2766 88.3912 20.6181 88.726 20.7118C89.0474 20.8792 90.775 20.8926 91.5116 20.8926C91.746 20.8926 91.9804 20.8926 92.2214 20.8859C92.804 20.8792 93.1656 20.7788 93.2727 20.5846C93.3799 20.4774 93.5071 20.1225 93.5874 18.5623V18.5221L92.9044 17.9731L92.9111 18.1338Z" fill="#EBE0CF"/>
<path d="M95.6096 11.8123H92.3486C92.5963 11.5176 92.824 11.2029 93.0182 10.8815L93.0718 10.8011L92.5026 10.54H94.6856L94.94 9.85027H90.9959L91.6923 8.52441H90.0786L90.775 9.85027H86.8711L86.6702 10.54H89.0005L88.5384 10.9351L88.5853 10.9953C88.7862 11.2565 88.9871 11.531 89.1679 11.819H86.2416L85.9336 12.5154H95.3552L95.6096 11.8123ZM92.4222 10.5266L92.4088 10.5668C92.1544 11.0154 91.8664 11.4172 91.5249 11.8056H89.9647C89.6969 11.3368 89.4022 10.915 89.0942 10.5534L89.0741 10.5266H92.4222Z" fill="#EBE0CF"/>
<path d="M94.1634 17.5778L94.0763 17.4707L93.7549 18.1872L93.7817 18.2207C94.3977 19.0376 94.5785 19.339 95.0339 20.1961L95.0941 20.3099L95.5897 19.6872L95.5629 19.6336C94.9803 18.6693 94.6857 18.2341 94.1634 17.5778Z" fill="#EBE0CF"/>
<path d="M91.6919 18.9836L90.8817 17.4502L90.0781 18.9836H91.6919Z" fill="#EBE0CF"/>
<path d="M104.837 13.7674C104.529 13.888 104.194 13.9817 103.826 14.0487C103.404 14.1156 102.975 14.1491 102.547 14.1491V14.5375H105.031C105.105 14.5375 105.152 14.571 105.152 14.6245V15.9437C105.152 16.0241 105.105 16.0709 105.031 16.0709H102.547V16.1982C102.547 16.6602 102.54 17.0687 102.527 17.4303C102.62 17.3164 102.694 17.2093 102.754 17.1088C102.915 16.8611 103.042 16.6133 103.123 16.3723C103.143 16.3053 103.176 16.2651 103.21 16.2651L103.605 16.4459C103.665 16.4794 103.698 16.5129 103.698 16.5531C103.698 16.5999 103.658 16.6334 103.605 16.6535C103.518 16.6535 103.464 16.6937 103.451 16.7606C103.397 16.8745 103.35 16.9749 103.303 17.062H103.906C103.973 16.9615 104.027 16.8611 104.067 16.7807C104.14 16.6334 104.201 16.4794 104.234 16.3187C104.241 16.2852 104.254 16.2584 104.274 16.2584L104.649 16.4124C104.71 16.4459 104.736 16.4794 104.736 16.5129C104.736 16.5464 104.716 16.5598 104.683 16.5731C104.636 16.5731 104.616 16.5999 104.609 16.6401C104.549 16.8075 104.489 16.9481 104.435 17.062H105.259C105.292 17.062 105.319 17.0955 105.319 17.1624V17.4102C105.319 17.4771 105.299 17.5106 105.259 17.5106H104.455V18.0262H105.172C105.212 18.0262 105.232 18.0597 105.232 18.1133V18.3075C105.232 18.3878 105.212 18.428 105.172 18.428H104.455V18.9168H105.172C105.212 18.9168 105.232 18.9503 105.232 19.0173V19.2048C105.232 19.2985 105.212 19.3387 105.172 19.3387H104.455V19.8141H105.259C105.292 19.8141 105.319 19.8476 105.319 19.9146V20.169C105.319 20.236 105.299 20.2695 105.259 20.2695H103.243V20.6512C103.243 20.7181 103.196 20.7516 103.123 20.7516H102.895C102.815 20.7516 102.774 20.7181 102.774 20.6512V17.9258C102.761 17.9392 102.754 17.9526 102.754 17.9593C102.701 18.0262 102.667 18.0463 102.634 18.0463C102.594 18.0463 102.56 18.0262 102.513 17.9994C102.5 17.9994 102.493 17.9927 102.493 17.9927C102.48 18.1468 102.473 18.2874 102.453 18.4213C102.406 18.8833 102.332 19.3387 102.232 19.8007C102.172 20.0686 102.098 20.3364 101.998 20.5909C101.964 20.5909 101.937 20.5842 101.924 20.5775C101.85 20.5105 101.77 20.4436 101.676 20.3967C101.656 20.3699 101.649 20.3364 101.649 20.3029C101.73 20.0686 101.81 19.7539 101.884 19.3454C101.951 18.9168 102.004 18.4749 102.031 17.9994C102.058 17.5039 102.078 16.908 102.078 16.1982V13.7607C102.078 13.6938 102.118 13.6603 102.198 13.6603H102.225C102.801 13.6603 103.263 13.6268 103.591 13.5799C103.993 13.5331 104.348 13.4259 104.663 13.2786C104.703 13.2652 104.736 13.2451 104.77 13.2451C104.79 13.2451 104.823 13.2585 104.85 13.292C105.078 13.5197 105.198 13.6603 105.198 13.7272C105.198 13.8143 105.172 13.8612 105.118 13.8612L104.937 13.7607C104.897 13.7607 104.87 13.7674 104.837 13.7674ZM102.547 15.5888H104.683V15.0062H102.547V15.5888ZM103.986 17.5106H103.243V18.0262H103.986V17.5106ZM103.986 18.9235V18.4347H103.243V18.9235H103.986ZM103.986 19.8141V19.3387H103.243V19.8141H103.986ZM106.852 19.5195C106.886 19.5597 106.913 19.5931 106.913 19.6266C106.913 19.64 106.899 19.6601 106.866 19.6601C106.819 19.6668 106.785 19.6869 106.772 19.707C106.658 19.8878 106.544 20.0485 106.424 20.1958C106.276 20.3632 106.089 20.5306 105.868 20.7114C105.808 20.7114 105.774 20.6846 105.754 20.6445C105.66 20.5574 105.573 20.477 105.513 20.4168C105.473 20.4034 105.46 20.3766 105.46 20.3565C105.46 20.3431 105.466 20.323 105.48 20.3163C105.58 20.2695 105.674 20.2092 105.747 20.1422C105.895 20.0083 106.022 19.8811 106.129 19.7204C106.216 19.5998 106.323 19.4324 106.444 19.2382C106.451 19.2115 106.457 19.1981 106.471 19.1981L106.852 19.5195ZM108.413 13.5063C108.453 13.5063 108.473 13.5398 108.473 13.5933V13.8545C108.473 13.9348 108.453 13.975 108.413 13.975H107.247L106.826 14.6781H108.212C108.285 14.6781 108.326 14.7116 108.326 14.7786V19.0173C108.326 19.0842 108.285 19.111 108.212 19.111H105.808C105.734 19.111 105.694 19.0842 105.694 19.0173V14.7786C105.694 14.7116 105.734 14.6781 105.808 14.6781H106.25L106.672 13.975H105.667C105.62 13.975 105.607 13.9348 105.607 13.8545V13.5933C105.607 13.5331 105.62 13.5063 105.667 13.5063H108.413ZM107.837 15.9973V15.1669H106.189V15.9973H107.837ZM107.837 17.3499V16.4861H106.189V17.3499H107.837ZM107.837 17.832H106.189V18.6356H107.837V17.832ZM108.078 19.8275C108.178 19.9414 108.339 20.0619 108.547 20.2159C108.567 20.2494 108.587 20.2762 108.587 20.3029C108.587 20.3364 108.493 20.4704 108.299 20.6913C108.285 20.6913 108.272 20.6846 108.245 20.6645C107.843 20.2963 107.555 19.9614 107.375 19.6333C107.355 19.5998 107.348 19.5865 107.348 19.5664C107.348 19.5262 107.448 19.4123 107.669 19.2115C107.803 19.4659 107.944 19.6668 108.078 19.8275Z" fill="#EBE0CF"/>
<path d="M112.136 13.4725C112.209 13.4725 112.25 13.506 112.25 13.573V16.1644C112.25 16.2515 112.216 16.2983 112.136 16.2983H110V20.5906C110 20.6576 109.953 20.6911 109.879 20.6911H109.591C109.511 20.6911 109.471 20.6576 109.471 20.5906V13.5663C109.471 13.4993 109.511 13.4658 109.591 13.4658H112.136V13.4725ZM111.734 14.6511V13.9479H110.006V14.6511H111.734ZM111.734 15.8095V15.1399H110.006V15.8095H111.734ZM113.776 17.0885C113.85 17.0885 113.897 17.122 113.897 17.1889V19.6933C113.897 19.7603 113.85 19.7804 113.776 19.7804H113.488C113.428 19.7804 113.408 19.7536 113.408 19.6933V19.3384H111.727V19.7804C111.727 19.8473 111.694 19.8808 111.613 19.8808H111.319C111.259 19.8808 111.239 19.8473 111.239 19.7804V17.2157C111.239 17.1354 111.259 17.0818 111.319 17.0818H113.776V17.0885ZM113.408 18.8228V17.6108H111.727V18.8295H113.408V18.8228ZM115.457 13.4725C115.551 13.4725 115.604 13.506 115.604 13.573V19.8808C115.604 20.142 115.491 20.3495 115.283 20.4969C115.075 20.6107 114.814 20.6844 114.5 20.7245C114.439 20.7245 114.413 20.6911 114.406 20.6241C114.399 20.5103 114.346 20.3362 114.245 20.1085C114.245 20.075 114.265 20.0683 114.312 20.0683C114.68 20.0683 114.895 20.0348 114.962 19.9679C115.035 19.9009 115.082 19.8072 115.082 19.6531V16.2983H113.06C112.98 16.2983 112.939 16.2581 112.939 16.1644V13.573C112.939 13.506 112.98 13.4725 113.06 13.4725H115.457ZM115.082 14.6511V13.9479H113.468V14.6511H115.082ZM115.082 15.8095V15.1399H113.468V15.8095H115.082Z" fill="#EBE0CF"/>
<path d="M118.953 14.2692C119.053 13.9947 119.154 13.7 119.241 13.3719C119.267 13.305 119.308 13.2715 119.354 13.2715L119.93 13.5125C119.991 13.5594 120.017 13.5929 120.017 13.6264C120.017 13.6933 119.991 13.7402 119.937 13.7603C119.803 13.7603 119.729 13.8206 119.703 13.9143C119.649 14.0482 119.609 14.1621 119.562 14.2692H123.111C123.171 14.2692 123.198 14.3161 123.198 14.4031V14.6576C123.198 14.7514 123.171 14.7915 123.111 14.7915H119.341C119.194 15.1196 119.053 15.3875 118.933 15.5951C118.906 15.642 118.879 15.6888 118.859 15.7223H122.307C122.394 15.7223 122.448 15.7692 122.448 15.8562V20.182C122.448 20.3628 122.321 20.5034 122.086 20.6039C121.852 20.6842 121.544 20.7378 121.176 20.7713C121.122 20.7713 121.095 20.7378 121.089 20.6708C121.075 20.557 121.022 20.3829 120.921 20.1552C120.921 20.1284 120.941 20.1217 121.002 20.1217C121.444 20.1217 121.705 20.0949 121.792 20.0615C121.879 20.0213 121.932 19.961 121.932 19.8606V19.2847H118.812V20.6306C118.812 20.6976 118.779 20.7311 118.698 20.7311H118.404C118.33 20.7311 118.29 20.6976 118.29 20.6306V16.5928C118.243 16.6598 118.196 16.7267 118.149 16.787C117.868 17.1151 117.567 17.4165 117.245 17.6843C117.171 17.6843 117.111 17.6776 117.064 17.6508C116.964 17.6039 116.85 17.5504 116.75 17.5102C116.709 17.4968 116.696 17.4767 116.696 17.4499C116.696 17.4098 116.709 17.3763 116.756 17.3495C117.252 16.9611 117.694 16.4857 118.089 15.9232C118.323 15.5951 118.524 15.2536 118.691 14.8786C118.705 14.8451 118.725 14.8183 118.738 14.7915H116.723C116.663 14.7915 116.636 14.7514 116.636 14.6576V14.3965C116.636 14.3161 116.663 14.2625 116.723 14.2625H118.953V14.2692ZM121.926 17.2223V16.2647H118.805V17.2223H121.926ZM121.926 18.7557V17.7312H118.805V18.7557H121.926Z" fill="#EBE0CF"/>
<path d="M124.671 20.5905C124.671 20.6574 124.637 20.6909 124.557 20.6909H124.262C124.189 20.6909 124.148 20.6574 124.148 20.5905V13.5929C124.148 13.5326 124.189 13.5059 124.262 13.5059H126.231C126.311 13.5059 126.372 13.5193 126.418 13.546C126.546 13.6532 126.613 13.7268 126.613 13.7603L125.628 15.9768C125.608 16.0236 125.602 16.0705 125.602 16.0973C125.602 16.1308 125.615 16.171 125.655 16.2111C125.883 16.4589 126.077 16.7535 126.238 17.095C126.385 17.4566 126.465 17.8182 126.465 18.1798C126.465 18.4812 126.412 18.749 126.325 18.9767C126.218 19.2244 126.07 19.3852 125.883 19.4789C125.756 19.5793 125.548 19.6262 125.253 19.6262C125.119 19.6262 125.059 19.586 125.059 19.4856C125.032 19.2914 124.992 19.1508 124.932 19.0503C124.932 18.9834 124.959 18.9499 125.019 18.9499L125.367 19.0169C125.575 19.0169 125.722 18.9365 125.809 18.7557C125.896 18.6151 125.943 18.4276 125.943 18.1798C125.943 17.9254 125.876 17.6374 125.756 17.316C125.595 16.9611 125.36 16.6196 125.046 16.2781C124.999 16.2446 124.985 16.2178 124.985 16.191C124.985 16.1576 124.992 16.1174 125.012 16.0638L126.003 13.9746H124.664V20.5905H124.671ZM127.47 19.6262C127.778 19.5124 128.072 19.3852 128.354 19.2579C128.367 19.2512 128.374 19.2445 128.394 19.2445C128.434 19.2445 128.454 19.278 128.454 19.345C128.454 19.6396 128.441 19.7936 128.427 19.8204C127.872 20.0682 127.309 20.2958 126.747 20.49C126.666 20.6373 126.599 20.7177 126.546 20.7177C126.499 20.7177 126.405 20.4766 126.258 20.0146C126.459 19.9677 126.686 19.9008 126.954 19.807V13.6264C126.954 13.546 126.988 13.5059 127.068 13.5059H130.014C130.088 13.5059 130.128 13.5393 130.128 13.5929V16.7401C130.128 16.8339 130.095 16.8741 130.014 16.8741H128.668C128.695 17.1218 128.742 17.3361 128.789 17.5169C128.863 17.8584 128.97 18.1731 129.084 18.4544C129.084 18.4745 129.09 18.4879 129.097 18.4879C129.271 18.374 129.425 18.2602 129.559 18.133C129.78 17.9522 130.001 17.6977 130.222 17.3763C130.249 17.3428 130.282 17.3294 130.302 17.3294C130.604 17.6107 130.764 17.7714 130.764 17.8048C130.764 17.845 130.738 17.8651 130.677 17.8651C130.57 17.8651 130.517 17.8852 130.51 17.9053C130.142 18.3472 129.76 18.7088 129.378 18.9901C129.405 19.0369 129.432 19.0704 129.459 19.1039C129.586 19.3182 129.753 19.5057 129.961 19.6731C130.155 19.8472 130.396 19.9945 130.691 20.1217C130.717 20.1351 130.738 20.1552 130.738 20.182C130.738 20.2155 130.724 20.249 130.697 20.2691C130.61 20.3628 130.51 20.4699 130.416 20.5838C130.383 20.6307 130.349 20.6641 130.336 20.6641C130.322 20.6641 130.282 20.6373 130.242 20.5972C130.095 20.5168 129.941 20.4097 129.78 20.2824C129.572 20.1083 129.385 19.9275 129.217 19.7133C129.023 19.4521 128.869 19.2044 128.769 18.9633C128.622 18.6687 128.508 18.3673 128.441 18.0526C128.347 17.7446 128.26 17.3562 128.193 16.8674H127.476V19.6262H127.47ZM127.47 14.9121H129.606V14.0081H127.47V14.9121ZM127.47 16.3518H129.606V15.421H127.47V16.3518Z" fill="#EBE0CF"/>
<path d="M133.892 13.9079C133.946 13.9548 133.972 13.9883 133.972 14.0151C133.972 14.082 133.946 14.1289 133.885 14.149C133.798 14.149 133.738 14.1892 133.718 14.2628C133.51 14.8521 133.323 15.2873 133.169 15.5753C132.988 15.9034 132.801 16.2047 132.6 16.4927C132.392 16.7538 132.178 16.9882 131.957 17.1891C131.883 17.1891 131.83 17.1824 131.789 17.1556C131.689 17.1087 131.589 17.0685 131.488 17.015C131.455 17.0016 131.435 16.9815 131.435 16.9681C131.435 16.9346 131.448 16.9011 131.481 16.8877C131.843 16.5797 132.171 16.2047 132.452 15.7628C132.627 15.5083 132.774 15.2405 132.888 14.9525C133.028 14.6378 133.162 14.2494 133.289 13.774C133.316 13.7271 133.35 13.7003 133.376 13.7003L133.892 13.9079ZM134.602 15.6489C134.984 15.8632 135.184 15.9971 135.184 16.0373C135.184 16.0909 135.151 16.1043 135.097 16.1043C134.977 16.1177 134.903 16.1712 134.876 16.2516C134.508 17.0217 133.979 18.1065 133.31 19.4993C134.193 19.4189 135.278 19.2783 136.55 19.0975C136.316 18.6622 136.088 18.2739 135.888 17.9323C135.888 17.8654 136.015 17.7783 136.263 17.6444C136.283 17.6444 136.296 17.6578 136.316 17.6779C136.832 18.448 137.307 19.2716 137.736 20.1421C137.736 20.2225 137.716 20.276 137.682 20.2827C137.488 20.4233 137.341 20.497 137.24 20.497C137.086 20.1555 136.939 19.8475 136.792 19.5528C134.575 19.9412 133.135 20.1689 132.479 20.2492C132.406 20.2492 132.352 20.2894 132.332 20.3698C132.312 20.4501 132.272 20.4903 132.218 20.4903C132.144 20.4903 132.057 20.189 131.957 19.593C132.191 19.5863 132.466 19.5662 132.76 19.5461C133.33 18.3676 133.691 17.5908 133.845 17.2292C134.053 16.7203 134.234 16.2114 134.368 15.7159C134.388 15.6489 134.428 15.6155 134.488 15.6155C134.522 15.6221 134.562 15.6288 134.602 15.6489ZM136.222 13.4727C136.256 13.4727 136.283 13.5128 136.309 13.5798C136.49 14.4838 136.664 15.1132 136.859 15.4748C137.079 16.044 137.448 16.4458 137.957 16.6735C138.017 16.6868 138.044 16.7404 138.044 16.8074C138.044 16.8409 138.024 16.8676 137.99 16.9011C137.89 17.0016 137.803 17.0886 137.736 17.169C137.702 17.2359 137.655 17.2627 137.602 17.2627C137.059 16.8877 136.671 16.4324 136.43 15.8967C136.249 15.515 136.062 14.8789 135.861 13.9816H134.682C134.622 13.9816 134.595 13.9414 134.595 13.861V13.5932C134.595 13.5128 134.622 13.4727 134.682 13.4727H136.222Z" fill="#EBE0CF"/>
<path d="M144.86 13.5332C144.947 13.5332 145.001 13.5734 145.001 13.6537V19.8277C145.001 20.0821 144.86 20.2763 144.579 20.4236C144.304 20.5308 143.956 20.6044 143.527 20.6446C143.467 20.6446 143.44 20.6111 143.434 20.5509C143.427 20.437 143.373 20.2629 143.273 20.0419C143.273 20.0085 143.306 19.9951 143.36 19.9951C143.889 19.9951 144.21 19.9616 144.304 19.8946C144.425 19.8344 144.485 19.7406 144.485 19.5933V14.0421H139.168C139.108 14.0421 139.081 14.0019 139.081 13.9216V13.6604C139.081 13.5801 139.108 13.5399 139.168 13.5399H144.86V13.5332ZM143.273 15.1068C143.326 15.1068 143.353 15.1537 143.353 15.2407V15.4952C143.353 15.5823 143.326 15.6291 143.273 15.6291H139.456C139.396 15.6291 139.369 15.5889 139.369 15.4952V15.2407C139.369 15.1604 139.396 15.1068 139.456 15.1068H143.273ZM142.925 16.5532C142.998 16.5532 143.045 16.5867 143.045 16.6536V19.2786C143.045 19.3455 142.998 19.379 142.925 19.379H142.637C142.556 19.379 142.516 19.3455 142.516 19.2786V18.9572H140.32V19.8544C140.32 19.9214 140.28 19.9549 140.206 19.9549H139.918C139.838 19.9549 139.798 19.9214 139.798 19.8544V16.6737C139.798 16.5934 139.838 16.5532 139.918 16.5532H142.925ZM142.516 18.4348V17.0554H140.32V18.4348H142.516Z" fill="#EBE0CF"/>
<path d="M45.1256 39.8024C45.0653 39.6819 44.985 39.5881 44.8845 39.5078C44.7841 39.4274 44.6636 39.3739 44.5363 39.3404C44.4024 39.3069 44.2618 39.2868 44.1145 39.2868C44.0006 39.2868 43.8801 39.3002 43.7663 39.327C43.6457 39.3538 43.5386 39.394 43.4382 39.4475C43.3377 39.5078 43.2574 39.5815 43.1971 39.6752C43.1368 39.7689 43.1034 39.8828 43.1034 40.0234C43.1034 40.1372 43.1301 40.2377 43.1904 40.318C43.2507 40.3984 43.3176 40.4654 43.4047 40.5189C43.4917 40.5725 43.5922 40.6194 43.6926 40.6528C43.7998 40.6863 43.8935 40.7198 43.9806 40.7399L44.6703 40.8939C44.8176 40.914 44.9649 40.9542 45.1055 41.0144C45.2528 41.0747 45.3801 41.1484 45.4939 41.2421C45.6077 41.3359 45.7015 41.4497 45.7685 41.5836C45.8421 41.7242 45.8756 41.885 45.8756 42.0725C45.8756 42.3001 45.822 42.501 45.7216 42.6617C45.6144 42.8224 45.4872 42.9564 45.3265 43.0568C45.1658 43.1572 44.985 43.2309 44.7841 43.2711C44.5832 43.3113 44.3823 43.338 44.1814 43.338C43.6859 43.338 43.2775 43.2175 42.9694 42.9831C42.6614 42.7488 42.4806 42.3671 42.4404 41.8515H42.956C42.9761 42.1997 43.1034 42.4675 43.3377 42.6416C43.5721 42.8224 43.86 42.9095 44.2015 42.9095C44.3288 42.9095 44.456 42.8961 44.5899 42.8693C44.7238 42.8425 44.8511 42.7956 44.9649 42.7287C45.0787 42.6617 45.1725 42.5814 45.2461 42.4809C45.3198 42.3805 45.36 42.2533 45.36 42.1059C45.36 41.9787 45.3332 41.8716 45.2796 41.7912C45.2261 41.7042 45.1591 41.6372 45.072 41.5769C44.985 41.5167 44.8846 41.4698 44.7707 41.4296C44.6569 41.3894 44.543 41.356 44.4292 41.3292L43.7663 41.1819C43.5989 41.135 43.4382 41.0881 43.2975 41.0278C43.1569 40.9676 43.0297 40.9006 42.9226 40.8136C42.8154 40.7265 42.7351 40.6261 42.6748 40.4988C42.6145 40.3716 42.581 40.2243 42.581 40.0435C42.581 39.8292 42.6279 39.6484 42.7284 39.4944C42.8221 39.3404 42.9493 39.2199 43.1034 39.1261C43.2574 39.0324 43.4315 38.9654 43.619 38.9185C43.8065 38.8783 43.994 38.8516 44.1814 38.8516C44.3957 38.8516 44.5966 38.8783 44.7774 38.9319C44.9649 38.9855 45.1256 39.0725 45.2595 39.1864C45.4002 39.3002 45.5073 39.4475 45.5943 39.6149C45.6747 39.7823 45.7216 39.9832 45.735 40.2109H45.2194C45.2194 40.0569 45.1859 39.923 45.1256 39.8024Z" fill="#EBE0CF"/>
<path d="M49.6924 37.3516V39.7086H49.7058C49.8062 39.4542 49.9803 39.2466 50.2281 39.0859C50.4825 38.9319 50.7571 38.8515 51.0584 38.8515C51.353 38.8515 51.6008 38.8917 51.8017 38.9654C52.0026 39.0457 52.1633 39.1528 52.2838 39.2868C52.4043 39.4274 52.4914 39.5948 52.5383 39.8024C52.5851 40.0033 52.6119 40.2309 52.6119 40.4854V43.2108H52.0963V40.5658C52.0963 40.385 52.0762 40.2176 52.0494 40.0635C52.016 39.9095 51.9557 39.7689 51.8753 39.6551C51.795 39.5412 51.6811 39.4475 51.5405 39.3872C51.3999 39.3203 51.2258 39.2868 51.0182 39.2868C50.8106 39.2868 50.6231 39.327 50.4624 39.4006C50.3017 39.4743 50.1678 39.5747 50.054 39.7019C49.9401 39.8292 49.8531 39.9832 49.7928 40.164C49.7325 40.3448 49.6991 40.539 49.6924 40.7399V43.2175H49.1768V37.3516H49.6924Z" fill="#EBE0CF"/>
<path d="M59.0945 43.2174V42.454H59.0811C58.9472 42.7419 58.7463 42.9562 58.4851 43.1102C58.224 43.2575 57.9361 43.3379 57.6213 43.3379C57.3535 43.3379 57.1258 43.2977 56.9383 43.2241C56.7508 43.1504 56.5968 43.0433 56.4763 42.9093C56.3557 42.7754 56.2754 42.608 56.2151 42.4071C56.1615 42.2129 56.1348 41.9853 56.1348 41.7375V38.9854H56.6504V41.7442C56.6638 42.1259 56.7508 42.4205 56.9182 42.6147C57.0856 42.8089 57.3736 42.9093 57.782 42.9093C58.0097 42.9093 58.1972 42.8625 58.3579 42.7687C58.5186 42.675 58.6458 42.5477 58.753 42.387C58.8601 42.2263 58.9338 42.0455 58.9807 41.8379C59.0275 41.6371 59.0543 41.4228 59.0543 41.2085V38.9854H59.5699V43.2241H59.0945V43.2174Z" fill="#EBE0CF"/>
<path d="M64.7791 38.9792V39.4144H63.9153V42.2737C63.9153 42.4411 63.9354 42.5751 63.9822 42.6688C64.0291 42.7625 64.1429 42.8161 64.3304 42.8295C64.4778 42.8295 64.6251 42.8228 64.7724 42.8027V43.238C64.6987 43.238 64.6184 43.238 64.5447 43.2447C64.4711 43.2514 64.3907 43.2514 64.3171 43.2514C63.9755 43.2514 63.7345 43.1844 63.5939 43.0505C63.4599 42.9166 63.393 42.6688 63.3997 42.3072V39.4077H62.6631V38.9725H63.3997V37.7002H63.9153V38.9725H64.7791V38.9792Z" fill="#EBE0CF"/>
<path d="M69.7615 38.9792V39.4144H68.8977V42.2737C68.8977 42.4411 68.9178 42.5751 68.9647 42.6688C69.0115 42.7625 69.1254 42.8161 69.3129 42.8295C69.4602 42.8295 69.6075 42.8228 69.7548 42.8027V43.238C69.6812 43.238 69.6008 43.238 69.5271 43.2447C69.4535 43.2514 69.3731 43.2514 69.2995 43.2514C68.9513 43.2514 68.7169 43.1844 68.5763 43.0505C68.4424 42.9166 68.3754 42.6688 68.3821 42.3072V39.4077H67.6455V38.9725H68.3821V37.7002H68.8977V38.9725H69.7615V38.9792Z" fill="#EBE0CF"/>
<path d="M73.5781 37.3516V43.2175H73.0625V37.3516H73.5781Z" fill="#EBE0CF"/>
<path d="M77.5022 41.8183C77.5558 42.0192 77.6361 42.2 77.7567 42.3607C77.8705 42.5214 78.0178 42.6486 78.1919 42.7557C78.366 42.8562 78.5803 42.9098 78.8214 42.9098C79.2031 42.9098 79.4977 42.8093 79.712 42.6151C79.9262 42.4209 80.0736 42.1531 80.1539 41.825H80.6695C80.5624 42.3071 80.3615 42.6821 80.0669 42.9432C79.7722 43.2044 79.3571 43.3383 78.8214 43.3383C78.4866 43.3383 78.1986 43.2781 77.9576 43.1642C77.7165 43.0437 77.5156 42.883 77.3616 42.6821C77.2076 42.4745 77.0937 42.2401 77.0201 41.9656C76.9464 41.691 76.9062 41.4098 76.9062 41.1085C76.9062 40.8272 76.9464 40.5527 77.0201 40.2848C77.0937 40.017 77.2076 39.7759 77.3616 39.5683C77.5156 39.3541 77.7098 39.1867 77.9576 39.0594C78.1986 38.9322 78.4933 38.8652 78.8214 38.8652C79.1629 38.8652 79.4508 38.9322 79.6919 39.0728C79.9329 39.2067 80.1271 39.3875 80.2811 39.6085C80.4352 39.8295 80.5423 40.0839 80.6093 40.3719C80.6762 40.6598 80.703 40.9478 80.6896 41.2491H77.4286C77.4219 41.4232 77.4486 41.6174 77.5022 41.8183ZM80.0669 40.238C80.0066 40.0572 79.9129 39.8965 79.799 39.7558C79.6852 39.6152 79.5446 39.5014 79.3772 39.421C79.2098 39.334 79.029 39.2938 78.8147 39.2938C78.6004 39.2938 78.4129 39.334 78.2522 39.421C78.0848 39.5081 77.9509 39.6152 77.8303 39.7558C77.7165 39.8965 77.6227 40.0572 77.5558 40.238C77.4888 40.4188 77.442 40.6063 77.4219 40.8004H80.1673C80.1606 40.6063 80.1271 40.4188 80.0669 40.238Z" fill="#EBE0CF"/>
<path d="M87.185 43.2176V42.4141H87.1649C87.1114 42.548 87.031 42.6752 86.9239 42.789C86.8167 42.9029 86.6962 43.0033 86.5556 43.077C86.415 43.1573 86.2743 43.2176 86.1136 43.2645C85.9596 43.3047 85.8056 43.3314 85.6516 43.3314C85.3302 43.3314 85.0489 43.2712 84.8079 43.1573C84.5668 43.0368 84.3726 42.8761 84.2119 42.6752C84.0512 42.4676 83.9374 42.2333 83.857 41.9587C83.7833 41.6842 83.7432 41.4029 83.7432 41.1016C83.7432 40.8003 83.7833 40.5123 83.857 40.2445C83.9374 39.9699 84.0512 39.7356 84.2119 39.528C84.3726 39.3204 84.5668 39.1597 84.8079 39.0392C85.0422 38.9186 85.3235 38.8584 85.6516 38.8584C85.8123 38.8584 85.9663 38.8784 86.1136 38.9186C86.2676 38.9588 86.4083 39.0191 86.5355 39.0927C86.6694 39.1731 86.7833 39.2668 86.8837 39.3874C86.9841 39.5012 87.0645 39.6351 87.1181 39.7891H87.1315V37.3584H87.6471V43.2243H87.185V43.2176ZM84.3458 41.7511C84.3994 41.9654 84.4798 42.1596 84.5936 42.3337C84.7074 42.5011 84.848 42.6417 85.0221 42.7489C85.1962 42.856 85.4105 42.9096 85.6516 42.9096C85.9261 42.9096 86.1538 42.856 86.348 42.7489C86.5355 42.6417 86.6895 42.5011 86.81 42.3337C86.9306 42.1663 87.0109 41.9721 87.0645 41.7511C87.1181 41.5368 87.1448 41.3159 87.1448 41.1016C87.1448 40.8806 87.1181 40.6663 87.0645 40.4454C87.0109 40.2311 86.9239 40.0369 86.81 39.8695C86.6895 39.7021 86.5355 39.5615 86.348 39.4543C86.1605 39.3472 85.9261 39.2936 85.6516 39.2936C85.4038 39.2936 85.1962 39.3472 85.0221 39.4543C84.848 39.5615 84.7007 39.7021 84.5936 39.8695C84.4798 40.0369 84.3994 40.2311 84.3458 40.4454C84.2923 40.6596 84.2655 40.8806 84.2655 41.1016C84.2655 41.3159 84.2923 41.5368 84.3458 41.7511Z" fill="#EBE0CF"/>
<path d="M91.6707 38.9788V39.9766H91.6841C91.8181 39.6284 92.0189 39.3672 92.2935 39.1797C92.568 38.9922 92.9028 38.9119 93.2845 38.9253V39.4476C93.0502 39.4342 92.8359 39.4677 92.6417 39.5413C92.4475 39.615 92.2868 39.7221 92.1462 39.856C92.0056 39.99 91.8984 40.1574 91.8248 40.3449C91.7444 40.5324 91.7109 40.7399 91.7109 40.9676V43.2309H91.1953V38.9922H91.6707V38.9788Z" fill="#EBE0CF"/>
<path d="M96.5598 41.8183C96.6134 42.0192 96.6938 42.2 96.8143 42.3607C96.9281 42.5214 97.0754 42.6486 97.2495 42.7557C97.4236 42.8562 97.6379 42.9098 97.879 42.9098C98.2607 42.9098 98.5553 42.8093 98.7696 42.6151C98.9839 42.4209 99.1312 42.1531 99.2115 41.825H99.7271C99.62 42.3071 99.4124 42.6821 99.1245 42.9432C98.8299 43.2044 98.4147 43.3383 97.879 43.3383C97.5442 43.3383 97.2562 43.2781 97.0152 43.1642C96.7741 43.0437 96.5732 42.883 96.4192 42.6821C96.2652 42.4745 96.1514 42.2401 96.0777 41.9656C96.004 41.691 95.9639 41.4098 95.9639 41.1085C95.9639 40.8272 96.004 40.5527 96.0777 40.2848C96.1514 40.017 96.2652 39.7759 96.4192 39.5683C96.5732 39.3541 96.7741 39.1867 97.0152 39.0594C97.2562 38.9322 97.5509 38.8652 97.879 38.8652C98.2205 38.8652 98.5084 38.9322 98.7495 39.0728C98.9906 39.2067 99.1848 39.3875 99.3388 39.6085C99.4928 39.8295 99.5999 40.0839 99.6669 40.3719C99.7338 40.6598 99.7606 40.9478 99.7472 41.2491H96.4862C96.4795 41.4232 96.5063 41.6174 96.5598 41.8183ZM99.1245 40.238C99.0642 40.0572 98.9705 39.8965 98.8566 39.7558C98.7428 39.6152 98.6022 39.5014 98.4348 39.421C98.2674 39.334 98.0866 39.2938 97.879 39.2938C97.6647 39.2938 97.4772 39.334 97.3165 39.421C97.1491 39.5081 97.0152 39.6152 96.8946 39.7558C96.7808 39.8965 96.6871 40.0572 96.6201 40.238C96.5531 40.4188 96.5063 40.6063 96.4862 40.8004H99.2316C99.2182 40.6063 99.1848 40.4188 99.1245 40.238Z" fill="#EBE0CF"/>
<path d="M103.095 39.6352C103.182 39.4544 103.302 39.307 103.449 39.1932C103.597 39.0794 103.778 38.9923 103.978 38.9388C104.179 38.8852 104.407 38.8584 104.655 38.8584C104.842 38.8584 105.03 38.8785 105.211 38.912C105.398 38.9455 105.565 39.0124 105.713 39.1129C105.86 39.2133 105.981 39.3472 106.074 39.528C106.168 39.7088 106.215 39.9365 106.215 40.2244V42.4744C106.215 42.6819 106.315 42.7891 106.523 42.7891C106.583 42.7891 106.637 42.7757 106.684 42.7556V43.1909C106.623 43.2043 106.57 43.211 106.523 43.2176C106.476 43.2243 106.416 43.2243 106.349 43.2243C106.215 43.2243 106.115 43.2043 106.034 43.1708C105.954 43.1373 105.894 43.0837 105.847 43.0168C105.8 42.9498 105.773 42.8761 105.76 42.7824C105.746 42.6886 105.74 42.5949 105.74 42.4811H105.726C105.632 42.615 105.539 42.7422 105.445 42.8494C105.351 42.9565 105.244 43.0435 105.124 43.1172C105.003 43.1909 104.869 43.2444 104.722 43.2846C104.568 43.3248 104.394 43.3449 104.186 43.3449C103.985 43.3449 103.804 43.3181 103.63 43.2779C103.456 43.231 103.309 43.1574 103.175 43.0569C103.048 42.9565 102.947 42.8293 102.874 42.6686C102.8 42.5145 102.76 42.327 102.76 42.1128C102.76 41.8181 102.827 41.5838 102.954 41.4164C103.088 41.249 103.255 41.1217 103.476 41.0347C103.691 40.9476 103.938 40.8874 104.206 40.8472C104.481 40.807 104.755 40.7802 105.03 40.7467C105.137 40.7333 105.237 40.72 105.318 40.7066C105.398 40.6865 105.465 40.6597 105.525 40.6195C105.579 40.5793 105.626 40.5191 105.653 40.4521C105.686 40.3784 105.699 40.2847 105.699 40.1709C105.699 39.9968 105.673 39.8561 105.612 39.7423C105.552 39.6285 105.472 39.5414 105.371 39.4745C105.271 39.4075 105.15 39.3606 105.016 39.3405C104.882 39.3137 104.735 39.3003 104.588 39.3003C104.26 39.3003 103.992 39.3807 103.784 39.5347C103.577 39.6887 103.463 39.9432 103.456 40.2847H102.941C102.954 40.0302 103.008 39.816 103.095 39.6352ZM105.686 40.9008C105.653 40.961 105.592 41.0012 105.499 41.0347C105.405 41.0615 105.324 41.0815 105.251 41.0949C105.03 41.1351 104.809 41.1686 104.574 41.1954C104.34 41.2289 104.132 41.269 103.938 41.3293C103.744 41.3896 103.59 41.4766 103.463 41.5905C103.342 41.7043 103.275 41.865 103.275 42.0726C103.275 42.2065 103.302 42.3204 103.356 42.4208C103.409 42.5212 103.476 42.6083 103.563 42.682C103.65 42.7556 103.751 42.8092 103.865 42.8494C103.978 42.8895 104.099 42.9096 104.22 42.9096C104.42 42.9096 104.608 42.8828 104.789 42.8226C104.97 42.7623 105.13 42.6753 105.264 42.5614C105.398 42.4476 105.505 42.307 105.586 42.1396C105.666 41.9721 105.706 41.7913 105.706 41.5838V40.9074H105.686V40.9008Z" fill="#EBE0CF"/>
<path d="M110.273 38.9789V39.6954H110.3C110.441 39.4343 110.615 39.2267 110.843 39.0794C111.064 38.9321 111.345 38.8584 111.693 38.8584C111.974 38.8584 112.222 38.9254 112.45 39.066C112.677 39.1999 112.831 39.4075 112.905 39.6887C113.032 39.4075 113.22 39.1999 113.461 39.066C113.709 38.9321 113.97 38.8584 114.251 38.8584C115.188 38.8584 115.657 39.3539 115.657 40.345V43.2243H115.142V40.3717C115.142 40.0235 115.068 39.7557 114.921 39.5682C114.773 39.3874 114.512 39.2937 114.144 39.2937C113.916 39.2937 113.735 39.3338 113.588 39.4209C113.441 39.5079 113.32 39.6218 113.233 39.7624C113.146 39.903 113.086 40.0704 113.046 40.2512C113.012 40.432 112.992 40.6262 112.992 40.8204V43.2176H112.476V40.3383C112.476 40.1976 112.463 40.0637 112.43 39.9298C112.396 39.8026 112.349 39.6887 112.282 39.595C112.215 39.5012 112.122 39.4209 112.008 39.3673C111.894 39.3137 111.753 39.287 111.586 39.287C111.365 39.287 111.177 39.3271 111.017 39.4075C110.856 39.4878 110.722 39.595 110.622 39.7356C110.521 39.8762 110.448 40.0369 110.394 40.2311C110.347 40.4186 110.32 40.6262 110.32 40.8539V43.2176H109.805V38.9789H110.273Z" fill="#EBE0CF"/>
<path d="M119.494 42.3467H120.184V43.2172H119.494V42.3467Z" fill="#EBE0CF"/>
<path d="M126.612 39.5611C126.418 39.3803 126.15 39.2865 125.809 39.2865C125.561 39.2865 125.346 39.3401 125.159 39.4406C124.972 39.5477 124.817 39.6816 124.697 39.849C124.57 40.0164 124.483 40.2106 124.416 40.4249C124.349 40.6392 124.322 40.8602 124.322 41.0878C124.322 41.3155 124.355 41.5298 124.416 41.7508C124.476 41.965 124.57 42.1592 124.697 42.3266C124.817 42.494 124.972 42.6347 125.159 42.7351C125.346 42.8355 125.561 42.8891 125.809 42.8891C125.969 42.8891 126.117 42.8623 126.257 42.8021C126.398 42.7418 126.525 42.6547 126.639 42.5476C126.746 42.4405 126.84 42.3132 126.907 42.1659C126.98 42.0186 127.021 41.8579 127.041 41.6838H127.556C127.483 42.1994 127.295 42.6012 126.987 42.8891C126.679 43.1771 126.284 43.3177 125.802 43.3177C125.48 43.3177 125.192 43.2574 124.945 43.1436C124.697 43.023 124.489 42.8623 124.315 42.6614C124.148 42.4606 124.021 42.2262 123.927 41.9516C123.84 41.6771 123.793 41.3892 123.793 41.0878C123.793 40.7798 123.84 40.4919 123.927 40.2173C124.014 39.9495 124.141 39.7084 124.315 39.5075C124.483 39.3066 124.697 39.1459 124.945 39.0187C125.192 38.8982 125.48 38.8379 125.802 38.8379C126.257 38.8379 126.639 38.9584 126.954 39.1995C127.268 39.4406 127.456 39.8021 127.516 40.291H127C126.94 39.9896 126.806 39.7419 126.612 39.5611Z" fill="#EBE0CF"/>
<path d="M133.475 39.0324C133.723 39.1529 133.937 39.3136 134.105 39.5212C134.272 39.7221 134.406 39.9631 134.493 40.231C134.58 40.5055 134.627 40.7935 134.627 41.1015C134.627 41.4095 134.58 41.6975 134.493 41.9653C134.406 42.2399 134.279 42.4742 134.105 42.6751C133.937 42.876 133.723 43.0367 133.475 43.1572C133.228 43.2778 132.94 43.3313 132.618 43.3313C132.297 43.3313 132.009 43.2711 131.761 43.1572C131.513 43.0367 131.306 42.876 131.132 42.6751C130.964 42.4742 130.83 42.2399 130.743 41.9653C130.656 41.6908 130.609 41.4028 130.609 41.1015C130.609 40.7935 130.656 40.5055 130.743 40.231C130.83 39.9631 130.958 39.7221 131.132 39.5212C131.299 39.3203 131.513 39.1596 131.761 39.0324C132.009 38.9118 132.297 38.8516 132.618 38.8516C132.946 38.8583 133.228 38.9118 133.475 39.0324ZM131.969 39.4475C131.781 39.5547 131.627 39.6886 131.507 39.856C131.379 40.0234 131.292 40.2176 131.225 40.4319C131.158 40.6462 131.132 40.8671 131.132 41.0948C131.132 41.3225 131.165 41.5368 131.225 41.7577C131.286 41.972 131.379 42.1662 131.507 42.3336C131.627 42.501 131.781 42.6416 131.969 42.7421C132.156 42.8425 132.37 42.8961 132.618 42.8961C132.866 42.8961 133.08 42.8425 133.268 42.7421C133.455 42.6349 133.609 42.501 133.73 42.3336C133.85 42.1662 133.944 41.972 134.011 41.7577C134.071 41.5434 134.105 41.3225 134.105 41.0948C134.105 40.8671 134.071 40.6528 134.011 40.4319C133.951 40.2176 133.857 40.0234 133.73 39.856C133.603 39.6886 133.449 39.548 133.268 39.4475C133.08 39.3471 132.866 39.2935 132.618 39.2935C132.37 39.2935 132.156 39.3404 131.969 39.4475Z" fill="#EBE0CF"/>
<path d="M138.418 38.9789V39.6954H138.445C138.585 39.4343 138.759 39.2267 138.98 39.0794C139.201 38.9321 139.483 38.8584 139.831 38.8584C140.112 38.8584 140.366 38.9254 140.587 39.066C140.815 39.1999 140.969 39.4075 141.043 39.6887C141.17 39.4075 141.357 39.1999 141.599 39.066C141.846 38.9321 142.107 38.8584 142.389 38.8584C143.326 38.8584 143.795 39.3539 143.795 40.345V43.2243H143.279V40.3717C143.279 40.0235 143.206 39.7557 143.058 39.5682C142.911 39.3874 142.65 39.2937 142.282 39.2937C142.061 39.2937 141.873 39.3338 141.726 39.4209C141.578 39.5079 141.458 39.6218 141.371 39.7624C141.284 39.903 141.224 40.0704 141.183 40.2512C141.15 40.432 141.13 40.6262 141.13 40.8204V43.2176H140.614V40.3383C140.614 40.1976 140.601 40.0637 140.567 39.9298C140.534 39.8026 140.487 39.6887 140.42 39.595C140.353 39.5012 140.259 39.4209 140.145 39.3673C140.032 39.3137 139.891 39.287 139.724 39.287C139.503 39.287 139.315 39.3271 139.154 39.4075C138.994 39.4878 138.86 39.595 138.759 39.7356C138.659 39.8762 138.585 40.0369 138.532 40.2311C138.485 40.4186 138.458 40.6262 138.458 40.8539V43.2176H137.942V38.9789H138.418Z" fill="#EBE0CF"/>
</g>
<defs>
<clipPath id="clip0_870_3782">
<rect width="145" height="45.4407" fill="white"/>
</clipPath>
</defs>
</svg>
