<svg width="168" height="36" viewBox="0 0 168 36" fill="none" xmlns="http://www.w3.org/2000/svg">
<g clip-path="url(#clip0_870_3617)">
<path d="M35.5993 18.2243C35.5993 8.17541 27.4815 0 17.506 0C12.8045 0 8.38717 1.79658 5.00473 5.06076L0 0.0192262V35.8248H1.01791V23.8191C3.34214 30.7491 9.85254 35.7565 17.506 35.7565C22.0823 35.7565 26.2494 33.9642 29.3583 31.046L34.2782 36.0021L34.9992 35.278L30.5755 30.8217C33.8159 27.4123 35.5993 22.9625 35.5993 18.2243ZM17.506 2.41609C26.1603 2.41609 33.2009 9.50843 33.2009 18.2264C33.2009 22.3174 31.6677 26.1626 28.8811 29.1127L6.69913 6.76762C9.62987 3.95846 13.447 2.41609 17.506 2.41609ZM4.78207 6.28483C3.11311 8.08782 1.8174 10.2454 1.01791 12.6316V2.49513L4.78207 6.28483ZM5.50097 7.00902L28.6394 30.3176C25.715 33.052 21.8024 34.7289 17.506 34.7289C8.472 34.7289 1.12182 27.3247 1.12182 18.2243C1.12182 13.8984 2.78653 9.95704 5.50097 7.00902Z" fill="#EBE0CF"/>
<path d="M45.8637 13.8729C45.8361 13.8066 45.8213 13.4883 45.8213 12.918C45.8213 12.3476 45.8361 12.0442 45.8637 12.0058C46.273 12.0528 46.7713 12.0784 47.3609 12.0784H48.8729V9.31839H47.6048C47.3206 9.31839 46.9007 9.33761 46.3493 9.37607C46.3218 9.34829 46.3069 9.05349 46.3069 8.4938C46.3069 7.9341 46.3218 7.6393 46.3493 7.60939C46.7671 7.64784 47.1849 7.66707 47.6048 7.66707H48.8729V6.33192C48.8729 5.9303 48.8538 5.47101 48.8156 4.95404C49.2334 4.93481 49.666 4.93908 50.1135 4.96899C50.6649 5.00744 50.9405 5.0694 50.9405 5.15485C50.7115 5.55646 50.5991 5.97303 50.5991 6.40455V7.66921H53.8225V6.33405C53.8225 5.93244 53.8034 5.47315 53.7652 4.95617C54.183 4.93695 54.6156 4.94122 55.0631 4.97113C55.6144 5.00958 55.8901 5.07153 55.8901 5.15698C55.6611 5.5586 55.5487 5.97516 55.5487 6.40668V7.67134H56.8614C57.1562 7.67134 57.5888 7.65212 58.1592 7.61366C58.1868 7.64143 58.2016 7.93624 58.2016 8.49807C58.2016 9.05776 58.1868 9.35257 58.1592 9.38034C57.7415 9.34189 57.3088 9.32266 56.8614 9.32266H55.5487V12.0806H57.0735C57.54 12.0806 58.0468 12.0571 58.5982 12.0079C58.6258 12.0464 58.6406 12.3497 58.6406 12.9201C58.6406 13.4905 58.6258 13.8088 58.5982 13.875C57.8178 13.7895 56.7596 13.7468 55.4193 13.7468H52.2257H49.0468C47.978 13.7425 46.9198 13.7853 45.8637 13.8729ZM47.3185 18.3397C46.8816 17.8805 46.4257 17.4831 45.9506 17.1477C46.6165 16.7846 47.2761 16.3381 47.9335 15.8126C48.6078 15.2764 49.1253 14.7679 49.4879 14.2894C49.9353 14.471 50.3425 14.6932 50.7136 14.9581C51.0847 15.2208 51.2268 15.396 51.142 15.4815C51.0847 15.5477 51.0042 15.5925 50.9002 15.6096C50.7285 15.6395 50.5588 15.7442 50.387 15.9258C50.1029 16.2035 49.7699 16.5004 49.3882 16.8166C48.7117 17.4105 48.0225 17.9168 47.3185 18.3397ZM50.597 12.0763H53.8204V9.31839H52.2087H50.597V12.0763ZM56.8423 18.3397C56.1573 17.5536 54.9358 16.4727 53.1778 15.0927L54.6898 14.2446C55.1755 14.5885 55.8498 15.1012 56.7151 15.7805C57.5803 16.4898 58.1741 17.0067 58.4964 17.3314L56.8423 18.3397Z" fill="#EBE0CF"/>
<path d="M62.5745 16.8743C62.0507 16.8743 61.7623 16.8551 61.7051 16.8166C61.7814 16.0796 61.8196 15.161 61.8196 14.0587V11.3008V8.54293C61.8196 7.44276 61.7814 6.52204 61.7051 5.78504C61.7051 5.71881 61.7433 5.68464 61.8196 5.68464C62.4558 5.75086 63.1832 5.78504 64.0017 5.78504H66.1839V11.2431C66.1839 13.0333 66.2411 14.471 66.3557 15.552C66.3557 15.5904 66.2984 15.6096 66.1839 15.6096C65.7279 15.5712 65.2572 15.552 64.7715 15.552H63.3592V16.1843C63.3592 16.3958 63.3677 16.6051 63.3868 16.8166C63.3783 16.8551 63.1068 16.8743 62.5745 16.8743ZM63.3592 9.83536H64.6422V8.5707V7.30605H63.3592V9.83536ZM63.3592 14.0309H64.6422V11.3307H63.3592V12.6808V14.0309ZM69.9332 18.3098C69.8759 17.8313 69.6999 17.2951 69.4052 16.7013C69.8526 16.7205 70.404 16.729 71.0593 16.729C71.1738 16.729 71.2522 16.7098 71.2947 16.6713C71.3371 16.6329 71.3583 16.5667 71.3583 16.4705V13.3837H68.9047C68.2197 13.3837 67.4033 13.4178 66.4532 13.4841C66.4256 13.4371 66.4108 13.1551 66.4108 12.6445C66.4108 12.1318 66.4256 11.852 66.4532 11.805C67.1657 11.8712 67.9843 11.9054 68.9047 11.9054H71.3583V10.6706H68.892H67.6514C67.3651 10.6706 66.9579 10.6899 66.4256 10.7283C66.3981 10.7005 66.3832 10.4314 66.3832 9.92295C66.3832 9.41665 66.3981 9.14322 66.4256 9.10476C66.854 9.15176 67.3799 9.17739 68.0076 9.17739H69.5897V7.91274H68.2346C67.9313 7.91274 67.4838 7.93196 66.8943 7.97042C66.8667 7.94265 66.8519 7.67348 66.8519 7.16505C66.8519 6.65663 66.8667 6.3896 66.8943 6.35969C67.3312 6.39814 67.7786 6.41737 68.2346 6.41737H69.5897V5.65686C69.5897 5.35993 69.5748 5.09289 69.5472 4.8515C69.9268 4.83227 70.317 4.83655 70.7157 4.86645C71.2013 4.90491 71.4431 4.96686 71.4431 5.05231C71.2904 5.26379 71.2141 5.4881 71.2141 5.72736V6.41737H72.6116C72.9339 6.41737 73.4005 6.39814 74.0091 6.35969C74.0367 6.3896 74.0515 6.65663 74.0515 7.16505C74.0515 7.67348 74.0367 7.94051 74.0091 7.97042C73.5531 7.93196 73.0866 7.91274 72.6116 7.91274H71.2141V9.17739H72.8109C73.2859 9.17739 73.8182 9.1539 74.4078 9.10476C74.4353 9.14322 74.4502 9.41452 74.4502 9.91654C74.4502 10.4186 74.4353 10.6813 74.4078 10.7005C74.1787 10.6813 73.9412 10.6728 73.6952 10.6728H72.9678V11.9075H73.638C73.7991 11.9075 74.0239 11.899 74.3081 11.8797C74.3357 11.8883 74.3505 12.1425 74.3505 12.6402C74.3505 13.138 74.3357 13.3965 74.3081 13.4157C74.0982 13.3965 73.8755 13.3879 73.638 13.3879H72.9678V16.5197C72.9678 16.9405 72.9212 17.2609 72.8258 17.481C72.7219 17.7202 72.5352 17.9018 72.2702 18.0279C71.8439 18.2137 71.0635 18.3098 69.9332 18.3098ZM68.6057 16.7589C68.3491 16.0881 67.8168 15.2849 67.0088 14.345L68.3342 13.5546C68.6481 13.8793 68.9768 14.2723 69.3182 14.7316C69.6787 15.2401 69.9162 15.631 70.0308 15.9087L68.6057 16.7589Z" fill="#EBE0CF"/>
<path d="M77.0483 8.74331C77.0186 8.68563 77.0059 8.42501 77.0059 7.96144C77.0059 7.49788 77.0207 7.25008 77.0483 7.2223C77.5042 7.26076 77.9602 7.27998 78.4161 7.27998H79.7839H81.1517C81.455 7.27998 81.913 7.26076 82.5195 7.2223C82.5471 7.25221 82.562 7.49574 82.562 7.95504C82.562 8.41433 82.5471 8.65786 82.5195 8.68777C82.0636 8.64932 81.6077 8.63009 81.1517 8.63009H79.7839C78.9293 8.63009 78.0174 8.66854 77.0483 8.74331ZM82.8652 18.3094C82.6362 17.7647 82.3478 17.2712 81.9957 16.829V17.5617H79.0735V17.8501C79.0735 17.8886 79.0777 17.9463 79.0883 18.0232C79.0883 18.0702 79.0883 18.1043 79.0883 18.1236C79.0799 18.1706 78.836 18.1962 78.361 18.1962C77.8753 18.1962 77.6102 18.1727 77.5636 18.1236C77.6293 17.4143 77.6633 16.6004 77.6633 15.6818V13.2252H79.8306C80.6491 13.2252 81.3702 13.191 81.9979 13.1247C82.0445 13.1247 82.07 13.1589 82.07 13.2252C82.0233 13.7229 81.9979 14.3168 81.9979 15.0068V16.8012C83.0709 16.5235 84.0125 16.1112 84.8205 15.5665C84.1927 14.8679 83.6605 14.0391 83.2236 13.082L84.636 12.6078H83.6668C83.3339 12.6078 83.0115 12.6227 82.6977 12.6505C82.6701 12.6313 82.6553 12.3621 82.6553 11.8451C82.6553 11.3282 82.6701 11.0654 82.6977 11.0547C82.7168 11.0547 82.7443 11.0547 82.7825 11.0547C82.8482 11.0654 82.9013 11.0697 82.9394 11.0697H83.1812C82.8567 10.6873 82.4687 10.3412 82.0127 10.0357V10.5805H79.8603C79.2622 10.5805 78.5433 10.6147 77.7078 10.6809C77.6802 10.6339 77.6654 10.3818 77.6654 9.92679C77.6654 9.47177 77.6802 9.22183 77.7078 9.1727C78.3249 9.23892 79.0438 9.2731 79.8603 9.2731H82.0127V9.96311C82.5535 9.58072 82.9288 9.1022 83.1388 8.52755C83.2915 8.12594 83.3678 7.62178 83.3678 7.01936V5.31036H85.7196C86.5933 5.31036 87.3737 5.27618 88.0587 5.20996C88.1053 5.20996 88.1308 5.24414 88.1308 5.31036C88.0841 5.76111 88.0587 6.29731 88.0587 6.91896V8.52755C88.0587 8.72836 88.0672 8.85226 88.0884 8.90139C88.1075 8.94839 88.1541 8.97402 88.2305 8.97402H88.5867C88.6822 8.97402 88.7437 8.89285 88.7712 8.73049C88.8094 8.53823 88.8285 8.14089 88.8285 7.53847C89.1233 7.76918 89.5792 7.96999 90.1963 8.14089C90.1306 9.02102 89.9885 9.62558 89.7679 9.95029C89.5686 10.2665 89.2314 10.4245 88.7564 10.4245H87.9442C87.3822 10.4245 87.0026 10.2921 86.8033 10.0293C86.6039 9.76657 86.5043 9.27524 86.5043 8.55746V6.81855H84.935V7.06209C84.935 8.92062 84.3603 10.2558 83.2109 11.0697H85.6624H88.1287L88.4001 10.997L89.4986 11.4136C89.0618 13.0692 88.3429 14.4642 87.3462 15.5942C88.1541 16.139 89.1148 16.5513 90.226 16.829C89.8358 17.2114 89.4753 17.7049 89.1423 18.3094C87.9929 17.9548 86.9665 17.4336 86.0632 16.7435C85.1555 17.4058 84.091 17.927 82.8652 18.3094ZM77.7036 12.6227C77.676 12.5757 77.6611 12.3301 77.6611 11.89C77.6611 11.4499 77.676 11.2192 77.7036 11.2C77.9602 11.2278 78.3164 11.2427 78.7724 11.2427H79.856H80.9397C81.3002 11.2427 81.6564 11.2278 82.0085 11.2C82.036 11.2192 82.0509 11.4478 82.0509 11.8815C82.0509 12.3172 82.036 12.5437 82.0085 12.5629C81.7519 12.533 81.3956 12.5202 80.9397 12.5202H79.856C79.258 12.5223 78.5391 12.5544 77.7036 12.6227ZM77.7608 6.7331C77.7332 6.68611 77.7184 6.44044 77.7184 6.00037C77.7184 5.56031 77.7332 5.32959 77.7608 5.31036C78.0174 5.33814 78.3694 5.35309 78.8169 5.35309H79.873H80.9291C81.2896 5.35309 81.6416 5.33814 81.9851 5.31036C82.0127 5.32959 82.0276 5.56031 82.0276 6.00037C82.0276 6.44044 82.0127 6.67115 81.9851 6.69038C81.7285 6.66261 81.3765 6.64765 80.9291 6.64765H79.873C79.1668 6.64765 78.4649 6.67543 77.7608 6.7331ZM79.0714 16.2266H80.5537V14.5753H79.0714V15.4084V16.2266ZM86.0313 14.5475C86.5636 14.0113 87.0047 13.364 87.3568 12.6078H86.0165H84.6763C85.0177 13.317 85.4694 13.9622 86.0313 14.5475Z" fill="#EBE0CF"/>
<path d="M92.7319 8.74368C92.7043 8.686 92.6895 8.42538 92.6895 7.96181C92.6895 7.49825 92.7043 7.25044 92.7319 7.22267C93.2069 7.26112 93.6819 7.28035 94.1569 7.28035H95.5841H97.0241C97.3464 7.28035 97.8214 7.26112 98.4491 7.22267C98.4767 7.25258 98.4916 7.49611 98.4916 7.9554C98.4916 8.4147 98.4767 8.65823 98.4491 8.68813C97.9741 8.64968 97.4991 8.63046 97.0241 8.63046H95.5841C94.6892 8.63046 93.7392 8.66891 92.7319 8.74368ZM94.0721 18.1966C93.5865 18.1966 93.3299 18.1731 93.3023 18.1239C93.3405 17.7223 93.3596 17.3143 93.3596 16.902V15.6801V13.2234H97.8511V15.3917C97.8511 16.2163 97.8851 16.9383 97.9508 17.56C97.9508 17.607 97.9169 17.6326 97.8511 17.6326C97.4418 17.5856 96.9329 17.56 96.3264 17.56H94.8016V17.8484C94.8016 17.8868 94.8059 17.9445 94.8165 18.0214C94.8165 18.0684 94.8165 18.1026 94.8165 18.1218C94.8037 18.1709 94.5556 18.1966 94.0721 18.1966ZM93.402 10.6407C93.3744 10.6129 93.3596 10.3736 93.3596 9.92288C93.3596 9.47214 93.3744 9.22433 93.402 9.1752C94.0488 9.24142 94.7953 9.2756 95.6414 9.2756H96.7675C97.0241 9.2756 97.3994 9.25638 97.8935 9.21792C97.9232 9.24569 97.9359 9.48282 97.9359 9.92929C97.9359 10.3758 97.9211 10.6108 97.8935 10.6407C97.533 10.6022 97.1577 10.583 96.7675 10.583H95.6414H94.5153C94.2651 10.583 93.8961 10.6022 93.402 10.6407ZM93.402 12.5804C93.3744 12.5526 93.3596 12.3176 93.3596 11.8775C93.3596 11.4375 93.3744 11.1939 93.402 11.1448C94.0488 11.211 94.7953 11.2452 95.6414 11.2452H96.7675C97.0241 11.2452 97.3994 11.226 97.8935 11.1875C97.9232 11.2153 97.9359 11.4482 97.9359 11.884C97.9359 12.3198 97.9211 12.5526 97.8935 12.5804C97.533 12.5419 97.1577 12.5227 96.7675 12.5227H95.6414H94.5153C94.2651 12.5227 93.8961 12.5419 93.402 12.5804ZM93.4868 6.74842C93.4593 6.70143 93.4444 6.45362 93.4444 6.00928C93.4444 5.56281 93.4593 5.32782 93.4868 5.29791C93.8473 5.33637 94.2142 5.35559 94.5853 5.35559H95.6965H96.8078C97.0538 5.35559 97.4249 5.33637 97.919 5.29791C97.9465 5.32568 97.9614 5.56067 97.9614 6.00074C97.9614 6.4408 97.9465 6.67579 97.919 6.70356C97.5563 6.66511 97.1874 6.64588 96.8078 6.64588H95.6965C95.0688 6.64802 94.333 6.68006 93.4868 6.74842ZM94.7995 16.2269H96.3964V15.4088V14.5756H94.7995V16.2269ZM102.171 18.3974C101.59 18.3974 101.282 18.3739 101.244 18.3247C101.291 17.8462 101.316 17.2716 101.316 16.6008V14.8619V11.4012H99.8466C99.4183 11.4012 98.9348 11.4247 98.3919 11.4738C98.3622 11.4353 98.3495 11.1299 98.3495 10.5552C98.3495 9.98056 98.3643 9.67508 98.3919 9.63663C98.7906 9.68362 99.2762 9.70926 99.8466 9.70926H101.316V7.33589C101.316 6.47498 101.282 5.66535 101.217 4.90912C101.645 4.88989 102.082 4.89416 102.527 4.92407C103.068 4.96252 103.339 5.02447 103.339 5.10992C103.11 5.56922 102.998 6.02851 102.998 6.4878V9.70499H104.453C104.881 9.70499 105.365 9.68149 105.907 9.63235C105.937 9.67081 105.95 9.97629 105.95 10.5509C105.95 11.1256 105.935 11.4311 105.907 11.4695C105.509 11.4225 105.023 11.3969 104.453 11.3969H102.998V14.8576C102.998 16.2077 103.045 17.3613 103.14 18.3183C103.074 18.3717 102.75 18.3974 102.171 18.3974Z" fill="#EBE0CF"/>
<path d="M112.094 18.3826C111.532 18.3826 111.22 18.3591 111.153 18.31C111.237 17.5345 111.28 16.4963 111.28 15.1932V12.0615C110.671 12.7515 110.058 13.3112 109.441 13.7427C109.155 13.3026 108.79 12.8668 108.343 12.4353C109.759 11.459 110.919 10.0598 111.823 8.24184H110.298C109.831 8.24184 109.323 8.26534 108.773 8.31448C108.744 8.27602 108.731 7.98122 108.731 7.43007C108.731 6.87892 108.746 6.58625 108.773 6.5478C109.229 6.60548 109.853 6.63325 110.642 6.63325H112.523C112.752 6.03938 112.936 5.46045 113.078 4.89648C113.515 5.00116 113.929 5.1272 114.319 5.27033C114.709 5.41346 114.893 5.52027 114.874 5.58649C114.855 5.62494 114.821 5.65912 114.775 5.6869C114.679 5.73389 114.614 5.82575 114.575 5.96033C114.499 6.21027 114.423 6.43458 114.348 6.63539H117.756C118.774 6.63539 119.909 6.58839 121.164 6.49226C121.194 6.55848 121.207 6.87037 121.207 7.4258C121.207 7.98122 121.192 8.28243 121.164 8.33157C120.708 8.27389 120.085 8.24612 119.296 8.24612H117.428H113.691C113.53 8.60928 113.343 8.98739 113.135 9.38046H116.372C117.635 9.38046 118.711 9.33347 119.595 9.23733C119.69 9.23733 119.737 9.28433 119.737 9.38046C119.642 10.3567 119.595 11.5402 119.595 12.9288V16.4771C119.595 16.9171 119.548 17.2525 119.453 17.4832C119.349 17.731 119.154 17.919 118.868 18.0429C118.619 18.1668 118.282 18.248 117.856 18.2865C117.561 18.3142 117.076 18.3292 116.401 18.3292C116.325 17.8122 116.159 17.2611 115.903 16.6779C116.378 16.7056 116.963 16.7206 117.657 16.7206C117.875 16.7121 117.985 16.6159 117.985 16.4343V15.5734H112.938V16.9513C112.938 17.4213 112.957 17.8742 112.995 18.3164C112.966 18.3591 112.665 18.3826 112.094 18.3826ZM112.936 11.7901H115.46H117.983V10.8716H112.936V11.7901ZM112.936 14.1443H117.983V13.2107H115.46H112.936V14.1443Z" fill="#EBE0CF"/>
<path d="M125.483 18.3975C124.942 18.3975 124.637 18.374 124.571 18.3249C124.656 17.5387 124.701 16.477 124.701 15.1354V11.9332V8.73098C124.701 7.38087 124.658 6.31275 124.571 5.52875C124.571 5.48175 124.614 5.45612 124.701 5.45612C125.157 5.50311 125.708 5.52875 126.355 5.52875H128.009L128.238 5.45612L129.379 6.13117C129.313 6.33198 129.213 6.64814 129.08 7.07966C128.632 8.51522 128.299 9.51712 128.081 10.0811C128.793 10.9612 129.15 11.9396 129.15 13.012C129.158 13.9413 128.944 14.5629 128.507 14.8791C128.316 15.0329 128.041 15.1418 127.68 15.2102C127.538 15.2294 127.286 15.238 126.925 15.238C126.84 15.238 126.773 15.238 126.726 15.238C126.707 14.6441 126.577 14.1378 126.342 13.7148C126.522 13.7255 126.741 13.7298 126.997 13.7298C127.15 13.7298 127.288 13.6871 127.411 13.6016C127.572 13.467 127.653 13.2 127.653 12.7963C127.653 11.9054 127.311 11.0638 126.626 10.2691C126.806 9.6752 127.086 8.64126 127.468 7.16725C127.477 7.12025 127.487 7.0818 127.498 7.05189H126.257V14.0182C126.257 15.8084 126.314 17.2439 126.429 18.327C126.34 18.3719 126.024 18.3975 125.483 18.3975ZM136.148 18.2821C135.168 17.7459 134.367 16.947 133.739 15.8831C133.168 14.9261 132.717 13.7042 132.384 12.2195H131.372V15.9259C131.913 15.8297 132.585 15.7058 133.383 15.552L133.51 17.0452C132.844 17.2076 131.841 17.4383 130.501 17.7353C129.75 17.8976 129.207 18.0172 128.876 18.0941L128.321 16.4428C128.511 16.4151 128.825 16.3659 129.262 16.2997C129.491 16.2612 129.661 16.2335 129.775 16.2142V10.8843V8.21401C129.775 7.14161 129.737 6.2508 129.661 5.54157C129.661 5.44543 129.699 5.39844 129.775 5.39844C130.66 5.49457 131.739 5.54157 133.011 5.54157H134.638C135.274 5.54157 135.817 5.51807 136.262 5.46893C136.358 5.46893 136.405 5.49243 136.405 5.54157C136.309 6.47083 136.262 7.58168 136.262 8.87411V12.2216H133.824C133.966 12.7493 134.146 13.2555 134.367 13.7447C134.899 13.2085 135.317 12.7343 135.622 12.322C135.963 12.5719 136.258 12.8497 136.506 13.1551C136.774 13.4713 136.863 13.6721 136.778 13.7576C136.712 13.8238 136.625 13.8622 136.521 13.8729C136.341 13.8815 136.161 13.9733 135.98 14.1464C135.732 14.3664 135.418 14.6356 135.039 14.9517C135.618 15.8041 136.352 16.4321 137.234 16.8338C136.786 17.2525 136.424 17.7353 136.148 18.2821ZM131.372 8.15633H132.984H134.608V7.02198H131.372V8.15633ZM131.372 10.7561H134.608V9.54916H132.984H131.372V10.7561Z" fill="#EBE0CF"/>
<path d="M141.14 12.0909C140.712 11.6209 140.26 11.2193 139.785 10.8839C140.385 10.4331 140.949 9.84994 141.482 9.13217C141.995 8.45284 142.379 7.78206 142.637 7.12196C143.112 7.27577 143.549 7.46162 143.95 7.68166C144.368 7.92092 144.548 8.09822 144.491 8.21358C144.444 8.29903 144.372 8.36739 144.277 8.41439C144.105 8.49129 143.959 8.6451 143.833 8.87368C143.607 9.24752 143.335 9.64914 143.021 10.0807C142.413 10.9138 141.785 11.5824 141.14 12.0909ZM150.963 18.4099C150.868 18.1599 150.683 17.7818 150.407 17.2755C147.699 17.4187 144.491 17.5682 140.784 17.7199L140.585 15.9254C140.642 15.9254 140.731 15.9254 140.856 15.9254C141.617 15.9062 142.205 15.887 142.625 15.8677C143.072 15.0432 143.513 14.0968 143.95 13.0244C144.378 11.9606 144.724 10.9757 144.991 10.0657L145.99 10.3242L146.989 10.5677C146.2 12.4925 145.373 14.2399 144.508 15.8101C145.649 15.7802 147.299 15.7289 149.455 15.652C148.828 14.7035 148.272 13.9238 147.786 13.3107L149.368 12.5502C150.005 13.3171 150.628 14.1588 151.237 15.0773C151.837 15.9959 152.301 16.8056 152.634 17.5041L150.963 18.4099ZM151.506 11.7469C150.251 10.6275 149.139 9.09585 148.17 7.14973H146.018C145.305 7.14973 144.593 7.17964 143.88 7.23518C143.85 7.18818 143.838 6.88056 143.838 6.3166C143.838 5.75263 143.853 5.45569 143.88 5.42578C144.336 5.46423 144.792 5.48346 145.248 5.48346H146.616H149.366C149.746 6.4405 150.259 7.36549 150.906 8.25631C151.58 9.18557 152.293 9.93326 153.046 10.4972C152.817 10.6211 152.549 10.8113 152.24 11.0655C151.93 11.3175 151.686 11.544 151.506 11.7469Z" fill="#EBE0CF"/>
<path d="M164.139 18.2818C164.073 17.6986 163.891 17.0791 163.598 16.4296C164.302 16.4766 164.957 16.4873 165.566 16.4574C165.7 16.4574 165.789 16.436 165.837 16.3933C165.884 16.3506 165.91 16.2673 165.91 16.1412V7.39332H160.434C159.009 7.39332 157.582 7.451 156.157 7.56636C156.129 7.48091 156.114 7.15406 156.114 6.59009C156.114 6.02613 156.129 5.70996 156.157 5.6416C156.869 5.72705 157.826 5.76978 159.022 5.76978H161.889H164.754C165.952 5.76978 166.906 5.72705 167.619 5.6416C167.733 5.6416 167.791 5.68433 167.791 5.76978C167.676 6.84217 167.619 8.27773 167.619 10.0786V16.1541C167.619 16.6625 167.566 17.0449 167.462 17.3034C167.347 17.5918 167.144 17.8054 166.849 17.9506C166.399 18.1899 165.498 18.301 164.139 18.2818ZM156.297 10.0807C156.269 9.99527 156.254 9.68979 156.254 9.16854C156.254 8.6473 156.269 8.36745 156.297 8.329C156.81 8.38668 157.495 8.41445 158.349 8.41445H160.402H162.455C163.14 8.41445 163.823 8.38668 164.508 8.329C164.537 8.36745 164.55 8.64303 164.55 9.15572C164.55 9.66842 164.535 9.94827 164.508 9.99527C163.995 9.93759 163.31 9.90982 162.455 9.90982H160.402C159.034 9.90768 157.664 9.96536 156.297 10.0807ZM157.807 16.9167C157.255 16.9167 156.946 16.8975 156.88 16.859C156.965 16.122 157.007 15.1393 157.007 13.9153V12.4349C157.007 11.8602 156.984 11.371 156.935 10.9694C156.935 10.9224 156.958 10.8968 157.007 10.8968C157.463 10.9438 158.025 10.9694 158.689 10.9694H160.385H163.778V13.3962C163.778 14.3062 163.812 15.1158 163.878 15.8229C163.878 15.8998 163.844 15.9383 163.778 15.9383C163.093 15.8614 162.239 15.8229 161.212 15.8229H158.631V16.3399C158.631 16.513 158.64 16.6839 158.661 16.8569C158.653 16.8975 158.369 16.9167 157.807 16.9167ZM158.634 14.3596H160.387H162.156V12.4349H158.634V14.3596Z" fill="#EBE0CF"/>
<path d="M46.0332 23.2129H49.6977C50.1303 23.2129 50.5078 23.2834 50.8344 23.4265C51.1588 23.5696 51.4303 23.7619 51.6466 24.0054C51.8629 24.249 52.024 24.531 52.1301 24.8535C52.2361 25.174 52.2891 25.5136 52.2891 25.8704C52.2891 26.4493 52.1598 26.9428 51.9032 27.3551C51.6444 27.7674 51.3221 28.0814 50.9361 28.295L52.2891 31.0038H50.1133L49.0403 28.6176H47.9672V31.0038H46.0332V23.2129ZM47.9672 24.9646V26.962H49.2248C49.4114 26.962 49.5726 26.9321 49.7083 26.8701C49.844 26.8082 49.9543 26.727 50.0412 26.6266C50.1282 26.5262 50.1918 26.413 50.23 26.2912C50.2681 26.1673 50.2872 26.0455 50.2872 25.9216C50.2872 25.8191 50.2681 25.7102 50.23 25.6012C50.1918 25.4901 50.1282 25.3876 50.0412 25.2936C49.9543 25.1996 49.844 25.1227 49.7083 25.0607C49.5726 24.9988 49.4114 24.9689 49.2248 24.9689H47.9672V24.9646Z" fill="#EBE0CF"/>
<path d="M54.1445 27.0792C54.1445 26.4426 54.2421 25.8743 54.4393 25.3745C54.6365 24.8746 54.9101 24.4516 55.2621 24.1077C55.6141 23.7637 56.0319 23.5031 56.5197 23.3237C57.0074 23.1442 57.5439 23.0566 58.1292 23.0566C58.6954 23.0566 59.2214 23.1421 59.7049 23.3151C60.1884 23.4882 60.6062 23.7424 60.9561 24.0799C61.3081 24.4174 61.5817 24.8361 61.7789 25.336C61.9761 25.8359 62.0736 26.4148 62.0736 27.0706C62.0736 27.7521 61.9676 28.3503 61.7555 28.863C61.5435 29.3757 61.2551 29.8029 60.8946 30.1447C60.534 30.4865 60.112 30.7407 59.6328 30.9095C59.1535 31.0782 58.6488 31.1616 58.1186 31.1616C57.5842 31.1616 57.0753 31.0761 56.5918 30.9031C56.1082 30.73 55.6862 30.4737 55.3257 30.134C54.9652 29.7922 54.6768 29.3671 54.4647 28.8587C54.2527 28.346 54.1445 27.7542 54.1445 27.0792ZM56.1379 27.0877C56.1379 27.4958 56.1888 27.8546 56.2885 28.1601C56.3882 28.4656 56.526 28.7198 56.7042 28.9206C56.8823 29.1214 57.0901 29.2731 57.3276 29.3735C57.5651 29.4739 57.8239 29.5252 58.1017 29.5252C58.3858 29.5252 58.6488 29.4761 58.8905 29.3799C59.1323 29.2817 59.3422 29.1321 59.5183 28.927C59.6964 28.722 59.8342 28.4635 59.9339 28.1473C60.0336 27.8333 60.0845 27.4616 60.0845 27.0322C60.0845 26.6434 60.0336 26.3016 59.9339 26.0089C59.8342 25.7163 59.6943 25.4727 59.5183 25.2783C59.3401 25.0839 59.1323 24.9365 58.8905 24.8404C58.6488 24.7421 58.3901 24.6951 58.1123 24.6951C57.8281 24.6951 57.5673 24.7443 57.3297 24.8404C57.0901 24.9387 56.8823 25.0839 56.7063 25.2783C56.5281 25.4727 56.3903 25.7205 56.2906 26.0239C56.1867 26.323 56.1379 26.6797 56.1379 27.0877Z" fill="#EBE0CF"/>
<path d="M65.7488 28.4127L62.8096 23.2109H65.0044L66.7349 26.6204H66.8028L68.8047 23.2109H70.815L67.6828 28.402V31.0018H65.7488V28.4127Z" fill="#EBE0CF"/>
<path d="M76.1736 29.5148H73.3405L72.8082 31.0059H70.749L73.8537 23.2129H75.8449L78.7566 31.0059H76.6572L76.1736 29.5148ZM73.9003 27.9276H75.6689L74.8376 25.3278L73.9003 27.9276Z" fill="#EBE0CF"/>
<path d="M80.5146 23.2129H82.4487V29.1538H85.9202V31.0038H80.5146V23.2129Z" fill="#EBE0CF"/>
<path d="M95.0665 28.8332C95.0665 28.6901 95.0092 28.5705 94.8969 28.4722C94.7845 28.3739 94.6339 28.2906 94.4473 28.218C94.2607 28.1475 94.0486 28.0791 93.8132 28.0172C93.5778 27.9552 93.3361 27.8847 93.0879 27.8036C92.8398 27.7224 92.5981 27.6263 92.3627 27.5173C92.1273 27.4062 91.9152 27.2652 91.7286 27.0943C91.542 26.9234 91.3914 26.7141 91.279 26.4705C91.1666 26.227 91.1094 25.9343 91.1094 25.5883C91.1094 25.1803 91.1857 24.8171 91.3405 24.5031C91.4953 24.189 91.7074 23.9241 91.9746 23.7084C92.2418 23.4948 92.5578 23.3324 92.9225 23.2213C93.2873 23.1102 93.6775 23.0547 94.0974 23.0547C94.3412 23.0547 94.5915 23.0696 94.8417 23.0995C95.0941 23.1295 95.3358 23.17 95.567 23.2256C95.7981 23.2811 96.0166 23.3452 96.2201 23.42C96.4237 23.4948 96.6019 23.5738 96.7567 23.6592L96.3898 25.3148C96.2286 25.2166 96.0505 25.1311 95.8533 25.0563C95.656 24.9816 95.4525 24.9196 95.2446 24.8705C95.0347 24.8214 94.8269 24.785 94.6212 24.7594C94.4155 24.7338 94.2182 24.721 94.0316 24.721C93.7284 24.721 93.4845 24.7765 93.3021 24.8854C93.1176 24.9965 93.0264 25.1546 93.0264 25.364C93.0264 25.5776 93.124 25.7442 93.3212 25.8617C93.5184 25.9792 93.7623 26.0817 94.0571 26.1693C94.3518 26.2569 94.6678 26.3488 95.0092 26.4428C95.3507 26.5368 95.6688 26.6671 95.9614 26.8316C96.2541 26.9961 96.5001 27.214 96.6973 27.4853C96.8945 27.7544 96.9921 28.1069 96.9921 28.5427C96.9921 28.893 96.9284 29.2263 96.8033 29.5403C96.6782 29.8544 96.4895 30.1321 96.2371 30.3735C95.9847 30.6127 95.6688 30.805 95.2892 30.9481C94.9096 31.0912 94.46 31.1617 93.9447 31.1617C93.4993 31.1617 93.0434 31.1254 92.5769 31.0549C92.1103 30.9844 91.6735 30.8541 91.2663 30.6661L91.3426 28.8845C91.7498 29.0789 92.1718 29.2306 92.6087 29.3374C93.0477 29.4442 93.5121 29.4976 94.0019 29.4976C94.214 29.4976 94.39 29.4805 94.53 29.4442C94.6678 29.4079 94.776 29.3609 94.8544 29.3032C94.9308 29.2455 94.9859 29.175 95.0177 29.0939C95.0517 29.0084 95.0665 28.923 95.0665 28.8332Z" fill="#EBE0CF"/>
<path d="M102.659 24.9648V31.004H100.725V24.9648H98.3076V23.2109H105.077V24.9648H102.659Z" fill="#EBE0CF"/>
<path d="M114.136 23.2131V27.2655C114.136 27.8039 114.045 28.3102 113.86 28.7844C113.676 29.2586 113.421 29.6709 113.097 30.0213C112.77 30.3716 112.384 30.6493 111.937 30.8544C111.489 31.0595 110.997 31.162 110.463 31.162C109.929 31.162 109.437 31.083 108.989 30.9228C108.542 30.7647 108.154 30.5212 107.829 30.1965C107.503 29.8718 107.248 29.4659 107.066 28.9788C106.881 28.4917 106.79 27.9214 106.79 27.2655V23.2131H108.724V27.2655C108.724 27.9662 108.873 28.4875 109.169 28.8229C109.466 29.1604 109.897 29.3291 110.465 29.3291C110.743 29.3291 110.991 29.2736 111.209 29.1625C111.428 29.0514 111.61 28.904 111.757 28.7203C111.901 28.5345 112.013 28.3187 112.09 28.0666C112.166 27.8167 112.206 27.5497 112.206 27.2634V23.2109H114.136V23.2131Z" fill="#EBE0CF"/>
<path d="M116.572 23.2129H119.503C120.037 23.2129 120.544 23.309 121.021 23.4991C121.499 23.6914 121.916 23.9584 122.279 24.3024C122.639 24.6463 122.926 25.0565 123.136 25.535C123.346 26.0114 123.45 26.5369 123.45 27.1073C123.45 27.6456 123.346 28.1519 123.136 28.6261C122.926 29.1004 122.642 29.5127 122.279 29.863C121.918 30.2134 121.499 30.4911 121.021 30.6962C120.544 30.9012 120.037 31.0038 119.503 31.0038H116.572V23.2129ZM118.506 24.9646V29.2499H119.503C119.851 29.2499 120.152 29.1858 120.406 29.0598C120.661 28.9338 120.873 28.7671 121.04 28.562C121.208 28.357 121.333 28.1284 121.418 27.8763C121.501 27.6242 121.543 27.3657 121.543 27.1073C121.543 26.8402 121.499 26.5796 121.412 26.3233C121.325 26.0669 121.195 25.8383 121.026 25.6375C120.854 25.4367 120.642 25.2744 120.387 25.1505C120.133 25.0266 119.838 24.9646 119.503 24.9646H118.506Z" fill="#EBE0CF"/>
<path d="M125.518 23.2129H127.452V31.0059H125.518V23.2129Z" fill="#EBE0CF"/>
<path d="M129.567 27.0792C129.567 26.4426 129.665 25.8743 129.862 25.3745C130.059 24.8746 130.333 24.4516 130.685 24.1077C131.037 23.7637 131.455 23.5031 131.943 23.3237C132.43 23.1442 132.967 23.0566 133.552 23.0566C134.118 23.0566 134.644 23.1421 135.128 23.3151C135.611 23.4882 136.029 23.7424 136.379 24.0799C136.731 24.4174 137.005 24.8361 137.202 25.336C137.399 25.8359 137.496 26.4148 137.496 27.0706C137.496 27.7521 137.39 28.3503 137.178 28.863C136.966 29.3757 136.678 29.8029 136.317 30.1447C135.957 30.4865 135.535 30.7407 135.056 30.9095C134.576 31.0782 134.072 31.1616 133.541 31.1616C133.007 31.1616 132.498 31.0761 132.015 30.9031C131.531 30.73 131.109 30.4737 130.749 30.134C130.388 29.7922 130.1 29.3671 129.888 28.8587C129.676 28.346 129.567 27.7542 129.567 27.0792ZM131.561 27.0877C131.561 27.4958 131.612 27.8546 131.711 28.1601C131.811 28.4656 131.949 28.7198 132.127 28.9206C132.305 29.1214 132.513 29.2731 132.75 29.3735C132.988 29.4739 133.247 29.5252 133.525 29.5252C133.809 29.5252 134.072 29.4761 134.313 29.3799C134.555 29.2817 134.765 29.1321 134.941 28.927C135.119 28.722 135.257 28.4635 135.357 28.1473C135.456 27.8333 135.507 27.4616 135.507 27.0322C135.507 26.6434 135.456 26.3016 135.357 26.0089C135.257 25.7163 135.117 25.4727 134.941 25.2783C134.763 25.0839 134.555 24.9365 134.313 24.8404C134.072 24.7421 133.813 24.6951 133.535 24.6951C133.251 24.6951 132.99 24.7443 132.753 24.8404C132.513 24.9387 132.305 25.0839 132.129 25.2783C131.951 25.4727 131.813 25.7205 131.713 26.0239C131.61 26.323 131.561 26.6797 131.561 27.0877Z" fill="#EBE0CF"/>
<path d="M143.498 23.29H145.432V29.2309H148.904V31.0809H143.498V23.29Z" fill="#EBE0CF"/>
<path d="M153.003 25.0439V31.0831H151.069V25.0439H148.651V23.29H155.42V25.0439H153.003Z" fill="#EBE0CF"/>
<path d="M157.208 23.29H160.139C160.673 23.29 161.18 23.3862 161.657 23.5763C162.134 23.7686 162.552 24.0356 162.915 24.3795C163.275 24.7235 163.561 25.1336 163.771 25.6121C163.981 26.0885 164.085 26.614 164.085 27.1844C164.085 27.7227 163.981 28.229 163.771 28.7033C163.561 29.1775 163.277 29.5898 162.915 29.9402C162.554 30.2905 162.134 30.5682 161.657 30.7733C161.18 30.9784 160.673 31.0809 160.139 31.0809H157.208V23.29ZM159.142 25.0439V29.3292H160.139C160.487 29.3292 160.788 29.2651 161.042 29.1391C161.297 29.013 161.509 28.8464 161.676 28.6413C161.844 28.4363 161.969 28.2077 162.054 27.9556C162.136 27.7035 162.179 27.445 162.179 27.1866C162.179 26.9195 162.134 26.6589 162.047 26.4025C161.96 26.1462 161.831 25.9176 161.661 25.7168C161.49 25.516 161.278 25.3537 161.023 25.2297C160.769 25.1058 160.474 25.0439 160.139 25.0439H159.142Z" fill="#EBE0CF"/>
<path d="M165.979 29.1426H168V31.0802H165.979V29.1426Z" fill="#EBE0CF"/>
</g>
<defs>
<clipPath id="clip0_870_3617">
<rect width="168" height="36" fill="white"/>
</clipPath>
</defs>
</svg>
