<svg width="166" height="55" viewBox="0 0 166 55" fill="none" xmlns="http://www.w3.org/2000/svg">
<path d="M115.417 35.955C115.573 36.3761 115.738 36.7801 115.871 37.1959C116.057 37.7739 116.21 38.3627 116.397 38.9408C116.46 39.1352 116.597 39.3061 116.676 39.4973C116.728 39.623 116.742 39.7659 116.759 39.9024C116.762 39.9281 116.7 39.9883 116.667 39.9894C116.554 39.9926 116.539 40.0646 116.518 40.1484C116.485 40.2848 116.459 40.4256 116.402 40.5513C116.34 40.6877 116.238 40.7103 116.102 40.6394C116.02 40.5954 115.941 40.5406 115.868 40.4804C114.665 39.5048 113.569 38.4272 112.712 37.1261C112.613 36.9756 112.506 36.8295 112.395 36.6877C112.331 36.6071 112.258 36.533 112.178 36.4696C112.015 36.3428 111.936 36.3611 111.82 36.5265C111.373 37.1594 110.882 37.7546 110.338 38.3068C109.928 38.7237 109.415 38.988 108.901 39.247C108.518 39.4393 108.143 39.6402 107.883 39.9926C107.821 40.0775 107.779 40.186 107.756 40.2902C107.719 40.4653 107.717 40.648 107.677 40.8231C107.634 41.0111 107.545 41.0412 107.374 40.9531C107.37 40.951 107.365 40.9499 107.362 40.9478C106.987 40.6362 106.543 40.6373 106.091 40.6587C105.864 40.6695 105.637 40.6566 105.409 40.6437C105.276 40.6362 105.243 40.5889 105.305 40.4686C105.371 40.3364 105.452 40.2053 105.551 40.0979C105.814 39.81 106.13 39.5886 106.48 39.4156C106.672 39.3211 106.859 39.2147 107.052 39.1191C107.578 38.8559 108.017 38.4884 108.402 38.0436C108.932 37.4291 109.474 36.8252 110.018 36.2225C110.377 35.8239 110.553 35.3382 110.694 34.8376C110.742 34.6646 110.702 34.4809 110.612 34.3272C110.469 34.0833 110.331 33.8308 110.148 33.6203C109.458 32.8273 108.851 31.9764 108.276 31.0986C108.153 30.9106 108.056 30.715 108.012 30.4905C107.938 30.1134 107.849 29.7384 107.765 29.3623C107.713 29.1303 107.637 29.083 107.438 29.2152C107.117 29.429 106.813 29.6675 106.504 29.8985C106.478 29.9178 106.449 29.9533 106.449 29.9823C106.449 30.1005 106.376 30.1144 106.286 30.1048C106.056 30.0801 105.824 30.0672 105.598 30.021C105.498 30.0006 105.389 29.9307 105.325 29.8501C105.1 29.5697 104.944 29.2528 104.857 28.9003C104.782 28.6006 105.02 28.3374 105.263 28.3331C105.353 28.3309 105.444 28.2998 105.531 28.3094C105.971 28.3599 106.332 28.1472 106.691 27.9527C106.901 27.8388 107.041 27.6368 107.118 27.4069C107.143 27.3339 107.148 27.2415 107.128 27.1684C107.012 26.7612 106.888 26.3561 106.763 25.9511C106.626 25.5095 106.477 25.0711 106.348 24.6274C106.294 24.4405 106.203 24.3019 106.028 24.2191C106.004 24.2084 105.983 24.1933 105.962 24.1783C105.833 24.087 105.835 23.9956 105.969 23.9086C106.364 23.6486 106.795 23.5917 107.251 23.6841C107.394 23.7131 107.536 23.7464 107.679 23.7743C107.778 23.7937 107.805 23.8495 107.805 23.9484C107.805 24.3642 107.786 24.7821 107.825 25.1936C107.875 25.7212 107.973 26.2444 108.048 26.7709C108.059 26.8547 108.059 26.9417 108.052 27.0255C108.04 27.1716 108.101 27.2361 108.24 27.1877C108.467 27.1093 108.688 27.0148 108.91 26.9267C109.728 26.6043 110.545 26.2799 111.363 25.9618C111.758 25.8082 112.064 25.5525 112.301 25.2076C112.375 25.1001 112.388 24.983 112.341 24.8648C112.298 24.7585 112.247 24.6532 112.187 24.5554C112.096 24.4082 111.998 24.3964 111.875 24.5232C111.591 24.8154 111.27 25.0561 110.919 25.2613C110.875 25.2871 110.825 25.3032 110.778 25.3236C110.765 25.315 110.753 25.3064 110.74 25.2978C110.764 25.1571 110.787 25.0153 110.812 24.8745C110.836 24.7402 110.861 24.6059 110.885 24.4716C110.902 24.3749 110.941 24.2965 111.051 24.2879C111.358 24.2632 111.472 24.0193 111.6 23.8001C111.674 23.6744 111.611 23.5422 111.559 23.4187C111.349 22.9255 111.121 22.4399 110.937 21.9371C110.551 20.8874 110.187 19.8291 109.984 18.7246C109.941 18.4914 109.809 18.3582 109.596 18.2948C109.533 18.2765 109.456 18.2744 109.395 18.2948C109.03 18.4173 108.674 18.5537 108.337 18.7536C108.019 18.9416 107.667 19.092 107.312 19.1941C106.989 19.2865 106.642 19.2908 106.306 19.3295C106.275 19.3327 106.221 19.3123 106.21 19.2886C106.197 19.2575 106.204 19.1984 106.226 19.1758C106.413 18.9878 106.584 18.774 106.801 18.6279C107.321 18.2787 107.86 17.9564 108.399 17.6373C108.601 17.518 108.822 17.4288 109.041 17.3439C109.222 17.273 109.322 17.1527 109.308 16.9658C109.293 16.7573 109.281 16.5414 109.215 16.3469C109.05 15.857 108.859 15.3745 108.669 14.8932C108.599 14.717 108.605 14.5634 108.722 14.4108C109.049 13.9853 109.618 13.9477 109.988 14.3399C110.17 14.5333 110.35 14.7331 110.499 14.9512C110.619 15.1253 110.701 15.3283 110.778 15.5271C110.797 15.5776 110.749 15.6722 110.706 15.7237C110.65 15.7914 110.567 15.8365 110.497 15.8913C110.556 15.9913 110.805 16.1191 110.902 16.0955C110.941 16.0858 110.978 16.0568 111.007 16.0278C111.046 15.9891 111.079 15.9429 111.113 15.8989C111.201 15.7828 111.289 15.7194 111.458 15.7807C111.643 15.8484 112.002 15.6034 112.074 15.4089C112.12 15.2864 112.186 15.1715 112.245 15.0544C112.254 15.0361 112.272 15.02 112.289 15.0092C112.41 14.933 112.798 14.9394 112.905 15.034C113.208 15.3015 113.55 15.4788 113.951 15.5508C114.156 15.5873 114.179 15.6936 114.05 15.8623C113.977 15.958 113.905 16.0536 113.837 16.1524C113.631 16.4479 113.351 16.6241 113.002 16.7133C112.641 16.8057 112.278 16.9002 111.932 17.0367C111.606 17.1656 111.3 17.345 110.993 17.5137C110.842 17.5964 110.807 17.7135 110.87 17.8908C111.085 18.4914 111.312 19.0888 111.527 19.6894C111.78 20.3996 112.029 21.1108 112.271 21.8243C112.326 21.9854 112.336 22.1605 112.381 22.326C112.399 22.3937 112.445 22.4796 112.501 22.5022C112.539 22.5173 112.633 22.4506 112.673 22.398C112.939 22.0402 113.206 21.6824 113.456 21.3128C113.702 20.9508 113.925 20.5736 114.166 20.2083C114.294 20.0149 114.378 19.8097 114.412 19.5809C114.458 19.2833 114.623 19.0404 114.796 18.8052C114.868 18.7074 114.967 18.6902 115.068 18.7568C115.161 18.818 115.249 18.8857 115.335 18.9566C115.512 19.1006 115.682 19.251 115.857 19.3961C116.007 19.5186 116.037 19.5895 115.957 19.7635C115.839 20.0203 115.716 20.275 115.577 20.5199C115.229 21.1366 114.862 21.7426 114.417 22.2959C114.165 22.6097 113.88 22.8954 113.617 23.2017C113.465 23.38 113.325 23.5691 113.187 23.7582C113.105 23.8689 113.13 23.9763 113.224 24.0698C113.239 24.0848 113.253 24.1042 113.271 24.1128C113.483 24.2202 113.585 24.3792 113.56 24.6285C113.549 24.7477 113.647 24.8101 113.787 24.7929C113.888 24.781 113.989 24.752 114.084 24.7155C114.375 24.6016 114.655 24.4566 114.975 24.434C115.374 24.4061 115.766 24.3986 116.106 24.6682C116.258 24.7896 116.371 24.9347 116.438 25.1163C116.512 25.3193 116.458 25.4762 116.26 25.5621C116.105 25.6298 115.939 25.6846 115.773 25.7201C115.529 25.7717 115.303 25.8533 115.111 26.0155C115.061 26.0564 115.008 26.0929 114.954 26.1273C114.814 26.2165 114.793 26.2734 114.866 26.4228C114.918 26.5302 114.982 26.6323 115.041 26.7376C115.11 26.86 115.123 26.9782 115.028 27.0964C114.937 27.2103 114.833 27.2597 114.68 27.2296C114.552 27.2049 114.45 27.191 114.499 27.0201C114.507 26.9933 114.48 26.9406 114.454 26.9256C114.429 26.9116 114.372 26.9181 114.35 26.9374C114.134 27.1372 113.933 27.062 113.741 26.9041C113.619 26.8042 113.501 26.6978 113.395 26.5828C113.304 26.484 113.198 26.4765 113.09 26.513C112.871 26.5861 112.654 26.6666 112.44 26.7547C111.817 27.0083 111.19 27.2565 110.574 27.5251C109.982 27.783 109.421 28.0978 108.939 28.5372C108.786 28.6779 108.753 28.7822 108.867 28.9928C109.055 29.3398 109.248 29.6847 109.454 30.021C109.904 30.7559 110.36 31.4875 110.822 32.216C110.945 32.4115 111.1 32.5867 111.239 32.7725C111.291 32.8435 111.361 32.9036 111.443 32.8628C111.494 32.837 111.536 32.7596 111.551 32.6984C111.629 32.3825 111.7 32.0645 111.766 31.7465C111.809 31.5413 111.839 31.3339 111.878 31.1276C111.904 30.9922 111.847 30.8869 111.77 30.7838C111.622 30.5807 111.633 30.5442 111.878 30.4959C112.238 30.4249 112.599 30.3777 112.958 30.5034C113.246 30.6044 113.436 30.8042 113.444 31.105C113.476 32.0849 113.468 33.0637 113.099 33.9963C113.031 34.1704 112.939 34.338 112.837 34.4948C112.709 34.6904 112.709 34.8687 112.846 35.0524C112.887 35.1072 112.929 35.162 112.975 35.2125C113.387 35.6616 113.801 36.1097 114.214 36.5588C114.243 36.5899 114.268 36.6243 114.294 36.6587C114.405 36.8059 114.459 36.8091 114.615 36.7113C114.711 36.6522 114.819 36.6114 114.924 36.5727C115.064 36.5212 115.16 36.4363 115.186 36.2848C115.212 36.1462 115.264 36.0291 115.417 35.955Z" fill="#EBE0CF"/>
<path d="M82.5414 20.2637C82.8035 20.297 83.1516 20.3389 83.4997 20.3872C83.5932 20.4001 83.6684 20.3926 83.7533 20.3389C83.9574 20.2089 84.1938 20.2078 84.427 20.2121C84.7665 20.2185 85.0856 20.3163 85.4004 20.4334C85.4423 20.4485 85.4939 20.4377 85.5411 20.4366C85.5884 20.4356 85.6378 20.4184 85.6808 20.4291C85.8882 20.4818 86.1009 20.5247 86.2986 20.6021C86.6113 20.7246 86.7176 21.1834 86.5081 21.4444C86.3308 21.6668 86.3244 21.8796 86.506 22.1106C86.5425 22.1579 86.6349 22.1879 86.6972 22.1826C86.867 22.1654 87.0346 22.1267 87.2022 22.0923C87.229 22.0869 87.2559 22.0655 87.2763 22.045C87.5879 21.7356 88.2197 21.8183 88.4378 22.1976C88.614 22.5038 88.5957 22.5425 88.2798 22.6961C87.8952 22.8831 87.5385 22.8637 87.1689 22.6403C87.0582 22.5737 86.8788 22.6048 86.7327 22.6145C86.5489 22.6263 86.3663 22.6596 86.1847 22.6865C86.0461 22.7069 85.9892 22.81 85.9451 22.9282C85.7292 23.4923 85.5186 24.0585 85.2929 24.6193C85.164 24.9417 85.0136 25.2554 84.8696 25.5702C84.7106 25.9183 84.7998 26.1224 85.1662 26.2374C86.0493 26.5146 86.9379 26.7789 87.8135 27.0765C88.2132 27.2119 88.5946 27.4085 88.9771 27.5912C89.2017 27.6986 89.3209 28.08 89.2285 28.354C89.134 28.6334 88.9341 28.8235 88.6774 28.9557C88.5592 29.0169 88.4388 28.9965 88.3464 28.8998C88.2723 28.8224 88.2046 28.7386 88.1455 28.6495C87.9962 28.4228 87.806 28.2466 87.5707 28.108C86.8347 27.6739 86.0687 27.314 85.2306 27.1302C84.9083 27.0604 84.5795 27.0228 84.2518 26.9831C84.1927 26.9755 84.1111 27.0196 84.066 27.0658C83.9102 27.2248 83.7641 27.3946 83.6169 27.5622C83.4589 27.7427 83.5191 28.1327 83.7372 28.2702C83.9005 28.3733 84.081 28.4464 84.2454 28.5463C84.4796 28.6881 84.7235 28.8214 84.9341 28.9933C85.3359 29.3231 85.4906 29.7873 85.5519 30.2847C85.6776 31.314 85.6668 32.3487 85.6432 33.3833C85.6292 33.9882 85.582 34.5921 85.5615 35.1969C85.553 35.4666 85.5626 35.7385 85.583 36.0071C85.6153 36.4272 85.5411 36.8236 85.3853 37.2136C85.3015 37.4231 85.2457 37.6455 85.1898 37.8647C85.0953 38.2375 85.2446 38.519 85.5454 38.7307C85.8441 38.9402 86.145 39.1465 86.449 39.3463C86.6123 39.4538 86.7327 39.5945 86.8208 39.7643C86.8949 39.9083 86.8637 40.0146 86.7294 40.107C86.4071 40.3294 86.1041 40.3262 85.8097 40.0705C85.0963 39.4506 84.3915 38.8231 83.6813 38.201C83.6007 38.1312 83.5105 38.0732 83.4235 38.0098C83.417 38.0044 83.4084 38.0012 83.4009 37.9969C83.2709 37.9141 83.1398 37.8174 83.1495 37.6498C83.1581 37.4865 83.3053 37.4264 83.4374 37.3705C83.5599 37.3189 83.6813 37.2652 83.806 37.2179C84.1165 37.0987 84.2529 36.8655 84.2701 36.5432C84.3217 35.5622 84.3818 34.5813 84.4302 33.5993C84.4699 32.7892 84.5097 31.9791 84.5237 31.1679C84.529 30.8531 84.4721 30.5372 84.4302 30.2235C84.4044 30.029 84.3131 29.8571 84.1831 29.7088C84.1261 29.6444 84.0692 29.5788 84.023 29.5069C83.8865 29.292 83.7125 29.1534 83.4417 29.1469C83.3654 29.1448 83.2924 29.0749 83.214 29.0438C83.1409 29.0148 83.0646 28.9804 82.9883 28.9761C82.6101 28.9514 82.2878 29.1039 81.9795 29.3016C81.8387 29.3919 81.7893 29.3822 81.6657 29.263C81.4143 29.0212 81.2865 29.0115 81.0071 29.2232C80.6053 29.5294 80.2335 29.8636 79.9488 30.2869C79.8876 30.3782 79.8005 30.4513 79.7221 30.5308C79.706 30.5469 79.6727 30.563 79.6533 30.5576C79.5362 30.5286 79.4933 30.6103 79.4696 30.6909C79.4191 30.8628 79.3783 31.039 79.3407 31.2141C79.3149 31.3344 79.3869 31.3849 79.4954 31.4032C79.9499 31.4805 80.4001 31.4784 80.8502 31.3656C81.0415 31.3183 81.2349 31.2786 81.4283 31.2388C81.4949 31.2248 81.5637 31.2152 81.6324 31.213C81.7452 31.2098 81.8666 31.2098 81.9204 31.3344C81.9741 31.4601 81.9569 31.5891 81.8795 31.7008C81.8269 31.7782 81.7699 31.862 81.6937 31.9125C81.6292 31.9565 81.5336 31.9791 81.4541 31.9726C80.933 31.935 80.4441 32.0801 79.9488 32.2069C79.7307 32.2627 79.5577 32.368 79.4073 32.5303C79.2988 32.6474 79.2451 32.7806 79.2397 32.9364C79.2354 33.0911 79.23 33.2458 79.2311 33.3995C79.2332 33.6691 79.3536 33.7755 79.6233 33.7314C79.8435 33.696 80.0605 33.6433 80.2787 33.5993C80.674 33.5209 81.0673 33.4328 81.4648 33.3694C81.8527 33.3071 82.1621 33.6767 82.0493 34.0452C82.0106 34.172 81.9279 34.245 81.799 34.2482C81.6808 34.2504 81.5561 34.2493 81.4433 34.2171C81.309 34.1795 81.1812 34.1741 81.0522 34.2171C80.7245 34.3267 80.3882 34.3331 80.0477 34.3331C79.8048 34.3331 79.5609 34.3621 79.3192 34.3944C79.1204 34.4212 79.0904 34.4943 79.1516 34.692C79.1956 34.8338 79.2225 34.981 79.2676 35.1228C79.3042 35.2378 79.2547 35.3087 79.1763 35.3807C79.0194 35.5246 79.0194 35.5365 79.1591 35.7008C79.2161 35.7685 79.1913 35.8212 79.1387 35.8674C79.0366 35.9555 78.9174 35.963 78.8013 35.9061C78.7175 35.8652 78.6445 35.8029 78.5703 35.7449C78.5499 35.7288 78.5263 35.6912 78.5317 35.6697C78.5617 35.5418 78.4822 35.4763 78.3952 35.4183C78.2609 35.328 78.19 35.2055 78.175 35.0444C78.1481 34.7618 78.1137 34.4814 78.2287 34.2074C78.2502 34.1558 78.2469 34.0688 78.2169 34.0258C77.9869 33.7046 77.9816 33.3533 78.0611 32.9901C78.2072 32.3293 78.3329 31.6632 78.5993 31.0357C78.7326 30.7209 78.9163 30.4373 79.1441 30.1827C79.2666 30.0462 79.4073 29.9431 79.591 29.8947C79.7705 29.8464 79.8177 29.7701 79.8167 29.5864C79.8156 29.4875 79.8091 29.3887 79.8027 29.2909C79.7919 29.1072 79.8478 28.9503 79.995 28.8364C80.1444 28.7215 80.298 28.6108 80.4538 28.5066C80.5741 28.426 80.5849 28.3927 80.5064 28.268C80.4559 28.1885 80.4065 28.108 80.3582 28.0274C80.3012 27.9318 80.3238 27.8566 80.4312 27.8297C80.7331 27.7523 81.035 27.6717 81.3413 27.6137C81.6356 27.5579 81.9343 27.5267 82.2319 27.4848C82.4017 27.4612 82.4909 27.3666 82.5285 27.1958C82.6015 26.8606 82.6091 26.8735 82.2685 26.8509C81.4068 26.795 80.5644 26.9111 79.7329 27.1238C79.6372 27.1485 79.5405 27.1711 79.4428 27.1818C79.2042 27.2098 78.9894 27.2979 78.7777 27.4085C78.3823 27.6159 77.9676 27.7609 77.5142 27.7631C77.2219 27.7652 77.0361 27.9468 76.8588 28.1456C76.7277 28.2928 76.6547 28.2863 76.5537 28.1166C76.4129 27.8813 76.3936 27.6578 76.5805 27.4289C76.8953 27.0432 77.2198 26.6629 77.5024 26.2535C77.7549 25.8882 77.9568 25.4875 78.1771 25.1007C78.2029 25.0545 78.2126 24.9954 78.2169 24.9406C78.234 24.7031 78.1266 24.6129 77.9053 24.6988C76.6052 25.206 75.2386 25.4681 73.8902 25.7969C73.512 25.8893 73.1424 26.0247 72.7459 26.0257C72.5826 26.0257 72.4182 26.0376 72.256 26.0247C72.1475 26.0161 72.0357 25.9881 71.9369 25.9441C71.7102 25.842 71.4921 25.7217 71.2675 25.6142C71.1386 25.5519 71.0634 25.4531 71.0172 25.3209C70.9785 25.2103 71.0054 25.1243 71.0946 25.0609C71.188 24.9943 71.2589 25.0545 71.3331 25.1136C71.4104 25.1759 71.4942 25.2414 71.5866 25.2726C71.6576 25.2962 71.7553 25.2919 71.823 25.2608C72.2184 25.077 72.6439 25.0609 73.064 25.0072C74.494 24.8256 75.9241 24.6419 77.2993 24.1842C77.5797 24.0907 77.8548 23.9811 78.1352 23.8909C78.2695 23.8479 78.4113 23.8329 78.5499 23.8017C78.8089 23.7448 78.9808 23.5933 79.0742 23.3408C79.2343 22.9078 79.3471 22.4651 79.3665 22.0031C79.3783 21.7292 79.3794 21.4552 79.3794 21.1801C79.3794 20.9857 79.4653 20.9255 79.6362 21.0179C79.7457 21.077 79.8521 21.1425 79.952 21.2167C80.1132 21.3359 80.2174 21.4939 80.2507 21.6959C80.2926 21.9537 80.3721 22.2116 80.2883 22.4705C80.2335 22.6403 80.1487 22.8014 80.0713 22.9637C79.9391 23.2441 80.0036 23.3505 80.313 23.3666C80.6601 23.3848 81.006 23.4214 81.3498 23.3365C81.6184 23.2699 81.8462 23.1624 81.958 22.882C82.1385 22.4286 82.3362 21.9817 82.5134 21.5272C82.5962 21.3144 82.5349 21.2285 82.3093 21.1597C82.1245 21.1028 81.9429 21.0372 81.7592 20.9792C81.6195 20.9352 81.5991 20.8116 81.568 20.6988C81.5389 20.5935 81.6217 20.5462 81.6797 20.4753C81.8914 20.2175 82.1836 20.3013 82.5414 20.2637ZM82.521 26.2707C82.9325 26.2836 83.113 26.232 83.3085 26.0247C83.474 25.8485 83.6383 25.6583 83.7501 25.4456C84.0982 24.7869 84.4216 24.1144 84.7525 23.4461C84.8224 23.3043 84.7751 23.199 84.6193 23.17C84.5548 23.1581 84.4796 23.1871 84.413 23.2076C84.3034 23.2409 84.1992 23.3064 84.0885 23.3161C83.807 23.3419 83.5245 23.3526 83.2419 23.3558C82.8551 23.3591 82.5736 23.4944 82.4919 23.907C82.4898 23.9156 82.4855 23.9231 82.4823 23.9306C82.1954 24.4818 81.9118 25.0341 81.6195 25.582C81.5078 25.7926 81.5282 25.899 81.728 26.0354C82.0052 26.2256 82.3233 26.2589 82.521 26.2707ZM79.821 26.2804C79.9929 26.3158 80.1648 26.3491 80.3345 26.3889C80.4806 26.4222 80.544 26.4039 80.6042 26.2675C80.6977 26.0558 80.7879 25.8431 80.8664 25.6261C80.9921 25.2801 81.107 24.9309 81.2263 24.5817C81.294 24.383 81.367 24.1864 81.4229 23.9844C81.4401 23.9231 81.4089 23.849 81.3993 23.7802C81.3284 23.792 81.2542 23.7931 81.1887 23.8178C81.1017 23.8511 81.0254 23.9124 80.9383 23.9468C80.4678 24.1294 79.995 24.3099 79.5223 24.4872C79.3751 24.5431 79.2676 24.6365 79.2397 24.7934C79.201 25.0072 79.0828 25.1608 78.9313 25.3123C78.8282 25.4166 78.7358 25.5616 78.7068 25.7023C78.667 25.8968 78.6509 26.0859 78.5166 26.2492C78.4296 26.3545 78.4822 26.4523 78.6219 26.4534C78.753 26.4534 78.8862 26.4351 79.0162 26.4158C79.2827 26.3739 79.5481 26.3255 79.821 26.2804ZM83.3375 22.9024C83.3773 22.8971 83.4364 22.8992 83.4858 22.8799C83.7608 22.7735 84.0402 22.6746 84.3045 22.5468C84.5806 22.4125 84.8653 22.2771 85.1028 22.0869C85.4423 21.8151 85.4251 21.6851 85.1157 21.3811C84.99 21.2586 84.8514 21.1877 84.6676 21.1963C84.4366 21.2081 84.2046 21.2027 83.9736 21.2006C83.8178 21.1984 83.6964 21.25 83.6255 21.3939C83.4321 21.785 83.2387 22.1761 83.0463 22.5672C82.9604 22.7413 83.0141 22.8498 83.2054 22.8906C83.243 22.8992 83.2827 22.8981 83.3375 22.9024Z" fill="#EBE0CF"/>
<path d="M122.796 37.0259C122.904 36.9453 122.984 36.8863 123.062 36.8282C124.316 35.8924 125.43 34.8169 126.357 33.5513C126.991 32.6842 127.431 31.7226 127.79 30.7148C128.303 29.273 128.778 27.8203 129.126 26.3291C129.132 26.3043 129.134 26.2786 129.139 26.2367C129.039 26.2442 128.947 26.2528 128.853 26.256C128.352 26.2764 127.85 26.3076 127.348 26.3097C127.188 26.3097 127.068 26.3323 126.938 26.4333C126.731 26.5944 126.473 26.6256 126.217 26.632C125.684 26.6449 125.163 26.5934 124.674 26.3559C124.535 26.2882 124.386 26.2453 124.243 26.1872C123.927 26.0583 123.673 25.8037 123.583 25.5211C123.712 25.5061 123.838 25.4932 123.964 25.4771C124.989 25.3427 126.016 25.2203 127.038 25.0677C127.783 24.957 128.524 24.8045 129.267 24.6766C129.406 24.653 129.46 24.5993 129.48 24.4521C129.581 23.6967 129.601 22.9393 129.604 22.1786C129.607 21.6511 129.629 21.1235 129.645 20.5949C129.658 20.1899 129.643 19.788 129.55 19.3926C129.529 19.3067 129.497 19.2207 129.454 19.1434C129.266 18.8017 129.075 18.4611 128.879 18.1238C128.833 18.0443 128.837 17.9916 128.893 17.9207C129.372 17.3072 130.062 17.2234 130.714 17.7434C131.096 18.0475 131.441 18.3988 131.788 18.7437C132.039 18.994 132.121 19.3293 132.114 19.6677C132.102 20.3059 132.072 20.9452 132.024 21.5823C131.979 22.1807 131.903 22.777 131.837 23.3733C131.81 23.6162 131.776 23.8579 131.743 24.1158C131.787 24.1125 131.824 24.1147 131.859 24.1072C133.355 23.7655 134.85 23.4174 136.32 22.9747C137.107 22.7373 137.851 22.3924 138.558 21.9723C138.611 21.9401 138.657 21.8713 138.676 21.809C138.728 21.6317 138.839 21.5415 139.01 21.607C139.501 21.7929 139.93 22.0712 140.207 22.5332C140.314 22.7115 140.322 22.9049 140.243 23.1026C140.202 23.2057 140.166 23.3121 140.146 23.4217C140.123 23.5442 140.059 23.6194 139.947 23.6677C139.201 23.9901 138.437 24.2533 137.644 24.4359C135.735 24.8743 133.827 25.3202 131.919 25.7628C131.823 25.7854 131.728 25.8155 131.63 25.8273C131.504 25.8413 131.467 25.909 131.447 26.0261C131.213 27.4035 130.934 28.7712 130.497 30.1024C130.308 30.6783 130.043 31.2209 129.781 31.7656C129.438 32.4758 129.103 33.1903 128.775 33.908C128.263 35.0318 127.456 35.8462 126.311 36.3297C125.821 36.5371 125.347 36.7874 124.821 36.8863C124.46 36.9539 124.089 36.9765 123.723 37.0077C123.471 37.0292 123.217 37.0313 122.965 37.0399C122.922 37.0367 122.88 37.0313 122.796 37.0259Z" fill="#EBE0CF"/>
<path d="M155.655 21.0298C155.687 20.7536 155.551 20.6107 155.393 20.4775C155.298 20.3969 155.293 20.2787 155.274 20.1627C155.201 19.72 155.181 19.2731 155.216 18.8283C155.256 18.3287 155.326 17.8312 155.376 17.3316C155.478 16.3292 155.649 15.3332 155.592 14.319C155.59 14.2803 155.59 14.2405 155.597 14.204C155.64 13.9902 155.755 13.944 155.93 14.0676C155.958 14.0869 155.984 14.1105 156.013 14.1288C156.411 14.3802 156.54 14.7391 156.449 15.1903C156.419 15.3407 156.4 15.4944 156.374 15.6459C156.357 15.7469 156.383 15.8081 156.499 15.8242C156.73 15.8565 156.918 15.7909 157.048 15.5964C157.141 15.4568 157.255 15.373 157.427 15.3429C157.581 15.3149 157.724 15.2344 157.875 15.1871C158.036 15.1366 158.19 15.1978 158.278 15.3343C158.338 15.4278 158.341 15.518 158.263 15.605C158.178 15.6985 158.106 15.7898 157.95 15.7931C157.798 15.7963 157.683 15.9091 157.579 16.0251C157.52 16.0907 157.435 16.1594 157.353 16.1745C157.099 16.2196 156.918 16.3614 156.752 16.5441C156.284 17.0598 156.03 17.6658 156 18.3598C155.986 18.6843 155.965 19.0131 156 19.3343C156.04 19.6975 156.341 19.8157 156.657 19.6319C156.693 19.6105 156.779 19.6201 156.807 19.6491C156.9 19.7437 156.978 19.8522 157.056 19.9596C157.16 20.1004 157.272 20.2239 157.443 20.2863C157.586 20.3389 157.654 20.4431 157.657 20.6032C157.659 20.716 157.703 20.8288 157.726 20.9417C157.746 21.0448 157.806 21.0846 157.91 21.0738C157.964 21.0674 158.02 21.0727 158.116 21.0727C158.078 21.1522 158.063 21.2242 158.019 21.2683C157.856 21.4337 157.807 21.6368 157.804 21.8571C157.801 22.059 157.79 22.2621 157.806 22.462C157.856 23.055 157.703 23.6191 157.587 24.1896C157.511 24.5624 157.451 24.9395 157.39 25.3145C157.361 25.4896 157.477 25.6025 157.592 25.7078C157.609 25.7239 157.657 25.7249 157.682 25.7131C158.178 25.4746 158.721 25.4316 159.253 25.3382C159.469 25.3006 159.688 25.2339 159.881 25.1329C160.185 24.9739 160.345 24.5775 160.285 24.239C160.261 24.1069 160.165 24.0596 160.053 24.0274C159.848 23.9683 159.637 23.921 159.435 23.8501C158.931 23.6707 158.776 23.4601 158.771 22.9218C158.769 22.6145 158.81 22.3072 158.826 21.9989C158.836 21.8152 158.845 21.6304 158.839 21.4456C158.831 21.2189 158.759 21.1598 158.543 21.2178C158.396 21.2575 158.359 21.1608 158.296 21.076C158.23 20.9846 158.312 20.9427 158.355 20.8933C158.463 20.7697 158.595 20.6849 158.764 20.672C159.088 20.6473 159.413 20.6097 159.738 20.6032C159.98 20.5978 160.05 20.7171 160.04 20.9599C160.032 21.1866 159.953 21.3843 159.86 21.5831C159.715 21.8904 159.599 22.2084 159.58 22.5522C159.576 22.6317 159.582 22.7166 159.604 22.7929C159.668 23.026 159.835 23.1528 160.05 23.1464C160.369 23.1367 160.494 23.0518 160.56 22.78C160.59 22.6553 160.61 22.5264 160.616 22.3986C160.665 21.4735 160.718 20.5473 160.752 19.6212C160.772 19.1109 160.759 18.5994 160.62 18.102C160.582 17.9623 160.527 17.8259 160.462 17.6958C160.371 17.5121 160.255 17.4627 160.051 17.4971C159.704 17.5562 159.398 17.713 159.124 17.9236C158.596 18.3287 158.079 18.7477 157.559 19.1635C157.396 19.2935 157.303 19.2914 157.197 19.1506C157.33 18.9551 157.464 18.7627 157.593 18.5672C157.821 18.2223 158.105 17.9311 158.459 17.7152C158.898 17.4477 159.335 17.1758 159.79 16.9362C160.188 16.7267 160.622 16.7514 161.047 16.8632C161.396 16.9556 161.585 17.178 161.595 17.5368C161.608 18.0461 161.601 18.5575 161.588 19.0668C161.575 19.6072 161.525 20.1477 161.526 20.687C161.529 21.4993 161.381 22.2804 161.121 23.0454C161.1 23.1098 161.087 23.1775 161.068 23.2441C161.045 23.3312 161.039 23.4053 161.131 23.4687C161.216 23.5267 161.206 23.6148 161.155 23.6975C161.061 23.8512 160.959 24.0005 160.876 24.1606C160.839 24.2304 160.826 24.3228 160.833 24.4023C160.856 24.6355 160.889 24.8686 160.93 25.0996C160.938 25.1469 160.99 25.1974 161.034 25.2243C161.125 25.2812 161.116 25.3328 161.048 25.3962C161.041 25.4015 161.035 25.408 161.028 25.4123C160.72 25.5595 160.618 25.8388 160.534 26.1407C160.444 26.462 160.324 26.7746 160.226 27.0938C160.14 27.3742 159.935 27.4999 159.665 27.53C159.592 27.5386 159.486 27.501 159.438 27.4472C159.339 27.3333 159.249 27.2023 159.187 27.0647C159.094 26.8585 159.022 26.6425 158.95 26.4276C158.902 26.289 158.814 26.2117 158.676 26.1665C158.345 26.058 158.011 26.0859 157.683 26.1515C156.83 26.3223 155.981 26.5103 155.129 26.6887C154.915 26.7338 154.699 26.7714 154.483 26.8069C154.391 26.8219 154.334 26.8552 154.307 26.9573C154.271 27.097 154.218 27.2356 154.153 27.3656C154.066 27.5396 153.971 27.5514 153.839 27.415C153.746 27.3194 153.661 27.2173 153.569 27.112C153.553 27.1195 153.531 27.1249 153.516 27.1378C153.275 27.3538 152.972 27.4139 152.666 27.4719C152.536 27.4967 152.407 27.5321 152.279 27.5643C152.037 27.6245 151.799 27.6363 151.559 27.5504C151.476 27.5214 151.381 27.5138 151.293 27.516C151.109 27.5203 151.109 27.5257 150.975 27.3699C151.019 27.3205 151.055 27.2538 151.111 27.2216C151.247 27.141 151.252 27.0228 151.236 26.8907C151.22 26.7596 151.216 26.6242 151.185 26.4964C151.164 26.4136 151.101 26.3427 151.064 26.2632C151.014 26.1493 150.94 26.0333 150.931 25.914C150.916 25.697 150.933 25.4768 150.953 25.2586C150.972 25.0448 150.922 24.8504 150.825 24.6666C150.73 24.4883 150.724 24.3024 150.782 24.1176C150.897 23.7512 150.874 23.3859 150.753 23.0314C150.573 22.5092 150.371 21.9946 150.181 21.4767C150.163 21.4262 150.143 21.3703 150.146 21.3177C150.153 21.1963 150.222 21.1372 150.336 21.1759C150.678 21.2887 151.026 21.3983 151.305 21.6368C151.547 21.8431 151.615 22.1439 151.689 22.4351C151.912 23.3043 151.995 24.1885 152.002 25.0846C152.008 25.6938 152.051 26.3019 152.078 26.9111C152.08 26.9562 152.092 27.0014 152.102 27.0604C152.158 27.0454 152.207 27.0422 152.246 27.0218C152.572 26.8509 152.897 26.678 153.222 26.505C153.292 26.4674 153.306 26.4212 153.284 26.3363C153.024 25.3113 152.761 24.2874 152.517 23.2581C152.416 22.8326 152.449 22.3964 152.511 21.9645C152.607 21.2812 152.708 20.5989 152.802 19.9156C152.83 19.7114 152.838 19.5052 152.857 19.301C152.858 19.2881 152.858 19.2752 152.86 19.2623C152.889 19.1442 152.915 19.0099 153.048 18.9787C153.177 18.9486 153.244 19.0647 153.306 19.156C153.638 19.6502 153.64 19.6115 153.477 20.1434C153.309 20.6913 153.296 21.2672 153.26 21.8356C153.229 22.3051 153.252 22.7692 153.368 23.228C153.487 23.7007 153.729 24.1133 154.018 24.5538C154.096 24.4475 154.162 24.3583 154.228 24.2702C154.247 24.2788 154.266 24.2863 154.284 24.2949C154.284 24.3927 154.289 24.4915 154.283 24.5893C154.269 24.8547 154.238 25.1201 154.24 25.3854C154.242 25.6422 154.261 25.9001 154.297 26.1536C154.333 26.4051 154.368 26.4255 154.608 26.3309C154.897 26.216 155.178 26.0784 155.46 25.9441C155.523 25.914 155.575 25.8571 155.636 25.8088C155.564 25.7121 155.49 25.6293 155.433 25.5358C155.086 24.9718 154.991 24.3551 155.063 23.7061C155.102 23.3569 155.125 23.0045 155.187 22.6596C155.268 22.2116 155.451 21.7947 155.664 21.3875C155.648 21.4842 155.633 21.5809 155.617 21.6787C155.602 21.7765 155.587 21.8732 155.572 21.9709C155.479 22.5898 155.475 23.2108 155.56 23.8297C155.58 23.9747 155.658 24.1241 155.745 24.2466C155.884 24.441 156.044 24.6237 156.212 24.7934C156.4 24.9836 156.621 24.9449 156.702 24.6924C156.794 24.4002 156.853 24.0961 156.901 23.7931C156.955 23.4375 157.014 23.0776 157.014 22.7198C157.014 22.1805 156.969 21.6411 156.933 21.1028C156.919 20.904 156.801 20.7902 156.593 20.7397C156.383 20.6881 156.204 20.6859 156.026 20.8256C155.93 20.9019 155.808 20.9481 155.655 21.0298Z" fill="#EBE0CF"/>
<path d="M100.064 28.4627C100.056 28.3736 100.063 28.2801 100.039 28.1952C99.997 28.0469 100.034 27.9298 100.128 27.8149C100.269 27.6419 100.4 27.4635 100.608 27.3582C100.73 27.297 100.837 27.2948 100.947 27.369C101.071 27.4539 101.195 27.5387 101.314 27.6311C101.432 27.7225 101.565 27.7354 101.67 27.644C101.822 27.5108 101.988 27.37 102.085 27.1971C102.655 26.1839 103.219 25.1686 103.761 24.1393C104.158 23.384 104.37 22.5577 104.562 21.7315C104.612 21.5188 104.684 21.3265 104.875 21.2072C104.938 21.1675 105.033 21.1256 105.092 21.146C105.136 21.1621 105.171 21.277 105.167 21.3447C105.149 21.6262 105.129 21.9099 105.083 22.1881C104.852 23.5741 104.275 24.8387 103.669 26.0893C103.35 26.748 103.109 27.4334 102.88 28.1243C102.796 28.3778 102.855 28.582 103.056 28.7593C103.356 29.0246 103.63 29.3137 103.837 29.6607C104.058 30.0324 104.071 30.3967 103.825 30.7598C103.167 31.7343 102.528 32.7239 101.84 33.6758C101.369 34.3247 100.829 34.9221 100.315 35.5399C99.9476 35.9826 99.5694 36.4166 99.2052 36.8625C99.0666 37.0312 98.9613 37.2267 98.8237 37.3965C98.6454 37.6146 98.4713 37.8445 98.2575 38.0229C97.8654 38.3495 97.2164 38.3957 96.835 37.8939C96.618 37.6081 96.4181 37.3073 96.2355 36.9979C96.098 36.7647 96.1141 36.5026 96.2 36.249C96.2602 36.0707 96.3268 35.8934 96.3966 35.7182C96.4547 35.5721 96.4471 35.4314 96.4203 35.2777C96.3805 35.0478 96.3483 34.8114 96.3526 34.5783C96.3752 33.4985 96.5954 32.4413 96.7458 31.3765C96.8554 30.5997 96.9747 29.8251 97.1143 29.0537C97.2497 28.308 97.4915 27.5925 97.8353 26.9166C97.9524 26.6856 98.1211 26.4804 98.2736 26.2688C98.3091 26.2204 98.3693 26.1807 98.4273 26.1592C98.5616 26.1087 98.6701 26.2 98.6164 26.3289C98.4423 26.7415 98.4606 27.1842 98.3875 27.6129C98.1641 28.9118 98.2081 30.2215 98.1877 31.5291C98.1769 32.1952 98.1125 32.856 98.0179 33.5146C97.9685 33.8584 97.9481 34.2055 97.903 34.5504C97.8772 34.7491 97.8288 34.9457 97.7912 35.1434C97.7826 35.1896 97.773 35.2369 97.7719 35.2831C97.7708 35.426 97.874 35.4948 97.9932 35.4174C98.1071 35.3433 98.2135 35.253 98.308 35.1542C98.7732 34.6718 99.2224 34.1732 99.6983 33.7026C100.386 33.0236 101.092 32.3639 101.79 31.6967C102.188 31.3174 102.588 30.9425 102.981 30.5578C103.044 30.4955 103.069 30.3924 103.111 30.3075C103.023 30.272 102.938 30.2258 102.847 30.2033C102.757 30.1807 102.659 30.1882 102.566 30.1732C102.414 30.1485 102.287 30.2129 102.194 30.3118C102.113 30.3988 102.03 30.3913 101.94 30.3806C101.705 30.3515 101.473 30.3161 101.239 30.2828C101.061 30.257 100.925 30.1571 100.831 30.0142C100.648 29.7402 100.479 29.4555 100.303 29.1761C100.247 29.087 100.169 29.0053 100.133 28.9086C100.081 28.7679 100.058 28.6153 100.023 28.4681C100.039 28.4681 100.052 28.4649 100.064 28.4627Z" fill="#EBE0CF"/>
<path d="M153.874 38.5392C153.94 38.5983 154.023 38.6456 154.069 38.7176C154.356 39.1581 154.803 39.3912 155.247 39.6244C155.431 39.7222 155.627 39.677 155.81 39.5653C157.06 38.8003 157.735 37.6582 157.994 36.2432C158.015 36.1229 158.034 36.0015 158.059 35.8478C157.735 35.8876 157.438 35.9187 157.143 35.9617C156.301 36.0842 155.562 36.4688 154.85 36.904C154.403 37.1769 154.108 37.5991 153.839 38.0375C153.797 38.1052 153.787 38.1922 153.752 38.2642C153.699 38.3738 153.648 38.3748 153.578 38.2749C153.405 38.0267 153.409 37.7592 153.465 37.4745C153.585 36.8588 154.002 36.5 154.516 36.2174C155.089 35.9037 155.71 35.7232 156.334 35.5459C156.619 35.4653 156.903 35.3837 157.182 35.2859C157.3 35.2451 157.409 35.1709 157.512 35.0979C157.589 35.0442 157.598 34.9722 157.529 34.8905C157.309 34.6316 157.097 34.3684 156.883 34.1051C156.774 33.9719 156.658 33.844 156.566 33.7001C156.382 33.4186 156.386 33.1886 156.6 32.9308C156.882 32.5902 157.166 32.2485 157.48 31.9391C157.892 31.533 158.048 31.0097 158.218 30.4886C158.233 30.4435 158.22 30.3662 158.189 30.3382C158.16 30.3114 158.083 30.3157 158.038 30.3339C157.948 30.3705 157.864 30.4253 157.779 30.4747C157.392 30.7046 157.004 30.9345 156.62 31.1677C156.473 31.2568 156.332 31.3546 156.189 31.4492C156.085 31.5179 155.979 31.5845 155.879 31.6576C155.487 31.9466 155.047 31.5319 155.058 31.1935C155.065 30.9947 155.115 30.8346 155.296 30.7014C156.218 30.0245 157.247 29.5969 158.353 29.3358C158.586 29.281 158.821 29.2316 159.052 29.1671C159.186 29.1295 159.305 29.1424 159.42 29.2133C159.485 29.2541 159.555 29.2896 159.614 29.3379C159.818 29.5013 159.858 29.6871 159.709 29.9009C159.408 30.3296 159.108 30.7594 158.781 31.1677C158.411 31.6297 158.009 32.0659 157.624 32.5171C157.519 32.6407 157.418 32.7718 157.336 32.9104C157.281 33.0038 157.246 33.1156 157.231 33.223C157.209 33.3767 157.27 33.4476 157.414 33.5002C157.619 33.5754 157.829 33.6077 158.046 33.5744C158.506 33.5034 158.848 33.6743 159.094 34.0643C159.236 34.2888 159.335 34.5274 159.373 34.7906C159.401 34.9775 159.481 35.0721 159.672 35.0818C159.963 35.0947 160.255 35.0861 160.547 35.0785C161.157 35.0624 161.766 35.0796 162.369 35.1838C162.569 35.2182 162.731 35.3192 162.839 35.4922C162.978 35.7135 163.11 35.9402 163.244 36.1648C163.262 36.1938 163.275 36.226 163.285 36.2593C163.344 36.4345 163.281 36.5269 163.098 36.4978C162.726 36.4398 162.355 36.37 161.985 36.298C161.379 36.1798 160.777 36.0466 160.168 35.9413C159.979 35.908 159.774 35.9263 159.582 35.9563C159.471 35.9735 159.365 36.053 159.269 36.1218C159.179 36.1863 159.147 36.2776 159.168 36.4022C159.264 36.9469 159.184 37.4573 158.862 37.9236C158.721 38.1277 158.617 38.3566 158.492 38.5715C158.338 38.8379 158.144 39.0743 157.886 39.2473C157.498 39.5073 157.12 39.792 156.706 40.0004C156.141 40.283 155.556 40.2755 154.997 39.9381C154.777 39.8049 154.551 39.6803 154.329 39.5513C154.162 39.4546 154.049 39.315 153.988 39.1312C153.948 39.0044 153.9 38.8809 153.863 38.753C153.845 38.6939 153.843 38.6306 153.834 38.5682C153.847 38.5596 153.861 38.55 153.874 38.5392Z" fill="#EBE0CF"/>
<path d="M77.4854 18.0994C77.9839 17.9683 78.4427 17.849 78.9014 17.7255C79.5053 17.5622 80.1091 17.3978 80.7118 17.2302C80.7591 17.2173 80.8042 17.1872 80.8418 17.1539C81.2383 16.8015 81.5359 16.3739 81.7809 15.9065C81.8528 15.7701 81.8851 15.6315 81.8561 15.4735C81.8109 15.2253 81.783 14.9739 81.7476 14.7236C81.7465 14.7193 81.7465 14.715 81.7465 14.7107C81.7433 14.5753 81.6928 14.4152 81.8303 14.3303C81.9807 14.2379 82.1612 14.2283 82.3234 14.3131C82.4749 14.3927 82.6135 14.4958 82.7597 14.586C82.909 14.6784 83.0626 14.7655 83.212 14.8568C83.3699 14.9535 83.4344 15.1007 83.4677 15.2801C83.5332 15.6336 83.4516 15.9473 83.2743 16.2514C83.1411 16.4792 83.0272 16.7198 82.8918 16.9809C83.0745 16.9551 83.2292 16.9326 83.385 16.9122C84.4862 16.7671 85.5864 16.6113 86.6888 16.4813C87.3066 16.4093 87.9287 16.3567 88.5497 16.3395C89.2717 16.3202 89.9958 16.3782 90.6878 16.5952C91.052 16.7091 91.3657 16.9444 91.6182 17.2399C91.7912 17.4429 91.7783 17.6557 91.5774 17.8329C91.2669 18.1069 90.9048 18.2627 90.4815 18.2143C90.3235 18.1961 90.1849 18.2272 90.0485 18.2971C89.3856 18.6377 88.7237 18.9815 88.0565 19.3156C87.9491 19.3693 87.8223 19.3919 87.7009 19.4048C87.645 19.4112 87.5827 19.3586 87.5225 19.3328C87.5472 19.2769 87.558 19.205 87.5999 19.1684C87.7148 19.0664 87.8406 18.9761 87.9684 18.888C88.1027 18.7956 88.2413 18.7086 88.3821 18.6269C88.8741 18.3411 89.2373 17.9296 89.5338 17.4537C89.5693 17.3967 89.6101 17.2946 89.5843 17.2613C89.5489 17.2141 89.4533 17.1883 89.3845 17.1904C88.5647 17.2141 87.7417 17.2076 86.9273 17.285C86.1698 17.357 85.4199 17.516 84.6678 17.6471C84.064 17.7523 83.4623 17.8738 82.894 18.1166C82.7919 18.1606 82.6877 18.2036 82.591 18.2584C82.1913 18.4883 81.7755 18.6774 81.335 18.816C81.2265 18.8504 81.1319 18.9235 81.0266 18.9697C80.9353 19.0094 80.8364 19.0674 80.743 19.0631C80.353 19.0449 79.963 19.0169 79.5762 18.9707C79.4225 18.9525 79.271 18.888 79.126 18.8257C78.6296 18.613 78.1364 18.3916 77.6422 18.1735C77.6014 18.1574 77.5606 18.1359 77.4854 18.0994Z" fill="#EBE0CF"/>
<path d="M97.62 22.5547C97.6221 22.5193 97.6221 22.4591 97.6296 22.3989C97.6468 22.2496 97.6028 22.1228 97.5082 22.0057C97.3911 21.8617 97.3965 21.7758 97.4964 21.6232C97.635 21.4137 97.8166 21.2525 98.0433 21.1494C98.0938 21.1258 98.1851 21.1311 98.2281 21.1634C98.3484 21.2525 98.4591 21.3557 98.5601 21.4663C98.6009 21.5115 98.6288 21.592 98.6235 21.6533C98.5934 22.0455 98.6868 22.4161 98.7792 22.7922C98.8781 23.1972 99.1478 23.3863 99.5227 23.4594C99.6807 23.4905 99.8472 23.4787 100.009 23.4776C100.117 23.4766 100.196 23.4218 100.235 23.3165C100.415 22.8351 100.598 22.3549 100.772 21.8725C101.155 20.8131 101.404 19.7204 101.554 18.6052C101.569 18.4956 101.619 18.3924 101.639 18.2829C101.654 18.2012 101.666 18.112 101.647 18.0336C101.593 17.8155 101.476 17.7725 101.276 17.8821C101.024 18.0196 100.771 18.1571 100.521 18.2968C100.206 18.472 99.8698 18.4956 99.5217 18.4505C99.3691 18.4311 99.2144 18.415 99.0629 18.3871C98.935 18.3634 98.9189 18.3183 98.9791 18.2098C99.1037 17.9874 99.2638 17.823 99.5227 17.7371C99.8751 17.6189 100.211 17.4523 100.554 17.3041C100.932 17.1408 101.185 16.8378 101.417 16.5154C101.516 16.3779 101.633 16.2576 101.811 16.2608C102.143 16.2673 102.476 16.3006 102.757 16.4983C102.91 16.6068 103.05 16.7378 103.176 16.8775C103.232 16.9398 103.253 17.0473 103.262 17.1365C103.283 17.3406 103.294 17.5458 103.297 17.751C103.298 17.8337 103.277 17.9219 103.246 17.9981C103.064 18.4419 102.874 18.8835 102.691 19.3261C102.478 19.8397 102.416 20.3855 102.365 20.9324C102.342 21.1666 102.323 21.4019 102.311 21.6382C102.301 21.8402 102.41 21.9316 102.607 21.8972C102.654 21.8897 102.7 21.8778 102.745 21.866C102.929 21.8188 102.96 21.8392 103.033 22.0175C103.193 22.4086 103.171 22.775 102.916 23.1242C102.741 23.3638 102.574 23.4443 102.285 23.3648C102.13 23.3219 102.007 23.3498 101.872 23.4304C101.446 23.6872 101.018 23.9429 100.535 24.0825C100.181 24.1846 99.9256 24.4435 99.6302 24.6402C99.5066 24.7218 99.5109 24.8389 99.6001 24.9646C99.6345 25.0141 99.6699 25.0635 99.6946 25.1172C99.7623 25.2644 99.7129 25.3504 99.5496 25.3589C99.2026 25.3761 98.9017 25.2547 98.6363 25.0366C98.3377 24.7917 98.14 24.4726 97.9702 24.132C97.7285 23.642 97.6253 23.122 97.62 22.5547Z" fill="#EBE0CF"/>
<path d="M133.666 33.5433C133.955 33.5314 134.232 33.5142 134.509 33.511C135.312 33.5014 136.116 33.4874 136.918 33.4938C138.622 33.5078 140.254 33.8731 141.817 34.5457C142.114 34.6735 142.389 34.853 142.669 35.0195C142.984 35.2075 143.154 35.9521 143.065 36.2626C142.997 36.4979 142.879 36.5656 142.635 36.5495C142.387 36.5333 142.138 36.5473 141.89 36.5398C141.457 36.5258 141.023 36.5258 140.593 36.4829C140.103 36.4345 139.623 36.4678 139.149 36.5817C138.633 36.7063 138.123 36.8567 137.608 36.9889C137.395 37.0437 137.226 36.9674 137.134 36.7998C137.104 36.7439 137.098 36.7031 137.156 36.6558C137.432 36.4302 137.703 36.1981 137.98 35.9747C138.027 35.937 138.096 35.9242 138.156 35.9037C138.557 35.7662 138.617 35.5309 138.325 35.229C138.205 35.1055 138.081 34.9873 137.958 34.8659C137.623 34.5339 137.212 34.3791 136.75 34.3222C136.205 34.2556 135.664 34.16 135.12 34.0987C134.663 34.0482 134.24 33.915 133.847 33.6829C133.795 33.6528 133.744 33.6195 133.695 33.5862C133.686 33.583 133.682 33.569 133.666 33.5433Z" fill="#EBE0CF"/>
<path d="M81.4537 35.8223C81.6063 35.8395 81.7309 35.9394 81.8491 36.0457C82.0016 36.1833 82.1499 36.3251 82.3003 36.4648C82.4035 36.5604 82.4056 36.6195 82.2842 36.6968C82.0618 36.8387 81.8265 36.9525 81.5536 36.9525C81.4494 36.9525 81.3634 36.9848 81.3205 37.0815C81.1711 37.421 80.8853 37.6369 80.5942 37.8271C80.0763 38.1656 79.6068 38.5534 79.1802 38.9993C78.9052 39.2873 78.5764 39.5086 78.2218 39.6859C78.1348 39.7288 78.0242 39.7503 77.9275 39.7417C77.676 39.7181 77.4257 39.6816 77.1786 39.6311C77.0217 39.5988 77.0088 39.5322 77.1141 39.4087C77.3365 39.1465 77.5654 38.894 77.8727 38.7232C78.0231 38.6394 78.1842 38.5545 78.253 38.3729C78.2637 38.3439 78.311 38.3128 78.3433 38.3095C78.6119 38.2816 78.8181 38.1226 79.0341 37.9861C79.2082 37.8765 79.3704 37.7487 79.5369 37.6284C79.5649 37.6079 79.6025 37.594 79.6186 37.5671C79.6594 37.4973 79.7142 37.421 79.7142 37.3469C79.7142 37.3103 79.61 37.2588 79.5455 37.2405C79.264 37.1642 78.9793 37.103 78.6978 37.0278C78.4668 36.9665 78.2938 36.743 78.2949 36.5013C78.2949 36.4572 78.3594 36.3842 78.4056 36.3734C78.6011 36.3294 78.802 36.3047 78.9997 36.2703C79.625 36.1629 80.2503 36.0576 80.8746 35.9469C81.0658 35.9157 81.2517 35.8674 81.4537 35.8223Z" fill="#EBE0CF"/>
<path d="M162.866 25.474C162.447 25.4482 162.028 25.4224 161.608 25.3945C161.571 25.3924 161.521 25.3881 161.5 25.3644C161.456 25.3161 161.42 25.257 161.399 25.1957C161.395 25.1828 161.459 25.1345 161.498 25.1173C161.907 24.9314 162.334 24.7799 162.785 24.795C163.242 24.8111 163.698 24.8745 164.152 24.9422C164.284 24.9615 164.422 25.0421 164.523 25.1334C164.722 25.3096 164.897 25.5105 165.08 25.7039C165.114 25.7405 165.141 25.7867 165.167 25.8318C165.328 26.1133 165.275 26.3303 164.995 26.4947C164.733 26.6494 164.457 26.7816 164.201 26.947C163.308 27.5229 162.383 28.0343 161.395 28.4308C161.287 28.4738 161.187 28.5339 161.078 28.5705C160.976 28.6049 160.87 28.6016 160.81 28.4856C160.745 28.3588 160.766 28.232 160.862 28.1482C161.352 27.7174 161.852 27.2973 162.326 26.8493C162.622 26.5699 162.877 26.2497 163.15 25.9467C163.173 25.922 163.189 25.8898 163.201 25.8586C163.332 25.5052 163.275 25.4353 162.867 25.4418C162.867 25.4514 162.866 25.4622 162.866 25.474Z" fill="#EBE0CF"/>
<path d="M148.314 27.7311C148.388 27.8783 148.467 28.0007 148.512 28.135C148.621 28.4552 148.742 28.7754 148.806 29.1052C148.922 29.6929 148.813 30.2592 148.515 30.7792C148.352 31.0639 148.081 31.2466 147.788 31.3733C147.534 31.4829 147.266 31.5635 146.998 31.6333C146.795 31.686 146.645 31.5861 146.608 31.3819C146.582 31.2369 146.565 31.0768 146.598 30.9371C146.755 30.2882 146.907 29.6306 147.251 29.0494C147.482 28.6583 147.59 28.2403 147.658 27.802C147.668 27.7386 147.715 27.6645 147.769 27.6301C147.794 27.6129 147.874 27.6709 147.925 27.7021C147.958 27.7214 147.983 27.7526 148.012 27.7783C148.146 27.8922 148.161 27.8912 148.314 27.7311Z" fill="#EBE0CF"/>
<path d="M73.0322 21.2072C73.0827 20.8644 73.145 20.5518 73.3535 20.2628C73.6973 19.7879 73.9971 19.2797 74.3108 18.7833C74.3656 18.6973 74.4043 18.6006 74.4451 18.5061C74.5353 18.2998 74.6986 18.2085 74.9125 18.2697C75.2412 18.3643 75.5227 18.5459 75.7569 18.7919C75.8085 18.8467 75.8321 18.9617 75.816 19.039C75.7913 19.1615 75.7355 19.2829 75.671 19.3914C75.2659 20.0629 74.8566 20.7323 74.4451 21.4006C74.3666 21.5284 74.2742 21.6477 74.1904 21.7723C74.1099 21.8927 74.025 22.0108 73.9519 22.1355C73.8262 22.3514 73.6779 22.3665 73.5211 22.1742C73.3137 21.9184 73.1719 21.6262 73.0526 21.3211C73.0365 21.2835 73.0365 21.2383 73.0322 21.2072Z" fill="#EBE0CF"/>
<g clip-path="url(#clip0_870_3743)">
<path d="M3.27702 24.1124C3.68477 23.9596 3.93796 23.7563 4.05867 23.2979C4.16466 22.8973 3.99096 22.3943 3.56407 22.28C2.36731 21.9595 2.35847 24.2757 0.88497 23.881C0.222556 23.7014 -0.160172 22.9343 0.0665204 22.0723C0.219612 21.504 0.650917 20.9995 1.17202 20.8838L1.26475 21.228C0.886442 21.3185 0.559651 21.5277 0.42864 22.0203C0.302045 22.4966 0.555235 22.8602 0.948267 22.967C1.91686 23.2266 2.08173 20.9506 3.5729 21.3512C4.331 21.5544 4.63571 22.4314 4.43257 23.2088C4.26475 23.8365 3.9674 24.2979 3.40214 24.4893L3.27702 24.1124Z" fill="#EBE0CF"/>
<path d="M4.90322 21.0817L1.02441 19.2789L1.39978 18.4614L3.10587 19.2522L3.91843 17.4717L2.21676 16.6764L2.59066 15.8604L6.46651 17.6661L6.09262 18.4822L4.22608 17.6142L3.4091 19.3947L5.27564 20.2627L4.90322 21.0817Z" fill="#EBE0CF"/>
<path d="M6.98732 16.8999L3.38379 14.5957L3.85926 13.833L7.46573 16.1432L6.98732 16.8999Z" fill="#EBE0CF"/>
<path d="M7.93983 15.3273L4.66309 12.569L5.23571 11.8805L6.67682 13.0943L7.92511 11.5853L6.48399 10.3745L7.05661 9.68457L10.3334 12.4414L9.7622 13.1313L8.18418 11.8034L6.93443 13.3109L8.51245 14.6359L7.93983 15.3273Z" fill="#EBE0CF"/>
<path d="M13.471 5.60408C12.9588 5.47796 12.4171 5.40081 11.9063 5.7762C10.9686 6.45725 10.9391 7.42614 11.659 8.4351C12.2183 9.22001 13.2046 9.66513 14.0908 9.02563C14.659 8.61167 14.9298 7.95139 14.8238 7.33415L15.1595 7.26144C15.2772 8.17247 14.8827 8.86984 14.1438 9.40399C13.0574 10.1904 11.5942 10.0005 10.8979 9.02415C10.1016 7.90985 10.4534 6.48395 11.5839 5.66492C12.1889 5.22721 12.9426 5.12038 13.5844 5.31178L13.471 5.60408Z" fill="#EBE0CF"/>
<path d="M16.0833 7.93802L14.2168 4.0669L15.0191 3.67518L15.8419 5.37557L17.5892 4.51499L16.7678 2.81312L17.573 2.41992L19.4396 6.28957L18.6373 6.68276L17.7408 4.82213L15.9862 5.67974L16.8871 7.54186L16.0833 7.93802Z" fill="#EBE0CF"/>
<path d="M20.3345 6.00921L18.9346 1.94222L19.781 1.64844L21.1779 5.71542L20.3345 6.00921Z" fill="#EBE0CF"/>
<path d="M22.122 5.39174L21.1357 1.20606L23.8664 0.554688L23.9297 0.826216L22.0734 1.26986L22.4547 2.88567L24.2035 2.46429L24.2682 2.73878L22.515 3.1572L22.9287 4.91397L24.8158 4.46291L24.8806 4.73295L22.122 5.39174Z" fill="#EBE0CF"/>
<path d="M25.5194 4.61004L25.1484 0.32346L25.9419 0.253723L28.674 2.98532H28.6872L28.4267 0.0326427L28.8079 0L29.1847 4.2851L28.7873 4.32071L25.6165 1.15436L25.6033 1.15733L25.9006 4.57443L25.5194 4.61004Z" fill="#EBE0CF"/>
<path d="M33.6258 0.249674L33.193 3.29138C33.0973 3.95017 33.7008 4.2855 34.063 4.33743C34.4751 4.39827 35.2111 4.37156 35.3142 3.64006L35.7573 0.556812L36.1312 0.614678L35.6778 3.79586C35.5998 4.3404 35.0522 4.925 33.8628 4.7514C33.0841 4.6416 32.1523 4.22912 32.3083 3.14449L32.7425 0.12207L33.6258 0.249674Z" fill="#EBE0CF"/>
<path d="M36.3828 5.05627L37.6605 0.949219L38.4216 1.19404L39.9113 4.76693L39.9245 4.77287L40.8048 1.94482L41.164 2.06055L39.8907 6.1676L39.5124 6.0489L37.7798 1.90031L37.765 1.89586L36.7449 5.16903L36.3828 5.05627Z" fill="#EBE0CF"/>
<path d="M40.7559 6.58908L42.512 2.66602L43.326 3.03547L41.5699 6.95853L40.7559 6.58908Z" fill="#EBE0CF"/>
<path d="M47.1786 5.16169L47.5422 5.37683L43.7061 8.23752L43.6943 8.22714L44.1889 3.39453L44.9897 3.87082L44.6983 6.9971L47.1786 5.16169Z" fill="#EBE0CF"/>
<path d="M45.6914 9.35653L48.3366 5.97949L50.5344 7.72885L50.3695 7.94844L48.8666 6.75698L47.8465 8.05972L49.2611 9.18441L49.0859 9.40401L47.6757 8.27784L46.5629 9.69483L48.0849 10.9071L47.9142 11.1237L45.6914 9.35653Z" fill="#EBE0CF"/>
<path d="M48.3779 11.55L51.4766 8.58691L52.8868 10.0855C53.48 10.7146 53.3976 11.4669 52.9 11.9402C52.429 12.3957 51.8578 12.2073 51.3117 11.7444L50.7347 14.0501L50.0575 13.3305L50.7523 10.8675L50.7935 10.9105C51.3367 11.4877 51.8902 11.6687 52.3524 11.2265C52.6969 10.8956 52.8676 10.3763 52.2685 9.73831L51.9344 9.38369L48.9932 12.2043L48.3779 11.55Z" fill="#EBE0CF"/>
<path d="M51.7937 14.2335C51.6421 14.646 51.6391 14.9724 51.9115 15.3597C52.1426 15.698 52.6387 15.8894 52.9978 15.6357C54.0121 14.9205 52.2559 13.4174 53.5116 12.5346C54.0724 12.1414 54.9012 12.3417 55.409 13.0732C55.7461 13.554 55.8462 14.2127 55.6019 14.6935L55.281 14.5407C55.4532 14.192 55.5062 13.8047 55.2191 13.3878C54.938 12.9827 54.4993 12.9367 54.1651 13.1756C53.3438 13.7543 54.9645 15.3463 53.7 16.2396C53.0582 16.6891 52.1956 16.3612 51.7392 15.7039C51.3683 15.1712 51.2123 14.6415 51.4286 14.0851L51.7937 14.2335Z" fill="#EBE0CF"/>
<path d="M53.0537 17.5857L56.8103 15.5352L57.2328 16.3245L53.4791 18.3736L53.0537 17.5857Z" fill="#EBE0CF"/>
<path d="M54.1279 19.7311L57.8095 18.1761L57.4429 17.2992L57.6976 17.1924L58.7737 19.7786L58.519 19.8839L58.1554 19.01L54.4724 20.565L54.1279 19.7311Z" fill="#EBE0CF"/>
<path d="M59.8643 23.616L59.9998 24.1383L57.5709 23.1709L55.4777 23.7302L55.248 22.8593L57.2117 22.3355L58.9561 20.1855L59.2269 21.2049L57.8977 22.837L59.8643 23.616Z" fill="#EBE0CF"/>
<path d="M56.8753 33.2823C58.7757 31.1011 58.9494 28.4185 57.9632 27.3665C56.1261 26.4689 53.3381 29.1708 52.9862 30.745C50.4705 31.9692 49.5549 32.8208 48.8719 35.1251C48.4833 35.3848 47.8827 35.4857 47.0849 36.0658C46.9907 36.1756 46.6712 35.5465 46.6889 35.5821C46.7066 35.6222 46.8022 26.3724 46.8022 26.3724H55.5476L30.0358 13.2471L3.97642 26.0311L12.4862 26.0386C12.4862 26.0386 12.4421 35.7364 12.4686 35.8892C11.8533 36.0717 11.2718 35.9352 10.8302 35.364C9.86013 32.2926 8.03923 31.481 6.77476 30.975C6.54512 29.7079 4.50047 26.6766 0.774756 27.7731C-0.140848 29.1559 1.46367 31.7199 2.31008 32.9351C1.77132 33.2882 1.27525 33.4069 0.89399 33.7497C0.804197 36.7869 4.56671 38.8226 4.94796 38.7648C5.19527 39.2722 5.75022 40.0334 6.54806 41.121C6.75267 41.3688 6.09173 41.4667 6.09173 41.4222C6.65994 43.6656 8.77525 45.6108 12.1388 45.0381C12.1683 45.093 12.1491 49.3544 12.1491 49.3544C12.1491 49.3544 23.3027 49.3662 23.2836 49.3662C23.9519 49.298 23.9342 49.4152 23.7046 49.8826C23.0834 50.9687 22.5034 51.6779 21.4789 52.7685C22.6698 53.1839 24.0314 54.7849 24.6747 55.0015C25.0839 54.7701 25.973 52.6038 26.8886 51.9138C27.236 51.9598 27.5275 52.5949 27.9853 52.8249C28.9023 53.0534 29.2586 52.0266 30.1285 52.7596C31.0279 52.9317 31.6447 52.0785 31.8773 51.6141C33.5378 52.3516 34.0544 54.4956 34.8052 54.7137C35.7723 53.8754 37.3768 53.0727 37.8685 52.5949C37.8685 51.7269 35.5456 50.0859 35.7723 49.3929C35.8209 49.3855 46.6168 49.3677 46.6168 49.3677C46.6168 49.3677 46.577 46.007 46.5696 46.0159C46.6256 45.3363 47.4234 45.5114 47.4234 45.5114C49.8582 45.7206 53.3307 43.2754 52.7154 40.9993C53.3528 40.3376 53.5809 39.885 53.9887 38.8879C58.159 37.8997 58.5329 34.7364 58.5741 34.1028C58.0633 33.5761 57.2963 33.6384 56.8753 33.2823Z" fill="#BF3B24"/>
<path d="M52.3341 37.6134C52.3312 35.8551 56.3248 33.5271 56.9828 34.7913C56.525 36.64 54.5113 37.9724 52.3341 37.6134ZM48.4568 41.072C47.9077 40.3509 51.2698 37.7024 52.8655 38.4354C52.9965 39.4399 49.6109 42.0127 48.4568 41.072ZM47.2483 44.0158C48.2684 41.9148 50.7208 41.713 51.4406 41.9934C51.6217 42.6107 48.9278 44.863 47.2483 44.0158ZM46.1678 41.2352C44.8798 41.2352 46.5976 36.9768 48.7851 36.9768C49.5255 39.1713 46.9656 41.1225 46.1678 41.2352ZM43.8361 44.544C42.9897 43.2665 46.6241 41.6329 47.0407 42.1255C47.341 42.8867 45.2066 44.6419 43.8361 44.544ZM35.3057 52.7744C34.3915 51.6245 33.4759 50.525 32.3322 49.6021C32.5603 49.3707 32.5544 49.1081 32.9651 49.4137C33.5908 49.8915 35.3174 50.9746 35.6472 51.8857C36.0741 52.1809 35.815 52.4139 35.3057 52.7744ZM30.1477 51.5696C29.9166 51.5696 29.422 51.396 29.422 51.1631C28.9656 51.626 28.499 51.8011 28.2679 51.1082C28.3165 50.1304 28.8302 49.3277 29.5721 49.3084C30.0343 49.476 31.0014 50.7135 30.1477 51.5696ZM26.7959 49.9983C25.8788 51.1556 25.2399 52.0266 24.3243 52.9525C23.7767 52.9302 23.8165 52.7863 23.8047 52.2136C23.8945 51.8174 24.6776 50.6853 25.8184 49.5309C26.2762 49.298 27.4774 49.2401 26.7959 49.9983ZM12.0284 42.0691C13.0486 41.6536 14.9224 42.8852 15.47 44.1152C14.9902 44.9253 11.9784 43.406 12.0284 42.0691ZM10.7124 37.2098C11.2041 37.2098 12.4833 37.7083 13.1369 40.1506C13.0795 41.8688 9.48477 37.7632 10.7124 37.2098ZM11.288 43.8407C9.91607 44.0692 7.63442 42.7739 8.02745 42.0513C8.82529 40.8762 12.7792 43.7265 11.288 43.8407ZM6.77476 39.2752C7.21342 38.1802 10.1001 39.3553 10.4372 40.6566C9.48477 41.5275 7.32382 40.161 6.77476 39.2752ZM2.53089 34.8476C2.69723 34.5138 5.4617 34.1651 7.0147 36.9219C5.67662 38.4799 2.53089 35.5673 2.53089 34.8476ZM2.31008 28.7301C3.82039 28.9853 5.97986 30.4898 6.09026 33.5093C3.73795 33.9707 1.37976 29.8934 2.31008 28.7301ZM7.45336 32.6546C9.34051 33.852 9.88957 36.4531 9.2831 37.6787C6.57162 36.7112 6.39939 31.8757 7.45336 32.6546ZM9.36553 24.8783L29.076 14.9786L28.9656 20.5976L23.1555 23.8263L28.9112 23.8441L28.9009 35.1889L13.6756 35.18L13.7581 26.1409L19.6153 26.1973L19.5858 28.9616L22.8243 29.0743L22.8802 24.994L9.36553 24.8783ZM46.3518 36.4056L45.3714 37.8448L13.9789 37.6772L13.0279 36.508L46.3518 36.4056ZM51.0652 25.1542L38.9121 25.1631L36.2434 23.8634V29.0283L40.2046 29.018L40.2223 26.3932L45.7129 26.3724L45.7041 35.2468L30.7409 35.3581L30.6982 14.7501L51.0652 25.1542ZM51.7321 32.6606C53.2806 34.0449 51.2198 37.7321 50.132 37.7914C49.2708 36.6282 49.9774 33.8802 51.7321 32.6606ZM57.0005 28.5832C57.9367 30.4409 55.5181 33.5034 53.9622 33.8135C52.3503 33.1057 54.7659 28.7672 57.0005 28.5832ZM56.8753 33.2823C58.7757 31.1011 58.9494 28.4185 57.9632 27.3665C56.1261 26.4689 53.3381 29.1708 52.9862 30.745C50.4705 31.9692 49.5549 32.8208 48.8719 35.1251C48.4833 35.3848 47.8827 35.4857 47.0849 36.0658C46.9907 36.1756 46.6712 35.5465 46.6889 35.5821C46.7066 35.6222 46.8022 26.3724 46.8022 26.3724H55.5476L30.0358 13.2471L3.97642 26.0311L12.4862 26.0386C12.4862 26.0386 12.4421 35.7364 12.4686 35.8892C11.8533 36.0717 11.2718 35.9352 10.8302 35.364C9.86013 32.2926 8.03923 31.481 6.77476 30.975C6.54512 29.7079 4.50047 26.6766 0.774756 27.7731C-0.140848 29.1559 1.46367 31.7199 2.31008 32.9351C1.77132 33.2882 1.27525 33.4069 0.89399 33.7497C0.804197 36.7869 4.56671 38.8226 4.94796 38.7648C5.19527 39.2722 5.75022 40.0334 6.54806 41.121C6.75267 41.3688 6.09173 41.4667 6.09173 41.4222C6.65994 43.6656 8.77525 45.6108 12.1388 45.0381C12.1683 45.093 12.1491 49.3544 12.1491 49.3544C12.1491 49.3544 23.3027 49.3662 23.2836 49.3662C23.9519 49.298 23.9342 49.4152 23.7046 49.8826C23.0834 50.9687 22.5034 51.6779 21.4789 52.7685C22.6698 53.1839 24.0314 54.7849 24.6747 55.0015C25.0839 54.7701 25.973 52.6038 26.8886 51.9138C27.236 51.9598 27.5275 52.5949 27.9853 52.8249C28.9023 53.0534 29.2586 52.0266 30.1285 52.7596C31.0279 52.9317 31.6447 52.0785 31.8773 51.6141C33.5378 52.3516 34.0544 54.4956 34.8052 54.7137C35.7723 53.8754 37.3768 53.0727 37.8685 52.5949C37.8685 51.7269 35.5456 50.0859 35.7723 49.3929C35.8209 49.3855 46.6168 49.3677 46.6168 49.3677C46.6168 49.3677 46.577 46.007 46.5696 46.0159C46.6256 45.3363 47.4234 45.5114 47.4234 45.5114C49.8582 45.7206 53.3307 43.2754 52.7154 40.9993C53.3528 40.3376 53.5809 39.885 53.9887 38.8879C58.159 37.8997 58.5329 34.7364 58.5741 34.1028C58.0633 33.5761 57.2963 33.6384 56.8753 33.2823Z" fill="#EBE0CF"/>
<path d="M23.3093 41.6152H25.4025C25.4187 41.4802 25.3524 41.4104 25.2067 41.4104H23.3431L23.3093 41.6152ZM23.1253 42.5603H25.1493C25.242 42.5529 25.2994 42.5025 25.3215 42.4046V42.3556H23.1591L23.1253 42.5603ZM22.2391 41.4104H20.1459C20.0384 41.4179 19.9736 41.4713 19.9501 41.5751V41.6152H22.2038L22.2391 41.4104ZM22.0551 42.3571H19.8014C19.7705 42.4728 19.8397 42.5411 20.009 42.5618H22.0212L22.0551 42.3571ZM25.8632 45.3795V45.1376H19.6439V45.3795H25.8632ZM19.6439 46.0843V46.2252C19.6365 46.249 19.6483 46.2638 19.6778 46.2697H25.8161C25.847 46.2638 25.8618 46.249 25.8618 46.2252V46.0843H19.6439ZM25.8632 44.4343V44.2162C25.8632 44.188 25.847 44.1747 25.8176 44.1747H19.6792C19.6483 44.1747 19.6365 44.188 19.6454 44.2162V44.4343H25.8632ZM21.1498 47.0487L21.3573 47.522C20.0237 48.0147 19.0448 48.3411 18.4236 48.4984L18.1248 47.6007C18.615 47.4701 19.164 47.301 19.7705 47.0977C19.8161 47.0725 19.8632 47.0561 19.9089 47.0487H18.6429C18.5502 47.0487 18.5046 47.0057 18.5046 46.9211V43.5129C18.5046 43.4343 18.5502 43.3942 18.6429 43.3942H26.8569C26.957 43.3942 27.007 43.4343 27.007 43.5129V46.9211C27.007 47.0057 26.957 47.0487 26.8569 47.0487H25.5217C26.4123 47.3113 27.0409 47.4909 27.4089 47.5918L27.007 48.4583C25.7411 48.1037 24.7415 47.7832 24.0055 47.5013L24.2469 47.0487H21.1498ZM26.3446 43.1182C26.3284 43.1702 26.2945 43.2102 26.2415 43.2355C26.1576 43.2755 26.0649 43.2918 25.9648 43.2844H19.0301C18.8696 43.277 18.7504 43.2444 18.6738 43.1865C18.5973 43.1271 18.5634 43.0752 18.5708 43.0307L18.6974 42.3571H17.4903V41.6152H18.8475L19.008 40.8065C19.0242 40.762 19.0536 40.7279 19.1007 40.7086C19.1846 40.6834 19.2656 40.6686 19.3421 40.6686H26.1841C26.2842 40.6686 26.3726 40.6923 26.4491 40.7383C26.533 40.7828 26.5713 40.8303 26.5639 40.8748L26.483 41.6137H27.8976V42.3556H26.4138L26.3446 43.1182ZM22.1096 39.167H23.2872V39.6314H27.7842C28.0757 39.6314 28.2052 39.759 28.1758 40.0157C28.1302 40.4816 28.0448 40.9505 27.9226 41.4238C27.562 41.3511 27.2057 41.2828 26.8524 41.2161C26.929 41.0261 26.9938 40.811 27.0482 40.5751C27.0644 40.4905 27.0217 40.4475 26.9216 40.4475H18.6621C18.5929 40.4475 18.559 40.4772 18.559 40.5365V41.3184H17.4727V39.7991C17.48 39.6863 17.5463 39.6314 17.667 39.6314H22.1096V39.167Z" fill="#BF3B24"/>
<path d="M38.7987 45.3022L37.6947 45.3912C37.8404 45.6212 37.9979 45.8379 38.1657 46.0411C38.3586 45.8705 38.5691 45.6242 38.7987 45.3022ZM40.8345 40.0096L40.9376 41.0245L37.9361 41.2515C38.0362 41.3821 38.1466 41.5112 38.2702 41.6358C38.4999 41.5053 38.7575 41.3495 39.0401 41.1729L39.7069 41.9712C39.4847 42.1032 39.2889 42.2219 39.1211 42.3258C39.2433 42.4119 39.3551 42.4771 39.4552 42.5231C39.6775 42.6285 39.8394 42.6582 39.9381 42.6107C40.022 42.578 40.0691 42.5291 40.0764 42.4638C40.1147 42.3065 40.1191 42.0988 40.0882 41.8436L41.2614 42.0201C41.2158 42.9401 41.02 43.4891 40.6755 43.6656C40.3384 43.7977 39.8365 43.7443 39.1697 43.5084C39.0548 43.4624 38.6633 43.2487 37.9964 42.8689C37.0382 43.2561 35.996 43.4994 34.8684 43.5974L34.6152 42.5929C34.7683 42.5721 34.9258 42.5632 35.0862 42.5632C35.6147 42.492 36.3169 42.3466 37.1912 42.1299C37.153 42.0899 36.9616 41.8302 36.6157 41.351L34.9361 41.4697L34.7403 40.4755L36.074 40.3776C35.9062 40.0304 35.7369 39.6491 35.5676 39.2351L36.6716 38.8701C36.9086 39.428 37.1235 39.8984 37.3164 40.2797L38.363 40.201C38.31 40.1684 37.9832 40.0601 37.3856 39.8761L37.8463 38.9992C38.2526 39.0971 38.7428 39.2692 39.3183 39.5111L38.8929 40.161L40.8345 40.0096ZM40.8802 44.1093L40.995 45.1153L39.2241 45.2725L39.994 45.5663C39.6716 46.0664 39.3345 46.4729 38.9812 46.7875C39.1652 46.9195 39.3301 47.0234 39.4758 47.1035C39.7055 47.2163 39.8703 47.2519 39.9704 47.2118C40.0543 47.1718 40.1118 47.1094 40.1427 47.0234C40.2119 46.8409 40.231 46.5901 40.2001 46.2741L41.3615 46.4922C41.2923 47.5026 41.0627 48.0976 40.6711 48.2757C40.3797 48.3944 40.0234 48.384 39.601 48.246C38.9488 48.0561 38.416 47.7831 38.0023 47.4284C37.1589 47.8676 36.1505 48.2163 34.9773 48.473L34.4489 47.5071C35.5691 47.3172 36.4994 47.0442 37.2428 46.6895C36.9896 46.3868 36.7246 45.9892 36.4493 45.4966L35.0229 45.6153L34.8272 44.6108L35.9768 44.5232C35.862 44.2725 35.7545 44.0173 35.6544 43.7532L36.7702 43.4089C36.916 43.7769 37.0573 44.1122 37.1957 44.4134L38.2305 44.3348C37.939 44.2235 37.6549 44.1568 37.3797 44.1375L37.7477 43.222C38.4601 43.3926 38.9547 43.5217 39.2315 43.6063L38.8973 44.2769L40.8802 44.1093ZM31.8684 40.2233C31.8389 40.2233 31.8227 40.2367 31.8227 40.2634V41.7516C31.8227 41.7842 31.8389 41.8005 31.8684 41.8005H33.3301C33.3684 41.7931 33.3875 41.7768 33.3875 41.7516V40.2634C33.3802 40.2367 33.361 40.2233 33.3301 40.2233H31.8684ZM30.7923 43.7294H31.8787V47.0115C31.9964 46.967 32.1201 46.9299 32.2467 46.9032V42.7828H30.8438C30.7364 42.7828 30.6834 42.7338 30.6834 42.6344V39.379C30.6908 39.2871 30.7452 39.2411 30.8438 39.2411H34.3576C34.4724 39.2485 34.5298 39.2945 34.5298 39.379V42.6285C34.5298 42.7264 34.4724 42.7754 34.3591 42.7754H33.389V43.7101H34.5666V44.6375H33.389V46.5382C33.941 46.3408 34.3708 46.1806 34.677 46.056L35.1834 46.9714C34.8316 47.1287 34.259 47.3394 33.4699 47.602C32.3865 47.9567 31.4945 48.2163 30.7953 48.381L30.3242 47.4448C30.4699 47.4047 30.6275 47.3661 30.7953 47.3261V43.7294H30.7923Z" fill="#BF3B24"/>
</g>
<defs>
<clipPath id="clip0_870_3743">
<rect width="60" height="55" fill="white"/>
</clipPath>
</defs>
</svg>
