<svg width="240" height="6264" viewBox="0 0 240 6264" fill="none" xmlns="http://www.w3.org/2000/svg">
<rect width="240" height="6264" fill="#2E5A87"/>
<mask id="mask0_1025_20806" style="mask-type:alpha" maskUnits="userSpaceOnUse" x="0" y="0" width="241" height="6264">
<rect width="240" height="6264" fill="#E5DCC7"/>
</mask>
<g mask="url(#mask0_1025_20806)">
<path d="M176 6175.66H74.8149V6149.41C74.8149 6118.34 91.9999 6100.6 124.995 6100.6C157.853 6100.6 176 6118.34 176 6148.58V6175.66ZM162.94 6159.72V6150.51C162.94 6128.78 150.154 6117.1 124.995 6117.1C99.6988 6117.1 87.738 6128.78 87.738 6150.51L87.738 6159.72H162.94ZM176 6079.54H74.8149V6019.73H88.1504V6063.59H116.334V6026.47H129.807V6063.59H162.527V6018.22H176V6079.54ZM177.787 5968.23C177.787 5982.12 172.288 5995.04 162.94 6004.25L151.941 5994.9C159.228 5987.62 163.902 5977.72 163.902 5967.96C163.902 5955.72 158.128 5948.85 149.604 5948.85C140.393 5948.85 137.506 5955.72 133.381 5965.07L127.332 5979.09C123.208 5988.85 115.509 5999.71 100.799 5999.71C84.8509 5999.71 72.8902 5985.69 72.8902 5966.44C72.8902 5954.62 77.8394 5943.48 85.6758 5935.79L95.8493 5944.17C90.2126 5950.5 86.7756 5957.51 86.7756 5966.44C86.7756 5976.75 91.7249 5983.49 99.8362 5983.49C108.497 5983.49 111.797 5975.38 115.097 5967.13L121.008 5953.25C126.095 5941.28 133.519 5932.62 148.367 5932.62C164.589 5932.62 177.787 5946.1 177.787 5968.23ZM176 5913.46H74.8149V5897.51H176V5913.46ZM177.787 5829.79C177.787 5856.87 158.815 5876.53 125.682 5876.53C92.6873 5876.53 72.8902 5856.19 72.8902 5829.38C72.8902 5815.08 79.2142 5805.46 85.6758 5799.27L95.8493 5807.93C90.7626 5812.88 86.7756 5819.07 86.7756 5828.83C86.7756 5847.66 101.349 5860.17 125.133 5860.17C149.192 5860.17 163.902 5849.04 163.902 5828.14C163.902 5821.95 162.115 5815.77 158.953 5812.19H135.169V5832.26H122.108V5797.76H165.964C172.701 5804.49 177.787 5815.9 177.787 5829.79ZM176 5774.64H74.8149V5758.28L134.206 5724.73L155.653 5714.15V5713.46C145.205 5714.28 132.969 5715.52 121.971 5715.52H74.8149V5700.4H176V5716.76L116.334 5750.3L95.1619 5760.89V5761.58C105.61 5760.75 117.296 5759.51 128.295 5759.51H176V5774.64ZM177.787 5603.34C177.787 5628.77 158.815 5648.29 125.682 5648.29C92.6873 5648.29 72.8902 5628.22 72.8902 5602.65C72.8902 5590 78.9393 5580.1 85.6758 5573.92L95.8493 5582.58C90.4876 5587.8 86.7756 5594.13 86.7756 5602.38C86.7756 5619.84 101.349 5631.93 125.133 5631.93C149.192 5631.93 163.902 5620.66 163.902 5602.79C163.902 5593.58 159.777 5586.43 153.178 5580.38L163.214 5571.86C172.563 5579.97 177.787 5590.28 177.787 5603.34ZM177.787 5520.26C177.787 5546.24 157.578 5564.25 124.995 5564.25C92.4123 5564.25 72.8902 5546.24 72.8902 5520.26C72.8902 5494.27 92.4123 5476.12 124.995 5476.12C157.578 5476.12 177.787 5494.27 177.787 5520.26ZM163.902 5520.26C163.902 5503.48 148.779 5492.48 124.995 5492.48C101.211 5492.48 86.7756 5503.48 86.7756 5520.26C86.7756 5537.03 101.211 5547.89 124.995 5547.89C148.779 5547.89 163.902 5537.03 163.902 5520.26ZM176 5455.1H74.8149V5438.74L134.206 5405.2L155.653 5394.61V5393.92C145.205 5394.75 132.969 5395.99 121.971 5395.99H74.8149V5380.86H176V5397.22L116.334 5430.77L95.1619 5441.36V5442.04C105.61 5441.22 117.296 5439.98 128.295 5439.98H176V5455.1ZM176 5333.52H88.1504V5363.21H74.8149L74.8149 5287.74H88.1504V5317.57H176V5333.52ZM176 5270.23H74.8149L74.8149 5210.43H88.1504L88.1504 5254.28H116.334L116.334 5217.16H129.807V5254.28H162.527L162.527 5208.91H176L176 5270.23ZM177.787 5158.93C177.787 5172.81 172.288 5185.73 162.94 5194.94L151.941 5185.6C159.228 5178.31 163.902 5168.41 163.902 5158.65C163.902 5146.41 158.128 5139.54 149.604 5139.54C140.393 5139.54 137.506 5146.41 133.381 5155.76L127.332 5169.79C123.208 5179.55 115.509 5190.41 100.799 5190.41C84.8509 5190.41 72.8902 5176.39 72.8902 5157.14C72.8902 5145.31 77.8394 5134.18 85.6758 5126.48L95.8493 5134.87C90.2126 5141.19 86.7756 5148.2 86.7756 5157.14C86.7756 5167.45 91.7249 5174.19 99.8362 5174.19C108.497 5174.19 111.797 5166.07 115.097 5157.83L121.008 5143.94C126.095 5131.98 133.519 5123.32 148.367 5123.32C164.589 5123.32 177.787 5136.79 177.787 5158.93ZM176 5086.62H88.1504L88.1504 5116.31H74.8149L74.8149 5040.84H88.1504V5070.67H176V5086.62ZM177.787 4953.96C177.787 4979.94 157.578 4997.95 124.995 4997.95C92.4123 4997.95 72.8902 4979.94 72.8902 4953.96C72.8902 4927.97 92.4123 4909.83 124.995 4909.83C157.578 4909.83 177.787 4927.97 177.787 4953.96ZM163.902 4953.96C163.902 4937.18 148.779 4926.19 124.995 4926.19C101.211 4926.19 86.7756 4937.18 86.7756 4953.96C86.7756 4970.73 101.211 4981.59 124.995 4981.59C148.779 4981.59 163.902 4970.73 163.902 4953.96ZM176 4888.8H74.8149V4828.86H88.1504L88.1504 4872.86H119.083L119.083 4835.46H132.419L132.419 4872.86H176V4888.8ZM176 4780.06H74.8149L74.8149 4764.11H162.527L162.527 4721.35H176L176 4780.06ZM177.787 4669.6C177.787 4695.58 157.578 4713.59 124.995 4713.59C92.4123 4713.59 72.8902 4695.58 72.8902 4669.6C72.8902 4643.61 92.4123 4625.47 124.995 4625.47C157.578 4625.47 177.787 4643.61 177.787 4669.6ZM163.902 4669.6C163.902 4652.83 148.779 4641.83 124.995 4641.83C101.211 4641.83 86.7756 4652.83 86.7756 4669.6C86.7756 4686.37 101.211 4697.23 124.995 4697.23C148.779 4697.23 163.902 4686.37 163.902 4669.6ZM177.787 4564.99C177.787 4590.42 158.815 4609.95 125.682 4609.95C92.6873 4609.95 72.8902 4589.87 72.8902 4564.3C72.8902 4551.65 78.9393 4541.76 85.6758 4535.57L95.8493 4544.23C90.4876 4549.45 86.7756 4555.78 86.7756 4564.03C86.7756 4581.49 101.349 4593.59 125.133 4593.59C149.192 4593.59 163.902 4582.31 163.902 4564.44C163.902 4555.23 159.777 4548.08 153.178 4542.03L163.214 4533.51C172.563 4541.62 177.787 4551.93 177.787 4564.99ZM134.619 4500.31L134.619 4472.67L121.008 4476.66C110.01 4480.1 98.7364 4483.12 87.3256 4486.28V4486.83C98.8739 4489.72 110.01 4492.88 121.008 4496.18L134.619 4500.31ZM176 4460.3L147.129 4468.82V4504.02L176 4512.68V4528.9L74.8149 4495.36V4476.94L176 4443.39L176 4460.3ZM176 4430.05H74.8149V4414.1H162.527V4371.34H176V4430.05ZM176 4322.64H74.8149V4306.69H116.059L116.059 4263.39H74.8149V4247.44H176V4263.39H129.944L129.944 4306.69H176V4322.64ZM134.619 4205.61L134.619 4177.98L121.008 4181.96C110.01 4185.4 98.7364 4188.43 87.3256 4191.59L87.3256 4192.14C98.8739 4195.03 110.01 4198.19 121.008 4201.49L134.619 4205.61ZM176 4165.6L147.129 4174.13V4209.32L176 4217.98V4234.21L74.8149 4200.66V4182.24L176 4148.69L176 4165.6ZM176 4135.35H74.8149V4119.4H122.658V4118.99L74.8149 4080.49V4062.76L113.859 4094.11L176 4057.54V4075.27L126.507 4103.87L145.48 4119.4H176V4135.35ZM176 4044.19H74.8149V4028.24H122.658V4027.83L74.8149 3989.33L74.8149 3971.6L113.859 4002.94L176 3966.37V3984.11L126.507 4012.71L145.48 4028.24H176V4044.19ZM134.619 3939.24V3911.61L121.008 3915.6C110.01 3919.03 98.7364 3922.06 87.3256 3925.22V3925.77C98.8739 3928.66 110.01 3931.82 121.008 3935.12L134.619 3939.24ZM176 3899.24L147.129 3907.76V3942.96L176 3951.62V3967.84L74.8149 3934.29V3915.87L176 3882.33V3899.24ZM176 3838.1H74.8149L74.8149 3819.82L125.957 3801.26C132.694 3798.92 139.568 3796.86 146.442 3794.52V3793.83C139.568 3791.5 132.694 3789.57 125.957 3787.24L74.8149 3768.95V3750.53H176V3765.38H125.957C116.884 3765.38 103.823 3764.14 94.612 3763.31V3763.86L117.984 3771.97L166.239 3789.57V3799.47L117.984 3817.21L94.612 3825.18V3825.73C103.823 3825.04 116.884 3823.8 125.957 3823.8H176V3838.1ZM176 3723.98H74.8149L74.8149 3664.18H88.1504L88.1504 3708.04H116.334V3670.92H129.807V3708.04H162.527L162.527 3662.67H176L176 3723.98ZM176 3641.55H74.8149V3623.26L125.957 3604.7C132.694 3602.37 139.568 3600.31 146.442 3597.97V3597.28C139.568 3594.94 132.694 3593.02 125.957 3590.68L74.8149 3572.4L74.8149 3553.97H176V3568.82H125.957C116.884 3568.82 103.823 3567.59 94.612 3566.76V3567.31L117.984 3575.42L166.239 3593.02V3602.92L117.984 3620.65L94.612 3628.63V3629.18C103.823 3628.49 116.884 3627.25 125.957 3627.25H176V3641.55ZM177.787 3488.94C177.787 3514.92 157.578 3532.93 124.995 3532.93C92.4123 3532.93 72.8902 3514.92 72.8902 3488.94C72.8902 3462.95 92.4123 3444.8 124.995 3444.8C157.578 3444.8 177.787 3462.95 177.787 3488.94ZM163.902 3488.94C163.902 3472.16 148.779 3461.16 124.995 3461.16C101.211 3461.16 86.7756 3472.16 86.7756 3488.94C86.7756 3505.71 101.211 3516.57 124.995 3516.57C148.779 3516.57 163.902 3505.71 163.902 3488.94ZM87.6005 3407.84H122.383V3392.58C122.383 3377.87 116.334 3369.89 104.098 3369.89C91.8624 3369.89 87.6005 3377.87 87.6005 3392.58V3407.84ZM176 3350.51V3368.52L135.169 3391.48V3407.84H176V3423.78H74.8149L74.8149 3390.65C74.8149 3369.75 82.2388 3354.08 104.098 3354.08C119.771 3354.08 129.119 3362.47 133.106 3375.25L176 3350.51ZM176 3333.7H74.8149V3317.75H176V3333.7ZM134.619 3276.01V3248.38L121.008 3252.36C110.01 3255.8 98.7364 3258.83 87.3256 3261.99V3262.54C98.8739 3265.42 110.01 3268.59 121.008 3271.89L134.619 3276.01ZM176 3236L147.129 3244.53L147.129 3279.72L176 3288.38V3304.61L74.8149 3271.06L74.8149 3252.64L176 3219.09V3236ZM176 3205.75H74.8149V3189.8H162.527V3147.04H176V3205.75ZM176 3098.34H74.8149L74.8149 3072.08C74.8149 3041.01 91.9999 3023.28 124.995 3023.28C157.853 3023.28 176 3041.01 176 3071.26V3098.34ZM162.94 3082.39V3073.18C162.94 3051.46 150.154 3039.78 124.995 3039.78C99.6988 3039.78 87.738 3051.46 87.738 3073.18V3082.39H162.94ZM176 3002.21H74.8149L74.8149 2942.41H88.1504L88.1504 2986.27H116.334L116.334 2949.15H129.807L129.807 2986.27H162.527L162.527 2940.9H176L176 3002.21ZM177.787 2890.91C177.787 2904.79 172.288 2917.72 162.94 2926.93L151.941 2917.58C159.228 2910.29 163.902 2900.4 163.902 2890.63C163.902 2878.4 158.128 2871.52 149.604 2871.52C140.393 2871.52 137.506 2878.4 133.381 2887.75L127.332 2901.77C123.208 2911.53 115.509 2922.39 100.799 2922.39C84.8509 2922.39 72.8902 2908.37 72.8902 2889.12C72.8902 2877.3 77.8394 2866.16 85.6758 2858.46L95.8493 2866.85C90.2126 2873.17 86.7756 2880.19 86.7756 2889.12C86.7756 2899.43 91.7249 2906.17 99.8362 2906.17C108.497 2906.17 111.797 2898.06 115.097 2889.81L121.008 2875.92C126.095 2863.96 133.519 2855.3 148.367 2855.3C164.589 2855.3 177.787 2868.77 177.787 2890.91ZM176 2836.14H74.8149V2820.19H176V2836.14ZM177.787 2752.47C177.787 2779.55 158.815 2799.21 125.682 2799.21C92.6873 2799.21 72.8902 2778.86 72.8902 2752.06C72.8902 2737.76 79.2142 2728.13 85.6758 2721.95L95.8493 2730.61C90.7626 2735.56 86.7756 2741.74 86.7756 2751.51C86.7756 2770.34 101.349 2782.85 125.133 2782.85C149.192 2782.85 163.902 2771.72 163.902 2750.82C163.902 2744.63 162.115 2738.44 158.953 2734.87H135.169V2754.94H122.108V2720.43H165.964C172.701 2727.17 177.787 2738.58 177.787 2752.47ZM176 2697.31H74.8149V2680.95L134.206 2647.41L155.653 2636.82V2636.14C145.205 2636.96 132.969 2638.2 121.971 2638.2H74.8149L74.8149 2623.08H176V2639.44L116.334 2672.98L95.1619 2683.57V2684.25C105.61 2683.43 117.296 2682.19 128.295 2682.19H176V2697.31ZM177.787 2526.02C177.787 2551.45 158.815 2570.97 125.682 2570.97C92.6873 2570.97 72.8902 2550.9 72.8902 2525.33C72.8902 2512.68 78.9393 2502.78 85.6758 2496.6L95.8493 2505.26C90.4876 2510.48 86.7756 2516.81 86.7756 2525.05C86.7756 2542.51 101.349 2554.61 125.133 2554.61C149.192 2554.61 163.902 2543.34 163.902 2525.47C163.902 2516.26 159.777 2509.11 153.178 2503.06L163.214 2494.53C172.563 2502.65 177.787 2512.96 177.787 2526.02ZM177.787 2442.93C177.787 2468.92 157.578 2486.93 124.995 2486.93C92.4123 2486.93 72.8902 2468.92 72.8902 2442.93C72.8902 2416.95 92.4123 2398.8 124.995 2398.8C157.578 2398.8 177.787 2416.95 177.787 2442.93ZM163.902 2442.93C163.902 2426.16 148.779 2415.16 124.995 2415.16C101.211 2415.16 86.7756 2426.16 86.7756 2442.93C86.7756 2459.71 101.211 2470.57 124.995 2470.57C148.779 2470.57 163.902 2459.71 163.902 2442.93ZM176 2377.78H74.8149L74.8149 2361.42L134.206 2327.88L155.653 2317.29V2316.6C145.205 2317.43 132.969 2318.66 121.971 2318.66H74.8149V2303.54H176V2319.9L116.334 2353.45L95.1619 2364.03V2364.72C105.61 2363.9 117.296 2362.66 128.295 2362.66H176V2377.78ZM176 2256.2H88.1504V2285.89H74.8149L74.8149 2210.42H88.1504L88.1504 2240.25H176V2256.2ZM176 2192.91H74.8149L74.8149 2133.1H88.1504L88.1504 2176.96H116.334L116.334 2139.84H129.807L129.807 2176.96H162.527V2131.59H176V2192.91ZM177.787 2081.6C177.787 2095.49 172.288 2108.41 162.94 2117.62L151.941 2108.27C159.228 2100.99 163.902 2091.09 163.902 2081.33C163.902 2069.09 158.128 2062.22 149.604 2062.22C140.393 2062.22 137.506 2069.09 133.381 2078.44L127.332 2092.46C123.208 2102.23 115.509 2113.09 100.799 2113.09C84.8509 2113.09 72.8902 2099.06 72.8902 2079.82C72.8902 2067.99 77.8394 2056.86 85.6758 2049.16L95.8493 2057.54C90.2126 2063.87 86.7756 2070.88 86.7756 2079.82C86.7756 2090.13 91.7249 2096.86 99.8362 2096.86C108.497 2096.86 111.797 2088.75 115.097 2080.5L121.008 2066.62C126.095 2054.66 133.519 2046 148.367 2046C164.589 2046 177.787 2059.47 177.787 2081.6ZM176 2009.3H88.1504V2038.99H74.8149L74.8149 1963.52H88.1504V1993.35H176V2009.3ZM177.787 1876.63C177.787 1902.62 157.578 1920.63 124.995 1920.63C92.4123 1920.63 72.8902 1902.62 72.8902 1876.63C72.8902 1850.65 92.4123 1832.5 124.995 1832.5C157.578 1832.5 177.787 1850.65 177.787 1876.63ZM163.902 1876.63C163.902 1859.86 148.779 1848.86 124.995 1848.86C101.211 1848.86 86.7756 1859.86 86.7756 1876.63C86.7756 1893.41 101.211 1904.27 124.995 1904.27C148.779 1904.27 163.902 1893.41 163.902 1876.63ZM176 1811.48H74.8149L74.8149 1751.54H88.1504L88.1504 1795.53H119.083L119.083 1758.14H132.419L132.419 1795.53H176V1811.48ZM176 1702.73H74.8149V1686.79H162.527V1644.03H176V1702.73ZM177.787 1592.28C177.787 1618.26 157.578 1636.27 124.995 1636.27C92.4123 1636.27 72.8902 1618.26 72.8902 1592.28C72.8902 1566.29 92.4123 1548.15 124.995 1548.15C157.578 1548.15 177.787 1566.29 177.787 1592.28ZM163.902 1592.28C163.902 1575.5 148.779 1564.51 124.995 1564.51C101.211 1564.51 86.7756 1575.5 86.7756 1592.28C86.7756 1609.05 101.211 1619.91 124.995 1619.91C148.779 1619.91 163.902 1609.05 163.902 1592.28ZM177.787 1487.67C177.787 1513.1 158.815 1532.62 125.682 1532.62C92.6873 1532.62 72.8902 1512.55 72.8902 1486.98C72.8902 1474.33 78.9393 1464.43 85.6758 1458.25L95.8493 1466.91C90.4876 1472.13 86.7756 1478.46 86.7756 1486.7C86.7756 1504.16 101.349 1516.26 125.133 1516.26C149.192 1516.26 163.902 1504.99 163.902 1487.12C163.902 1477.91 159.777 1470.76 153.178 1464.71L163.214 1456.18C172.563 1464.3 177.787 1474.61 177.787 1487.67ZM134.619 1422.99V1395.35L121.008 1399.34C110.01 1402.78 98.7364 1405.8 87.3256 1408.96V1409.51C98.8739 1412.4 110.01 1415.56 121.008 1418.86L134.619 1422.99ZM176 1382.98L147.129 1391.5V1426.7L176 1435.36L176 1451.58L74.8149 1418.04V1399.61L176 1366.07V1382.98ZM176 1352.72H74.8149V1336.78H162.527V1294.02H176V1352.72ZM176 1245.32H74.8149V1229.37H116.059V1186.06H74.8149V1170.12H176V1186.06H129.944V1229.37H176V1245.32ZM134.619 1128.29V1100.66L121.008 1104.64C110.01 1108.08 98.7364 1111.1 87.3256 1114.27V1114.82C98.8739 1117.7 110.01 1120.87 121.008 1124.17L134.619 1128.29ZM176 1088.28L147.129 1096.81V1132L176 1140.66V1156.89L74.8149 1123.34L74.8149 1104.92L176 1071.37V1088.28ZM176 1058.03H74.8149V1042.08H122.658V1041.67L74.8149 1003.17V985.438L113.859 1016.78L176 980.214L176 997.949L126.507 1026.54L145.48 1042.08H176V1058.03ZM176 966.867H74.8149V950.919H122.658V950.506L74.8149 912.012V894.277L113.859 925.623L176 889.053V906.788L126.507 935.384L145.48 950.919H176V966.867ZM134.619 861.922V834.289L121.008 838.276C110.01 841.713 98.7364 844.737 87.3256 847.899V848.449C98.8739 851.336 110.01 854.498 121.008 857.798L134.619 861.922ZM176 821.916L147.129 830.439L147.129 865.634L176 874.295V890.518L74.8149 856.973V838.551L176 805.006V821.916ZM176 760.781H74.8149V742.496L125.957 723.937C132.694 721.599 139.568 719.537 146.442 717.2V716.513C139.568 714.175 132.694 712.251 125.957 709.914L74.8149 691.629V673.206H176L176 688.054H125.957C116.884 688.054 103.823 686.817 94.612 685.992V686.542L117.984 694.653L166.239 712.251V722.149L117.984 739.884L94.612 747.858V748.408C103.823 747.721 116.884 746.483 125.957 746.483H176V760.781ZM176 646.662H74.8149V586.858H88.1504V630.714H116.334V593.595H129.807V630.714H162.527V585.346H176V646.662ZM176 564.227H74.8149L74.8149 545.943L125.957 527.383C132.694 525.046 139.568 522.983 146.442 520.646V519.959C139.568 517.622 132.694 515.697 125.957 513.36L74.8149 495.075V476.653H176V491.501H125.957C116.884 491.501 103.823 490.263 94.612 489.438V489.988L117.984 498.1L166.239 515.697V525.596L117.984 543.33L94.612 551.304V551.854C103.823 551.167 116.884 549.93 125.957 549.93H176V564.227ZM177.787 411.614C177.787 437.598 157.578 455.607 124.995 455.607C92.4123 455.607 72.8902 437.598 72.8902 411.614C72.8902 385.63 92.4123 367.483 124.995 367.483C157.578 367.483 177.787 385.63 177.787 411.614ZM163.902 411.614C163.902 394.841 148.779 383.843 124.995 383.843C101.211 383.843 86.7756 394.841 86.7756 411.614C86.7756 428.386 101.211 439.247 124.995 439.247C148.779 439.247 163.902 428.386 163.902 411.614ZM87.6005 330.514H122.383V315.253C122.383 300.543 116.334 292.569 104.098 292.569C91.8624 292.569 87.6005 300.543 87.6005 315.253V330.514ZM176 273.185V291.194L135.169 314.154V330.514H176V346.461H74.8149V313.329C74.8149 292.432 82.2388 276.759 104.098 276.759C119.771 276.759 129.119 285.145 133.106 297.931L176 273.185ZM176 256.374H74.8149L74.8149 240.427H176V256.374ZM134.619 198.689V171.055L121.008 175.042C110.01 178.479 98.7364 181.504 87.3256 184.666V185.216C98.8739 188.103 110.01 191.265 121.008 194.564L134.619 198.689ZM176 158.682L147.129 167.206V202.401L176 211.062V227.285L74.8149 193.74V175.317L176 141.772V158.682ZM176 128.427H74.8149V112.479H162.527L162.527 69.7232H176L176 128.427Z" fill="#F5ECD3"/>
</g>
</svg>
