<svg width="1347" height="480" viewBox="0 0 1347 480" fill="none" xmlns="http://www.w3.org/2000/svg">
<g clip-path="url(#clip0_1201_6802)">
<path d="M1347.94 0H0V480.571H1347.94V0Z" fill="#CECECE"/>
<path d="M1347 438.523H1337.95V459.433H1347V438.523Z" fill="black"/>
<path d="M1258.04 437.928H1237.49V458.837H1258.04V437.928Z" fill="black"/>
<path d="M1153.67 437.928H1129.99V458.837H1153.67V437.928Z" fill="black"/>
<path d="M1049.3 437.928H1022.49V458.837H1049.3V437.928Z" fill="black"/>
<path d="M944.927 437.928H914.986V458.837H944.927V437.928Z" fill="black"/>
<path d="M840.555 437.928H807.486V458.837H840.555V437.928Z" fill="black"/>
<path d="M736.183 437.928H699.986V458.837H736.183V437.928Z" fill="black"/>
<path d="M631.791 437.928H592.466V458.837H631.791V437.928Z" fill="black"/>
<path d="M527.421 437.928H484.967V458.837H527.421V437.928Z" fill="black"/>
<path d="M423.049 437.928H377.467V458.837H423.049V437.928Z" fill="black"/>
<path d="M318.678 437.928H269.967V458.837H318.678V437.928Z" fill="black"/>
<path d="M214.307 437.928H162.468V458.837H214.307V437.928Z" fill="black"/>
<path d="M109.935 437.928H54.9678V458.837H109.935V437.928Z" fill="black"/>
<path d="M1310.45 417.361H1289.89V438.271H1310.45V417.361Z" fill="black"/>
<path d="M1206.08 417.361H1182.39V438.271H1206.08V417.361Z" fill="black"/>
<path d="M1101.7 417.361H1074.89V438.271H1101.7V417.361Z" fill="black"/>
<path d="M997.332 417.361H967.392V438.271H997.332V417.361Z" fill="black"/>
<path d="M892.961 417.361H859.893V438.271H892.961V417.361Z" fill="black"/>
<path d="M788.59 417.361H752.393V438.271H788.59V417.361Z" fill="black"/>
<path d="M684.198 417.361H644.872V438.271H684.198V417.361Z" fill="black"/>
<path d="M579.826 417.361H537.372V438.271H579.826V417.361Z" fill="black"/>
<path d="M475.455 417.361H429.873V438.271H475.455V417.361Z" fill="black"/>
<path d="M371.084 417.361H322.373V438.271H371.084V417.361Z" fill="black"/>
<path d="M266.712 417.361H214.873V438.271H266.712V417.361Z" fill="black"/>
<path d="M162.342 417.361H107.374V438.271H162.342V417.361Z" fill="black"/>
<path d="M54.9676 417.361H0V438.271H54.9676V417.361Z" fill="black"/>
<path d="M1347 396.781H1337.95V417.69H1347V396.781Z" fill="black"/>
<path d="M1258.04 396.186H1237.49V417.095H1258.04V396.186Z" fill="black"/>
<path d="M1153.67 396.186H1129.99V417.095H1153.67V396.186Z" fill="black"/>
<path d="M1049.3 396.186H1022.49V417.095H1049.3V396.186Z" fill="black"/>
<path d="M944.927 396.186H914.986V417.095H944.927V396.186Z" fill="black"/>
<path d="M840.555 396.186H807.486V417.095H840.555V396.186Z" fill="black"/>
<path d="M736.183 396.186H699.986V417.095H736.183V396.186Z" fill="black"/>
<path d="M631.791 396.186H592.466V417.095H631.791V396.186Z" fill="black"/>
<path d="M527.421 396.186H484.967V417.095H527.421V396.186Z" fill="black"/>
<path d="M423.049 396.186H377.467V417.095H423.049V396.186Z" fill="black"/>
<path d="M318.678 396.186H269.967V417.095H318.678V396.186Z" fill="black"/>
<path d="M214.307 396.186H162.468V417.095H214.307V396.186Z" fill="black"/>
<path d="M109.935 396.186H54.9678V417.095H109.935V396.186Z" fill="black"/>
<path d="M1310.45 375.618H1289.89V396.527H1310.45V375.618Z" fill="black"/>
<path d="M1206.08 375.618H1182.39V396.527H1206.08V375.618Z" fill="black"/>
<path d="M1101.7 375.618H1074.89V396.527H1101.7V375.618Z" fill="black"/>
<path d="M997.332 375.618H967.392V396.527H997.332V375.618Z" fill="black"/>
<path d="M892.961 375.618H859.893V396.527H892.961V375.618Z" fill="black"/>
<path d="M788.59 375.618H752.393V396.527H788.59V375.618Z" fill="black"/>
<path d="M684.198 375.618H644.872V396.527H684.198V375.618Z" fill="black"/>
<path d="M579.826 375.618H537.372V396.527H579.826V375.618Z" fill="black"/>
<path d="M475.455 375.618H429.873V396.527H475.455V375.618Z" fill="black"/>
<path d="M371.084 375.618H322.373V396.527H371.084V375.618Z" fill="black"/>
<path d="M266.712 375.618H214.873V396.527H266.712V375.618Z" fill="black"/>
<path d="M162.342 375.618H107.374V396.527H162.342V375.618Z" fill="black"/>
<path d="M54.9676 375.618H0V396.527H54.9676V375.618Z" fill="black"/>
<path d="M1347 355.052H1337.95V375.961H1347V355.052Z" fill="black"/>
<path d="M1258.04 354.456H1237.49V375.365H1258.04V354.456Z" fill="black"/>
<path d="M1153.67 354.456H1129.99V375.365H1153.67V354.456Z" fill="black"/>
<path d="M1049.3 354.456H1022.49V375.365H1049.3V354.456Z" fill="black"/>
<path d="M944.927 354.456H914.986V375.365H944.927V354.456Z" fill="black"/>
<path d="M840.555 354.456H807.486V375.365H840.555V354.456Z" fill="black"/>
<path d="M736.183 354.456H699.986V375.365H736.183V354.456Z" fill="black"/>
<path d="M631.791 354.456H592.466V375.365H631.791V354.456Z" fill="black"/>
<path d="M527.421 354.456H484.967V375.365H527.421V354.456Z" fill="black"/>
<path d="M423.049 354.456H377.467V375.365H423.049V354.456Z" fill="black"/>
<path d="M318.678 354.456H269.967V375.365H318.678V354.456Z" fill="black"/>
<path d="M214.307 354.456H162.468V375.365H214.307V354.456Z" fill="black"/>
<path d="M109.935 354.456H54.9678V375.365H109.935V354.456Z" fill="black"/>
<path d="M1310.45 333.889H1289.89V354.798H1310.45V333.889Z" fill="black"/>
<path d="M1206.08 333.889H1182.39V354.798H1206.08V333.889Z" fill="black"/>
<path d="M1101.7 333.889H1074.89V354.798H1101.7V333.889Z" fill="black"/>
<path d="M997.332 333.889H967.392V354.798H997.332V333.889Z" fill="black"/>
<path d="M892.961 333.889H859.893V354.798H892.961V333.889Z" fill="black"/>
<path d="M788.59 333.889H752.393V354.798H788.59V333.889Z" fill="black"/>
<path d="M684.198 333.889H644.872V354.798H684.198V333.889Z" fill="black"/>
<path d="M579.826 333.889H537.372V354.798H579.826V333.889Z" fill="black"/>
<path d="M475.455 333.889H429.873V354.798H475.455V333.889Z" fill="black"/>
<path d="M371.084 333.889H322.373V354.798H371.084V333.889Z" fill="black"/>
<path d="M266.712 333.889H214.873V354.798H266.712V333.889Z" fill="black"/>
<path d="M162.342 333.889H107.374V354.798H162.342V333.889Z" fill="black"/>
<path d="M54.9676 333.889H0V354.798H54.9676V333.889Z" fill="black"/>
<path d="M1347 313.309H1337.95V334.218H1347V313.309Z" fill="black"/>
<path d="M1258.04 312.726H1237.49V333.635H1258.04V312.726Z" fill="black"/>
<path d="M1153.67 312.726H1129.99V333.635H1153.67V312.726Z" fill="black"/>
<path d="M1049.3 312.726H1022.49V333.635H1049.3V312.726Z" fill="black"/>
<path d="M944.927 312.726H914.986V333.635H944.927V312.726Z" fill="black"/>
<path d="M840.555 312.726H807.486V333.635H840.555V312.726Z" fill="black"/>
<path d="M736.183 312.726H699.986V333.635H736.183V312.726Z" fill="black"/>
<path d="M631.813 312.726H592.487V333.635H631.813V312.726Z" fill="black"/>
<path d="M527.421 312.726H484.967V333.635H527.421V312.726Z" fill="black"/>
<path d="M423.049 312.726H377.467V333.635H423.049V312.726Z" fill="black"/>
<path d="M318.678 312.726H269.967V333.635H318.678V312.726Z" fill="black"/>
<path d="M214.307 312.726H162.468V333.635H214.307V312.726Z" fill="black"/>
<path d="M109.935 312.726H54.9678V333.635H109.935V312.726Z" fill="black"/>
<path d="M1310.45 292.146H1289.89V313.056H1310.45V292.146Z" fill="black"/>
<path d="M1206.08 292.146H1182.39V313.056H1206.08V292.146Z" fill="black"/>
<path d="M1101.7 292.146H1074.89V313.056H1101.7V292.146Z" fill="black"/>
<path d="M997.332 292.146H967.392V313.056H997.332V292.146Z" fill="black"/>
<path d="M892.961 292.146H859.893V313.056H892.961V292.146Z" fill="black"/>
<path d="M788.59 292.146H752.393V313.056H788.59V292.146Z" fill="black"/>
<path d="M684.198 292.146H644.872V313.056H684.198V292.146Z" fill="black"/>
<path d="M579.826 292.146H537.372V313.056H579.826V292.146Z" fill="black"/>
<path d="M475.455 292.146H429.873V313.056H475.455V292.146Z" fill="black"/>
<path d="M371.084 292.146H322.373V313.056H371.084V292.146Z" fill="black"/>
<path d="M266.712 292.146H214.873V313.056H266.712V292.146Z" fill="black"/>
<path d="M162.342 292.146H107.374V313.056H162.342V292.146Z" fill="black"/>
<path d="M54.9676 292.146H0V313.056H54.9676V292.146Z" fill="black"/>
<path d="M1347 271.579H1337.95V292.488H1347V271.579Z" fill="black"/>
<path d="M1258.04 270.983H1237.49V291.893H1258.04V270.983Z" fill="black"/>
<path d="M1153.67 270.983H1129.99V291.893H1153.67V270.983Z" fill="black"/>
<path d="M1049.3 270.983H1022.49V291.893H1049.3V270.983Z" fill="black"/>
<path d="M944.927 270.983H914.986V291.893H944.927V270.983Z" fill="black"/>
<path d="M840.555 270.983H807.486V291.893H840.555V270.983Z" fill="black"/>
<path d="M736.183 270.983H699.986V291.893H736.183V270.983Z" fill="black"/>
<path d="M631.813 270.983H592.487V291.893H631.813V270.983Z" fill="black"/>
<path d="M527.421 270.983H484.967V291.893H527.421V270.983Z" fill="black"/>
<path d="M423.049 270.983H377.467V291.893H423.049V270.983Z" fill="black"/>
<path d="M318.678 270.983H269.967V291.893H318.678V270.983Z" fill="black"/>
<path d="M214.307 270.983H162.468V291.893H214.307V270.983Z" fill="black"/>
<path d="M109.935 270.983H54.9678V291.893H109.935V270.983Z" fill="black"/>
<path d="M1310.45 250.417H1289.89V271.326H1310.45V250.417Z" fill="black"/>
<path d="M1206.08 250.417H1182.39V271.326H1206.08V250.417Z" fill="black"/>
<path d="M1101.7 250.417H1074.89V271.326H1101.7V250.417Z" fill="black"/>
<path d="M997.332 250.417H967.392V271.326H997.332V250.417Z" fill="black"/>
<path d="M892.961 250.417H859.893V271.326H892.961V250.417Z" fill="black"/>
<path d="M788.59 250.417H752.393V271.326H788.59V250.417Z" fill="black"/>
<path d="M684.198 250.417H644.872V271.326H684.198V250.417Z" fill="black"/>
<path d="M579.826 250.417H537.372V271.326H579.826V250.417Z" fill="black"/>
<path d="M475.455 250.417H429.873V271.326H475.455V250.417Z" fill="black"/>
<path d="M371.084 250.417H322.373V271.326H371.084V250.417Z" fill="black"/>
<path d="M266.712 250.417H214.873V271.326H266.712V250.417Z" fill="black"/>
<path d="M162.342 250.417H107.374V271.326H162.342V250.417Z" fill="black"/>
<path d="M54.9676 250.417H0V271.326H54.9676V250.417Z" fill="black"/>
<path d="M1347 229.837H1337.95V250.746H1347V229.837Z" fill="black"/>
<path d="M1258.04 229.254H1237.49V250.163H1258.04V229.254Z" fill="black"/>
<path d="M1153.67 229.254H1129.99V250.163H1153.67V229.254Z" fill="black"/>
<path d="M1049.3 229.254H1022.49V250.163H1049.3V229.254Z" fill="black"/>
<path d="M944.927 229.254H914.986V250.163H944.927V229.254Z" fill="black"/>
<path d="M840.555 229.254H807.486V250.163H840.555V229.254Z" fill="black"/>
<path d="M736.183 229.254H699.986V250.163H736.183V229.254Z" fill="black"/>
<path d="M631.813 229.254H592.487V250.163H631.813V229.254Z" fill="black"/>
<path d="M527.421 229.254H484.967V250.163H527.421V229.254Z" fill="black"/>
<path d="M423.049 229.254H377.467V250.163H423.049V229.254Z" fill="black"/>
<path d="M318.678 229.254H269.967V250.163H318.678V229.254Z" fill="black"/>
<path d="M214.307 229.254H162.468V250.163H214.307V229.254Z" fill="black"/>
<path d="M109.935 229.254H54.9678V250.163H109.935V229.254Z" fill="black"/>
<path d="M1310.45 208.674H1289.89V229.583H1310.45V208.674Z" fill="black"/>
<path d="M1206.08 208.674H1182.39V229.583H1206.08V208.674Z" fill="black"/>
<path d="M1101.7 208.674H1074.89V229.583H1101.7V208.674Z" fill="black"/>
<path d="M997.332 208.674H967.392V229.583H997.332V208.674Z" fill="black"/>
<path d="M892.961 208.674H859.893V229.583H892.961V208.674Z" fill="black"/>
<path d="M788.59 208.674H752.393V229.583H788.59V208.674Z" fill="black"/>
<path d="M684.198 208.674H644.872V229.583H684.198V208.674Z" fill="black"/>
<path d="M579.826 208.674H537.372V229.583H579.826V208.674Z" fill="black"/>
<path d="M475.455 208.674H429.873V229.583H475.455V208.674Z" fill="black"/>
<path d="M371.084 208.674H322.373V229.583H371.084V208.674Z" fill="black"/>
<path d="M266.712 208.674H214.873V229.583H266.712V208.674Z" fill="black"/>
<path d="M162.342 208.674H107.374V229.583H162.342V208.674Z" fill="black"/>
<path d="M54.9676 208.674H0V229.583H54.9676V208.674Z" fill="black"/>
<path d="M1347 188.107H1337.95V209.017H1347V188.107Z" fill="black"/>
<path d="M1258.04 187.512H1237.49V208.421H1258.04V187.512Z" fill="black"/>
<path d="M1153.67 187.512H1129.99V208.421H1153.67V187.512Z" fill="black"/>
<path d="M1049.3 187.512H1022.49V208.421H1049.3V187.512Z" fill="black"/>
<path d="M944.927 187.512H914.986V208.421H944.927V187.512Z" fill="black"/>
<path d="M840.555 187.512H807.486V208.421H840.555V187.512Z" fill="black"/>
<path d="M736.183 187.512H699.986V208.421H736.183V187.512Z" fill="black"/>
<path d="M631.813 187.512H592.487V208.421H631.813V187.512Z" fill="black"/>
<path d="M527.421 187.512H484.967V208.421H527.421V187.512Z" fill="black"/>
<path d="M423.049 187.512H377.467V208.421H423.049V187.512Z" fill="black"/>
<path d="M318.678 187.512H269.967V208.421H318.678V187.512Z" fill="black"/>
<path d="M214.307 187.512H162.468V208.421H214.307V187.512Z" fill="black"/>
<path d="M109.935 187.512H54.9678V208.421H109.935V187.512Z" fill="black"/>
<path d="M1310.45 166.944H1289.89V187.854H1310.45V166.944Z" fill="black"/>
<path d="M1206.08 166.944H1182.39V187.854H1206.08V166.944Z" fill="black"/>
<path d="M1101.7 166.944H1074.89V187.854H1101.7V166.944Z" fill="black"/>
<path d="M997.332 166.944H967.392V187.854H997.332V166.944Z" fill="black"/>
<path d="M892.961 166.944H859.893V187.854H892.961V166.944Z" fill="black"/>
<path d="M788.59 166.944H752.393V187.854H788.59V166.944Z" fill="black"/>
<path d="M684.198 166.944H644.872V187.854H684.198V166.944Z" fill="black"/>
<path d="M579.826 166.944H537.372V187.854H579.826V166.944Z" fill="black"/>
<path d="M475.455 166.944H429.873V187.854H475.455V166.944Z" fill="black"/>
<path d="M371.084 166.944H322.373V187.854H371.084V166.944Z" fill="black"/>
<path d="M266.712 166.944H214.873V187.854H266.712V166.944Z" fill="black"/>
<path d="M162.342 166.944H107.374V187.854H162.342V166.944Z" fill="black"/>
<path d="M54.9676 166.944H0V187.854H54.9676V166.944Z" fill="black"/>
<path d="M1347 146.377H1337.95V167.286H1347V146.377Z" fill="black"/>
<path d="M1258.04 145.781H1237.49V166.691H1258.04V145.781Z" fill="black"/>
<path d="M1153.67 145.781H1129.99V166.691H1153.67V145.781Z" fill="black"/>
<path d="M1049.3 145.781H1022.49V166.691H1049.3V145.781Z" fill="black"/>
<path d="M944.927 145.781H914.986V166.691H944.927V145.781Z" fill="black"/>
<path d="M840.555 145.781H807.486V166.691H840.555V145.781Z" fill="black"/>
<path d="M736.183 145.781H699.986V166.691H736.183V145.781Z" fill="black"/>
<path d="M631.813 145.781H592.487V166.691H631.813V145.781Z" fill="black"/>
<path d="M527.421 145.781H484.967V166.691H527.421V145.781Z" fill="black"/>
<path d="M423.049 145.781H377.467V166.691H423.049V145.781Z" fill="black"/>
<path d="M318.678 145.781H269.967V166.691H318.678V145.781Z" fill="black"/>
<path d="M214.307 145.781H162.468V166.691H214.307V145.781Z" fill="black"/>
<path d="M109.935 145.781H54.9678V166.691H109.935V145.781Z" fill="black"/>
<path d="M1310.45 125.202H1289.89V146.111H1310.45V125.202Z" fill="black"/>
<path d="M1206.08 125.202H1182.39V146.111H1206.08V125.202Z" fill="black"/>
<path d="M1101.7 125.202H1074.89V146.111H1101.7V125.202Z" fill="black"/>
<path d="M997.332 125.202H967.392V146.111H997.332V125.202Z" fill="black"/>
<path d="M892.961 125.202H859.893V146.111H892.961V125.202Z" fill="black"/>
<path d="M788.59 125.202H752.393V146.111H788.59V125.202Z" fill="black"/>
<path d="M684.198 125.202H644.872V146.111H684.198V125.202Z" fill="black"/>
<path d="M579.826 125.202H537.372V146.111H579.826V125.202Z" fill="black"/>
<path d="M475.455 125.202H429.873V146.111H475.455V125.202Z" fill="black"/>
<path d="M371.084 125.202H322.373V146.111H371.084V125.202Z" fill="black"/>
<path d="M266.712 125.202H214.873V146.111H266.712V125.202Z" fill="black"/>
<path d="M162.342 125.202H107.374V146.111H162.342V125.202Z" fill="black"/>
<path d="M54.9676 125.202H0V146.111H54.9676V125.202Z" fill="black"/>
<path d="M1347 104.635H1337.95V125.544H1347V104.635Z" fill="black"/>
<path d="M1258.04 104.039H1237.49V124.948H1258.04V104.039Z" fill="black"/>
<path d="M1153.67 104.039H1129.99V124.948H1153.67V104.039Z" fill="black"/>
<path d="M1049.3 104.039H1022.49V124.948H1049.3V104.039Z" fill="black"/>
<path d="M944.927 104.039H914.986V124.948H944.927V104.039Z" fill="black"/>
<path d="M840.555 104.039H807.486V124.948H840.555V104.039Z" fill="black"/>
<path d="M736.183 104.039H699.986V124.948H736.183V104.039Z" fill="black"/>
<path d="M631.813 104.039H592.487V124.948H631.813V104.039Z" fill="black"/>
<path d="M527.421 104.039H484.967V124.948H527.421V104.039Z" fill="black"/>
<path d="M423.049 104.039H377.467V124.948H423.049V104.039Z" fill="black"/>
<path d="M318.678 104.039H269.967V124.948H318.678V104.039Z" fill="black"/>
<path d="M214.307 104.039H162.468V124.948H214.307V104.039Z" fill="black"/>
<path d="M109.935 104.039H54.9678V124.948H109.935V104.039Z" fill="black"/>
<path d="M1310.45 83.4727H1289.89V104.382H1310.45V83.4727Z" fill="black"/>
<path d="M1206.08 83.4727H1182.39V104.382H1206.08V83.4727Z" fill="black"/>
<path d="M1101.7 83.4727H1074.89V104.382H1101.7V83.4727Z" fill="black"/>
<path d="M997.332 83.4727H967.392V104.382H997.332V83.4727Z" fill="black"/>
<path d="M892.961 83.4727H859.893V104.382H892.961V83.4727Z" fill="black"/>
<path d="M788.59 83.4727H752.393V104.382H788.59V83.4727Z" fill="black"/>
<path d="M684.198 83.4727H644.872V104.382H684.198V83.4727Z" fill="black"/>
<path d="M579.826 83.4727H537.372V104.382H579.826V83.4727Z" fill="black"/>
<path d="M475.455 83.4727H429.873V104.382H475.455V83.4727Z" fill="black"/>
<path d="M371.084 83.4727H322.373V104.382H371.084V83.4727Z" fill="black"/>
<path d="M266.712 83.4727H214.873V104.382H266.712V83.4727Z" fill="black"/>
<path d="M162.342 83.4727H107.374V104.382H162.342V83.4727Z" fill="black"/>
<path d="M54.9676 83.4727H0V104.382H54.9676V83.4727Z" fill="black"/>
<path d="M1347 62.9053H1337.95V83.8145H1347V62.9053Z" fill="black"/>
<path d="M1258.04 62.3096H1237.49V83.2188H1258.04V62.3096Z" fill="black"/>
<path d="M1153.67 62.3096H1129.99V83.2188H1153.67V62.3096Z" fill="black"/>
<path d="M1049.3 62.3096H1022.49V83.2188H1049.3V62.3096Z" fill="black"/>
<path d="M944.927 62.3096H914.986V83.2188H944.927V62.3096Z" fill="black"/>
<path d="M840.555 62.3096H807.486V83.2188H840.555V62.3096Z" fill="black"/>
<path d="M736.183 62.3096H699.986V83.2188H736.183V62.3096Z" fill="black"/>
<path d="M631.813 62.3096H592.487V83.2188H631.813V62.3096Z" fill="black"/>
<path d="M527.421 62.3096H484.967V83.2188H527.421V62.3096Z" fill="black"/>
<path d="M423.049 62.3096H377.467V83.2188H423.049V62.3096Z" fill="black"/>
<path d="M318.678 62.3096H269.967V83.2188H318.678V62.3096Z" fill="black"/>
<path d="M214.307 62.3096H162.468V83.2188H214.307V62.3096Z" fill="black"/>
<path d="M109.935 62.3096H54.9678V83.2188H109.935V62.3096Z" fill="black"/>
<path d="M1347 21.1631H1337.95V42.0723H1347V21.1631Z" fill="black"/>
<path d="M1258.04 20.5674H1237.49V41.4766H1258.04V20.5674Z" fill="black"/>
<path d="M1153.67 20.5674H1129.99V41.4766H1153.67V20.5674Z" fill="black"/>
<path d="M1049.3 20.5674H1022.49V41.4766H1049.3V20.5674Z" fill="black"/>
<path d="M944.927 20.5674H914.986V41.4766H944.927V20.5674Z" fill="black"/>
<path d="M840.555 20.5674H807.486V41.4766H840.555V20.5674Z" fill="black"/>
<path d="M736.183 20.5674H699.986V41.4766H736.183V20.5674Z" fill="black"/>
<path d="M631.813 20.5674H592.487V41.4766H631.813V20.5674Z" fill="black"/>
<path d="M527.421 20.5674H484.967V41.4766H527.421V20.5674Z" fill="black"/>
<path d="M423.049 20.5674H377.467V41.4766H423.049V20.5674Z" fill="black"/>
<path d="M318.678 20.5674H269.967V41.4766H318.678V20.5674Z" fill="black"/>
<path d="M214.307 20.5674H162.468V41.4766H214.307V20.5674Z" fill="black"/>
<path d="M109.935 20.5674H54.9678V41.4766H109.935V20.5674Z" fill="black"/>
<path d="M1310.45 41.7295H1289.89V62.6388H1310.45V41.7295Z" fill="black"/>
<path d="M1206.08 41.7295H1182.39V62.6388H1206.08V41.7295Z" fill="black"/>
<path d="M1101.7 41.7295H1074.89V62.6388H1101.7V41.7295Z" fill="black"/>
<path d="M997.332 41.7295H967.392V62.6388H997.332V41.7295Z" fill="black"/>
<path d="M892.961 41.7295H859.893V62.6388H892.961V41.7295Z" fill="black"/>
<path d="M788.59 41.7295H752.393V62.6388H788.59V41.7295Z" fill="black"/>
<path d="M684.198 41.7295H644.872V62.6388H684.198V41.7295Z" fill="black"/>
<path d="M579.826 41.7295H537.372V62.6388H579.826V41.7295Z" fill="black"/>
<path d="M475.455 41.7295H429.873V62.6388H475.455V41.7295Z" fill="black"/>
<path d="M371.084 41.7295H322.373V62.6388H371.084V41.7295Z" fill="black"/>
<path d="M266.712 41.7295H214.873V62.6388H266.712V41.7295Z" fill="black"/>
<path d="M162.342 41.7295H107.374V62.6388H162.342V41.7295Z" fill="black"/>
<path d="M54.9676 41.7295H0V62.6388H54.9676V41.7295Z" fill="black"/>
<path d="M1310.45 0H1289.89V20.9093H1310.45V0Z" fill="black"/>
<path d="M1206.08 0H1182.39V20.9093H1206.08V0Z" fill="black"/>
<path d="M1101.7 0H1074.89V20.9093H1101.7V0Z" fill="black"/>
<path d="M997.332 0H967.392V20.9093H997.332V0Z" fill="black"/>
<path d="M892.961 0H859.893V20.9093H892.961V0Z" fill="black"/>
<path d="M788.59 0H752.393V20.9093H788.59V0Z" fill="black"/>
<path d="M684.198 0H644.872V20.9093H684.198V0Z" fill="black"/>
<path d="M579.826 0H537.372V20.9093H579.826V0Z" fill="black"/>
<path d="M475.455 0H429.873V20.9093H475.455V0Z" fill="black"/>
<path d="M371.084 0H322.373V20.9093H371.084V0Z" fill="black"/>
<path d="M266.712 0H214.873V20.9093H266.712V0Z" fill="black"/>
<path d="M162.342 0H107.374V20.9093H162.342V0Z" fill="black"/>
<path d="M54.9676 0H0V20.9093H54.9676V0Z" fill="black"/>
<path d="M1310.45 459.091H1289.89V480H1310.45V459.091Z" fill="black"/>
<path d="M1206.08 459.091H1182.39V480H1206.08V459.091Z" fill="black"/>
<path d="M1101.7 459.091H1074.89V480H1101.7V459.091Z" fill="black"/>
<path d="M997.332 459.091H967.392V480H997.332V459.091Z" fill="black"/>
<path d="M892.961 459.091H859.893V480H892.961V459.091Z" fill="black"/>
<path d="M788.59 459.091H752.393V480H788.59V459.091Z" fill="black"/>
<path d="M684.198 459.091H644.872V480H684.198V459.091Z" fill="black"/>
<path d="M579.826 459.091H537.372V480H579.826V459.091Z" fill="black"/>
<path d="M475.455 459.091H429.873V480H475.455V459.091Z" fill="black"/>
<path d="M371.084 459.091H322.373V480H371.084V459.091Z" fill="black"/>
<path d="M266.712 459.091H214.873V480H266.712V459.091Z" fill="black"/>
<path d="M162.342 459.091H107.374V480H162.342V459.091Z" fill="black"/>
<path d="M54.9676 459.091H0V480H54.9676V459.091Z" fill="black"/>
</g>
<defs>
<clipPath id="clip0_1201_6802">
<rect width="1347" height="480" fill="white"/>
</clipPath>
</defs>
</svg>
