<svg width="142" height="100" viewBox="0 0 142 100" fill="none" xmlns="http://www.w3.org/2000/svg">
<g clip-path="url(#clip0_863_7123)">
<path d="M141.333 0H0V100H141.333V0Z" fill="#506E91"/>
<path d="M58.3288 100C57.2499 99.965 56.178 99.965 55.0992 99.965C37.3186 99.965 19.5381 99.972 1.75062 99.972C1.16915 99.972 0.580668 99.951 -0.000806784 99.9369C-0.000806784 96.5454 -0.000806784 93.154 -0.000806784 89.7625C5.37958 90.5403 10.753 91.3181 16.1334 92.0889C31.8682 94.3382 47.61 96.5875 63.3449 98.8368C65.1874 99.1031 67.0439 99.3483 68.8864 99.6076C68.8164 99.4184 68.6902 99.3553 68.5501 99.3133C52.6892 94.5624 36.8212 89.8185 20.9673 85.0676C13.9686 82.9725 6.98389 80.8563 -0.0078125 78.7541C-0.000806784 74.6899 -0.000806784 70.6328 -0.000806784 66.5686C4.12556 68.5096 8.24492 70.4506 12.3713 72.3916C30.3269 80.8493 48.2826 89.314 66.2383 97.7717C67.2611 98.2552 68.2909 98.7317 69.3138 99.2152C69.3628 99.1731 69.4048 99.1381 69.4539 99.0961C54.3565 88.4171 39.2522 77.7451 24.1549 67.0661C24.225 67.017 24.288 66.975 24.3581 66.9259C35.266 72.0762 46.1809 77.2195 57.0888 82.3699C55.5826 81.1856 53.9852 80.0855 52.3529 78.9994C37.6829 69.3224 23.013 59.6314 8.32899 49.9475C5.57574 48.1326 2.78046 46.3457 -0.000806784 44.5519C-0.000806784 40.8241 -0.000806784 37.1032 -0.000806784 33.3754C0.202359 33.5085 0.440553 33.6206 0.608691 33.7678C3.71222 36.3885 6.81576 39.0022 9.90528 41.6299C25.1777 54.6002 40.4502 67.5706 55.7297 80.541C56.4443 81.1506 57.1939 81.7462 57.9225 82.3418C57.9084 81.9915 57.7333 81.7112 57.5442 81.4379C47.6521 67.4655 37.753 53.4931 27.8679 39.5207C21.0233 29.8438 14.2068 20.1598 7.3622 10.4828C4.93122 7.04227 2.4582 3.44056 0.00619893 0.00702057H1.12711C17.9548 1.33519e-05 34.7896 0.00702057 51.6243 0.00702057C51.6734 0.504533 51.6804 1.00205 51.7785 1.49255C52.6542 6.06826 53.5439 10.637 54.4196 15.2127C55.8628 22.7314 57.306 30.2572 58.7561 37.7829C60.1573 45.0564 61.5654 52.3299 62.9736 59.6034C64.1015 65.4194 65.2364 71.2284 66.3503 77.0444C67.4853 82.9444 68.5922 88.8375 69.7201 94.7376C69.9863 96.125 70.2805 97.5054 70.5958 99.0751C70.7709 98.8228 70.848 98.7597 70.862 98.6897C71.3594 96.16 71.8638 93.6234 72.3472 91.0868C73.8114 83.456 75.2546 75.8181 76.7258 68.1872C78.183 60.6124 79.6612 53.0306 81.1254 45.4558C82.5335 38.1823 83.9417 30.9088 85.3358 23.6354C86.4567 17.7913 87.5636 11.9543 88.6916 6.11031C89.0839 4.07121 89.5393 2.03911 89.9666 0.00702057C106.752 0.00702057 123.475 1.33519e-05 140.268 0.00702057H141.347C140.303 1.45751 139.231 3.07618 138.201 4.52668C120.841 29.08 103.481 53.6333 86.1275 78.1935C85.1677 79.5529 84.2079 80.9193 83.2411 82.2788C83.7035 82.1386 83.9697 81.9354 84.2289 81.7182C88.1661 78.3687 92.0893 75.0193 96.0336 71.6768C108.763 60.8787 121.499 50.0876 134.243 39.2965C136.59 37.3134 138.972 35.3514 141.34 33.3754C141.34 37.1032 141.34 40.8241 141.34 44.5519C141.087 44.692 140.814 44.8252 140.576 44.9793C135.378 48.3989 130.186 51.8184 124.995 55.2449C111.831 63.9339 98.6747 72.6298 85.511 81.3118C85.0276 81.6271 84.4881 81.9074 83.9767 82.2017C84.0678 82.2647 84.1589 82.3278 84.2429 82.3909C95.1578 77.2406 106.073 72.0903 116.988 66.94C117.009 67.1782 116.89 67.2903 116.749 67.3884C111.257 71.2774 105.771 75.1664 100.272 79.0484C90.9124 85.6632 81.5387 92.271 72.1931 98.8929C72.011 99.019 72.004 99.2572 71.9129 99.4464L71.8919 99.4324C72.3262 99.4604 72.7816 99.5656 73.1879 99.5095C76.3755 99.0751 79.5561 98.6126 82.7367 98.1571C95.7884 96.2932 108.84 94.4293 121.892 92.5654C128.372 91.6404 134.852 90.6944 141.333 89.7625C141.333 93.154 141.333 96.5454 141.333 99.9369C140.835 99.951 140.331 99.972 139.833 99.972C125.766 99.972 111.705 99.972 97.6379 99.972C92.7058 99.972 87.7668 99.972 84.0398 99.972" fill="#141915"/>
</g>
<defs>
<clipPath id="clip0_863_7123">
<rect width="141.333" height="100" fill="white"/>
</clipPath>
</defs>
</svg>
