<svg width="141" height="100" viewBox="0 0 141 100" fill="none" xmlns="http://www.w3.org/2000/svg">
<path d="M141 0.00683594H0V100.007H141V0.00683594Z" fill="#95A79C"/>
<path d="M70.4834 50.2388V40.2886H60.0835V50.2388H70.4834Z" fill="#141915"/>
<path d="M60.0791 28.7017V22.0308C60.0791 21.1269 60.813 20.3911 61.7146 20.3911H68.8435C69.7452 20.3911 70.479 21.1269 70.479 22.0308V28.7017C70.479 29.6056 69.7452 30.3414 68.8435 30.3414H61.7146C60.813 30.3414 60.0791 29.6056 60.0791 28.7017Z" fill="#141915"/>
<path d="M70.4805 10.4352V0.00146484L60.0805 0.00146484V10.4352L70.4805 10.4352Z" fill="#141915"/>
<path d="M50.4014 10.4347V0.000976562L40.0014 0.000976562V10.4347L50.4014 10.4347Z" fill="#141915"/>
<path d="M70.4863 70.1417V60.1914H60.0864V70.1417H70.4863Z" fill="#141915"/>
<path d="M60.0791 60.1959V50.2456H50.1614V60.1959H60.0791Z" fill="#141915"/>
<path d="M60.084 40.2925V30.3423L50.1663 30.3423V40.2925H60.084Z" fill="#141915"/>
<path d="M60.0811 20.3897V10.4395L50.1634 10.4395V20.3897H60.0811Z" fill="#141915"/>
<path d="M50.1611 78.4605V71.7896C50.1611 70.8857 50.895 70.1499 51.7966 70.1499H58.4433C59.3449 70.1499 60.0788 70.8857 60.0788 71.7896V78.4605C60.0788 79.3644 59.3449 80.1001 58.4433 80.1001H51.7966C50.895 80.1001 50.1611 79.3644 50.1611 78.4605Z" fill="#141915"/>
<path d="M40.2432 48.6026V41.9317C40.2432 41.0278 40.977 40.292 41.8786 40.292H48.5254C49.427 40.292 50.1608 41.0278 50.1608 41.9317V48.6026C50.1608 49.5065 49.427 50.2422 48.5254 50.2422H41.8786C40.977 50.2422 40.2432 49.5065 40.2432 48.6026Z" fill="#141915"/>
<path d="M50.1641 30.3418V20.3916L40.2464 20.3916V30.3418H50.1641Z" fill="#141915"/>
<path d="M50.1621 70.1485V60.1982H40.2444V70.1485H50.1621Z" fill="#141915"/>
<path d="M40.2422 60.191V50.2407H30.3245V60.191H40.2422Z" fill="#141915"/>
<path d="M40.2461 40.2877V30.3374L30.3284 30.3374V40.2877H40.2461Z" fill="#141915"/>
<path d="M30.3252 18.7442V12.0733C30.3252 11.1694 31.0591 10.4336 31.9607 10.4336H38.6074C39.509 10.4336 40.2429 11.1694 40.2429 12.0733V18.7442C40.2429 19.6481 39.509 20.3838 38.6074 20.3838H31.9607C31.0591 20.3908 30.3252 19.6551 30.3252 18.7442Z" fill="#141915"/>
<path d="M30.3252 78.4605V71.7896C30.3252 70.8857 31.0591 70.1499 31.9607 70.1499H38.6074C39.509 70.1499 40.2429 70.8857 40.2429 71.7896V78.4605C40.2429 79.3644 39.509 80.1001 38.6074 80.1001H31.9607C31.0591 80.1001 30.3252 79.3644 30.3252 78.4605Z" fill="#141915"/>
<path d="M30.3223 10.4342L30.3223 0.000488281L19.9223 0.000488281V10.4342L30.3223 10.4342Z" fill="#141915"/>
<path d="M30.0801 50.2447L30.0801 40.2944H20.1624V50.2447H30.0801Z" fill="#141915"/>
<path d="M30.085 30.3414L30.085 20.3911L20.1673 20.3911V30.3414H30.085Z" fill="#141915"/>
<path d="M30.082 70.1475L30.082 60.1973H20.1644V70.1475H30.082Z" fill="#141915"/>
<path d="M10.2461 58.5527V51.8819C10.2461 50.9779 10.98 50.2422 11.8816 50.2422H18.5283C19.4299 50.2422 20.1638 50.9779 20.1638 51.8819V58.5527C20.1638 59.4567 19.4299 60.1924 18.5283 60.1924H11.8816C10.98 60.1924 10.2461 59.4637 10.2461 58.5527Z" fill="#141915"/>
<path d="M20.167 40.2867L20.167 30.3364L10.2493 30.3364L10.2493 40.2867H20.167Z" fill="#141915"/>
<path d="M20.1641 20.3838L20.1641 10.4336L10.2464 10.4336L10.2464 20.3838H20.1641Z" fill="#141915"/>
<path d="M20.165 80.0933L20.165 70.1431H10.2474L10.2474 80.0933H20.165Z" fill="#141915"/>
<path d="M70.4814 90.045V80.0947H60.0815V90.045H70.4814Z" fill="#141915"/>
<path d="M50.1611 98.3604V91.6895C50.1611 90.7856 50.895 90.0498 51.7966 90.0498H58.4433C59.3449 90.0498 60.0788 90.7856 60.0788 91.6895V98.3604C60.0788 99.2643 59.3449 100 58.4433 100H51.7966C50.895 100 50.1611 99.2643 50.1611 98.3604Z" fill="#141915"/>
<path d="M90.8047 50.2422V40.292H80.4048V50.2422H90.8047Z" fill="#141915"/>
<path d="M80.4033 28.7017V22.0308C80.4033 21.1269 81.1372 20.3911 82.0388 20.3911H89.1678C90.0694 20.3911 90.8032 21.1269 90.8032 22.0308V28.7017C90.8032 29.6056 90.0694 30.3414 89.1678 30.3414H82.0388C81.1372 30.3414 80.4033 29.6056 80.4033 28.7017Z" fill="#141915"/>
<path d="M90.8027 10.4313V-0.00244141L80.4028 -0.00244141V10.4313L90.8027 10.4313Z" fill="#141915"/>
<path d="M90.8076 70.1451V60.1948H80.4077V70.1451H90.8076Z" fill="#141915"/>
<path d="M80.4004 60.192V50.2417H70.4827V60.192H80.4004Z" fill="#141915"/>
<path d="M80.4053 40.2891V30.3389L70.4876 30.3389V40.2891H80.4053Z" fill="#141915"/>
<path d="M80.4023 20.3853V10.4351L70.4847 10.4351V20.3853H80.4023Z" fill="#141915"/>
<path d="M70.4854 78.4605V71.7896C70.4854 70.8857 71.2192 70.1499 72.1208 70.1499H78.7675C79.6692 70.1499 80.403 70.8857 80.403 71.7896V78.4605C80.403 79.3644 79.6692 80.1001 78.7675 80.1001H72.1208C71.2192 80.1001 70.4854 79.3644 70.4854 78.4605Z" fill="#141915"/>
<path d="M90.8027 90.0479V80.0977H80.4028V90.0479H90.8027Z" fill="#141915"/>
<path d="M70.4854 98.3604V91.6895C70.4854 90.7856 71.2192 90.0498 72.1208 90.0498H78.7675C79.6692 90.0498 80.403 90.7856 80.403 91.6895V98.3604C80.403 99.2643 79.6692 100 78.7675 100H72.1208C71.2192 100 70.4854 99.2643 70.4854 98.3604Z" fill="#141915"/>
<path d="M50.1641 90.0513V80.1011H40.2464V90.0513H50.1641Z" fill="#141915"/>
<path d="M30.3252 98.3604V91.6895C30.3252 90.7856 31.0591 90.0498 31.9607 90.0498H38.6074C39.509 90.0498 40.2429 90.7856 40.2429 91.6895V98.3604C40.2429 99.2643 39.509 100 38.6074 100H31.9607C31.0591 100 30.3252 99.2643 30.3252 98.3604Z" fill="#141915"/>
<path d="M130.964 50.2427V40.2925H120.564V50.2427H130.964Z" fill="#141915"/>
<path d="M120.563 28.7017V22.0308C120.563 21.1269 121.297 20.3911 122.199 20.3911H129.328C130.23 20.3911 130.963 21.1269 130.963 22.0308V28.7017C130.963 29.6056 130.23 30.3414 129.328 30.3414H122.199C121.297 30.3414 120.563 29.6056 120.563 28.7017Z" fill="#141915"/>
<path d="M130.961 10.4318V-0.00195312L120.561 -0.00195313V10.4318L130.961 10.4318Z" fill="#141915"/>
<path d="M110.882 10.4318V-0.00195312L100.482 -0.00195313V10.4318L110.882 10.4318Z" fill="#141915"/>
<path d="M130.967 70.1456V60.1953H120.567V70.1456H130.967Z" fill="#141915"/>
<path d="M120.56 60.1929V50.2427H110.642V60.1929H120.56Z" fill="#141915"/>
<path d="M120.563 40.2896V30.3394L110.646 30.3394V40.2896H120.563Z" fill="#141915"/>
<path d="M120.562 20.3868V10.4365L110.644 10.4365V20.3868H120.562Z" fill="#141915"/>
<path d="M110.646 78.4605V71.7896C110.646 70.8857 111.379 70.1499 112.281 70.1499H118.928C119.829 70.1499 120.563 70.8857 120.563 71.7896V78.4605C120.563 79.3644 119.829 80.1001 118.928 80.1001H112.281C111.372 80.1001 110.646 79.3644 110.646 78.4605Z" fill="#141915"/>
<path d="M100.721 48.6026V41.9317C100.721 41.0278 101.455 40.292 102.356 40.292H109.003C109.905 40.292 110.638 41.0278 110.638 41.9317V48.6026C110.638 49.5065 109.905 50.2422 109.003 50.2422H102.356C101.455 50.2422 100.721 49.5065 100.721 48.6026Z" fill="#141915"/>
<path d="M110.644 30.3394V20.3892L100.726 20.3892V30.3394H110.644Z" fill="#141915"/>
<path d="M110.642 70.1456V60.1953H100.724V70.1456H110.642Z" fill="#141915"/>
<path d="M100.722 60.1954V50.2451H90.804V60.1954H100.722Z" fill="#141915"/>
<path d="M100.727 40.2916V30.3413L90.8089 30.3413V40.2916H100.727Z" fill="#141915"/>
<path d="M90.8027 18.7442V12.0733C90.8027 11.1694 91.5366 10.4336 92.4382 10.4336H99.0849C99.9865 10.4336 100.72 11.1694 100.72 12.0733V18.7442C100.72 19.6481 99.9865 20.3838 99.0849 20.3838H92.4382C91.5366 20.3908 90.8027 19.6551 90.8027 18.7442Z" fill="#141915"/>
<path d="M90.8027 78.4605V71.7896C90.8027 70.8857 91.5366 70.1499 92.4382 70.1499H99.0849C99.9865 70.1499 100.72 70.8857 100.72 71.7896V78.4605C100.72 79.3644 99.9865 80.1001 99.0849 80.1001H92.4382C91.5366 80.1001 90.8027 79.3644 90.8027 78.4605Z" fill="#141915"/>
<path d="M130.962 90.0489V80.0986H120.562V90.0489H130.962Z" fill="#141915"/>
<path d="M110.646 98.3604V91.6895C110.646 90.7856 111.379 90.0498 112.281 90.0498H118.928C119.829 90.0498 120.563 90.7856 120.563 91.6895V98.3604C120.563 99.2643 119.829 100 118.928 100H112.281C111.372 100 110.646 99.2643 110.646 98.3604Z" fill="#141915"/>
<path d="M140.881 60.1959V50.2456H130.963V60.1959H140.881Z" fill="#141915"/>
<path d="M140.885 40.293V30.3428L130.967 30.3428V40.293H140.885Z" fill="#141915"/>
<path d="M140.883 20.3902V10.4399L130.965 10.4399V20.3902H140.883Z" fill="#141915"/>
<path d="M130.963 78.4605V71.7896C130.963 70.8857 131.697 70.1499 132.598 70.1499H139.245C140.147 70.1499 140.881 70.8857 140.881 71.7896V78.4605C140.881 79.3644 140.147 80.1001 139.245 80.1001H132.598C131.697 80.1001 130.963 79.3644 130.963 78.4605Z" fill="#141915"/>
<path d="M140.887 100.002V90.0518H130.969V100.002H140.887Z" fill="#141915"/>
<path d="M110.645 90.0484V80.0981H100.727V90.0484H110.645Z" fill="#141915"/>
<path d="M90.8027 98.3604V91.6895C90.8027 90.7856 91.5366 90.0498 92.4382 90.0498H99.0849C99.9865 90.0498 100.72 90.7856 100.72 91.6895V98.3604C100.72 99.2643 99.9865 100 99.0849 100H92.4382C91.5366 100 90.8027 99.2643 90.8027 98.3604Z" fill="#141915"/>
<path d="M30.085 90.0503L30.085 80.1001H20.1673V90.0503H30.085Z" fill="#141915"/>
<path d="M10.5186 10.4377L10.5186 0.00390625L0.118634 0.00390625L0.118634 10.4377L10.5186 10.4377Z" fill="#141915"/>
<path d="M10.2803 50.2432L10.2803 40.293H0.117985L0.117985 50.2432H10.2803Z" fill="#141915"/>
<path d="M10.2783 30.3399L10.2783 20.3896L0.116032 20.3896L0.116032 30.3399H10.2783Z" fill="#141915"/>
<path d="M10.2764 70.146L10.2764 60.1958H0.114079L0.114079 70.146H10.2764Z" fill="#141915"/>
<path d="M10.2793 90.0489L10.2793 80.0986H0.117014L0.117014 90.0489H10.2793Z" fill="#141915"/>
<path d="M20.167 99.9961L20.167 90.0459H10.2493L10.2493 99.9961H20.167Z" fill="#141915"/>
</svg>
