<svg width="183" height="120" viewBox="0 0 183 120" fill="none" xmlns="http://www.w3.org/2000/svg">
<path d="M1.77608e-05 0.0001297L0 120L182.185 120L182.185 0.000261156L1.77608e-05 0.0001297Z" fill="#BF3B24"/>
<path d="M36.4051 12.2837C31.3358 16.9042 26.6094 20.8339 22.1519 25.361C10.3728 37.3183 9.8148 57.2843 20.6325 71.0991C28.3306 80.9374 37.3733 86.846 47.0278 90.7198C77.2016 102.808 107.369 102.649 137.408 89.553C146.034 85.7913 154.088 80.1347 161.121 71.6405C168.1 63.2116 172.335 49.0048 166.775 35.3301C164.079 28.7027 159.985 24.2969 155.554 20.5072C152.73 18.0896 149.873 15.7654 147.036 13.3945C147.11 13.1518 147.184 12.8998 147.251 12.6571C151.002 15.084 154.828 17.3055 158.499 19.9845C164.812 24.5956 170.58 30.3549 175.374 38.149C182.662 49.9849 183.314 65.3958 176.988 78.4265C171.623 89.469 163.965 96.003 155.904 101.594C141.886 111.311 126.96 115.988 111.651 118.312C87.5756 121.962 63.7888 119.955 40.4996 109.696C29.8971 105.02 19.8055 98.6913 11.1729 88.0688C7.42806 83.439 4.40933 77.9878 2.3722 71.5098C-0.700315 61.7181 0.62416 52.4025 4.23453 43.4602C8.20123 33.6312 14.4874 27.7413 20.8947 22.1314C25.6211 17.9963 30.5761 14.4773 36.4051 12.2837Z" fill="black"/>
<path d="M57.4087 4.84375C53.442 8.2601 49.9191 11.0137 46.5911 14.2154C41.4612 19.1532 40.5469 29.4956 44.5069 36.347C47.2634 41.1168 50.82 44.2811 54.6925 46.6147C69.1138 55.3049 84.2008 57.1625 99.5633 55.6223C109.393 54.6329 119.047 52.1593 128.043 45.9333C131.956 43.2264 136.003 40.4541 138.41 34.6481C141.543 27.106 140.689 19.4613 135.828 14.2621C132.789 11.0137 129.388 8.50279 126.248 5.06777C129.388 6.74795 132.588 8.22276 135.647 10.1643C140.642 13.3473 145.355 17.1744 149.49 22.5976C155.79 30.8678 157.02 44.9252 148.434 55.5103C142.72 62.5484 136.117 66.9541 129.112 70.1745C112.472 77.8193 95.4151 79.3127 78.1566 77.3059C66.754 75.9804 55.6338 72.7041 45.1119 65.8714C40.1905 62.679 35.6322 58.6933 31.7865 52.8874C25.0364 42.6756 26.7844 30.6717 32.5664 22.9616C39.1484 14.1874 47.0617 8.37211 55.7615 5.20779C56.0977 5.08644 56.4473 5.05844 57.4087 4.84375Z" fill="black"/>
<path d="M123.074 6.88834C127.114 12.8063 126.617 20.3297 122.045 24.8289C116.956 29.832 111.281 32.5763 105.297 33.9951C92.1267 37.1128 79.0903 36.8141 66.4372 29.7667C64.2589 28.5532 62.2218 26.6864 60.2452 24.8289C57.8584 22.5886 56.0162 19.583 56.3927 15.0092C56.8163 9.93132 58.5643 5.73089 61.8991 4.25607C65.4825 2.66924 69.261 1.71714 72.9991 1.22242C87.2725 -0.681774 101.539 -0.355074 115.779 2.20252C118.63 2.70658 121.258 3.77069 123.074 6.88834Z" fill="black"/>
</svg>
