<svg width="156" height="34" viewBox="0 0 156 34" fill="none" xmlns="http://www.w3.org/2000/svg">
<path d="M11.66 1.31001C10.7 3.81001 9.56 6.35001 8.27 8.78001V33.87H5.04V14.07C4.05 15.51 2.98 16.79 1.91 17.93C1.58 17.16 0.59 15.28 0 14.51C3.35 11.01 6.51 5.72001 8.39 0.350006L11.66 1.31001ZM16.04 13.81C16.04 19.77 15.6 28.41 12.4 33.97C11.77 33.49 10.34 32.64 9.49 32.31C12.58 27.02 12.84 19.4 12.84 13.81V1.75001H34.11V4.77001H16.04V13.81ZM34.69 29.89V32.79H14.86V29.89H23.39V25.44H17V22.64H23.4V19.04H26.57V22.64H33.56V25.44H26.57V29.89H34.69ZM23.4 15.54V11.71H17.59V8.96001H23.4V5.54001H26.57V8.96001H32.9V11.72H26.57V15.55H34.15V18.35H16.75V15.55H23.4V15.54Z" fill="#241D1A"/>
<path d="M67.2 19.4V22.16H73.75V25.1H67.2V30.18C67.2 31.98 66.76 32.9 65.4 33.38C64.04 33.89 62.02 33.93 59.11 33.93C58.93 32.98 58.34 31.58 57.86 30.73C60.07 30.8 62.24 30.8 62.86 30.77C63.52 30.73 63.67 30.62 63.67 30.11V25.11H51.05C53.11 26.55 55.39 28.53 56.46 30.08L53.81 32.25C52.71 30.56 50.17 28.24 47.96 26.62L49.95 25.11H42.85V22.17H63.67V19.41H41.63V16.51H56.35V13.71H45.27V10.88H56.34V8.68H57.22C56.71 8.31 56.19 7.98 55.78 7.76C56.44 7.21 57.07 6.62 57.62 5.92H51.62C52.1 6.95 52.58 8.02 52.8 8.79L49.86 9.93C49.56 8.9 48.9 7.28 48.24 5.92H47.21C46.15 7.58 44.93 9.12 43.75 10.3C43.12 9.75 41.73 8.79 40.92 8.35C43.24 6.32 45.37 3.13 46.59 0L49.87 0.85C49.57 1.62 49.21 2.36 48.84 3.09H57.74V5.81C59.14 4.12 60.35 2.09 61.05 0L64.36 0.78C64.06 1.59 63.73 2.32 63.37 3.09H74.48V5.92H67.46C68.16 6.95 68.82 7.98 69.19 8.83L66.25 10.04C65.81 8.98 64.78 7.28 63.78 5.92H61.76C61.1 6.95 60.4 7.83 59.66 8.68H59.88V10.88H71.36V13.71H59.87V16.51H74.77V19.41H67.2V19.4Z" fill="#241D1A"/>
<path d="M81.67 6.24001H96.35V8.96H81.67V6.24001ZM94.84 31.91H86.34V33.46H83.32V21.1H94.84V31.91ZM83.4 11.24H94.95V13.89H83.4V11.24ZM83.4 16.13H94.95V18.81H83.4V16.13ZM95.07 4.06H83.63V1.38H95.07V4.06ZM86.35 23.85V29.15H91.8V23.85H86.35ZM110.08 30.33C111.92 30.33 112.18 29.41 112.43 24.56C113.2 25.15 114.67 25.74 115.63 25.96C115.15 31.88 114.16 33.57 110.3 33.57H103.53C99.49 33.57 98.2 32.54 98.2 28.57V13.92H110.27V5.39H97.94V2.12001H113.69V19.11H110.27V17.2H101.66V28.57C101.66 30.04 102.03 30.33 103.9 30.33H110.08Z" fill="#241D1A"/>
<path d="M133.5 9.47C132.65 10.98 131.55 12.52 130.41 14.03V33.89H127.1V17.82C125.85 19.18 124.49 20.36 123.24 21.39C122.94 20.62 122.06 18.78 121.51 17.93C124.78 15.62 128.32 11.94 130.49 8.26L133.5 9.47ZM132.98 1.56C130.7 4.8 127.1 8.25 123.78 10.43C123.41 9.66 122.57 8.3 122.01 7.6C124.88 5.76 128.12 2.78 129.66 0.279999L132.98 1.56ZM155.57 24.15H150.31V30.37C150.31 32.06 149.98 32.91 148.77 33.39C147.56 33.9 145.79 33.94 143.18 33.94C142.99 33.02 142.52 31.74 142.08 30.85C143.92 30.92 145.69 30.92 146.2 30.89C146.75 30.85 146.9 30.74 146.9 30.3V24.16H132.73V21.22H146.9V18.53H133.62V15.7H154.89V18.53H150.33V21.22H155.59V24.15H155.57ZM137.99 24.37C139.61 25.84 141.6 27.94 142.51 29.34L139.94 31.18C139.09 29.78 137.18 27.58 135.56 25.99L137.99 24.37ZM153.4 13.59H135.67V1.27H153.4V13.59ZM149.94 3.77H138.98V6.23H149.94V3.77ZM149.94 8.59H138.98V11.05H149.94V8.59Z" fill="#241D1A"/>
</svg>
