<svg width="734" height="40" viewBox="0 0 734 40" fill="none" xmlns="http://www.w3.org/2000/svg">
<path d="M0.660034 2.32001H11.01C14.06 2.32001 16.59 2.94001 18.62 4.18001C20.64 5.42001 22.14 7.10001 23.1 9.21001C24.06 11.32 24.54 13.71 24.54 16.4C24.54 19.23 24.02 21.74 22.97 23.92C21.92 26.1 20.4 27.8 18.4 29.02C16.4 30.24 14.05 30.85 11.34 30.85H0.660034V2.32001ZM4.54002 27.6C6.05002 27.6 7.17003 27.6 7.91003 27.6C8.64003 27.6 9.75004 27.6 11.24 27.6C13.14 27.6 14.81 27.19 16.25 26.37C17.69 25.55 18.82 24.32 19.63 22.67C20.45 21.03 20.86 19.02 20.86 16.65C20.86 14.11 20.4 12.02 19.47 10.36C18.54 8.70001 17.31 7.49001 15.76 6.72001C14.21 5.95001 12.35 5.57001 10.18 5.57001C8.81002 5.57001 7.81003 5.57001 7.16003 5.57001C6.51003 5.57001 5.53003 5.57001 4.22003 5.57001C4.22003 12.91 4.22003 20.25 4.22003 27.59C4.33003 27.6 4.44002 27.6 4.54002 27.6Z" fill="#241D1A"/>
<path d="M32.88 30.14C31.34 29.25 30.14 28 29.26 26.37C28.38 24.75 27.95 22.89 27.95 20.79C27.95 18.72 28.38 16.86 29.23 15.21C30.08 13.57 31.26 12.28 32.78 11.35C34.29 10.42 36.01 9.96002 37.94 9.96002C39.52 9.96002 41.04 10.3 42.47 10.99C43.91 11.67 45.09 12.79 46.02 14.36C46.95 15.92 47.41 17.93 47.41 20.39V21.64H31.47C31.52 23.05 31.84 24.27 32.44 25.3C33.04 26.32 33.83 27.1 34.82 27.62C35.81 28.15 36.92 28.41 38.17 28.41C39.63 28.41 40.91 28 41.99 27.18C43.07 26.36 43.9 25.28 44.46 23.94L47.6 25.18C46.87 27.11 45.66 28.63 43.96 29.77C42.27 30.9 40.32 31.47 38.13 31.47C36.15 31.47 34.41 31.03 32.88 30.14ZM42.9 15.45C42.32 14.62 41.59 14.02 40.72 13.66C39.86 13.3 38.91 13.11 37.89 13.11C36.79 13.11 35.8 13.34 34.91 13.8C34.02 14.26 33.29 14.91 32.72 15.74C32.15 16.57 31.77 17.53 31.6 18.63H43.85C43.8 17.34 43.48 16.28 42.9 15.45Z" fill="#241D1A"/>
<path d="M53.19 29.92C51.67 28.88 50.64 27.51 50.1 25.8L53.21 24.77C53.7 25.97 54.44 26.92 55.44 27.62C56.44 28.33 57.5 28.68 58.62 28.68C59.2 28.68 59.8 28.58 60.39 28.37C60.98 28.16 61.5 27.83 61.93 27.36C62.36 26.9 62.57 26.3 62.57 25.57C62.57 24.96 62.41 24.46 62.08 24.05C61.75 23.65 61.34 23.33 60.85 23.1C60.36 22.87 59.75 22.66 59.02 22.46C58.95 22.43 58.9 22.42 58.87 22.42C58.84 22.42 58.81 22.41 58.76 22.38L56.75 21.79C56.7 21.79 56.66 21.78 56.64 21.75C55.69 21.48 54.82 21.14 54.03 20.71C53.24 20.28 52.54 19.67 51.95 18.86C51.35 18.05 51.05 17.05 51.05 15.86C51.05 14.62 51.38 13.55 52.04 12.66C52.7 11.77 53.56 11.1 54.62 10.65C55.68 10.2 56.82 9.97 58.04 9.97C59.84 9.97 61.42 10.44 62.76 11.38C64.1 12.32 64.99 13.52 65.43 14.98L62.28 16.04C61.96 15.09 61.42 14.3 60.65 13.68C59.88 13.05 58.95 12.74 57.85 12.74C57.19 12.74 56.6 12.86 56.08 13.09C55.55 13.32 55.15 13.65 54.85 14.09C54.56 14.53 54.41 15.03 54.41 15.59C54.41 16.57 54.8 17.3 55.58 17.8C56.36 18.3 57.38 18.73 58.65 19.1L58.69 19.14H58.73L60.52 19.65C60.57 19.65 60.62 19.66 60.67 19.69C61.67 19.98 62.54 20.31 63.28 20.68C64.02 21.04 64.68 21.59 65.24 22.32C65.8 23.05 66.08 23.99 66.08 25.14C66.08 26.33 65.77 27.41 65.15 28.38C64.53 29.34 63.65 30.09 62.52 30.63C61.39 31.17 60.09 31.43 58.63 31.43C56.52 31.47 54.71 30.95 53.19 29.92Z" fill="#241D1A"/>
<path d="M70.39 5.41001C69.93 4.93001 69.7 4.36001 69.7 3.67001C69.7 3.26001 69.8 2.86001 70.01 2.48001C70.22 2.10001 70.51 1.81001 70.89 1.60001C71.27 1.39001 71.68 1.29001 72.11 1.29001C72.77 1.29001 73.33 1.52001 73.79 1.99001C74.25 2.45001 74.48 3.01001 74.48 3.67001C74.48 4.13001 74.38 4.55001 74.17 4.91001C73.96 5.27001 73.68 5.57001 73.31 5.79001C72.94 6.01001 72.54 6.12001 72.1 6.12001C71.43 6.12001 70.85 5.88001 70.39 5.41001ZM70.39 10.58H73.72V30.85H70.39V10.58Z" fill="#241D1A"/>
<path d="M82.81 38.11C81.19 37.2 80 35.69 79.25 33.59L82.29 32.53C82.8 33.85 83.56 34.86 84.58 35.57C85.59 36.28 86.9 36.63 88.51 36.63C89.73 36.63 90.8 36.39 91.71 35.9C92.62 35.41 93.36 34.61 93.92 33.5C94.48 32.39 94.79 30.92 94.83 29.09C94.83 28.95 94.83 28.8 94.83 28.65V28.39C94.83 28 94.83 27.71 94.83 27.53C94.83 27.35 94.83 27.06 94.83 26.67H94.76C94.03 28.03 93.04 29.06 91.8 29.76C90.56 30.45 89.19 30.8 87.71 30.8C85.83 30.8 84.18 30.34 82.76 29.41C81.33 28.48 80.24 27.23 79.47 25.64C78.7 24.05 78.32 22.3 78.32 20.37C78.32 18.37 78.73 16.59 79.54 15.01C80.36 13.44 81.47 12.21 82.89 11.32C84.3 10.43 85.89 9.98001 87.64 9.98001C89.2 9.98001 90.61 10.35 91.86 11.1C93.12 11.84 94.11 12.9 94.84 14.26H94.91C94.91 13.48 94.91 12.9 94.91 12.52C94.91 12.14 94.91 11.57 94.91 10.82C94.91 10.74 94.91 10.66 94.91 10.56H98.17V28.45C98.17 32.35 97.3 35.16 95.55 36.88C93.81 38.6 91.49 39.46 88.58 39.46C86.35 39.49 84.43 39.03 82.81 38.11ZM91.6 26.7C92.6 26.05 93.4 25.17 94 24.05C94.6 22.93 94.9 21.69 94.9 20.32C94.9 18.96 94.6 17.72 94 16.63C93.4 15.53 92.6 14.67 91.59 14.05C90.58 13.43 89.46 13.12 88.24 13.12C87.02 13.12 85.92 13.43 84.93 14.07C83.94 14.7 83.17 15.57 82.61 16.68C82.05 17.79 81.77 19.02 81.77 20.36C81.77 21.7 82.05 22.93 82.61 24.05C83.17 25.17 83.94 26.06 84.93 26.7C85.92 27.35 87.02 27.67 88.24 27.67C89.48 27.67 90.6 27.35 91.6 26.7Z" fill="#241D1A"/>
<path d="M104.18 10.58H107.44C107.44 10.61 107.44 10.62 107.44 10.63C107.44 10.64 107.44 10.66 107.44 10.69C107.44 11.47 107.44 12.05 107.44 12.44C107.44 12.83 107.44 13.4 107.44 14.16H107.51C108.27 12.77 109.24 11.73 110.43 11.03C111.63 10.33 112.94 9.99002 114.38 9.99002C115.7 9.99002 116.9 10.27 118 10.83C119.1 11.39 119.98 12.27 120.65 13.48C121.32 14.69 121.66 16.23 121.66 18.11V30.84H118.33V19.58C118.33 18.12 118.13 16.91 117.73 15.98C117.33 15.04 116.75 14.34 116.01 13.86C115.27 13.38 114.38 13.15 113.36 13.15C112.19 13.15 111.17 13.44 110.29 14.03C109.41 14.61 108.73 15.42 108.24 16.44C107.75 17.47 107.51 18.6 107.51 19.84V30.85H104.18V10.58Z" fill="#241D1A"/>
<path d="M142.52 29.59C140.31 28.33 138.59 26.58 137.36 24.34C136.13 22.1 135.51 19.52 135.51 16.62C135.51 13.64 136.15 11.03 137.45 8.77001C138.74 6.52001 140.48 4.78001 142.66 3.56001C144.84 2.34001 147.24 1.73001 149.85 1.73001C151.73 1.73001 153.52 2.06001 155.23 2.72001C156.94 3.38001 158.43 4.35001 159.71 5.63001C160.99 6.91001 161.95 8.45001 162.58 10.26L159.33 11.58C158.52 9.55001 157.28 7.96001 155.6 6.80001C153.92 5.64001 151.99 5.06001 149.82 5.06001C147.89 5.06001 146.12 5.54001 144.5 6.49001C142.88 7.44001 141.6 8.80001 140.66 10.57C139.72 12.34 139.25 14.39 139.25 16.73C139.25 19.24 139.77 21.36 140.82 23.08C141.87 24.8 143.23 26.07 144.9 26.9C146.57 27.73 148.34 28.14 150.22 28.14C151.95 28.14 153.5 27.8 154.86 27.12C156.22 26.43 157.38 25.48 158.32 24.27C159.26 23.05 159.95 21.66 160.39 20.1L163.65 21.24C162.65 24.43 160.99 26.94 158.66 28.76C156.33 30.58 153.46 31.49 150.05 31.49C147.23 31.47 144.73 30.84 142.52 29.59Z" fill="#241D1A"/>
<path d="M170.79 30.1C169.24 29.19 168.03 27.92 167.17 26.31C166.31 24.7 165.87 22.85 165.87 20.75C165.87 18.68 166.3 16.82 167.17 15.19C168.03 13.56 169.25 12.28 170.81 11.37C172.37 10.46 174.15 10 176.15 10C178.12 10 179.89 10.46 181.43 11.37C182.98 12.28 184.18 13.56 185.05 15.19C185.91 16.83 186.35 18.68 186.35 20.75C186.35 22.85 185.92 24.7 185.05 26.33C184.19 27.95 182.98 29.22 181.43 30.12C179.88 31.02 178.11 31.47 176.11 31.47C174.11 31.47 172.33 31.02 170.79 30.1ZM179.62 27.37C180.64 26.71 181.44 25.81 182 24.66C182.56 23.52 182.84 22.21 182.84 20.75C182.84 19.26 182.56 17.95 182 16.8C181.44 15.65 180.65 14.76 179.62 14.11C178.59 13.46 177.44 13.14 176.15 13.14C174.83 13.14 173.66 13.46 172.62 14.11C171.58 14.76 170.79 15.65 170.22 16.8C169.66 17.95 169.38 19.26 169.38 20.75C169.38 22.21 169.66 23.52 170.22 24.66C170.78 25.81 171.57 26.71 172.6 27.37C173.62 28.03 174.79 28.36 176.11 28.36C177.42 28.36 178.59 28.04 179.62 27.37Z" fill="#241D1A"/>
<path d="M190.88 10.58H194.14C194.14 10.61 194.14 10.62 194.14 10.63C194.14 10.64 194.14 10.66 194.14 10.69C194.14 11.47 194.14 12.05 194.14 12.44C194.14 12.83 194.14 13.4 194.14 14.16H194.21C194.97 12.77 195.94 11.73 197.13 11.03C198.33 10.33 199.64 9.99002 201.08 9.99002C202.4 9.99002 203.6 10.27 204.7 10.83C205.8 11.39 206.68 12.27 207.35 13.48C208.02 14.69 208.36 16.23 208.36 18.11V30.84H205.03V19.58C205.03 18.12 204.83 16.91 204.43 15.98C204.03 15.04 203.45 14.34 202.71 13.86C201.97 13.38 201.08 13.15 200.06 13.15C198.89 13.15 197.87 13.44 196.99 14.03C196.11 14.61 195.43 15.42 194.94 16.44C194.45 17.47 194.21 18.6 194.21 19.84V30.85H190.88V10.58Z" fill="#241D1A"/>
<path d="M217.1 30.34C216.3 29.58 215.8 28.74 215.6 27.81C215.4 26.88 215.31 25.83 215.31 24.66C215.31 22.15 215.31 20.28 215.31 19.07C215.31 17.85 215.31 16.02 215.31 13.58C214.41 13.58 213.73 13.58 213.28 13.58C212.83 13.58 212.17 13.58 211.29 13.58V10.58C212.19 10.58 212.87 10.58 213.32 10.58C213.77 10.58 214.43 10.58 215.31 10.58C215.31 9.36002 215.31 8.45002 215.31 7.85002C215.31 7.25002 215.31 6.37002 215.31 5.20002C215.31 5.00002 215.31 4.82002 215.31 4.65002H218.64C218.64 4.92002 218.64 5.19002 218.64 5.45002C218.64 6.62002 218.64 7.49002 218.64 8.05002C218.64 8.61002 218.64 9.45002 218.64 10.58C219.98 10.58 220.98 10.58 221.64 10.58C222.3 10.58 223.29 10.58 224.6 10.58V13.58C223.26 13.58 222.26 13.58 221.6 13.58C220.94 13.58 219.95 13.58 218.64 13.58C218.64 14.89 218.64 15.88 218.64 16.52C218.64 17.16 218.64 18.12 218.64 19.39C218.64 20.34 218.64 21.04 218.64 21.49C218.64 21.94 218.64 22.63 218.64 23.55V23.63C218.64 24.61 218.69 25.42 218.79 26.06C218.89 26.71 219.14 27.27 219.56 27.74C219.97 28.22 220.62 28.45 221.5 28.45C222.43 28.45 223.4 28.16 224.43 27.57L224.61 27.46V30.53C224.1 30.82 223.52 31.05 222.87 31.21C222.22 31.37 221.56 31.45 220.88 31.45C219.16 31.47 217.9 31.09 217.1 30.34Z" fill="#241D1A"/>
<path d="M231.73 30.14C230.19 29.25 228.99 28 228.11 26.37C227.23 24.75 226.8 22.89 226.8 20.79C226.8 18.72 227.23 16.86 228.08 15.21C228.93 13.57 230.11 12.28 231.63 11.35C233.14 10.42 234.86 9.96002 236.79 9.96002C238.37 9.96002 239.89 10.3 241.32 10.99C242.76 11.67 243.94 12.79 244.87 14.36C245.8 15.92 246.26 17.93 246.26 20.39V21.64H230.3C230.35 23.05 230.67 24.27 231.27 25.3C231.87 26.32 232.66 27.1 233.65 27.62C234.64 28.15 235.75 28.41 237 28.41C238.46 28.41 239.74 28 240.82 27.18C241.9 26.36 242.73 25.28 243.29 23.94L246.43 25.18C245.7 27.11 244.49 28.63 242.79 29.77C241.1 30.9 239.15 31.47 236.96 31.47C235 31.47 233.26 31.03 231.73 30.14ZM241.74 15.45C241.16 14.62 240.43 14.02 239.56 13.66C238.7 13.3 237.75 13.11 236.73 13.11C235.63 13.11 234.64 13.34 233.75 13.8C232.86 14.26 232.13 14.91 231.56 15.74C230.99 16.57 230.61 17.53 230.44 18.63H242.69C242.65 17.34 242.33 16.28 241.74 15.45Z" fill="#241D1A"/>
<path d="M252.04 29.92C250.52 28.88 249.49 27.51 248.95 25.8L252.06 24.77C252.55 25.97 253.29 26.92 254.29 27.62C255.29 28.33 256.35 28.68 257.47 28.68C258.05 28.68 258.65 28.58 259.24 28.37C259.83 28.16 260.35 27.83 260.78 27.36C261.21 26.9 261.42 26.3 261.42 25.57C261.42 24.96 261.26 24.46 260.93 24.05C260.6 23.65 260.19 23.33 259.7 23.1C259.21 22.87 258.6 22.66 257.87 22.46C257.8 22.43 257.75 22.42 257.72 22.42C257.69 22.42 257.66 22.41 257.61 22.38L255.6 21.79C255.55 21.79 255.51 21.78 255.49 21.75C254.54 21.48 253.67 21.14 252.88 20.71C252.09 20.28 251.39 19.67 250.8 18.86C250.2 18.05 249.9 17.05 249.9 15.86C249.9 14.62 250.23 13.55 250.89 12.66C251.55 11.77 252.41 11.1 253.47 10.65C254.53 10.2 255.67 9.97 256.89 9.97C258.69 9.97 260.27 10.44 261.61 11.38C262.95 12.32 263.84 13.52 264.28 14.98L261.13 16.04C260.81 15.09 260.27 14.3 259.5 13.68C258.73 13.05 257.8 12.74 256.7 12.74C256.04 12.74 255.45 12.86 254.93 13.09C254.4 13.32 254 13.65 253.7 14.09C253.41 14.53 253.26 15.03 253.26 15.59C253.26 16.57 253.65 17.3 254.43 17.8C255.21 18.3 256.23 18.73 257.5 19.1L257.54 19.14H257.58L259.37 19.65C259.42 19.65 259.47 19.66 259.52 19.69C260.52 19.98 261.39 20.31 262.13 20.68C262.87 21.04 263.53 21.59 264.09 22.32C264.65 23.05 264.93 23.99 264.93 25.14C264.93 26.33 264.62 27.41 264 28.38C263.38 29.34 262.5 30.09 261.37 30.63C260.24 31.17 258.94 31.43 257.48 31.43C255.37 31.47 253.56 30.95 252.04 29.92Z" fill="#241D1A"/>
<path d="M272.17 30.34C271.37 29.58 270.87 28.74 270.67 27.81C270.47 26.88 270.38 25.83 270.38 24.66C270.38 22.15 270.38 20.28 270.38 19.07C270.38 17.85 270.38 16.02 270.38 13.58C269.48 13.58 268.8 13.58 268.35 13.58C267.9 13.58 267.24 13.58 266.36 13.58V10.58C267.26 10.58 267.94 10.58 268.39 10.58C268.84 10.58 269.5 10.58 270.38 10.58C270.38 9.36002 270.38 8.45002 270.38 7.85002C270.38 7.25002 270.38 6.37002 270.38 5.20002C270.38 5.00002 270.38 4.82002 270.38 4.65002H273.71C273.71 4.92002 273.71 5.19002 273.71 5.45002C273.71 6.62002 273.71 7.49002 273.71 8.05002C273.71 8.61002 273.71 9.45002 273.71 10.58C275.05 10.58 276.05 10.58 276.71 10.58C277.37 10.58 278.36 10.58 279.67 10.58V13.58C278.33 13.58 277.33 13.58 276.67 13.58C276.01 13.58 275.02 13.58 273.71 13.58C273.71 14.89 273.71 15.88 273.71 16.52C273.71 17.16 273.71 18.12 273.71 19.39C273.71 20.34 273.71 21.04 273.71 21.49C273.71 21.94 273.71 22.63 273.71 23.55V23.63C273.71 24.61 273.76 25.42 273.86 26.06C273.96 26.71 274.21 27.27 274.63 27.74C275.04 28.22 275.69 28.45 276.57 28.45C277.5 28.45 278.47 28.16 279.5 27.57L279.68 27.46V30.53C279.17 30.82 278.59 31.05 277.94 31.21C277.29 31.37 276.63 31.45 275.95 31.45C274.23 31.47 272.97 31.09 272.17 30.34Z" fill="#241D1A"/>
<path d="M296.36 30.1C294.81 29.19 293.6 27.92 292.74 26.31C291.88 24.7 291.44 22.85 291.44 20.75C291.44 18.68 291.87 16.82 292.74 15.19C293.6 13.56 294.82 12.28 296.38 11.37C297.94 10.46 299.72 10 301.72 10C303.69 10 305.46 10.46 307 11.37C308.55 12.28 309.75 13.56 310.62 15.19C311.48 16.83 311.92 18.68 311.92 20.75C311.92 22.85 311.49 24.7 310.62 26.33C309.76 27.95 308.55 29.22 307 30.12C305.45 31.02 303.68 31.47 301.68 31.47C299.68 31.47 297.9 31.02 296.36 30.1ZM305.19 27.37C306.21 26.71 307.01 25.81 307.57 24.66C308.13 23.52 308.41 22.21 308.41 20.75C308.41 19.26 308.13 17.95 307.57 16.8C307.01 15.65 306.22 14.76 305.19 14.11C304.16 13.46 303.01 13.14 301.72 13.14C300.4 13.14 299.23 13.46 298.19 14.11C297.15 14.76 296.36 15.65 295.79 16.8C295.23 17.95 294.95 19.26 294.95 20.75C294.95 22.21 295.23 23.52 295.79 24.66C296.35 25.81 297.14 26.71 298.17 27.37C299.19 28.03 300.36 28.36 301.68 28.36C302.99 28.36 304.16 28.04 305.19 27.37Z" fill="#241D1A"/>
<path d="M317.22 28.69C317.22 25.25 317.22 22.7 317.22 21.05C317.22 19.4 317.22 16.89 317.22 13.55C316.54 13.55 316.02 13.55 315.68 13.55C315.34 13.55 314.84 13.55 314.18 13.55V10.58C314.86 10.58 315.38 10.58 315.72 10.58C316.06 10.58 316.56 10.58 317.22 10.58C317.22 10.02 317.22 9.60001 317.22 9.32001C317.22 9.04001 317.22 8.63001 317.22 8.09001C317.22 8.04001 317.22 7.99001 317.22 7.94001C317.24 6.38001 317.45 5.10001 317.82 4.12001C318.2 3.13001 318.83 2.36001 319.7 1.79001C320.58 1.23001 321.71 0.950012 323.1 0.950012C324.54 0.950012 325.76 1.23001 326.76 1.79001V4.72001C326.2 4.40001 325.68 4.18001 325.21 4.04001C324.73 3.91001 324.24 3.84001 323.73 3.84001C322.78 3.84001 322.07 4.02001 321.61 4.39001C321.15 4.76001 320.85 5.23001 320.73 5.80001C320.61 6.37001 320.55 7.12001 320.55 8.05001C320.55 8.13001 320.55 8.21001 320.55 8.31001V8.35001V8.39001C320.55 8.90001 320.55 9.27001 320.55 9.50001C320.55 9.73001 320.55 10.09 320.55 10.58C321.82 10.58 322.75 10.58 323.35 10.58C323.95 10.58 324.86 10.58 326.07 10.58V13.54C324.83 13.54 323.9 13.54 323.29 13.54C322.68 13.54 321.77 13.54 320.55 13.54C320.55 17.47 320.55 20.38 320.55 22.29C320.55 24.19 320.55 27.04 320.55 30.85H317.22C317.22 30.12 317.22 29.4 317.22 28.69Z" fill="#241D1A"/>
<path d="M338.35 2.32001H341.9C341.9 2.78001 341.9 3.26001 341.9 3.75001C341.9 9.14001 341.9 13.15 341.9 15.77C341.9 18.39 341.9 22.31 341.9 27.53C345.04 27.53 347.39 27.53 348.94 27.53C350.49 27.53 352.79 27.53 355.83 27.53V30.86H338.35V2.32001Z" fill="#241D1A"/>
<path d="M362.1 30.1C360.55 29.19 359.34 27.92 358.48 26.31C357.62 24.7 357.18 22.85 357.18 20.75C357.18 18.68 357.61 16.82 358.48 15.19C359.34 13.56 360.56 12.28 362.12 11.37C363.68 10.46 365.46 10 367.46 10C369.43 10 371.2 10.46 372.74 11.37C374.29 12.28 375.49 13.56 376.36 15.19C377.22 16.83 377.66 18.68 377.66 20.75C377.66 22.85 377.23 24.7 376.36 26.33C375.5 27.95 374.29 29.22 372.74 30.12C371.19 31.02 369.42 31.47 367.42 31.47C365.43 31.47 363.65 31.02 362.1 30.1ZM370.94 27.37C371.96 26.71 372.76 25.81 373.32 24.66C373.88 23.52 374.16 22.21 374.16 20.75C374.16 19.26 373.88 17.95 373.32 16.8C372.76 15.65 371.97 14.76 370.94 14.11C369.91 13.46 368.76 13.14 367.47 13.14C366.15 13.14 364.98 13.46 363.94 14.11C362.9 14.76 362.11 15.65 361.54 16.8C360.98 17.95 360.7 19.26 360.7 20.75C360.7 22.21 360.98 23.52 361.54 24.66C362.1 25.81 362.89 26.71 363.92 27.37C364.94 28.03 366.11 28.36 367.43 28.36C368.75 28.36 369.91 28.04 370.94 27.37Z" fill="#241D1A"/>
<path d="M385.69 30.14C384.14 29.25 382.93 28 382.05 26.37C381.17 24.75 380.74 22.88 380.74 20.75C380.74 18.62 381.18 16.76 382.05 15.13C382.93 13.51 384.13 12.25 385.67 11.34C387.2 10.44 388.95 9.99002 390.9 9.99002C392.95 9.99002 394.77 10.49 396.37 11.49C397.97 12.49 399.14 13.98 399.9 15.95L396.72 17.19C396.26 15.88 395.51 14.87 394.47 14.17C393.43 13.47 392.22 13.13 390.83 13.13C389.51 13.13 388.36 13.46 387.36 14.12C386.36 14.78 385.59 15.68 385.06 16.83C384.52 17.98 384.26 19.28 384.26 20.75C384.26 22.26 384.55 23.59 385.12 24.74C385.69 25.89 386.5 26.78 387.55 27.41C388.6 28.05 389.77 28.36 391.06 28.36C392.57 28.36 393.89 27.93 395.03 27.08C396.16 26.23 397.01 25.07 397.57 23.6L400.64 24.77C399.88 26.89 398.65 28.54 396.93 29.71C395.21 30.88 393.23 31.46 390.99 31.46C389 31.47 387.24 31.03 385.69 30.14Z" fill="#241D1A"/>
<path d="M406.26 30.85C405.26 30.44 404.46 29.82 403.86 29C403.26 28.18 402.96 27.18 402.96 25.98C402.96 24.76 403.28 23.74 403.91 22.93C404.54 22.11 405.37 21.46 406.4 20.97C407.42 20.48 408.63 20.11 410.02 19.84C410.29 19.76 410.64 19.69 411.08 19.62C412.49 19.35 413.53 19.12 414.21 18.93C414.88 18.73 415.4 18.46 415.78 18.1C416.16 17.75 416.35 17.24 416.35 16.58C416.35 15.92 416.16 15.3 415.78 14.72C415.4 14.13 414.87 13.67 414.17 13.31C413.48 12.96 412.69 12.78 411.81 12.78C410.61 12.78 409.58 13.13 408.7 13.82C407.82 14.52 407.2 15.47 406.83 16.69L403.65 15.63C404.23 13.73 405.29 12.31 406.81 11.39C408.33 10.46 410.06 10 411.98 10C413.42 10 414.72 10.25 415.89 10.75C417.06 11.25 417.99 12.02 418.69 13.05C419.39 14.08 419.73 15.37 419.73 16.91V24.52C419.73 24.69 419.73 24.88 419.73 25.07C419.76 26.43 419.82 27.52 419.91 28.32C420.01 29.13 420.17 29.97 420.39 30.85H417.06C416.89 30.24 416.77 29.65 416.7 29.07C416.63 28.5 416.59 27.86 416.59 27.15H416.52C415.89 28.46 414.97 29.51 413.76 30.29C412.55 31.07 411.13 31.46 409.5 31.46C408.34 31.47 407.26 31.27 406.26 30.85ZM413.45 27.91C414.36 27.29 415.08 26.51 415.59 25.58C416.1 24.65 416.36 23.77 416.36 22.91V20.5C415.9 20.77 415.5 20.98 415.17 21.14C414.84 21.3 414.38 21.45 413.8 21.6C413.48 21.7 412.82 21.85 411.83 22.04C410.85 22.24 410.01 22.47 409.31 22.74C408.6 23.01 407.98 23.4 407.43 23.91C406.88 24.42 406.61 25.07 406.61 25.85C406.61 26.78 406.94 27.51 407.62 28.05C408.29 28.59 409.2 28.85 410.34 28.85C411.49 28.84 412.53 28.53 413.45 27.91Z" fill="#241D1A"/>
<path d="M425.53 1.59003H428.86V30.86H425.53V1.59003Z" fill="#241D1A"/>
<path d="M444.8 2.32001H448.35V3.09001C448.35 5.77001 448.35 7.76001 448.35 9.05001C448.35 10.34 448.35 12.28 448.35 14.87C451.84 14.87 454.43 14.87 456.12 14.87C457.81 14.87 460.34 14.87 463.71 14.87C463.71 12.04 463.71 9.93001 463.71 8.54001C463.71 7.15001 463.71 5.07001 463.71 2.32001H467.26V30.85H463.71C463.71 28 463.71 25.87 463.71 24.48C463.71 23.09 463.71 21 463.71 18.22C460.22 18.22 457.63 18.22 455.94 18.22C454.25 18.22 451.72 18.22 448.35 18.22C448.35 20.78 448.35 22.68 448.35 23.93C448.35 25.17 448.35 27.04 448.35 29.52C448.35 29.94 448.35 30.37 448.35 30.84H444.8V2.32001Z" fill="#241D1A"/>
<path d="M475.3 30.85C474.3 30.44 473.5 29.82 472.9 29C472.3 28.18 472 27.18 472 25.98C472 24.76 472.32 23.74 472.95 22.93C473.58 22.11 474.41 21.46 475.44 20.97C476.46 20.48 477.67 20.11 479.06 19.84C479.33 19.76 479.68 19.69 480.12 19.62C481.53 19.35 482.57 19.12 483.25 18.93C483.92 18.73 484.44 18.46 484.82 18.1C485.2 17.75 485.39 17.24 485.39 16.58C485.39 15.92 485.2 15.3 484.82 14.72C484.44 14.13 483.91 13.67 483.21 13.31C482.52 12.96 481.73 12.78 480.85 12.78C479.65 12.78 478.62 13.13 477.74 13.82C476.86 14.52 476.24 15.47 475.87 16.69L472.69 15.63C473.27 13.73 474.33 12.31 475.85 11.39C477.37 10.46 479.1 10 481.02 10C482.46 10 483.76 10.25 484.93 10.75C486.1 11.25 487.03 12.02 487.73 13.05C488.42 14.09 488.77 15.37 488.77 16.91V24.52C488.77 24.69 488.77 24.88 488.77 25.07C488.79 26.43 488.86 27.52 488.95 28.32C489.05 29.13 489.21 29.97 489.43 30.85H486.1C485.93 30.24 485.81 29.65 485.74 29.07C485.67 28.5 485.63 27.86 485.63 27.15H485.56C484.93 28.46 484.01 29.51 482.8 30.29C481.59 31.07 480.17 31.46 478.54 31.46C477.38 31.47 476.3 31.27 475.3 30.85ZM482.48 27.91C483.39 27.29 484.11 26.51 484.62 25.58C485.13 24.65 485.39 23.77 485.39 22.91V20.5C484.93 20.77 484.53 20.98 484.2 21.14C483.87 21.3 483.41 21.45 482.83 21.6C482.51 21.7 481.85 21.85 480.86 22.04C479.88 22.24 479.04 22.47 478.34 22.74C477.63 23.01 477.01 23.4 476.46 23.91C475.91 24.42 475.64 25.07 475.64 25.85C475.64 26.78 475.97 27.51 476.65 28.05C477.32 28.59 478.23 28.85 479.37 28.85C480.53 28.84 481.57 28.53 482.48 27.91Z" fill="#241D1A"/>
<path d="M494.57 1.59003H497.93V2.91003C497.93 6.71003 497.93 9.54003 497.93 11.39C497.93 13.24 497.93 16.01 497.93 19.7H498L498.29 19.37C500.02 17.54 501.4 16.07 502.42 14.96C503.44 13.85 504.8 12.39 506.48 10.59H510.5L502.89 18.64C504.82 21.32 506.25 23.32 507.19 24.62C508.13 25.92 509.52 27.88 511.38 30.49L511.67 30.85H507.79L506.69 29.35C505.32 27.47 504.31 26.07 503.65 25.15C502.99 24.22 502 22.84 500.69 21.01C500.06 21.7 499.59 22.2 499.28 22.51C498.97 22.83 498.52 23.3 497.91 23.94C497.91 25.5 497.91 26.66 497.91 27.41C497.91 28.17 497.91 29.31 497.91 30.85H494.55V1.59003H494.57Z" fill="#241D1A"/>
<path d="M514.35 1.59003H517.71V2.91003C517.71 6.71003 517.71 9.54003 517.71 11.39C517.71 13.24 517.71 16.01 517.71 19.7H517.78L518.07 19.37C519.8 17.54 521.18 16.07 522.2 14.96C523.22 13.85 524.58 12.39 526.26 10.59H530.28L522.67 18.64C524.6 21.32 526.03 23.32 526.97 24.62C527.91 25.92 529.3 27.88 531.16 30.49L531.45 30.85H527.57L526.47 29.35C525.1 27.47 524.09 26.07 523.43 25.15C522.77 24.22 521.78 22.84 520.47 21.01C519.84 21.7 519.37 22.2 519.06 22.51C518.75 22.83 518.3 23.3 517.69 23.94C517.69 25.5 517.69 26.66 517.69 27.41C517.69 28.17 517.69 29.31 517.69 30.85H514.33V1.59003H514.35Z" fill="#241D1A"/>
<path d="M535.6 30.85C534.6 30.44 533.8 29.82 533.2 29C532.6 28.18 532.3 27.18 532.3 25.98C532.3 24.76 532.62 23.74 533.25 22.93C533.88 22.11 534.71 21.46 535.74 20.97C536.76 20.48 537.97 20.11 539.36 19.84C539.63 19.76 539.98 19.69 540.42 19.62C541.83 19.35 542.87 19.12 543.55 18.93C544.22 18.73 544.74 18.46 545.12 18.1C545.5 17.75 545.69 17.24 545.69 16.58C545.69 15.92 545.5 15.3 545.12 14.72C544.74 14.13 544.21 13.67 543.51 13.31C542.82 12.96 542.03 12.78 541.15 12.78C539.95 12.78 538.92 13.13 538.04 13.82C537.16 14.52 536.54 15.47 536.17 16.69L533 15.63C533.58 13.73 534.64 12.31 536.16 11.39C537.68 10.46 539.41 10 541.33 10C542.77 10 544.07 10.25 545.24 10.75C546.41 11.25 547.34 12.02 548.04 13.05C548.73 14.09 549.08 15.37 549.08 16.91V24.52C549.08 24.69 549.08 24.88 549.08 25.07C549.11 26.43 549.17 27.52 549.26 28.32C549.36 29.13 549.52 29.97 549.74 30.85H546.41C546.24 30.24 546.12 29.65 546.05 29.07C545.98 28.5 545.94 27.86 545.94 27.15H545.87C545.24 28.46 544.32 29.51 543.11 30.29C541.9 31.07 540.48 31.46 538.85 31.46C537.68 31.47 536.59 31.27 535.6 30.85ZM542.78 27.91C543.69 27.29 544.41 26.51 544.92 25.58C545.43 24.65 545.69 23.77 545.69 22.91V20.5C545.23 20.77 544.83 20.98 544.5 21.14C544.17 21.3 543.71 21.45 543.13 21.6C542.81 21.7 542.15 21.85 541.16 22.04C540.18 22.24 539.34 22.47 538.64 22.74C537.93 23.01 537.31 23.4 536.76 23.91C536.21 24.42 535.94 25.07 535.94 25.85C535.94 26.78 536.27 27.51 536.95 28.05C537.62 28.59 538.53 28.85 539.67 28.85C540.83 28.84 541.87 28.53 542.78 27.91Z" fill="#241D1A"/>
<path d="M564.78 2.32001H569.13C571.52 7.61001 573.29 11.54 574.43 14.1C575.58 16.66 577.31 20.52 579.62 25.66H579.69C582.08 20.37 583.85 16.44 585.01 13.88C586.17 11.32 587.9 7.46001 590.22 2.32001H594.57V30.85H590.99C590.99 29.82 590.99 28.8 590.99 27.78C590.99 23.54 590.99 20.39 590.99 18.32C590.99 16.25 590.99 13.18 590.99 9.08001H590.84C589.43 12.23 588.3 14.75 587.48 16.65C586.65 18.55 585.54 21.03 584.15 24.08C583.52 25.52 583.01 26.66 582.63 27.5C582.25 28.34 581.75 29.46 581.11 30.85H578.19C577.48 29.26 576.96 28.1 576.62 27.34C576.28 26.58 575.77 25.44 575.09 23.9C573.58 20.53 572.46 18.04 571.74 16.42C571.02 14.8 569.93 12.35 568.47 9.09001H568.36C568.36 13.36 568.36 16.53 568.36 18.6C568.36 20.67 568.36 23.78 568.36 27.93C568.36 28.91 568.36 29.88 568.36 30.86H564.78V2.32001Z" fill="#241D1A"/>
<path d="M604.63 30.14C603.09 29.25 601.89 28 601.01 26.37C600.13 24.75 599.7 22.89 599.7 20.79C599.7 18.72 600.13 16.86 600.98 15.21C601.83 13.57 603.01 12.28 604.53 11.35C606.04 10.42 607.76 9.96002 609.69 9.96002C611.27 9.96002 612.79 10.3 614.22 10.99C615.66 11.67 616.84 12.79 617.77 14.36C618.7 15.92 619.16 17.93 619.16 20.39V21.64H603.22C603.27 23.05 603.59 24.27 604.19 25.3C604.79 26.32 605.58 27.1 606.57 27.62C607.56 28.15 608.67 28.41 609.92 28.41C611.38 28.41 612.66 28 613.74 27.18C614.82 26.36 615.65 25.28 616.21 23.94L619.35 25.18C618.62 27.11 617.41 28.63 615.71 29.77C614.02 30.9 612.07 31.47 609.88 31.47C607.91 31.47 606.17 31.03 604.63 30.14ZM614.65 15.45C614.07 14.62 613.34 14.02 612.47 13.66C611.61 13.3 610.66 13.11 609.64 13.11C608.54 13.11 607.55 13.34 606.66 13.8C605.77 14.26 605.04 14.91 604.47 15.74C603.9 16.57 603.52 17.53 603.35 18.63H615.6C615.55 17.34 615.24 16.28 614.65 15.45Z" fill="#241D1A"/>
<path d="M623.79 10.58H627.05C627.05 10.66 627.05 10.73 627.05 10.8C627.05 11.56 627.05 12.13 627.05 12.5C627.05 12.87 627.05 13.43 627.05 14.16H627.12C627.88 12.77 628.84 11.73 630.03 11.03C631.21 10.33 632.5 9.99002 633.89 9.99002C635.33 9.99002 636.64 10.36 637.84 11.11C639.03 11.85 639.87 13 640.36 14.56H640.43C641.33 12.95 642.39 11.79 643.61 11.07C644.83 10.35 646.12 9.99002 647.49 9.99002C648.76 9.99002 649.93 10.27 651.02 10.83C652.1 11.39 652.99 12.28 653.67 13.5C654.35 14.72 654.69 16.26 654.69 18.11V30.84H651.36V19.58V19.32C651.33 17.91 651.12 16.76 650.72 15.87C650.32 14.98 649.77 14.3 649.07 13.84C648.38 13.38 647.54 13.15 646.57 13.15C645.47 13.15 644.5 13.45 643.64 14.05C642.79 14.65 642.12 15.45 641.63 16.46C641.14 17.47 640.9 18.6 640.9 19.84V30.85H637.57V19.58C637.57 18.09 637.37 16.89 636.98 15.96C636.59 15.03 636.04 14.33 635.33 13.86C634.62 13.38 633.78 13.15 632.81 13.15C631.69 13.15 630.7 13.45 629.85 14.05C629 14.65 628.33 15.45 627.84 16.46C627.35 17.47 627.11 18.6 627.11 19.84V30.85H623.78V10.58H623.79Z" fill="#241D1A"/>
<path d="M663.89 30.1C662.34 29.19 661.13 27.92 660.27 26.31C659.41 24.7 658.97 22.85 658.97 20.75C658.97 18.68 659.4 16.82 660.27 15.19C661.13 13.56 662.35 12.28 663.91 11.37C665.47 10.46 667.25 10 669.25 10C671.22 10 672.99 10.46 674.53 11.37C676.08 12.28 677.28 13.56 678.15 15.19C679.01 16.83 679.45 18.68 679.45 20.75C679.45 22.85 679.02 24.7 678.15 26.33C677.29 27.95 676.08 29.22 674.53 30.12C672.98 31.02 671.21 31.47 669.21 31.47C667.21 31.47 665.44 31.02 663.89 30.1ZM672.72 27.37C673.74 26.71 674.54 25.81 675.1 24.66C675.66 23.52 675.94 22.21 675.94 20.75C675.94 19.26 675.66 17.95 675.1 16.8C674.54 15.65 673.75 14.76 672.72 14.11C671.69 13.46 670.54 13.14 669.25 13.14C667.93 13.14 666.76 13.46 665.72 14.11C664.68 14.76 663.89 15.65 663.32 16.8C662.76 17.95 662.48 19.26 662.48 20.75C662.48 22.21 662.76 23.52 663.32 24.66C663.88 25.81 664.67 26.71 665.7 27.37C666.72 28.03 667.89 28.36 669.21 28.36C670.53 28.36 671.7 28.04 672.72 27.37Z" fill="#241D1A"/>
<path d="M683.98 10.58H687.24C687.24 10.82 687.24 11.07 687.24 11.31C687.24 12.02 687.24 12.54 687.24 12.88C687.24 13.22 687.24 13.73 687.24 14.42H687.39C687.95 13.11 688.79 12.04 689.89 11.22C691 10.41 692.26 9.99002 693.67 9.99002C694.48 9.99002 695.21 10.13 695.86 10.39V14.05C695.52 13.93 695.11 13.82 694.64 13.74C694.16 13.65 693.74 13.61 693.38 13.61C691.99 13.61 690.84 13.99 689.94 14.74C689.04 15.5 688.38 16.46 687.96 17.63C687.55 18.8 687.33 20.08 687.3 21.47V21.65V30.83H683.97V10.58H683.98Z" fill="#241D1A"/>
<path d="M699.3 5.41001C698.84 4.93001 698.61 4.36001 698.61 3.67001C698.61 3.26001 698.71 2.86001 698.92 2.48001C699.13 2.10001 699.42 1.81001 699.8 1.60001C700.18 1.39001 700.59 1.29001 701.02 1.29001C701.68 1.29001 702.24 1.52001 702.7 1.99001C703.16 2.45001 703.4 3.01001 703.4 3.67001C703.4 4.13001 703.3 4.55001 703.09 4.91001C702.88 5.27001 702.6 5.57001 702.23 5.79001C701.86 6.01001 701.46 6.12001 701.02 6.12001C700.34 6.12001 699.77 5.88001 699.3 5.41001ZM699.3 10.58H702.63V30.85H699.3V10.58Z" fill="#241D1A"/>
<path d="M710.49 30.85C709.49 30.44 708.69 29.82 708.09 29C707.49 28.18 707.19 27.18 707.19 25.98C707.19 24.76 707.51 23.74 708.14 22.93C708.77 22.11 709.6 21.46 710.63 20.97C711.65 20.48 712.86 20.11 714.25 19.84C714.52 19.76 714.87 19.69 715.31 19.62C716.72 19.35 717.76 19.12 718.44 18.93C719.11 18.73 719.63 18.46 720.01 18.1C720.39 17.75 720.58 17.24 720.58 16.58C720.58 15.92 720.39 15.3 720.01 14.72C719.63 14.13 719.1 13.67 718.4 13.31C717.71 12.96 716.92 12.78 716.04 12.78C714.84 12.78 713.81 13.13 712.93 13.82C712.05 14.52 711.43 15.47 711.06 16.69L707.88 15.63C708.46 13.73 709.52 12.31 711.04 11.39C712.56 10.46 714.29 10 716.21 10C717.65 10 718.95 10.25 720.12 10.75C721.29 11.25 722.22 12.02 722.92 13.05C723.61 14.09 723.96 15.37 723.96 16.91V24.52C723.96 24.69 723.96 24.88 723.96 25.07C723.99 26.43 724.05 27.52 724.14 28.32C724.24 29.13 724.4 29.97 724.62 30.85H721.29C721.12 30.24 721 29.65 720.93 29.07C720.86 28.5 720.82 27.86 720.82 27.15H720.75C720.12 28.46 719.2 29.51 717.99 30.29C716.78 31.07 715.36 31.46 713.73 31.46C712.58 31.47 711.49 31.27 710.49 30.85ZM717.68 27.91C718.59 27.29 719.31 26.51 719.82 25.58C720.33 24.65 720.59 23.77 720.59 22.91V20.5C720.13 20.77 719.73 20.98 719.4 21.14C719.07 21.3 718.61 21.45 718.03 21.6C717.71 21.7 717.05 21.85 716.06 22.04C715.08 22.24 714.24 22.47 713.54 22.74C712.83 23.01 712.21 23.4 711.66 23.91C711.11 24.42 710.84 25.07 710.84 25.85C710.84 26.78 711.17 27.51 711.85 28.05C712.52 28.59 713.43 28.85 714.57 28.85C715.72 28.84 716.77 28.53 717.68 27.91Z" fill="#241D1A"/>
<path d="M729.76 1.59003H733.09V30.86H729.76V1.59003Z" fill="#241D1A"/>
</svg>
