<svg width="129" height="51" viewBox="0 0 129 51" fill="none" xmlns="http://www.w3.org/2000/svg">
<path d="M41.0747 27.5628L43.9171 21.1875H45.8165L42.0203 29.2903H40.0884L36.2705 21.1875H38.2025L41.0747 27.5628Z" fill="#EBE0CF"/>
<path d="M46.792 21.1875H48.5289V29.2903H46.792V21.1875Z" fill="#EBE0CF"/>
<path d="M53.8097 20.9932C55.262 20.9932 56.5112 21.2307 57.3891 21.479L57.4866 22.9905C56.5112 22.6558 55.2729 22.3751 53.8422 22.3751C52.2706 22.3751 51.6176 22.6882 51.6176 23.2604C51.6176 24.9582 57.8768 23.5411 57.8768 26.9771C57.8768 28.5885 56.5437 29.4846 54.0698 29.4846C52.5822 29.4846 51.1732 29.1391 50.0351 28.5993L49.9268 26.9447C51.3466 27.6141 52.5849 28.0244 54.0806 28.0244C55.5005 28.0244 56.1643 27.6357 56.1643 27.0095C56.1643 25.139 49.9051 26.6424 49.9376 23.228C49.9484 21.7489 51.1949 20.9932 53.8097 20.9932Z" fill="#EBE0CF"/>
<path d="M59.0479 21.1875H60.7847V29.2903H59.0479V21.1875Z" fill="#EBE0CF"/>
<path d="M62.0312 25.2388C62.0312 22.6774 63.909 21.0039 66.8571 21.0039C69.8079 21.0039 71.6829 22.6801 71.6829 25.2388C71.6829 27.8111 69.8052 29.4846 66.8571 29.4846C63.909 29.4846 62.0312 27.8111 62.0312 25.2388ZM66.8571 28.0594C68.7349 28.0594 69.9488 26.9582 69.9488 25.2388C69.9488 23.5195 68.7349 22.4075 66.8571 22.4075C64.9793 22.4075 63.7654 23.5195 63.7654 25.2388C63.7654 26.9582 64.982 28.0594 66.8571 28.0594Z" fill="#EBE0CF"/>
<path d="M72.9316 21.1875H74.6685L80.0065 27.0878V21.1875H81.7434V29.2903H80.0065L74.6685 23.39V29.2903H72.9316V21.1875Z" fill="#EBE0CF"/>
<path d="M85.916 21.1875H90.9505C92.8825 21.1875 93.9446 22.0188 93.9446 23.3171C93.9446 24.3212 93.2727 25.0365 92.3731 25.1336C93.4244 25.1552 94.2508 25.9973 94.2508 27.1769C94.2508 28.4724 93.2645 29.2957 91.4518 29.2957H85.9187V21.1875H85.916ZM90.7961 24.5155C91.674 24.5155 92.1509 24.1808 92.1509 23.5654C92.1509 22.8745 91.6631 22.5398 90.7527 22.5398H87.5418V24.5182H90.7961V24.5155ZM91.2513 27.9191C91.9991 27.9191 92.4544 27.552 92.4544 26.9258C92.4544 26.2457 91.8582 25.8462 90.8367 25.8462H87.5391V27.9218H91.2513V27.9191Z" fill="#EBE0CF"/>
<path d="M94.625 29.2903L98.7897 21.1875H100.592L104.789 29.2903H102.857L101.925 27.3442H97.4566L96.5245 29.2903H94.625ZM101.274 25.9946L99.6893 22.6882L98.1042 25.9946H101.274Z" fill="#EBE0CF"/>
<path d="M109.271 20.9932C110.723 20.9932 111.972 21.2307 112.85 21.479L112.948 22.9905C111.972 22.6558 110.734 22.3751 109.303 22.3751C107.732 22.3751 107.079 22.6882 107.079 23.2604C107.079 24.9582 113.338 23.5411 113.338 26.9771C113.338 28.5885 112.005 29.4846 109.531 29.4846C108.046 29.4846 106.634 29.1391 105.496 28.5993L105.388 26.9447C106.808 27.6141 108.046 28.0244 109.542 28.0244C110.961 28.0244 111.625 27.6357 111.625 27.0095C111.625 25.139 105.366 26.6424 105.399 23.228C105.407 21.7489 106.656 20.9932 109.271 20.9932Z" fill="#EBE0CF"/>
<path d="M114.617 21.1875H121.939V22.591H116.351V24.4939H121.353V25.8543H116.351V27.8867H122.025V29.2903H114.617V21.1875Z" fill="#EBE0CF"/>
<path d="M20.3866 20.2297L19.3271 19.3768L21.2943 6.99316L22.3538 7.84879L20.3866 20.2297Z" fill="#EBE0CF"/>
<path d="M17.203 43.3992L16.1436 42.5463L19.0943 23.9736L20.1565 24.8293L17.203 43.3992Z" fill="#EBE0CF"/>
<path d="M46.7452 43.2483L7.87695 11.8945L7.2648 12.6475L46.133 44.0013L46.7452 43.2483Z" fill="#EBE0CF"/>
<path d="M53.3628 10.1621L22.5218 21.9546L21.4434 21.0855L52.2844 9.29297L53.3628 10.1621Z" fill="#EBE0CF"/>
<path d="M9.33105 25.1905L16.9776 22.2646L18.0371 23.1203L10.3905 26.0434L9.33105 25.1905Z" fill="#EBE0CF"/>
</svg>
